<?xml version="1.0" encoding="UTF-8" standalone="no"?>
<svg width="374px" height="154px" viewBox="0 0 374 154" version="1.1" xmlns="http://www.w3.org/2000/svg" xmlns:xlink="http://www.w3.org/1999/xlink" xmlns:sketch="http://www.bohemiancoding.com/sketch/ns">
    <!-- Generator: Sketch 3.3.1 (12002) - http://www.bohemiancoding.com/sketch -->
    <title>copywriting</title>
    <desc>Created with Sketch.</desc>
    <defs></defs>
    <g id="Page-1" stroke="none" stroke-width="1" fill="none" fill-rule="evenodd" sketch:type="MSPage">
        <g id="copywriting" sketch:type="MSLayerGroup" transform="translate(-1.000000, 0.000000)">
            <g id="Group" sketch:type="MSShapeGroup">
                <g transform="translate(359.933036, 13.391304)">
                    <path d="M0.758370536,0.36826087 L0.758370536,105.55863 L7.49497768,121.434022 L14.2299107,105.55863 L14.2299107,0.36826087 L0.758370536,0.36826087 Z" id="Shape" fill="#6ABEEC"></path>
                    <rect id="Rectangle-path" fill="#F5F5F5" x="0.758370536" y="18.5402609" width="13.4715402" height="3.34782609"></rect>
                    <rect id="Rectangle-path" fill="#F5F5F5" x="0.758370536" y="102.289478" width="13.4715402" height="3.34782609"></rect>
                </g>
                <path d="M325.888393,153.973217 L140.424107,153.973217 C138.344866,153.973217 136.652344,152.279217 136.652344,150.198543 L136.652344,21.079587 L131.623326,21.079587 L131.623326,5.621 L136.652344,5.621 L136.652344,4.36221739 C136.652344,2.28154348 138.344866,0.590891304 140.424107,0.590891304 L325.885045,0.590891304 C327.96596,0.590891304 329.658482,2.28321739 329.658482,4.36221739 L329.658482,5.621 L334.684152,5.621 L334.684152,21.0745652 L329.658482,21.079587 L334.684152,21.079587 L334.684152,32.591087 L329.658482,32.5944348 L334.684152,32.5944348 L334.684152,44.0825 L329.658482,44.0891957 L334.684152,44.0891957 L334.684152,55.6006957 L329.658482,55.6073913 L334.684152,55.6073913 L334.684152,67.1172174 L329.658482,67.1205652 L334.684152,67.1205652 L334.684152,78.6337391 L329.658482,78.637087 L334.684152,78.637087 L334.684152,90.1251522 L329.658482,90.1251522 L334.684152,90.1251522 L334.684152,101.64 L329.658482,101.646696 L334.684152,101.646696 L334.684152,113.156522 L329.658482,113.163217 L334.684152,113.163217 L334.684152,124.674717 L329.658482,124.678065 L334.684152,124.678065 L334.684152,136.16613 L329.658482,136.172826 L334.684152,136.172826 L334.684152,147.682652 L329.66183,147.682652 L329.66183,150.198543 C329.66183,152.280891 327.969308,153.973217 325.888393,153.973217 L325.888393,153.973217 Z M134.134487,18.5703913 L139.163504,18.5703913 L139.163504,150.200217 C139.163504,150.896565 139.729353,151.464022 140.424107,151.464022 L325.888393,151.464022 C326.584821,151.464022 327.15067,150.896565 327.15067,150.200217 L327.15067,145.173457 L332.172991,145.173457 L332.172991,138.68537 L327.147321,138.68537 L327.147321,133.656935 L332.172991,133.656935 L332.172991,127.190609 L327.147321,127.190609 L327.147321,122.165522 L332.172991,122.165522 L332.172991,115.675761 L327.147321,115.675761 L327.147321,110.645652 L332.172991,110.645652 L332.172991,104.157565 L327.147321,104.157565 L327.147321,99.1291304 L332.172991,99.1291304 L332.172991,92.6393696 L327.147321,92.6393696 L327.147321,87.6176304 L332.172991,87.6176304 L332.172991,81.1513043 L327.147321,81.1513043 L327.147321,76.1262174 L332.172991,76.1262174 L332.172991,69.6347826 L327.147321,69.6347826 L327.147321,64.6096957 L332.172991,64.6096957 L332.172991,58.1216087 L327.147321,58.1216087 L327.147321,53.0931739 L332.172991,53.0931739 L332.172991,46.603413 L327.147321,46.603413 L327.147321,41.5749783 L332.172991,41.5749783 L332.172991,35.1086522 L327.147321,35.1086522 L327.147321,30.0835652 L332.172991,30.0835652 L332.172991,23.5938043 L327.147321,23.5938043 L327.147321,18.5670435 L332.172991,18.5670435 L332.172991,8.13521739 L327.147321,8.13521739 L327.147321,4.36556522 C327.147321,3.66921739 326.581473,3.1051087 325.885045,3.1051087 L140.424107,3.1051087 C139.729353,3.1051087 139.163504,3.6708913 139.163504,4.36556522 L139.163504,8.13521739 L134.134487,8.13521739 L134.134487,18.5703913 L134.134487,18.5703913 Z" id="Shape" fill="#3E3B3E"></path>
                <path d="M170.288504,32.0202826 L158.97154,32.0202826 C156.887277,32.0202826 155.199777,30.3313043 155.199777,28.2489565 C155.199777,26.1632609 156.888951,24.4759565 158.97154,24.4759565 L170.288504,24.4759565 C172.371094,24.4759565 174.060268,26.1649348 174.060268,28.2489565 C174.060268,30.3329783 172.36942,32.0202826 170.288504,32.0202826 L170.288504,32.0202826 Z" id="Shape" fill="#6ABEEC"></path>
                <path d="M221.526228,46.4795435 L154.253906,46.4795435 C152.864397,46.4795435 151.737723,45.3546739 151.737723,43.9619783 C151.737723,42.5726304 152.862723,41.4494348 154.253906,41.4494348 L221.522879,41.4494348 C222.910714,41.4494348 224.039063,42.5743043 224.039063,43.9619783 C224.039062,45.3546739 222.914062,46.4795435 221.526228,46.4795435 L221.526228,46.4795435 Z" id="Shape" fill="#3E3B3E"></path>
                <path d="M221.526228,59.0523043 L154.253906,59.0523043 C152.864397,59.0523043 151.737723,57.9274348 151.737723,56.538087 C151.737723,55.1487391 152.862723,54.0205217 154.253906,54.0205217 L221.522879,54.0205217 C222.910714,54.0205217 224.039063,55.1453913 224.039063,56.538087 C224.039062,57.924087 222.914062,59.0523043 221.526228,59.0523043 L221.526228,59.0523043 Z" id="Shape" fill="#3E3B3E"></path>
                <path d="M221.526228,71.6233913 L154.253906,71.6233913 C152.864397,71.6233913 151.737723,70.4985217 151.737723,69.1075 C151.737723,67.7198261 152.862723,66.5932826 154.253906,66.5932826 L221.522879,66.5932826 C222.910714,66.5932826 224.039063,67.7181522 224.039063,69.1075 C224.039062,70.4985217 222.914062,71.6233913 221.526228,71.6233913 L221.526228,71.6233913 Z" id="Shape" fill="#3E3B3E"></path>
                <path d="M221.526228,84.1961522 L154.253906,84.1961522 C152.864397,84.1961522 151.737723,83.0712826 151.737723,81.6802609 C151.737723,80.290913 152.862723,79.1643696 154.253906,79.1643696 L221.522879,79.1643696 C222.910714,79.1643696 224.039063,80.2892391 224.039063,81.6802609 C224.039063,83.0712826 222.914062,84.1961522 221.526228,84.1961522 L221.526228,84.1961522 Z" id="Shape" fill="#3E3B3E"></path>
                <path d="M221.526228,96.768913 L154.253906,96.768913 C152.864397,96.768913 151.737723,95.6440435 151.737723,94.2546957 C151.737723,92.8653478 152.862723,91.7421522 154.253906,91.7421522 L221.522879,91.7421522 C222.910714,91.7421522 224.039063,92.8670217 224.039063,94.2546957 C224.039063,95.6423696 222.914062,96.768913 221.526228,96.768913 L221.526228,96.768913 Z" id="Shape" fill="#3E3B3E"></path>
                <path d="M221.526228,109.34 L154.253906,109.34 C152.864397,109.34 151.737723,108.21513 151.737723,106.827457 C151.737723,105.436435 152.862723,104.309891 154.253906,104.309891 L221.522879,104.309891 C222.910714,104.309891 224.039063,105.434761 224.039063,106.827457 C224.039062,108.21513 222.914062,109.34 221.526228,109.34 L221.526228,109.34 Z" id="Shape" fill="#3E3B3E"></path>
                <path d="M197.857701,121.912761 L153.401786,121.912761 C152.482701,121.912761 151.737723,120.787891 151.737723,119.398543 C151.737723,118.009196 152.482701,116.886 153.401786,116.886 L197.857701,116.886 C198.775112,116.886 199.520089,118.01087 199.520089,119.398543 C199.520089,120.786217 198.776786,121.912761 197.857701,121.912761 L197.857701,121.912761 Z" id="Shape" fill="#3E3B3E"></path>
                <path d="M296.655134,32.0202826 L307.96875,32.0202826 C310.053013,32.0202826 311.743862,30.3313043 311.743862,28.2489565 C311.743862,26.1632609 310.053013,24.4759565 307.96875,24.4759565 L296.655134,24.4759565 C294.569196,24.4759565 292.880022,26.1649348 292.880022,28.2489565 C292.881696,30.3329783 294.569196,32.0202826 296.655134,32.0202826 L296.655134,32.0202826 Z" id="Shape" fill="#6ABEEC"></path>
                <path d="M248.449219,46.4795435 L312.795201,46.4795435 C314.122768,46.4795435 315.199219,45.3546739 315.199219,43.9619783 C315.199219,42.5726304 314.124442,41.4494348 312.795201,41.4494348 L248.449219,41.4494348 C247.121652,41.4494348 246.041853,42.5743043 246.041853,43.9619783 C246.041853,45.3546739 247.119978,46.4795435 248.449219,46.4795435 L248.449219,46.4795435 Z" id="Shape" fill="#3E3B3E"></path>
                <path d="M248.449219,59.0523043 L312.795201,59.0523043 C314.122768,59.0523043 315.199219,57.9274348 315.199219,56.538087 C315.199219,55.1487391 314.124442,54.0205217 312.795201,54.0205217 L248.449219,54.0205217 C247.121652,54.0205217 246.041853,55.1453913 246.041853,56.538087 C246.041853,57.924087 247.119978,59.0523043 248.449219,59.0523043 L248.449219,59.0523043 Z" id="Shape" fill="#3E3B3E"></path>
                <path d="M248.449219,71.6233913 L312.795201,71.6233913 C314.122768,71.6233913 315.199219,70.4985217 315.199219,69.1075 C315.199219,67.7198261 314.124442,66.5932826 312.795201,66.5932826 L248.449219,66.5932826 C247.121652,66.5932826 246.041853,67.7181522 246.041853,69.1075 C246.041853,70.4985217 247.119978,71.6233913 248.449219,71.6233913 L248.449219,71.6233913 Z" id="Shape" fill="#3E3B3E"></path>
                <path d="M248.449219,84.1961522 L312.795201,84.1961522 C314.122768,84.1961522 315.199219,83.0712826 315.199219,81.6802609 C315.199219,80.290913 314.124442,79.1643696 312.795201,79.1643696 L248.449219,79.1643696 C247.121652,79.1643696 246.041853,80.2892391 246.041853,81.6802609 C246.041853,83.0712826 247.119978,84.1961522 248.449219,84.1961522 L248.449219,84.1961522 Z" id="Shape" fill="#3E3B3E"></path>
                <path d="M248.449219,96.768913 L312.795201,96.768913 C314.122768,96.768913 315.199219,95.6440435 315.199219,94.2546957 C315.199219,92.8653478 314.124442,91.7421522 312.795201,91.7421522 L248.449219,91.7421522 C247.121652,91.7421522 246.041853,92.8670217 246.041853,94.2546957 C246.041853,95.6423696 247.119978,96.768913 248.449219,96.768913 L248.449219,96.768913 Z" id="Shape" fill="#3E3B3E"></path>
                <path d="M248.449219,109.34 L312.795201,109.34 C314.122768,109.34 315.199219,108.21513 315.199219,106.827457 C315.199219,105.436435 314.124442,104.309891 312.795201,104.309891 L248.449219,104.309891 C247.121652,104.309891 246.041853,105.434761 246.041853,106.827457 C246.041853,108.21513 247.119978,109.34 248.449219,109.34 L248.449219,109.34 Z" id="Shape" fill="#3E3B3E"></path>
                <path d="M286.073103,121.912761 L314.151228,121.912761 C314.727121,121.912761 315.197545,120.787891 315.197545,119.398543 C315.197545,118.009196 314.727121,116.886 314.151228,116.886 L286.073103,116.886 C285.490513,116.886 285.021763,118.01087 285.021763,119.398543 C285.021763,120.786217 285.490513,121.912761 286.073103,121.912761 L286.073103,121.912761 Z" id="Shape" fill="#3E3B3E"></path>
                <path d="M103.212054,148.004043 L9.33482143,148.004043 C4.25892857,148.004043 1.46316964,145.208609 1.46316964,140.133304 L1.46316964,14.9815217 C1.46316964,10.2041739 4.55357143,7.11580435 9.33482143,7.11580435 L103.212054,7.11580435 C105.311384,7.11580435 107.28683,7.93434783 108.773438,9.42078261 C110.261719,10.9088913 111.080357,12.8824348 111.078683,14.9815217 L111.078683,140.133304 C111.080357,144.473761 107.551339,148.004043 103.212054,148.004043 L103.212054,148.004043 Z M9.33649554,9.62667391 C5.97991071,9.62667391 3.97600446,11.6286739 3.97600446,14.9815217 L3.97600446,140.133304 C3.97600446,143.78913 5.68024554,145.493174 9.33649554,145.493174 L103.213728,145.493174 C106.166853,145.493174 108.570871,143.089435 108.570871,140.133304 L108.570871,14.9815217 C108.570871,13.5536739 108.013393,12.2095217 107.000558,11.1968043 C105.987723,10.184087 104.641741,9.62667391 103.213728,9.62667391 L9.33649554,9.62667391 L9.33649554,9.62667391 Z" id="Shape" fill="#3E3B3E"></path>
                <path d="M92.4960937,24.0507826 L92.4960937,32.2613261 L17.2064732,32.2613261 L17.2064732,24.0507826 L92.4960937,24.0507826 L92.4960937,24.0507826 Z M93.3314732,21.539913 L16.3710937,21.539913 C15.4453125,21.539913 14.6969866,22.2898261 14.6969866,23.2138261 L14.6969866,33.0982826 C14.6969866,34.0222826 15.4469866,34.7721957 16.3710937,34.7721957 L93.3314732,34.7721957 C94.2572545,34.7721957 95.0055804,34.0222826 95.0072545,33.0982826 L95.0072545,23.2138261 C95.0072545,22.2898261 94.2572545,21.539913 93.3314732,21.539913 L93.3314732,21.539913 L93.3314732,21.539913 Z" id="Shape" fill="#3E3B3E"></path>
                <path d="M93.3264509,61.2283913 L37.3309152,61.2283913 C36.4051339,61.2283913 35.656808,60.4801522 35.656808,59.5544783 L35.656808,49.6716957 C35.656808,48.7476957 36.4051339,47.9977826 37.3309152,47.9977826 L93.3264509,47.9977826 C94.2522321,47.9977826 95.0039062,48.7476957 95.0039062,49.6716957 L95.0039062,59.5544783 C95.0022321,60.4801522 94.2522321,61.2283913 93.3264509,61.2283913 L93.3264509,61.2283913 Z" id="Shape" fill="#6ABEEC"></path>
                <path d="M26.6149554,70.2708696 L26.6149554,80.1251957 L16.7594866,80.1251957 L16.7594866,70.2708696 L26.6149554,70.2708696 L26.6149554,70.2708696 Z M27.4520089,67.76 L15.9241071,67.76 C14.9983259,67.76 14.25,68.509913 14.25,69.433913 L14.25,80.9604783 C14.25,81.8861522 15,82.6343913 15.9241071,82.6343913 L27.4520089,82.6343913 C28.3761161,82.6343913 29.1261161,81.8844783 29.1261161,80.9604783 L29.1261161,69.433913 C29.1261161,68.509913 28.3761161,67.76 27.4520089,67.76 L27.4520089,67.76 L27.4520089,67.76 Z" id="Shape" fill="#3E3B3E"></path>
                <path d="M93.3264509,80.9872609 L37.3309152,80.9872609 C36.4051339,80.9872609 35.656808,80.2390217 35.656808,79.3133478 L35.656808,69.435587 C35.656808,68.509913 36.4051339,67.7616739 37.3309152,67.7616739 L93.3264509,67.7616739 C94.2522321,67.7616739 95.0039062,68.511587 95.0039062,69.435587 L95.0039062,79.3133478 C95.0022321,80.2406957 94.2522321,80.9872609 93.3264509,80.9872609 L93.3264509,80.9872609 Z" id="Shape" fill="#6ABEEC"></path>
                <path d="M26.6149554,90.0280652 L26.6149554,99.8840652 L16.7594866,99.8840652 L16.7594866,90.0280652 L26.6149554,90.0280652 L26.6149554,90.0280652 Z M27.4520089,87.5171957 L15.9241071,87.5171957 C14.9983259,87.5171957 14.25,88.2687826 14.25,89.1927826 L14.25,100.719348 C14.25,101.645022 15,102.393261 15.9241071,102.393261 L27.4520089,102.393261 C28.3761161,102.393261 29.1261161,101.643348 29.1261161,100.719348 L29.1261161,89.1927826 C29.1261161,88.2671087 28.3761161,87.5171957 27.4520089,87.5171957 L27.4520089,87.5171957 L27.4520089,87.5171957 Z" id="Shape" fill="#3E3B3E"></path>
                <path d="M93.3264509,100.749478 L37.3309152,100.749478 C36.4051339,100.749478 35.656808,100.001239 35.656808,99.0738913 L35.656808,89.1961304 C35.656808,88.2704565 36.4051339,87.5205435 37.3309152,87.5205435 L93.3264509,87.5205435 C94.2522321,87.5205435 95.0039062,88.2704565 95.0039062,89.1961304 L95.0039062,99.0738913 C95.0022321,99.9995652 94.2522321,100.749478 93.3264509,100.749478 L93.3264509,100.749478 Z" id="Shape" fill="#6ABEEC"></path>
                <path d="M26.6149554,109.788609 L26.6149554,119.644609 L16.7594866,119.644609 L16.7594866,109.788609 L26.6149554,109.788609 L26.6149554,109.788609 Z M27.4520089,107.277739 L15.9241071,107.277739 C14.9983259,107.277739 14.25,108.029326 14.25,108.953326 L14.25,120.481565 C14.25,121.403891 15,122.155478 15.9241071,122.155478 L27.4520089,122.155478 C28.3761161,122.155478 29.1261161,121.405565 29.1261161,120.481565 L29.1261161,108.953326 C29.1261161,108.027652 28.3761161,107.277739 27.4520089,107.277739 L27.4520089,107.277739 L27.4520089,107.277739 Z" id="Shape" fill="#3E3B3E"></path>
                <path d="M93.3264509,120.506674 L37.3309152,120.506674 C36.4051339,120.506674 35.656808,119.756761 35.656808,118.831087 L35.656808,108.953326 C35.656808,108.029326 36.4051339,107.277739 37.3309152,107.277739 L93.3264509,107.277739 C94.2522321,107.277739 95.0039062,108.027652 95.0039062,108.953326 L95.0039062,118.834435 C95.0022321,119.756761 94.2522321,120.506674 93.3264509,120.506674 L93.3264509,120.506674 Z" id="Shape" fill="#6ABEEC"></path>
                <path d="M28.9921875,49.0205435 L30.7416295,46.5197174 C31.2773437,45.7597609 31.0898438,44.716913 30.3348214,44.1879565 C29.5764509,43.6556522 28.531808,43.8381087 28.0027902,44.5980652 L25.6171875,48.0011304 L23.2751116,51.3489565 L21.6010045,53.7443261 L21.1791295,52.8521304 C20.6015625,52.129 19.5435268,52.0218696 18.8236607,52.591 C18.0987723,53.1685 17.9866071,54.2230652 18.5625,54.9445217 L20.3789062,57.5826087 C20.6986607,57.9826739 21.1808036,58.2103261 21.688058,58.2103261 L21.7399554,58.2103261 C22.2706473,58.193587 22.7578125,57.9291087 23.0591518,57.4955652 L25.7745536,53.6154348 C25.7745536,53.6154348 29.0758929,49.2180652 28.9921875,49.0205435 L28.9921875,49.0205435 Z" id="Shape" fill="#3E3B3E"></path>
                <path d="M25.5418527,50.5103261 C25.8030134,50.5270652 26.2366071,50.5538478 26.6149554,50.5973696 L26.6149554,60.368 L16.7594866,60.368 L16.7594866,50.5103261 L25.5418527,50.5103261 L25.5418527,50.5103261 Z M25.6188616,47.9994565 L15.922433,47.9994565 C14.9966518,47.9994565 14.2483259,48.7476957 14.2483259,49.6733696 L14.2483259,61.2049565 C14.2483259,62.1289565 14.9983259,62.8788696 15.922433,62.8788696 L27.4503348,62.8788696 C28.374442,62.8788696 29.124442,62.1289565 29.124442,61.2049565 L29.124442,49.6733696 C29.1261161,48.2923913 27.6930804,48.125 25.6188616,47.9994565 L25.6188616,47.9994565 L25.6188616,47.9994565 Z" id="Shape" fill="#3E3B3E"></path>
                <rect id="Rectangle-path" fill="#3E3B3E" x="233.573103" y="1.84632609" width="2.51116071" height="150.87313"></rect>
            </g>
        </g>
    </g>
</svg>