<?xml version="1.0" encoding="UTF-8" standalone="no"?>
<svg width="375px" height="321px" viewBox="0 0 375 321" version="1.1" xmlns="http://www.w3.org/2000/svg" xmlns:xlink="http://www.w3.org/1999/xlink" xmlns:sketch="http://www.bohemiancoding.com/sketch/ns">
    <!-- Generator: Sketch 3.3.1 (12002) - http://www.bohemiancoding.com/sketch -->
    <title>branding</title>
    <desc>Created with Sketch.</desc>
    <defs></defs>
    <g id="Page-1" stroke="none" stroke-width="1" fill="none" fill-rule="evenodd" sketch:type="MSPage">
        <g id="branding" sketch:type="MSLayerGroup">
            <g id="Group" sketch:type="MSShapeGroup">
                <path d="M172.999309,30.9616977 C162.806975,35.7585659 156.657804,44.5012283 157.271064,53.4696013 C158.106008,65.7014598 170.577348,74.942135 186.529351,75.3821672 L185.678867,84.9665852 C185.632251,85.5101543 185.930594,86.021627 186.428867,86.2463023 C186.627762,86.3343087 186.835981,86.3726174 187.047307,86.3570868 C187.361188,86.3353441 187.666782,86.200746 187.888467,85.9605402 L199.412983,73.746283 C212.679903,69.8781415 221.412638,59.8019228 220.684392,49.1438264 C220.126036,40.9726881 214.299033,33.9021479 205.03384,30.0671383" id="Shape" fill="#6ABEEC"></path>
                <g transform="translate(0.000000, 82.829582)" id="Shape">
                    <g transform="translate(17.610497, 20.707395)" fill="#3E3B3E">
                        <path d="M16.6429558,38.5261093 L0.898135359,20.1503666 L24.3055939,0.115961415 L40.0504144,18.4917042 L16.6429558,38.5261093 L16.6429558,38.5261093 Z M4.55075967,20.4330225 L16.9257597,34.8764309 L36.398826,18.2100836 L24.023826,3.76667524 L4.55075967,20.4330225 L4.55075967,20.4330225 Z"></path>
                        <path d="M11.214779,21.5015241 C10.8491022,21.5015241 10.4865331,21.3482894 10.230663,21.0490675 C9.76553867,20.5065338 9.82872928,19.689627 10.371547,19.224746 L26.1381215,5.72973633 C26.6799033,5.26381994 27.4982735,5.32801286 27.9633978,5.87054662 C28.4285221,6.41308039 28.3653315,7.22998714 27.8225138,7.69486817 L12.0559392,21.1898778 C11.8125,21.3990225 11.5120856,21.5015241 11.214779,21.5015241 L11.214779,21.5015241 Z"></path>
                        <path d="M16.5062155,24.0133312 C16.1405387,24.0133312 15.7779696,23.8600965 15.5220994,23.5608746 C15.0569751,23.0183408 15.1201657,22.2014341 15.6629834,21.7365531 L29.3991713,9.97992926 C29.941989,9.51401286 30.7593232,9.57924116 31.2244475,10.1207395 C31.6895718,10.6632733 31.6263812,11.4801801 31.0835635,11.9450611 L17.3473757,23.7016849 C17.1039365,23.9108296 16.804558,24.0133312 16.5062155,24.0133312 L16.5062155,24.0133312 Z"></path>
                        <path d="M19.2430939,28.3339293 C18.8774171,28.3339293 18.5148481,28.1806945 18.2589779,27.8814727 C17.7938536,27.3389389 17.8570442,26.5220322 18.3998619,26.0571511 L30.3149171,15.8587588 C30.8566989,15.3928424 31.676105,15.4570354 32.1401934,15.9995691 C32.6053177,16.5421029 32.5421271,17.3590096 31.9993094,17.8238907 L20.0842541,28.022283 C19.8408149,28.232463 19.5414365,28.3339293 19.2430939,28.3339293 L19.2430939,28.3339293 Z"></path>
                    </g>
                    <path d="M49.7848757,97.680926 C47.0314227,97.680926 44.4364641,96.4788617 42.6660912,94.3843087 L2.21270718,46.5222701 C0.610151934,44.626508 -0.157458564,42.2172026 0.0517955801,39.7385273 C0.261049724,37.2588167 1.42023481,35.0120643 3.31802486,33.4103473 L37.2161602,4.78858521 C39.5148481,2.84830225 42.4392265,1.77980064 45.4516575,1.77980064 C49.2285912,1.77980064 52.7890193,3.42810932 55.218232,6.30229582 L91.2006215,48.8756656 C93.3998619,51.4765145 94.4523481,54.7834855 94.1664365,58.1846752 C93.8805249,61.585865 92.2883287,64.6702315 89.6861188,66.8683215 L55.7869475,95.4900836 C54.1108425,96.902328 51.9799724,97.680926 49.7848757,97.680926 L49.7848757,97.680926 Z M45.4516575,4.36718971 C43.0504144,4.36718971 40.7196133,5.21826367 38.8870856,6.76510611 L4.98895028,35.3868682 C3.62051105,36.5423408 2.78349448,38.1647653 2.63225138,39.9549196 C2.48100829,41.745074 3.03522099,43.4834598 4.19129834,44.8511833 L44.6446823,92.7132219 C45.9219613,94.2248617 47.7959254,95.0914662 49.7848757,95.0914662 C51.3687845,95.0914662 52.9071133,94.5302958 54.1149862,93.5094212 L88.0141575,64.8876592 C90.0880525,63.1368489 91.3570442,60.6778457 91.5849448,57.9651768 C91.8138812,55.252508 90.9737569,52.6164566 89.2209945,50.5436463 L53.238605,7.97027653 C51.3035221,5.68107395 48.4651243,4.36718971 45.4516575,4.36718971 L45.4516575,4.36718971 Z" fill="#3E3B3E"></path>
                    <path d="M55.8024862,99.9390675 C54.9064227,99.9390675 53.9844613,99.8738392 53.0428177,99.7402765 C48.9447514,99.1604695 45.1740331,97.3496077 43.2006215,95.0148489 C42.7396409,94.469209 42.808011,93.6523023 43.3539365,93.1905273 C43.8998619,92.7287524 44.7151243,92.7981222 45.1792127,93.3437621 C46.7351519,95.1846495 49.9651243,96.6890418 53.4064227,97.176701 C57.2714088,97.7233762 60.8131906,96.9199293 63.1222376,94.9692926 L97.0214088,66.3475305 C101.311119,62.7258071 101.852901,56.2909839 98.2292818,52.0035177 L62.2468923,9.43118328 C60.5469613,7.41945981 56.8042127,4.88176849 52.2731354,3.74700322 C49.5165746,3.05641158 44.2997238,2.40102251 40.3145718,5.76700965 C39.7686464,6.22671383 38.9513122,6.15941479 38.4892956,5.61377492 C38.0283149,5.06813505 38.0966851,4.2512283 38.6426105,3.78945338 C42.2496547,0.744430868 47.3142265,-0.163588424 52.9019337,1.23726688 C57.3781077,2.35857235 61.8232044,4.9190418 64.2254834,7.76113183 L100.207873,50.3334662 C104.752417,55.7111768 104.072859,63.7818842 98.6933702,68.3250868 L64.7941989,96.9468489 C62.4675414,98.9109453 59.3401243,99.9390675 55.8024862,99.9390675 L55.8024862,99.9390675 Z" fill="#3E3B3E"></path>
                    <g transform="translate(25.897790, 8.282958)" fill="#6ABEEC">
                        <path d="M2.20441989,8.38442444 L50.8332182,65.9188875 L61.2441298,66.8548617 L67.8718923,61.2597235 L58.0493785,59.7180579 L9.47444751,2.24675241 L2.20441989,8.38442444 Z"></path>
                        <path d="M72.7531077,60.0545531 L62.7689917,68.4855691 L49.8345994,67.6862637 L0.136740331,8.88657878 L9.58736188,0.906983923 L58.3560083,58.6071061 L72.7531077,60.0545531 L72.7531077,60.0545531 Z M60.4796271,65.0108682 L63.7458564,62.2526431 L56.2893646,62.0579936 L8.52140884,5.54233441 L4.16022099,9.22514469 L51.1025552,64.7654855 L60.4796271,65.0108682 L60.4796271,65.0108682 Z"></path>
                    </g>
                </g>
                <g transform="translate(320.096685, 142.881029)" id="Shape">
                    <g transform="translate(14.502762, 16.565916)" fill="#6ABEEC">
                        <path d="M24.6464088,6.68952412 L3.50448895,32.5851576 L1.53107735,30.9772283 L25.4668508,1.6545209 C26.038674,3.38358842 25.8014503,5.27210289 24.6464088,6.68952412 L24.6464088,6.68952412 Z"></path>
                        <path d="M3.57907459,33.3140579 L0.802831492,31.0507395 L25.663674,0.595337621 L25.9599448,1.49196785 C26.6084254,3.45502894 26.2676105,5.52059164 25.0493785,7.01670096 L3.57907459,33.3140579 L3.57907459,33.3140579 Z M2.26035912,30.903717 L3.43093923,31.8572926 L24.245511,6.36234727 C25.0400552,5.38599357 25.3746547,4.10420579 25.2016575,2.7986045 L2.26035912,30.903717 L2.26035912,30.903717 Z"></path>
                    </g>
                    <g transform="translate(7.251381, 12.424437)" fill="#6ABEEC">
                        <path d="M30.6940608,2.88039871 C28.1477901,0.803446945 24.5438536,0.990848875 22.6605663,3.29661736 L1.51864641,29.1963923 L6.35220994,33.1370096 L30.9033149,3.0657299 C30.8328729,3.00360772 30.7665746,2.93837942 30.6940608,2.88039871 L30.6940608,2.88039871 Z M17.7928177,17.6665145 C17.015884,18.6159486 15.6111878,18.7609003 14.6591851,17.984373 C13.7061464,17.2078457 13.5642265,15.8018135 14.3401243,14.8513441 C15.117058,13.8988039 16.5248619,13.7569582 17.4768646,14.5324502 C18.4267956,15.3089775 18.5707873,16.716045 17.7928177,17.6665145 L17.7928177,17.6665145 Z"></path>
                        <path d="M6.42679558,33.8648746 L0.790400552,29.2699035 L22.2596685,2.96944051 C23.3235497,1.66694534 24.9530387,0.91940836 26.730663,0.91940836 C28.2648481,0.91940836 29.788674,1.47333119 31.0224448,2.47867524 C31.0742403,2.52009003 31.125,2.56668167 31.1757597,2.61327331 L31.5507597,2.9425209 L31.3042127,3.39187138 L6.42679558,33.8648746 L6.42679558,33.8648746 Z M2.24792818,29.1218457 L6.27866022,32.4081093 L17.6104972,18.5289775 C16.6533149,19.177119 15.2517265,19.1357042 14.331837,18.3850611 C13.7641575,17.9222508 13.4109116,17.264791 13.336326,16.5348553 C13.2959254,16.1393441 13.3404696,15.7479743 13.4637431,15.3814534 L2.24792818,29.1218457 L2.24792818,29.1218457 Z M16.0690608,14.5500514 C15.551105,14.5500514 15.0673343,14.7788682 14.7410221,15.1785209 C14.4530387,15.531582 14.320442,15.976791 14.3660221,16.430283 C14.4116022,16.8848103 14.6322514,17.2948167 14.9854972,17.5826495 C15.6930249,18.1603859 16.8149171,18.0444244 17.390884,17.3393376 C17.6788674,16.9873119 17.8125,16.5410675 17.7669199,16.0865402 C17.7213398,15.6309775 17.5017265,15.2220064 17.1484807,14.9341736 C16.8408149,14.6825788 16.4678867,14.5500514 16.0690608,14.5500514 L16.0690608,14.5500514 Z M16.0690608,13.5146817 C16.6999309,13.5146817 17.3162983,13.7331447 17.8031768,14.1317621 C18.3708564,14.5945723 18.7241022,15.2520322 18.7976519,15.9819678 C18.844268,16.4427074 18.7758978,16.8961994 18.6029006,17.3113826 L30.1781768,3.13302894 C29.1640193,2.37099678 27.948895,1.95374277 26.7296271,1.95374277 C25.2648481,1.95374277 23.9274862,2.56150482 23.0604282,3.62275884 L14.684047,13.8843087 C15.0994475,13.6451383 15.5749309,13.5146817 16.0690608,13.5146817 L16.0690608,13.5146817 Z"></path>
                    </g>
                    <path d="M24.3294199,56.4628553 L24.3294199,56.4628553 C23.6405387,56.4628553 22.9671961,56.2226495 22.4316298,55.7857235 L1.29178177,38.5478521 C0.0113950276,37.5010932 -0.180248619,35.6094727 0.862914365,34.3297556 L8.57424033,24.8840772 C8.94716851,24.4223023 9.45372928,24.0837363 10.0348757,23.9087588 C12.4661602,23.1777878 14.636395,21.7085981 16.3114641,19.6575305 C17.9834254,17.6074984 18.9892956,15.1868039 19.219268,12.6573955 C19.2731354,12.0620579 19.5010359,11.4998521 19.8801796,11.0339357 L27.5925414,1.58722186 C28.6015193,0.353061093 30.5780387,0.151163987 31.8138812,1.15857878 L52.9537293,18.3974855 C53.5752762,18.902746 53.9616713,19.6212926 54.0424724,20.4185273 C54.1232735,21.2167974 53.8881215,21.9964309 53.3805249,22.6176527 L45.573895,32.180328 C45.2061464,32.6338199 44.7120166,32.9692797 44.1484807,33.146328 C41.7720994,33.8917942 39.6495166,35.3464887 38.0127762,37.3530354 C36.3739641,39.359582 35.3743094,41.728508 35.120511,44.2051125 C35.0593923,44.7932026 34.8304558,45.3440193 34.4595994,45.7975113 L26.6519337,55.3591511 C26.0832182,56.0600965 25.2348066,56.4628553 24.3294199,56.4628553 L24.3294199,56.4628553 Z M29.918163,3.07297749 C29.8446133,3.07297749 29.7058011,3.09264952 29.5980663,3.22414148 L21.8888122,12.6677492 C21.8380525,12.7309068 21.8059392,12.8075241 21.7997238,12.8893183 C21.5231354,15.9364116 20.3194061,18.8416592 18.3190608,21.2934148 C16.3156077,23.7462058 13.7102901,25.5073698 10.781768,26.3874341 C10.7030387,26.4102122 10.6336326,26.4557685 10.5859807,26.5158199 L2.87051105,35.9646045 C2.72859116,36.1385466 2.75448895,36.3984244 2.93059392,36.5423408 L24.070442,53.7802122 C24.269337,53.9427653 24.4423343,53.9717556 24.6453729,53.7232669 L32.4551105,44.1585209 C32.5058702,44.0963987 32.5369475,44.0208167 32.5452348,43.9390225 C32.8497928,40.9592283 34.0473066,38.1150675 36.0062155,35.7161158 C37.9640884,33.317164 40.511395,31.5746367 43.3736188,30.6769711 C43.4482044,30.6531576 43.5165746,30.6076013 43.5652624,30.5475498 L51.375,20.9807331 C51.4640884,20.8709839 51.4744475,20.7570932 51.4661602,20.6794405 C51.4599448,20.616283 51.4319751,20.4972154 51.316989,20.4040322 L30.1771409,3.16409003 C30.0839088,3.08850804 29.9844613,3.07297749 29.918163,3.07297749 L29.918163,3.07297749 Z" fill="#3E3B3E"></path>
                </g>
                <path d="M119.746202,233.184945 L119.853936,237.821331" id="Shape" fill="#000000"></path>
                <g transform="translate(170.925414, 9.318328)" id="Shape">
                    <path d="M34.1094613,19.7144759 C34.2234116,18.7360514 34.2441298,17.7452026 34.1767956,16.7595305 C33.5687155,7.85431511 25.828384,1.10681029 16.9236878,1.71457235 C8.01484807,2.32233441 1.26381215,10.0596527 1.87189227,18.9648682 C1.90918508,19.5146495 1.97859116,20.0633955 2.07389503,20.6090354 L2.72444751,23.1498328 C3.12845304,24.3425788 3.68162983,25.4814855 4.35911602,26.5406688 L9.72720994,34.9923923 C10.6719613,36.4781479 11.1339779,38.0653698 11.367058,39.2332669 C11.3680939,39.2529389 11.3701657,39.2777878 11.3774171,39.2974598 C11.3815608,39.3554405 11.3919199,39.4123859 11.4012431,39.463119 C11.4084945,39.4755434 11.4095304,39.482791 11.4095304,39.4879678 C11.5607735,40.3835627 11.5763122,40.9809711 11.5773481,40.9933955 L11.9471685,46.4063087 C12.2475829,50.8014534 16.0638812,54.1394855 20.4623619,53.8599357 C20.4623619,53.8599357 20.4675414,53.8589003 20.4758287,53.8589003 L20.5120856,53.8568296 C24.9012431,53.5369003 28.230663,49.711209 27.9302486,45.3160643 L27.5614641,39.9031511 C27.5604282,39.8907267 27.4889503,39.311955 27.5169199,38.4153248 C27.5169199,38.4091125 27.5231354,38.401865 27.5220994,38.3894405 C27.5241713,38.3242122 27.527279,38.2672669 27.5345304,38.1958264 C27.5894337,37.0092926 27.8297652,35.3485595 28.5776934,33.7085338 L32.7472376,24.6055627 C33.0953039,23.8549196 33.3770718,23.0783923 33.5997928,22.285299 L34.1094613,19.7144759 L34.1094613,19.7144759 Z" fill="#F0F0F0"></path>
                    <path d="M19.9485497,54.9077299 L19.9485497,54.9077299 C15.2051105,54.9077299 11.2375691,51.2021415 10.9143646,46.4736077 L10.5445442,41.0617299 C10.5414365,40.9706174 10.5227901,40.504701 10.4140193,39.8110032 L10.3839779,39.6546624 C10.3777624,39.6236013 10.371547,39.5904695 10.3663674,39.5573376 L10.3404696,39.3833955 C10.0421271,37.9224887 9.54178177,36.632418 8.85186464,35.5473505 L3.48377072,27.095627 C2.75241713,25.9515434 2.16712707,24.7349839 1.74240331,23.4811511 L1.07009669,20.8658071 C0.948895028,20.1886752 0.876381215,19.5985145 0.838052486,19.0342379 C0.190607735,9.56163987 7.3746547,1.32837942 16.8522099,0.681273312 C26.3825967,0.0238135048 34.5683702,7.29832154 35.2095994,16.68809 C35.2821133,17.7441672 35.2572514,18.8023151 35.1370856,19.8335434 L34.6149862,22.4830547 C34.3529006,23.4273119 34.0462707,24.2597492 33.6857735,25.0373119 L29.5183011,34.1361415 C28.8180249,35.6695241 28.6149862,37.2142958 28.5683702,38.2403473 L28.5600829,38.3759807 L28.5725138,38.5281801 L28.5486878,38.5975498 C28.5372928,39.2632926 28.5808011,39.6929711 28.5911602,39.7789068 L28.9651243,45.2435884 C29.3038674,50.1999035 25.546616,54.5256785 20.589779,54.8870225 C20.3339088,54.9015177 20.1412293,54.9077299 19.9485497,54.9077299 L19.9485497,54.9077299 Z M12.4029696,39.1069518 L12.4091851,39.1173055 L12.4412983,39.3844309 C12.5832182,40.2054791 12.609116,40.8360193 12.6132597,40.9530161 L12.9810083,46.3307267 C13.2296271,49.9783344 16.2897099,52.835955 19.9475138,52.835955 L19.9475138,52.835955 C20.0811464,52.835955 20.214779,52.8328489 20.3494475,52.8245659 L20.4116022,52.8204244 C24.2610497,52.5408746 27.1584945,49.2049132 26.8974448,45.382328 L26.5286602,39.9683794 C26.5131215,39.8399936 26.4551105,39.2343023 26.4820442,38.3770161 L26.495511,38.1896141 C26.4975829,38.1575177 26.5006906,38.1243859 26.5037983,38.0881479 C26.5555939,36.934746 26.7979972,35.1093891 27.6360497,33.2736785 L31.8055939,24.169672 C32.121547,23.4873633 32.3888122,22.7594984 32.6032459,22.0005723 L33.093232,19.5115434 C33.1854282,18.6873891 33.2071823,17.7565916 33.1439917,16.827865 C32.5794199,8.56664952 25.3777624,2.17324116 16.9941298,2.74476527 C8.65607735,3.31421865 2.33598066,10.5576656 2.90573204,18.8913569 C2.93991713,19.3852283 3.00310773,19.9018778 3.09530387,20.428881 L3.72824586,22.889955 C4.07631215,23.9108296 4.59012431,24.9751897 5.2323895,25.9805338 L10.6015193,34.434328 C11.4343923,35.7440707 12.0321133,37.2836656 12.3801796,39.0106624 L12.4029696,39.1069518 L12.4029696,39.1069518 Z" fill="#3E3B3E"></path>
                </g>
                <path d="M230.364986,145.547106 C230.364986,146.786444 229.112569,147.788682 227.570097,147.788682 C226.027624,147.788682 224.779351,146.787479 224.779351,145.547106 C224.779351,136.461736 213.458909,145.590592 199.539365,145.590592 C185.620856,145.590592 174.297307,136.461736 174.297307,145.547106 C174.297307,146.786444 173.047997,147.788682 171.503453,147.788682 C169.958909,147.788682 168.711671,146.787479 168.711671,145.547106 C168.711671,145.547106 167.475829,124.412103 169.534185,124.138765 C171.593577,123.862322 171.078729,125.445402 172.278315,127.441595 C173.478936,129.437788 174.339779,131.158572 175.711326,126.889743 C177.082873,122.624019 176.827003,120.490122 178.28453,118.836637 C179.742058,117.185222 181.887431,124.963955 182.57424,126.408296 C183.258978,127.853672 184.718577,127.441595 185.405387,125.307698 C186.09116,123.172765 186.435083,124.343768 187.721685,125.789145 C189.008287,127.233486 192.610152,126.889743 193.812845,125.856444 C195.015539,124.823145 196.475138,122.553614 198.361533,119.86683 C200.246892,117.184186 202.132251,124.617106 204.106699,125.58 C206.082182,126.543929 209.685083,127.647633 211.917472,126.543929 C214.145718,125.443331 213.975829,120.18883 215.690262,118.605749 C217.406768,117.022669 218.951312,124.890444 220.837707,127.094746 C222.728246,129.299048 225.350138,130.11699 226.158149,127.576193 C228.044544,121.658019 229.331146,127.990341 229.589088,130.261942 C229.84703,132.533543 229.84703,136.111781 230.187845,141.069132 C230.329765,143.141942 230.364986,145.547106 230.364986,145.547106 L230.364986,145.547106 Z" id="Shape" fill="#3E3B3E"></path>
                <path d="M215.053177,155.781736 L227.191989,155.781736 C228.221685,155.781736 229.061809,156.738418 229.061809,157.919775 L229.061809,164.231389 L234.720994,164.231389 L234.720994,167.960791 L229.061809,167.960791 L229.061809,175.297421 C229.061809,176.476707 228.220649,177.433389 227.191989,177.433389 L203.706837,177.433389 C201.837017,177.433389 201.837017,175.297421 201.837017,175.297421 L201.837017,168.459839 L201.837017,167.949402 L197.34634,167.971145 L197.34634,168.764238 L197.34634,175.298457 C197.34634,176.477743 196.508287,177.434424 195.474448,177.434424 L171.990331,177.434424 C170.958564,177.434424 170.119475,176.479814 170.119475,175.298457 L170.119475,167.961826 L164.938881,167.961826 L164.938881,164.244849 L170.119475,164.244849 L170.119475,157.923916 C170.119475,156.741524 170.957528,155.785878 171.990331,155.785878 L182.962707,155.785878 L182.962707,160.059884 L173.864296,160.059884 L173.864296,173.162489 L193.602555,173.162489 L193.602555,160.058849 L182.962707,160.058849 L182.962707,155.784842 L195.474448,155.784842 C197.34634,155.784842 197.34634,157.922881 197.34634,157.922881 L197.34634,164.252096 L201.837017,164.228283 L201.837017,157.922881 C201.837017,156.740489 202.675069,155.784842 203.706837,155.784842 L215.054213,155.784842 L215.054213,160.058849 L205.577693,160.058849 L205.577693,173.161453 L225.319061,173.161453 L225.319061,160.058849 L215.054213,160.058849 L215.054213,155.781736 L215.053177,155.781736 Z" id="Shape" fill="#3E3B3E"></path>
                <path d="M216.145028,231.226026 L217.302141,217.773466 C217.388122,216.992797 217.123964,216.194527 216.578039,215.584695 C216.00518,214.945871 215.200276,214.578315 214.369475,214.578315 L184.356008,214.578315 C183.529351,214.578315 182.723412,214.945871 182.146409,215.589871 C181.589088,216.209023 181.320787,217.019717 181.40366,217.787961 L182.565953,231.227061 L156.522099,231.227061 L156.522099,255.01054 L184.622238,255.01054 L185.818715,268.834797 C186,270.495531 187.213052,271.658251 188.767956,271.658251 L209.95442,271.658251 C211.464779,271.658251 212.705801,270.475859 212.90366,268.806842 L214.092887,255.011576 L242.184738,255.011576 L242.184738,231.227061 L216.145028,231.226026 L216.145028,231.226026 Z M161.283149,235.98355 L182.979282,235.98355 L183.390539,240.741074 L161.282113,240.741074 L161.282113,235.98355 L161.283149,235.98355 Z M161.283149,250.253016 L161.283149,245.496527 L183.802831,245.496527 L184.214088,250.253016 L161.283149,250.253016 L161.283149,250.253016 Z M207.675414,240.697588 L203.557666,244.133981 L204.868094,249.332572 C205.083564,250.189859 204.648481,250.506682 203.898481,250.037659 L199.356008,247.186251 L194.813536,250.037659 C194.065608,250.506682 193.628453,250.189859 193.844959,249.332572 L195.153315,244.133981 L191.036602,240.697588 C190.35808,240.130206 190.524862,239.617698 191.406423,239.558682 L196.757942,239.195267 L198.75518,234.21928 C199.084599,233.400302 199.624309,233.400302 199.953729,234.21928 L201.952003,239.195267 L207.304558,239.558682 C208.186119,239.617698 208.352901,240.12917 207.675414,240.697588 L207.675414,240.697588 Z M211.979627,224.591376 L186.733425,224.591376 L186.274517,219.297531 L212.434392,219.297531 L211.979627,224.591376 L211.979627,224.591376 Z M237.428867,250.253016 L214.50518,250.253016 L214.913329,245.496527 L237.427831,245.496527 L237.427831,250.253016 L237.428867,250.253016 L237.428867,250.253016 Z M237.428867,240.741074 L215.325622,240.741074 L215.734807,235.98355 L237.430939,235.98355 L237.428867,240.741074 L237.428867,240.741074 Z" id="Shape" fill="#6ABEEC"></path>
                <g transform="translate(111.878453, 182.225080)" id="Shape">
                    <path d="M165.294199,138.741621 L6.35842541,138.741621 L6.5718232,83.2841093 L6.56560773,77.3649003 L8.4198895,77.3649003 C10.4606354,77.3649003 13.4264503,73.3766559 13.4264503,67.127164 C13.4264503,60.877672 10.4616713,56.8883923 8.4198895,56.8883923 L6.71270718,56.8883923 L6.57493094,50.9940322 L6.36049724,0.904913183 L165.289019,0.898700965 L165.075622,56.8842508 L163.780732,56.8842508 C161.820787,56.8842508 158.223066,60.7720643 158.223066,67.1240579 C158.223066,73.3714791 161.189917,77.3597235 163.231699,77.3597235 L165.079765,77.3597235 L165.079765,83.2892862 L165.294199,138.741621 L165.294199,138.741621 Z M8.95856354,136.153196 L162.694061,136.153196 L162.489986,79.8798135 C159.051796,79.2451318 155.633287,74.2805338 155.633287,67.1250932 C155.633287,60.6001929 159.030041,55.5413762 162.485843,54.4966881 L162.485843,48.0142379 L162.686809,3.48816077 L8.96167127,3.49437299 L9.16367403,50.959865 L9.24447514,54.3869389 C12.6536602,55.0858135 16.0162293,60.0286688 16.0162293,67.1292347 C16.0162293,74.2877814 12.5966851,79.2544502 9.15849448,79.8860257 L9.16160221,83.2892862 L8.95856354,136.153196 L8.95856354,136.153196 Z" fill="#3E3B3E"></path>
                    <path d="M163.784876,55.591074 L163.784876,50.9588296" fill="#000000"></path>
                    <path d="M164.547307,79.951254 L163.99413,79.951254 L163.99413,77.3628296 L164.547307,77.3628296 C166.590124,77.3628296 169.555939,73.3745852 169.555939,67.127164 C169.555939,60.7751704 165.957182,56.8873569 163.998273,56.8873569 L163.998273,54.2989325 C167.844613,54.2989325 172.145718,59.7853569 172.145718,67.127164 C172.146754,74.7982186 168.217541,79.951254 164.547307,79.951254 L164.547307,79.951254 Z" fill="#3E3B3E"></path>
                    <path d="M8.30075967,79.951254 L7.74758287,79.951254 C4.07838398,79.951254 0.149171271,74.7982186 0.149171271,67.127164 C0.149171271,59.7853569 4.45027624,54.2989325 8.29661602,54.2989325 L8.29661602,56.8873569 C6.33667127,56.8873569 2.73895028,60.7751704 2.73895028,67.127164 C2.73895028,73.3745852 5.7058011,77.3628296 7.74758287,77.3628296 L8.30075967,77.3628296 L8.30075967,79.951254 L8.30075967,79.951254 Z" fill="#3E3B3E"></path>
                </g>
                <rect id="Rectangle-path" fill="#3E3B3E" x="156.591506" y="286.45265" width="85.594268" height="3.10610932"></rect>
                <rect id="Rectangle-path" fill="#3E3B3E" x="156.591506" y="295.425164" width="85.594268" height="3.10610932"></rect>
                <rect id="Rectangle-path" fill="#3E3B3E" x="156.591506" y="303.363344" width="48.8276934" height="3.10610932"></rect>
                <g transform="translate(253.798343, 15.530547)" id="Shape">
                    <path d="M49.6823204,27.1360064 C50.1878453,27.5284116 50.9171271,27.4414405 51.3128453,26.9372154 C52.8604972,24.9627653 53.7493094,23.9253248 55.5207182,23.77209 C58.0328039,23.4418071 60.3242403,24.6604373 61.4865331,26.9299678 C62.4074586,28.8070932 63.1957873,32.5406367 60.3408149,34.5917042 C58.9236878,35.515254 57.3138812,35.8196527 55.816989,36.0484695 C55.6315608,36.0712476 55.4399171,36.0898842 55.2451657,36.1074855 C54.1502072,36.2099871 52.7890193,36.3373376 51.6650552,37.3633891 C49.5839088,39.33991 50.3991713,41.7533569 50.9979282,43.5155563 C51.2351519,44.2206431 51.4620166,44.8884566 51.4910221,45.3906109 C51.5376381,46.9529839 50.7337707,47.3526367 49.0566298,48.0370161 C48.3646409,48.3186367 47.6508978,48.6116463 47.0583564,49.0465016 C44.7047652,50.6844566 45.1160221,52.5822894 45.4444061,54.1073891 C45.5148481,54.4252476 45.5873619,54.7586367 45.6474448,55.1386174 C45.995511,57.0757942 45.7924724,58.7810482 45.023826,60.3517042 C44.742058,60.9263344 44.9813536,61.6221029 45.5573204,61.9026881 C45.6039365,61.9265016 45.6546961,61.9461736 45.7054558,61.9627395 C46.2482735,62.1418585 46.8522099,61.899582 47.1111878,61.3694727 C48.0870166,59.3691383 48.363605,57.1337749 47.9347376,54.7544952 C47.871547,54.3538071 47.7897099,53.9769325 47.7140884,53.6197299 C47.3970994,52.1515756 47.3007597,51.7094727 48.4112569,50.9360514 C48.7935083,50.6523601 49.347721,50.4276849 49.933011,50.1885145 C51.5169199,49.5414084 53.9088398,48.5650547 53.8083564,45.2932862 C53.7596685,44.4463537 53.4737569,43.5973505 53.1950967,42.7752669 C52.5424724,40.8484437 52.3529006,39.9135048 53.2458564,39.0645016 C53.7793508,38.5789132 54.5956492,38.5022958 55.4606354,38.421537 C55.6792127,38.3997942 55.8957182,38.3801222 56.1350138,38.3500965 C57.8349448,38.0902186 59.8031768,37.7154148 61.6543508,36.5102444 C65.2707182,33.9093955 65.1826657,29.1922508 63.5625,25.891492 C61.9319751,22.7056592 58.7320442,21.0128296 55.2689917,21.4652862 C52.464779,21.7075627 51.0165746,23.553627 49.4834254,25.5073698 C49.089779,26.0105595 49.1788674,26.7415305 49.6823204,27.1360064 L49.6823204,27.1360064 Z" fill="#3E3B3E"></path>
                    <path d="M77.8228591,109.220122 L77.8228591,109.220122 C77.5607735,109.220122 77.3017956,109.177672 77.051105,109.095878 L26.9150552,92.5693055 L10.6698895,100.750797 C8.99482044,101.592553 7.02762431,101.73854 5.25310773,101.154592 C3.45165746,100.560289 1.98895028,99.3012797 1.13535912,97.6084502 C0.282803867,95.9176913 0.140883978,93.9950096 0.734461326,92.1934662 C1.32907459,90.3908875 2.58770718,88.9299807 4.27935083,88.0778714 L11.7254834,84.3277621 L38.8083564,2.25503537 C39.222721,0.999131833 40.6470994,0.2774791 41.9088398,0.692662379 L105.864986,21.7748617 C106.489641,21.9809003 106.995166,22.416791 107.289365,23.0017749 C107.584599,23.5877942 107.634323,24.2525016 107.428177,24.8757942 L80.1526243,107.533505 C79.8211326,108.541955 78.8836326,109.220122 77.8228591,109.220122 L77.8228591,109.220122 Z M26.7078729,89.7748424 L77.7368785,106.59546 L104.928522,24.1914148 L41.2272099,3.19308039 L13.8501381,86.1562251 L5.44578729,90.3877814 C4.37154696,90.9282444 3.5718232,91.8569711 3.19475138,93.00209 C2.81664365,94.147209 2.90676796,95.3689453 3.44854972,96.4415884 C3.9913674,97.5173376 4.92058011,98.3176785 6.06526243,98.6955884 C7.20476519,99.0714277 8.43024862,98.9792797 9.50656077,98.4377814 L26.7078729,89.7748424 L26.7078729,89.7748424 Z" fill="#3E3B3E"></path>
                    <path d="M59.6519337,51.4040386 C59.8487569,51.993164 60.4765193,52.3255177 61.0752762,52.1515756 L68.6312155,49.9700514 L61.7734807,52.9022186 C61.2254834,53.138283 60.9437155,53.7522572 61.1260359,54.322746 C61.3083564,54.8921994 61.8926105,55.2297299 62.4768646,55.1034148 L77.2779696,51.9020514 L67.5528315,57.3429196 C66.995511,57.6556013 66.7945442,58.3627588 67.1084254,58.9218585 C67.254489,59.1827717 67.4906768,59.3670675 67.757942,59.455074 C68.0531768,59.5523987 68.3919199,59.5316913 68.6861188,59.3660322 L85.1799033,50.1388167 C85.6812845,49.8582315 85.9040055,49.2535756 85.6978591,48.7151833 C85.4958564,48.1778264 84.9271409,47.8703215 84.3677486,47.9924952 L73.815953,50.2744502 L86.8912293,44.6834534 C87.4537293,44.4411768 87.7323895,43.8044244 87.527279,43.2266881 C87.3843232,42.8270354 87.0497238,42.5568039 86.6550414,42.476045 L90.5055249,41.0203151 C91.0856354,40.8018521 91.3901934,40.1650997 91.1975138,39.5749389 C91.0037983,38.9858135 90.3843232,38.6524244 89.7834945,38.8180836 L61.535221,46.614418 C60.9188536,46.7842186 60.5552486,47.4240772 60.726174,48.0411576 C60.8960635,48.6582379 61.535221,49.0216527 62.1536602,48.8508167 L66.2247928,47.7274405 L60.3428867,49.9524502 C59.7596685,50.1719486 59.4561464,50.8128424 59.6519337,51.4040386 L59.6519337,51.4040386 Z" fill="#6ABEEC"></path>
                    <path d="M38.0397099,46.8566945 L39.8276934,50.4038714 L37.2803867,52.3969582 C36.844268,52.7375949 36.7106354,53.3401801 36.9592541,53.8340514 L38.1422652,56.179164 L35.9357735,59.6693955 C35.5928867,60.2108939 35.753453,60.9263344 36.2973066,61.2700772 C36.3791436,61.3197749 36.4661602,61.3611897 36.5562845,61.3912154 C37.0493785,61.5537685 37.6087707,61.3674019 37.898826,60.9076977 L40.4564917,56.8614727 C40.6750691,56.5166945 40.6968232,56.0849453 40.5134669,55.7194598 L39.4620166,53.6383666 L42.0082873,51.6452797 C42.445442,51.3056785 42.5801105,50.7030932 42.3314917,50.2081865 L40.6357044,46.8484116 L43.9993094,45.155582 C44.5141575,44.8946688 44.7596685,44.2951897 44.5763122,43.7485145 L42.7230663,38.2486302 C42.5200276,37.6429389 41.8601519,37.3157621 41.2510359,37.5197299 C40.6439917,37.7236977 40.3187155,38.3821929 40.5207182,38.989955 L42.0528315,43.5341929 L38.5524862,45.2963923 C37.9785912,45.5873312 37.7486188,46.2830997 38.0397099,46.8566945 L38.0397099,46.8566945 Z" fill="#6ABEEC"></path>
                    <path d="M72.5552486,67.146836 C72.0953039,66.995672 71.6094613,67.1489068 71.3100829,67.496791 C70.5290055,66.7658199 69.504489,66.1404566 68.1433011,65.6921415 C67.3031768,65.4146624 66.5397099,65.2541801 65.8518646,65.2086238 C61.5155387,64.8037942 57.8245856,67.3218135 56.7762431,70.4993633 C55.6263812,73.9854534 57.4868785,75.622373 58.6305249,75.9992476 C59.9595994,76.437209 62.2292818,76.2094277 63.0300414,73.7825209 C63.2392956,73.14991 63.2941989,72.346463 63.3563536,71.4995305 C63.456837,70.0934984 63.5821823,68.3457942 64.4347376,67.7753055 C64.7299724,67.5775498 65.1287983,67.5102508 65.5638812,67.5216399 C66.1698895,67.5692669 66.7914365,67.6904051 67.4160912,67.8964437 C69.5303867,68.5932476 70.7165055,69.7735691 71.0552486,71.6734727 C69.7893646,75.3065852 65.3877762,79.4490997 59.3680939,77.4653312 C54.3708564,75.8180579 51.5293508,78.9966431 50.9357735,80.794045 C49.101174,86.3529453 52.2389503,88.5562122 58.6771409,90.6776849 C62.3919199,91.9025273 65.3059392,90.5348039 67.4026243,88.5003023 C67.4098757,89.524283 67.5787293,90.4975305 68.0252072,91.4024437 C68.9772099,93.32409 70.910221,94.7094148 74.1163674,95.7665273 C74.7244475,95.9673891 75.3801796,95.6371061 75.5811464,95.0272733 C75.7821133,94.4184759 75.4516575,93.7630868 74.8435773,93.5622251 C72.6360497,92.8343601 74.4903315,87.2164437 76.6357044,80.7112154 C77.6312155,77.6982894 80.273826,69.6917749 72.5552486,67.146836 L72.5552486,67.146836 Z M59.3898481,73.805299 C59.2054558,73.7307524 58.3156077,73.2534469 58.9837707,71.2272283 C59.3535912,70.1059228 60.2403315,69.0974727 61.4440608,68.4110225 C61.183011,69.3708103 61.1084254,70.4061801 61.0400552,71.332836 C60.9934392,72.0037556 60.9416436,72.6974534 60.8245856,73.0546559 C60.5314227,73.9430032 59.8560083,73.9430032 59.3898481,73.805299 L59.3898481,73.805299 Z M53.1401934,81.5198392 C53.1495166,81.4918842 54.1957873,79.0142444 57.2900552,79.3652347 C56.6519337,80.197672 56.1111878,81.2630675 55.7413674,82.384373 C55.219268,83.9684887 55.0887431,85.5401801 55.3446133,86.8509582 C52.3549724,85.2885852 52.3808702,83.8214662 53.1401934,81.5198392 L53.1401934,81.5198392 Z M69.2372238,80.8282122 C69.0435083,81.3852412 68.8549724,81.9319164 68.6767956,82.4692733 C67.8335635,84.4261222 64.815953,90.2562894 59.4043508,88.4733826 C58.9247238,88.3149711 57.4620166,87.8324887 57.5324586,85.3403537 C57.6039365,82.7933441 59.1940608,80.3364116 59.8570442,80.0620386 C59.9979282,80.0920643 60.1346685,80.0951704 60.269337,80.0754984 C64.3787983,80.8509904 68.0490331,79.3704116 70.5341851,76.8202958 C70.3839779,77.3659357 70.218232,77.9291768 70.019337,78.5307267 C69.7593232,79.3238199 69.4930939,80.0899936 69.2372238,80.8282122 L69.2372238,80.8282122 Z M70.1063536,90.3743215 C69.2651934,88.673209 69.8421961,86.323955 70.8055939,83.4228489 C70.9350829,83.1153441 71.051105,82.8202637 71.1350138,82.5645273 C71.1546961,82.5044759 71.1474448,82.4464952 71.156768,82.3885145 C71.2479282,82.1224244 71.3349448,81.8625466 71.4302486,81.5881736 C71.6912983,80.8396013 71.9595994,80.063074 72.2258287,79.2585916 C72.8815608,77.2706817 74.2344613,73.1188489 72.879489,69.7849582 C75.9012431,71.2738199 76.3207873,74.2556849 74.4302486,79.9854212 C72.7810773,84.980045 71.4188536,89.1349839 71.5400552,91.9781093 C70.8812155,91.4935563 70.3984807,90.9603408 70.1063536,90.3743215 L70.1063536,90.3743215 Z" fill="#3E3B3E"></path>
                    <path d="M26.8125,92.4668039 C26.3473757,92.4668039 25.8977901,92.215209 25.6657459,91.7762122 C25.3321823,91.1436013 25.5745856,90.3608617 26.2075276,90.0274727 L39.176105,83.1940322 L43.6180939,76.3854405 L35.4675414,75.7196977 L13.3529006,86.4067846 C12.7106354,86.7173955 11.9357735,86.4492347 11.6239641,85.8041994 C11.3131906,85.1601994 11.5825276,84.3867781 12.2268646,84.0761672 L34.9754834,73.0826109 L48.1626381,74.1604309 L40.9796271,85.1705531 L27.4164365,92.3166752 C27.222721,92.4181415 27.0165746,92.4668039 26.8125,92.4668039 L26.8125,92.4668039 Z" fill="#3E3B3E"></path>
                    <path d="M40.1291436,84.8268103 C39.9540746,84.8268103 39.7748619,84.7905723 39.6039365,84.7149904 L35.0645718,82.7011961 L36.0020718,79.9895627 L32.6581492,79.7162251 L33.9582182,74.1096977 C34.1198204,73.4128939 34.8118094,72.9770032 35.5120856,73.1405916 C36.2082182,73.3021093 36.6422652,73.9978778 36.4816989,74.6936463 L35.8580801,77.3804309 L39.5397099,77.6817235 L38.2883287,81.3003408 L40.6543508,82.3502058 C41.308011,82.6401093 41.6022099,83.4052476 41.3121547,84.0585659 C41.0987569,84.5389775 40.6253453,84.8268103 40.1291436,84.8268103 L40.1291436,84.8268103 Z" fill="#3E3B3E"></path>
                    <path d="M43.8418508,79.7069068 C43.4741022,79.7069068 43.1084254,79.5505659 42.8515193,79.2482379 L39.8494475,75.6958842 C39.3884669,75.1502444 39.456837,74.3333376 40.0027624,73.8715627 C40.5476519,73.4108232 41.3649862,73.4791576 41.8280387,74.0247974 L44.8301105,77.5771511 C45.2910912,78.122791 45.222721,78.9396977 44.6767956,79.4014727 C44.4333564,79.6064759 44.1370856,79.7069068 43.8418508,79.7069068 L43.8418508,79.7069068 Z" fill="#3E3B3E"></path>
                    <path d="M14.2354972,98.8022315 C13.7620856,98.8022315 13.3062845,98.5413183 13.078384,98.0898971 L7.85428177,87.7258457 C7.53211326,87.0870225 7.78901934,86.3094598 8.4281768,85.9874598 C9.06837017,85.6654598 9.84530387,85.9232669 10.1674724,86.5610547 L15.3915746,96.9251061 C15.7137431,97.5639293 15.456837,98.341492 14.8176796,98.663492 C14.6301796,98.7566752 14.4312845,98.8022315 14.2354972,98.8022315 L14.2354972,98.8022315 Z" fill="#3E3B3E"></path>
                    <path d="M10.0887431,100.889537 C9.61533149,100.889537 9.15953039,100.628624 8.93162983,100.177203 L3.70649171,89.8152219 C3.3843232,89.1774341 3.64122928,88.398836 4.28038674,88.076836 C4.91747238,87.7558714 5.69751381,88.0116077 6.01968232,88.6504309 L11.2448204,99.0124116 C11.566989,99.6501994 11.3100829,100.428797 10.6709254,100.750797 C10.4834254,100.843981 10.2845304,100.889537 10.0887431,100.889537 L10.0887431,100.889537 Z" fill="#3E3B3E"></path>
                </g>
                <path d="M79.9754834,64.817254 L76.6678177,68.1449325 C76.2234116,68.5901415 76.2265193,69.3117942 76.6719613,69.7559678 L79.1519337,72.2191125 L78.9147099,72.458283 C78.469268,72.9045273 78.4723757,73.6261801 78.9198895,74.0703537 L115.419199,110.326932 C115.511395,110.420116 115.622238,110.495698 115.741367,110.552643 L125.890193,115.276 C126.326312,115.479968 126.840124,115.388855 127.177831,115.049254 C127.396409,114.82872 127.512431,114.536746 127.511395,114.24063 C127.511395,114.077042 127.475138,113.914489 127.404696,113.760219 L122.646754,103.611524 C122.590815,103.494527 122.514157,103.382707 122.417818,103.288489 L91.1032459,72.1808039 L92.5980663,70.6764116 L109.791091,87.7558714 L111.39779,86.1386238 L93.3967541,68.2588232 C93.1833564,68.0445016 92.8922652,67.9254341 92.5908149,67.9264695 C92.2883287,67.9264695 91.9993094,68.0486431 91.7869475,68.2650354 L89.4872238,70.5770161 L85.9185083,67.0298392 C85.7040746,66.8196592 85.4140193,66.6995563 85.1125691,66.7005916 C84.8100829,66.701627 84.5210635,66.8227653 84.3087017,67.0350161 L84.070442,67.2752219 L81.5904696,64.8110418 C81.140884,64.3689389 80.4178177,64.3710096 79.9754834,64.817254 L79.9754834,64.817254 Z M116.918163,108.585441 L120.683702,104.799093 L124.00587,111.885164 L116.918163,108.585441 L116.918163,108.585441 Z M119.077003,103.183916 L115.293854,106.989936 L81.3335635,73.2555177 L83.8280387,70.7457814 L84.879489,69.6876334 C84.8815608,69.6865981 84.8815608,69.6865981 84.8825967,69.6845273 L85.1177486,69.448463 L119.077003,103.183916 L119.077003,103.183916 Z M82.4595994,68.8903987 L80.7575967,70.6008296 L79.0866713,68.9400965 L80.7876381,67.230701 L82.4595994,68.8903987 L82.4595994,68.8903987 Z" id="Shape" fill="#3E3B3E"></path>
                <g transform="translate(164.709945, 0.000000)" id="Shape" fill="#6ABEEC">
                    <path d="M20.3660221,32.4650547 C19.8345994,32.5012926 19.3166436,32.2031061 19.0970304,31.6864566 C18.8194061,31.0341736 19.1239641,30.2814598 19.7765884,30.0039807 L27.5904696,26.6887267 C28.2430939,26.4112476 28.9962017,26.7156463 29.273826,27.3689646 C29.5514503,28.0191768 29.2458564,28.772926 28.594268,29.0504051 L20.7814227,32.3656592 C20.6446823,32.4246752 20.5048343,32.4567717 20.3660221,32.4650547 L20.3660221,32.4650547 Z"></path>
                    <path d="M22.7921271,8.17010289 C22.0939227,8.2177299 21.4848066,7.69693891 21.4267956,6.99702894 L21.035221,2.31094534 C20.9772099,1.60585852 21.5013812,0.985672026 22.2078729,0.926655949 C22.9112569,0.861427653 23.5348757,1.39257235 23.5949586,2.09869453 L23.9844613,6.78374277 C24.0435083,7.48986495 23.5183011,8.11005145 22.8128453,8.16803215 C22.8055939,8.17010289 22.7983425,8.17010289 22.7921271,8.17010289 L22.7921271,8.17010289 Z"></path>
                    <path d="M33.5376381,10.0700064 C33.3180249,10.0845016 33.0953039,10.0441222 32.8860497,9.94162058 C32.25,9.62997428 31.9858425,8.86069453 32.2986878,8.22601286 L34.1747238,4.3982508 C34.4844613,3.76149839 35.2541436,3.49954984 35.8912293,3.81016077 C36.5283149,4.12180707 36.7904006,4.89108682 36.4785912,5.52576849 L34.6025552,9.35353055 C34.3933011,9.78113826 33.9779006,10.0399807 33.5376381,10.0700064 L33.5376381,10.0700064 Z"></path>
                    <path d="M41.2676105,17.3258778 C40.8242403,17.3559035 40.3787983,17.1550418 40.113605,16.7616013 C39.7189227,16.1735113 39.8753453,15.3762765 40.4637431,14.9818006 L44.0687155,12.5590354 C44.6581492,12.1635241 45.4558011,12.319865 45.8494475,12.907955 C46.2451657,13.496045 46.089779,14.2922444 45.5013812,14.6877556 L41.894337,17.1105209 C41.6995856,17.2409775 41.484116,17.3113826 41.2676105,17.3258778 L41.2676105,17.3258778 Z"></path>
                    <path d="M12.2133978,11.5257363 C11.7700276,11.5547267 11.3245856,11.3549003 11.0604282,10.9604244 L8.68093923,7.42256592 C8.28625691,6.83447588 8.44267956,6.03827653 9.03004144,5.64276527 C9.61843923,5.24725402 10.4160912,5.40463023 10.8107735,5.99272026 L13.1902624,9.53057878 C13.5849448,10.1186688 13.4285221,10.9148682 12.8411602,11.3103794 C12.6464088,11.4387653 12.4299033,11.5102058 12.2133978,11.5257363 L12.2133978,11.5257363 Z"></path>
                    <path d="M5.69129834,19.8470032 C5.47064917,19.8625338 5.24274862,19.821119 5.02935083,19.7144759 L1.03798343,17.7162122 C0.405041436,17.3983537 0.149171271,16.6280386 0.467196133,15.9943923 C0.784185083,15.3617814 1.55490331,15.1039743 2.18991713,15.4228682 L6.18128453,17.4221672 C6.81422652,17.737955 7.07009669,18.5093055 6.75207182,19.1429518 C6.54178177,19.5643473 6.13052486,19.8180129 5.69129834,19.8470032 L5.69129834,19.8470032 Z"></path>
                </g>
                <path d="M191.568025,46.6309839 L190.786948,35.1849711 L193.63674,33.9746238 C194.293508,33.6992154 194.595994,32.9454662 194.320442,32.295254 C194.042818,31.6388296 193.28971,31.3365016 192.639157,31.6129453 L184.820097,34.9302701 C184.17058,35.2056785 183.868094,35.9594277 184.144682,36.6096399 C184.360152,37.1283601 184.882251,37.427582 185.413674,37.3903087 C185.554558,37.3809904 185.694406,37.3457878 185.824931,37.2919486 L188.287293,36.2503666 L189.008287,46.8059614" id="Shape" fill="#6ABEEC"></path>
                <g transform="translate(181.284530, 45.556270)">
                    <path d="M1.0535221,2.69817363 L17.1619475,1.56237299" id="Shape" fill="#F0F0F0"></path>
                    <path d="M10.1251807,-5.93167114 L10.1437454,4.4857333 L8.09054031,10.2082914 L8.07197567,-0.209113083 L10.1251807,-5.93167114 L10.1251807,-5.93167114 Z" id="Rectangle-path" fill="#3E3B3E"></path>
                </g>
                <g transform="translate(181.284530, 51.768489)">
                    <path d="M1.0535221,2.72302251 L17.1619475,1.58722186" id="Shape" fill="#F0F0F0"></path>
                    <path d="M10.1252429,-5.90693906 L10.1438075,4.51046539 L8.09060246,10.2330235 L8.07203782,-0.184380998 L10.1252429,-5.90693906 L10.1252429,-5.90693906 Z" id="Rectangle-path" fill="#3E3B3E"></path>
                </g>
            </g>
        </g>
    </g>
</svg>