<svg width="366" height="167" viewBox="0 0 366 167" xmlns="http://www.w3.org/2000/svg" xmlns:sketch="http://www.bohemiancoding.com/sketch/ns"><title>mobile</title><desc>Created with Sketch.</desc><g sketch:type="MSShapeGroup" transform="translate(-1 -2)" fill="none"><g fill="#3E3B3E"><path d="M134.795 16.869h-9.652c-.844 0-1.53-.689-1.53-1.535 0-.848.686-1.535 1.53-1.535h9.652c.844 0 1.53.687 1.53 1.535 0 .845-.686 1.535-1.53 1.535zM129.971 129.593c-3.165 0-5.739-2.578-5.739-5.748 0-3.168 2.576-5.746 5.739-5.746s5.737 2.578 5.737 5.746c0 3.17-2.574 5.748-5.737 5.748zm0-8.429c-1.477 0-2.679 1.201-2.679 2.681 0 1.482 1.202 2.683 2.679 2.683 1.475 0 2.677-1.201 2.677-2.683 0-1.477-1.204-2.681-2.677-2.681zM157.856 137.594h-55.777c-4.743 0-8.602-3.866-8.602-8.615v-118.125c0-4.749 3.858-8.615 8.602-8.615h55.777c4.743 0 8.602 3.866 8.602 8.615v118.125c0 4.749-3.858 8.615-8.602 8.615zm-55.777-131.909c-2.847 0-5.161 2.32-5.161 5.169v118.125c0 2.849 2.314 5.169 5.161 5.169h55.777c2.847 0 5.161-2.32 5.161-5.169v-118.125c0-2.849-2.314-5.169-5.161-5.169h-55.777z" id="Shape"/><path id="Rectangle-path" d="M96.73 25.041h68.007v3.446h-68.007zM96.73 110.394h68.007v3.446h-68.007z"/></g><ellipse id="Oval" fill="#6ABEEC" cx="274.018" cy="63.922" rx="3.691" ry="3.696"/><ellipse id="Oval" fill="#6ABEEC" cx="304.803" cy="63.922" rx="3.691" ry="3.696"/><ellipse id="Oval" fill="#6ABEEC" cx="288.829" cy="39.362" rx="3.693" ry="3.699"/><ellipse id="Oval" fill="#6ABEEC" cx="278.606" cy="43.065" rx="3.688" ry="3.694"/><ellipse id="Oval" fill="#6ABEEC" cx="299.518" cy="43.067" rx="3.693" ry="3.699"/><ellipse id="Oval" fill="#6ABEEC" cx="273.727" cy="52.617" rx="3.693" ry="3.699"/><ellipse fill="#6ABEEC" cx="304.83" cy="52.615" rx="3.688" ry="3.694"/><path d="M152.282 45.261c-.392 0-.782-.147-1.083-.448-.596-.597-.596-1.567 0-2.164l1.213-1.215-1.213-1.215c-.596-.597-.596-1.569 0-2.164.596-.595 1.564-.597 2.165 0l2.294 2.297c.599.6.599 1.569 0 2.166l-2.294 2.297c-.3.299-.69.446-1.083.446z" id="Shape" fill="#3E3B3E"/><path d="M116.043 48.857h-11.767c-.844 0-1.53-.687-1.53-1.532v-11.785c0-.843.684-1.532 1.53-1.532h11.767c.844 0 1.53.685 1.53 1.532v11.785c0 .845-.686 1.532-1.53 1.532z" id="Shape" fill="#6ABEEC"/><path d="M143.357 39.58h-19.511c-.844 0-1.53-.685-1.53-1.532 0-.848.686-1.532 1.53-1.532h19.511c.842 0 1.528.685 1.528 1.532 0 .848-.684 1.532-1.528 1.532zM140.678 46.348h-16.829c-.844 0-1.53-.687-1.53-1.532s.686-1.535 1.53-1.535h16.829c.844 0 1.53.689 1.53 1.535 0 .845-.684 1.532-1.53 1.532zM152.282 65.455c-.392 0-.782-.145-1.083-.448-.596-.597-.596-1.567 0-2.162l1.213-1.218-1.213-1.213c-.596-.6-.596-1.569 0-2.164.596-.595 1.564-.597 2.165 0l2.294 2.297c.599.6.599 1.569 0 2.164l-2.294 2.297c-.3.301-.69.446-1.083.446z" id="Shape" fill="#3E3B3E"/><path d="M116.043 69.05h-11.767c-.844 0-1.53-.685-1.53-1.532v-11.785c0-.845.684-1.535 1.53-1.535h11.767c.844 0 1.53.689 1.53 1.535v11.785c0 .848-.686 1.532-1.53 1.532z" id="Shape" fill="#6ABEEC"/><path d="M143.357 59.776h-19.511c-.844 0-1.53-.687-1.53-1.535 0-.843.686-1.532 1.53-1.532h19.511c.842 0 1.528.687 1.528 1.532s-.684 1.535-1.528 1.535zM140.678 66.544h-16.829c-.844 0-1.53-.687-1.53-1.532s.686-1.535 1.53-1.535h16.829c.844 0 1.53.687 1.53 1.535 0 .845-.684 1.532-1.53 1.532zM152.282 85.652c-.392 0-.782-.149-1.083-.448-.596-.6-.596-1.569 0-2.166l1.213-1.213-1.213-1.215c-.596-.6-.596-1.569 0-2.164.596-.6 1.564-.6 2.165 0l2.294 2.297c.599.597.599 1.567 0 2.164l-2.294 2.3c-.3.296-.69.446-1.083.446z" id="Shape" fill="#3E3B3E"/><path d="M116.043 89.245h-11.767c-.844 0-1.53-.685-1.53-1.532v-11.785c0-.845.684-1.532 1.53-1.532h11.767c.844 0 1.53.685 1.53 1.532v11.785c0 .848-.686 1.532-1.53 1.532z" id="Shape" fill="#6ABEEC"/><path d="M143.357 79.969h-19.511c-.844 0-1.53-.685-1.53-1.535 0-.845.686-1.532 1.53-1.532h19.511c.842 0 1.528.687 1.528 1.532 0 .85-.684 1.535-1.528 1.535zM140.678 86.737h-16.829c-.844 0-1.53-.685-1.53-1.532 0-.848.686-1.532 1.53-1.532h16.829c.844 0 1.53.685 1.53 1.532 0 .848-.684 1.532-1.53 1.532zM152.282 105.846c-.392 0-.782-.149-1.083-.448-.596-.6-.596-1.571 0-2.166l1.213-1.213-1.213-1.213c-.596-.6-.596-1.571 0-2.169.596-.597 1.564-.597 2.165 0l2.294 2.3c.599.597.599 1.569 0 2.164l-2.294 2.3c-.3.296-.69.446-1.083.446z" id="Shape" fill="#3E3B3E"/><path d="M116.043 109.441h-11.767c-.844 0-1.53-.687-1.53-1.535v-11.783c0-.848.684-1.535 1.53-1.535h11.767c.844 0 1.53.687 1.53 1.535v11.783c0 .848-.686 1.535-1.53 1.535z" id="Shape" fill="#6ABEEC"/><path d="M143.357 100.164h-19.511c-.844 0-1.53-.687-1.53-1.532 0-.848.686-1.535 1.53-1.535h19.511c.842 0 1.528.687 1.528 1.535 0 .845-.684 1.532-1.528 1.532zM140.678 106.932h-16.829c-.844 0-1.53-.687-1.53-1.532 0-.848.686-1.532 1.53-1.532h16.829c.844 0 1.53.685 1.53 1.532 0 .848-.684 1.532-1.53 1.532z" id="Shape" fill="#3E3B3E"/><g fill="#3E3B3E"><path d="M42.444 16.869h-9.652c-.844 0-1.53-.689-1.53-1.535 0-.848.686-1.535 1.53-1.535h9.652c.844 0 1.53.687 1.53 1.535 0 .845-.686 1.535-1.53 1.535zM37.62 129.593c-3.165 0-5.739-2.578-5.739-5.748 0-3.168 2.576-5.746 5.739-5.746s5.737 2.578 5.737 5.746c0 3.17-2.574 5.748-5.737 5.748zm0-8.429c-1.477 0-2.679 1.201-2.679 2.681 0 1.482 1.202 2.683 2.679 2.683 1.475 0 2.677-1.201 2.677-2.683 0-1.477-1.204-2.681-2.677-2.681zM65.507 137.594h-55.777c-4.743 0-8.602-3.866-8.602-8.615v-118.125c0-4.749 3.858-8.615 8.602-8.615h55.777c4.743 0 8.602 3.866 8.602 8.615v118.125c0 4.749-3.86 8.615-8.602 8.615zm-55.777-131.909c-2.847 0-5.161 2.32-5.161 5.169v118.125c0 2.849 2.314 5.169 5.161 5.169h55.777c2.847 0 5.161-2.32 5.161-5.169v-118.125c0-2.849-2.314-5.169-5.161-5.169h-55.777z" id="Shape"/><path id="Rectangle-path" d="M4.379 25.041h68.007v3.446h-68.007zM4.379 110.394h68.007v3.446h-68.007z"/></g><path d="M362.796 8.392l-.069 108.534v15.785h-30.7v32.114h-41.689v-13.942s-16.451-10.572-19.371-18.172h-77.91s-.135-7.08-.135-15.785v-108.533h169.873zm-153.369 107.787h61.089v-23.837c0-3.873 2.75-5.879 5.471-5.879 2.656 0 5.287 1.916 5.287 5.879v22.04c0 .581.778.871 1.555.871.78 0 1.557-.289 1.557-.871v-58.576c0-3.294 2.466-4.939 4.934-4.939 2.466 0 4.932 1.647 4.932 4.939v45.937c0 .533.688.802 1.379.802.688 0 1.379-.266 1.379-.802v-22.638c0-3.301 2.466-4.951 4.932-4.951 2.468 0 4.934 1.652 4.934 4.951v22.638c0 .533.688.802 1.379.802.69 0 1.379-.266 1.379-.802v-16.598c0-3.304 2.466-4.953 4.934-4.953 2.466 0 4.932 1.652 4.932 4.953v16.598c0 .533.69.802 1.379.802.688 0 1.379-.266 1.379-.802v-9.637c0-3.304 2.443-4.955 4.888-4.955s4.89 1.652 4.89 4.955v24.073h14.194-.002v-91.251h-136.797v91.251zm145.052-42.339c1.778 0 3.218-1.445 3.218-3.221 0-1.78-1.44-3.225-3.218-3.225s-3.218 1.445-3.218 3.225c0 1.776 1.44 3.221 3.218 3.221zm11.76-68.894h-176.757v111.979c0 8.638.133 15.778.135 15.849l.064 3.382h79.171c3.982 6.648 13.992 13.834 18.045 16.58v15.536999999999999h48.571000000000005v-32.114h30.7v-19.231l.069-108.531.002-3.451zm-153.372 23.428h129.911v84.359h-7.31v-20.627c0-5.456-4.292-8.401-8.331-8.401-1.438 0-2.911.374-4.209 1.103-.165-4.62-3.707-8.061-8.365-8.061-1.608 0-3.083.409-4.331 1.135-.557-4.165-3.936-7.172-8.294-7.172-1.571 0-3.014.391-4.248 1.089v-15.991c0-4.781-3.599-8.385-8.372-8.385-4.776 0-8.374 3.604-8.374 8.385v28.741c-1.47-1.011-3.218-1.528-4.957-1.528-2.314 0-4.491.868-6.136 2.442-1.789 1.716-2.775 4.163-2.775 6.88v20.391h-54.208v-84.359z" id="Shape" fill="#3E3B3E"/><path fill="#3E3B3E" d="M266.88 113.955h3.746v19.568h-3.746zM331.91 114.768h3.665v18.755h-3.665z"/><path d="M19.942 94.077c4.106 0 7.322-2.559 7.322-5.801l-.018-.285.018-.152v-24.002c9.723-.076 18.426-5.304 23.74-11.916v30.938c-.794-.246-1.681-.379-2.592-.379-4.106 0-7.317 2.559-7.317 5.796 0 3.241 3.211 5.801 7.317 5.801s7.322-2.559 7.322-5.801l-.018-.285.018-.152v-44.921c0-.188-.018-.381-.076-.549-.021-.11-.037-.225-.096-.342-.151-.393-.434-.758-.796-1.018l-.227-.152c-.094-.057-.186-.115-.284-.136l-.154-.076-.112-.021h-.021l-.209-.055c-.112-.018-.245-.037-.376-.037-.19 0-.381.018-.55.076-.094 0-.186.037-.284.076l-.245.113c-.112.039-.225.113-.321.193l-.078.053-.206.188c-.248.227-.417.512-.53.834l-.055.113c-.326 1.027-.778 2.065-1.305 3.074-3.555 6.759-11.466 12.915-20.678 13.736-1.135.11-2.308.131-3.5.055-.17-.021-.339 0-.493.039-.076-.039-.167-.039-.243-.039-1.305 0-2.365 1.059-2.365 2.369v21.445c-.794-.246-1.665-.379-2.592-.379-4.106 0-7.322 2.559-7.322 5.796.007 3.244 3.223 5.803 7.329 5.803z" fill="#6ABEEC"/></g></svg>