<?xml version="1.0" encoding="UTF-8" standalone="no"?>
<svg width="383px" height="135px" viewBox="0 0 383 135" version="1.1" xmlns="http://www.w3.org/2000/svg" xmlns:xlink="http://www.w3.org/1999/xlink" xmlns:sketch="http://www.bohemiancoding.com/sketch/ns">
    <!-- Generator: Sketch 3.3.1 (12002) - http://www.bohemiancoding.com/sketch -->
    <title>prototyping</title>
    <desc>Created with Sketch.</desc>
    <defs></defs>
    <g id="Page-1" stroke="none" stroke-width="1" fill="none" fill-rule="evenodd" sketch:type="MSPage">
        <g id="prototyping" sketch:type="MSLayerGroup" transform="translate(0.000000, -1.000000)">
            <g id="Group" sketch:type="MSShapeGroup">
                <g transform="translate(210.546875, 0.000000)">
                    <path d="M169.440104,115 C169.440104,118.312 166.747109,121 163.424479,121 L7.01822917,121 C3.69559896,121 1.00260417,118.312 1.00260417,115 L1.00260417,9 C1.00260417,5.686 3.69559896,3 7.01822917,3 L163.424479,3 C166.747109,3 169.440104,5.686 169.440104,9 L169.440104,115 L169.440104,115 Z" id="Shape" fill="#F0F0F0"></path>
                    <path d="M151.232813,70.864 L151.232813,70.864 L104.086354,70.836 C103.536927,70.836 103.089766,70.388 103.089766,69.84 L103.113828,35.938 C103.113828,35.674 103.218099,35.418 103.402578,35.232 C103.591068,35.046 103.847734,34.94 104.108411,34.94 L104.108411,34.94 L151.25487,34.968 C151.525573,34.968 151.778229,35.076 151.966719,35.258 C152.151198,35.446 152.259479,35.7 152.259479,35.966 L152.233411,69.866 C152.231406,70.418 151.784245,70.864 151.232813,70.864 L151.232813,70.864 Z" id="Shape" fill="#6ABEEC"></path>
                    <path d="M144.250677,72.298 C143.93987,72.298 143.631068,72.156 143.442578,71.886 L131.291016,55.222 L123.907839,63.214 C123.691276,63.444 123.386484,63.56 123.077682,63.53 C122.76888,63.5 122.492161,63.332 122.321719,63.068 L111.154714,45.328 L102.676693,51.344 C102.223516,51.664 101.599896,51.558 101.281068,51.108 C100.964245,50.66 101.072526,50.038 101.517682,49.72 L110.857943,43.092 C111.086536,42.93 111.36125,42.87 111.633958,42.926 C111.906667,42.978 112.139271,43.142 112.287656,43.374 L123.322318,60.906 L130.649349,52.98 C130.85388,52.76 131.14263,52.648 131.439401,52.662 C131.738177,52.678 132.012891,52.828 132.187344,53.07 L145.054766,70.718 C145.373594,71.166 145.281354,71.788 144.834193,72.11 C144.653724,72.236 144.447188,72.298 144.250677,72.298 L144.250677,72.298 Z" id="Shape" fill="#FFFFFF"></path>
                    <path d="M140.924036,49.894 L140.924036,49.894 C139.70888,49.894 138.557891,49.42 137.697656,48.56 C136.837422,47.7 136.362188,46.556 136.368203,45.34 C136.368203,42.832 138.415521,40.796 140.924036,40.796 C142.143203,40.796 143.290182,41.27 144.148411,42.13 C145.014661,42.99 145.487891,44.132 145.487891,45.348 C145.489896,47.854 143.438568,49.894 140.924036,49.894 L140.924036,49.894 Z" id="Shape" fill="#FFFFFF"></path>
                    <path d="M157.057943,29.014 L157.057943,76.832 L15.1854427,76.832 L15.1854427,29.014 L157.057943,29.014 L157.057943,29.014 Z M158.066563,26.014 L14.1728125,26.014 C13.0719531,26.014 12.1776302,26.906 12.1776302,28.006 L12.1776302,77.84 C12.1776302,78.942 13.0719531,79.832 14.1728125,79.832 L158.066563,79.832 C159.175443,79.832 160.065755,78.942 160.065755,77.84 L160.065755,28.006 C160.065755,26.906 159.175443,26.014 158.066563,26.014 L158.066563,26.014 L158.066563,26.014 Z" id="Shape" fill="#3E3B3E"></path>
                    <g transform="translate(28.072917, 36.000000)" id="Shape" fill="#3E3B3E">
                        <path d="M64.0423438,3.966 L2.08742187,3.966 C1.53598958,3.966 1.08882812,3.518 1.08882812,2.968 C1.08882812,2.418 1.53598958,1.972 2.08742187,1.972 L64.0423438,1.972 C64.5917708,1.972 65.0429427,2.418 65.0429427,2.968 C65.0429427,3.518 64.593776,3.966 64.0423438,3.966 L64.0423438,3.966 Z"></path>
                        <path d="M64.0423438,4.966 L2.08742187,4.966 C0.984557292,4.966 0.0862239583,4.07 0.0862239583,2.968 C0.0862239583,1.868 0.984557292,0.972 2.08742187,0.972 L64.0423438,0.972 C65.1472135,0.972 66.0455469,1.868 66.0455469,2.968 C66.0475521,4.072 65.1472135,4.966 64.0423438,4.966 L64.0423438,4.966 Z M64.0423438,2.966 L64.0423438,3.966 L64.0423438,2.966 L64.0423438,2.966 Z"></path>
                    </g>
                    <g transform="translate(28.072917, 44.000000)" id="Shape" fill="#3E3B3E">
                        <path d="M32.0652865,3.94 L2.08742187,3.94 C1.53598958,3.94 1.08882812,3.492 1.08882812,2.942 C1.08882812,2.394 1.53598958,1.946 2.08742187,1.946 L32.0652865,1.946 C32.618724,1.946 33.0658854,2.392 33.0658854,2.942 C33.0658854,3.492 32.6207292,3.94 32.0652865,3.94 L32.0652865,3.94 Z"></path>
                        <path d="M32.0652865,4.94 L2.08742188,4.94 C0.984557292,4.94 0.0862239583,4.044 0.0862239583,2.942 C0.0862239583,1.842 0.984557292,0.946 2.08742188,0.946 L32.0652865,0.946 C33.1701563,0.946 34.0684896,1.84 34.0684896,2.942 C34.0684896,4.044 33.1701563,4.94 32.0652865,4.94 L32.0652865,4.94 Z M32.0652865,2.94 L32.0652865,3.94 L32.0652865,2.94 L32.0652865,2.94 L32.0652865,2.94 Z"></path>
                    </g>
                    <g transform="translate(28.072917, 52.000000)" id="Shape" fill="#3E3B3E">
                        <path d="M48.0528125,3.914 L2.08742188,3.914 C1.53598958,3.914 1.08882813,3.466 1.08882813,2.916 C1.08882813,2.368 1.53598958,1.92 2.08742188,1.92 L48.0528125,1.92 C48.6082552,1.92 49.0554167,2.368 49.0554167,2.916 C49.0554167,3.466 48.6082552,3.914 48.0528125,3.914 L48.0528125,3.914 Z"></path>
                        <path d="M48.0528125,4.914 L2.08742188,4.914 C0.984557292,4.914 0.0862239583,4.018 0.0862239583,2.916 C0.0862239583,1.816 0.984557292,0.92 2.08742188,0.92 L48.0528125,0.92 C49.1576823,0.92 50.0580208,1.816 50.0580208,2.916 C50.0580208,4.016 49.1576823,4.914 48.0528125,4.914 L48.0528125,4.914 Z M48.0528125,2.914 L48.0528125,3.914 L48.0548177,2.914 L2.08742188,2.92 L48.0528125,2.914 L48.0528125,2.914 Z"></path>
                    </g>
                    <path d="M108.102786,92.874 L62.1373958,92.874 C61.032526,92.874 60.1382031,92.39 60.1382031,91.794 C60.1382031,91.196 61.032526,90.714 62.1373958,90.714 L108.102786,90.714 C109.209661,90.714 110.103984,91.196 110.103984,91.794 C110.103984,92.388 109.209661,92.874 108.102786,92.874 L108.102786,92.874 Z" id="Shape" fill="#3E3B3E"></path>
                    <path d="M100.106016,102.84 L72.1333594,102.84 C71.0244792,102.84 70.1321615,102.356 70.1321615,101.758 C70.1321615,101.16 71.0244792,100.68 72.1333594,100.68 L100.106016,100.68 C101.216901,100.68 102.111224,101.16 102.111224,101.758 C102.111224,102.356 101.216901,102.84 100.106016,102.84 L100.106016,102.84 Z" id="Shape" fill="#3E3B3E"></path>
                    <ellipse id="Oval" fill="#3E3B3E" cx="11.2291667" cy="10.116" rx="2.54861979" ry="2.542"></ellipse>
                    <ellipse id="Oval" fill="#3E3B3E" cx="19.4204427" cy="10.116" rx="2.54861979" ry="2.542"></ellipse>
                    <ellipse id="Oval" fill="#3E3B3E" cx="27.613724" cy="10.116" rx="2.54861979" ry="2.542"></ellipse>
                    <ellipse id="Oval" fill="#3E3B3E" cx="79.6248177" cy="67.374" rx="1.99919271" ry="1.994"></ellipse>
                    <ellipse id="Oval" fill="#3E3B3E" cx="85.6223958" cy="67.374" rx="1.99919271" ry="1.994"></ellipse>
                    <ellipse id="Oval" fill="#3E3B3E" cx="91.6159635" cy="67.374" rx="1.99919271" ry="1.994"></ellipse>
                    <g id="Shape" fill="#3E3B3E">
                        <path d="M168.770365,122.568 L3.46700521,122.568 C1.588125,122.568 0.06015625,121.044 0.06015625,119.17 L0.06015625,20.244 C0.06015625,18.37 1.588125,16.846 3.46700521,16.846 L168.770365,16.846 C170.65125,16.846 172.181224,18.37 172.181224,20.244 L172.181224,119.17 C172.181224,121.042 170.65125,122.568 168.770365,122.568 L168.770365,122.568 Z M3.46700521,19.766 C3.20231771,19.766 2.98776042,19.98 2.98776042,20.244 L2.98776042,119.17 C2.98776042,119.434 3.20231771,119.648 3.46700521,119.648 L168.770365,119.648 C169.043073,119.648 169.255625,119.438 169.255625,119.17 L169.255625,20.244 C169.255625,19.98 169.039063,19.766 168.770365,19.766 L3.46700521,19.766 L3.46700521,19.766 Z"></path>
                        <path d="M170.719427,21.704 C169.911328,21.704 169.25763,21.05 169.25763,20.244 L169.25763,10.546 C169.25763,6.956 166.480417,4.248 162.798854,4.248 L9.92778646,4.248 C6.09984375,4.248 2.98776042,7.074 2.98776042,10.546 L2.98776042,20.244 C2.98776042,21.05 2.33205729,21.704 1.52395833,21.704 C0.715859375,21.704 0.06015625,21.05 0.06015625,20.244 L0.06015625,10.546 C0.06015625,5.462 4.48765625,1.328 9.92778646,1.328 L162.796849,1.328 C168.146745,1.328 172.181224,5.29 172.181224,10.546 L172.181224,20.244 C172.181224,21.048 171.527526,21.704 170.719427,21.704 L170.719427,21.704 Z"></path>
                    </g>
                </g>
                <path d="M323.841146,129 C323.841146,132.312 321.148151,135 317.825521,135 L161.419271,135 C158.096641,135 155.403646,132.312 155.403646,129 L155.403646,23 C155.403646,19.686 158.096641,17 161.419271,17 L317.825521,17 C321.148151,17 323.841146,19.686 323.841146,23 L323.841146,129 L323.841146,129 Z" id="Shape" fill="#F0F0F0"></path>
                <path d="M305.633854,84.864 L305.633854,84.864 L258.487396,84.836 C257.937969,84.836 257.490807,84.388 257.490807,83.84 L257.51487,49.938 C257.51487,49.674 257.619141,49.418 257.80362,49.232 C257.992109,49.046 258.248776,48.94 258.509453,48.94 L258.509453,48.94 L305.655911,48.968 C305.926615,48.968 306.179271,49.076 306.36776,49.258 C306.55224,49.446 306.660521,49.7 306.660521,49.966 L306.634453,83.866 C306.632448,84.418 306.185286,84.864 305.633854,84.864 L305.633854,84.864 Z" id="Shape" fill="#6ABEEC"></path>
                <path d="M298.651719,86.298 C298.340911,86.298 298.032109,86.156 297.84362,85.886 L285.692057,69.222 L278.30888,77.214 C278.092318,77.444 277.787526,77.562 277.478724,77.53 C277.169922,77.5 276.893203,77.33 276.72276,77.07 L265.555755,59.328 L257.077734,65.344 C256.624557,65.664 256.000938,65.558 255.682109,65.108 C255.365286,64.66 255.473568,64.038 255.918724,63.72 L265.258984,57.092 C265.487578,56.93 265.762292,56.87 266.035,56.926 C266.307708,56.978 266.540313,57.142 266.688698,57.374 L277.723359,74.906 L285.050391,66.98 C285.254922,66.76 285.543672,66.648 285.840443,66.662 C286.139219,66.678 286.413932,66.828 286.588385,67.07 L299.455807,84.718 C299.774635,85.168 299.682396,85.788 299.235234,86.11 C299.054766,86.236 298.848229,86.298 298.651719,86.298 L298.651719,86.298 Z" id="Shape" fill="#FFFFFF"></path>
                <path d="M295.325078,63.894 L295.325078,63.894 C294.109922,63.894 292.958932,63.42 292.098698,62.56 C291.238464,61.7 290.763229,60.556 290.769245,59.34 C290.769245,56.832 292.816562,54.796 295.325078,54.796 C296.544245,54.796 297.691224,55.27 298.549453,56.13 C299.415703,56.99 299.888932,58.132 299.888932,59.348 C299.890938,61.854 297.839609,63.894 295.325078,63.894 L295.325078,63.894 Z" id="Shape" fill="#FFFFFF"></path>
                <g transform="translate(152.395833, 14.000000)" id="Shape" fill="#3E3B3E">
                    <path d="M169.774974,121.516 L4.47161458,121.516 C2.59273437,121.516 1.06476562,119.992 1.06476562,118.118 L1.06476562,19.192 C1.06476562,17.318 2.59273437,15.794 4.47161458,15.794 L169.774974,15.794 C171.655859,15.794 173.185833,17.318 173.185833,19.192 L173.185833,118.118 C173.185833,119.992 171.655859,121.516 169.774974,121.516 L169.774974,121.516 Z M4.47161458,18.714 C4.20692708,18.714 3.99236979,18.928 3.99236979,19.192 L3.99236979,118.118 C3.99236979,118.382 4.20692708,118.596 4.47161458,118.596 L169.774974,118.596 C170.047682,118.596 170.260234,118.386 170.260234,118.118 L170.260234,19.192 C170.260234,18.928 170.043672,18.714 169.774974,18.714 L4.47161458,18.714 L4.47161458,18.714 Z"></path>
                    <path d="M171.724036,20.652 C170.915937,20.652 170.26224,19.998 170.26224,19.192 L170.26224,9.494 C170.26224,5.904 167.485026,3.196 163.803464,3.196 L10.934401,3.196 C7.10645833,3.196 3.994375,6.022 3.994375,9.494 L3.994375,19.192 C3.994375,19.998 3.33867188,20.652 2.53057292,20.652 C1.72247396,20.652 1.06677083,19.998 1.06677083,19.192 L1.06677083,9.494 C1.06677083,4.41 5.49427083,0.276 10.934401,0.276 L163.803464,0.276 C169.153359,0.276 173.187839,4.238 173.187839,9.494 L173.187839,19.192 C173.185833,19.998 172.532135,20.652 171.724036,20.652 L171.724036,20.652 Z"></path>
                </g>
                <path d="M311.458984,43.014 L311.458984,90.832 L169.586484,90.832 L169.586484,43.014 L311.458984,43.014 L311.458984,43.014 Z M312.467604,40.014 L168.573854,40.014 C167.472995,40.014 166.578672,40.906 166.578672,42.006 L166.578672,91.84 C166.578672,92.942 167.472995,93.832 168.573854,93.832 L312.467604,93.832 C313.576484,93.832 314.466797,92.942 314.466797,91.84 L314.466797,42.006 C314.466797,40.906 313.576484,40.014 312.467604,40.014 L312.467604,40.014 L312.467604,40.014 Z" id="Shape" fill="#3E3B3E"></path>
                <g transform="translate(182.473958, 50.000000)" id="Shape" fill="#3E3B3E">
                    <path d="M64.0423437,3.966 L2.08742187,3.966 C1.53598958,3.966 1.08882812,3.518 1.08882812,2.968 C1.08882812,2.418 1.53598958,1.972 2.08742187,1.972 L64.0423437,1.972 C64.5917708,1.972 65.0429427,2.418 65.0429427,2.968 C65.0429427,3.518 64.593776,3.966 64.0423437,3.966 L64.0423437,3.966 Z"></path>
                    <path d="M64.0423438,4.466 L2.08742188,4.466 C1.25927083,4.466 0.587526042,3.794 0.587526042,2.968 C0.587526042,2.142 1.25927083,1.472 2.08742188,1.472 L64.0423438,1.472 C64.8704948,1.472 65.5442448,2.142 65.5442448,2.968 C65.5442448,3.794 64.8725,4.466 64.0423438,4.466 L64.0423438,4.466 Z M2.08742187,2.474 C1.81270833,2.474 1.59013021,2.696 1.59013021,2.97 C1.59013021,3.244 1.81270833,3.468 2.08742187,3.468 L64.0423438,3.468 C64.3170573,3.468 64.5416406,3.246 64.5416406,2.97 C64.5416406,2.696 64.3170573,2.474 64.0423438,2.474 L2.08742187,2.474 L2.08742187,2.474 Z"></path>
                </g>
                <g transform="translate(182.473958, 58.000000)" id="Shape" fill="#3E3B3E">
                    <path d="M32.0652865,3.94 L2.08742187,3.94 C1.53598958,3.94 1.08882812,3.492 1.08882812,2.942 C1.08882812,2.394 1.53598958,1.946 2.08742187,1.946 L32.0652865,1.946 C32.618724,1.946 33.0658854,2.392 33.0658854,2.942 C33.0658854,3.492 32.6207292,3.94 32.0652865,3.94 L32.0652865,3.94 Z"></path>
                    <path d="M32.0652865,4.44 L2.08742188,4.44 C1.25927083,4.44 0.587526042,3.768 0.587526042,2.942 C0.587526042,2.118 1.25927083,1.446 2.08742188,1.446 L32.0652865,1.446 C32.8934375,1.446 33.5671875,2.116 33.5671875,2.942 C33.5671875,3.768 32.8934375,4.44 32.0652865,4.44 L32.0652865,4.44 Z M2.08742188,2.448 C1.81270833,2.448 1.59013021,2.67 1.59013021,2.944 C1.59013021,3.218 1.81270833,3.442 2.08742188,3.442 L32.0652865,3.442 C32.34,3.442 32.5645833,3.22 32.5645833,2.944 C32.5645833,2.67 32.34,2.448 32.0652865,2.448 L2.08742188,2.448 L2.08742188,2.448 Z"></path>
                </g>
                <g transform="translate(182.473958, 66.000000)" id="Shape" fill="#3E3B3E">
                    <path d="M48.0528125,3.914 L2.08742187,3.914 C1.53598958,3.914 1.08882812,3.466 1.08882812,2.916 C1.08882812,2.368 1.53598958,1.92 2.08742187,1.92 L48.0528125,1.92 C48.6082552,1.92 49.0554167,2.368 49.0554167,2.916 C49.0554167,3.466 48.6082552,3.914 48.0528125,3.914 L48.0528125,3.914 Z"></path>
                    <path d="M48.0528125,4.414 L2.08742188,4.414 C1.25927083,4.414 0.587526042,3.742 0.587526042,2.916 C0.587526042,2.09 1.25927083,1.42 2.08742188,1.42 L48.0528125,1.42 C48.8829688,1.42 49.5567188,2.09 49.5567188,2.916 C49.5567188,3.742 48.8809635,4.414 48.0528125,4.414 L48.0528125,4.414 Z M2.08742188,2.418 C1.81270833,2.418 1.59013021,2.64 1.59013021,2.914 C1.59013021,3.188 1.81270833,3.412 2.08742188,3.412 L48.0528125,3.412 C48.3295312,3.412 48.5541146,3.188 48.5541146,2.914 C48.5541146,2.64 48.3295312,2.418 48.0528125,2.418 L2.08742188,2.418 L2.08742188,2.418 Z"></path>
                </g>
                <g transform="translate(212.552083, 104.000000)" id="Shape" fill="#3E3B3E">
                    <path d="M49.9517448,2.874 L3.98635417,2.874 C2.88148437,2.874 1.98716146,2.39 1.98716146,1.794 C1.98716146,1.196 2.88148437,0.714 3.98635417,0.714 L49.9517448,0.714 C51.0586198,0.714 51.9529427,1.196 51.9529427,1.794 C51.9529427,2.388 51.0586198,2.874 49.9517448,2.874 L49.9517448,2.874 Z"></path>
                    <path d="M49.9517448,3.124 L3.98635417,3.124 C2.72507813,3.124 1.73651042,2.54 1.73651042,1.794 C1.73651042,1.048 2.72507813,0.464 3.98635417,0.464 L49.9517448,0.464 C51.215026,0.464 52.2035938,1.048 52.2035938,1.794 C52.2035938,2.54 51.215026,3.124 49.9517448,3.124 L49.9517448,3.124 Z M3.98635417,0.962 C2.95567708,0.962 2.2378125,1.4 2.2378125,1.792 C2.2378125,2.184 2.95567708,2.622 3.98635417,2.622 L49.9517448,2.622 C50.9844271,2.622 51.7022917,2.184 51.7022917,1.792 C51.7022917,1.4 50.9844271,0.962 49.9517448,0.962 L3.98635417,0.962 L3.98635417,0.962 Z"></path>
                </g>
                <g transform="translate(222.578125, 114.000000)" id="Shape" fill="#3E3B3E">
                    <path d="M31.9289323,2.84 L3.95627604,2.84 C2.84739583,2.84 1.95507812,2.356 1.95507812,1.758 C1.95507812,1.16 2.84739583,0.68 3.95627604,0.68 L31.9289323,0.68 C33.0398177,0.68 33.9341406,1.16 33.9341406,1.758 C33.9341406,2.356 33.0398177,2.84 31.9289323,2.84 L31.9289323,2.84 Z"></path>
                    <path d="M31.9289323,3.09 L3.95627604,3.09 C2.69299479,3.09 1.70442708,2.506 1.70442708,1.758 C1.70442708,1.012 2.69299479,0.43 3.95627604,0.43 L31.9289323,0.43 C33.1942187,0.43 34.1847917,1.014 34.1847917,1.758 C34.1847917,2.504 33.1942187,3.09 31.9289323,3.09 L31.9289323,3.09 Z M3.95627604,0.93 C2.92359375,0.93 2.20572917,1.366 2.20572917,1.758 C2.20572917,2.152 2.92359375,2.59 3.95627604,2.59 L31.9289323,2.59 C32.9636198,2.59 33.6834896,2.152 33.6834896,1.758 C33.6834896,1.366 32.9636198,0.93 31.9289323,0.93 L3.95627604,0.93 L3.95627604,0.93 Z"></path>
                </g>
                <ellipse id="Oval" fill="#3E3B3E" cx="165.630208" cy="24.116" rx="2.54861979" ry="2.542"></ellipse>
                <ellipse id="Oval" fill="#3E3B3E" cx="173.821484" cy="24.116" rx="2.54861979" ry="2.542"></ellipse>
                <ellipse id="Oval" fill="#3E3B3E" cx="182.014766" cy="24.116" rx="2.54861979" ry="2.542"></ellipse>
                <ellipse id="Oval" fill="#3E3B3E" cx="234.025859" cy="81.374" rx="1.99919271" ry="1.994"></ellipse>
                <ellipse id="Oval" fill="#3E3B3E" cx="240.023438" cy="81.374" rx="1.99919271" ry="1.994"></ellipse>
                <ellipse id="Oval" fill="#3E3B3E" cx="246.017005" cy="81.374" rx="1.99919271" ry="1.994"></ellipse>
                <path d="M68.5460417,129.604 C72.2516667,129.604 75.2634896,126.6 75.2634896,122.904 L75.2634896,29.096 C75.2634896,25.4 72.2516667,22.396 68.5460417,22.396 L48.3936979,22.396 C44.6880729,22.396 41.67625,25.4 41.67625,29.096 L41.67625,122.904 C41.67625,126.6 44.6880729,129.604 48.3936979,129.604 L68.5460417,129.604 L68.5460417,129.604 Z" id="Shape" fill="#6ABEEC"></path>
                <path d="M14.389375,25.724 C16.6572656,25.724 18.5040625,27.564 18.5040625,29.828 L18.5040625,111.518 C18.5040625,113.548 17.7641406,116.678 16.853776,118.494 L12.9175521,126.346 C12.6147656,126.95 11.9410156,127.962 10.828125,127.962 C9.71523438,127.962 9.04348958,126.95 8.74070313,126.346 L4.80447917,118.494 C3.89411458,116.676 3.15419271,113.546 3.15419271,111.518 L3.15419271,29.828 C3.15419271,27.566 4.99898438,25.724 7.26888021,25.724 L14.389375,25.724 L14.389375,25.724 Z M14.389375,22.724 L7.266875,22.724 C3.33867187,22.724 0.144375,25.91 0.144375,29.828 L0.144375,111.518 C0.144375,114.02 0.990572917,117.598 2.11148437,119.836 L6.04770833,127.688 C7.09041667,129.77 8.83294271,130.962 10.8261198,130.962 C12.8192969,130.962 14.5598177,129.768 15.6045312,127.688 L19.5407552,119.836 C20.6616667,117.598 21.5078646,114.022 21.5078646,111.518 L21.5078646,29.828 C21.511875,25.91 18.3175781,22.724 14.389375,22.724 L14.389375,22.724 L14.389375,22.724 Z" id="Shape" fill="#3E3B3E"></path>
                <path d="M114.788151,122.172 L118.349401,122.172 C122.277604,122.172 125.471901,118.986 125.471901,115.068 L125.471901,100.86 C125.471901,98.9 123.87776,97.308 121.910651,97.308 C119.945547,97.308 118.349401,98.898 118.349401,100.86 L118.349401,115.068 L114.788151,115.068" id="Shape" fill="#3E3B3E"></path>
                <path d="M104.104401,24.038 C105.217292,24.038 105.889036,25.05 106.191823,25.654 L110.128047,33.506 C111.038411,35.324 111.778333,38.454 111.778333,40.482 L111.778333,115.068 L111.778333,122.172 C111.778333,124.434 109.933542,126.276 107.663646,126.276 L100.541146,126.276 C98.2732552,126.276 96.4264583,124.436 96.4264583,122.172 L96.4264583,40.482 C96.4264583,38.452 97.1683854,35.322 98.07875,33.506 L102.012969,25.654 C102.319766,25.05 102.993516,24.038 104.104401,24.038 L104.104401,24.038 Z M104.104401,21.038 C102.111224,21.038 100.370703,22.232 99.3259896,24.312 L95.3897656,32.164 C94.266849,34.402 93.420651,37.978 93.420651,40.482 L93.420651,122.172 C93.420651,126.09 96.6149479,129.276 100.543151,129.276 L107.665651,129.276 C111.593854,129.276 114.788151,126.09 114.788151,122.172 L114.788151,115.068 L114.788151,40.482 C114.788151,37.98 113.941953,34.402 112.821042,32.164 L108.884818,24.312 C107.840104,22.232 106.097578,21.038 104.104401,21.038 L104.104401,21.038 L104.104401,21.038 Z" id="Shape" fill="#3E3B3E"></path>
                <path d="M19.1377083,48.198 L1.925,48.198 C1.09484375,48.198 0.42109375,47.526 0.42109375,46.698 C0.42109375,45.87 1.09484375,45.198 1.925,45.198 L19.1377083,45.198 C19.9678646,45.198 20.6416146,45.87 20.6416146,46.698 C20.6416146,47.526 19.9678646,48.198 19.1377083,48.198 L19.1377083,48.198 Z" id="Shape" fill="#3E3B3E"></path>
                <path d="M76.1297396,41.686 L62.4782813,41.686 C61.648125,41.686 60.974375,41.014 60.974375,40.186 C60.974375,39.358 61.648125,38.686 62.4782813,38.686 L76.1297396,38.686 C76.9598958,38.686 77.6336458,39.358 77.6336458,40.186 C77.6336458,41.014 76.9598958,41.686 76.1297396,41.686 L76.1297396,41.686 Z" id="Shape" fill="#F0F0F0"></path>
                <path d="M76.1297396,77.5 L62.4782813,77.5 C61.648125,77.5 60.974375,76.828 60.974375,76 C60.974375,75.172 61.648125,74.5 62.4782813,74.5 L76.1297396,74.5 C76.9598958,74.5 77.6336458,75.172 77.6336458,76 C77.6336458,76.828 76.9598958,77.5 76.1297396,77.5 L76.1297396,77.5 Z" id="Shape" fill="#F0F0F0"></path>
                <path d="M76.1297396,113.312 L62.4782813,113.312 C61.648125,113.312 60.974375,112.64 60.974375,111.812 C60.974375,110.984 61.648125,110.312 62.4782813,110.312 L76.1297396,110.312 C76.9598958,110.312 77.6336458,110.984 77.6336458,111.812 C77.6336458,112.64 76.9598958,113.312 76.1297396,113.312 L76.1297396,113.312 Z" id="Shape" fill="#F0F0F0"></path>
                <path d="M76.1297396,95.258 L67.8201563,95.258 C66.99,95.258 66.31625,94.586 66.31625,93.758 C66.31625,92.93 66.99,92.258 67.8201563,92.258 L76.1297396,92.258 C76.9598958,92.258 77.6336458,92.93 77.6336458,93.758 C77.6336458,94.586 76.9598958,95.258 76.1297396,95.258 L76.1297396,95.258 Z" id="Shape" fill="#F0F0F0"></path>
                <path d="M76.1297396,60.036 L67.8201563,60.036 C66.99,60.036 66.31625,59.364 66.31625,58.536 C66.31625,57.708 66.99,57.036 67.8201563,57.036 L76.1297396,57.036 C76.9598958,57.036 77.6336458,57.708 77.6336458,58.536 C77.6336458,59.364 76.9598958,60.036 76.1297396,60.036 L76.1297396,60.036 Z" id="Shape" fill="#F0F0F0"></path>
            </g>
        </g>
    </g>
</svg>