<?xml version="1.0" encoding="UTF-8" standalone="no"?>
<svg width="122px" height="40px" viewBox="0 0 122 40" version="1.1" xmlns="http://www.w3.org/2000/svg" xmlns:xlink="http://www.w3.org/1999/xlink" xmlns:sketch="http://www.bohemiancoding.com/sketch/ns">
    <!-- Generator: Sketch 3.3.2 (12043) - http://www.bohemiancoding.com/sketch -->
    <title>behat</title>
    <desc>Created with Sketch.</desc>
    <defs>
        <linearGradient x1="50%" y1="0%" x2="50%" y2="100%" id="linearGradient-1">
            <stop stop-color="#808080" offset="0%"></stop>
            <stop stop-color="#313132" offset="100%"></stop>
        </linearGradient>
    </defs>
    <g id="Page-1" stroke="none" stroke-width="1" fill="none" fill-rule="evenodd" sketch:type="MSPage">
        <path d="M12.328,5.928 L5.256,39 L12.744,39 L17.008,19.084 C17.944,18.98 18.984,18.928 19.4,18.928 C23.196,18.928 24.34,21.892 24.34,25.532 C24.34,29.484 22.988,34.892 19.192,34.892 C17.996,34.892 17.008,34.372 15.708,33.02 C15.24,34.216 15.032,35.204 15.032,36.036 C15.032,39.208 17.944,39.884 20.18,39.884 C28.864,39.884 31.568,29.9 31.568,24.908 C31.568,21.008 29.852,17.42 25.432,16.536 C28.812,14.612 30.632,11.336 30.632,8.268 C30.632,4.004 27.2,0 19.556,0 C9.728,0 0.68,6.604 0.68,13.78 C0.68,17.264 2.812,18.564 6.244,18.564 C6.192,18.096 5.516,17.68 5.516,15.028 C5.516,6.448 12.432,2.392 18.516,2.392 C23.456,2.392 25.38,5.044 25.38,8.008 C25.38,11.908 22.052,16.432 17.892,16.432 L17.58,16.432 L20.024,4.888 L12.328,5.928 Z M40.512,28.496 C46.752,28.132 52.472,23.504 52.472,17.524 C52.472,14.924 51.38,12.532 46.752,12.532 C36.092,12.532 32.712,25.064 32.712,31.044 C32.712,36.92 35.936,39.312 40.824,39.312 C47.74,39.312 50.0543004,35.9558529 52.6855508,32.9793476 L53.356,29.692 C50.756,32.656 48.26,34.944 44.152,34.944 C41.656,34.944 40.408,34.112 40.408,30.576 C40.408,29.952 40.46,29.224 40.512,28.496 Z M48.468,17.42 C48.468,21.736 44.932,25.74 40.928,26 C41.968,20.852 44.516,15.288 47.168,15.288 C48.156,15.288 48.468,16.12 48.468,17.42 L48.468,17.42 Z M65.992,33.436 C65.992,36.4 67.604,39.312 72.128,39.312 C74.884,39.312 76.8680009,39.0000015 79.3680009,34.2679993 L79.0108804,32.4714046 C76.5417489,34.4420715 76.2425546,34.2679955 75.248,34.268 C73.688,34.2680071 73.168,33.384 73.168,32.084 C73.168,29.172 75.664,22.88 75.664,18.668 C75.664,14.508 73.22,12.792 69.892,12.792 C68.28,12.792 65.992,13.208 63.808,15.704 L66.616,2.6 L58.92,3.64 L51.38,39 L58.868,39 L62.456,22.1 C62.768,20.696 64.38,17.524 66.408,17.524 C67.708,17.524 68.332,18.46 68.332,20.176 C68.332,23.504 65.992,29.9 65.992,33.436 Z M97.088,13 L96.516,15.756 L96.516,15.392 C96.516,13.884 95.268,12.74 92.304,12.74 C83.256,12.74 78.94,23.92 78.94,30.94 C78.94,37.128 82.32,39.312 85.856,39.312 C89.548,39.312 91.992,36.92 93.604,34.528 C93.916,37.648 95.788,39.312 98.7,39.312 C101.508,39.312 104.195602,38.5055735 106.708217,34.0834944 L107.209838,29.5981448 C107.022671,30.2220357 106.785649,30.8333658 106.505455,31.4022398 C105.617969,33.2040885 104.297365,34.58 102.756,34.58 C101.3,34.58 100.624,33.8 100.624,32.344 C100.624,31.876 100.676,31.356 100.832,30.68 L104.576,13 L97.088,13 Z M93.916,15.964 C95.58,15.964 96.048,17.316 96.048,17.94 L93.552,29.692 C92.928,32.708 90.744,34.268 89.236,34.268 C88.3,34.268 86.636,34.216 86.636,30.212 C86.636,25.324 89.496,15.964 93.916,15.964 L93.916,15.964 Z M117.784,15.08 L120.904,15.08 L121.32,13 L118.2,13 C119.188,8.32 119.968,4.784 119.968,4.784 L112.272,5.824 L110.712,13 L108.996,13 L108.58,15.08 L110.296,15.08 L106.968,30.68 C106.76,31.616 106.656,32.552 106.656,33.436 C106.656,36.764 108.216,39.312 111.856,39.312 C113.624,39.312 115.912,38.688 117.368,34.216 C116.952,34.372 116.38,34.372 116.016,34.372 C114.612,34.372 114.196,33.592 114.196,32.5 C114.196,31.928 114.3,31.304 114.456,30.68 L117.784,15.08 Z" id="behat" fill="url(#linearGradient-1)" sketch:type="MSShapeGroup"></path>
    </g>
</svg>