<?xml version="1.0" encoding="UTF-8" standalone="no"?>
<svg width="174px" height="44px" viewBox="0 0 174 44" version="1.1" xmlns="http://www.w3.org/2000/svg" xmlns:xlink="http://www.w3.org/1999/xlink" xmlns:sketch="http://www.bohemiancoding.com/sketch/ns">
    <!-- Generator: Sketch 3.3.2 (12043) - http://www.bohemiancoding.com/sketch -->
    <title>367768-bootstrap</title>
    <desc>Created with Sketch.</desc>
    <defs>
        <path id="path-1" d="M0.0115283843,0.0280524017 L173.672803,0.0280524017 L173.672803,43.9884716 L0.0115283843,43.9884716"></path>
    </defs>
    <g id="Page-1" stroke="none" stroke-width="1" fill="none" fill-rule="evenodd" sketch:type="MSPage">
        <g id="367768-bootstrap" sketch:type="MSLayerGroup">
            <g id="Group-3">
                <mask id="mask-2" sketch:name="Clip 2" fill="white">
                    <use xlink:href="#path-1"></use>
                </mask>
                <g id="Clip-2"></g>
                <path d="M43.9719476,36.671214 C43.9719476,40.7021135 40.6740611,44 36.6431616,44 L7.32859389,44 C3.29788646,44 0,40.7021135 0,36.671214 L0,7.35664629 C0,3.32593886 3.29788646,0.0280524017 7.32859389,0.0280524017 L36.6431616,0.0280524017 C40.6740611,0.0280524017 43.9719476,3.32593886 43.9719476,7.35664629 L43.9719476,36.671214" id="Fill-1" fill="#4D3F71" sketch:type="MSShapeGroup" mask="url(#mask-2)"></path>
            </g>
            <path d="M16.4390917,31.5699039 L24.3784978,31.5699039 C25.7436507,31.5699039 26.806952,31.2179039 27.5543755,30.5066026 C28.3087162,29.8024105 28.6895371,28.796559 28.6895371,27.5032664 C28.6895371,26.2314934 28.3158253,25.2615721 27.5543755,24.5717904 C26.7927336,23.8820087 25.7436507,23.5515284 24.3784978,23.5515284 L16.4390917,23.5515284 L16.4390917,31.5699039 L16.4390917,31.5699039 Z M16.4390917,20.3255022 L23.7678777,20.3255022 C24.8455895,20.3255022 25.7436507,20.0238428 26.4622533,19.4059214 C27.1806638,18.788 27.5399651,17.9114585 27.5399651,16.7618865 C27.5399651,15.4685939 27.2165939,14.5561223 26.5698515,14.0315808 C25.9233013,13.5070393 24.98931,13.2411179 23.7678777,13.2411179 L16.4390917,13.2411179 L16.4390917,20.3255022 L16.4390917,20.3255022 Z M11.9485939,9.58412227 L24.4144279,9.58412227 C26.7135721,9.58412227 28.5602271,10.1084716 29.9468996,11.1646638 C31.3335721,12.2208559 32.0304629,13.8086987 32.0304629,15.9427948 C32.0304629,17.2360873 31.714393,18.3424279 31.0820611,19.2622009 C30.4497293,20.1817817 29.544559,20.9003843 28.3661659,21.403214 L28.3661659,21.4750742 C29.9468996,21.8128559 31.1468122,22.5600873 31.9586026,23.7167686 C32.7705852,24.8807511 33.1800349,26.3321747 33.1800349,28.0852576 C33.1800349,29.0911092 33.0003843,30.0324017 32.6412751,30.9018341 C32.2819738,31.7783755 31.7215022,32.5327162 30.9527511,33.165048 C30.184,33.7973799 29.2067773,34.3002096 28.0068646,34.6739214 C26.806952,35.047441 25.3843493,35.234393 23.7319476,35.234393 L11.9485939,35.234393 L11.9485939,9.58412227 L11.9485939,9.58412227 Z" id="Fill-4" fill="#FFFFFF" sketch:type="MSShapeGroup"></path>
            <path d="M56.3063581,29.2840175 L61.4428297,29.2840175 C62.324559,29.2840175 62.9438253,29.2511616 63.3004367,29.1854498 C63.9289258,29.0728559 64.4544279,28.8853275 64.8767511,28.6226725 C65.2988821,28.3600175 65.6456943,27.9776594 65.9179563,27.4757904 C66.1900262,26.9737293 66.3260611,26.3944279 66.3260611,25.7376943 C66.3260611,24.968559 66.1291179,24.2999127 65.7350393,23.7321397 C65.3409607,23.1647511 64.7945153,22.7660611 64.0955109,22.5360699 C63.3965066,22.3064629 62.3904629,22.1913712 61.0769956,22.1913712 L56.3063581,22.1913712 L56.3063581,29.2840175 L56.3063581,29.2840175 Z M56.3063581,19.7567686 L60.7674585,19.7567686 C61.9777467,19.7567686 62.8452576,19.6772227 63.370952,19.5175546 C64.0651528,19.3113886 64.5883493,18.9686114 64.9399651,18.4901834 C65.2919651,18.0117555 65.4677729,17.4115109 65.4677729,16.6888734 C65.4677729,16.0042795 65.3034934,15.4011528 64.9751266,14.8804541 C64.6465677,14.3597555 64.1777467,14.0035284 63.5678952,13.8110044 C62.9578515,13.6188646 61.9118428,13.5226026 60.4296769,13.5226026 L56.3063581,13.5226026 L56.3063581,19.7567686 L56.3063581,19.7567686 Z M53.5762445,31.7186201 L53.5762445,11.088 L61.3162096,11.088 C62.8923319,11.088 64.1564192,11.2968559 65.1088559,11.7141834 C66.0611004,12.1317031 66.8067948,12.7744105 67.3465153,13.6421135 C67.8858515,14.5100087 68.1556157,15.4176769 68.1556157,16.36531 C68.1556157,17.2472314 67.9164017,18.0774672 67.4379738,18.8562096 C66.9593537,19.634952 66.2369083,20.263441 65.2706376,20.741869 C66.5182009,21.1077031 67.4777467,21.7317729 68.1485066,22.6135022 C68.8192664,23.4954236 69.1547424,24.536821 69.1547424,25.7376943 C69.1547424,26.7039651 68.9508821,27.6022183 68.5425852,28.4326463 C68.1346725,29.2628821 67.6301135,29.9032838 67.029869,30.3534672 C66.4294323,30.8038428 65.6764367,31.1441223 64.7710742,31.3737293 C63.8657118,31.6037205 62.7562969,31.7186201 61.4428297,31.7186201 L53.5762445,31.7186201 L53.5762445,31.7186201 Z" id="Fill-5" fill="#4D3F71" sketch:type="MSShapeGroup"></path>
            <path d="M74.2491354,24.2459214 C74.2491354,26.1598253 74.6664629,27.5929956 75.5015022,28.5452402 C76.3365415,29.4974847 77.3873537,29.973607 78.6539389,29.973607 C79.9111092,29.973607 80.9569258,29.495179 81.7921572,28.538131 C82.6270044,27.5812751 83.044524,26.1225502 83.044524,24.1615721 C83.044524,22.3133799 82.6246987,20.9132576 81.785048,19.960821 C80.9452052,19.0085764 79.9015022,18.5324541 78.6539389,18.5324541 C77.3873537,18.5324541 76.3365415,19.0062707 75.5015022,19.9537118 C74.6664629,20.9015371 74.2491354,22.3320175 74.2491354,24.2459214 L74.2491354,24.2459214 Z M71.6456419,24.2459214 C71.6456419,21.4785328 72.4147773,19.4284017 73.9536245,18.0961048 C75.2388472,16.9893799 76.8053624,16.4356332 78.6539389,16.4356332 C80.7084891,16.4356332 82.3877904,17.1088908 83.6918428,18.4550218 C84.9957031,19.801345 85.6480175,21.6614498 85.6480175,24.034952 C85.6480175,25.9580786 85.3596157,27.4709869 84.7824279,28.5734847 C84.2056245,29.6757904 83.3657817,30.5317729 82.2636681,31.1416245 C81.1609782,31.751476 79.9577991,32.0564017 78.6539389,32.0564017 C76.5617293,32.0564017 74.8705153,31.3856419 73.5804891,30.0439301 C72.2904629,28.7024105 71.6456419,26.769869 71.6456419,24.2459214 L71.6456419,24.2459214 Z" id="Fill-6" fill="#4D3F71" sketch:type="MSShapeGroup"></path>
            <path d="M90.2780087,24.2459214 C90.2780087,26.1598253 90.6953362,27.5929956 91.5303755,28.5452402 C92.3654148,29.4974847 93.4162271,29.973607 94.6826201,29.973607 C95.9397904,29.973607 96.985607,29.495179 97.8208384,28.538131 C98.6558777,27.5812751 99.0733974,26.1225502 99.0733974,24.1615721 C99.0733974,22.3133799 98.6533799,20.9132576 97.8139214,19.960821 C96.9740786,19.0085764 95.9301834,18.5324541 94.6826201,18.5324541 C93.4162271,18.5324541 92.3654148,19.0062707 91.5303755,19.9537118 C90.6953362,20.9015371 90.2780087,22.3320175 90.2780087,24.2459214 L90.2780087,24.2459214 Z M87.6745153,24.2459214 C87.6745153,21.4785328 88.4436507,19.4284017 89.9824978,18.0961048 C91.2677205,16.9893799 92.8342358,16.4356332 94.6826201,16.4356332 C96.7371703,16.4356332 98.4166638,17.1088908 99.7207162,18.4550218 C101.024576,19.801345 101.676699,21.6614498 101.676699,24.034952 C101.676699,25.9580786 101.388297,27.4709869 100.811109,28.5734847 C100.234306,29.6757904 99.3944629,30.5317729 98.2923493,31.1416245 C97.1898515,31.751476 95.9864803,32.0564017 94.6826201,32.0564017 C92.5906026,32.0564017 90.8993886,31.3856419 89.6093624,30.0439301 C88.3193362,28.7024105 87.6745153,26.769869 87.6745153,24.2459214 L87.6745153,24.2459214 Z" id="Fill-7" fill="#4D3F71" sketch:type="MSShapeGroup"></path>
            <path d="M110.176769,29.4529083 L110.542603,31.6903755 C109.829572,31.8404367 109.191668,31.9155633 108.628699,31.9155633 C107.709118,31.9155633 106.996279,31.7699214 106.489607,31.4794061 C105.982934,31.1886987 105.626323,30.8063406 105.420157,30.3323319 C105.213799,29.8587074 105.110428,28.8618865 105.110428,27.3420611 L105.110428,18.7434236 L103.252821,18.7434236 L103.252821,16.7734148 L105.110428,16.7734148 L105.110428,13.0722271 L107.629572,11.5524017 L107.629572,16.7734148 L110.176769,16.7734148 L110.176769,18.7434236 L107.629572,18.7434236 L107.629572,27.4827074 C107.629572,28.205345 107.673956,28.6697467 107.763301,28.8759127 C107.852262,29.0822707 107.997712,29.2467424 108.199459,29.3683668 C108.401013,29.4903755 108.689607,29.551476 109.064856,29.551476 C109.346341,29.551476 109.716978,29.5186201 110.176769,29.4529083" id="Fill-8" fill="#4D3F71" sketch:type="MSShapeGroup"></path>
            <path d="M111.640297,27.2575197 L114.145223,26.863441 C114.285869,27.8675633 114.67745,28.6366987 115.320349,29.1714236 C115.962865,29.7061485 116.86131,29.973607 118.015301,29.973607 C119.178323,29.973607 120.041607,29.7366987 120.604576,29.2628821 C121.167546,28.7892576 121.449031,28.2333974 121.449031,27.5953013 C121.449031,27.0231092 121.200402,26.5729258 120.703144,26.2443668 C120.355948,26.019179 119.492856,25.7328908 118.113677,25.3858865 C116.25607,24.9166812 114.968349,24.5110742 114.2509,24.1684891 C113.532873,23.8262882 112.988734,23.3522795 112.61848,22.7470393 C112.247651,22.1419913 112.062428,21.4737293 112.062428,20.741869 C112.062428,20.0757205 112.214795,19.458952 112.519721,18.891179 C112.824646,18.3237904 113.239668,17.8522795 113.76517,17.4770306 C114.159249,17.1863231 114.696279,16.94 115.376646,16.7380611 C116.056629,16.5365066 116.785991,16.4356332 117.564926,16.4356332 C118.737555,16.4356332 119.767424,16.604524 120.653764,16.9421135 C121.540489,17.2798952 122.194725,17.7371878 122.617048,18.3141834 C123.039179,18.891179 123.329886,19.6631965 123.489555,20.6292751 L121.012681,20.9670568 C120.900087,20.1979214 120.574026,19.5972926 120.034498,19.1657467 C119.495162,18.734393 118.732943,18.5184279 117.747843,18.5184279 C116.584437,18.5184279 115.754201,18.7107598 115.256943,19.0954236 C114.759493,19.4802795 114.511057,19.9304629 114.511057,20.4463581 C114.511057,20.774917 114.614236,21.0704279 114.820786,21.3328908 C115.026952,21.6051528 115.350515,21.8303406 115.791668,22.0084541 C116.0451,22.1022183 116.790795,22.3179913 118.029328,22.6557729 C119.821223,23.1342009 121.071284,23.5259738 121.779511,23.8307074 C122.48793,24.1358253 123.04379,24.5790917 123.447284,25.1606987 C123.850585,25.7424978 124.052332,26.4647511 124.052332,27.3278428 C124.052332,28.1722969 123.806009,28.9673712 123.313747,29.7130655 C122.820908,30.4591441 122.110376,31.0359476 121.181572,31.4442445 C120.252769,31.8521572 119.201956,32.0564017 118.029328,32.0564017 C116.087179,32.0564017 114.607127,31.6531004 113.58917,30.8461135 C112.571406,30.0393188 111.921782,28.8430568 111.640297,27.2575197" id="Fill-9" fill="#4D3F71" sketch:type="MSShapeGroup"></path>
            <path d="M132.59448,29.4529083 L132.960507,31.6903755 C132.247476,31.8404367 131.60938,31.9155633 131.046603,31.9155633 C130.127022,31.9155633 129.414183,31.7699214 128.907511,31.4794061 C128.400838,31.1886987 128.044227,30.8063406 127.838061,30.3323319 C127.631511,29.8587074 127.528332,28.8618865 127.528332,27.3420611 L127.528332,18.7434236 L125.670725,18.7434236 L125.670725,16.7734148 L127.528332,16.7734148 L127.528332,13.0722271 L130.047476,11.5524017 L130.047476,16.7734148 L132.59448,16.7734148 L132.59448,18.7434236 L130.047476,18.7434236 L130.047476,27.4827074 C130.047476,28.205345 130.09186,28.6697467 130.181205,28.8759127 C130.270166,29.0822707 130.415616,29.2467424 130.61717,29.3683668 C130.818917,29.4903755 131.107511,29.551476 131.48276,29.551476 C131.764245,29.551476 132.134882,29.5186201 132.59448,29.4529083" id="Fill-10" fill="#4D3F71" sketch:type="MSShapeGroup"></path>
            <path d="M135.043301,31.7186201 L135.043301,16.7734148 L137.323039,16.7734148 L137.323039,19.0391266 C137.904646,17.9788996 138.441869,17.2798952 138.934323,16.9421135 C139.426969,16.604524 139.968611,16.4356332 140.559633,16.4356332 C141.41331,16.4356332 142.281205,16.7078952 143.163127,17.2518428 L142.29062,19.6019039 C141.671546,19.2360699 141.052279,19.0531528 140.433013,19.0531528 C139.879266,19.0531528 139.382393,19.219738 138.941432,19.552524 C138.500279,19.8858865 138.186131,20.3477904 137.99841,20.9388122 C137.717118,21.8395633 137.576279,22.8246638 137.576279,23.8941135 L137.576279,31.7186201 L135.043301,31.7186201" id="Fill-11" fill="#4D3F71" sketch:type="MSShapeGroup"></path>
            <path d="M154.210201,24.217869 C153.29062,24.5931179 151.911633,24.912262 150.072856,25.1747249 C149.031459,25.324786 148.294795,25.4936769 147.863441,25.6813974 C147.431895,25.8691179 147.098725,26.1434934 146.864314,26.504524 C146.629712,26.8659389 146.512507,27.2669345 146.512507,27.7078952 C146.512507,28.3832664 146.768052,28.9462358 147.279528,29.3966114 C147.79062,29.8469869 148.539004,30.0719825 149.524105,30.0719825 C150.49979,30.0719825 151.367493,29.8587074 152.127598,29.4315808 C152.887511,29.0050306 153.445485,28.4209258 153.802096,27.6796507 C154.074166,27.1076507 154.210201,26.2631965 154.210201,25.1466725 L154.210201,24.217869 L154.210201,24.217869 Z M154.421362,29.8750393 C153.483144,30.6724192 152.580087,31.2353886 151.712192,31.5637555 C150.844489,31.8921223 149.913188,32.0564017 148.918865,32.0564017 C147.277031,32.0564017 146.015057,31.655214 145.133328,30.8532227 C144.251406,30.0508472 143.810445,29.0259738 143.810445,27.7782183 C143.810445,27.0463581 143.977031,26.3779039 144.310009,25.7728559 C144.642987,25.1676157 145.079336,24.6822707 145.619057,24.3162445 C146.158201,23.9504105 146.765747,23.6739214 147.44131,23.4860087 C147.938568,23.3547773 148.688873,23.2279651 149.692996,23.1061485 C151.738131,22.862131 153.24393,22.5712314 154.210201,22.2336419 C154.219424,21.8866376 154.224419,21.6660611 154.224419,21.5721048 C154.224419,20.5401223 153.985205,19.8130655 153.506585,19.3909345 C152.859266,18.8187424 151.897415,18.5324541 150.621799,18.5324541 C149.430148,18.5324541 148.550533,18.74131 147.983144,19.1586376 C147.415371,19.5763493 146.995738,20.3149345 146.723668,21.3751616 L144.246795,21.0373799 C144.471983,19.9771528 144.84262,19.1211703 145.358515,18.469048 C145.87441,17.8171179 146.620105,17.3150568 147.596175,16.9632489 C148.57186,16.611441 149.702218,16.4356332 150.987633,16.4356332 C152.263441,16.4356332 153.300227,16.5856943 154.097607,16.8860087 C154.894987,17.1863231 155.48159,17.5638777 155.856838,18.0186725 C156.231895,18.4738515 156.494742,19.0485415 156.644803,19.7427424 C156.729345,20.1742882 156.771424,20.9530306 156.771424,22.0787773 L156.771424,25.4562096 C156.771424,27.8112664 156.825415,29.3005415 156.933397,29.9244192 C157.041188,30.5482969 157.254655,31.1464279 157.573607,31.7186201 L154.928035,31.7186201 C154.66538,31.1931179 154.496489,30.578655 154.421362,29.8750393 L154.421362,29.8750393 Z" id="Fill-12" fill="#4D3F71" sketch:type="MSShapeGroup"></path>
            <path d="M162.991755,24.3304629 C162.991755,26.2535895 163.380838,27.6750393 164.159773,28.5944279 C164.938323,29.5140087 165.881345,29.973607 166.988262,29.973607 C168.114201,29.973607 169.078166,29.4974847 169.880157,28.5452402 C170.682533,27.5929956 171.083528,26.1175546 171.083528,24.1193013 C171.083528,22.2148122 170.691755,20.7889432 169.908402,19.8411179 C169.124856,18.8936769 168.189135,18.4198603 167.100856,18.4198603 C166.021991,18.4198603 165.067249,18.9242271 164.237205,19.9325764 C163.406777,20.94131 162.991755,22.4073362 162.991755,24.3304629 L162.991755,24.3304629 Z M160.697799,37.4461135 L160.697799,16.7734148 L163.005782,16.7734148 L163.005782,18.7153712 C163.549729,17.9554585 164.164384,17.3853799 164.849362,17.0055197 C165.533956,16.6254672 166.364192,16.4356332 167.34007,16.4356332 C168.615878,16.4356332 169.741624,16.7641921 170.717694,17.4207336 C171.69338,18.0774672 172.429659,19.0037729 172.927109,20.2000349 C173.424175,21.3961048 173.672803,22.7072664 173.672803,24.1333275 C173.672803,25.6625677 173.398428,27.0392489 172.849677,28.2637555 C172.300734,29.4878777 171.503162,30.4262882 170.457345,31.0784105 C169.411144,31.7301485 168.311144,32.0564017 167.157153,32.0564017 C166.312891,32.0564017 165.555092,31.8780961 164.884524,31.5214847 C164.213572,31.1650655 163.662323,30.71469 163.230969,30.1705502 L163.230969,37.4461135 L160.697799,37.4461135 L160.697799,37.4461135 Z" id="Fill-13" fill="#4D3F71" sketch:type="MSShapeGroup"></path>
        </g>
    </g>
</svg>