<?xml version="1.0" encoding="UTF-8" standalone="no"?>
<svg width="223px" height="42px" viewBox="0 0 223 42" version="1.1" xmlns="http://www.w3.org/2000/svg" xmlns:xlink="http://www.w3.org/1999/xlink" xmlns:sketch="http://www.bohemiancoding.com/sketch/ns">
    <!-- Generator: Sketch 3.3.2 (12043) - http://www.bohemiancoding.com/sketch -->
    <title>Group</title>
    <desc>Created with Sketch.</desc>
    <defs>
        <linearGradient x1="0%" y1="50%" x2="103.823788%" y2="50%" id="linearGradient-1">
            <stop stop-color="#4EA4BF" offset="0%"></stop>
            <stop stop-color="#377E89" offset="100%"></stop>
        </linearGradient>
        <linearGradient x1="80.8959961%" y1="-5.34474206%" x2="28.8838704%" y2="100%" id="linearGradient-2">
            <stop stop-color="#4EA4BF" offset="0%"></stop>
            <stop stop-color="#377E89" offset="100%"></stop>
        </linearGradient>
    </defs>
    <g id="Page-1" stroke="none" stroke-width="1" fill="none" fill-rule="evenodd" sketch:type="MSPage">
        <g id="Group" sketch:type="MSLayerGroup">
            <path d="M35.6681668,34.9133212 C31.9010478,38.8788895 26.5770989,41.3513514 20.6756757,41.3513514 C9.25681531,41.3513514 -1.77635684e-14,32.094536 -1.77635684e-14,20.6756757 C-1.77635684e-14,9.25681531 9.25681531,0 20.6756757,0 C25.6323443,0 30.1816336,1.74419823 33.7432607,4.6523119 L31.2716687,7.79797444 C28.4338491,5.57914574 24.8612197,4.25675676 20.9797297,4.25675676 C11.7438868,4.25675676 4.25675676,11.7438868 4.25675676,20.9797297 C4.25675676,30.2155727 11.7438868,37.7027027 20.9797297,37.7027027 C25.7293509,37.7027027 30.0165022,35.7226341 33.0607439,32.5429367 L35.6681668,34.9133212 Z" id="Oval-1" fill="url(#linearGradient-1)" sketch:type="MSShapeGroup"></path>
            <path d="M31.0437546,30.9472462 C28.398938,33.6167568 24.7304062,35.2702703 20.6756757,35.2702703 C12.6153037,35.2702703 6.08108108,28.7360477 6.08108108,20.6756757 C6.08108108,12.6153037 12.6153037,6.08108108 20.6756757,6.08108108 C24.3535103,6.08108108 27.7136054,7.44148584 30.2802074,9.68654187 L28.6766401,11.6030004 C26.5361404,9.68204753 23.7065998,8.51351351 20.6041335,8.51351351 C13.9266685,8.51351351 8.51351351,13.9266685 8.51351351,20.6041335 C8.51351351,27.2815986 13.9266685,32.6947536 20.6041335,32.6947536 C23.8775186,32.6947536 26.8470779,31.393921 29.0240651,29.2810023 L31.0437546,30.9472462 Z" id="Oval-1-Copy-2" fill="url(#linearGradient-1)" sketch:type="MSShapeGroup"></path>
            <path d="M15.8108108,13.3783784 L23.7162162,27.972973 L54.7297297,2.43243243 L24.9324324,20.0675676 L15.8108108,13.3783784 Z" id="Path-3" fill="url(#linearGradient-2)" sketch:type="MSShapeGroup"></path>
            <path d="M78.3243243,13.1010811 C77.9545927,11.3302614 77.2783833,9.97297769 76.2956757,9.02918919 C75.3129681,8.08540069 74.0140621,7.61351351 72.3989189,7.61351351 C71.5037793,7.61351351 70.6670309,7.759458 69.8886486,8.05135135 C69.1102664,8.3432447 68.4291921,8.84432077 67.8454054,9.55459459 C67.2616187,10.2648684 66.804326,11.2086428 66.4735135,12.3859459 C66.142701,13.5632491 65.9772973,15.0372884 65.9772973,16.8081081 C65.9772973,17.9173028 66.0940529,18.9924272 66.3275676,20.0335135 C66.5610822,21.0745998 66.9356731,21.9940501 67.4513514,22.7918919 C67.9670296,23.5897337 68.6286446,24.2270246 69.4362162,24.7037838 C70.2437878,25.1805429 71.2313455,25.4189189 72.3989189,25.4189189 C73.7416283,25.4189189 74.9870213,25.0637873 76.1351351,24.3535135 C77.283249,23.6432397 78.2075641,22.6070338 78.9081081,21.2448649 L79.9297297,22.032973 C79.0151306,23.6481162 77.8962228,24.8351313 76.572973,25.5940541 C75.2497231,26.3529768 73.5664967,26.7324324 71.5232432,26.7324324 C69.9859383,26.7324324 68.6189249,26.479462 67.4221622,25.9735135 C66.2253994,25.467565 65.2183825,24.7670315 64.4010811,23.8718919 C63.5837797,22.9767523 62.9610832,21.925952 62.532973,20.7194595 C62.1048627,19.5129669 61.8908108,18.2091962 61.8908108,16.8081081 C61.8908108,15.3291818 62.1340516,13.9524388 62.6205405,12.6778378 C63.1070295,11.4032369 63.7783741,10.2940588 64.6345946,9.35027027 C65.4908151,8.40648177 66.5075617,7.66216489 67.6848649,7.1172973 C68.862168,6.57242971 70.1416147,6.3 71.5232432,6.3 C73.3524416,6.3 74.8264809,6.53837599 75.9454054,7.01513514 C77.0643299,7.49189428 77.8962135,8.04161851 78.4410811,8.66432432 C78.8302722,9.1702728 79.0540538,9.82215817 79.1124324,10.62 C79.1708111,11.4178418 79.2,12.2448606 79.2,13.1010811 L78.3243243,13.1010811 Z M91.7513514,19.2891892 C91.7513514,18.4524282 91.6881087,17.6789225 91.5616216,16.9686486 C91.4351345,16.2583748 91.2454067,15.6405432 90.9924324,15.1151351 C90.7394582,14.5897271 90.4183803,14.1810825 90.0291892,13.8891892 C89.6399981,13.5972958 89.192435,13.4513514 88.6864865,13.4513514 C88.180538,13.4513514 87.7329749,13.5972958 87.3437838,13.8891892 C86.9545926,14.1810825 86.6335148,14.5897271 86.3805405,15.1151351 C86.1275663,15.6405432 85.9378385,16.2583748 85.8113514,16.9686486 C85.6848642,17.6789225 85.6216216,18.4524282 85.6216216,19.2891892 C85.6216216,20.1259501 85.6848642,20.8994559 85.8113514,21.6097297 C85.9378385,22.3200036 86.1275663,22.9378352 86.3805405,23.4632432 C86.6335148,23.9886513 86.9545926,24.3972958 87.3437838,24.6891892 C87.7329749,24.9810825 88.180538,25.127027 88.6864865,25.127027 C89.192435,25.127027 89.6399981,24.9810825 90.0291892,24.6891892 C90.4183803,24.3972958 90.7394582,23.9886513 90.9924324,23.4632432 C91.2454067,22.9378352 91.4351345,22.3200036 91.5616216,21.6097297 C91.6881087,20.8994559 91.7513514,20.1259501 91.7513514,19.2891892 L91.7513514,19.2891892 Z M81.6810811,19.2891892 C81.6810811,18.2967518 81.84162,17.3627071 82.1627027,16.487027 C82.4837854,15.611347 82.9459429,14.8524356 83.5491892,14.2102703 C84.1524354,13.5681049 84.8870227,13.062164 85.752973,12.6924324 C86.6189232,12.3227009 87.5967513,12.1378378 88.6864865,12.1378378 C89.7762217,12.1378378 90.7540497,12.3227009 91.62,12.6924324 C92.4859503,13.062164 93.2205375,13.5681049 93.8237838,14.2102703 C94.42703,14.8524356 94.8891876,15.611347 95.2102703,16.487027 C95.531353,17.3627071 95.6918919,18.2967518 95.6918919,19.2891892 C95.6918919,20.2816266 95.531353,21.2156713 95.2102703,22.0913514 C94.8891876,22.9670314 94.42703,23.7259427 93.8237838,24.3681081 C93.2205375,25.0102735 92.4859503,25.5162144 91.62,25.8859459 C90.7540497,26.2556775 89.7762217,26.4405405 88.6864865,26.4405405 C87.5967513,26.4405405 86.6189232,26.2556775 85.752973,25.8859459 C84.8870227,25.5162144 84.1524354,25.0102735 83.5491892,24.3681081 C82.9459429,23.7259427 82.4837854,22.9670314 82.1627027,22.0913514 C81.84162,21.2156713 81.6810811,20.2816266 81.6810811,19.2891892 L81.6810811,19.2891892 Z M107.163243,14.327027 C106.949188,14.1713506 106.715677,14.0254061 106.462703,13.8891892 C106.248648,13.7918914 105.990812,13.6945951 105.689189,13.5972973 C105.387566,13.4999995 105.051894,13.4513514 104.682162,13.4513514 C104.137295,13.4513514 103.680002,13.5972958 103.31027,13.8891892 C102.940539,14.1810825 102.63892,14.5897271 102.405405,15.1151351 C102.171891,15.6405432 102.006487,16.2583748 101.909189,16.9686486 C101.811891,17.6789225 101.763243,18.4524282 101.763243,19.2891892 C101.763243,20.1259501 101.811891,20.8994559 101.909189,21.6097297 C102.006487,22.3200036 102.162161,22.9378352 102.376216,23.4632432 C102.590271,23.9886513 102.877295,24.3972958 103.237297,24.6891892 C103.597299,24.9810825 104.030268,25.127027 104.536216,25.127027 C104.983786,25.127027 105.368107,25.0297307 105.689189,24.8351351 C106.010272,24.6405396 106.277837,24.4264877 106.491892,24.192973 C106.744866,23.9205392 106.968648,23.5994613 107.163243,23.2297297 L107.163243,14.327027 Z M107.163243,10.6783784 C107.163243,9.80269832 107.041623,9.09729997 106.798378,8.56216216 C106.555134,8.02702435 105.99568,7.75945946 105.12,7.75945946 L104.828108,7.75945946 L104.828108,6.88378378 L108.330811,6.88378378 C108.836759,6.88378378 109.259998,6.94702639 109.600541,7.07351351 C109.941083,7.20000063 110.213512,7.40918773 110.417838,7.70108108 C110.622163,7.99297443 110.763243,8.38215973 110.841081,8.86864865 C110.918919,9.35513757 110.957838,9.95837478 110.957838,10.6783784 L110.957838,26.1486486 L108.476757,26.1486486 L107.455135,24.8351351 L107.309189,24.8351351 C107.095134,25.146488 106.822704,25.4189178 106.491892,25.6524324 C106.219458,25.8664876 105.874056,26.0513506 105.455676,26.207027 C105.037295,26.3627035 104.536219,26.4405405 103.952432,26.4405405 C102.921076,26.4405405 102.02595,26.2556775 101.267027,25.8859459 C100.508104,25.5162144 99.8708134,25.0102735 99.3551351,24.3681081 C98.8394569,23.7259427 98.4551364,22.9670314 98.2021622,22.0913514 C97.9491879,21.2156713 97.8227027,20.2816266 97.8227027,19.2891892 C97.8227027,18.2967518 97.9491879,17.3627071 98.2021622,16.487027 C98.4551364,15.611347 98.8443217,14.8524356 99.3697297,14.2102703 C99.8951378,13.5681049 100.551888,13.062164 101.34,12.6924324 C102.128112,12.3227009 103.047562,12.1378378 104.098378,12.1378378 C104.565408,12.1378378 104.988647,12.186486 105.368108,12.2837838 C105.747569,12.3810816 106.073512,12.4783779 106.345946,12.5756757 C106.657299,12.7118926 106.929729,12.8578371 107.163243,13.0135135 L107.163243,10.6783784 Z M120.940541,25.127027 C121.952437,25.127027 122.774591,24.8935158 123.407027,24.4264865 C124.039463,23.9594571 124.608646,23.3854088 125.114595,22.7043243 L126.019459,23.3756757 C125.805404,23.7064881 125.547569,24.0518901 125.245946,24.4118919 C124.944323,24.7718937 124.574597,25.1027012 124.136757,25.4043243 C123.698917,25.7059475 123.183246,25.9540531 122.58973,26.1486486 C121.996213,26.3432442 121.300545,26.4405405 120.502703,26.4405405 C119.471346,26.4405405 118.542166,26.2605423 117.715135,25.9005405 C116.888104,25.5405387 116.182706,25.0394627 115.598919,24.3972973 C115.015132,23.7551319 114.567569,23.0010854 114.256216,22.1351351 C113.944863,21.2691849 113.789189,20.3205457 113.789189,19.2891892 C113.789189,18.1216158 113.954593,17.0902747 114.285405,16.1951351 C114.616218,15.2999955 115.068646,14.5556786 115.642703,13.9621622 C116.21676,13.3686457 116.892969,12.9162178 117.671351,12.6048649 C118.449734,12.293512 119.296212,12.1378378 120.210811,12.1378378 C121.12541,12.1378378 121.971888,12.2789175 122.75027,12.5610811 C123.528653,12.8432447 124.204862,13.2372948 124.778919,13.7432432 C125.352976,14.2491917 125.805404,14.8621586 126.136216,15.5821622 C126.467029,16.3021658 126.632432,17.0999956 126.632432,17.9756757 C126.632432,18.1897308 126.627568,18.4086475 126.617838,18.6324324 C126.608108,18.8562173 126.593514,19.0556748 126.574054,19.2308108 C126.554594,19.4448659 126.535135,19.6394586 126.515676,19.8145946 L117.72973,19.8145946 C117.72973,21.7410907 118.026484,23.1081041 118.62,23.9156757 C119.213516,24.7232473 119.987022,25.127027 120.940541,25.127027 L120.940541,25.127027 Z M122.691892,18.5010811 C122.691892,17.5281032 122.628649,16.7205438 122.502162,16.0783784 C122.375675,15.436213 122.205406,14.9205425 121.991351,14.5313514 C121.777296,14.1421602 121.519461,13.8648657 121.217838,13.6994595 C120.916215,13.5340532 120.580542,13.4513514 120.210811,13.4513514 C119.879998,13.4513514 119.563785,13.5340532 119.262162,13.6994595 C118.960539,13.8648657 118.697839,14.1421602 118.474054,14.5313514 C118.250269,14.9205425 118.070271,15.436213 117.934054,16.0783784 C117.797837,16.7205438 117.72973,17.5281032 117.72973,18.5010811 L122.691892,18.5010811 Z M136.060541,13.4513514 C135.029184,13.4513514 134.187571,13.9281033 133.535676,14.8816216 C132.883781,15.8351399 132.557838,17.3043144 132.557838,19.2891892 C132.557838,23.1811005 133.774042,25.127027 136.206486,25.127027 C137.218383,25.127027 138.040537,24.8935158 138.672973,24.4264865 C139.305409,23.9594571 139.874592,23.3854088 140.380541,22.7043243 L141.285405,23.3756757 C141.07135,23.7064881 140.813515,24.0518901 140.511892,24.4118919 C140.210269,24.7718937 139.835678,25.1027012 139.388108,25.4043243 C138.940538,25.7059475 138.410273,25.9540531 137.797297,26.1486486 C137.184321,26.3432442 136.459464,26.4405405 135.622703,26.4405405 C134.455129,26.4405405 133.433518,26.2508127 132.557838,25.8713514 C131.682158,25.49189 130.952435,24.9762195 130.368649,24.3243243 C129.784862,23.6724292 129.347028,22.9135178 129.055135,22.0475676 C128.763242,21.1816173 128.617297,20.262167 128.617297,19.2891892 C128.617297,18.3162114 128.763242,17.3967611 129.055135,16.5308108 C129.347028,15.6648605 129.784862,14.9059492 130.368649,14.2540541 C130.952435,13.6021589 131.682158,13.0864884 132.557838,12.707027 C133.433518,12.3275657 134.455129,12.1378378 135.622703,12.1378378 C136.731897,12.1378378 137.670807,12.2156749 138.439459,12.3713514 C139.208112,12.5270278 139.777295,12.7897279 140.147027,13.1594595 C140.516759,13.529191 140.730811,14.0254023 140.789189,14.6481081 C140.847568,15.2708139 140.876757,16.1367512 140.876757,17.2459459 L140.001081,17.2459459 C139.923243,16.0005343 139.538922,15.05676 138.848108,14.4145946 C138.157294,13.7724292 137.228114,13.4513514 136.060541,13.4513514 L136.060541,13.4513514 Z M150.275676,25.127027 C151.287573,25.127027 152.109727,24.8935158 152.742162,24.4264865 C153.374598,23.9594571 153.943781,23.3854088 154.44973,22.7043243 L155.354595,23.3756757 C155.140539,23.7064881 154.882704,24.0518901 154.581081,24.4118919 C154.279458,24.7718937 153.909732,25.1027012 153.471892,25.4043243 C153.034052,25.7059475 152.518381,25.9540531 151.924865,26.1486486 C151.331348,26.3432442 150.63568,26.4405405 149.837838,26.4405405 C148.806481,26.4405405 147.877301,26.2605423 147.05027,25.9005405 C146.223239,25.5405387 145.517841,25.0394627 144.934054,24.3972973 C144.350267,23.7551319 143.902704,23.0010854 143.591351,22.1351351 C143.279998,21.2691849 143.124324,20.3205457 143.124324,19.2891892 C143.124324,18.1216158 143.289728,17.0902747 143.620541,16.1951351 C143.951353,15.2999955 144.403781,14.5556786 144.977838,13.9621622 C145.551895,13.3686457 146.228104,12.9162178 147.006486,12.6048649 C147.784869,12.293512 148.631347,12.1378378 149.545946,12.1378378 C150.460545,12.1378378 151.307023,12.2789175 152.085405,12.5610811 C152.863788,12.8432447 153.539997,13.2372948 154.114054,13.7432432 C154.688111,14.2491917 155.140539,14.8621586 155.471351,15.5821622 C155.802164,16.3021658 155.967568,17.0999956 155.967568,17.9756757 C155.967568,18.1897308 155.962703,18.4086475 155.952973,18.6324324 C155.943243,18.8562173 155.928649,19.0556748 155.909189,19.2308108 C155.88973,19.4448659 155.87027,19.6394586 155.850811,19.8145946 L147.064865,19.8145946 C147.064865,21.7410907 147.361619,23.1081041 147.955135,23.9156757 C148.548652,24.7232473 149.322157,25.127027 150.275676,25.127027 L150.275676,25.127027 Z M152.027027,18.5010811 C152.027027,17.5281032 151.963784,16.7205438 151.837297,16.0783784 C151.71081,15.436213 151.540542,14.9205425 151.326486,14.5313514 C151.112431,14.1421602 150.854596,13.8648657 150.552973,13.6994595 C150.25135,13.5340532 149.915678,13.4513514 149.545946,13.4513514 C149.215133,13.4513514 148.89892,13.5340532 148.597297,13.6994595 C148.295674,13.8648657 148.032974,14.1421602 147.809189,14.5313514 C147.585404,14.9205425 147.405406,15.436213 147.269189,16.0783784 C147.132972,16.7205438 147.064865,17.5281032 147.064865,18.5010811 L152.027027,18.5010811 Z M166.242162,12.1378378 C167.254059,12.1378378 168.14432,12.3227009 168.912973,12.6924324 C169.681625,13.062164 170.323781,13.5681049 170.839459,14.2102703 C171.355138,14.8524356 171.739458,15.611347 171.992432,16.487027 C172.245407,17.3627071 172.371892,18.2967518 172.371892,19.2891892 C172.371892,20.2816266 172.245407,21.2156713 171.992432,22.0913514 C171.739458,22.9670314 171.350273,23.7259427 170.824865,24.3681081 C170.299457,25.0102735 169.642707,25.5162144 168.854595,25.8859459 C168.066483,26.2556775 167.147032,26.4405405 166.096216,26.4405405 C165.609727,26.4405405 165.181623,26.3967572 164.811892,26.3091892 C164.44216,26.2216212 164.121082,26.11946 163.848649,26.0027027 C163.537296,25.8859454 163.264866,25.7400009 163.031351,25.5648649 L163.031351,31.6945946 L159.236757,31.6945946 L159.236757,16.2243243 C159.236757,15.7962141 159.212433,15.402164 159.163784,15.0421622 C159.115135,14.6821604 159.022703,14.3708121 158.886486,14.1081081 C158.75027,13.8454041 158.545947,13.6459466 158.273514,13.5097297 C158.00108,13.3735128 157.650813,13.3054054 157.222703,13.3054054 L156.930811,13.3054054 L156.930811,12.4297297 L159.820541,12.4297297 C160.482165,12.4297297 161.002701,12.5172964 161.382162,12.6924324 C161.761624,12.8675684 162.058377,13.1886463 162.272432,13.6556757 C162.447568,13.4999992 162.656756,13.3345955 162.9,13.1594595 C163.143244,12.9843234 163.425404,12.8189197 163.746486,12.6632432 C164.067569,12.5075668 164.437295,12.3810816 164.855676,12.2837838 C165.274056,12.186486 165.736214,12.1378378 166.242162,12.1378378 L166.242162,12.1378378 Z M165.658378,13.4513514 C164.918915,13.4513514 164.325408,13.5875662 163.877838,13.86 C163.430268,14.1324338 163.080001,14.3951339 162.827027,14.6481081 C162.846487,14.784325 162.875675,14.9205399 162.914595,15.0567568 C162.953514,15.1929737 162.982703,15.3389181 163.002162,15.4945946 C163.021622,15.650271 163.031351,15.8351341 163.031351,16.0491892 L163.031351,24.2513514 C163.245406,24.4264874 163.478918,24.5724318 163.731892,24.6891892 C163.945947,24.8059465 164.203782,24.9081077 164.505405,24.9956757 C164.807029,25.0832437 165.142701,25.127027 165.512432,25.127027 C166.0573,25.127027 166.514593,24.9810825 166.884324,24.6891892 C167.254056,24.3972958 167.555675,23.9886513 167.789189,23.4632432 C168.022704,22.9378352 168.188108,22.3200036 168.285405,21.6097297 C168.382703,20.8994559 168.431351,20.1259501 168.431351,19.2891892 C168.431351,18.4524282 168.382703,17.6789225 168.285405,16.9686486 C168.188108,16.2583748 168.027569,15.6405432 167.803784,15.1151351 C167.579999,14.5897271 167.292975,14.1810825 166.942703,13.8891892 C166.592431,13.5972958 166.164327,13.4513514 165.658378,13.4513514 L165.658378,13.4513514 Z M179.610811,12.4297297 L182.821622,12.4297297 L182.821622,13.7432432 L179.610811,13.7432432 L179.610811,22.3540541 C179.610811,23.4437892 179.742161,24.1783765 180.004865,24.5578378 C180.267569,24.9372992 180.64216,25.127027 181.128649,25.127027 C181.440002,25.127027 181.736755,25.0881085 182.018919,25.0102703 C182.301082,24.932432 182.549188,24.8448654 182.763243,24.7475676 C182.996758,24.6308102 183.220539,24.4945954 183.434595,24.3389189 L183.843243,25.1562162 C183.590269,25.3897309 183.28865,25.6037828 182.938378,25.7983784 C182.627025,25.9540548 182.232975,26.0999993 181.756216,26.2362162 C181.279457,26.3724331 180.710274,26.4405405 180.048649,26.4405405 C178.725399,26.4405405 177.689193,26.0805441 176.94,25.3605405 C176.190807,24.6405369 175.816216,23.580007 175.816216,22.1789189 L175.816216,13.7432432 L174.064865,13.7432432 L174.064865,12.4297297 L175.816216,12.4297297 L175.816216,9.8027027 L177.275676,8.05135135 L179.610811,8.05135135 L179.610811,12.4297297 Z M189.593514,9.21891892 C189.593514,9.72486739 189.437839,10.1237823 189.126486,10.4156757 C188.815134,10.707569 188.435678,10.8535135 187.988108,10.8535135 C187.248645,10.8535135 186.698921,10.629732 186.338919,10.1821622 C185.978917,9.73459236 185.798919,9.21892184 185.798919,8.63513514 C185.798919,8.12918666 185.954593,7.73027173 186.265946,7.43837838 C186.577299,7.14648503 186.956755,7.00054054 187.404324,7.00054054 C188.143787,7.00054054 188.693512,7.22432209 189.053514,7.67189189 C189.413515,8.1194617 189.593514,8.63513222 189.593514,9.21891892 L189.593514,9.21891892 Z M186.090811,16.2243243 C186.090811,15.3486443 185.96919,14.6432459 185.725946,14.1081081 C185.482701,13.5729703 184.923248,13.3054054 184.047568,13.3054054 L183.755676,13.3054054 L183.755676,12.4297297 L187.258378,12.4297297 C187.764327,12.4297297 188.187566,12.4929723 188.528108,12.6194595 C188.86865,12.7459466 189.14108,12.9551337 189.345405,13.247027 C189.549731,13.5389204 189.69081,13.9281057 189.768649,14.4145946 C189.846487,14.9010835 189.885405,15.5043207 189.885405,16.2243243 L189.885405,26.1486486 L186.090811,26.1486486 L186.090811,16.2243243 Z M202.699459,19.2891892 C202.699459,18.4524282 202.636217,17.6789225 202.50973,16.9686486 C202.383243,16.2583748 202.193515,15.6405432 201.940541,15.1151351 C201.687566,14.5897271 201.366488,14.1810825 200.977297,13.8891892 C200.588106,13.5972958 200.140543,13.4513514 199.634595,13.4513514 C199.128646,13.4513514 198.681083,13.5972958 198.291892,13.8891892 C197.902701,14.1810825 197.581623,14.5897271 197.328649,15.1151351 C197.075674,15.6405432 196.885947,16.2583748 196.759459,16.9686486 C196.632972,17.6789225 196.56973,18.4524282 196.56973,19.2891892 C196.56973,20.1259501 196.632972,20.8994559 196.759459,21.6097297 C196.885947,22.3200036 197.075674,22.9378352 197.328649,23.4632432 C197.581623,23.9886513 197.902701,24.3972958 198.291892,24.6891892 C198.681083,24.9810825 199.128646,25.127027 199.634595,25.127027 C200.140543,25.127027 200.588106,24.9810825 200.977297,24.6891892 C201.366488,24.3972958 201.687566,23.9886513 201.940541,23.4632432 C202.193515,22.9378352 202.383243,22.3200036 202.50973,21.6097297 C202.636217,20.8994559 202.699459,20.1259501 202.699459,19.2891892 L202.699459,19.2891892 Z M192.629189,19.2891892 C192.629189,18.2967518 192.789728,17.3627071 193.110811,16.487027 C193.431893,15.611347 193.894051,14.8524356 194.497297,14.2102703 C195.100544,13.5681049 195.835131,13.062164 196.701081,12.6924324 C197.567031,12.3227009 198.544859,12.1378378 199.634595,12.1378378 C200.72433,12.1378378 201.702158,12.3227009 202.568108,12.6924324 C203.434058,13.062164 204.168646,13.5681049 204.771892,14.2102703 C205.375138,14.8524356 205.837296,15.611347 206.158378,16.487027 C206.479461,17.3627071 206.64,18.2967518 206.64,19.2891892 C206.64,20.2816266 206.479461,21.2156713 206.158378,22.0913514 C205.837296,22.9670314 205.375138,23.7259427 204.771892,24.3681081 C204.168646,25.0102735 203.434058,25.5162144 202.568108,25.8859459 C201.702158,26.2556775 200.72433,26.4405405 199.634595,26.4405405 C198.544859,26.4405405 197.567031,26.2556775 196.701081,25.8859459 C195.835131,25.5162144 195.100544,25.0102735 194.497297,24.3681081 C193.894051,23.7259427 193.431893,22.9670314 193.110811,22.0913514 C192.789728,21.2156713 192.629189,20.2816266 192.629189,19.2891892 L192.629189,19.2891892 Z M216.301622,13.5972973 C215.678916,13.5972973 215.138921,13.684864 214.681622,13.86 C214.224322,14.035136 213.86919,14.2491879 213.616216,14.5021622 C213.635676,14.6189195 213.664865,14.7551344 213.703784,14.9108108 C213.742703,15.0470277 213.771892,15.2124315 213.791351,15.407027 C213.810811,15.6016226 213.820541,15.8156745 213.820541,16.0491892 L213.820541,26.1486486 L210.025946,26.1486486 L210.025946,16.2243243 C210.025946,15.7962141 210.001622,15.402164 209.952973,15.0421622 C209.904324,14.6821604 209.811893,14.3708121 209.675676,14.1081081 C209.539459,13.8454041 209.335136,13.6459466 209.062703,13.5097297 C208.790269,13.3735128 208.440002,13.3054054 208.011892,13.3054054 L207.72,13.3054054 L207.72,12.4297297 L210.60973,12.4297297 C211.271355,12.4297297 211.79189,12.5124316 212.171351,12.6778378 C212.550813,12.8432441 212.847566,13.1205386 213.061622,13.5097297 C213.236758,13.3540533 213.445945,13.1935143 213.689189,13.0281081 C213.932434,12.8627019 214.224323,12.7167574 214.564865,12.5902703 C214.905407,12.4637832 215.299457,12.3567572 215.747027,12.2691892 C216.194597,12.1816212 216.719997,12.1378378 217.323243,12.1378378 C219.152442,12.1378378 220.534049,12.5610768 221.468108,13.4075676 C222.402167,14.2540583 222.869189,15.6210716 222.869189,17.5086486 L222.869189,26.1486486 L219.074595,26.1486486 L219.074595,17.4794595 C219.074595,16.0589118 218.811895,15.0567597 218.286486,14.472973 C217.761078,13.8891863 217.099463,13.5972973 216.301622,13.5972973 L216.301622,13.5972973 Z" id="Codeception" fill="#38818F" sketch:type="MSShapeGroup"></path>
        </g>
    </g>
</svg>