<?xml version="1.0" encoding="UTF-8" standalone="no"?>
<svg width="178px" height="48px" viewBox="0 0 178 48" version="1.1" xmlns="http://www.w3.org/2000/svg" xmlns:xlink="http://www.w3.org/1999/xlink" xmlns:sketch="http://www.bohemiancoding.com/sketch/ns">
    <!-- Generator: Sketch 3.3.2 (12043) - http://www.bohemiancoding.com/sketch -->
    <title>Group</title>
    <desc>Created with Sketch.</desc>
    <defs></defs>
    <g id="Page-1" stroke="none" stroke-width="1" fill="none" fill-rule="evenodd" sketch:type="MSPage">
        <g id="Group" sketch:type="MSLayerGroup" fill="#2AA9E0">
            <path d="M86.841216,8.91897655 L79.048732,8.91897655 L79.061548,23.5300439 C79.061548,27.8000931 77.234912,31.2545911 72.973948,31.2545911 C68.711204,31.2545911 66.867836,27.8000931 66.867836,23.5300439 L66.867836,8.93324691 L59.095644,8.93324691 L59.093508,23.5300439 C59.093508,31.9677525 64.505776,38.806467 72.926956,38.806467 C81.345644,38.806467 86.838724,31.9677525 86.838724,23.5300439 L86.841216,8.91897655 L86.841216,8.91897655 Z" id="Shape" sketch:type="MSShapeGroup"></path>
            <rect id="Rectangle-path" sketch:type="MSShapeGroup" x="157.106004" y="0.0160541578" width="7.754036" height="38.0362241"></rect>
            <g transform="translate(170.524000, 0.000000)" id="Shape" sketch:type="MSShapeGroup">
                <path d="M0.06052,0.735637186 L0.06052,0.052086823 L3.081892,0.052086823 L3.081892,0.735280426 L1.976868,0.735280426 L1.976868,3.74668367 L1.166256,3.74668367 L1.166256,0.735637186 L0.06052,0.735637186 L0.06052,0.735637186 Z"></path>
                <path d="M4.646156,0.052086823 L5.508744,2.5925681 L5.519068,2.5925681 L6.334308,0.052086823 L7.476,0.052086823 L7.476,3.74668367 L6.717008,3.74668367 L6.717008,1.12807215 L6.706684,1.12807215 L5.803156,3.74668367 L5.17802,3.74668367 L4.274492,1.15411557 L4.264524,1.15411557 L4.264524,3.74668367 L3.505532,3.74668367 L3.505532,0.052086823 L4.646156,0.052086823 L4.646156,0.052086823 Z"></path>
            </g>
            <path d="M52.757064,8.60110422 C46.073164,7.05526721 41.8567,13.7095372 41.681548,14.0662963 C41.595396,14.241465 41.592192,14.3434981 41.296,14.3356494 C41.051428,14.3306548 41.023304,14.0662963 41.023304,14.0662963 L40.193824,8.976058 L33.248264,8.976058 L33.248264,38.0269484 L41.03434,38.0269484 L41.03434,22.302436 C41.03434,21.0173899 44.48754,14.8561609 51.177492,16.4423116 C54.560916,17.244306 55.995952,18.6831153 55.995952,18.6831153 L55.995952,9.83335002 C54.7439,9.1790539 53.884872,8.8618951 52.757064,8.60110422 L52.757064,8.60110422 Z" id="Shape" sketch:type="MSShapeGroup"></path>
            <path d="M97.407296,47.5955832 L97.407296,37.1425427 C97.408008,37.1425427 97.409076,37.143613 97.409788,37.1443265 L97.410856,33.2299661 C97.410856,33.2299661 97.423316,32.9167316 97.704912,32.9128072 C97.956248,32.9099532 98.01214,33.0769164 98.073372,33.2299661 C98.66362,34.7019539 101.910696,40.3105632 109.11578,38.5513842 C115.565788,36.730486 120.296672,30.7950855 120.296672,23.7458832 C120.296672,15.2532337 113.424804,8.36564324 104.948088,8.36564324 C96.471372,8.36564324 89.59986,15.2532337 89.59986,23.7458832 L89.59986,47.5952264 L97.407296,47.5952264 L97.407296,47.5955832 Z M104.954496,15.9624707 C109.246076,15.9624707 112.724196,19.4487203 112.724196,23.7462399 C112.724196,28.0473272 109.246076,31.5339335 104.954496,31.5339335 C100.663628,31.5339335 97.186576,28.0476839 97.186576,23.7462399 C97.186932,19.4487203 100.663984,15.9624707 104.954496,15.9624707 L104.954496,15.9624707 Z" id="Shape" sketch:type="MSShapeGroup"></path>
            <path d="M146.150816,38.0401485 L153.958252,38.0401485 L153.958252,23.7462399 C153.958252,15.2535904 147.087452,8.366 138.61038,8.366 C130.133308,8.366 123.26144,15.2535904 123.26144,23.7462399 C123.26144,30.7950855 127.99268,36.730486 134.442688,38.551741 C141.648128,40.3109199 144.89378,34.7023107 145.485096,33.2303228 C145.546328,33.0772732 145.601508,32.9106667 145.853556,32.913164 C146.135152,32.9170884 146.1469,33.2303228 146.1469,33.2303228 L146.150816,38.0401485 Z M146.371892,23.7462399 C146.371892,28.0473272 142.893416,31.5339335 138.603616,31.5339335 C134.312748,31.5339335 130.833916,28.0476839 130.833916,23.7462399 C130.833916,19.4487203 134.312748,15.9624707 138.603616,15.9624707 C142.893772,15.9624707 146.371892,19.4487203 146.371892,23.7462399 L146.371892,23.7462399 Z" id="Shape" sketch:type="MSShapeGroup"></path>
            <path d="M8.856924,37.9794994 L0,37.9794994 L0,0 L9.50342,0 C21.01112,0 29.738816,2.115938 29.738816,18.9899281 C29.738816,35.7005226 20.493852,37.9794994 8.856924,37.9794994 L8.856924,37.9794994 Z M10.971564,6.58327497 L7.840544,6.58327497 L7.840544,31.3898028 L11.055936,31.4722142 C17.649768,31.4722142 21.896848,30.8707184 21.896848,18.9895713 C21.896848,7.59575719 18.147456,6.58327497 10.971564,6.58327497 L10.971564,6.58327497 Z" id="Shape" sketch:type="MSShapeGroup"></path>
        </g>
    </g>
</svg>