<?xml version="1.0" encoding="UTF-8" standalone="no"?>
<svg width="117px" height="53px" viewBox="0 0 117 53" version="1.1" xmlns="http://www.w3.org/2000/svg" xmlns:xlink="http://www.w3.org/1999/xlink" xmlns:sketch="http://www.bohemiancoding.com/sketch/ns">
    <!-- Generator: Sketch 3.3.2 (12043) - http://www.bohemiancoding.com/sketch -->
    <title>less</title>
    <desc>Created with Sketch.</desc>
    <defs>
        <linearGradient x1="50%" y1="-4.71911798e-06%" x2="50%" y2="100%" id="linearGradient-1">
            <stop stop-color="#2A4F84" offset="14.97%"></stop>
            <stop stop-color="#294E82" offset="38.839999%"></stop>
            <stop stop-color="#172E4E" offset="100%"></stop>
        </linearGradient>
    </defs>
    <g id="Page-1" stroke="none" stroke-width="1" fill="none" fill-rule="evenodd" sketch:type="MSPage">
        <g id="less" sketch:type="MSLayerGroup" transform="translate(0.531250, 1.156250)">
            <path d="M109.077079,41.2043797 C109.077079,46.6125073 104.652225,51.0373609 99.2440978,51.0373609 L16.5968698,51.0373609 C11.1887422,51.0373609 6.7638886,46.6125073 6.7638886,41.2043797 L6.7638886,9.88925298 C6.7638886,4.48112537 11.1887422,0.0562718096 16.5968698,0.0562718096 L99.2440978,0.0562718096 C104.652225,0.0562718096 109.077079,4.48112537 109.077079,9.88925298 L109.077079,41.2043797 L109.077079,41.2043797 Z" id="path19" fill="url(#linearGradient-1)" sketch:type="MSShapeGroup"></path>
            <path d="M91.7881041,24.8778682 C96.1077014,26.3891077 98.2665978,28.9784121 98.2665978,32.641932 C98.2665978,35.0533232 97.3712578,36.9673033 95.5845476,38.38291 C93.7996417,39.7994791 91.2534022,40.6785795 87.9390926,40.6785795 C84.6247829,40.6785795 81.5591187,39.7182814 78.7354838,38.1418431 C78.7660382,37.3058075 78.9870162,36.3885743 79.3926438,35.39291 C79.7982714,34.3972458 80.2783604,33.6061998 80.8284597,33.0284331 C83.4235382,34.3770366 85.6817965,35.0524812 87.5986637,35.0524812 C88.5045894,35.0524812 89.2055361,34.900431 89.693444,34.5942856 C90.182194,34.2892228 90.4251857,33.8797458 90.4251857,33.3652531 C90.4251857,32.3982186 89.6762422,31.6750178 88.1831668,31.1930042 L85.5011166,30.1800178 C81.4436376,28.7012573 79.4147777,26.2917908 79.4147777,22.9448818 C79.4147777,20.5010115 80.2670528,18.5640554 81.971603,17.1311266 C83.6761532,15.7002427 85.9736271,14.4682029 88.8623405,14.4682029 C90.29142,14.4682029 91.8648509,14.6690921 93.5864827,15.0708703 C95.3063101,15.4736109 96.7191501,16.465546 97.8229576,17.0105931 C97.8880361,17.9115868 97.7072359,18.9006349 97.2874137,19.9776172 C96.8645842,21.0555617 96.3462422,21.8188201 95.7273353,22.2694372 C92.9984911,21.0470209 90.7277223,20.4358128 88.9084127,20.4358128 C88.2570267,20.4358128 87.766352,20.5802845 87.4219535,20.8710324 C87.0814043,21.1609383 86.9139566,21.5299969 86.9139566,21.980614 C86.9139566,22.7525335 87.5299765,23.3627793 88.7647829,23.8132762 L91.7881041,24.8778682 L91.7881041,24.8778682 Z" id="path21" fill="#F6F6F6" sketch:type="MSShapeGroup"></path>
            <path d="M70.2129733,24.8778682 C74.5325706,26.3891077 76.6905047,28.9784121 76.6905047,32.641932 C76.6905047,35.0533232 75.7951647,36.9673033 74.0113415,38.38291 C72.2246313,39.7994791 69.6774294,40.6785795 66.3640821,40.6785795 C63.0526595,40.6785795 59.9831459,39.7182814 57.1604733,38.1418431 C57.1910277,37.3058075 57.4120058,36.3885743 57.8184754,35.39291 C58.224103,34.3972458 58.7022673,33.6061998 59.2542913,33.0284331 C61.8522568,34.3770366 64.1095528,35.0524812 66.0254576,35.0524812 C66.9322254,35.0524812 67.6332924,34.900431 68.1192756,34.5942856 C68.6062212,34.2892228 68.8510173,33.8797458 68.8510173,33.3652531 C68.8510173,32.3982186 68.1020737,31.6750178 66.6089984,31.1930042 L63.9287526,30.1800178 C59.8703112,28.7012573 57.8406093,26.2917908 57.8406093,22.9448818 C57.8406093,20.5010115 58.6928844,18.5640554 60.399239,17.1311266 C62.1028269,15.7002427 64.3993384,14.4682029 67.2880518,14.4682029 C68.7161689,14.4682029 70.2934493,14.6690921 72.011352,15.0708703 C73.7331041,15.4736109 75.1440194,16.465546 76.2486689,17.0105931 C76.3137474,17.9115868 76.1329472,18.9006349 75.713125,19.9776172 C75.2912578,21.0555617 74.7719535,21.8188201 74.1540089,22.2694372 C71.4240821,21.0470209 69.1533133,20.4358128 67.3331616,20.4358128 C66.682738,20.4358128 66.1901386,20.5802845 65.8476647,20.8710324 C65.5080779,21.1609383 65.3388258,21.5299969 65.3388258,21.980614 C65.3388258,22.7525335 65.9556878,23.3627793 67.1906145,23.8132762 L70.2129733,24.8778682 L70.2129733,24.8778682 Z" id="path23" fill="#F6F6F6" sketch:type="MSShapeGroup"></path>
            <path d="M54.4792652,25.2182971 C54.4792652,23.7395366 54.2439723,22.3726485 53.7733865,21.1176328 C53.3037631,19.8627374 52.6294012,18.7865973 51.7531878,17.8856036 C50.876012,16.9846098 49.8133447,16.2776485 48.564103,15.7630356 C47.3129367,15.2493849 45.9087578,14.4745785 44.3506041,14.4745785 C42.4996574,14.4745785 40.8842442,15.3125387 39.504966,15.9562259 C38.1256878,16.5990711 36.9892809,17.482863 36.0968279,18.6086841 C35.2024503,19.7353473 34.5367495,21.0612155 34.0986428,22.5886946 C33.6605361,24.1162939 33.4414827,25.780546 33.4414827,27.5807291 C33.4414827,29.4440659 33.6193959,31.1676224 33.977147,32.742978 C34.3339357,34.316409 34.9430988,35.6823347 35.803193,36.8417176 C36.6640089,37.9990554 37.784056,38.8992071 39.1642965,39.5409697 C40.5445371,40.1838149 42.2576281,40.6773766 44.3027275,40.6773766 C48.0684963,40.6773766 51.2498823,39.5869215 53.8477275,37.7552218 C53.590421,35.8918849 52.9266449,34.4102374 51.8601281,33.3168954 C50.5334179,33.8151485 49.3597202,34.1719372 48.3420424,34.3911109 C47.3234022,34.6073975 46.4251752,34.7163828 45.6495267,34.7163828 C44.0970267,34.7163828 42.9798666,34.321341 42.3017756,33.5236789 C41.6244064,32.7287835 41.2528217,31.7885743 41.1870214,30.3604571 L53.8496522,30.3604571 C54.2679106,29.0080042 54.4792652,27.1801538 54.4792652,25.2182971 L54.4792652,25.2182971 Z M41.138784,25.5522301 C41.2352589,23.9108337 41.5347882,22.1546778 42.0331616,21.4315973 C42.5324974,20.7075544 43.2967181,20.345954 44.3287108,20.345954 C45.3914984,20.345954 46.1891606,20.7305303 46.7200131,21.5024498 C47.2519482,22.2743692 47.5176752,23.829636 47.5176752,25.0194529 L47.5186376,25.5522301 L41.138784,25.5522301 L41.138784,25.5522301 Z" id="path25" fill="#F6F6F6" sketch:type="MSShapeGroup"></path>
            <path d="M111.626326,28.7612835 C110.249935,29.9636109 109.45119,31.6939038 109.45119,33.9561318 L109.45119,42.3810847 C109.45119,45.1817437 108.590254,47.3118902 106.645719,48.7763358 C104.702989,50.2388567 102.437994,50.9628996 99.8525392,51.0326695 L98.3202484,51.0211213 L98.3202484,46.8230199 C99.670897,46.4289404 100.225567,45.9708651 100.763156,45.450478 C101.736927,44.5705356 102.482984,43.138569 102.482984,41.1500073 L102.482984,34.3482866 C102.519312,32.0363776 102.697225,30.2247667 103.538915,28.9162207 C104.383611,27.6076747 106.027775,26.4636893 108.471645,25.4756036 C105.772393,24.2398347 103.959699,22.6261056 103.03573,20.6356192 C102.492487,19.4533808 102.481901,17.8579362 102.481901,15.85109 L102.481901,9.61366198 C102.481901,7.55328541 101.807539,6.11001135 100.97824,5.28636595 C100.438847,4.74877704 99.8112788,4.31933143 98.3182035,3.9951421 L98.3182035,0.0542268305 C100.144249,0.0733533996 101.066294,0.0524224372 102.129924,0.0542268305 C103.767471,0.0408743201 105.139171,0.936214278 106.332837,1.86872474 C107.632843,2.89121428 108.556692,4.27349984 109.09813,6.01329587 C109.40608,7.01858353 109.450107,7.97900194 109.450107,8.89334817 L109.450107,16.1074341 C109.450107,18.655478 110.2029,20.5494895 111.489433,21.7862207 C112.214558,22.5036475 113.23801,23.1597249 114.995128,23.7519268 L114.995128,27.0107814 C113.438057,27.4413096 112.460437,28.0247301 111.626326,28.7612835 L111.626326,28.7612835 Z" id="path27" stroke="#404040" fill="#F6F6F6" sketch:type="MSShapeGroup"></path>
            <path d="M14.7666135,0.0563921025 L14.7666135,0.0620458682 C14.2434597,0.0591588389 13.7698666,0.0572341527 13.3911846,0.0581964958 C11.7526752,0.0438816423 10.3810957,0.9392216 9.18839174,1.8726944 C7.88658211,2.89518394 6.7723091,4.22959294 6.42321914,6.01726553 C6.22425471,7.06561804 6.26635722,7.98188896 6.26635722,8.89731783 L6.26635722,16.1114038 C6.26635722,18.6586056 5.31844927,20.5515345 4.03287918,21.7903107 C3.308716,22.5076172 1.76295241,23.1627322 0.00487186192,23.7548138 L0.00487186192,27.0135481 C1.56302563,27.443114 3.06295764,28.0246098 3.89502354,28.7630879 C5.27237709,29.9663776 6.26515429,31.6977531 6.26515429,33.9597406 L6.26515429,42.3846935 C6.26515429,45.1835481 6.9329001,47.3156192 8.87550994,48.7780199 C10.8182401,50.2395785 13.0822725,50.9665084 15.6677275,51.0372406 L17.3980204,51.0256925 L17.3980204,46.824704 C16.0483342,46.4296621 15.2985486,45.9714665 14.7580727,45.4530042 C13.7852641,44.5719791 13.2343227,43.1410952 13.2343227,41.1534958 L13.2343227,34.3508128 C13.1970319,32.0370994 12.8240037,30.2272929 11.981352,28.9177845 C11.1387003,27.6111632 9.49441684,26.4652531 7.04765952,25.4781297 C9.74799425,24.2413985 11.5596051,22.6286318 12.4835748,20.6391077 C13.0279001,19.4559069 13.234443,17.8604623 13.234443,15.8537364 L13.234443,9.61630842 C13.234443,7.55593185 13.7126072,6.11265779 14.5410643,5.28817035 C14.9905988,4.84056051 15.7901857,4.47222369 16.9008499,4.17389733 L18.6570058,4.18616721 L18.6570058,0.0560312238 L14.7668541,0.0560312238 L14.7668541,0.0563921025 L14.7666135,0.0563921025 L14.7666135,0.0563921025 Z" id="path29" stroke="#404040" fill="#F6F6F6" sketch:type="MSShapeGroup"></path>
            <path d="M30.9576752,34.2362939 L29.6425131,34.2362939 C28.2125915,34.2362939 27.6740403,33.4844634 27.6740403,31.9741862 L27.6740403,4.21720277 C27.6740403,2.54813896 27.1920267,1.37636595 26.5749242,0.701161977 C25.9579419,0.0277623954 24.8867338,0.0344987971 23.3610591,0.0344987971 L20.3910277,0.0344987971 L20.0409754,0.0277623954 L20.0409754,0.0563921025 L20.0380884,4.18761072 L20.0380884,33.3172563 C20.0380884,35.6338567 20.5584754,37.3289038 21.4842495,38.4078107 C22.4111062,39.4847929 23.9769587,40.0223818 26.1845737,40.0223818 C27.7112108,40.0223818 29.4482401,39.8616705 31.3956616,39.5392856 C31.4932191,39.2140136 31.5420581,38.5177584 31.5420581,37.4493169 C31.5420581,36.3779885 31.3470633,35.3095471 30.9576752,34.2362939 L30.9576752,34.2362939 Z" id="path31" fill="#F6F6F6" sketch:type="MSShapeGroup"></path>
        </g>
    </g>
</svg>