<?xml version="1.0" encoding="utf-8"?>
<!-- Generator: Adobe Illustrator 18.1.1, SVG Export Plug-In . SVG Version: 6.00 Build 0)  -->
<svg version="1.1" id="Layer_1" xmlns="http://www.w3.org/2000/svg" xmlns:xlink="http://www.w3.org/1999/xlink" x="0px" y="0px"
	 viewBox="0 0 1200 355.1" style="enable-background:new 0 0 1200 355.1;" xml:space="preserve">
<style type="text/css">
	.st0{opacity:0.35;clip-path:url(#SVGID_2_);}
	.st1{fill:#ABA9A9;}
	.st2{fill:#A4A2A2;}
	.st3{fill:#A3A0A0;}
	.st4{fill:#9A9797;}
	.st5{fill:#9C9999;}
	.st6{fill:#959292;}
	.st7{fill:#928F8F;}
	.st8{fill:#B3B1B1;}
	.st9{fill:#BDBBBB;}
	.st10{fill:#B5B3B3;}
	.st11{fill:#AEACAC;}
	.st12{fill:#A6A4A4;}
	.st13{fill:#9F9D9D;}
	.st14{fill:#9B9898;}
	.st15{fill:#939090;}
	.st16{fill:#908E8E;}
	.st17{fill:#BEBCBC;}
	.st18{fill:#C1C0C0;}
	.st19{fill:#CECDCD;}
	.st20{fill:#C0BFBF;}
	.st21{fill:#B9B8B8;}
	.st22{fill:#AFADAD;}
	.st23{fill:#AAA7A7;}
	.st24{fill:#979595;}
	.st25{fill:#C6C5C5;}
	.st26{fill:#C9C8C8;}
	.st27{fill:#D7D6D6;}
	.st28{fill:#D4D3D3;}
	.st29{fill:#CFCECE;}
	.st30{fill:#B1B0B0;}
	.st31{fill:#B8B7B7;}
	.st32{fill:#A5A3A3;}
	.st33{fill:#A09E9E;}
	.st34{fill:#D3D1D1;}
	.st35{fill:#D8D7D7;}
	.st36{fill:#D5D4D4;}
	.st37{fill:#B7B5B5;}
	.st38{fill:#B6B4B4;}
	.st39{fill:#9E9C9C;}
	.st40{fill:#EDECEC;}
	.st41{fill:#DFDEDE;}
	.st42{fill:#CBC9C9;}
	.st43{fill:#D1D0D0;}
	.st44{fill:#D6D5D5;}
	.st45{fill:#CDCCCC;}
	.st46{fill:#BBB9B9;}
	.st47{fill:#9D9B9B;}
	.st48{fill:#DCDBDB;}
	.st49{fill:#DBDADA;}
	.st50{fill:#C7C6C6;}
	.st51{fill:#BFBEBE;}
	.st52{fill:#A29F9F;}
	.st53{fill:#F4F3F3;}
	.st54{fill:#EFEFEF;}
	.st55{fill:#EEEDED;}
	.st56{fill:#E3E2E2;}
	.st57{fill:#E1E1E1;}
	.st58{fill:#B0AEAE;}
	.st59{fill:#F1F1F1;}
	.st60{fill:#E6E5E5;}
	.st61{fill:#E9E9E9;}
	.st62{fill:#C8C7C7;}
	.st63{fill:#A8A6A6;}
	.st64{fill:#F6F6F6;}
	.st65{fill:#F5F4F4;}
	.st66{fill:#ECEBEB;}
	.st67{fill:#E8E8E8;}
	.st68{fill:#DDDCDC;}
	.st69{fill:#989696;}
	.st70{fill:#969494;}
	.st71{fill:#E4E3E3;}
	.st72{fill:#D0CFCF;}
	.st73{fill:#BCBABA;}
	.st74{fill:#ADABAB;}
	.st75{fill:#A7A5A5;}
	.st76{fill:#E0DFDF;}
	.st77{fill:#C3C1C1;}
	.st78{fill:#949191;}
	.st79{fill:#D9D8D8;}
	.st80{fill:#8F8D8D;}
	.st81{fill:#DEDDDD;}
	.st82{fill:#8D8A8A;}
</style>
<g>
	<defs>
		<rect id="SVGID_1_" y="0" width="1200" height="479.6"/>
	</defs>
	<clipPath id="SVGID_2_">
		<use xlink:href="#SVGID_1_"  style="overflow:visible;"/>
	</clipPath>
	<g class="st0">
		<polygon class="st25" points="83.6,51.7 -2.5,0.9 83.6,-49.9 		"/>
		<polygon class="st26" points="-2.5,-100.7 83.6,-49.9 -2.5,0.9 		"/>
		<polygon class="st34" points="83.6,-49.9 169.6,0.9 83.6,51.7 		"/>
		<polygon class="st28" points="169.6,0.9 83.6,-49.9 169.6,-100.7 		"/>
		<polygon class="st40" points="255.6,254.8 169.6,204 255.6,153.2 		"/>
		<polygon class="st41" points="169.6,102.4 255.6,153.2 169.6,204 		"/>
		<polygon class="st42" points="169.6,0.9 255.6,51.7 169.6,102.4 		"/>
		<polygon class="st29" points="255.6,51.7 169.6,0.9 255.6,-49.9 		"/>
		<polygon class="st43" points="169.6,-100.7 255.6,-49.9 169.6,0.9 		"/>
		<polygon class="st48" points="341.7,102.4 255.6,51.7 341.7,0.9 		"/>
		<polygon class="st27" points="255.6,-49.9 341.7,0.9 255.6,51.7 		"/>
		<polygon class="st28" points="341.7,0.9 255.6,-49.9 341.7,-100.7 		"/>
		<polygon class="st53" points="427.7,254.8 341.7,204 427.7,153.2 		"/>
		<polygon class="st54" points="341.7,102.4 427.7,153.2 341.7,204 		"/>
		<polygon class="st55" points="427.7,153.2 341.7,102.4 427.7,51.7 		"/>
		<polygon class="st56" points="341.7,0.9 427.7,51.7 341.7,102.4 		"/>
		<polygon class="st57" points="427.7,51.7 341.7,0.9 427.7,-49.9 		"/>
		<polygon class="st35" points="341.7,-100.7 427.7,-49.9 341.7,0.9 		"/>
		<polygon class="st59" points="427.7,153.2 513.7,204 427.7,254.8 		"/>
		<polygon class="st54" points="513.7,204 427.7,153.2 513.7,102.4 		"/>
		<polygon class="st59" points="427.7,51.7 513.7,102.4 427.7,153.2 		"/>
		<polygon class="st40" points="513.7,102.4 427.7,51.7 513.7,0.9 		"/>
		<polygon class="st60" points="427.7,-49.9 513.7,0.9 427.7,51.7 		"/>
		<polygon class="st61" points="513.7,0.9 427.7,-49.9 513.7,-100.7 		"/>
		<polygon class="st64" points="513.7,204 599.8,254.8 513.7,305.6 		"/>
		<polygon class="st65" points="599.8,254.8 513.7,204 599.8,153.2 		"/>
		<polygon class="st40" points="513.7,102.4 599.8,153.2 513.7,204 		"/>
		<polygon class="st61" points="599.8,153.2 513.7,102.4 599.8,51.7 		"/>
		<polygon class="st66" points="513.7,0.9 599.8,51.7 513.7,102.4 		"/>
		<polygon class="st67" points="599.8,51.7 513.7,0.9 599.8,-49.9 		"/>
		<polygon class="st68" points="513.7,-100.7 599.8,-49.9 513.7,0.9 		"/>
		<polygon class="st64" points="685.8,305.6 599.8,254.8 685.8,204 		"/>
		<polygon class="st59" points="685.8,204 599.8,153.2 685.8,102.4 		"/>
		<polygon class="st67" points="599.8,51.7 685.8,102.4 599.8,153.2 		"/>
		<polygon class="st71" points="685.8,102.4 599.8,51.7 685.8,0.9 		"/>
		<polygon class="st56" points="599.8,-49.9 685.8,0.9 599.8,51.7 		"/>
		<polygon class="st35" points="685.8,0.9 599.8,-49.9 685.8,-100.7 		"/>
		<polygon class="st64" points="771.8,254.8 685.8,204 771.8,153.2 		"/>
		<polygon class="st66" points="771.8,153.2 685.8,102.4 771.8,51.7 		"/>
		<polygon class="st68" points="685.8,0.9 771.8,51.7 685.8,102.4 		"/>
		<polygon class="st43" points="771.8,51.7 685.8,0.9 771.8,-49.9 		"/>
		<polygon class="st36" points="685.8,-100.7 771.8,-49.9 685.8,0.9 		"/>
		<polygon class="st64" points="771.8,153.2 857.9,204 771.8,254.8 		"/>
		<polygon class="st66" points="771.8,51.7 857.9,102.4 771.8,153.2 		"/>
		<polygon class="st76" points="857.9,102.4 771.8,51.7 857.9,0.9 		"/>
		<polygon class="st36" points="857.9,0.9 771.8,-49.9 857.9,-100.7 		"/>
		<polygon class="st59" points="857.9,204 943.9,254.8 857.9,305.6 		"/>
		<polygon class="st66" points="943.9,153.2 857.9,102.4 943.9,51.7 		"/>
		<polygon class="st57" points="857.9,0.9 943.9,51.7 857.9,102.4 		"/>
		<polygon class="st79" points="943.9,51.7 857.9,0.9 943.9,-49.9 		"/>
		<polygon class="st28" points="857.9,-100.7 943.9,-49.9 857.9,0.9 		"/>
		<polygon class="st68" points="943.9,-49.9 1029.9,0.9 943.9,51.7 		"/>
		<polygon class="st76" points="1029.9,-100.7 1116,-49.9 1029.9,0.9 		"/>
		<polygon class="st76" points="1116,-49.9 1202,0.9 1116,51.7 		"/>
		<polygon class="st57" points="1202,0.9 1116,-49.9 1202,-100.7 		"/>
	</g>
</g>
</svg>
