<?xml version="1.0" encoding="UTF-8" standalone="no"?>
<svg width="90px" height="68px" viewBox="0 0 90 68" version="1.1" xmlns="http://www.w3.org/2000/svg" xmlns:xlink="http://www.w3.org/1999/xlink" xmlns:sketch="http://www.bohemiancoding.com/sketch/ns">
    <!-- Generator: Sketch 3.3.2 (12043) - http://www.bohemiancoding.com/sketch -->
    <title>path-1</title>
    <desc>Created with Sketch.</desc>
    <defs></defs>
    <g id="Page-1" stroke="none" stroke-width="1" fill="none" fill-rule="evenodd" sketch:type="MSPage">
        <path d="M39.5353373,0.523760157 C46.9373201,0.414641616 52.874071,2.10565386 55.5835663,6.68447075 C56.9793473,9.04320003 56.9679022,13.2137653 55.9881763,15.9928416 C54.0800975,21.4053293 50.4720325,25.1971661 45.8737069,27.9093927 C41.5772456,30.44357 30.2248855,33.532184 24.4760682,30.1578329 C23.2233509,29.4224858 20.4423238,27.669696 20.8349684,25.6160825 C20.9248384,25.5260824 21.0147084,25.4362125 21.1047084,25.3462124 C21.2095351,25.3611691 21.3144917,25.3762558 21.4193184,25.3912124 C21.9697232,25.6469062 22.259102,26.2508949 22.7230183,26.6053025 C23.6503308,27.3141178 24.9061695,27.8507366 26.1843781,28.1792627 C28.515275,28.7781791 31.7223717,28.4644796 33.8713176,27.9543927 C39.6631842,26.579421 44.0263651,24.3631051 47.5818868,20.804462 C50.2523648,18.131643 54.7177712,10.922406 49.4250667,7.6736908 C46.1215972,5.64608882 39.5895714,5.66793854 35.1748875,6.72947077 C25.6122536,9.02876361 16.9656171,13.8748494 11.035239,19.8601119 C9.20623539,21.7060231 6.11450003,25.7075131 6.89952925,29.8430929 C7.93387938,35.2921269 12.7465403,38.088891 16.4745187,40.9051638 C17.6281319,41.8794272 18.7821352,42.8539507 19.9358785,43.8282141 C20.2805318,44.1878241 20.6251851,44.5476942 20.9698384,44.9074342 C23.9213714,43.3036908 26.8739449,41.6995572 29.8254779,40.0958138 C30.2000445,39.6161604 30.5747412,39.136377 30.9493078,38.6568537 C31.9941926,37.3573156 33.5564476,36.2735434 35.0400175,35.4190633 C35.5195409,35.2242367 35.9990642,35.02941 36.4785875,34.8345833 C40.5396441,33.5871984 40.9837916,37.0424455 40.6591672,40.3206838 L40.7041672,40.3206838 C41.0055113,40.1380826 41.2346732,39.9054091 41.6481272,39.8259437 C42.8446594,39.5960014 43.9651079,40.5606406 43.626047,41.804644 C42.9113791,44.4276508 42.2573182,47.0327097 41.6032572,49.8089247 C41.4180548,50.5948643 40.9832714,52.24868 41.4233872,53.136585 C41.4833439,53.0915849 41.5433005,53.0465849 41.6032572,53.001715 C42.2774771,51.7127116 42.9518271,50.423318 43.626047,49.1344446 C45.1243135,45.7920878 46.6231003,42.4488205 48.1213668,39.1064637 C48.7507167,37.6227636 49.3800667,36.1384133 50.0094167,34.6547133 C50.2491133,33.7703199 50.48894,32.8857964 50.7286366,32.001533 C51.4169028,30.9890326 55.7646069,30.9601598 56.3027863,32.1814031 C55.958263,33.3504931 55.6134796,34.5198433 55.2689564,35.6889334 C54.7280458,38.1411743 55.5405172,41.2290079 56.6175263,42.613994 C56.632483,42.5840807 56.6474396,42.5540373 56.6623963,42.524124 C57.2018762,41.6098173 57.7413562,40.6952504 58.2807062,39.7810738 C59.4876431,37.7444978 60.7416609,35.604916 61.697196,33.3506232 C62.0574563,32.500435 62.4231789,29.6693356 63.0007659,29.2134828 C64.0559253,28.3808524 67.8758546,28.2100864 68.4401756,29.5282228 C68.0805656,30.8022695 67.7208256,32.0765764 67.3612156,33.3506232 C66.8797414,35.8848005 68.3176611,40.0531548 69.3841355,41.1300339 C70.801376,40.4508717 72.3702639,39.9405247 74.1041952,39.5562037 C81.6480711,37.88431 88.1856894,41.68343 89.7478143,46.9758744 C90.6518465,50.038997 89.2252418,52.5840992 87.5451545,53.811065 C86.9951398,54.2126837 85.8611653,55.1794037 84.9378846,54.7104151 C84.922928,54.6805018 84.9078412,54.6504584 84.8928846,54.6205451 C84.8943152,54.2526114 84.9723499,54.2288108 85.1176246,54.035935 C89.0596782,52.441946 88.5852271,47.3125942 85.6571046,44.9973042 C83.2507741,43.0945578 78.6186335,41.5670283 74.0143253,42.434124 C72.6740791,42.6865663 71.4919832,43.0937774 70.3280954,43.4234741 C70.5528354,44.2177374 70.7777055,45.0123909 71.0024454,45.8067843 C71.779281,49.6228119 68.4110426,51.9567001 66.1925157,53.181585 C65.1879488,53.7361517 63.1681503,54.8400828 61.652196,54.170805 C60.3884238,53.6128568 60.2843775,51.6925526 60.753106,50.1686647 C61.3721814,48.1564095 62.5927744,46.7248627 63.7649858,45.2671743 C64.4092925,44.6676075 65.0537291,44.0679108 65.6980358,43.4684741 C65.0141916,41.2587911 63.4710551,39.2354811 63.3155059,36.3634134 C63.2854625,36.3783701 63.2555492,36.3934568 63.2255059,36.4084134 C62.8959392,37.0378935 62.5662426,37.6676336 62.2365459,38.2971136 C61.3290022,39.8540362 60.5115886,41.4039357 59.5844061,42.883864 C59.0719782,43.7015378 58.6201572,44.7633301 57.9210962,45.4020443 C58.2057928,46.226351 58.4904895,47.0509178 58.7751861,47.8753545 C60.0165884,52.7898507 56.5316881,55.1961812 53.4257764,56.4642453 C52.2703425,56.9359651 49.3340262,57.8901996 47.8966268,56.9588553 C46.7790396,56.2346932 47.4712076,54.7521637 48.0314968,53.990935 C49.8718155,51.4905727 52.0803279,49.3252395 53.8753865,46.7511344 C53.3809065,45.7019577 52.8862965,44.6525208 52.3919465,43.6033441 C51.8086371,42.2330545 51.5277121,40.6398458 51.1781166,39.0615937 L51.1332466,39.0615937 L51.1332466,39.1514637 C50.4590267,40.7701638 49.7845466,42.3893841 49.1103267,44.0080842 C47.8559187,46.8897761 46.4709326,49.7788813 44.929747,52.4171049 C44.0691542,53.8902702 43.4243273,55.4708634 42.4123471,56.7789853 C42.0228238,57.1686386 41.6331705,57.558422 41.2435172,57.9482054 C37.4274896,60.7332644 36.9237755,54.6620336 37.3776775,51.5177548 L37.3326774,51.5177548 C36.8106252,53.5049088 34.3743814,58.5532346 32.8823577,59.4321656 C32.3340338,59.7550992 31.0326749,59.9041455 30.2300878,59.6569055 C29.2118649,59.343336 28.7052895,58.4785814 28.207168,57.6333353 C26.2752886,54.3552271 26.107774,48.3304269 27.712688,44.4576942 C26.5590748,45.1172176 25.4050714,45.776871 24.2513282,46.4362643 C23.7418916,46.7360477 23.2323249,47.0359611 22.7230183,47.3356144 C23.1379029,48.1848922 23.434825,49.1604562 23.6669782,50.2136647 C23.9299552,51.4068155 23.9823686,53.2964261 23.7568482,54.5755451 C22.6538275,60.8331488 19.9538265,64.7031504 14.8112088,66.8518362 C12.6518582,67.7540475 8.03857596,68.7423572 5.5958293,67.2565762 C2.7600478,65.5316189 2.47834249,60.9512413 3.93264943,57.5884654 C5.66020794,53.5936083 10.6943574,50.7684915 14.3617288,48.5948346 C15.470472,47.9952679 16.5794754,47.3955711 17.6882186,46.7960044 C17.6282619,46.721091 17.5683053,46.6461777 17.5083486,46.5712644 C16.6993887,45.956741 15.8900387,45.3420876 15.0809488,44.7275642 C12.9697196,43.2347601 10.8264962,41.8142682 8.78757915,40.2756838 C6.31452901,38.4096137 3.9577506,36.4012603 2.17946953,33.8452332 C1.27075529,32.5390622 0.551665404,30.9609401 0.156549637,29.1684828 C-0.579317714,25.8295074 2.03991745,21.5881907 3.25829945,19.8601119 C8.9093133,11.8451665 17.8760221,6.90725986 27.667818,3.04207043 C30.0909259,2.08549489 32.6797276,1.51974322 35.4896276,0.928500206 C36.8380674,0.793630209 38.1868974,0.658760212 39.5353373,0.523760157 L39.5353373,0.523760157 Z M37.6024174,38.2071136 C33.9662599,39.9751201 32.1699008,43.7767112 31.3089178,48.2799645 C30.9303193,50.2610058 31.0090043,53.4246631 32.2080077,54.3058051 C33.3916643,53.831354 33.8650749,52.145284 34.3657976,50.9781448 C35.5878212,48.1292274 36.6751049,45.2406425 37.6472874,42.119384 C37.9652788,41.0986899 38.6319554,39.6485448 38.3216374,38.3869836 C38.1013194,38.2707119 37.9726921,38.2073737 37.6024174,38.2071136 L37.6024174,38.2071136 Z M67.0016057,45.2221742 C65.7395242,46.4279406 64.812862,47.6396897 64.0797259,49.4041846 C63.8578472,49.9380721 63.3363152,50.8249366 63.6751159,51.4727548 C65.4912438,50.6843441 66.7081951,49.7979998 67.1814757,47.6504845 C67.3348139,46.9542848 67.413759,45.7214664 67.0016057,45.2221742 L67.0016057,45.2221742 Z M19.8460085,48.6397045 C18.7522219,49.3141846 17.6581752,49.9889247 16.5643887,50.6632747 C13.9716853,52.2973216 11.0369298,54.3997069 9.55179911,57.1387253 C8.94039713,58.2661969 7.82996315,61.3408947 9.2370591,62.4449558 C10.7981435,63.6699707 13.6161071,62.2959095 14.7213388,61.5906057 C17.4962532,59.819868 19.3984794,57.4317457 20.1606184,53.631195 C20.4499972,52.1885933 20.4551995,49.8038524 19.8460085,48.6397045 L19.8460085,48.6397045 Z M55.0890864,49.2693146 C54.2390282,50.5936938 53.0967301,51.7008763 52.1222066,52.9117149 C51.7351544,53.3926689 50.9808188,53.817828 50.7736366,54.4406751 C50.8185066,54.4556317 50.8635066,54.4705884 50.9085066,54.4856751 C52.1897066,54.080805 55.8803584,51.2489252 55.0890864,49.2693146 L55.0890864,49.2693146 Z" id="path-1" fill="#CC6798" sketch:type="MSShapeGroup"></path>
    </g>
</svg>