<?xml version="1.0" encoding="UTF-8" standalone="no"?>
<svg width="215px" height="75px" viewBox="0 0 215 75" version="1.1" xmlns="http://www.w3.org/2000/svg" xmlns:xlink="http://www.w3.org/1999/xlink" xmlns:sketch="http://www.bohemiancoding.com/sketch/ns">
    <!-- Generator: Sketch 3.3.2 (12043) - http://www.bohemiancoding.com/sketch -->
    <title>symfony</title>
    <desc>Created with Sketch.</desc>
    <defs></defs>
    <g id="Page-1" stroke="none" stroke-width="1" fill="none" fill-rule="evenodd" sketch:type="MSPage">
        <g id="symfony" sketch:type="MSLayerGroup" fill="#000000">
            <path d="M37.2926419,74.5167467 C57.6108723,74.5167467 74.0820524,58.0455666 74.0820524,37.7273362 C74.0820524,17.4091059 57.6108723,0.937925764 37.2926419,0.937925764 C16.9744116,0.937925764 0.503231441,17.4091059 0.503231441,37.7273362 C0.503231441,58.0455666 16.9744116,74.5167467 37.2926419,74.5167467 Z M53.3772707,14.5514629 C49.6396507,14.6791485 46.3770961,16.7408952 43.9491921,19.5884716 C41.2612227,22.7148908 39.4717467,26.4187118 38.1826856,30.2013974 C35.8777729,28.3133406 34.0995633,25.8657205 30.4004367,24.8029258 C27.5415939,23.9795415 24.5381659,24.3184716 21.7769651,26.3764629 C20.4691266,27.353821 19.5668777,28.8287773 19.1387555,30.2192358 C18.0299563,33.8263537 20.3048253,37.0382096 21.3394541,38.1911354 L23.601179,40.6124672 C24.0668559,41.0875328 25.189738,42.3268341 24.641441,44.1041048 C24.0499563,46.0372271 21.7196943,47.285917 19.3312227,46.5498472 C18.2637336,46.2212445 16.7324454,45.4279039 17.075131,44.3087773 C17.2168996,43.8524891 17.5445633,43.5069869 17.7220087,43.1154803 C17.8806769,42.7765502 17.9595415,42.5193013 18.0083624,42.3672052 C18.4449345,40.9457642 17.8478166,39.0924454 16.3231004,38.6201965 C14.8988428,38.1845633 13.4436026,38.5310044 12.8784061,40.3617904 C12.2371616,42.4460699 13.2351747,46.225 18.5726201,47.8698908 C24.8263974,49.7917467 30.1159607,46.3864847 30.8661135,41.9447162 C31.3402402,39.1656769 30.0821616,37.0973581 27.783821,34.4403712 L25.9079694,32.3664192 C24.7728821,31.2322707 24.3823144,29.2982096 25.5577729,27.8129258 C26.549214,26.5576638 27.9603275,26.0234498 30.2755677,26.6524891 C33.6526638,27.568821 35.1576638,29.9122271 37.6681878,31.8021616 C36.6326201,35.204607 35.9547598,38.6173799 35.3416812,41.6799563 L34.9651965,43.9613974 C33.1700873,53.3772707 31.799345,58.5504148 28.2372926,61.5172271 C27.52,62.0289083 26.4928821,62.7931441 24.9465721,62.8466594 C24.135393,62.8720087 23.8743886,62.3133843 23.8640611,62.0711572 C23.8452838,61.504083 24.3241048,61.2421397 24.6423799,60.9858297 C25.1193231,60.7257642 25.8394323,60.2948253 25.7896725,58.9175109 C25.7380349,57.2876419 24.3870087,55.8737118 22.4369869,55.9375546 C20.9742358,55.983559 18.74631,57.3608734 18.829869,59.8817249 C18.9171834,62.4833188 21.340393,64.4352183 24.9972707,64.3084716 C26.9519869,64.2427511 31.3158297,63.4503493 35.6167686,58.334476 C40.6227948,52.474083 42.0226419,45.7555677 43.0741703,40.8406114 L44.2515066,34.3455459 C44.9021397,34.4253493 45.6015939,34.4798035 46.3611354,34.4967031 C52.5970742,34.629083 55.7141048,31.4012664 55.7619869,29.0512882 C55.7920306,27.6298472 54.8287555,26.2290611 53.4777293,26.2637991 C52.5135153,26.2900873 51.301441,26.9332096 51.0094541,28.2682751 C50.7249782,29.5779913 52.9932751,30.7609607 51.2216376,31.910131 C49.9626201,32.7250655 47.7037118,33.2987118 44.5247162,32.8330349 L45.1021179,29.6380786 C46.2813319,23.5767686 47.7375109,16.1240611 53.2599127,15.9409825 C53.6626856,15.9222052 55.1338865,15.9597598 55.1686245,16.9324236 C55.1780131,17.2572707 55.0963319,17.3436463 54.7179694,18.0862882 C54.3283406,18.6665066 54.1828166,19.1612882 54.1997162,19.7283624 C54.2541703,21.2746725 55.4305677,22.2924017 57.1336681,22.2323144 C59.4113537,22.1562664 60.0666812,19.9405459 60.0281878,18.7998253 C59.9343013,16.1203057 57.1111354,14.4275328 53.3772707,14.5514629 Z" id="Oval" sketch:type="MSShapeGroup"></path>
            <path d="M169.863144,30.2333188 C175.159279,30.2333188 178.711004,34.0591921 178.711004,39.3534498 C178.711004,44.3406987 175.089803,48.4745197 169.863144,48.4745197 C164.605502,48.4745197 160.980546,44.3416376 160.980546,39.3534498 C160.980546,34.0591921 164.532271,30.2333188 169.863144,30.2333188 L169.863144,30.2333188 Z M169.863144,45.8794978 C173.616725,45.8794978 175.294476,42.4629694 175.294476,39.3534498 C175.294476,36.0401965 173.277795,32.8292795 169.863144,32.8292795 C166.413755,32.8292795 164.398952,36.0401965 164.398952,39.3534498 C164.398952,42.4639083 166.07107,45.8794978 169.863144,45.8794978 Z M160.542096,31.854738 L160.542096,30.6417249 L155.928515,30.6417249 L155.928515,28.9846288 C155.928515,26.6280786 156.271201,24.8508079 159.035218,24.8508079 C159.088734,24.8508079 159.14131,24.8536245 159.194825,24.856441 C159.202336,24.856441 159.200459,24.8479913 159.207969,24.8479913 C159.975961,24.905262 160.612511,24.2781004 160.65476,23.511048 L160.712031,22.4595197 C160.063275,22.3562445 159.376965,22.2539083 158.561092,22.2539083 C153.809498,22.2539083 152.718537,25.0207424 152.718537,29.2587773 L152.718537,30.640786 L148.620393,30.640786 L148.620393,31.9946288 C148.724607,32.6959607 149.322664,33.2339301 150.055917,33.2339301 C150.059672,33.2339301 150.063428,33.2376856 150.067183,33.2376856 L152.718537,33.2376856 L152.718537,48.0642358 L154.488297,48.0642358 C154.492052,48.0642358 154.490175,48.0623581 154.49393,48.0623581 C155.227183,48.0623581 155.830873,47.5121834 155.929454,46.8042795 L155.929454,33.2376856 L159.140371,33.2376856 C159.898974,33.2151528 160.50548,32.610524 160.542096,31.854738 Z M117.767424,30.6417249 C117.76179,30.6417249 117.758035,30.6454803 117.750524,30.6454803 C117.073603,30.6454803 116.419214,31.1120961 116.130983,31.7392576 L111.715502,45.0579913 L111.646026,45.0579913 L107.324432,31.7467686 C107.040895,31.1158515 106.38369,30.6464192 105.701135,30.6464192 C105.694563,30.6464192 105.694563,30.6426638 105.687052,30.6426638 L103.445983,30.6426638 L109.357074,46.9037991 C109.560808,47.4868341 109.971092,48.3740611 109.971092,48.7505459 C109.971092,49.0913537 109.015328,53.0505459 106.145218,53.0505459 C106.071987,53.0505459 106.00345,53.0449127 105.931157,53.0411572 C105.198843,53.0026638 104.643974,53.5105895 104.521921,54.3011135 L104.436485,55.4127293 C105.016703,55.5150655 105.600677,55.6512009 106.624978,55.6512009 C110.859258,55.6512009 112.122031,51.7877729 113.3219,48.4425983 L119.743734,30.6436026 L117.767424,30.6436026 L117.767424,30.6417249 Z M97.3518122,34.1821834 C94.7004585,32.825524 91.7984279,31.903559 91.7477293,29.1733406 C91.7552402,26.2731878 94.4206769,25.5127074 96.4730349,25.5145852 C96.4824236,25.5136463 96.4899345,25.5136463 96.4955677,25.5136463 C97.3874891,25.5136463 98.0991485,25.6028384 98.7976638,25.7549345 C98.8070524,25.7549345 98.8051747,25.744607 98.816441,25.744607 C99.5515721,25.7971834 100.168406,25.2225983 100.256659,24.4977948 L100.314869,23.4434498 C98.969476,23.1101528 97.561179,22.9392795 96.3387773,22.9392795 C91.8725983,22.9665066 88.5584061,25.2132096 88.5480786,29.4991266 C88.5537118,33.2470742 91.0811354,34.698559 93.7972707,36.0139083 C96.458952,37.2954585 99.378821,38.353559 99.4051092,41.4433624 C99.3882096,44.6721179 96.2749345,45.8663537 94.1296288,45.8682314 C92.8743668,45.8663537 91.5111354,45.5508952 90.3610262,45.1837991 C89.6427948,45.066441 89.0531878,45.7029913 88.9621179,46.544214 L88.8635371,47.4830786 C90.4417686,47.9947598 92.0603712,48.4369651 93.6855459,48.4369651 L93.691179,48.4369651 L93.7062009,48.4369651 C98.7075328,48.4003493 102.593493,46.4071397 102.607576,41.2264847 C102.601943,37.2344323 100.055742,35.5566812 97.3518122,34.1821834 Z M145.923974,48.0651747 C145.925852,48.0651747 145.925852,48.0632969 145.927729,48.0632969 C146.622489,48.0632969 147.198952,47.5769651 147.347293,46.9282096 L147.347293,36.8945633 C147.347293,33.1024891 145.742773,30.2323799 141.29631,30.2323799 C139.726528,30.2323799 137.096769,31.1224236 135.903472,33.616048 C134.979629,31.2566812 132.962009,30.2323799 130.949083,30.2323799 C128.388799,30.2323799 126.645328,31.154345 125.413537,33.1710262 L125.347817,33.1710262 L125.347817,32.0866376 C125.33655,31.2895415 124.693428,30.6454803 123.893515,30.6454803 C123.886004,30.6454803 123.882249,30.6417249 123.876616,30.6417249 L122.337817,30.6417249 L122.337817,48.0651747 L124.07941,48.0651747 C124.081288,48.0651747 124.081288,48.0632969 124.083166,48.0632969 C124.887773,48.0632969 125.539345,47.4126638 125.539345,46.6052402 C125.539345,46.585524 125.546856,46.5761354 125.552489,46.5611135 L125.552489,39.2867904 C125.552489,36.0401965 126.852817,32.8283406 130.127576,32.8283406 C132.724476,32.8283406 133.238974,35.5275764 133.238974,37.6794541 L133.238974,48.0651747 L135.001223,48.0651747 C135.0031,48.0651747 135.0031,48.0632969 135.006856,48.0632969 C135.766397,48.0632969 136.380415,47.4783843 136.449891,46.7394978 L136.449891,39.2867904 C136.449891,36.0401965 137.748341,32.8283406 141.028734,32.8283406 C143.621878,32.8283406 144.133559,35.5275764 144.133559,37.6794541 L144.133559,48.0651747 L145.923974,48.0651747 L145.923974,48.0651747 Z M195.543908,48.0651747 C195.547664,48.0651747 195.547664,48.0632969 195.551419,48.0632969 C196.334432,48.0632969 196.963472,47.4436463 196.99821,46.6737773 L196.99821,37.7160699 C196.99821,33.0358297 194.984345,30.2333188 190.472162,30.2333188 C188.051769,30.2333188 185.728079,31.4294323 184.771376,33.4123144 L184.703777,33.4123144 L184.703777,32.1101092 C184.703777,32.1082314 184.700022,32.1082314 184.700022,32.104476 C184.700022,31.2989301 184.047511,30.6454803 183.243843,30.6454803 C183.236332,30.6454803 183.232576,30.6417249 183.226943,30.6417249 L181.589563,30.6417249 L181.589563,48.0651747 L183.357445,48.0651747 C183.357445,48.0651747 183.357445,48.0632969 183.363079,48.0632969 C184.124498,48.0632969 184.744148,47.4708734 184.802358,46.7207205 L184.802358,40.0022052 C184.802358,35.7679258 186.447249,32.8283406 190.100371,32.8283406 C192.901943,33.0001528 193.790109,34.9802183 193.790109,39.0455022 L193.790109,48.0642358 L195.543908,48.0642358 L195.543908,48.0651747 Z M212.832162,30.6417249 C212.826528,30.6417249 212.822773,30.6454803 212.81714,30.6454803 C212.140218,30.6454803 211.482074,31.1120961 211.197598,31.7392576 L206.782118,45.0579913 L206.707009,45.0579913 L202.386354,31.7467686 C202.105633,31.1158515 201.445611,30.6464192 200.766812,30.6464192 C200.759301,30.6464192 200.755546,30.6426638 200.749913,30.6426638 L198.510721,30.6426638 L204.420873,46.9037991 C204.624607,47.4868341 205.036769,48.3740611 205.036769,48.7505459 C205.036769,49.0913537 204.079127,53.0505459 201.208079,53.0505459 C201.138603,53.0505459 201.065371,53.0449127 200.994956,53.0411572 C200.265459,53.0026638 199.711528,53.5105895 199.588537,54.3011135 L199.500284,55.4127293 C200.081441,55.5150655 200.662598,55.6512009 201.687838,55.6512009 C205.925873,55.6512009 207.188646,51.7877729 208.38476,48.4425983 L214.806594,30.6436026 L212.832162,30.6436026 L212.832162,30.6417249 Z" id="Shape" sketch:type="MSShapeGroup"></path>
        </g>
    </g>
</svg>