<?xml version="1.0" encoding="UTF-8" standalone="no"?>
<svg width="500px" height="111px" viewBox="0 0 500 111" version="1.1" xmlns="http://www.w3.org/2000/svg" xmlns:xlink="http://www.w3.org/1999/xlink" xmlns:sketch="http://www.bohemiancoding.com/sketch/ns">
    <!-- Generator: Sketch 3.3.2 (12043) - http://www.bohemiancoding.com/sketch -->
    <title>logo-sportlobster</title>
    <desc>Created with Sketch.</desc>
    <defs></defs>
    <g id="Page-1" stroke="none" stroke-width="1" fill="none" fill-rule="evenodd" sketch:type="MSPage">
        <g id="SL-logo" sketch:type="MSLayerGroup" fill="#FFFFFF">
            <g id="logo-sportlobster" sketch:type="MSShapeGroup">
                <path d="M55.2438163,0 C24.7314488,0 0,24.7349823 0,55.2491166 C0,85.7526502 24.7314488,110.478799 55.2438163,110.478799 C85.7491166,110.478799 110.480565,85.7526502 110.480565,55.2491166 C110.478799,24.7349823 85.7473498,0 55.2438163,0 L55.2438163,0 Z M61.5547703,37.9540636 L63.3904594,37.704947 C62.6590106,39.3462898 63.3144876,40.5 63.3904594,42.1925795 C60.4929329,43.1819788 58.6837456,45.9823322 56.8515901,48.2685512 C55.5759717,47.3374558 54.0176678,46.5547703 52.254417,45.9805654 C55.1607774,41.360424 56.3303887,38.6696113 61.5547703,37.9540636 L61.5547703,37.9540636 Z M62.9787986,55.2685512 C62.6678445,55.2685512 62.3674912,55.2067138 62.0954064,55.0971731 C61.8021201,54.0724382 61.3127208,53.1042403 60.6466431,52.1925795 C60.9487633,51.2137809 61.8710247,50.5053004 62.9787986,50.5053004 C64.335689,50.5053004 65.4257951,51.5671378 65.4257951,52.8816254 C65.4257951,54.1961131 64.335689,55.2685512 62.9787986,55.2685512 L62.9787986,55.2685512 Z M65.4257951,60.4081272 C65.4257951,61.7226148 64.335689,62.7844523 62.9787986,62.7844523 C61.8710247,62.7844523 60.9487633,62.0706714 60.6466431,61.1024735 C61.3127208,60.1855124 61.8021201,59.2084806 62.0954064,58.1943463 C62.3674912,58.0848057 62.6678445,58.0229682 62.9787986,58.0229682 C64.335689,58.0229682 65.4257951,59.0883392 65.4257951,60.4081272 L65.4257951,60.4081272 Z M10.8975265,65.5689046 C9.69257951,63.5353357 9.48233216,59.9787986 10.0141343,56.3657244 C9.48233216,52.7526502 9.69257951,49.1908127 10.8975265,47.1731449 C14.9929329,40.2897527 19.664311,46.3816254 25.3268551,49.0830389 C25.5141343,49.1766784 25.704947,49.2597173 25.8939929,49.3409894 C23.8038869,50.4893993 22.3780919,52.7208481 22.3780919,55.2667845 L22.3780919,57.4717314 C22.3780919,60.3904594 25.9275618,63.7243816 25.459364,63.6007067 C25.4010601,63.6272085 25.3568905,63.6378092 25.3268551,63.6519435 C19.664311,66.3568905 14.9929329,72.4487633 10.8975265,65.5689046 L10.8975265,65.5689046 Z M14.6943463,71.8975265 L14.2738516,71.8975265 L14.2738516,71.7438163 C14.2738516,71.6342756 14.2738516,71.6219081 14.1572438,71.6219081 L14,71.6219081 L14,72.8038869 C14,72.9010601 14.0088339,72.9310954 14.1360424,72.9310954 L14.2208481,72.9310954 L14.2208481,73.2614841 L13.2120141,73.2614841 L13.2120141,72.9310954 L13.3091873,72.9310954 C13.360424,72.9310954 13.4381625,72.9310954 13.4381625,72.844523 L13.4381625,71.6219081 L13.2773852,71.6219081 C13.1660777,71.6219081 13.164311,71.6342756 13.164311,71.7438163 L13.164311,71.8975265 L12.7420495,71.8975265 L12.7420495,71.2243816 L14.6943463,71.2243816 L14.6943463,71.8975265 L14.6943463,71.8975265 Z M17.4893993,71.5547703 C17.3710247,71.5547703 17.344523,71.5547703 17.3162544,71.5795053 C17.2968198,71.6024735 17.2968198,71.614841 17.2968198,71.7208481 L17.2968198,72.770318 C17.2968198,72.909894 17.2968198,72.9328622 17.4399293,72.9328622 L17.4876325,72.9328622 L17.4876325,73.2632509 L16.5618375,73.2632509 L16.5618375,72.9328622 L16.6095406,72.9328622 C16.7438163,72.9328622 16.7438163,72.8939929 16.7438163,72.7932862 L16.7438163,71.5565371 L16.7402827,71.5565371 L16.3127208,73.0706714 L15.8975265,73.0706714 L15.4929329,71.5547703 L15.4876325,71.5547703 L15.4876325,72.7915194 C15.4876325,72.9081272 15.4964664,72.9310954 15.6342756,72.9310954 L15.6731449,72.9310954 L15.6731449,73.2614841 L14.7879859,73.2614841 L14.7879859,72.9310954 L14.8339223,72.9310954 C14.9858657,72.9310954 14.9876325,72.9116608 14.9876325,72.7809187 L14.9876325,71.6943463 C14.9876325,71.5795053 14.9734982,71.5547703 14.8339223,71.5547703 L14.7879859,71.5547703 L14.7879859,71.2243816 L15.885159,71.2243816 C15.9734982,71.54947 16.065371,71.8763251 16.1378092,72.2014134 L16.1431095,72.2014134 C16.155477,72.1342756 16.3215548,71.4911661 16.4045936,71.2243816 L17.4893993,71.2243816 L17.4893993,71.5547703 L17.4893993,71.5547703 Z M32.9151943,78.2720848 C25.885159,77.5936396 36.5477032,75.9628975 39.5971731,74.2968198 C42.3339223,72.8003534 44.3551237,70.5954064 45.4946996,68.1731449 C44.4275618,68.2968198 43.3480565,68.3586572 42.229682,68.3586572 C41.0088339,68.3586572 39.8091873,68.2809187 38.6519435,68.1360424 C34.8498233,73.1007067 28.1678445,74.5706714 24.7279152,74.2438163 C17.6978799,73.5706714 28.3621908,71.9293286 31.4134276,70.2685512 C32.8268551,69.4929329 34.0477032,68.524735 35.065371,67.4363958 C31.7491166,66.5459364 28.9381625,65.065371 26.9452297,63.1925795 C25.0459364,61.9911661 23.7738516,59.8745583 23.7738516,57.4734982 L23.7738516,55.2685512 C23.7738516,52.2349823 25.7968198,49.6466431 28.5600707,48.7932862 C30.3462898,47.5353357 32.5636042,46.5212014 35.065371,45.8533569 C34.0477032,44.7614841 32.8250883,43.7985866 31.4134276,43.0265018 C28.360424,41.3551237 17.6961131,39.7190813 24.7279152,39.0512367 C28.1678445,38.7190813 34.8498233,40.1996466 38.6519435,45.1537102 C39.8091873,45.0088339 41.0088339,44.9310954 42.229682,44.9310954 C43.3480565,44.9310954 44.434629,44.9982332 45.4946996,45.1166078 C44.3551237,42.704947 42.3339223,40.4893993 39.5971731,38.9982332 C36.5459364,37.3268551 25.8833922,35.6908127 32.9151943,35.0229682 C37.2526502,34.6095406 46.7650177,37.0618375 49.1254417,45.7844523 C55.8763251,47.5229682 60.6466431,51.7261484 60.6466431,56.6484099 C60.6466431,61.5600707 55.8763251,65.7738516 49.1254417,67.5123675 C46.7650177,76.2226148 37.2526502,78.6855124 32.9151943,78.2720848 L32.9151943,78.2720848 Z M52.3975265,67.3091873 C54.1590106,66.729682 55.7190813,65.9522968 56.9964664,65.0212014 C58.8321555,67.3091873 62.7402827,69.1925795 65.6448763,70.1766784 C65.5689046,71.8745583 65.409894,73.0229682 66.1413428,74.6749117 L67.1042403,75.9222615 C61.8816254,75.1978799 55.3021201,71.9310954 52.3975265,67.3091873 L52.3975265,67.3091873 Z M66.0194346,43.54947 C66.0194346,43.54947 64.6448763,42.6378092 66.0936396,42.0282686 C67.524735,41.4028269 69.8409894,40.4911661 73.7208481,40.2120141 C73.7208481,40.2120141 75.9010601,39.5176678 77.0088339,41.5159011 C78.1342756,43.4929329 83.4134276,46.5883392 85.2385159,47.1943463 C86.164311,47.5 87.7190813,48.3586572 85.1625442,48.4522968 C82.3374558,48.524735 72.5106007,49.0159011 66.0194346,43.54947 L66.0194346,43.54947 Z M82.5282686,62.2720848 C80.2367491,63.9434629 78.1908127,67.0954064 78.1908127,69.0159011 C78.1908127,70.9310954 77.3886926,71.065371 75.5,71.5989399 C73.590106,72.1325088 69.8674912,72.1325088 68.2491166,71.7279152 C66.6342756,71.3498233 66.5035336,70.7809187 66.9858657,69.6360424 C67.4452297,68.4823322 72.5106007,62.4204947 81.0989399,61.2809187 C81.0989399,61.2844523 84.8427562,60.6007067 82.5282686,62.2720848 L82.5282686,62.2720848 Z M94.8056537,77.9399293 C86.6201413,85.2120141 73.8780919,85.7402827 66.6342756,73.9964664 C66.6342756,73.9964664 66.1236749,72.9452297 68.1448763,73.0795053 C71.8886926,73.3021201 77.9734982,73.229682 82.2862191,69.844523 C86.565371,66.4540636 90.7402827,60.5123675 90.5229682,52.8003534 C90.5229682,52.8003534 89.8498233,50.745583 91.0053004,50.745583 C92.1378092,50.745583 92.6484099,50.9169611 94.5865724,54.6378092 C96.5300353,58.4151943 102.832155,70.8021201 94.8056537,77.9399293 L94.8056537,77.9399293 Z M99.7650177,55.7614841 C99.1996466,55.7614841 99.0035336,54.6219081 98.3056537,53.7332155 C94.7491166,49.0176678 82.4699647,34.1572438 65.7438163,40.9116608 C65.7438163,40.9116608 64.0812721,42.0141343 63.9717314,40.590106 C63.8621908,39.1819788 62.6254417,28.0689046 75.7650177,27.3763251 C88.9363958,26.6731449 102.998233,36.0353357 100.438163,54.0335689 C100.438163,54.0318021 100.326855,55.7614841 99.7650177,55.7614841 L99.7650177,55.7614841 Z" id="Shape"></path>
                <path d="M494.008834,31.139576 L494.008834,32.4840989 L493.162544,32.4840989 L493.162544,32.1749117 C493.162544,31.9611307 493.162544,31.9293286 492.929329,31.9293286 L492.614841,31.9293286 L492.614841,34.2932862 C492.614841,34.4858657 492.632509,34.5512367 492.888693,34.5512367 L493.056537,34.5512367 L493.056537,35.2084806 L491.035336,35.2084806 L491.035336,34.5512367 L491.227915,34.5512367 C491.332155,34.5512367 491.489399,34.5512367 491.489399,34.3763251 L491.489399,31.9293286 L491.167845,31.9293286 C490.946996,31.9293286 490.939929,31.9540636 490.939929,32.1749117 L490.939929,32.4840989 L490.095406,32.4840989 L490.095406,31.139576 L494.008834,31.139576 L494.008834,31.139576 Z" id="Shape"></path>
                <path d="M496.376325,31.139576 C496.551237,31.7844523 496.731449,32.4434629 496.876325,33.090106 L496.888693,33.090106 C496.911661,32.9558304 497.243816,31.6678445 497.411661,31.139576 L499.583039,31.139576 L499.583039,31.795053 C499.344523,31.795053 499.293286,31.795053 499.240283,31.8427562 C499.201413,31.8869258 499.201413,31.9116608 499.201413,32.1272085 L499.201413,34.2243816 C499.201413,34.5035336 499.201413,34.5512367 499.485866,34.5512367 L499.584806,34.5512367 L499.584806,35.2084806 L497.727915,35.2084806 L497.727915,34.5512367 L497.826855,34.5512367 C498.09364,34.5512367 498.09364,34.4699647 498.09364,34.2720848 L498.09364,31.7968198 L498.083039,31.7968198 L497.226148,34.8268551 L496.399293,34.8268551 L495.590106,31.7968198 L495.577739,31.7968198 L495.577739,34.2720848 C495.577739,34.5053004 495.597173,34.5512367 495.869258,34.5512367 L495.95053,34.5512367 L495.95053,35.2084806 L494.180212,35.2084806 L494.180212,34.5512367 L494.273852,34.5512367 C494.577739,34.5512367 494.583039,34.5123675 494.583039,34.2491166 L494.583039,32.0759717 C494.583039,31.844523 494.553004,31.7968198 494.273852,31.7968198 L494.180212,31.7968198 L494.180212,31.1413428 L496.376325,31.1413428 L496.376325,31.139576 Z" id="Shape"></path>
                <path d="M145.669611,51.4911661 L136.512367,51.4911661 L136.512367,50.5954064 C136.512367,49.0565371 136.448763,46.9452297 133.245583,46.9452297 C130.429329,46.9452297 130.236749,48.8674912 130.236749,49.3144876 C130.236749,51.1731449 131.517668,51.6837456 134.782686,53.0300353 C142.786219,56.2314488 147.332155,58.0229682 147.332155,64.4893993 C147.332155,68.2685512 145.411661,71.3409894 143.106007,72.8780919 C141.312721,74.0936396 138.625442,75.245583 132.989399,75.245583 C125.883392,75.245583 121.720848,73.7102473 119.480565,72.9399293 L119.480565,63.975265 L128.701413,63.975265 C128.765018,65.0636042 128.765018,66.2173145 129.212014,67.1130742 C129.660777,67.9452297 130.4947,68.5212014 132.09364,68.5212014 C134.848057,68.5212014 135.29682,66.7279152 135.29682,65.8339223 C135.29682,63.7844523 133.952297,63.2084806 129.982332,61.6060071 C125.372792,59.7491166 119.482332,57.2508834 119.482332,51.0424028 C119.482332,48.9293286 120.314488,40.9257951 133.24735,40.9257951 C135.29682,40.9257951 140.867491,41.2473498 145.669611,43.2314488 L145.669611,51.4911661 L145.669611,51.4911661 Z" id="Shape"></path>
                <path d="M162.957597,42.0123675 C163.404594,43.6130742 163.533569,44.3833922 163.597173,46.3674912 L163.724382,46.3674912 C164.876325,44.3833922 167.05477,41.1166078 172.687279,41.1166078 C182.674912,41.1166078 184.916961,50.7226148 184.916961,57.0600707 C184.916961,65.5106007 181.012367,75.0512367 171.535336,75.0512367 C167.630742,75.0512367 165.388693,73.3869258 163.660777,71.9787986 L163.660777,78.0618375 C163.660777,80.3021201 163.980565,80.9416961 166.862191,80.9416961 L167.95053,80.9416961 L167.95053,87.5371025 L147.784452,87.5371025 L147.784452,80.9416961 C151.305654,80.9416961 151.561837,80.6855124 151.561837,77.7402827 L151.561837,52.2579505 C151.561837,49.5706714 151.305654,49.3127208 147.784452,49.5706714 L147.784452,43.0388693 L162.957597,42.0123675 L162.957597,42.0123675 Z M167.823322,50.6572438 C163.213781,50.6572438 163.14841,57.5724382 163.14841,58.9805654 C163.14841,65.6413428 166.09364,66.729682 167.757951,66.729682 C172.174912,66.729682 172.174912,60.1342756 172.174912,58.4699647 C172.176678,56.8038869 172.176678,50.6572438 167.823322,50.6572438 L167.823322,50.6572438 Z" id="Shape"></path>
                <path d="M216.869258,70.0565371 C214.883392,72.3003534 211.489399,75.2438163 203.551237,75.2438163 C189.977032,75.2438163 187.224382,64.8710247 187.224382,58.7243816 C187.224382,51.2985866 191.003534,40.9257951 204.446996,40.9257951 C215.459364,40.9257951 221.159011,47.4558304 221.159011,56.9328622 C221.159011,61.8621908 220.0053,66.4717314 216.869258,70.0565371 L216.869258,70.0565371 Z M204.254417,48.9275618 C200.157244,48.9275618 199.19788,53.7314488 199.19788,58.4028269 C199.19788,61.2844523 199.581272,67.1130742 204.383392,67.1130742 C208.033569,67.1130742 209.058304,63.4628975 209.058304,57.4434629 C209.056537,55.139576 209.056537,48.9275618 204.254417,48.9275618 L204.254417,48.9275618 Z" id="Shape"></path>
                <path d="M237.229682,41.885159 C237.678445,43.5512367 237.805654,44.3180212 237.805654,47.1996466 L237.932862,47.1996466 C239.021201,45.3427562 241.326855,41.5671378 246.383392,41.5671378 C248.242049,41.5671378 249.457597,42.0795053 250.480565,42.4628975 L250.480565,54.2438163 L243.309187,54.2438163 C243.309187,53.860424 243.309187,53.3480565 243.118375,52.9628975 C242.991166,52.5141343 242.669611,52.1943463 241.966431,52.1943463 C238.25265,52.1943463 237.869258,58.2756184 237.869258,61.2862191 L237.869258,64.5530035 C237.869258,66.6007067 237.996466,67.434629 240.941696,67.434629 L242.286219,67.434629 L242.286219,74.0936396 L222.503534,74.0936396 L222.503534,67.434629 L223.462898,67.434629 C226.024735,67.434629 226.280919,66.6660777 226.280919,64.745583 L226.280919,52.0053004 C226.280919,50.5318021 226.280919,49.3798587 224.424028,49.3798587 L222.503534,49.4452297 L222.503534,42.8498233 L237.229682,41.885159 L237.229682,41.885159 Z" id="Shape"></path>
                <path d="M276.800353,42.0123675 L276.800353,50.4646643 L269.5,50.4646643 L269.5,60.1978799 C269.5,62.6943463 269.5,65.1272085 272.636042,65.1272085 C272.893993,65.1272085 274.558304,65.1272085 276.798587,64.3586572 L276.798587,72.6183746 C275.0053,73.3869258 271.547703,74.7932862 266.810954,74.7932862 C257.141343,74.7932862 257.141343,67.6219081 257.141343,64.3586572 L257.141343,50.4646643 L253.298587,50.4646643 L253.298587,43.2932862 C260.277385,41.3727915 261.814488,35.0971731 262.136042,31.3833922 L269.498233,31.3833922 L269.498233,42.0123675 L276.800353,42.0123675 L276.800353,42.0123675 Z" id="Shape"></path>
                <path d="M295.303887,27.8639576 L295.303887,64.680212 C295.303887,66.8551237 295.303887,67.4328622 298.888693,67.4328622 L298.888693,74.0918728 L279.553004,74.0918728 L279.553004,67.4328622 C283.074205,67.4328622 283.201413,66.9204947 283.201413,64.680212 L283.201413,38.5565371 C283.201413,36.6360424 283.201413,35.5459364 281.344523,35.6113074 L279.102473,35.6113074 L279.102473,29.0176678 L295.303887,27.8639576 L295.303887,27.8639576 Z" id="Shape"></path>
                <path d="M329.367491,70.0565371 C327.381625,72.3003534 323.987633,75.2438163 316.04947,75.2438163 C302.475265,75.2438163 299.722615,64.8710247 299.722615,58.7243816 C299.722615,51.2985866 303.501767,40.9257951 316.94523,40.9257951 C327.957597,40.9257951 333.657244,47.4558304 333.657244,56.9328622 C333.657244,61.8621908 332.503534,66.4717314 329.367491,70.0565371 L329.367491,70.0565371 Z M316.75265,48.9275618 C312.655477,48.9275618 311.696113,53.7314488 311.696113,58.4028269 C311.696113,61.2844523 312.079505,67.1130742 316.881625,67.1130742 C320.531802,67.1130742 321.556537,63.4628975 321.556537,57.4434629 C321.55477,55.139576 321.55477,48.9275618 316.75265,48.9275618 L316.75265,48.9275618 Z" id="Shape"></path>
                <path d="M348.830389,27.8639576 L348.830389,45.5353357 L348.959364,45.5353357 C351.070671,42.5265018 354.146643,41.1166078 357.858657,41.1166078 C366.245583,41.1166078 370.151943,48.2226148 370.151943,56.9946996 C370.151943,64.0371025 366.948763,75.0512367 355.362191,75.0512367 C350.367491,75.0512367 347.742049,72.8763251 346.270318,71.6572438 L344.349823,75.0512367 L336.729682,75.0512367 L336.729682,39.4522968 C336.729682,37.0194346 336.729682,36.1219081 335.768551,35.8038869 C335.256184,35.6130742 334.743816,35.6130742 332.567138,35.7402827 L332.567138,29.2102473 L348.830389,27.8639576 L348.830389,27.8639576 Z M352.734982,66.5989399 C357.090106,66.5989399 357.344523,60.8374558 357.344523,58.0212014 C357.344523,56.5477032 357.344523,50.5300353 353.118375,50.5300353 C348.379859,50.5300353 348.379859,56.869258 348.379859,59.0459364 C348.383392,60.4540636 348.383392,66.5989399 352.734982,66.5989399 L352.734982,66.5989399 Z" id="Shape"></path>
                <path d="M399.286219,51.4911661 L390.128975,51.4911661 L390.128975,50.5954064 C390.128975,49.0565371 390.065371,46.9452297 386.862191,46.9452297 C384.045936,46.9452297 383.853357,48.8674912 383.853357,49.3144876 C383.853357,51.1731449 385.134276,51.6837456 388.399293,53.0300353 C396.402827,56.2314488 400.948763,58.0229682 400.948763,64.4893993 C400.948763,68.2685512 399.028269,71.3409894 396.722615,72.8780919 C394.929329,74.0936396 392.242049,75.245583 386.606007,75.245583 C379.5,75.245583 375.337456,73.7102473 373.097173,72.9399293 L373.097173,63.975265 L382.318021,63.975265 C382.381625,65.0636042 382.381625,66.2173145 382.828622,67.1130742 C383.277385,67.9452297 384.111307,68.5212014 385.710247,68.5212014 C388.464664,68.5212014 388.913428,66.7279152 388.913428,65.8339223 C388.913428,63.7844523 387.568905,63.2084806 383.59894,61.6060071 C378.989399,59.7491166 373.09894,57.2508834 373.09894,51.0424028 C373.09894,48.9293286 373.931095,40.9257951 386.863958,40.9257951 C388.913428,40.9257951 394.484099,41.2473498 399.286219,43.2314488 L399.286219,51.4911661 L399.286219,51.4911661 Z" id="Shape"></path>
                <path d="M425.985866,42.0123675 L425.985866,50.4646643 L418.685512,50.4646643 L418.685512,60.1978799 C418.685512,62.6943463 418.685512,65.1272085 421.821555,65.1272085 C422.079505,65.1272085 423.743816,65.1272085 425.984099,64.3586572 L425.984099,72.6183746 C424.190813,73.3869258 420.733216,74.7932862 415.996466,74.7932862 C406.326855,74.7932862 406.326855,67.6219081 406.326855,64.3586572 L406.326855,50.4646643 L402.484099,50.4646643 L402.484099,43.2932862 C409.462898,41.3727915 411,35.0971731 411.321555,31.3833922 L418.683746,31.3833922 L418.683746,42.0123675 L425.985866,42.0123675 L425.985866,42.0123675 Z" id="Shape"></path>
                <path d="M440.45583,59.9434629 C440.968198,63.7844523 444.169611,66.090106 448.010601,66.090106 C451.980565,66.090106 454.925795,64.8091873 458.510601,63.2084806 L458.510601,71.9805654 C454.989399,73.6431095 450.634276,75.245583 444.80742,75.245583 C437.957597,75.245583 434.309187,73.0689046 432.130742,70.3798587 C428.736749,66.3462898 428.224382,61.4169611 428.224382,58.6625442 C428.224382,50.3392226 432.899293,40.9275618 444.487633,40.9275618 C456.141343,40.9275618 459.726148,48.9293286 459.340989,59.9452297 L440.45583,59.9452297 L440.45583,59.9434629 Z M448.522968,53.9240283 C448.586572,51.9381625 448.010601,47.9699647 444.616608,47.9699647 C442.823322,47.9699647 440.519435,49.3780919 440.326855,53.9240283 L448.522968,53.9240283 L448.522968,53.9240283 Z" id="Shape"></path>
                <path d="M476.825088,41.885159 C477.273852,43.5512367 477.40106,44.3180212 477.40106,47.1996466 L477.528269,47.1996466 C478.616608,45.3427562 480.922261,41.5671378 485.978799,41.5671378 C487.837456,41.5671378 489.053004,42.0795053 490.075972,42.4628975 L490.075972,54.2438163 L482.904594,54.2438163 C482.904594,53.860424 482.904594,53.3480565 482.713781,52.9628975 C482.586572,52.5141343 482.265018,52.1943463 481.561837,52.1943463 C477.848057,52.1943463 477.464664,58.2756184 477.464664,61.2862191 L477.464664,64.5530035 C477.464664,66.6007067 477.591873,67.434629 480.537102,67.434629 L481.881625,67.434629 L481.881625,74.0936396 L462.09894,74.0936396 L462.09894,67.434629 L463.058304,67.434629 C465.620141,67.434629 465.876325,66.6660777 465.876325,64.745583 L465.876325,52.0053004 C465.876325,50.5318021 465.876325,49.3798587 464.019435,49.3798587 L462.09894,49.4452297 L462.09894,42.8498233 L476.825088,41.885159 L476.825088,41.885159 Z" id="Shape"></path>
            </g>
        </g>
    </g>
</svg>