<?xml version="1.0" encoding="utf-8"?>
<!-- Generator: Adobe Illustrator 15.1.0, SVG Export Plug-In . SVG Version: 6.00 Build 0)  -->
<!DOCTYPE svg PUBLIC "-//W3C//DTD SVG 1.1//EN" "http://www.w3.org/Graphics/SVG/1.1/DTD/svg11.dtd">
<svg version="1.1" id="Isolation_Mode" xmlns="http://www.w3.org/2000/svg" xmlns:xlink="http://www.w3.org/1999/xlink" x="0px"
	 y="0px" width="209.089px" height="204.81px" viewBox="0 0 209.089 204.81" enable-background="new 0 0 209.089 204.81"
	 xml:space="preserve">
<g>
	<path fill="#FFFFFF" d="M16.706,182.204c0-4.15-2.202-7.911-6.734-7.911c-6.13,0-8.159,5.749-8.159,14.438
		c0,8.3,1.684,14.525,7.9,14.525c5.957,0,7.381-7.003,7.381-9.424h1.813c0,3.631-1.813,10.893-9.496,10.893
		C2.72,204.724,0,198.803,0,188.816c0-9.682,2.72-15.994,9.885-15.994c7.209,0,8.634,6.355,8.634,9.382H16.706z"/>
	<path fill="#FFFFFF" d="M41.483,188.774c0,13.529-5.569,15.95-9.929,15.95c-5.913,0-9.971-3.976-9.971-15.95
		c0-11.976,4.316-15.951,9.971-15.951C37.684,172.823,41.483,176.798,41.483,188.774 M23.396,188.774
		c0,8.473,1.727,14.48,8.158,14.48c5.655,0,8.116-4.668,8.116-14.48c0-8.344-1.857-14.481-8.116-14.481
		C25.511,174.292,23.396,180.3,23.396,188.774"/>
	<rect x="45.754" y="173.341" fill="#FFFFFF" width="1.813" height="30.865"/>
	<polygon fill="#FFFFFF" points="54.948,173.341 68.374,201.353 68.459,201.353 68.459,173.341 70.272,173.341 70.272,204.206 
		67.898,204.206 54.43,176.195 54.344,176.195 54.344,204.206 52.531,204.206 52.531,173.341 	"/>
	<path fill="#FFFFFF" d="M81.148,173.341h5.094l8.288,30.865H90.56l-2.202-8.474h-9.842l-2.288,8.474h-3.971L81.148,173.341z
		 M79.292,192.622h8.288l-3.928-14.914h-0.087L79.292,192.622z"/>
	<path fill="#FEBC12" d="M95.781,173.341h12.044c6.13,0,8.892,4.106,8.892,9.51c0,6.312-3.583,9.598-10.101,9.598h-2.805v11.758
		h-8.03V173.341z M103.811,186.656h1.51c2.029,0,3.107-1.167,3.107-3.762c0-2.551-1.078-3.76-3.107-3.76h-1.51V186.656z"/>
	<polygon fill="#FEBC12" points="119.263,173.341 127.291,173.341 127.291,184.667 132.212,184.667 132.212,173.341 
		140.241,173.341 140.241,204.206 132.212,204.206 132.212,191.497 127.291,191.497 127.291,204.206 119.263,204.206 	"/>
	<path fill="#FEBC12" d="M154.14,172.736c8.2,0,11.008,4.495,11.008,16.038c0,11.542-2.808,16.036-11.008,16.036
		c-8.201,0-11.009-4.494-11.009-16.036C143.131,177.231,145.938,172.736,154.14,172.736 M154.14,199.365
		c2.461,0,2.72-2.248,2.72-10.591c0-8.344-0.259-10.592-2.72-10.592s-2.721,2.248-2.721,10.592
		C151.419,197.117,151.679,199.365,154.14,199.365"/>
	<polygon fill="#FEBC12" points="172.096,180.171 166.052,180.171 166.052,173.341 186.167,173.341 186.167,180.171 
		180.124,180.171 180.124,204.206 172.096,204.206 	"/>
	<path fill="#FEBC12" d="M198.081,172.736c8.2,0,11.008,4.495,11.008,16.038c0,11.542-2.808,16.036-11.008,16.036
		c-8.202,0-11.009-4.494-11.009-16.036C187.072,177.231,189.879,172.736,198.081,172.736 M198.081,199.365
		c2.46,0,2.719-2.248,2.719-10.591c0-8.344-0.259-10.592-2.719-10.592c-2.461,0-2.722,2.248-2.722,10.592
		C195.359,197.117,195.62,199.365,198.081,199.365"/>
	<path fill="#E2E3E4" d="M165.51,150.043c0,5.538-22.743,10.028-50.799,10.028c-28.054,0-50.796-4.49-50.796-10.028
		c0-5.538,22.743-10.028,50.796-10.028C142.767,140.015,165.51,144.505,165.51,150.043"/>
	<rect x="63.914" y="140.016" fill="none" width="101.596" height="20.056"/>
	<path d="M159.515,111.536l-4.813-51.608c-0.133-1.427-0.443-2.795-0.896-4.057c-0.453-1.269-1.05-2.434-1.755-3.444
		c-0.71-1.019-1.531-1.883-2.426-2.535c-0.903-0.659-1.885-1.103-2.902-1.271l-0.036-0.388c-0.097-1.022-0.332-2.012-0.675-2.927
		c-0.345-0.92-0.797-1.767-1.33-2.502c-0.537-0.739-1.155-1.364-1.824-1.831c-0.675-0.471-1.403-0.783-2.152-0.887l-6.003-0.837
		c-0.204-0.029-0.405-0.043-0.603-0.043c-0.585,0-1.138,0.123-1.643,0.354c-0.094,0.042-0.182,0.098-0.271,0.147
		c0.033-0.018,0.061-0.044,0.095-0.061l-12.503,6.473l-38.503-3.527c-0.462-0.042-0.919-0.063-1.37-0.063
		c-1.626,0-3.173,0.271-4.598,0.781c-1.851,0.661-3.494,1.722-4.837,3.106c-0.267,0.275-0.511,0.571-0.753,0.87
		c0.073-0.095,0.142-0.195,0.22-0.286l-0.871,1.015c-0.088,0.103-0.173,0.203-0.252,0.295c-0.14,0.163-0.315,0.367-0.465,0.543
		l-2.204,2.57c-0.075,0.088-0.146,0.171-0.221,0.258l-1.7,1.983c-0.055,0.064-0.116,0.135-0.166,0.193
		c-0.122,0.144-0.286,0.335-0.409,0.478c-0.052,0.06-0.115,0.134-0.172,0.2l-0.326,0.38c-0.101,0.118-0.204,0.239-0.291,0.341
		c-0.103,0.119-0.222,0.259-0.342,0.398l-0.512,0.598c-0.053,0.062-0.103,0.119-0.156,0.181l-0.804,0.938
		c-0.026,0.03-0.051,0.061-0.077,0.091c-0.026,0.031-0.051,0.062-0.077,0.093c-0.025,0.031-0.05,0.062-0.075,0.093
		c-0.025,0.032-0.05,0.063-0.075,0.095c-0.061,0.077-0.111,0.163-0.17,0.242c-0.115,0.156-0.226,0.313-0.332,0.475
		c-0.046,0.07-0.099,0.135-0.144,0.206c-0.049,0.08-0.089,0.166-0.136,0.247C59.909,59,59.85,59.083,59.8,59.171
		c-0.045,0.082-0.08,0.171-0.123,0.254c-0.041,0.08-0.09,0.155-0.13,0.236c-0.039,0.081-0.067,0.168-0.105,0.25
		c-0.081,0.179-0.157,0.361-0.228,0.545c-0.035,0.09-0.079,0.174-0.112,0.265c-0.029,0.081-0.047,0.167-0.074,0.249
		c-0.029,0.087-0.067,0.17-0.093,0.259c-0.032,0.103-0.05,0.212-0.079,0.316c-0.027,0.099-0.064,0.194-0.088,0.295
		c-0.023,0.094-0.036,0.192-0.056,0.286c-0.03,0.14-0.057,0.28-0.082,0.421c-0.016,0.091-0.039,0.178-0.052,0.27
		c-0.02,0.134-0.027,0.272-0.043,0.407c-0.01,0.092-0.03,0.18-0.038,0.273c-0.004,0.048-0.002,0.098-0.005,0.147
		c-0.005,0.061-0.015,0.12-0.019,0.182c-0.011,0.19-0.007,0.384-0.009,0.577c-0.001,0.123-0.008,0.244-0.005,0.367
		c0,0.031-0.003,0.061-0.002,0.092c0.01,0.35,0.035,0.704,0.077,1.06l7.18,62.099c0.066,0.569,0.17,1.118,0.311,1.645
		c0.141,0.526,0.317,1.03,0.527,1.511c0.209,0.479,0.451,0.935,0.723,1.364c0.271,0.428,0.572,0.831,0.899,1.205
		c3.627,4.148,7.253,8.296,10.88,12.445c-0.055-0.063-0.104-0.132-0.158-0.196c0.873,1.044,1.9,1.909,3.05,2.563
		c1.563,0.889,3.338,1.395,5.224,1.474c0.173,0.007,0.346,0.011,0.521,0.011c1.699,0,3.476-0.344,5.263-1.059l60.592-24.273
		c0.996-0.399,1.905-1.075,2.697-1.951c0.783-0.866,1.454-1.93,1.984-3.121c0.525-1.181,0.915-2.492,1.138-3.864
		C159.59,114.408,159.648,112.974,159.515,111.536"/>
	<path d="M131.651,40.057c0.008-0.006,0.018-0.01,0.025-0.016c-0.015,0.01-0.028,0.02-0.042,0.031
		C131.64,40.067,131.646,40.062,131.651,40.057"/>
	<path d="M131.379,40.301c-0.103,0.093-0.205,0.187-0.301,0.291c-0.018,0.02-0.035,0.041-0.053,0.061
		C131.138,40.528,131.256,40.413,131.379,40.301"/>
	<path d="M130.421,41.474c0.007-0.012,0.016-0.023,0.023-0.035c0.082-0.136,0.165-0.272,0.255-0.397
		c0.053-0.073,0.114-0.134,0.17-0.203c-0.112,0.14-0.219,0.286-0.319,0.441c-0.035,0.053-0.07,0.105-0.105,0.159
		c-0.008,0.014-0.018,0.026-0.026,0.04C130.419,41.477,130.42,41.476,130.421,41.474"/>
	<path d="M129.677,43.318c0.004-0.014,0.005-0.03,0.009-0.044c0.015-0.056,0.032-0.11,0.049-0.165
		c0.002-0.007,0.004-0.012,0.006-0.019C129.719,43.166,129.696,43.241,129.677,43.318c-0.051,0.203-0.087,0.418-0.125,0.632
		c0.026-0.158,0.046-0.32,0.08-0.472C129.645,43.423,129.663,43.372,129.677,43.318"/>
	<polyline points="129.481,44.367 129.481,44.363 129.481,44.371 129.481,44.367 	"/>
	<path d="M129.416,45.268c-0.003,0.091-0.005,0.182-0.005,0.274c0-0.015-0.002-0.032-0.002-0.047c0-0.041-0.001-0.083,0-0.124
		C129.409,45.335,129.415,45.303,129.416,45.268"/>
	<path d="M130.699,41.042c-0.091,0.125-0.173,0.261-0.255,0.398c0.034-0.054,0.07-0.106,0.105-0.16
		c0.11-0.169,0.226-0.331,0.35-0.482c0.058-0.071,0.118-0.138,0.178-0.205c0.126-0.136,0.257-0.262,0.395-0.38
		c0.054-0.047,0.106-0.096,0.163-0.14C131.289,40.341,130.975,40.663,130.699,41.042"/>
	<path d="M129.481,44.37c-0.036,0.291-0.056,0.591-0.065,0.897C129.426,44.961,129.445,44.661,129.481,44.37"/>
	<path d="M129.98,42.381c0.022-0.058,0.045-0.118,0.068-0.175c0.11-0.256,0.234-0.499,0.369-0.727
		c-0.282,0.477-0.51,1.019-0.678,1.612C129.811,42.845,129.891,42.608,129.98,42.381"/>
	<path d="M132.187,39.708c-0.177,0.098-0.347,0.208-0.51,0.333C131.84,39.916,132.011,39.807,132.187,39.708"/>
	<path d="M129.482,44.363c0.006-0.052,0.012-0.105,0.02-0.157c0.043-0.307,0.104-0.602,0.175-0.888
		c-0.014,0.054-0.031,0.105-0.045,0.16C129.567,43.762,129.521,44.059,129.482,44.363"/>
	<path d="M129.458,46.617c-0.036-0.368-0.047-0.725-0.046-1.076C129.411,45.893,129.422,46.249,129.458,46.617"/>
	<path d="M76.676,142.024c0.009,0.025,0.019,0.048,0.028,0.073C76.695,142.072,76.686,142.049,76.676,142.024"/>
	<path d="M66.701,56.426c0-0.137,0.004-0.273,0.005-0.41c0.001-0.076,0.007-0.151,0.008-0.227
		C66.709,56.001,66.697,56.211,66.701,56.426"/>
	<path d="M78.027,144.817c-0.022-0.034-0.047-0.066-0.069-0.101c0.005,0.007,0.008,0.016,0.013,0.023
		C77.988,144.766,78.009,144.79,78.027,144.817"/>
	<path d="M78.896,145.995c-0.065-0.078-0.128-0.158-0.191-0.237C78.768,145.837,78.831,145.917,78.896,145.995"/>
	<path d="M77.191,143.286c0.046,0.099,0.091,0.197,0.139,0.294C77.282,143.483,77.237,143.385,77.191,143.286"/>
	<path d="M67.276,52.031c0.043-0.153,0.085-0.308,0.133-0.458c0.054-0.168,0.115-0.332,0.175-0.496
		c-0.053,0.144-0.118,0.279-0.166,0.425C67.361,51.674,67.326,51.856,67.276,52.031"/>
	<path d="M67.014,53.064c0.036-0.176,0.081-0.348,0.125-0.521c-0.065,0.265-0.127,0.53-0.178,0.802
		C66.979,53.251,66.995,53.157,67.014,53.064"/>
	<path d="M67.928,50.216c0.076-0.171,0.158-0.339,0.241-0.506c-0.143,0.288-0.273,0.583-0.396,0.884
		C67.824,50.468,67.873,50.34,67.928,50.216"/>
	<path d="M68.576,48.946c0.098-0.169,0.2-0.334,0.304-0.498c-0.162,0.255-0.313,0.517-0.46,0.784
		C68.473,49.137,68.522,49.04,68.576,48.946"/>
	<path d="M69.344,47.772c0.121-0.165,0.249-0.325,0.374-0.486c-0.17,0.209-0.329,0.426-0.485,0.646
		C69.271,47.88,69.306,47.825,69.344,47.772"/>
	<path d="M76.221,140.337c0.025,0.116,0.05,0.231,0.077,0.346C76.271,140.569,76.246,140.453,76.221,140.337"/>
	<path d="M66.793,54.485c0.014-0.13,0.035-0.257,0.052-0.386c-0.035,0.26-0.07,0.519-0.091,0.784
		C66.766,54.75,66.779,54.617,66.793,54.485"/>
	<path fill="#FFFFFF" d="M70.876,52.643c0.466-1.418,1.208-2.658,2.204-3.684c0.968-0.997,2.129-1.742,3.451-2.214
		c1.055-0.377,2.19-0.568,3.374-0.568c0.341,0,0.691,0.016,1.038,0.048l32.863,3.01l9.02,0.826l6.339,0.581l4.39,0.402l-0.435-4.392
		l-0.038-0.394c-0.069-0.701-0.036-1.379,0.099-1.959c0.132-0.572,0.325-0.922,0.467-1.116c0.107-0.15,0.225-0.261,0.321-0.304
		c0.027-0.013,0.063-0.025,0.132-0.025c0.029,0,0.064,0.002,0.101,0.007l6.003,0.837c0.072,0.01,0.271,0.056,0.571,0.267
		c0.327,0.228,0.659,0.569,0.961,0.985c0.343,0.471,0.642,1.037,0.866,1.636c0.241,0.642,0.395,1.313,0.46,1.992l0.036,0.389
		l0.266,2.795l2.767,0.458c0.423,0.069,0.891,0.284,1.353,0.621c0.553,0.404,1.101,0.982,1.583,1.674
		c0.528,0.758,0.97,1.628,1.312,2.586c0.362,1.01,0.597,2.075,0.698,3.167l0.594,6.375l-80.126,0.88l-1.127-9.933
		C70.217,55.84,70.372,54.177,70.876,52.643"/>
	<path d="M68.928,48.372c0.097-0.15,0.201-0.294,0.305-0.439c-0.12,0.169-0.239,0.34-0.352,0.515
		C68.896,48.423,68.912,48.397,68.928,48.372"/>
	<path d="M68.223,49.596c0.063-0.124,0.131-0.243,0.198-0.364c-0.087,0.158-0.172,0.316-0.252,0.478
		C68.187,49.673,68.204,49.633,68.223,49.596"/>
	<path d="M67.194,52.313c0.025-0.095,0.055-0.187,0.082-0.281c0.05-0.175,0.085-0.357,0.141-0.529
		c0.048-0.146,0.114-0.282,0.167-0.425c0.02-0.054,0.037-0.11,0.057-0.164c0.042-0.108,0.088-0.213,0.132-0.32
		c-0.066,0.16-0.13,0.321-0.189,0.484c-0.06,0.164-0.121,0.328-0.175,0.495c-0.049,0.151-0.09,0.305-0.133,0.459
		c-0.049,0.169-0.095,0.339-0.137,0.511C67.158,52.467,67.174,52.389,67.194,52.313"/>
	<path d="M66.911,53.607c0.015-0.088,0.033-0.175,0.049-0.263c-0.046,0.248-0.081,0.501-0.115,0.755
		C66.866,53.935,66.884,53.77,66.911,53.607"/>
	<path d="M66.739,55.03c0.004-0.049,0.01-0.098,0.015-0.147c-0.025,0.298-0.034,0.601-0.04,0.906
		C66.718,55.535,66.721,55.28,66.739,55.03"/>
	<path d="M66.7,56.498c-0.001-0.024,0.001-0.047,0.001-0.071c0.009,0.518,0.036,1.042,0.097,1.575
		C66.74,57.493,66.711,56.992,66.7,56.498"/>
	<path d="M76.372,141.014c-0.028-0.108-0.048-0.222-0.074-0.331c0.109,0.459,0.231,0.909,0.379,1.34
		C76.564,141.695,76.462,141.359,76.372,141.014"/>
	<path d="M77.032,142.951c-0.119-0.277-0.226-0.563-0.328-0.854c0.144,0.411,0.309,0.805,0.487,1.189
		C77.139,143.173,77.081,143.066,77.032,142.951"/>
	<path d="M77.971,144.739c-0.005-0.007-0.008-0.016-0.013-0.023c-0.007-0.012-0.016-0.023-0.023-0.034
		c-0.22-0.351-0.417-0.722-0.605-1.102c0.194,0.393,0.4,0.775,0.628,1.136c0.022,0.035,0.047,0.066,0.069,0.101
		C78.01,144.79,77.988,144.766,77.971,144.739"/>
	<path fill="#FFFFFF" d="M155.772,115.188c-0.172,1.058-0.465,2.056-0.869,2.966c-0.378,0.847-0.847,1.593-1.358,2.158
		c-0.438,0.484-0.904,0.834-1.351,1.013l-60.592,24.273c-1.322,0.529-2.638,0.798-3.911,0.798c-0.123,0-0.246-0.003-0.369-0.008
		c-1.301-0.054-2.504-0.391-3.577-1.001c-1.09-0.62-1.998-1.496-2.699-2.603c-0.776-1.223-1.263-2.673-1.449-4.307L78.51,128.9
		l76.963-21.486l0.416,4.462C155.991,112.973,155.952,114.087,155.772,115.188"/>
	<polygon fill="#FEBC12" points="110.72,90.426 91.625,92.931 92.627,112.19 90.126,93.068 70.895,94.073 89.99,91.568 
		88.987,72.308 91.488,91.431 	"/>
	<polygon fill="#FEBC12" points="186.481,33.505 159.657,37.024 161.066,64.078 157.554,37.216 130.536,38.628 157.36,35.109 
		155.951,8.054 159.465,34.916 	"/>
	<polygon fill="#FEBC12" points="134.304,0 142.863,45.626 172.344,46.483 143.836,54.997 144.829,100.348 136.27,56.199 
		88.73,57.55 135.236,46.434 	"/>
	<path fill="#FFFFFF" d="M109.748,81.626c0.142-2.311,0.457-3.92,0.457-3.92l12.053-1.039l-0.244,3.394l-12.188,1.554
		L109.748,81.626z"/>
	<path fill="#FFFFFF" d="M161.534,84.403c-0.518-3.974-1.506-7.726-2.852-11.121c-1.354-3.413-3.075-6.483-5.059-9.063
		c-0.065-0.086-0.135-0.167-0.2-0.252c-0.577,0.664-1.213,1.416-1.891,2.242c5.723,7.27,7.307,17.442,7.307,17.442
		c2.645,17.411-3.925,24.569-8.078,27.294c5.225-4.501,8.118-14.765,6.781-26.247c-1.728-14.832-9.854-26.073-18.153-25.106
		c-8.299,0.966-13.627,13.773-11.9,28.605c1.129,9.698,4.995,17.859,9.856,22.078c-0.415-0.361-0.824-0.747-1.225-1.163
		c0.568,2.17,1.441,4.303,2.669,6.372c0.041,0.019,0.082,0.043,0.123,0.061c0.42,0.185,0.844,0.348,1.269,0.493
		c0.202,0.068,0.405,0.118,0.606,0.177c0.223,0.065,0.444,0.137,0.667,0.191c0.263,0.064,0.525,0.107,0.789,0.155
		c0.164,0.03,0.328,0.068,0.493,0.092c0.283,0.041,0.567,0.062,0.852,0.085c0.193,0.016,0.389,0.044,0.584,0.052
		c0.927,0.034,1.856-0.022,2.783-0.19c2.658-0.485,5.042-1.78,7.083-3.695c2.013-1.888,3.695-4.383,4.983-7.307
		c1.272-2.892,2.164-6.216,2.602-9.804C162.063,92.226,162.058,88.379,161.534,84.403 M145.59,113.307
		c-0.22,0.024-0.438,0.039-0.657,0.046C145.151,113.346,145.37,113.331,145.59,113.307 M137.496,110.402
		c0.169,0.143,0.34,0.282,0.511,0.416C137.836,110.684,137.665,110.545,137.496,110.402 M138.183,110.953
		c0.179,0.136,0.36,0.266,0.541,0.391C138.543,111.219,138.361,111.089,138.183,110.953 M138.853,111.434
		c0.229,0.155,0.461,0.302,0.695,0.439C139.313,111.736,139.082,111.589,138.853,111.434 M139.554,111.877
		c0.223,0.131,0.448,0.251,0.673,0.366C140.002,112.128,139.776,112.008,139.554,111.877 M140.404,112.329
		c0.173,0.084,0.348,0.163,0.521,0.238C140.752,112.492,140.577,112.413,140.404,112.329 M141.129,112.651
		c0.18,0.072,0.359,0.138,0.541,0.2C141.488,112.789,141.309,112.723,141.129,112.651 M141.833,112.907
		c0.238,0.077,0.478,0.146,0.718,0.203C142.311,113.053,142.071,112.984,141.833,112.907 M142.554,113.111
		c0.231,0.055,0.466,0.099,0.699,0.136C143.02,113.21,142.785,113.166,142.554,113.111 M143.459,113.275
		c0.169,0.023,0.338,0.042,0.507,0.055C143.797,113.317,143.628,113.298,143.459,113.275 M144.208,113.346
		c0.164,0.008,0.329,0.01,0.494,0.009C144.537,113.356,144.372,113.354,144.208,113.346 M146.754,113.091
		c0.1-0.026,0.2-0.049,0.301-0.078C146.954,113.043,146.854,113.065,146.754,113.091 M145.859,113.268
		c0.166-0.024,0.332-0.047,0.495-0.081C146.191,113.221,146.025,113.244,145.859,113.268 M149.565,111.844
		c-0.002,0.001-0.004,0.003-0.006,0.004C149.562,111.847,149.563,111.845,149.565,111.844 M148.989,112.192
		c-0.027,0.017-0.057,0.033-0.086,0.049C148.933,112.225,148.962,112.209,148.989,112.192 M148.374,112.51
		c-0.051,0.025-0.103,0.047-0.154,0.071C148.271,112.557,148.323,112.534,148.374,112.51 M147.729,112.786
		c-0.074,0.028-0.148,0.052-0.222,0.078C147.58,112.839,147.654,112.814,147.729,112.786"/>
	<path d="M131.522,58.229c1.18-0.829,2.444-1.455,3.774-1.871c-3.642,0.811-7.282,1.622-10.92,2.432
		c-0.049,0.011-0.096,0.022-0.142,0.032c-0.046,0.011-0.093,0.023-0.14,0.035c-0.046,0.01-0.091,0.022-0.138,0.033
		c-0.047,0.013-0.093,0.024-0.139,0.038c-0.059,0.015-0.115,0.036-0.175,0.052c-0.137,0.039-0.274,0.082-0.409,0.125
		c-0.089,0.028-0.179,0.051-0.267,0.082c-0.064,0.021-0.125,0.047-0.188,0.071c-0.135,0.048-0.268,0.099-0.401,0.151
		c-0.08,0.032-0.164,0.059-0.245,0.093c-0.067,0.028-0.132,0.062-0.199,0.091c-0.133,0.057-0.265,0.117-0.396,0.178
		c-0.072,0.035-0.147,0.066-0.222,0.102c-0.069,0.035-0.138,0.074-0.207,0.11c-0.13,0.068-0.26,0.138-0.389,0.209
		c-0.067,0.035-0.135,0.069-0.2,0.107c-0.063,0.035-0.121,0.076-0.183,0.112c-0.181,0.108-0.361,0.221-0.539,0.338
		c-0.068,0.045-0.142,0.083-0.209,0.13c-0.041,0.028-0.081,0.061-0.122,0.09c-0.188,0.129-0.372,0.267-0.558,0.405
		c-0.071,0.055-0.146,0.103-0.219,0.159c-0.022,0.018-0.045,0.039-0.067,0.057c-0.233,0.185-0.461,0.379-0.687,0.577
		c-0.037,0.033-0.076,0.062-0.113,0.095c-0.005,0.003-0.008,0.008-0.012,0.012c-0.005,0.003-0.009,0.007-0.012,0.01
		c-0.262,0.236-0.519,0.482-0.769,0.738c-0.014,0.014-0.027,0.026-0.041,0.038c-0.075,0.078-0.146,0.16-0.219,0.239
		c-0.16,0.167-0.317,0.337-0.472,0.512c-0.095,0.108-0.188,0.221-0.28,0.332c-0.142,0.169-0.283,0.336-0.42,0.512
		c-0.022,0.029-0.043,0.057-0.065,0.084l11.527-1.9C128.419,60.777,129.739,59.478,131.522,58.229"/>
	<path d="M145.185,116.962c-0.072,0.002-0.145,0.004-0.216,0.003c-0.261,0.002-0.521-0.004-0.779-0.018
		c-0.031-0.002-0.061-0.001-0.09-0.002c-0.01,0-0.019-0.001-0.027-0.003c-0.027-0.001-0.055-0.005-0.083-0.007
		c-0.129-0.007-0.257-0.029-0.385-0.039c-0.285-0.023-0.569-0.044-0.853-0.085c-0.165-0.024-0.329-0.063-0.494-0.093
		c-0.264-0.048-0.527-0.091-0.789-0.155c-0.225-0.054-0.446-0.127-0.669-0.192c-0.202-0.059-0.405-0.109-0.607-0.177
		c-0.426-0.145-0.85-0.309-1.27-0.494c-0.042-0.018-0.082-0.042-0.124-0.06c-1.723-0.774-3.392-1.875-4.972-3.262l-12.642,0.976
		c0.055,0.047,0.109,0.095,0.163,0.141c0.239,0.208,0.478,0.409,0.719,0.603c0.026,0.021,0.051,0.044,0.078,0.064
		c0.262,0.207,0.528,0.407,0.796,0.601c0.066,0.049,0.135,0.098,0.203,0.145c0.078,0.055,0.155,0.112,0.233,0.165
		c0.174,0.12,0.35,0.235,0.524,0.347c0.023,0.015,0.045,0.03,0.066,0.043c0.273,0.174,0.549,0.339,0.828,0.497
		c0.067,0.038,0.136,0.076,0.203,0.113c0.271,0.151,0.546,0.295,0.821,0.43c0.007,0.004,0.015,0.008,0.023,0.012
		c0,0,0.002,0.001,0.005,0.002c0.28,0.136,0.561,0.262,0.844,0.381c0.071,0.031,0.141,0.058,0.211,0.087
		c0.27,0.109,0.538,0.211,0.811,0.305c0.016,0.007,0.033,0.013,0.05,0.018c0.222,0.076,0.442,0.147,0.663,0.212
		c0.064,0.019,0.132,0.035,0.195,0.053c0.071,0.019,0.143,0.039,0.215,0.057c0.273,0.072,0.549,0.138,0.824,0.193
		c0.017,0.003,0.032,0.008,0.048,0.011c0.289,0.057,0.577,0.104,0.866,0.142c0.074,0.01,0.148,0.02,0.221,0.028
		c0.283,0.034,0.566,0.061,0.85,0.078c0.01,0.001,0.021,0.002,0.028,0.002c0.293,0.017,0.584,0.021,0.876,0.018
		c0.074-0.001,0.146-0.002,0.22-0.005c0.294-0.007,0.586-0.021,0.88-0.048c2.116-0.193,4.231-0.386,6.346-0.58
		c2.021-0.184,4.041-0.369,6.062-0.554C145.768,116.944,145.475,116.956,145.185,116.962"/>
	<path d="M125.548,100.464c-1.6-3.731-2.759-7.919-3.33-12.385c-0.09-0.709-0.157-1.412-0.217-2.112l-12.277,0.947
		c0.005,0.099,0.008,0.196,0.014,0.294c0.001,0.027,0.002,0.053,0.003,0.08c0.01,0.142,0.026,0.284,0.036,0.425
		c0.026,0.353,0.054,0.706,0.088,1.061c0.005,0.054,0.009,0.108,0.015,0.162c0.01,0.094,0.019,0.187,0.029,0.282
		c0.009,0.093,0.02,0.188,0.03,0.281c0.012,0.095,0.022,0.188,0.034,0.281c0.011,0.096,0.022,0.189,0.034,0.283
		c0.047,0.38,0.101,0.756,0.157,1.132c0.014,0.088,0.031,0.176,0.044,0.264c0.022,0.134,0.044,0.266,0.066,0.398
		c0.024,0.151,0.048,0.304,0.075,0.455c0.035,0.206,0.076,0.406,0.114,0.61c0.022,0.114,0.044,0.229,0.064,0.342
		c0.012,0.051,0.02,0.102,0.03,0.153c0.074,0.366,0.153,0.729,0.235,1.09c0.006,0.028,0.015,0.054,0.021,0.082
		c0.04,0.169,0.083,0.337,0.124,0.506c0.062,0.25,0.119,0.502,0.185,0.751c0.013,0.052,0.029,0.102,0.042,0.154
		c0.052,0.191,0.107,0.381,0.159,0.571c0.057,0.196,0.107,0.396,0.165,0.589c0.021,0.076,0.048,0.15,0.071,0.225
		c0.058,0.195,0.121,0.389,0.181,0.584c0.051,0.158,0.098,0.321,0.151,0.478c0.032,0.1,0.068,0.199,0.103,0.298
		c0.064,0.192,0.131,0.383,0.198,0.572c0.047,0.13,0.089,0.26,0.135,0.388c0.04,0.108,0.085,0.214,0.124,0.322
		c0.096,0.253,0.192,0.505,0.292,0.754c0.047,0.12,0.091,0.241,0.139,0.359c0.038,0.095,0.081,0.185,0.121,0.278
		c0.041,0.103,0.079,0.205,0.122,0.307c0.063,0.145,0.129,0.283,0.192,0.427c0.056,0.125,0.105,0.255,0.163,0.38
		c0.036,0.079,0.075,0.155,0.111,0.233c0.111,0.243,0.227,0.481,0.342,0.719c0.063,0.131,0.124,0.264,0.187,0.392
		c0.032,0.065,0.066,0.124,0.099,0.189c0.12,0.238,0.244,0.472,0.369,0.705c0.072,0.135,0.141,0.271,0.212,0.403
		c0.024,0.045,0.051,0.085,0.073,0.127c0.265,0.475,0.535,0.943,0.815,1.397c0.037,0.062,0.077,0.12,0.115,0.182
		c0.245,0.392,0.496,0.777,0.754,1.152c0.091,0.134,0.185,0.265,0.276,0.397c0.086,0.122,0.175,0.238,0.264,0.359l12.037-1.762
		C127.788,105.063,126.577,102.864,125.548,100.464"/>
	<path fill="#E3BA32" d="M143.989,116.935c0.028,0.002,0.055,0.007,0.083,0.008c0.009,0.001,0.018,0.003,0.027,0.003
		c0.028,0.001,0.059,0,0.09,0.002c-0.196-0.008-0.39-0.036-0.585-0.052C143.732,116.907,143.86,116.928,143.989,116.935"/>
	<path fill="#E3BA32" d="M142.258,116.719c0.165,0.03,0.329,0.069,0.494,0.093C142.587,116.788,142.423,116.749,142.258,116.719"/>
	<path fill="#E3BA32" d="M138.922,115.701c0.421,0.185,0.846,0.349,1.271,0.494C139.768,116.05,139.343,115.886,138.922,115.701"/>
	<path fill="#E3BA32" d="M140.8,116.372c0.224,0.065,0.445,0.138,0.668,0.192C141.245,116.51,141.023,116.437,140.8,116.372"/>
	<path fill="#FEBC12" d="M148.053,94.402c-0.005-0.08-0.008-0.152-0.014-0.235c-0.003-0.045-0.009-0.096-0.013-0.142
		c0.001,0.005,0.001,0.01,0.001,0.015C148.038,94.165,148.045,94.284,148.053,94.402"/>
	<path fill="#FEBC12" d="M147.827,98.105c0.023-0.065,0.046-0.135,0.066-0.207c-0.013,0.045-0.024,0.092-0.039,0.134
		C147.846,98.058,147.836,98.082,147.827,98.105"/>
	<path fill="#FEBC12" d="M133.443,85.471c0.04,0.339,0.082,0.682,0.128,1.033C133.525,86.153,133.484,85.812,133.443,85.471"/>
	<path fill="#FEBC12" d="M147.715,90.978c-0.004-0.037-0.009-0.074-0.014-0.111c0.001,0.004,0.001,0.009,0.002,0.013
		C147.707,90.913,147.711,90.944,147.715,90.978"/>
	<path fill="#FEBC12" d="M147.7,98.397c0.019-0.034,0.034-0.076,0.051-0.113c-0.01,0.021-0.019,0.044-0.029,0.064
		C147.714,98.363,147.707,98.381,147.7,98.397"/>
	<path fill="#FEBC12" d="M147.88,92.434c-0.019-0.168-0.035-0.336-0.056-0.512c0.011,0.094,0.021,0.189,0.031,0.282
		C147.863,92.282,147.872,92.357,147.88,92.434"/>
	<path fill="#FEBC12" d="M147.98,93.474c-0.015-0.166-0.029-0.334-0.047-0.508c0.007,0.068,0.015,0.137,0.021,0.204
		C147.964,93.274,147.972,93.373,147.98,93.474"/>
	<path fill="#FEBC12" d="M134.115,70.468c-0.014,0.031-0.026,0.063-0.04,0.094c0.102-0.23,0.208-0.453,0.324-0.664
		c-0.025,0.044-0.053,0.085-0.077,0.131C134.249,70.169,134.184,70.321,134.115,70.468"/>
	<path fill="#FEBC12" d="M135.323,68.577c0.146-0.166,0.304-0.321,0.465-0.47c-0.11,0.098-0.221,0.195-0.323,0.302
		C135.415,68.461,135.37,68.52,135.323,68.577"/>
	<path fill="#FEBC12" d="M148.054,97.09c0.005-0.04,0.006-0.089,0.01-0.13c-0.005,0.059-0.01,0.119-0.017,0.175
		C148.049,97.12,148.052,97.106,148.054,97.09"/>
	<path fill="#FEBC12" d="M136.17,67.764c-0.028,0.022-0.053,0.047-0.079,0.071c0.207-0.169,0.428-0.322,0.657-0.466
		c-0.033,0.023-0.067,0.045-0.102,0.068C136.484,67.542,136.321,67.646,136.17,67.764"/>
	<path fill="#FEBC12" d="M147.22,98.929c-0.117,0.077-0.247,0.134-0.389,0.176c0.274-0.08,0.506-0.216,0.688-0.435
		c0.024-0.03,0.044-0.069,0.067-0.101c-0.093,0.13-0.195,0.241-0.313,0.328C147.256,98.909,147.236,98.918,147.22,98.929"/>
	<path fill="#FEBC12" d="M147.997,97.45c-0.011,0.068-0.022,0.136-0.036,0.198C147.975,97.586,147.985,97.517,147.997,97.45"/>
	<path fill="#FEBC12" d="M134.126,90.327c0.12,0.736,0.245,1.441,0.376,2.121C134.371,91.768,134.246,91.063,134.126,90.327"/>
	<path fill="#FEBC12" d="M137.561,66.93c-0.202,0.094-0.405,0.186-0.594,0.295c-0.003,0.001-0.005,0.003-0.008,0.005
		c0.302-0.175,0.624-0.329,0.963-0.466c-0.02,0.008-0.043,0.013-0.063,0.021C137.755,66.829,137.662,66.883,137.561,66.93"/>
	<path fill="#FEBC12" d="M134.644,69.487c0.12-0.189,0.246-0.37,0.379-0.543c-0.058,0.073-0.118,0.142-0.174,0.219
		C134.777,69.266,134.711,69.377,134.644,69.487"/>
	<path fill="#FEBC12" d="M148.088,95.005c0.002,0.059,0.004,0.117,0.006,0.174C148.091,95.121,148.091,95.065,148.088,95.005"/>
	<path fill="#FEBC12" d="M149.047,105.77c0.021-0.004,0.04-0.01,0.061-0.014c-0.27,0.055-0.544,0.099-0.819,0.135
		c0.056-0.007,0.112-0.012,0.169-0.02C148.654,105.842,148.852,105.809,149.047,105.77"/>
	<path fill="#FEBC12" d="M148.102,105.914c-0.279,0.033-0.562,0.06-0.846,0.076c0.201-0.011,0.402-0.027,0.602-0.046
		C147.939,105.936,148.02,105.923,148.102,105.914"/>
	<path fill="#FEBC12" d="M140.448,104.604c-0.706-0.445-1.341-0.999-1.914-1.667C139.107,103.605,139.742,104.159,140.448,104.604"
		/>
	<polyline fill="#FEBC12" points="142.479,72.813 142.486,72.811 142.479,72.813 	"/>
	<path fill="#FEBC12" d="M148.106,95.649c0.001,0.105,0.002,0.209,0.002,0.309C148.108,95.858,148.108,95.755,148.106,95.649"/>
	<path fill="#FEBC12" d="M144.376,73.337c0.067,0.074,0.132,0.155,0.194,0.245C144.508,73.492,144.443,73.411,144.376,73.337"/>
	<path fill="#FEBC12" d="M148.102,96.329c-0.003,0.094-0.006,0.187-0.011,0.276C148.096,96.516,148.099,96.423,148.102,96.329"/>
	<path fill="#FEBC12" d="M143.948,72.985c0.149,0.087,0.288,0.201,0.419,0.344C144.236,73.186,144.098,73.072,143.948,72.985"/>
	<path fill="#E19D25" d="M140.789,59.362c0,0,0.305,0.098,0.826,0.33c1.656,0.735,5.535,2.847,9.09,7.655
		c0.176-0.221,0.352-0.439,0.522-0.65c0.113-0.14,0.224-0.274,0.335-0.41C148.929,62.942,145.422,60.209,140.789,59.362"/>
	<path fill="#FEBC12" d="M158.88,83.756c0,0-1.587-10.188-7.318-17.469c-0.11,0.135-0.221,0.269-0.334,0.409
		c-0.172,0.212-0.347,0.43-0.522,0.65c2.771,3.747,5.342,9.129,6.503,16.775c0,0,4.145,19.349-9.52,28.495
		c0,0,1.322-0.36,3.076-1.507C154.924,108.393,161.533,101.229,158.88,83.756"/>
	<path fill="#FEBC12" d="M145.854,78.318c-0.036-0.273-0.071-0.533-0.109-0.782c-0.075-0.498-0.155-0.949-0.24-1.357
		c-0.042-0.204-0.086-0.397-0.132-0.58c-0.045-0.183-0.091-0.355-0.141-0.517c-0.014-0.047-0.028-0.087-0.043-0.132
		c-0.698,1.067-1.393,2.176-2.07,3.322c0.036,0.244,0.071,0.498,0.106,0.765l0.28,2.147l7.738-0.364l2.635-0.713l-7.743,0.362
		L145.854,78.318z"/>
	<path d="M144.752,73.876c-0.059-0.107-0.118-0.205-0.182-0.294c-0.063-0.09-0.127-0.172-0.194-0.245
		c-0.003-0.003-0.006-0.006-0.009-0.009c-0.131-0.143-0.27-0.257-0.419-0.344c-0.303-0.177-0.645-0.243-1.033-0.226
		c-0.152,0.006-0.295,0.024-0.429,0.052c-0.002,0.001-0.005,0.002-0.008,0.002c-0.401,0.088-0.715,0.281-0.951,0.611
		c-0.064,0.091-0.12,0.199-0.173,0.311c0.29,0.178,0.545,0.458,0.771,0.868c0.235,0.426,0.438,0.99,0.619,1.719
		c0.138,0.552,0.26,1.198,0.373,1.95c0.678-1.145,1.372-2.255,2.072-3.322C145.056,74.524,144.911,74.166,144.752,73.876"/>
	<path fill="#FEBC12" d="M146.831,99.105c0.141-0.042,0.272-0.099,0.388-0.176c0.019-0.011,0.036-0.02,0.054-0.032
		c0.118-0.087,0.221-0.198,0.313-0.328c0.039-0.056,0.079-0.108,0.114-0.172c0.007-0.016,0.014-0.034,0.021-0.049
		c0.011-0.02,0.02-0.043,0.029-0.064c0.026-0.057,0.052-0.115,0.076-0.178c0.009-0.025,0.019-0.048,0.028-0.073
		c0.014-0.042,0.025-0.089,0.039-0.134c0.023-0.081,0.047-0.161,0.066-0.251c0.014-0.062,0.025-0.13,0.036-0.198
		c0.018-0.101,0.036-0.203,0.049-0.315c0.007-0.056,0.012-0.116,0.018-0.175c0.011-0.114,0.02-0.231,0.026-0.355
		c0.005-0.089,0.009-0.182,0.012-0.276c0.004-0.119,0.006-0.242,0.007-0.37c0-0.1-0.001-0.205-0.002-0.309
		c-0.002-0.152-0.007-0.308-0.013-0.471c-0.002-0.057-0.004-0.114-0.006-0.174c-0.009-0.19-0.021-0.396-0.035-0.602
		c-0.008-0.119-0.016-0.238-0.024-0.363c-0.001-0.005-0.001-0.01-0.001-0.014c-0.015-0.177-0.03-0.364-0.046-0.552
		c-0.01-0.101-0.019-0.2-0.027-0.303c-0.007-0.068-0.014-0.137-0.021-0.205c-0.017-0.172-0.034-0.351-0.054-0.532
		c-0.009-0.077-0.016-0.151-0.024-0.229c-0.011-0.094-0.021-0.188-0.03-0.283c-0.035-0.305-0.07-0.616-0.11-0.945
		c-0.004-0.032-0.008-0.065-0.012-0.097c-0.001-0.005-0.001-0.01-0.002-0.014c-0.048-0.398-0.102-0.812-0.157-1.245l-2.633,0.699
		c0.053,0.405,0.102,0.793,0.147,1.168c0.004,0.029,0.008,0.058,0.011,0.088c0.04,0.322,0.076,0.631,0.109,0.931
		c0.016,0.134,0.028,0.261,0.042,0.391c0.022,0.2,0.043,0.397,0.063,0.587c0.013,0.127,0.023,0.25,0.036,0.373
		c0.017,0.179,0.032,0.354,0.046,0.524c0.01,0.117,0.019,0.233,0.027,0.345c0.013,0.165,0.023,0.323,0.032,0.478
		c0.007,0.105,0.014,0.21,0.02,0.311c0.007,0.152,0.013,0.297,0.018,0.44c0.003,0.09,0.006,0.182,0.008,0.268
		c0.004,0.154,0.003,0.298,0.003,0.44c-0.001,0.064,0.001,0.132,0,0.194c-0.004,0.199-0.011,0.388-0.022,0.564
		c-0.001,0.014-0.003,0.025-0.004,0.039c-0.013,0.16-0.027,0.312-0.046,0.454c-0.008,0.053-0.018,0.1-0.025,0.15
		c-0.016,0.097-0.032,0.193-0.052,0.281c-0.012,0.053-0.025,0.101-0.039,0.151c-0.021,0.077-0.041,0.152-0.065,0.221
		c-0.016,0.047-0.033,0.091-0.052,0.135c-0.008,0.021-0.017,0.039-0.026,0.059c0.354,0.218,0.756,0.301,1.224,0.275
		C146.535,99.178,146.688,99.147,146.831,99.105"/>
	<path d="M135.226,95.703c-0.166-0.636-0.323-1.304-0.473-2.004c-0.087-0.405-0.17-0.824-0.252-1.25
		c-0.13-0.681-0.256-1.385-0.376-2.122c-0.195-1.198-0.378-2.472-0.554-3.823c-0.045-0.351-0.088-0.694-0.128-1.033
		c-0.393-3.244-0.581-6.018-0.536-8.364c0.05-2.59,0.384-4.662,1.04-6.283c0.038-0.093,0.088-0.171,0.128-0.261
		c0.014-0.031,0.026-0.064,0.04-0.094c0.068-0.149,0.134-0.299,0.207-0.439c0.023-0.046,0.052-0.087,0.077-0.131
		c0.078-0.142,0.161-0.279,0.245-0.412c0.066-0.11,0.133-0.221,0.205-0.324c0.055-0.077,0.114-0.146,0.174-0.219
		c0.097-0.126,0.195-0.25,0.3-0.367c0.046-0.057,0.092-0.115,0.141-0.168c0.103-0.108,0.214-0.204,0.324-0.302
		c0.101-0.092,0.197-0.187,0.302-0.272c0.027-0.023,0.053-0.049,0.08-0.071c0.15-0.118,0.314-0.221,0.477-0.327
		c0.033-0.022,0.068-0.044,0.102-0.067c0.06-0.037,0.108-0.084,0.168-0.119c0.013-0.008,0.029-0.013,0.043-0.021
		c0.003-0.002,0.005-0.004,0.008-0.005c0.188-0.109,0.392-0.201,0.595-0.295c0.101-0.047,0.193-0.101,0.298-0.144
		c0.02-0.009,0.043-0.014,0.063-0.022c0.111-0.045,0.233-0.08,0.35-0.121c0.189-0.068,0.374-0.142,0.576-0.199l-2.62,0.74
		c-0.347,0.098-0.676,0.212-0.988,0.342c-0.104,0.043-0.197,0.097-0.298,0.144c-0.202,0.093-0.405,0.186-0.594,0.294
		c-0.111,0.065-0.213,0.142-0.319,0.212c-0.162,0.105-0.326,0.209-0.478,0.328c-0.106,0.083-0.202,0.179-0.305,0.27
		c-0.113,0.1-0.232,0.193-0.34,0.302c-0.021,0.022-0.039,0.049-0.061,0.071c-0.02,0.022-0.044,0.039-0.063,0.06
		c-0.076,0.082-0.14,0.18-0.212,0.266c-0.116,0.139-0.233,0.277-0.339,0.427c-0.086,0.121-0.163,0.253-0.243,0.382
		c-0.097,0.157-0.195,0.314-0.284,0.483c-0.073,0.14-0.139,0.29-0.207,0.438c-0.08,0.177-0.16,0.354-0.233,0.543
		c-0.061,0.159-0.115,0.328-0.171,0.496c-0.041,0.125-0.089,0.239-0.127,0.369c-0.021,0.075-0.037,0.159-0.057,0.235
		c-0.019,0.07-0.044,0.132-0.062,0.203c-0.028,0.111-0.048,0.237-0.073,0.351c-0.049,0.219-0.098,0.441-0.14,0.671
		c-0.035,0.199-0.067,0.405-0.098,0.614c-0.035,0.24-0.067,0.486-0.095,0.738c-0.024,0.22-0.045,0.445-0.063,0.674
		c-0.021,0.264-0.038,0.534-0.052,0.81c-0.012,0.24-0.021,0.484-0.028,0.734c-0.003,0.127-0.012,0.243-0.014,0.372
		c-0.002,0.164,0.004,0.345,0.004,0.514c0,0.149-0.007,0.286-0.005,0.439c0.001,0.114,0.008,0.24,0.011,0.355
		c0.005,0.314,0.018,0.639,0.029,0.966c0.012,0.281,0.023,0.562,0.039,0.853c0.019,0.343,0.044,0.698,0.07,1.055
		c0.021,0.299,0.043,0.597,0.068,0.907c0.032,0.373,0.071,0.761,0.11,1.149c0.032,0.317,0.062,0.632,0.098,0.96
		c0.011,0.099,0.02,0.191,0.03,0.291c0.016,0.139,0.032,0.279,0.049,0.419c0.018,0.141,0.034,0.283,0.051,0.425
		c0.018,0.143,0.035,0.286,0.055,0.431c0.018,0.144,0.035,0.29,0.055,0.436c0.467,3.596,0.988,6.643,1.65,9.183
		c0.661,2.539,1.464,4.57,2.491,6.134c0.06,0.091,0.127,0.165,0.188,0.253c-0.021-1.815,0.129-3.636,0.415-5.449
		C135.531,96.814,135.374,96.273,135.226,95.703"/>
	<path fill="#FEBC12" d="M149.047,105.77c-0.195,0.039-0.393,0.072-0.59,0.101c-0.057,0.008-0.113,0.013-0.169,0.02
		c-0.063,0.008-0.124,0.016-0.187,0.023c-0.081,0.009-0.162,0.022-0.244,0.03c-0.199,0.019-0.4,0.035-0.602,0.046
		c-0.001,0-0.002,0-0.004,0c-1.13,0.065-2.162,0.034-3.106-0.098c-0.944-0.131-1.802-0.363-2.583-0.7
		c-0.39-0.169-0.761-0.365-1.115-0.587c-0.705-0.446-1.34-1-1.912-1.668c-0.287-0.334-0.559-0.696-0.815-1.088
		c-0.514-0.784-0.972-1.684-1.384-2.707c-0.206-0.511-0.401-1.053-0.586-1.626c-0.02-0.059-0.036-0.122-0.056-0.182
		c-0.286,1.813-0.435,3.634-0.415,5.449c0.992,1.422,2.181,2.449,3.651,3.084c1.56,0.673,3.426,0.924,5.685,0.796
		c0.202-0.012,0.403-0.027,0.604-0.047s0.4-0.044,0.598-0.073c0.199-0.029,0.396-0.062,0.591-0.101
		c0.195-0.038,0.389-0.082,0.579-0.13c0.881-0.224,1.76-0.449,2.64-0.673c-0.13,0.033-0.262,0.061-0.395,0.089
		c-0.042,0.009-0.083,0.02-0.125,0.028C149.087,105.76,149.067,105.766,149.047,105.77"/>
	<path fill="#FEBC12" d="M142.031,65.979c-1.442,0.059-2.684,0.281-3.761,0.664c-0.114,0.041-0.237,0.075-0.349,0.12
		c-0.339,0.137-0.661,0.292-0.963,0.467c-0.074,0.043-0.143,0.091-0.211,0.139c-0.229,0.144-0.45,0.297-0.657,0.466
		c-0.076,0.066-0.151,0.133-0.226,0.2c-0.026,0.023-0.052,0.048-0.077,0.072c-0.161,0.148-0.318,0.303-0.465,0.469
		c-0.044,0.054-0.091,0.106-0.136,0.16c-0.056,0.068-0.108,0.139-0.165,0.208c-0.133,0.173-0.259,0.353-0.379,0.543
		c-0.012,0.019-0.024,0.038-0.037,0.058c-0.07,0.115-0.139,0.234-0.207,0.353c-0.115,0.211-0.223,0.434-0.324,0.664
		c-0.066,0.147-0.132,0.293-0.192,0.449c-0.061,0.16-0.116,0.329-0.172,0.498c-0.064,0.197-0.127,0.395-0.184,0.604
		c-0.049,0.18-0.093,0.368-0.136,0.556c-0.049,0.219-0.096,0.44-0.138,0.671c-0.036,0.2-0.068,0.406-0.099,0.616
		c-0.035,0.24-0.067,0.485-0.095,0.738c-0.023,0.221-0.045,0.446-0.063,0.676c-0.021,0.264-0.038,0.534-0.052,0.81
		c-0.012,0.241-0.021,0.486-0.028,0.737c-0.007,0.288-0.01,0.584-0.01,0.884c0,0.262,0.001,0.527,0.006,0.799
		c0.006,0.314,0.017,0.638,0.03,0.966c0.012,0.282,0.022,0.564,0.038,0.855c0.02,0.342,0.045,0.697,0.07,1.053
		c0.022,0.302,0.043,0.602,0.07,0.914c0.032,0.371,0.071,0.756,0.108,1.141c0.033,0.322,0.063,0.641,0.101,0.973
		c0.036,0.32,0.073,0.642,0.111,0.969c0.041,0.34,0.082,0.682,0.129,1.033c0.175,1.351,0.357,2.625,0.554,3.823
		c0.12,0.736,0.245,1.441,0.375,2.121c0.082,0.427,0.165,0.846,0.252,1.251c0.15,0.7,0.307,1.368,0.472,2.003
		c0.149,0.571,0.307,1.112,0.471,1.632c0.871-5.518,3.024-10.954,5.641-15.887c-0.073-0.646-0.137-1.253-0.189-1.813
		c-0.162-1.73-0.225-3.062-0.168-4.072c0.045-0.802,0.169-1.394,0.375-1.828c-0.011-0.006-0.02-0.015-0.03-0.022
		c-0.304-0.176-0.646-0.243-1.033-0.226c-0.049,0.003-0.097,0.006-0.145,0.01c-0.047,0.005-0.094,0.01-0.139,0.017
		c-0.045,0.006-0.089,0.014-0.132,0.023c-0.044,0.009-0.086,0.019-0.127,0.031l2.625-0.729c0.034-0.009,0.07-0.018,0.104-0.025
		c0.003-0.001,0.006-0.002,0.01-0.002c0.004-0.001,0.008-0.003,0.012-0.004c0.044-0.008,0.088-0.016,0.133-0.023
		c0.045-0.007,0.092-0.012,0.139-0.016c0.048-0.005,0.096-0.008,0.146-0.01c0.387-0.017,0.729,0.049,1.033,0.226
		c0.147,0.087,0.288,0.201,0.419,0.344c0.003,0.004,0.006,0.006,0.008,0.009c0.067,0.074,0.132,0.155,0.195,0.245
		c0.062,0.09,0.123,0.188,0.181,0.294c0.16,0.289,0.304,0.648,0.437,1.073c1.543-2.357,3.106-4.508,4.563-6.389
		c-0.848-0.825-1.836-1.478-2.998-1.916C145.41,66.138,143.843,65.905,142.031,65.979"/>
	<path fill="#FEBC12" d="M145.504,76.179c0.085,0.408,0.165,0.859,0.24,1.357C145.669,77.038,145.589,76.586,145.504,76.179"/>
	<path fill="#FEBC12" d="M145.504,76.179c-0.042-0.204-0.086-0.397-0.132-0.58c-0.045-0.183-0.093-0.355-0.141-0.517
		c0.048,0.162,0.096,0.334,0.141,0.517C145.418,75.782,145.462,75.975,145.504,76.179"/>
	<path fill="#FEBC12" d="M142.479,72.813c-0.036,0.008-0.071,0.016-0.106,0.026l-2.624,0.728c0.041-0.011,0.083-0.021,0.126-0.03
		c0.043-0.009,0.088-0.017,0.133-0.024c0.046-0.007,0.092-0.012,0.139-0.016c0.048-0.005,0.096-0.008,0.145-0.01
		c0.389-0.017,0.729,0.049,1.033,0.226c0.01,0.006,0.021,0.015,0.031,0.022c0.053-0.112,0.107-0.221,0.173-0.312
		C141.764,73.093,142.078,72.901,142.479,72.813"/>
	<path fill="#FEBC12" d="M142.771,72.768c-0.047,0.004-0.093,0.01-0.139,0.016c-0.045,0.007-0.089,0.015-0.132,0.024
		c-0.005,0.001-0.01,0.002-0.014,0.003c0.134-0.029,0.276-0.046,0.43-0.053C142.866,72.76,142.817,72.764,142.771,72.768"/>
	<polyline fill="#FEBC12" points="144.367,73.329 144.377,73.337 144.367,73.329 	"/>
	<path fill="#FEBC12" d="M148.087,94.965c-0.002-0.044-0.006-0.094-0.008-0.138c-0.006-0.103-0.013-0.212-0.02-0.319
		c-0.002-0.034-0.005-0.071-0.007-0.106c0.013,0.207,0.027,0.413,0.035,0.603C148.088,94.991,148.088,94.979,148.087,94.965"/>
	<path fill="#FEBC12" d="M148.105,95.534c-0.002-0.086-0.006-0.179-0.009-0.269c-0.001-0.029-0.002-0.058-0.003-0.086
		c0.006,0.163,0.01,0.319,0.013,0.47C148.105,95.61,148.106,95.574,148.105,95.534"/>
	<path fill="#FEBC12" d="M148.01,97.38c0.009-0.051,0.019-0.098,0.025-0.152c0.002-0.01,0.004-0.019,0.005-0.029
		c0.003-0.02,0.004-0.043,0.006-0.064c-0.013,0.112-0.03,0.214-0.049,0.315C148.001,97.426,148.006,97.404,148.01,97.38"/>
	<path fill="#FEBC12" d="M148.107,96.171c0.002-0.064,0-0.136,0-0.202c0-0.004,0-0.007,0-0.01c0,0.128-0.003,0.251-0.006,0.37
		C148.103,96.275,148.106,96.227,148.107,96.171"/>
	<path fill="#FEBC12" d="M147.92,97.811c0.013-0.05,0.027-0.098,0.039-0.151c0.001-0.003,0.001-0.008,0.002-0.012
		c-0.02,0.09-0.043,0.17-0.067,0.251C147.903,97.869,147.912,97.841,147.92,97.811"/>
	<path fill="#FEBC12" d="M145.023,99.147c-0.022,0.036-0.046,0.069-0.07,0.102c-0.093,0.132-0.197,0.244-0.316,0.332
		c-0.017,0.012-0.035,0.021-0.053,0.032c-0.13,0.085-0.271,0.154-0.432,0.195v0.001l2.635-0.684
		c0.017-0.005,0.028-0.015,0.044-0.021c-0.144,0.042-0.296,0.073-0.467,0.082c-0.468,0.025-0.87-0.057-1.223-0.275
		c-0.019,0.041-0.035,0.083-0.056,0.12C145.066,99.072,145.045,99.11,145.023,99.147"/>
	<path fill="#FEBC12" d="M147.804,98.167c0.008-0.02,0.016-0.041,0.023-0.062c-0.023,0.063-0.05,0.122-0.076,0.178
		C147.769,98.246,147.787,98.208,147.804,98.167"/>
	<path fill="#FEBC12" d="M147.589,98.565c0.01-0.013,0.022-0.019,0.031-0.032c0.015-0.021,0.025-0.048,0.039-0.071
		c0.01-0.018,0.024-0.031,0.034-0.05c0.002-0.005,0.004-0.01,0.007-0.015c-0.035,0.064-0.075,0.116-0.115,0.172
		C147.586,98.567,147.588,98.567,147.589,98.565"/>
	<path fill="#FEBC12" d="M148.08,96.785c0.001-0.016,0.004-0.03,0.005-0.047c0-0.001,0-0.002,0-0.003
		c0.003-0.041,0.003-0.088,0.006-0.13c-0.008,0.124-0.017,0.242-0.027,0.356C148.068,96.9,148.075,96.845,148.08,96.785"/>
	<path fill="#FEBC12" d="M147.917,92.788c-0.011-0.114-0.025-0.235-0.037-0.353c0.019,0.181,0.037,0.359,0.054,0.531
		C147.928,92.907,147.923,92.849,147.917,92.788"/>
	<path fill="#FEBC12" d="M147.692,90.79c-0.004-0.035-0.009-0.068-0.014-0.103c-0.021-0.172-0.043-0.346-0.064-0.524
		c-0.023-0.177-0.046-0.358-0.07-0.542c0.056,0.434,0.109,0.847,0.157,1.245C147.698,90.841,147.695,90.816,147.692,90.79"/>
	<path fill="#FEBC12" d="M148.018,93.881c-0.006-0.062-0.013-0.133-0.018-0.196c-0.006-0.068-0.013-0.141-0.019-0.211
		c0.016,0.188,0.031,0.375,0.046,0.551C148.023,93.977,148.021,93.932,148.018,93.881"/>
	<path fill="#FEBC12" d="M147.813,91.81c-0.005-0.046-0.009-0.087-0.015-0.133c-0.019-0.159-0.037-0.321-0.057-0.486
		c-0.009-0.07-0.018-0.142-0.025-0.213c0.038,0.328,0.074,0.64,0.108,0.945C147.82,91.885,147.816,91.849,147.813,91.81"/>
	<path fill="#FEBC12" d="M138.534,102.937c-0.286-0.334-0.557-0.697-0.814-1.088c-0.515-0.784-0.973-1.685-1.384-2.707
		c0.411,1.022,0.869,1.923,1.384,2.707C137.977,102.24,138.248,102.603,138.534,102.937"/>
	<path fill="#FEBC12" d="M134.501,92.448c0.082,0.427,0.165,0.846,0.252,1.251C134.666,93.294,134.583,92.875,134.501,92.448"/>
	<path fill="#FEBC12" d="M138.271,66.643c-0.114,0.041-0.236,0.076-0.349,0.121C138.034,66.719,138.156,66.684,138.271,66.643"/>
	<path fill="#FEBC12" d="M134.607,69.545c0.012-0.02,0.024-0.038,0.036-0.058c-0.084,0.133-0.167,0.271-0.243,0.411
		C134.467,69.779,134.536,69.66,134.607,69.545"/>
	<path fill="#FEBC12" d="M135.188,68.736c0.045-0.054,0.09-0.106,0.135-0.159c-0.104,0.117-0.203,0.241-0.3,0.367
		C135.078,68.875,135.133,68.804,135.188,68.736"/>
	<path fill="#FEBC12" d="M147.252,105.99c0.001,0,0.002,0,0.004,0C147.254,105.99,147.253,105.99,147.252,105.99
		c-1.13,0.064-2.162,0.033-3.106-0.098C145.09,106.023,146.122,106.054,147.252,105.99"/>
	<path fill="#FEBC12" d="M136.748,67.37c0.069-0.048,0.137-0.097,0.211-0.14c-0.014,0.008-0.029,0.013-0.043,0.021
		C136.856,67.286,136.808,67.333,136.748,67.37"/>
	<path fill="#FEBC12" d="M149.232,105.728c-0.042,0.009-0.082,0.02-0.125,0.028C149.15,105.748,149.19,105.737,149.232,105.728"/>
	<path fill="#FEBC12" d="M148.102,105.914c0.063-0.007,0.124-0.014,0.186-0.023C148.226,105.899,148.164,105.907,148.102,105.914"/>
	<path fill="#FEBC12" d="M135.788,68.107c0.026-0.023,0.05-0.048,0.076-0.071c0.076-0.067,0.15-0.135,0.226-0.201
		C135.985,67.92,135.889,68.015,135.788,68.107"/>
	<path fill="#FEBC12" d="M135.75,97.516c0.186,0.573,0.379,1.115,0.585,1.626C136.129,98.631,135.936,98.089,135.75,97.516"/>
	<path fill="#FEBC12" d="M132.907,77.107c-0.045,2.345,0.144,5.12,0.536,8.364c-0.039-0.327-0.075-0.649-0.111-0.969
		c-0.037-0.332-0.067-0.65-0.1-0.972c-0.039-0.386-0.077-0.771-0.109-1.141c-0.027-0.313-0.048-0.613-0.07-0.915
		c-0.025-0.356-0.051-0.71-0.069-1.053c-0.017-0.291-0.028-0.573-0.039-0.855c-0.013-0.328-0.024-0.652-0.03-0.966
		c-0.005-0.272-0.006-0.536-0.006-0.798c0-0.301,0.003-0.597,0.01-0.885c0.006-0.251,0.017-0.496,0.028-0.737
		c0.014-0.276,0.031-0.546,0.052-0.81c0.019-0.23,0.039-0.455,0.063-0.676c0.026-0.252,0.059-0.498,0.094-0.738
		c0.03-0.209,0.062-0.416,0.099-0.616c0.041-0.23,0.089-0.452,0.139-0.67c0.043-0.189,0.086-0.377,0.135-0.557
		c0.056-0.208,0.12-0.407,0.184-0.604c0.056-0.169,0.11-0.338,0.172-0.498c0.06-0.156,0.126-0.302,0.192-0.448
		c-0.04,0.09-0.09,0.167-0.128,0.261C133.291,72.445,132.957,74.517,132.907,77.107"/>
	<path fill="#FEBC12" d="M146.929,58.09c-2.477-1.492-5.13-2.325-7.841-2.318c-1.313,0.003-2.58,0.207-3.792,0.586
		c-1.33,0.416-2.593,1.041-3.774,1.871c-1.781,1.249-3.103,2.548-4.46,4.61l-11.525,1.9c-0.073,0.094-0.146,0.189-0.216,0.285
		c-0.131,0.174-0.262,0.351-0.39,0.531c-0.092,0.13-0.181,0.262-0.271,0.396c-0.124,0.183-0.244,0.368-0.364,0.558
		c-0.046,0.071-0.093,0.139-0.138,0.211c-0.042,0.066-0.079,0.137-0.12,0.204c-0.075,0.125-0.148,0.254-0.222,0.381l11.601-1.907
		c0,0-2.515,5.429-2.708,8.996l-12.021,0.934c-0.018,0.078-0.035,0.156-0.054,0.234c-0.061,0.268-0.123,0.537-0.179,0.809
		c-0.014,0.065-0.031,0.13-0.044,0.198c-0.024,0.117-0.042,0.239-0.064,0.357c-0.051,0.258-0.098,0.518-0.142,0.781l11.946-0.923
		c-0.126,1.034-0.214,2.094-0.265,3.172l-12.139,1.67c-0.009,0.143-0.02,0.284-0.026,0.428c-0.009,0.141-0.021,0.281-0.029,0.423
		c-0.001,0.051-0.001,0.102-0.003,0.154c-0.016,0.342-0.022,0.686-0.029,1.031c-0.001,0.133-0.008,0.262-0.009,0.394
		c-0.001,0.026,0,0.053-0.001,0.078c-0.007,0.916,0.021,1.844,0.073,2.781l12.277-0.948c0.059,0.7,0.128,1.403,0.218,2.112
		c0.57,4.466,1.729,8.655,3.329,12.385c1.03,2.4,2.24,4.6,3.588,6.561l-12.038,1.762c0.137,0.19,0.273,0.382,0.412,0.567
		c0.089,0.116,0.176,0.234,0.267,0.348c0.077,0.099,0.158,0.191,0.236,0.289l11.123-1.665l3.533,3.256l-12.126,1.181
		c0.203,0.192,0.406,0.382,0.612,0.565c0.011,0.009,0.02,0.017,0.03,0.027l12.642-0.976c1.581,1.387,3.25,2.488,4.972,3.262
		c-1.229-2.073-2.107-4.355-2.677-6.529c-4.288-4.464-7.613-11.915-8.648-20.802c-1.729-14.855,3.606-27.682,11.919-28.65
		c0.743-0.087,1.486-0.071,2.223,0.032c-0.521-0.232-0.826-0.33-0.826-0.33c4.633,0.847,8.14,3.58,10.772,6.926
		c0.679-0.828,1.315-1.581,1.894-2.246C151.5,61.55,149.293,59.515,146.929,58.09"/>
	<path fill="#FFFFFF" d="M125.416,65.397l-11.601,1.908c-0.041,0.071-0.083,0.141-0.124,0.212c-0.081,0.144-0.163,0.287-0.241,0.434
		c-0.114,0.206-0.22,0.419-0.329,0.632c-0.074,0.145-0.148,0.291-0.221,0.439c-0.023,0.048-0.047,0.092-0.071,0.14
		c-0.085,0.179-0.163,0.366-0.246,0.547c-0.021,0.048-0.044,0.098-0.064,0.146c-0.045,0.094-0.088,0.189-0.13,0.285
		c-0.023,0.057-0.046,0.116-0.07,0.174l-0.039,0.092c-0.012,0.033-0.021,0.054-0.033,0.085c-0.046,0.116-0.095,0.23-0.142,0.347
		c-0.123,0.269-0.188,0.325-0.347,0.893l-0.125,0.368c-0.048,0.138-0.1,0.271-0.146,0.41c-0.025,0.072-0.047,0.147-0.069,0.22
		c-0.004,0.007-0.005,0.015-0.007,0.023c-0.108,0.331-0.214,0.665-0.313,1.007c-0.043,0.146-0.079,0.295-0.119,0.443
		c-0.078,0.279-0.154,0.559-0.226,0.844c-0.021,0.093-0.044,0.187-0.065,0.281l12.02-0.934
		C122.901,70.828,125.416,65.397,125.416,65.397"/>
	<path fill="#FFFFFF" d="M129.136,108.326l-11.123,1.665c0.229,0.288,0.458,0.578,0.695,0.851c0.009,0.01,0.017,0.018,0.023,0.027
		c0.006,0.007,0.013,0.013,0.018,0.02c0.229,0.265,0.465,0.522,0.701,0.774c0.06,0.065,0.12,0.129,0.181,0.192
		c0.227,0.237,0.457,0.47,0.688,0.696c0.023,0.022,0.049,0.049,0.072,0.072c0.05,0.048,0.102,0.092,0.152,0.14l12.125-1.181
		L129.136,108.326z"/>
</g>
</svg>
