<?xml version="1.0" encoding="UTF-8" standalone="no"?>
<svg width="167px" height="168px" viewBox="0 0 167 168" version="1.1" xmlns="http://www.w3.org/2000/svg" xmlns:xlink="http://www.w3.org/1999/xlink" xmlns:sketch="http://www.bohemiancoding.com/sketch/ns">
    <!-- Generator: Sketch 3.3.2 (12043) - http://www.bohemiancoding.com/sketch -->
    <title>logo-jumbletrail</title>
    <desc>Created with Sketch.</desc>
    <defs></defs>
    <g id="Page-1" stroke="none" stroke-width="1" fill="none" fill-rule="evenodd" sketch:type="MSPage">
        <g id="JT-logo" sketch:type="MSLayerGroup">
            <g id="logo-jumbletrail" sketch:type="MSShapeGroup">
                <path d="M128.943546,61.3448953 C128.943546,94.5936694 108.008193,121.548567 82.18046,121.548567 C56.3544415,121.548567 35.4177166,94.5936694 35.4177166,61.3448953 C35.4177166,28.0961211 56.3540986,1.1408809 82.1808029,1.1408809 C108.008193,1.1408809 128.943546,28.0961211 128.943546,61.3448953" id="Shape" fill="#40AFAC"></path>
                <path d="M7.64256468,157.852378 C7.64359343,159.122195 7.64359343,160.70338 7.22695072,161.967368 C6.76058522,163.379152 5.89849487,164.036864 4.51791581,164.036864 C3.7130924,164.036864 2.8931807,163.763561 2.26873101,163.288622 L1.94090349,163.037608 L0,166.342287 L0.313082136,166.529177 C1.61856263,167.304852 2.91375565,167.666971 4.38555031,167.666971 C10.6653676,167.666971 11.4705339,162.348347 11.4705339,157.716926 L11.4705339,141.57245 L7.64256468,141.57245 L7.64256468,157.852378 L7.64256468,157.852378 Z" id="Shape" fill="#FFFFFF"></path>
                <path d="M25.4961335,159.890326 C25.4961335,162.888782 24.5417988,164.168887 22.304616,164.168887 C20.068462,164.168887 19.1134415,162.889811 19.1134415,159.890326 L19.1134415,150.994062 L15.417152,150.994062 L15.417152,160.219869 C15.417152,165.022062 17.8631704,167.666971 22.3042731,167.666971 C26.7460616,167.666971 29.1910513,165.022062 29.1910513,160.219869 L29.1910513,150.994062 L25.4961335,150.994062 L25.4961335,159.890326 L25.4961335,159.890326 Z" id="Shape" fill="#FFFFFF"></path>
                <path d="M49.8081786,150.531811 C47.9588337,150.531811 46.1588686,151.466257 45.0714825,152.954168 C43.9755236,151.34555 42.4793819,150.531811 40.6183778,150.531811 C39.2470575,150.531811 37.8424743,151.208384 36.8349877,152.311201 L36.8349877,150.992347 L33.1390411,150.992347 L33.1390411,167.140253 L36.8346448,167.140253 L36.8346448,159.197637 C36.8346448,156.577417 37.1974497,153.899244 39.8937967,153.899244 C42.1680144,153.899244 42.3597043,156.327774 42.3597043,158.604392 L42.3597043,167.140595 L46.0556509,167.140595 L46.0556509,159.197979 C46.0556509,156.445394 46.4229138,153.898901 49.0825688,153.898901 C50.8334969,153.898901 51.5813963,155.138542 51.5813963,158.044754 L51.5813963,167.13991 L55.2780287,167.13991 L55.2780287,157.550955 C55.2787146,152.894158 53.4389713,150.531811 49.8081786,150.531811" id="Shape" fill="#FFFFFF"></path>
                <path d="M71.7743368,159.067329 C71.7743368,161.672117 70.3392341,164.300224 67.1336571,164.300224 C64.1736078,164.300224 62.6246571,161.668002 62.6246571,159.067329 C62.6246571,156.498889 64.1739507,153.900273 67.1336571,153.900273 C70.339577,153.899244 71.7743368,156.494088 71.7743368,159.067329 M67.8585811,150.531811 C65.8806427,150.531811 64.111883,151.372298 62.7895996,152.920906 L62.7895996,137.819236 L59.0933101,137.819236 L59.0933101,167.141281 L62.7895996,167.141281 L62.7895996,165.354347 C64.0940513,166.833686 65.8487515,167.666971 67.7265585,167.666971 C73.0465544,167.666971 75.4699405,163.158314 75.4699405,158.96754 C75.4699405,154.87724 72.8023984,150.531811 67.8585811,150.531811" id="Shape" fill="#FFFFFF"></path>
                <rect id="Rectangle-path" fill="#FFFFFF" x="78.5921889" y="137.819236" width="3.69663244" height="29.3206735"></rect>
                <path d="M89.6772854,156.95531 C90.1577105,155.069959 91.6919158,153.833062 93.6071006,153.833062 C95.5576057,153.833062 96.953616,154.990402 97.4124374,156.95531 L89.6772854,156.95531 L89.6772854,156.95531 Z M98.0049959,161.479055 C96.9471006,163.220382 95.858,164.299538 93.7058604,164.299538 C91.1123881,164.299538 89.622076,162.111392 89.4458172,159.926676 L101.186912,159.926676 L101.186912,159.098877 C101.186912,153.81523 98.2824148,150.532154 93.6071006,150.532154 C88.7493552,150.532154 85.7313532,153.853637 85.7313532,159.198665 C85.7313532,164.185004 88.9965975,167.6656 93.6729405,167.6656 C96.8510842,167.6656 99.6444764,166.018575 101.143361,163.259131 L101.314819,162.943649 L98.1898275,161.174889 L98.0049959,161.479055 L98.0049959,161.479055 Z" id="Shape" fill="#FFFFFF"></path>
                <path d="M125.296294,141.57245 L109.676478,141.57245 L109.676478,145.138431 L115.572573,145.138431 L115.572573,167.13991 L119.401228,167.13991 L119.401228,145.138431 L125.296294,145.138431 L125.296294,141.57245 Z" id="Shape" fill="#FFFFFF"></path>
                <g id="Group" transform="translate(124.135524, 141.624230)" fill="#FFFFFF">
                    <path d="M7.74578234,8.90758111 C6.11761807,8.90758111 4.70960575,9.65959548 3.79642094,10.9685051 L3.79642094,9.36845996 L0.100131417,9.36845996 L0.100131417,25.5163655 L3.79642094,25.5163655 L3.79642094,17.5737495 C3.79642094,13.9978234 4.76104312,12.4728768 7.02085832,12.4728768 C7.68474333,12.4728768 8.16859754,12.6374764 8.59038398,13.0088542 L8.94735934,13.3202218 L10.6588522,9.90032238 L10.3793758,9.72166324 C9.5536345,9.19700205 8.61816016,8.90758111 7.74578234,8.90758111" id="Shape"></path>
                    <path d="M23.9478686,17.4430986 C23.9478686,20.0478871 22.512423,22.6759938 19.3065031,22.6759938 C16.3471396,22.6759938 14.7981889,20.0437721 14.7981889,17.4430986 C14.7981889,14.8746591 16.3474825,12.2760431 19.3065031,12.2760431 C22.5131088,12.2750144 23.9478686,14.8698583 23.9478686,17.4430986 L23.9478686,17.4430986 Z M23.783269,11.2959897 C22.463729,9.74806776 20.7059425,8.90758111 18.7465216,8.90758111 C13.7811006,8.90758111 11.1029281,13.2530103 11.1029281,17.3433101 C11.1029281,21.6657639 13.7625832,26.0427413 18.8469959,26.0427413 C20.724117,26.0427413 22.479846,25.2108275 23.7836119,23.730117 L23.7836119,25.5156797 L27.4792156,25.5156797 L27.4792156,9.36845996 L23.7836119,9.36845996 L23.783269,11.2959897 L23.783269,11.2959897 Z" id="Shape"></path>
                    <path d="M33.2806653,0.245527721 C31.9522094,0.245527721 30.8713388,1.33977207 30.8713388,2.68674538 C30.8713388,3.99599795 31.9522094,5.06109446 33.2806653,5.06109446 C34.6074066,5.06109446 35.6875914,3.99634086 35.6875914,2.68674538 C35.6875914,1.34011499 34.6074066,0.245527721 33.2806653,0.245527721" id="Shape"></path>
                </g>
                <rect id="Rectangle-path" fill="#FFFFFF" x="155.567187" y="150.994062" width="3.6956037" height="16.145848"></rect>
                <rect id="Rectangle-path" fill="#FFFFFF" x="163.080472" y="137.819236" width="3.69663244" height="29.3206735"></rect>
                <g id="Group" transform="translate(27.776181, 0.000000)">
                    <path d="M100.016197,31.1936797 C96.7615832,23.0573162 92.4302136,17.6728522 89.1464517,14.4425852 C87.4870821,14.3969774 85.8277125,14.6209014 84.2334969,15.2333491 C77.4622813,18.3165051 77.683462,24.4097762 74.9401355,28.2884969 C73.561614,30.23523 71.3563224,31.2303717 71.8538932,34.0487967 C75.6832341,30.972499 85.6411663,28.5796324 90.5112567,33.668846 C96.2280062,39.1565277 100.476047,38.7998953 102.578464,38.0259343 C101.847025,35.9314045 100.999337,33.6537577 100.016197,31.1936797" id="Shape" fill="#231F20"></path>
                    <path d="M82.9403614,23.1948255 C83.3559754,23.7568645 83.2362977,24.5514004 82.6742587,24.9670144 C82.1115339,25.384 81.3176838,25.2639795 80.9020698,24.7012546 C80.4861129,24.1385298 80.604076,23.3446797 81.1671437,22.928037 C81.7305544,22.5131088 82.5247474,22.6317577 82.9403614,23.1948255" id="Shape" fill="#FFFFFF"></path>
                    <path d="M69.4829733,118.327559 C67.7289589,119.045281 61.3997618,121.413801 54.3188932,121.413801 C45.9822669,121.413801 39.2093368,118.444493 38.5560821,118.148556 C20.2892998,108.753349 8.51357084,86.9493901 8.51357084,61.5441294 C8.51357084,36.1591006 20.2728398,14.3685154 38.5132177,4.96062012 C39.1599569,4.67702875 46.1588686,1.69434702 54.1062854,1.69434702 C62.396961,1.69434702 69.1448583,4.63142094 69.859152,4.95479055 C88.1091314,14.357885 99.8718296,36.1542998 99.8718296,61.5441294 C99.8714867,87.1091889 87.9472752,109.031797 69.4829733,118.327559 M108.372027,61.5434435 C108.372027,27.5546571 84.6151622,0 55.3068337,0 C54.9333984,0 54.5637351,0.00960164271 54.193729,0.0174887064 C53.8216653,0.00960164271 53.4516591,0 53.0778809,0 C23.7692094,0 0.0137166324,27.5546571 0.0137166324,61.5434435 C0.0137166324,95.5332587 23.7692094,123.087573 53.0778809,123.087573 C53.4516591,123.087573 53.8216653,123.077971 54.193729,123.069055 C54.5637351,123.077628 54.9333984,123.087573 55.3068337,123.087573 C55.6624374,123.087573 56.0173552,123.080029 56.3712444,123.072142 L56.6973573,123.087573 L56.7889158,123.063226 C85.4120986,122.152784 108.372027,94.9575031 108.372027,61.5434435" id="Shape" fill="#FFFFFF"></path>
                    <path d="M54.6940431,90.8411417 C68.335577,90.8411417 79.6085914,79.1045051 81.4291314,63.8629261 C79.6085914,47.6251766 68.335577,35.1214374 54.6940431,35.1214374 C41.0490801,35.1214374 29.7770945,47.6255195 27.9555257,63.8629261 C29.7767515,79.1045051 41.0490801,90.8411417 54.6940431,90.8411417" id="Shape" fill="#FFFFFF"></path>
                    <path d="M68.7364456,115.368881 C67.2077269,112.849136 65.3834148,109.257092 65.1927536,106.208228 C64.9091622,101.661507 67.7128419,98.1373614 69.8879569,96.0603203 C77.0137474,90.0544928 81.6935195,79.9436201 81.6935195,68.4820021 C81.6935195,66.9131622 81.6002464,65.374499 81.4294743,63.8629261 C80.6352813,56.7830862 78.0431807,50.4134251 74.241616,45.4798953 C73.7546756,44.7309671 73.2759651,43.9782669 72.8764682,43.2869487 C72.795883,43.1281786 72.7166694,42.9663224 72.6329979,42.8096099 C69.7909117,36.7804641 66.3994743,21.9754168 53.6066571,18.7763552 C41.9022546,16.2919302 38.9816407,23.1505893 28.1074374,26.2769528 C24.4207495,27.3365626 20.985076,26.9984476 18.9340965,31.1199528 C21.0560595,31.0342238 29.1077228,30.1529302 34.2325996,30.777037 C39.1805318,31.379883 37.9340329,32.809499 36.4810986,32.964154 C34.821729,33.1424702 28.0446838,32.7138255 20.0091376,35.9012279 C20.0091376,35.9012279 20.9206078,36.5534538 22.8560246,36.6518706 C26.8269897,36.8535051 33.7127392,36.686848 36.1083491,37.5273347 C39.0958316,38.5759713 38.1065195,41.4643511 36.0912033,44.3108953 C31.7752649,49.3874209 28.8152156,56.2090452 27.9558686,63.8625832 C27.7868111,65.3741561 27.6925092,66.9128193 27.6925092,68.4816591 C27.6925092,79.8832669 32.3222156,89.9468172 39.3855955,95.9636181 C41.4341745,98.061577 44.2213943,101.572349 43.9306016,106.207885 C43.7467988,109.151131 42.0397639,112.600864 40.5473943,115.102778 C38.3719363,114.845591 36.2139671,115.086661 35.6875914,115.789296 C34.5827166,117.263491 35.3189569,120.211538 35.6875914,122.422659 C36.0565688,124.634123 38.2683758,120.948464 38.6356386,123.52822 C39.0049589,126.109004 40.4788111,122.054025 42.6899322,123.896511 C44.9020821,125.738655 46.1917885,120.764318 45.6383224,117.814899 C45.4898398,117.02585 44.7851478,116.409973 43.815039,115.957324 C44.5276181,112.672534 45.6246057,108.447811 46.9321437,106.207885 C48.6422649,103.275612 47.2064764,101.674881 45.8581314,100.012768 C48.6271766,101.197199 51.6002567,101.842567 54.6954148,101.842567 C57.2858008,101.842567 59.7904579,101.390604 62.1620637,100.548745 C60.869271,102.209487 60.5229261,103.342823 62.1922402,106.208228 C63.5639035,108.557887 64.7040986,113.091234 65.4122197,116.433977 C64.5086366,117.061513 63.944883,117.983957 64.0498152,119.290466 C64.4517125,124.264803 64.7874271,126.292121 66.9975195,124.449634 C69.2096694,122.607148 70.6835216,126.661099 71.052499,124.080657 C71.4207906,121.501244 73.6312259,125.187246 73.9998604,122.975439 C74.3688378,120.764661 75.105078,117.816271 73.9998604,116.341733 C73.4679979,115.632926 71.0545565,115.13947 68.7364456,115.368881 L68.7364456,115.368881 Z M39.0320493,80.966538 C34.6921068,76.5460103 31.8411047,70.4812012 30.9776427,63.8522957 C29.9440945,58.0114107 31.7365154,52.6571232 35.0206201,48.3627885 C34.5703717,49.660039 34.2908953,51.0320452 34.2908953,52.5278439 C34.2908953,63.7933142 43.4268583,72.9275626 54.6912998,72.9275626 C65.9574559,72.9275626 75.0906756,63.7929713 75.0906756,52.5278439 C75.0906756,51.6201458 75.0255216,50.7292505 74.9109877,49.8537864 C77.6073347,53.9372279 79.0681561,58.7740554 78.4066715,63.8526386 C77.5442382,70.4815441 74.6911786,76.5466961 70.3532936,80.9668809 C66.0010062,85.4000965 60.4402834,87.8413142 54.694729,87.8413142 C48.947117,87.8406283 43.3846797,85.3994107 39.0320493,80.966538 L39.0320493,80.966538 Z" id="Shape" fill="#231F20"></path>
                    <path d="M44.3750205,28.5264805 C44.4820103,29.6238111 43.6789014,30.6028357 42.5812279,30.7087967 C41.481154,30.8168152 40.5021294,30.0133634 40.3954825,28.9139754 C40.287807,27.8152731 41.0912587,26.8376201 42.1920185,26.7306304 C43.2907207,26.6215832 44.2670021,27.4260637 44.3750205,28.5264805" id="Shape" fill="#FFFFFF"></path>
                </g>
                <circle id="Oval" fill="#ECC91A" cx="51.0423326" cy="32.707653" r="2.05749487"></circle>
            </g>
        </g>
    </g>
</svg>