<?xml version="1.0" encoding="utf-8"?>
<!-- Generator: Adobe Illustrator 15.1.0, SVG Export Plug-In . SVG Version: 6.00 Build 0)  -->
<!DOCTYPE svg PUBLIC "-//W3C//DTD SVG 1.1//EN" "http://www.w3.org/Graphics/SVG/1.1/DTD/svg11.dtd">
<svg version="1.1" id="Layer_2" xmlns="http://www.w3.org/2000/svg" xmlns:xlink="http://www.w3.org/1999/xlink" x="0px" y="0px"
	 width="297.043px" height="108.963px" viewBox="0 0 297.043 108.963" enable-background="new 0 0 297.043 108.963"
	 xml:space="preserve">
<g>
	<g>
		<path fill="#FEC200" d="M157.242,94.963c0-7.799,6.201-13.799,14.301-13.799c7.8,0,14.101,6.101,14.101,13.799
			c0,7.701-6.301,13.802-14.2,13.802C163.443,108.765,157.242,102.765,157.242,94.963 M180.842,95.063c0-5.5-4.1-9.699-9.398-9.799
			c-5.301,0-9.602,4.299-9.602,9.698c0,5.4,4.199,9.701,9.5,9.701C176.742,104.664,180.842,100.563,180.842,95.063"/>
		<path fill="#FEC200" d="M255.643,81.265c7.899,0,14.199,6.1,14.199,13.799c0,7.701-6.3,13.801-14.199,13.801
			c-8,0-14.199-6-14.199-13.801C241.443,87.265,247.643,81.265,255.643,81.265 M265.043,95.063c0-5.5-4.101-9.799-9.399-9.799
			c-5.301,0-9.601,4.299-9.601,9.6c0,5.4,4.199,9.699,9.5,9.699C260.942,104.664,265.043,100.563,265.043,95.063"/>
		<path fill="#FEC200" d="M189.443,91.063c0-2.399,0-4.799,0-7.199c0-1.6,0.799-2.6,2.199-2.6c1.398,0,2.301,0.899,2.301,2.6
			c0,4.199,0,8.4,0,12.699c0,0.899,0,1.801,0.199,2.701c0.699,3.899,3.398,5.698,7.898,5.299c3.602-0.299,6-2.699,6-6.5
			c0.102-4.699,0-9.5,0-14.199c0-1,0.201-1.801,1.102-2.301c1.6-0.899,3.301,0.201,3.301,2.201c0,4.698,0,9.299,0,14
			c0,0.899-0.102,1.698-0.201,2.6c-0.799,4.5-3.5,7.199-8,8.101c-2.399,0.5-4.799,0.5-7.199-0.101c-4.7-1.2-7.399-4.7-7.5-10
			C189.342,95.863,189.443,93.463,189.443,91.063L189.443,91.063z"/>
		<path fill="#FEC200" d="M274.043,91.063c0-2.399,0-4.799,0-7.199c0-1.6,0.8-2.6,2.2-2.6c1.399,0,2.3,0.899,2.3,2.6
			c0,4.199,0,8.4,0,12.699c0,0.899,0,1.801,0.2,2.701c0.699,3.899,3.399,5.698,7.899,5.299c3.601-0.299,6-2.699,6-6.5
			c0.101-4.699,0-9.5,0-14.199c0-1,0.199-1.801,1.101-2.301c1.6-0.899,3.3,0.201,3.3,2.201c0,4.698,0,9.299,0,14
			c0,0.899-0.101,1.698-0.2,2.6c-0.8,4.5-3.5,7.199-8,8.101c-2.399,0.5-4.8,0.5-7.199-0.101c-4.7-1.2-7.399-4.7-7.5-10
			C274.043,95.863,274.043,93.463,274.043,91.063L274.043,91.063z"/>
		<path fill="#FEC200" d="M132.443,95.765c0-8.101,5.799-14.302,13.199-14.5c2.1-0.101,4.199,0.299,6.301,0.698
			c0.898,0.201,1.799,0.802,2.5,1.4c0.699,0.6,0.799,1.4,0.398,2.301c-0.398,0.898-1.1,1.299-2,1.101
			c-0.801-0.201-1.6-0.5-2.301-0.802c-4.199-1.698-8.898-0.399-11.5,3.201c-2.699,3.601-2.6,8.699,0.201,12.199
			c2.399,3,6.699,4.1,10.799,2.9c0.801-0.301,1.602-0.602,2.4-0.9c1.2-0.4,2.2,0,2.7,1s0.199,2.1-1,2.699
			c-1,0.602-2.2,1-3.301,1.301c-4.699,1.1-9.199,0.6-13.101-2.301C134.043,103.265,132.543,99.463,132.443,95.765"/>
		<path fill="#FEC200" d="M216.943,95.765c0-8.101,5.799-14.302,13.199-14.5c2.1-0.101,4.199,0.299,6.301,0.698
			c0.898,0.201,1.799,0.802,2.5,1.4c0.699,0.6,0.799,1.4,0.398,2.301c-0.398,0.898-1.1,1.299-2,1.101
			c-0.801-0.201-1.6-0.5-2.301-0.802c-4.199-1.698-8.898-0.399-11.5,3.201c-2.699,3.601-2.6,8.699,0.201,12.199
			c2.399,3,6.699,4.1,10.799,2.9c0.801-0.301,1.602-0.602,2.4-0.9c1.2-0.4,2.2,0,2.7,1s0.199,2.1-1,2.699
			c-1,0.602-2.2,1-3.301,1.301c-4.699,1.1-9.199,0.6-13.101-2.301C218.443,103.265,216.943,99.463,216.943,95.765"/>
		<path fill="#FEC200" d="M116.742,98.063c1.801,2.399,3.601,4.801,5.301,7.201c0.9,1.198,0.601,2.5-0.5,3.299
			c-1,0.601-2.1,0.399-3-0.601c-0.7-0.899-1.399-1.899-2.1-2.899c-1.4-2-2.801-3.899-4.201-5.799c-0.199-0.201-0.5-0.5-0.699-0.5
			c-1.899,0-3.801,0-5.899,0v2.399c0,1.799,0,3.601,0,5.398c0,1.4-0.899,2.4-2.101,2.4c-1.301,0-2.3-0.9-2.3-2.301
			c0-7.5,0-15,0-22.5c0-1.398,0.8-2.3,2.1-2.3c3.899,0,7.7-0.1,11.601,0.199c4.301,0.301,6.899,2.801,7.5,6.801
			c0.601,4.3-1.399,7.699-5.3,9.3C117.043,97.963,116.943,97.963,116.742,98.063 M105.643,94.664c3,0,5.801,0.199,8.6,0
			c2.5-0.201,3.801-2,3.801-4.602c0-2.5-1.301-4.199-3.801-4.5c-2.699-0.199-5.399-0.1-8.1-0.199c-0.199,0-0.301,0.1-0.5,0.1v8.4
			V94.664z"/>
		<path fill="#FEC200" d="M81.543,85.563v7.5h1c3.5,0,6.9,0,10.4,0c1.5,0,2.399,0.899,2.2,2.201c-0.2,1.1-0.9,1.698-2,1.698
			c-3.5,0-7,0-10.5,0h-1v7.601h1c4.1,0,8.3,0,12.399,0c1.7,0,2.601,1.201,2.101,2.601c-0.301,0.801-0.9,1.301-1.7,1.301
			c-5.4,0-10.8,0-16.101,0c-1.399,0-2.199-1-2.199-2.4c0-4.199,0-8.398,0-12.6c0-3.101,0-6.101,0-9.199c0-1.701,0.8-2.5,2.5-2.5
			c5.1,0,10.199,0,15.399,0c1.4,0,2.3,0.799,2.3,2c0,1.199-0.899,1.898-2.3,1.898c-4.1,0-8.2,0-12.399,0h-1.101L81.543,85.563
			L81.543,85.563z"/>
		<path fill="#FEC200" d="M46.342,91.563c0,2.5,0.101,5,0,7.5c-0.3,5.101-3.5,8.701-8.6,9.5c-2.9,0.399-5.8,0.301-8.5-0.899
			c-3.3-1.5-5.1-4.199-5.6-7.8c-0.101-1-0.2-2-0.2-3.1c0-4.4,0-8.9,0-13.302c0-1.1,0.7-1.899,1.7-2.198
			c0.899-0.201,2,0.198,2.399,1.1c0.2,0.5,0.3,1,0.3,1.601c0,4.301,0,8.5,0,12.801c0,1,0.101,2.1,0.301,3.1
			c0.6,2.699,2.6,4.5,5.399,4.699c1.2,0.102,2.5,0,3.7-0.199c2.5-0.6,4.2-2.6,4.5-5.199c0.1-0.801,0.2-1.701,0.2-2.5
			c0-4.301,0-8.701,0-13c0-1.701,1.6-2.801,3.1-2.102c0.9,0.4,1.3,1.201,1.3,2.201C46.443,86.363,46.443,88.963,46.342,91.563
			L46.342,91.563z"/>
		<path fill="#FEC200" d="M56.443,99.863c0,2.301,0,4.5,0,6.699c0,1.801-1.8,2.801-3.3,1.9c-0.801-0.4-1.101-1.199-1.101-2
			c0-7.5,0-15,0-22.5c0-1.301,0.8-2.199,2.101-2.199c3.699,0,7.399-0.102,11.1,0.199c4.6,0.399,7.9,4.5,7.6,9.1
			c-0.199,3.201-1.399,5.701-4.1,7.5c-1.6,1-3.3,1.301-5.1,1.4c-2.2,0-4.5,0-6.7,0C56.842,99.863,56.643,99.863,56.443,99.863
			 M56.443,95.863c2.5,0,4.899,0.1,7.3,0c1.6-0.1,2.9-0.801,3.8-2.1c2.3-3.602,0.101-7.9-4.1-8.102c-2.2-0.101-4.4,0-6.601-0.101
			c-0.1,0-0.3,0.101-0.399,0.101V95.863L56.443,95.863z"/>
		<path fill="#FEC200" d="M8.342,108.765c-1.399,0-3.8-0.4-6-1.4c-0.5-0.2-1.1-0.6-1.5-1c-0.899-0.801-1.1-1.801-0.5-2.801
			c0.601-0.899,1.601-1.199,2.7-0.799c0.7,0.299,1.3,0.6,1.9,0.899c2.1,1.101,4.3,1.398,6.6,0.799c2.101-0.5,3.3-2.399,2.9-4.299
			c-0.2-1-0.9-1.801-1.8-2.201c-1.4-0.698-3-1.198-4.4-1.698c-1.5-0.601-3-1-4.4-1.802c-2.699-1.1-3.899-3.399-3.8-6.299
			c0.2-3,1.8-5,4.601-6c3.8-1.399,7.6-1.102,11.399,0.199c0.5,0.199,1.101,0.6,1.5,0.9c0.7,0.6,0.8,1.299,0.5,2.199
			c-0.3,0.801-1.1,1.399-1.899,1.301c-0.9-0.102-1.801-0.4-2.7-0.801c-2.101-0.801-4.2-1-6.4-0.4c-1.2,0.301-2.1,1-2.3,2.301
			c-0.2,1.4,0.4,2.5,1.6,3c1.801,0.801,3.7,1.4,5.5,2.1c1.2,0.5,2.5,0.9,3.601,1.5c5.3,2.601,4.7,10.101,0.2,12.802
			C13.943,108.265,11.842,108.765,8.342,108.765"/>
	</g>
	<path fill="#FEC200" d="M171.459,18.563c-6.698-3.5-12.698-8.1-18.898-12.2c-7.3-4.8-15.199-7.2-23.9-6.1
		c-12,1.5-22.799,15.4-21.699,27.9c1.801,21.4,23.301,32.399,41.9,21.6c8.399-4.9,15.799-11.3,24.699-15.7
		c6-2.9,12.399-4.8,18.6-7.5C184.859,24.264,177.959,21.963,171.459,18.563 M134.459,37.264c-5.799,0-10.5-4.7-10.5-10.5
		c0-5.8,4.701-10.5,10.5-10.5c5.802,0,10.5,4.7,10.5,10.5C144.959,32.563,140.26,37.264,134.459,37.264"/>
</g>
</svg>
