<?xml version="1.0" encoding="UTF-8" standalone="no"?>
<svg width="40px" height="40px" viewBox="0 0 40 40" version="1.1" xmlns="http://www.w3.org/2000/svg" xmlns:xlink="http://www.w3.org/1999/xlink" xmlns:sketch="http://www.bohemiancoding.com/sketch/ns">
    <!-- Generator: Sketch 3.3.2 (12043) - http://www.bohemiancoding.com/sketch -->
    <title>Slice 1</title>
    <desc>Created with Sketch.</desc>
    <defs></defs>
    <g id="Page-1" stroke="none" stroke-width="1" fill="none" fill-rule="evenodd" sketch:type="MSPage">
        <path d="M4,19 L5,19 L5,20 L4,20 L4,19 Z M4,9 L5,9 L5,10 L4,10 L4,9 Z M4,29 L5,29 L5,30 L4,30 L4,29 Z M4,39 L5,39 L5,40 L4,40 L4,39 Z M9,4 L10,4 L10,5 L9,5 L9,4 Z M19,4 L20,4 L20,5 L19,5 L19,4 Z M29,4 L30,4 L30,5 L29,5 L29,4 Z M39,4 L40,4 L40,5 L39,5 L39,4 Z M4,4 L3,4 L3,5 L4,5 L4,6 L5,6 L5,5 L6,5 L6,4 L5,4 L5,3 L4,3 L4,4 Z M14,4 L13,4 L13,5 L14,5 L14,6 L15,6 L15,5 L16,5 L16,4 L15,4 L15,3 L14,3 L14,4 Z M24,4 L23,4 L23,5 L24,5 L24,6 L25,6 L25,5 L26,5 L26,4 L25,4 L25,3 L24,3 L24,4 Z M34,4 L33,4 L33,5 L34,5 L34,6 L35,6 L35,5 L36,5 L36,4 L35,4 L35,3 L34,3 L34,4 Z M4,14 L3,14 L3,15 L4,15 L4,16 L5,16 L5,15 L6,15 L6,14 L5,14 L5,13 L4,13 L4,14 Z M4,24 L3,24 L3,25 L4,25 L4,26 L5,26 L5,25 L6,25 L6,24 L5,24 L5,23 L4,23 L4,24 Z M4,34 L3,34 L3,35 L4,35 L4,36 L5,36 L5,35 L6,35 L6,34 L5,34 L5,33 L4,33 L4,34 Z" id="Rectangle-1" fill="#E9F6FC" sketch:type="MSShapeGroup"></path>
        <path d="M14,14 L13,14 L13,15 L14,15 L14,16 L15,16 L15,15 L16,15 L16,14 L15,14 L15,13 L14,13 L14,14 Z M24,14 L23,14 L23,15 L24,15 L24,16 L25,16 L25,15 L26,15 L26,14 L25,14 L25,13 L24,13 L24,14 Z M34,14 L33,14 L33,15 L34,15 L34,16 L35,16 L35,15 L36,15 L36,14 L35,14 L35,13 L34,13 L34,14 Z M34,24 L33,24 L33,25 L34,25 L34,26 L35,26 L35,25 L36,25 L36,24 L35,24 L35,23 L34,23 L34,24 Z M24,24 L23,24 L23,25 L24,25 L24,26 L25,26 L25,25 L26,25 L26,24 L25,24 L25,23 L24,23 L24,24 Z M14,24 L13,24 L13,25 L14,25 L14,26 L15,26 L15,25 L16,25 L16,24 L15,24 L15,23 L14,23 L14,24 Z M14,34 L13,34 L13,35 L14,35 L14,36 L15,36 L15,35 L16,35 L16,34 L15,34 L15,33 L14,33 L14,34 Z M24,34 L23,34 L23,35 L24,35 L24,36 L25,36 L25,35 L26,35 L26,34 L25,34 L25,33 L24,33 L24,34 Z M34,34 L33,34 L33,35 L34,35 L34,36 L35,36 L35,35 L36,35 L36,34 L35,34 L35,33 L34,33 L34,34 Z" id="Rectangle-1-Copy-14" fill="#F4F3F2" sketch:type="MSShapeGroup"></path>
    </g>
</svg>