<?xml version="1.0" encoding="UTF-8" standalone="no"?>
<svg width="440px" height="139px" viewBox="0 0 440 139" version="1.1" xmlns="http://www.w3.org/2000/svg" xmlns:xlink="http://www.w3.org/1999/xlink" xmlns:sketch="http://www.bohemiancoding.com/sketch/ns">
    <!-- Generator: Sketch 3.3.2 (12043) - http://www.bohemiancoding.com/sketch -->
    <title>logo-procurious</title>
    <desc>Created with Sketch.</desc>
    <defs></defs>
    <g id="Page-1" stroke="none" stroke-width="1" fill="none" fill-rule="evenodd" sketch:type="MSPage">
        <g id="logo-procurious" sketch:type="MSLayerGroup" fill="#FFFFFF">
            <path d="M366.884444,99.358621 L342.586667,125.8 L342.586667,0.20344828 L439.777778,0.18361724 L439.777778,99.358621 L366.884444,99.358621 L366.884444,99.358621 Z M435.36,4.61034483 L347.004444,4.61034483 L347.004444,114.093079 L364.675556,94.9517241 L435.36,94.9517241 L435.36,4.61034483 L435.36,4.61034483 Z M316.749293,107.502566 C320.687742,109.327021 322.715502,111.8698 322.715502,116.373648 C322.715502,122.699748 318.529658,125.700845 312.687147,125.700845 L303.288324,125.700845 C300.114151,125.700845 297.956067,125.568638 295.669867,123.744183 C294.53008,122.831955 292.877831,121.655314 292.877831,120.090866 C292.877831,118.33031 294.337907,116.959766 296.052004,116.959766 C297.004036,116.959766 297.704253,117.288079 298.402262,118.0681 C299.4802,119.310845 301.384262,119.438645 303.288324,119.438645 L311.540733,119.438645 C313.703236,119.438645 316.625596,119.636955 316.625596,115.981434 C316.625596,114.478683 314.845231,113.500352 313.447004,112.848131 L299.098062,106.132021 C295.736133,104.565369 293.765804,102.542603 293.765804,98.497072 C293.765804,93.5371103 297.576138,90.5360138 302.148538,90.5360138 L312.559031,90.5360138 C315.925378,90.5360138 317.319187,90.7343241 319.605387,92.6909862 C320.7518,93.6715207 322.021911,94.4515414 322.021911,96.2120966 C322.021911,97.9770586 320.557418,99.347603 318.907378,99.347603 C317.765382,99.347603 317.067373,98.889286 316.307516,98.043162 C315.291427,96.9326241 314.209071,96.8004172 312.559031,96.8004172 L303.288324,96.8004172 C302.018213,96.8004172 299.862338,96.5404103 299.862338,98.563176 C299.862338,99.60761 300.624404,99.999824 301.512378,100.387631 L316.749293,107.502566 L316.749293,107.502566 Z M286.719449,125.700845 C284.119587,125.700845 283.673391,123.484176 283.673391,121.329203 L283.673391,120.286972 L278.723271,123.616383 C276.755151,124.920824 275.102902,125.700845 273.450653,125.700845 L268.942311,125.700845 C267.232631,125.700845 265.32636,125.180831 263.294182,123.418072 C260.561787,121.003093 260.625844,118.33031 260.502147,114.937 L259.865987,95.2337655 C259.801929,92.9531966 260.120009,90.5360138 262.912044,90.5360138 C265.516324,90.5360138 265.834404,92.8209897 265.898462,94.8437552 L266.532413,114.090876 C266.596471,115.523117 266.656111,117.221976 267.166364,118.134203 C267.674409,119.044228 269.260391,119.438645 270.722676,119.438645 L272.752644,119.438645 C273.450653,119.438645 274.086813,119.244741 274.656707,118.852528 L283.609333,113.046441 L283.609333,94.8437552 C283.609333,92.6909862 284.055529,90.5360138 286.6576,90.5360138 C289.26188,90.5360138 289.703658,92.6909862 289.703658,94.8437552 L289.703658,121.069197 C289.703658,122.505845 289.95768,125.700845 286.719449,125.700845 L286.719449,125.700845 L286.719449,125.700845 Z M244.185084,125.700845 L239.358662,125.700845 C235.48648,125.700845 234.216369,125.180831 231.042196,122.439741 C227.868022,119.698652 226.849724,118.134203 226.849724,114.024772 L226.849724,102.216493 C226.849724,98.043162 227.678058,96.6065138 230.724116,94.0637345 C233.710533,91.5143448 235.10876,90.5360138 239.358662,90.5360138 L244.185084,90.5360138 C248.439404,90.5360138 249.833213,91.5143448 252.819631,94.0637345 C255.865689,96.6065138 256.691813,98.043162 256.691813,102.216493 L256.691813,114.024772 C256.691813,118.134203 255.675724,119.698652 252.501551,122.439741 C249.327378,125.180831 248.057267,125.700845 244.185084,125.700845 L244.185084,125.700845 L244.185084,125.700845 Z M250.597489,102.216493 C250.597489,100.912052 250.151293,100.061521 248.375347,98.497072 C247.041178,97.3248379 246.089147,96.8004172 244.185084,96.8004172 L239.358662,96.8004172 C237.4546,96.8004172 236.502569,97.3248379 235.1684,98.497072 C233.392453,100.061521 232.946258,100.912052 232.946258,102.216493 L232.946258,114.024772 C232.946258,115.329214 233.392453,116.175338 235.1684,117.739786 C236.502569,118.918631 237.4546,119.438645 239.358662,119.438645 L244.185084,119.438645 C246.089147,119.438645 247.041178,118.918631 248.375347,117.739786 C250.151293,116.175338 250.597489,115.329214 250.597489,114.024772 L250.597489,102.216493 L250.597489,102.216493 Z M216.505498,125.700845 L201.01456,125.700845 C199.236404,125.700845 196.824298,125.308631 196.824298,122.571948 C196.824298,119.896962 198.982382,119.438645 201.01456,119.438645 L205.840982,119.438645 L205.840982,96.8004172 L201.01456,96.8004172 C199.236404,96.8004172 196.824298,96.4104069 196.824298,93.6715207 C196.824298,90.994331 198.982382,90.5360138 201.01456,90.5360138 L207.429173,90.5360138 C210.919218,90.5360138 211.933098,91.1882345 211.933098,94.9098586 L211.933098,119.438645 L216.505498,119.438645 C218.537676,119.438645 220.69576,119.896962 220.69576,122.571948 C220.69576,125.308631 218.281444,125.700845 216.505498,125.700845 L216.505498,125.700845 L216.505498,125.700845 Z M208.917964,83.8000724 L204.559827,83.8000724 C202.501142,83.8000724 200.99468,82.9297103 200.99468,80.2437069 L200.99468,76.6058138 C200.99468,73.9198103 202.501142,73.0494483 204.559827,73.0494483 L208.917964,73.0494483 C210.976649,73.0494483 212.48532,73.9198103 212.48532,76.6058138 L212.48532,80.2437069 C212.48532,82.9297103 210.976649,83.8000724 208.917964,83.8000724 L208.917964,83.8000724 L208.917964,83.8000724 Z M192.1282,104.499266 C189.906058,104.499266 189.013667,102.670403 189.013667,100.652045 C189.013667,99.60761 189.013667,98.823183 188.379716,97.9109552 C187.619858,96.8004172 186.157573,96.8004172 184.697498,96.8004172 L182.92376,96.8004172 C181.777347,96.8004172 180.953431,97.3909414 179.873284,98.303169 L171.366853,105.5437 L171.366853,121.395307 C171.366853,123.550279 170.920658,125.700845 168.316378,125.700845 C165.718724,125.700845 165.272529,123.550279 165.272529,121.395307 L165.272529,95.1676621 C165.272529,92.8870931 165.524342,90.5360138 168.316378,90.5360138 C170.732902,90.5360138 171.366853,92.6248828 171.366853,94.7159552 L171.366853,97.2587345 L176.129218,93.211 C177.843316,91.7787586 179.619262,90.5360138 181.523324,90.5360138 L186.413804,90.5360138 C188.759644,90.5360138 190.729973,91.3204414 192.380013,93.0170966 C194.4144,95.1015586 195.107991,97.2587345 195.107991,100.127624 C195.107991,102.282597 194.73248,104.499266 192.1282,104.499266 L192.1282,104.499266 L192.1282,104.499266 Z M159.111938,125.700845 C156.512076,125.700845 156.06588,123.484176 156.06588,121.329203 L156.06588,120.286972 L151.11576,123.616383 C149.14764,124.920824 147.495391,125.700845 145.845351,125.700845 L141.337009,125.700845 C139.62512,125.700845 137.721058,125.180831 135.686671,123.418072 C132.954276,121.003093 133.018333,118.33031 132.894636,114.937 L132.260684,95.2337655 C132.194418,92.9531966 132.512498,90.5360138 135.306742,90.5360138 C137.908813,90.5360138 138.226893,92.8209897 138.290951,94.8437552 L138.927111,114.090876 C138.991169,115.523117 139.050809,117.221976 139.561062,118.134203 C140.066898,119.044228 141.65288,119.438645 143.117373,119.438645 L145.145133,119.438645 C145.845351,119.438645 146.479302,119.244741 147.049196,118.852528 L156.001822,113.046441 L156.001822,94.8437552 C156.001822,92.6909862 156.448018,90.5360138 159.052298,90.5360138 C161.654369,90.5360138 162.098356,92.6909862 162.098356,94.8437552 L162.098356,121.069197 C162.098356,122.505845 162.350169,125.700845 159.111938,125.700845 L159.111938,125.700845 L159.111938,125.700845 Z M106.990996,114.676993 L110.675422,117.871993 C111.751151,118.786424 112.957204,119.438645 114.167676,119.438645 L124.89404,119.438645 C126.669987,119.438645 129.086511,119.830859 129.086511,122.571948 C129.086511,125.246934 126.928427,125.700845 124.89404,125.700845 L115.243404,125.700845 C111.687093,125.700845 110.229227,125.634741 107.373133,123.224169 L102.864791,119.372541 C99.942431,116.893662 99.244422,115.003103 99.244422,111.151476 L99.244422,105.085383 C99.244422,101.238162 99.942431,99.347603 102.864791,96.8665207 L107.373133,93.0170966 C110.229227,90.6021172 111.687093,90.5360138 115.243404,90.5360138 L124.89404,90.5360138 C126.928427,90.5360138 129.086511,90.994331 129.086511,93.6715207 C129.086511,96.4104069 126.669987,96.8004172 124.89404,96.8004172 L114.167676,96.8004172 C112.957204,96.8004172 111.751151,97.4526379 110.675422,98.364866 L106.990996,101.564272 C106.038964,102.344293 105.338747,102.996514 105.338747,104.239259 L105.338747,112.002007 C105.338747,113.240345 106.038964,113.892566 106.990996,114.676993 L106.990996,114.676993 L106.990996,114.676993 Z M83.5657289,125.700845 L78.7415156,125.700845 C74.8671244,125.700845 73.5970133,125.180831 70.42284,122.439741 C67.2486667,119.698652 66.2325778,118.134203 66.2325778,114.024772 L66.2325778,102.216493 C66.2325778,98.043162 67.0609111,96.6065138 70.1069689,94.0637345 C73.0911778,91.5143448 74.4849867,90.5360138 78.7415156,90.5360138 L83.5657289,90.5360138 C87.81784,90.5360138 89.2160667,91.5143448 92.2002756,94.0637345 C95.2463333,96.6065138 96.0746667,98.043162 96.0746667,102.216493 L96.0746667,114.024772 C96.0746667,118.134203 95.0563689,119.698652 91.8844044,122.439741 C88.7102311,125.180831 87.44012,125.700845 83.5657289,125.700845 L83.5657289,125.700845 L83.5657289,125.700845 Z M89.9781333,102.216493 C89.9781333,100.912052 89.5319378,100.061521 87.7559911,98.497072 C86.4240311,97.3248379 85.4697911,96.8004172 83.5657289,96.8004172 L78.7415156,96.8004172 C76.8352444,96.8004172 75.8832133,97.3248379 74.5490444,98.497072 C72.7730978,100.061521 72.3269022,100.912052 72.3269022,102.216493 L72.3269022,114.024772 C72.3269022,115.329214 72.7730978,116.175338 74.5490444,117.739786 C75.8832133,118.918631 76.8352444,119.438645 78.7415156,119.438645 L83.5657289,119.438645 C85.4697911,119.438645 86.4240311,118.918631 87.7559911,117.739786 C89.5319378,116.175338 89.9781333,115.329214 89.9781333,114.024772 L89.9781333,102.216493 L89.9781333,102.216493 Z M60.0764044,104.499266 C57.8542622,104.499266 56.96408,102.670403 56.96408,100.652045 C56.96408,99.60761 56.96408,98.823183 56.32792,97.9109552 C55.5680622,96.8004172 54.1057778,96.8004172 52.6479111,96.8004172 L50.8719644,96.8004172 C49.7255511,96.8004172 48.9038444,97.3909414 47.8214889,98.303169 L39.3172667,105.5437 L39.3172667,121.395307 C39.3172667,123.550279 38.8710711,125.700845 36.2667911,125.700845 C33.6625111,125.700845 33.2207333,123.550279 33.2207333,121.395307 L33.2207333,95.1676621 C33.2207333,92.8870931 33.4747556,90.5360138 36.2667911,90.5360138 C38.6811067,90.5360138 39.3172667,92.6248828 39.3172667,94.7159552 L39.3172667,97.2587345 L44.0774222,93.211 C45.7893111,91.7787586 47.5696756,90.5360138 49.4737378,90.5360138 L54.3642178,90.5360138 C56.7100578,90.5360138 58.6781778,91.3204414 60.3304267,93.0170966 C62.3581867,95.1015586 63.0584044,97.2587345 63.0584044,100.127624 C63.0584044,102.282597 62.6762667,104.499266 60.0764044,104.499266 L60.0764044,104.499266 L60.0764044,104.499266 Z M22.49216,124.2025 C21.2220489,125.246934 19.2539289,127.005286 17.6038889,127.005286 L13.4776844,127.005286 C10.7474978,127.005286 9.4751778,125.180831 7.50926667,123.290272 L6.30100444,122.113631 L6.30100444,134.706338 C6.30100444,136.856903 5.85922667,139.011876 3.25494667,139.011876 C0.65066667,139.011876 0.20888889,136.856903 0.20888889,134.706338 L0.20888889,95.1676621 C0.20888889,92.9531966 0.46291111,90.5360138 3.25494667,90.5360138 C5.72890222,90.5360138 6.30100444,92.5587793 6.30100444,94.6476483 L6.30100444,95.4298724 L7.50926667,94.3215379 C9.0974578,92.8870931 11.5073556,90.5360138 13.2236622,90.5360138 L17.4139244,90.5360138 C18.8717911,90.5360138 20.84212,92.104869 22.49216,93.4093103 L26.1721689,96.3443034 C29.72848,99.215397 30.04656,100.978155 30.04656,105.411493 L30.04656,112.134214 C30.04656,116.633655 29.72848,118.33031 26.1721689,121.201403 L22.49216,124.2025 L22.49216,124.2025 Z M23.9522356,104.565369 C23.9522356,103.388728 23.6341556,102.670403 22.6821244,101.824279 L18.1097244,97.9109552 C17.5398311,97.3909414 16.8396133,96.8004172 16.0156978,96.8004172 L14.4297156,96.8004172 C13.5417422,96.8004172 12.4593867,97.9770586 11.8254356,98.629279 L8.0151022,102.344293 C6.7472,103.587038 6.30100444,104.300955 6.30100444,105.6715 L6.30100444,111.808103 C6.30100444,112.720331 6.55723556,113.892566 7.19339556,114.478683 L11.8254356,118.984734 C12.7134089,119.896962 13.66544,120.740883 14.4297156,120.740883 L16.0156978,120.740883 C16.8396133,120.740883 17.5398311,120.156969 18.1097244,119.636955 L22.6821244,115.721428 C23.6341556,114.870897 23.9522356,114.152572 23.9522356,112.980338 L23.9522356,104.565369 L23.9522356,104.565369 Z" id="Path-1" sketch:type="MSShapeGroup"></path>
        </g>
    </g>
</svg>