<?xml version="1.0" encoding="UTF-8" standalone="no"?>
<svg width="335px" height="440px" viewBox="0 0 335 440" version="1.1" xmlns="http://www.w3.org/2000/svg" xmlns:xlink="http://www.w3.org/1999/xlink" xmlns:sketch="http://www.bohemiancoding.com/sketch/ns">
    <!-- Generator: Sketch 3.3.2 (12043) - http://www.bohemiancoding.com/sketch -->
    <title>SVGID_1_ + Group</title>
    <desc>Created with Sketch.</desc>
    <defs>
        <path id="path-1" d="M3.33784556e-09,0.137 L334.083008,0.137 L334,442.000007 L3.33784556e-09,442.000007 L3.33784556e-09,0.137 Z"></path>
    </defs>
    <g id="Page-1" stroke="none" stroke-width="1" fill="none" fill-rule="evenodd" sketch:type="MSPage">
        <g id="SVGID_1_-+-Group" sketch:type="MSLayerGroup" transform="translate(0.000000, -1.000000)">
            <mask id="mask-2" sketch:name="SVGID_1_" fill="white">
                <use xlink:href="#path-1"></use>
            </mask>
            <g id="SVGID_1_"></g>
            <g id="Group" mask="url(#mask-2)"   opacity="0.2">
                <g transform="translate(-15.000000, 1.000000)">
                    <g id="Group" stroke-width="1" fill="none" sketch:type="MSLayerGroup" transform="translate(230.000000, 175.000000)">
                        <path d="M58.219,14.823 C58.217,14.807 58.213,14.791 58.21,14.774 C58.198,14.699 58.184,14.626 58.162,14.552 C58.158,14.539 58.156,14.526 58.152,14.513 C58.128,14.432 58.097,14.352 58.062,14.273 C58.056,14.256 58.048,14.241 58.041,14.225 C58.022,14.186 58.004,14.147 57.984,14.108 C57.97,14.087 57.957,14.067 57.944,14.047 C57.931,14.026 57.92,14.006 57.906,13.984 C57.864,13.919 57.817,13.857 57.768,13.797 C57.764,13.792 57.761,13.786 57.756,13.782 C57.7,13.716 57.638,13.653 57.576,13.594 C57.563,13.584 57.552,13.573 57.539,13.563 C57.481,13.514 57.423,13.467 57.36,13.424 C57.348,13.417 57.339,13.408 57.326,13.401 C57.255,13.353 57.179,13.31 57.1,13.272 C57.096,13.27 57.091,13.266 57.086,13.264 L30.152,0.326 C29.599,0.061 28.954,0.061 28.4,0.326 L1.465,13.263 C1.459,13.266 1.454,13.27 1.449,13.272 C1.373,13.31 1.299,13.352 1.227,13.399 C1.213,13.407 1.2,13.418 1.186,13.426 C1.127,13.467 1.071,13.512 1.015,13.559 C1.001,13.572 0.988,13.583 0.974,13.596 C0.911,13.653 0.852,13.713 0.795,13.78 C0.789,13.787 0.783,13.796 0.777,13.803 C0.731,13.859 0.688,13.918 0.648,13.981 C0.633,14.002 0.62,14.025 0.605,14.049 C0.593,14.069 0.58,14.086 0.569,14.106 C0.548,14.143 0.533,14.18 0.514,14.217 C0.505,14.236 0.495,14.254 0.487,14.272 C0.453,14.35 0.424,14.429 0.4,14.508 C0.396,14.524 0.392,14.539 0.388,14.555 C0.368,14.625 0.353,14.696 0.342,14.768 C0.339,14.787 0.335,14.804 0.333,14.823 C0.321,14.909 0.315,14.997 0.315,15.083 L0.315,15.089 L0.315,48.364 C0.315,49.1 0.713,49.777 1.357,50.135 L28.292,65.073 C28.597,65.242 28.936,65.326 29.273,65.326 C29.61,65.326 29.949,65.242 30.254,65.073 L57.19,50.136 C57.833,49.779 58.231,49.101 58.231,48.366 L58.231,15.09 L58.231,15.087 C58.236,14.999 58.23,14.911 58.219,14.823 L58.219,14.823 Z M29.278,60.987 L4.367,47.174 L4.367,18.528 L17.582,25.856 C17.893,26.028 18.228,26.11 18.561,26.11 C19.273,26.11 19.964,25.733 20.333,25.067 C20.876,24.089 20.522,22.857 19.545,22.315 L6.751,15.219 L29.277,4.401 L51.804,15.219 L39.01,22.315 C38.033,22.856 37.678,24.088 38.221,25.067 C38.591,25.733 39.282,26.11 39.993,26.11 C40.326,26.11 40.663,26.028 40.972,25.855 L54.186,18.528 L54.186,47.174 L29.278,60.987 L29.278,60.987 Z" id="Shape" fill="#FFFFFF" sketch:type="MSShapeGroup"></path>
                        <path d="M31.316,33.132 C31.252,32.926 31.038,32.806 30.828,32.861 C29.814,33.126 28.724,33.125 27.707,32.855 C27.498,32.8 27.282,32.919 27.217,33.126 L21.532,51.299 C21.485,51.449 21.531,51.615 21.65,51.721 L28.998,58.248 C29.074,58.316 29.171,58.35 29.268,58.35 C29.364,58.35 29.459,58.316 29.536,58.248 L36.909,51.721 C37.028,51.617 37.074,51.45 37.025,51.297 L31.316,33.132 L31.316,33.132 Z" id="Shape" fill="#FFFFFF" sketch:type="MSShapeGroup"></path>
                        <path d="M23.955,25.406 L27.287,31.12 C27.342,31.212 27.43,31.28 27.533,31.308 C27.644,31.337 27.757,31.37 27.869,31.402 C28.31,31.529 28.766,31.659 29.278,31.659 C29.771,31.659 30.211,31.533 30.634,31.41 C30.754,31.375 30.874,31.34 30.995,31.308 C31.104,31.281 31.194,31.208 31.248,31.111 L34.383,25.378 C34.491,25.149 34.59,24.625 34.267,24.113 C33.681,23.185 32.004,22.716 29.278,22.716 C26.525,22.716 24.798,23.192 24.14,24.129 C23.719,24.731 23.902,25.281 23.923,25.344 C23.934,25.364 23.943,25.386 23.955,25.406 L23.955,25.406 Z" id="Shape" fill="#FFFFFF" sketch:type="MSShapeGroup"></path>
                    </g>
                    <g id="Your_Icon_25_" stroke-width="1" fill="none" sketch:type="MSLayerGroup" transform="translate(162.000000, 251.000000)">
                        <g id="Group" fill="#FFFFFF" sketch:type="MSShapeGroup">
                            <path d="M48.785,0.054 L0.021,0.054 L0.021,97.179 L72.806,97.179 L72.806,24.074 L48.785,0.054 L48.785,0.054 Z M52.418,8.819 L64.039,20.442 L52.418,20.442 L52.418,8.819 L52.418,8.819 Z M69.174,93.546 L3.652,93.546 L3.652,3.685 L48.785,3.685 L48.785,24.074 L69.174,24.074 L69.174,93.546 L69.174,93.546 Z" id="Shape"></path>
                            <rect id="Rectangle-path" x="10.452" y="12.398" width="25.42" height="3.633"></rect>
                            <rect id="Rectangle-path" x="10.452" y="20.026" width="25.42" height="3.633"></rect>
                            <rect id="Rectangle-path" x="10.452" y="38.909" width="50.845" height="3.633"></rect>
                            <rect id="Rectangle-path" x="10.452" y="31.646" width="50.845" height="3.632"></rect>
                            <rect id="Rectangle-path" x="10.452" y="46.173" width="50.845" height="3.63"></rect>
                            <rect id="Rectangle-path" x="10.452" y="53.437" width="50.845" height="3.633"></rect>
                            <rect id="Rectangle-path" x="10.452" y="60.699" width="50.845" height="3.631"></rect>
                            <rect id="Rectangle-path" x="10.452" y="81.037" width="29.052" height="3.634"></rect>
                            <rect id="Rectangle-path" x="10.452" y="67.238" width="14.526" height="3.63"></rect>
                        </g>
                    </g>
                    <g id="Group" stroke-width="1" fill="none" sketch:type="MSLayerGroup" transform="translate(292.000000, 77.000000)">
                        <path d="M27.523,82.517 C19.511,82.517 12.996,75.999 12.996,67.991 C12.996,67.246 13.053,66.503 13.164,65.769 C5.226,60.821 0.352,52.109 0.352,42.705 C0.352,27.723 12.54,15.535 27.523,15.535 C42.501,15.535 54.692,27.723 54.692,42.705 C54.692,52.108 49.816,60.821 41.879,65.769 C41.991,66.503 42.049,67.245 42.049,67.991 C42.05,75.999 35.531,82.517 27.523,82.517 L27.523,82.517 Z M27.523,19.3 C14.616,19.3 4.118,29.799 4.118,42.704 C4.118,51.203 8.744,59.052 16.19,63.181 C16.94,63.597 17.314,64.465 17.1,65.295 C16.875,66.171 16.761,67.079 16.761,67.99 C16.761,73.923 21.588,78.75 27.523,78.75 C33.454,78.75 38.282,73.923 38.282,67.99 C38.282,67.076 38.17,66.171 37.943,65.298 C37.728,64.468 38.101,63.597 38.852,63.181 C46.301,59.052 50.927,51.203 50.927,42.704 C50.926,29.799 40.427,19.3 27.523,19.3 L27.523,19.3 Z" id="Shape" fill="#FFFFFF" sketch:type="MSShapeGroup"></path>
                        <path d="M40.059,70.481 L14.986,70.481 C13.946,70.481 13.103,69.636 13.103,68.596 C13.103,67.557 13.946,66.714 14.986,66.714 L40.059,66.714 C41.1,66.714 41.943,67.557 41.943,68.596 C41.942,69.637 41.1,70.481 40.059,70.481 L40.059,70.481 Z" id="Shape" fill="#FFFFFF" sketch:type="MSShapeGroup"></path>
                        <path d="M37.417,76.321 L17.627,76.321 C16.586,76.321 15.743,75.477 15.743,74.439 C15.743,73.397 16.586,72.554 17.627,72.554 L37.417,72.554 C38.458,72.554 39.301,73.397 39.301,74.439 C39.301,75.478 38.458,76.321 37.417,76.321 L37.417,76.321 Z" id="Shape" fill="#FFFFFF" sketch:type="MSShapeGroup"></path>
                        <path d="M27.523,70.328 C26.482,70.328 25.639,69.482 25.639,68.444 L25.639,48.316 C25.639,47.276 26.482,46.432 27.523,46.432 C28.561,46.432 29.406,47.276 29.406,48.316 L29.406,68.444 C29.406,69.482 28.562,70.328 27.523,70.328 L27.523,70.328 Z" id="Shape" fill="#FFFFFF" sketch:type="MSShapeGroup"></path>
                        <path d="M27.523,50.199 C24.091,50.199 21.303,47.41 21.303,43.981 C21.303,42.941 22.146,42.098 23.187,42.098 C24.226,42.098 25.069,42.941 25.069,43.981 C25.069,45.335 26.169,46.432 27.523,46.432 C28.874,46.432 29.974,45.334 29.974,43.981 C29.974,42.941 30.817,42.098 31.858,42.098 C32.898,42.098 33.741,42.941 33.741,43.981 C33.741,47.41 30.95,50.199 27.523,50.199 L27.523,50.199 Z" id="Shape" fill="#FFFFFF" sketch:type="MSShapeGroup"></path>
                        <path d="M27.523,12.107 C26.482,12.107 25.639,11.263 25.639,10.223 L25.639,2.566 C25.639,1.526 26.482,0.682 27.523,0.682 C28.561,0.682 29.406,1.526 29.406,2.566 L29.406,10.223 C29.406,11.264 28.562,12.107 27.523,12.107 L27.523,12.107 Z" id="Shape" fill="#FFFFFF" sketch:type="MSShapeGroup"></path>
                        <path d="M11.379,16.354 C10.729,16.354 10.095,16.016 9.746,15.412 L5.916,8.78 C5.396,7.88 5.705,6.728 6.606,6.207 C7.505,5.688 8.658,5.997 9.179,6.897 L13.008,13.528 C13.529,14.429 13.218,15.581 12.319,16.101 C12.021,16.272 11.697,16.354 11.379,16.354 L11.379,16.354 Z" id="Shape" fill="#FFFFFF" sketch:type="MSShapeGroup"></path>
                        <path d="M43.625,16.502 C43.307,16.502 42.981,16.421 42.686,16.251 C41.785,15.73 41.477,14.577 41.997,13.678 L45.827,7.045 C46.348,6.143 47.503,5.835 48.4,6.355 C49.301,6.875 49.609,8.028 49.089,8.927 L45.259,15.56 C44.91,16.163 44.277,16.502 43.625,16.502 L43.625,16.502 Z" id="Shape" fill="#FFFFFF" sketch:type="MSShapeGroup"></path>
                    </g>
                    <g id="user_25_" stroke-width="1" fill="none" sketch:type="MSLayerGroup" transform="translate(82.000000, 353.000000)">
                        <path d="M42.109,31.438 C42.467,30.214 42.718,28.957 42.718,27.628 L42.718,13.935 C42.718,6.457 36.632,0.372 29.155,0.372 C21.676,0.372 15.592,6.457 15.592,13.935 L15.592,27.628 C15.592,28.949 15.84,30.198 16.196,31.409 C12.658,32.539 9.369,34.755 6.769,37.938 C2.998,42.604 0.919,48.803 0.919,55.391 C0.919,55.401 0.915,55.405 0.915,55.414 C0.915,56.568 1.853,57.5 3.002,57.5 L55.293,57.5 C56.164,57.5 56.906,56.967 57.223,56.207 C57.327,55.955 57.384,55.686 57.384,55.391 C57.386,44.04 50.949,34.264 42.109,31.438 L42.109,31.438 Z M19.767,13.935 C19.767,8.755 23.98,4.544 29.157,4.544 C34.328,4.544 38.545,8.754 38.545,13.935 L38.545,27.628 C38.545,32.804 34.328,37.019 29.157,37.019 C23.98,37.019 19.767,32.806 19.767,27.628 L19.767,13.935 L19.767,13.935 Z M10.005,40.565 C12.206,37.867 14.99,36.053 17.939,35.239 C20.385,38.822 24.498,41.185 29.157,41.185 C33.803,41.185 37.911,38.829 40.355,35.246 C47.227,37.147 52.353,44.458 53.062,53.321 L5.252,53.321 C5.633,48.485 7.238,43.997 10.005,40.565 L10.005,40.565 Z" id="Shape" fill="#FFFFFF" sketch:type="MSShapeGroup"></path>
                    </g>
                    <path d="M290.891,378.898 C290.302,378.3 289.485,377.932 288.583,377.932 L244.938,377.932 C244.033,377.932 243.218,378.3 242.628,378.898 C242.041,379.496 241.679,380.323 241.679,381.235 L241.679,390.285 L207.458,390.285 C206.448,390.285 205.53,390.695 204.87,391.353 C204.211,392.015 203.802,392.931 203.802,393.943 L203.802,426.063 C203.802,427.076 204.211,427.989 204.87,428.649 C205.53,429.31 206.448,429.719 207.458,429.719 L212.68,429.719 L212.68,437.917 C212.68,438.052 212.699,438.173 212.72,438.285 C212.728,438.331 212.741,438.366 212.75,438.388 L212.757,438.409 C212.771,438.449 212.777,438.538 212.821,438.655 L212.842,438.703 L212.86,438.721 C212.885,438.785 212.918,438.859 212.962,438.93 L212.962,438.955 L213.007,439.022 C213.083,439.136 213.165,439.227 213.253,439.308 C213.334,439.39 213.428,439.476 213.538,439.554 L213.607,439.6 L213.634,439.6 C213.723,439.652 213.806,439.687 213.881,439.718 C213.978,439.763 214.065,439.781 214.131,439.798 L214.137,439.798 L214.142,439.8 C214.159,439.812 214.194,439.827 214.252,439.841 L214.254,439.841 C214.369,439.864 214.483,439.876 214.596,439.876 C214.78,439.876 214.959,439.847 215.131,439.8 C215.275,439.763 215.422,439.712 215.563,439.636 C215.71,439.556 215.877,439.459 216.031,439.308 L225.618,429.718 L261.212,429.718 C262.226,429.718 263.139,429.31 263.8,428.648 C264.46,427.989 264.87,427.073 264.87,426.062 L264.87,410.889 L272.534,410.889 L280.989,419.468 C281.126,419.608 281.276,419.695 281.407,419.766 C281.534,419.836 281.668,419.882 281.797,419.918 C281.949,419.96 282.11,419.985 282.276,419.985 C282.378,419.985 282.481,419.973 282.585,419.953 L282.585,419.954 C282.587,419.954 282.591,419.954 282.591,419.953 C282.65,419.941 282.681,419.923 282.696,419.915 L282.701,419.912 L282.702,419.912 C282.76,419.899 282.836,419.88 282.924,419.842 C282.988,419.813 283.065,419.78 283.14,419.737 L283.163,419.737 L283.231,419.693 C283.332,419.623 283.415,419.541 283.489,419.469 C283.565,419.394 283.641,419.31 283.71,419.206 L283.753,419.14 L283.753,419.117 C283.789,419.058 283.816,418.996 283.837,418.944 L283.855,418.923 L283.875,418.873 C283.914,418.77 283.923,418.69 283.932,418.656 L283.935,418.653 L283.935,418.65 C283.94,418.639 283.956,418.606 283.97,418.538 C283.988,418.433 284.005,418.325 284.005,418.207 L284.005,410.892 L288.58,410.892 C289.482,410.892 290.302,410.523 290.889,409.925 C291.479,409.327 291.842,408.501 291.842,407.589 L291.842,381.235 C291.842,380.323 291.479,379.497 290.891,378.898 L290.891,378.898 Z M260.947,424.371 C260.947,425.158 260.312,425.795 259.521,425.795 L224.804,425.795 C224.305,425.795 223.8,425.984 223.414,426.367 L216.604,433.177 L216.604,427.757 C216.604,427.217 216.385,426.724 216.031,426.367 C215.678,426.013 215.186,425.795 214.642,425.795 L209.153,425.795 C208.362,425.795 207.729,425.16 207.726,424.371 L207.726,395.636 C207.729,394.844 208.362,394.212 209.153,394.212 L241.678,394.212 L241.678,407.588 C241.678,408.5 242.04,409.326 242.627,409.924 C243.217,410.522 244.033,410.89 244.937,410.89 L260.946,410.89 L260.946,424.371 L260.947,424.371 Z M260.947,407.318 L246.433,407.318 C246.093,407.318 245.79,407.181 245.566,406.958 C245.344,406.73 245.209,406.419 245.209,406.071 L245.209,394.213 L259.523,394.213 C260.314,394.213 260.947,394.846 260.947,395.637 L260.947,407.318 L260.947,407.318 Z M288.313,406.071 C288.313,406.419 288.175,406.73 287.956,406.958 C287.732,407.182 287.428,407.318 287.089,407.318 L282.243,407.318 C281.755,407.318 281.309,407.521 280.993,407.843 C280.675,408.166 280.479,408.613 280.479,409.105 L280.479,413.884 L274.524,407.843 C274.18,407.489 273.725,407.318 273.276,407.318 L264.874,407.318 L264.874,393.943 C264.874,392.93 264.466,392.015 263.806,391.353 C263.144,390.695 262.229,390.285 261.218,390.285 L245.208,390.285 L245.208,382.75 C245.208,382.403 245.346,382.094 245.565,381.868 C245.789,381.642 246.092,381.506 246.432,381.506 L287.088,381.506 C287.427,381.506 287.732,381.643 287.955,381.868 C288.177,382.096 288.312,382.403 288.312,382.75 L288.312,406.071 L288.313,406.071 L288.313,406.071 Z" id="Shape" fill="#FFFFFF" sketch:type="MSShapeGroup"></path>
                    <g id="user_24_" stroke-width="1" fill="none" sketch:type="MSLayerGroup" transform="translate(291.000000, 291.000000)">
                        <path d="M42.034,31.493 C42.392,30.27 42.643,29.011 42.643,27.683 L42.643,13.99 C42.643,6.512 36.557,0.427 29.08,0.427 C21.603,0.427 15.517,6.512 15.517,13.99 L15.517,27.683 C15.517,29.004 15.765,30.253 16.121,31.465 C12.583,32.594 9.294,34.811 6.694,37.993 C2.923,42.659 0.844,48.858 0.844,55.446 C0.844,55.456 0.84,55.46 0.84,55.469 C0.84,56.623 1.778,57.555 2.927,57.555 L55.218,57.555 C56.089,57.555 56.831,57.022 57.148,56.262 C57.251,56.01 57.309,55.741 57.309,55.446 C57.311,44.096 50.874,34.319 42.034,31.493 L42.034,31.493 Z M19.691,13.99 C19.691,8.81 23.904,4.6 29.08,4.6 C34.252,4.6 38.469,8.809 38.469,13.99 L38.469,27.683 C38.469,32.859 34.252,37.075 29.08,37.075 C23.904,37.075 19.691,32.86 19.691,27.683 L19.691,13.99 L19.691,13.99 Z M9.93,40.622 C12.131,37.923 14.914,36.11 17.864,35.295 C20.309,38.878 24.423,41.241 29.081,41.241 C33.727,41.241 37.836,38.884 40.28,35.302 C47.151,37.204 52.278,44.514 52.987,53.377 L5.177,53.377 C5.558,48.541 7.162,44.053 9.93,40.622 L9.93,40.622 Z" id="Shape" fill="#FFFFFF" sketch:type="MSShapeGroup"></path>
                    </g>
                    <g id="Group" stroke-width="1" fill="none" sketch:type="MSLayerGroup" transform="translate(102.000000, 113.000000)">
                        <path d="M58.691,14.88 C58.689,14.862 58.685,14.847 58.683,14.829 C58.671,14.755 58.656,14.682 58.635,14.608 C58.631,14.595 58.628,14.583 58.624,14.569 C58.601,14.488 58.57,14.408 58.535,14.329 C58.528,14.313 58.52,14.298 58.513,14.282 C58.495,14.242 58.476,14.203 58.456,14.165 C58.443,14.144 58.429,14.124 58.417,14.102 C58.403,14.081 58.392,14.061 58.378,14.041 C58.337,13.975 58.29,13.912 58.241,13.853 C58.237,13.847 58.233,13.842 58.229,13.838 C58.172,13.771 58.111,13.709 58.049,13.651 C58.035,13.639 58.024,13.63 58.012,13.619 C57.953,13.569 57.895,13.522 57.833,13.481 C57.82,13.473 57.811,13.464 57.799,13.456 C57.727,13.409 57.652,13.366 57.573,13.328 C57.568,13.325 57.564,13.323 57.559,13.32 L30.624,0.383 C30.071,0.117 29.427,0.117 28.872,0.383 L1.941,13.321 C1.935,13.324 1.93,13.327 1.925,13.33 C1.849,13.368 1.775,13.41 1.702,13.457 C1.688,13.466 1.675,13.476 1.662,13.484 C1.602,13.524 1.546,13.569 1.491,13.618 C1.477,13.63 1.464,13.641 1.45,13.654 C1.387,13.711 1.327,13.771 1.271,13.837 C1.264,13.845 1.259,13.853 1.252,13.86 C1.207,13.917 1.164,13.976 1.123,14.038 C1.109,14.06 1.096,14.083 1.081,14.106 C1.069,14.126 1.056,14.145 1.045,14.165 C1.024,14.2 1.008,14.237 0.99,14.274 C0.98,14.294 0.97,14.312 0.963,14.331 C0.928,14.409 0.9,14.487 0.875,14.566 C0.871,14.581 0.867,14.597 0.863,14.612 C0.843,14.683 0.828,14.755 0.818,14.826 C0.814,14.845 0.81,14.862 0.808,14.88 C0.796,14.968 0.79,15.055 0.79,15.142 L0.79,15.146 L0.79,48.423 C0.79,49.157 1.188,49.835 1.833,50.193 L28.77,65.13 C29.075,65.299 29.415,65.384 29.752,65.384 C30.089,65.384 30.428,65.299 30.732,65.13 L57.668,50.194 C58.311,49.837 58.71,49.159 58.71,48.423 L58.71,15.148 L58.71,15.144 C58.71,15.056 58.703,14.968 58.691,14.88 L58.691,14.88 Z M29.752,61.044 L4.841,47.231 L4.841,18.585 L18.055,25.912 C18.367,26.085 18.702,26.167 19.035,26.167 C19.746,26.167 20.437,25.79 20.806,25.123 C21.349,24.145 20.995,22.913 20.019,22.371 L7.224,15.275 L29.751,4.457 L52.278,15.276 L39.484,22.37 C38.506,22.912 38.152,24.144 38.695,25.122 C39.065,25.79 39.755,26.165 40.467,26.165 C40.799,26.165 41.137,26.083 41.446,25.911 L54.66,18.585 L54.66,47.231 L29.752,61.044 L29.752,61.044 Z" id="Shape" fill="#FFFFFF" sketch:type="MSShapeGroup"></path>
                        <path d="M31.79,33.188 C31.725,32.982 31.512,32.863 31.301,32.917 C30.287,33.182 29.198,33.18 28.18,32.912 C27.971,32.856 27.756,32.975 27.69,33.182 L22.006,51.354 C21.959,51.505 22.004,51.67 22.123,51.777 L29.471,58.304 C29.548,58.371 29.645,58.406 29.741,58.406 C29.837,58.406 29.932,58.372 30.009,58.304 L37.382,51.778 C37.501,51.673 37.548,51.507 37.499,51.353 L31.79,33.188 L31.79,33.188 Z" id="Shape" fill="#FFFFFF" sketch:type="MSShapeGroup"></path>
                        <path d="M24.428,25.462 L27.76,31.175 C27.815,31.269 27.903,31.336 28.007,31.363 C28.118,31.391 28.231,31.425 28.342,31.456 C28.783,31.583 29.24,31.714 29.752,31.714 C30.244,31.714 30.684,31.587 31.107,31.464 C31.228,31.431 31.348,31.395 31.468,31.364 C31.577,31.336 31.667,31.263 31.722,31.166 L34.857,25.433 C34.964,25.204 35.064,24.681 34.741,24.169 C34.155,23.241 32.478,22.771 29.752,22.771 C26.998,22.771 25.272,23.247 24.613,24.183 C24.193,24.786 24.375,25.336 24.396,25.398 C24.406,25.419 24.416,25.44 24.428,25.462 L24.428,25.462 Z" id="Shape" fill="#FFFFFF" sketch:type="MSShapeGroup"></path>
                    </g>
                    <g id="Your_Icon_24_" stroke-width="1" fill="none" sketch:type="MSLayerGroup" transform="translate(32.000000, 189.000000)">
                        <g id="Group" fill="#FFFFFF" sketch:type="MSShapeGroup">
                            <path d="M49.258,0.109 L0.495,0.109 L0.495,97.233 L73.279,97.233 L73.279,24.128 L49.258,0.109 L49.258,0.109 Z M52.892,8.875 L64.513,20.499 L52.892,20.499 L52.892,8.875 L52.892,8.875 Z M69.646,93.602 L4.125,93.602 L4.125,3.74 L49.257,3.74 L49.257,24.128 L69.646,24.128 L69.646,93.602 L69.646,93.602 Z" id="Shape"></path>
                            <rect id="Rectangle-path" x="10.926" y="12.454" width="25.42" height="3.633"></rect>
                            <rect id="Rectangle-path" x="10.926" y="20.083" width="25.42" height="3.633"></rect>
                            <rect id="Rectangle-path" x="10.926" y="38.965" width="50.844" height="3.632"></rect>
                            <rect id="Rectangle-path" x="10.926" y="31.702" width="50.844" height="3.633"></rect>
                            <rect id="Rectangle-path" x="10.926" y="46.228" width="50.844" height="3.631"></rect>
                            <rect id="Rectangle-path" x="10.926" y="53.492" width="50.844" height="3.632"></rect>
                            <rect id="Rectangle-path" x="10.926" y="60.755" width="50.844" height="3.631"></rect>
                            <rect id="Rectangle-path" x="10.926" y="81.093" width="29.052" height="3.634"></rect>
                            <rect id="Rectangle-path" x="10.926" y="67.294" width="14.525" height="3.631"></rect>
                        </g>
                    </g>
                    <g id="Group" stroke-width="1" fill="none" sketch:type="MSLayerGroup" transform="translate(168.000000, 15.000000)">
                        <path d="M27.996,82.572 C19.985,82.572 13.469,76.054 13.469,68.046 C13.469,67.301 13.526,66.558 13.638,65.824 C5.7,60.876 0.826,52.164 0.826,42.76 C0.826,27.778 13.014,15.589 27.996,15.589 C42.975,15.589 55.166,27.777 55.166,42.76 C55.166,52.163 50.289,60.876 42.353,65.824 C42.464,66.558 42.523,67.3 42.523,68.046 C42.523,76.055 36.004,82.572 27.996,82.572 L27.996,82.572 Z M27.996,19.355 C15.09,19.355 4.592,29.854 4.592,42.759 C4.592,51.258 9.217,59.107 16.664,63.236 C17.414,63.652 17.787,64.52 17.574,65.35 C17.349,66.226 17.234,67.134 17.234,68.045 C17.234,73.978 22.062,78.805 27.996,78.805 C33.928,78.805 38.756,73.978 38.756,68.045 C38.756,67.131 38.643,66.226 38.416,65.353 C38.201,64.523 38.574,63.652 39.326,63.236 C46.775,59.107 51.4,51.258 51.4,42.759 C51.398,29.854 40.9,19.355 27.996,19.355 L27.996,19.355 Z" id="Shape" fill="#FFFFFF" sketch:type="MSShapeGroup"></path>
                        <path d="M40.531,70.537 L15.459,70.537 C14.419,70.537 13.576,69.692 13.576,68.652 C13.576,67.613 14.419,66.77 15.459,66.77 L40.531,66.77 C41.572,66.77 42.416,67.613 42.416,68.652 C42.416,69.692 41.572,70.537 40.531,70.537 L40.531,70.537 Z" id="Shape" fill="#FFFFFF" sketch:type="MSShapeGroup"></path>
                        <path d="M37.891,76.377 L18.1,76.377 C17.06,76.377 16.217,75.533 16.217,74.495 C16.217,73.453 17.06,72.61 18.1,72.61 L37.891,72.61 C38.932,72.61 39.774,73.453 39.774,74.495 C39.773,75.533 38.932,76.377 37.891,76.377 L37.891,76.377 Z" id="Shape" fill="#FFFFFF" sketch:type="MSShapeGroup"></path>
                        <path d="M27.996,70.384 C26.955,70.384 26.113,69.538 26.113,68.5 L26.113,48.372 C26.113,47.332 26.955,46.488 27.996,46.488 C29.035,46.488 29.879,47.332 29.879,48.372 L29.879,68.5 C29.879,69.538 29.035,70.384 27.996,70.384 L27.996,70.384 Z" id="Shape" fill="#FFFFFF" sketch:type="MSShapeGroup"></path>
                        <path d="M27.996,50.255 C24.564,50.255 21.777,47.466 21.777,44.037 C21.777,42.997 22.619,42.154 23.66,42.154 C24.699,42.154 25.543,42.997 25.543,44.037 C25.543,45.391 26.643,46.488 27.996,46.488 C29.348,46.488 30.447,45.39 30.447,44.037 C30.447,42.997 31.291,42.154 32.332,42.154 C33.371,42.154 34.215,42.997 34.215,44.037 C34.215,47.466 31.424,50.255 27.996,50.255 L27.996,50.255 Z" id="Shape" fill="#FFFFFF" sketch:type="MSShapeGroup"></path>
                        <path d="M27.996,12.163 C26.955,12.163 26.113,11.319 26.113,10.28 L26.113,2.622 C26.113,1.581 26.955,0.739 27.996,0.739 C29.035,0.739 29.879,1.581 29.879,2.622 L29.879,10.28 C29.879,11.319 29.035,12.163 27.996,12.163 L27.996,12.163 Z" id="Shape" fill="#FFFFFF" sketch:type="MSShapeGroup"></path>
                        <path d="M11.852,16.409 C11.202,16.409 10.569,16.073 10.219,15.468 L6.39,8.837 C5.869,7.936 6.179,6.784 7.08,6.263 C7.978,5.743 9.132,6.052 9.652,6.953 L13.482,13.585 C14.002,14.485 13.692,15.636 12.793,16.157 C12.495,16.329 12.17,16.409 11.852,16.409 L11.852,16.409 Z" id="Shape" fill="#FFFFFF" sketch:type="MSShapeGroup"></path>
                        <path d="M44.098,16.558 C43.78,16.558 43.455,16.478 43.159,16.306 C42.259,15.786 41.95,14.634 42.47,13.734 L46.3,7.101 C46.821,6.199 47.976,5.891 48.874,6.411 C49.774,6.932 50.083,8.084 49.563,8.984 L45.733,15.617 C45.383,16.22 44.75,16.558 44.098,16.558 L44.098,16.558 Z" id="Shape" fill="#FFFFFF" sketch:type="MSShapeGroup"></path>
                    </g>
                    <path d="M87.966,1.103 C87.377,0.505 86.561,0.137 85.658,0.137 L42.013,0.137 C41.109,0.137 40.293,0.505 39.704,1.103 C39.116,1.701 38.754,2.528 38.754,3.44 L38.754,12.49 L4.533,12.49 C3.523,12.49 2.605,12.9 1.946,13.558 C1.286,14.22 0.877,15.136 0.877,16.148 L0.877,48.268 C0.877,49.281 1.286,50.194 1.946,50.854 C2.605,51.515 3.523,51.924 4.533,51.924 L9.755,51.924 L9.755,60.122 C9.755,60.257 9.775,60.378 9.796,60.49 C9.803,60.536 9.816,60.571 9.825,60.593 L9.833,60.614 C9.846,60.654 9.852,60.743 9.897,60.86 L9.918,60.908 L9.936,60.926 C9.962,60.99 9.994,61.064 10.038,61.135 L10.038,61.16 L10.084,61.227 C10.159,61.341 10.242,61.432 10.329,61.513 C10.41,61.595 10.504,61.681 10.614,61.759 L10.683,61.805 L10.71,61.805 C10.799,61.857 10.882,61.892 10.958,61.923 C11.054,61.968 11.141,61.986 11.207,62.003 L11.213,62.003 L11.218,62.005 C11.235,62.017 11.27,62.032 11.328,62.046 L11.331,62.046 C11.445,62.069 11.559,62.081 11.673,62.081 C11.856,62.081 12.035,62.052 12.207,62.005 C12.351,61.968 12.499,61.917 12.639,61.841 C12.786,61.761 12.954,61.664 13.107,61.513 L22.695,51.923 L58.289,51.923 C59.302,51.923 60.215,51.515 60.876,50.853 C61.536,50.194 61.946,49.278 61.946,48.267 L61.946,33.094 L69.61,33.094 L78.065,41.673 C78.203,41.813 78.352,41.9 78.484,41.971 C78.611,42.041 78.744,42.087 78.873,42.123 C79.025,42.165 79.186,42.19 79.353,42.19 C79.454,42.19 79.558,42.178 79.661,42.158 L79.661,42.159 C79.664,42.159 79.667,42.159 79.667,42.158 C79.726,42.146 79.758,42.128 79.772,42.12 L79.777,42.117 L79.779,42.117 C79.836,42.104 79.912,42.085 80,42.047 C80.064,42.018 80.141,41.985 80.217,41.942 L80.239,41.942 L80.307,41.898 C80.408,41.828 80.492,41.746 80.565,41.674 C80.641,41.599 80.717,41.515 80.786,41.411 L80.829,41.345 L80.829,41.322 C80.865,41.263 80.892,41.201 80.914,41.149 L80.932,41.128 L80.951,41.078 C80.991,40.975 80.999,40.895 81.009,40.861 L81.011,40.858 L81.011,40.855 C81.016,40.844 81.032,40.811 81.046,40.743 C81.064,40.638 81.081,40.53 81.081,40.412 L81.081,33.097 L85.657,33.097 C86.558,33.097 87.378,32.728 87.965,32.13 C88.555,31.532 88.918,30.706 88.918,29.794 L88.918,3.44 C88.917,2.527 88.554,1.701 87.966,1.103 L87.966,1.103 Z M58.022,46.575 C58.022,47.362 57.388,47.999 56.596,47.999 L21.88,47.999 C21.381,47.999 20.876,48.188 20.49,48.571 L13.68,55.381 L13.68,49.961 C13.68,49.421 13.462,48.928 13.107,48.571 C12.754,48.217 12.262,47.999 11.718,47.999 L6.23,47.999 C5.438,47.999 4.806,47.364 4.802,46.575 L4.802,17.84 C4.806,17.048 5.438,16.416 6.23,16.416 L38.754,16.416 L38.754,29.792 C38.754,30.704 39.116,31.53 39.704,32.128 C40.293,32.726 41.109,33.094 42.013,33.094 L58.022,33.094 L58.022,46.575 L58.022,46.575 Z M58.022,29.522 L43.508,29.522 C43.168,29.522 42.865,29.385 42.641,29.162 C42.419,28.934 42.284,28.623 42.284,28.275 L42.284,16.417 L56.598,16.417 C57.389,16.417 58.022,17.05 58.022,17.841 L58.022,29.522 L58.022,29.522 Z M85.388,28.275 C85.388,28.623 85.25,28.934 85.032,29.162 C84.807,29.386 84.503,29.522 84.164,29.522 L79.319,29.522 C78.83,29.522 78.385,29.725 78.069,30.047 C77.75,30.37 77.554,30.817 77.554,31.309 L77.554,36.088 L71.6,30.047 C71.255,29.693 70.8,29.522 70.351,29.522 L61.95,29.522 L61.95,16.147 C61.95,15.134 61.542,14.219 60.882,13.557 C60.219,12.899 59.304,12.489 58.293,12.489 L42.283,12.489 L42.283,4.954 C42.283,4.607 42.421,4.298 42.641,4.072 C42.864,3.846 43.167,3.71 43.507,3.71 L84.163,3.71 C84.502,3.71 84.807,3.847 85.031,4.072 C85.252,4.3 85.387,4.607 85.387,4.954 L85.387,28.275 L85.388,28.275 L85.388,28.275 Z" id="Shape" fill="#FFFFFF" sketch:type="MSShapeGroup"></path>
                    <path d="M422.818,1.103 C422.23,0.505 421.413,0.137 420.511,0.137 L376.865,0.137 C375.961,0.137 375.146,0.505 374.556,1.103 C373.968,1.701 373.606,2.528 373.606,3.44 L373.606,12.49 L339.385,12.49 C338.375,12.49 337.457,12.9 336.798,13.558 C336.139,14.22 335.729,15.136 335.729,16.148 L335.729,48.268 C335.729,49.281 336.139,50.194 336.798,50.854 C337.457,51.515 338.375,51.924 339.385,51.924 L344.608,51.924 L344.608,60.122 C344.608,60.257 344.627,60.378 344.648,60.49 C344.655,60.536 344.669,60.571 344.678,60.593 L344.685,60.614 C344.698,60.654 344.704,60.743 344.749,60.86 L344.77,60.908 L344.788,60.926 C344.814,60.99 344.847,61.064 344.89,61.135 L344.89,61.16 L344.936,61.227 C345.011,61.341 345.094,61.432 345.181,61.513 C345.263,61.595 345.357,61.681 345.466,61.759 L345.536,61.805 L345.563,61.805 C345.651,61.857 345.735,61.892 345.81,61.923 C345.907,61.968 345.993,61.986 346.059,62.003 L346.065,62.003 L346.071,62.005 C346.087,62.017 346.122,62.032 346.18,62.046 L346.183,62.046 C346.297,62.069 346.411,62.081 346.525,62.081 C346.708,62.081 346.887,62.052 347.059,62.005 C347.204,61.968 347.351,61.917 347.491,61.841 C347.639,61.761 347.806,61.664 347.96,61.513 L357.547,51.923 L393.141,51.923 C394.154,51.923 395.068,51.515 395.728,50.853 C396.388,50.194 396.798,49.278 396.798,48.267 L396.798,33.094 L404.462,33.094 L412.917,41.673 C413.055,41.813 413.204,41.9 413.336,41.971 C413.463,42.041 413.597,42.087 413.726,42.123 C413.878,42.165 414.039,42.19 414.205,42.19 C414.306,42.19 414.41,42.178 414.513,42.158 L414.513,42.159 C414.516,42.159 414.519,42.159 414.519,42.158 C414.578,42.146 414.61,42.128 414.624,42.12 L414.63,42.117 L414.631,42.117 C414.689,42.104 414.765,42.085 414.853,42.047 C414.917,42.018 414.994,41.985 415.069,41.942 L415.091,41.942 L415.159,41.898 C415.261,41.828 415.344,41.746 415.417,41.674 C415.493,41.599 415.569,41.515 415.638,41.411 L415.681,41.345 L415.681,41.322 C415.718,41.263 415.744,41.201 415.766,41.149 L415.784,41.128 L415.803,41.078 C415.843,40.975 415.852,40.895 415.861,40.861 L415.864,40.858 L415.864,40.855 C415.868,40.844 415.885,40.811 415.899,40.743 C415.917,40.638 415.934,40.53 415.934,40.412 L415.934,33.097 L420.509,33.097 C421.41,33.097 422.231,32.728 422.817,32.13 C423.407,31.532 423.77,30.706 423.77,29.794 L423.77,3.44 C423.77,2.527 423.406,1.701 422.818,1.103 L422.818,1.103 Z M392.875,46.575 C392.875,47.362 392.241,47.999 391.449,47.999 L356.732,47.999 C356.234,47.999 355.728,48.188 355.343,48.571 L348.532,55.381 L348.532,49.961 C348.532,49.421 348.314,48.928 347.96,48.571 C347.606,48.217 347.114,47.999 346.571,47.999 L341.082,47.999 C340.29,47.999 339.658,47.364 339.655,46.575 L339.655,17.84 C339.658,17.048 340.29,16.416 341.082,16.416 L373.606,16.416 L373.606,29.792 C373.606,30.704 373.968,31.53 374.556,32.128 C375.146,32.726 375.961,33.094 376.865,33.094 L392.874,33.094 L392.874,46.575 L392.875,46.575 Z M392.875,29.522 L378.361,29.522 C378.022,29.522 377.718,29.385 377.494,29.162 C377.272,28.934 377.137,28.623 377.137,28.275 L377.137,16.417 L391.451,16.417 C392.242,16.417 392.875,17.05 392.875,17.841 L392.875,29.522 L392.875,29.522 L392.875,29.522 Z M420.24,28.275 C420.24,28.623 420.103,28.934 419.884,29.162 C419.66,29.386 419.356,29.522 419.016,29.522 L414.171,29.522 C413.682,29.522 413.237,29.725 412.921,30.047 C412.602,30.37 412.406,30.817 412.406,31.309 L412.406,36.088 L406.452,30.047 C406.107,29.693 405.652,29.522 405.203,29.522 L396.802,29.522 L396.802,16.147 C396.802,15.134 396.394,14.219 395.734,13.557 C395.071,12.899 394.157,12.489 393.145,12.489 L377.136,12.489 L377.136,4.954 C377.136,4.607 377.273,4.298 377.493,4.072 C377.716,3.846 378.02,3.71 378.36,3.71 L419.015,3.71 C419.355,3.71 419.66,3.847 419.883,4.072 C420.105,4.3 420.239,4.607 420.239,4.954 L420.239,28.275 L420.24,28.275 L420.24,28.275 Z" id="Shape" fill="#FFFFFF" sketch:type="MSShapeGroup"></path>
                </g>
            </g>
        </g>
    </g>
</svg>