<svg width="57" height="57" viewBox="0 0 57 57" xmlns="http://www.w3.org/2000/svg" xmlns:sketch="http://www.bohemiancoding.com/sketch/ns"><title>planning-icon</title><desc>Created with Sketch.</desc><g sketch:type="MSLayerGroup" fill="none"><circle fill="#fff" sketch:type="MSShapeGroup" cx="28" cy="28" r="27"/><path d="M28.808 56.415c-15.439 0-28-12.561-28-28s12.561-28 28-28 28 12.561 28 28-12.56 28-28 28zm0-54c-14.336 0-26 11.664-26 26 0 14.337 11.664 26 26 26 14.337 0 26-11.663 26-26 0-14.336-11.663-26-26-26zm10 10h-20c-1.654 0-3 1.346-3 3v26c0 1.654 1.346 3 3 3h20c1.654 0 3-1.346 3-3v-26c0-1.654-1.346-3-3-3zm1 29c0 .552-.448 1-1 1h-20c-.552 0-1-.448-1-1v-20.185c.314.112.647.185 1 .185h20c.353 0 .686-.072 1-.185v20.185zm0-23c0 .552-.448 1-1 1h-20c-.552 0-1-.448-1-1v-3c0-.552.448-1 1-1h20c.552 0 1 .448 1 1v3zm-14 8h-1v-1c0-.553-.447-1-1-1-.553 0-1 .447-1 1v1h-1c-.553 0-1 .447-1 1 0 .553.447 1 1 1h1v1c0 .553.447 1 1 1 .553 0 1-.447 1-1v-1h1c.553 0 1-.447 1-1 0-.553-.447-1-1-1zm10 0h-4c-.553 0-1 .447-1 1 0 .553.447 1 1 1h4c.553 0 1-.447 1-1 0-.553-.447-1-1-1zm0 7h-4c-.553 0-1 .447-1 1 0 .553.447 1 1 1h4c.553 0 1-.447 1-1 0-.553-.447-1-1-1zm0 4h-4c-.553 0-1 .447-1 1 0 .553.447 1 1 1h4c.553 0 1-.447 1-1 0-.553-.447-1-1-1zm-9.293-3.707c-.391-.391-1.023-.391-1.414 0l-1.293 1.293-1.293-1.293c-.391-.391-1.023-.391-1.414 0s-.391 1.023 0 1.414l1.293 1.293-1.293 1.293c-.391.391-.391 1.023 0 1.414.195.195.451.293.707.293.256 0 .512-.098.707-.293l1.293-1.293 1.293 1.293c.195.195.451.293.707.293.256 0 .512-.098.707-.293.391-.391.391-1.023 0-1.414l-1.293-1.293 1.293-1.293c.391-.391.391-1.023 0-1.414z" fill="#3E3B3E" sketch:type="MSShapeGroup"/></g></svg>