<svg width="56" height="56" viewBox="0 0 56 56" xmlns="http://www.w3.org/2000/svg" xmlns:sketch="http://www.bohemiancoding.com/sketch/ns"><title>demo-icon</title><desc>Created with Sketch.</desc><g sketch:type="MSLayerGroup" fill="none"><circle fill="#fff" sketch:type="MSShapeGroup" cx="28" cy="28" r="26"/><path d="M28 56c-15.439 0-28-12.561-28-28s12.561-28 28-28 28 12.561 28 28-12.561 28-28 28zm0-53.521c-14.073 0-25.521 11.448-25.521 25.521 0 14.072 11.448 25.522 25.521 25.522 14.072 0 25.522-11.45 25.522-25.522 0-14.073-11.45-25.521-25.522-25.521zm.495 34.968c-11.493 0-17.258-8.449-17.497-8.81-.459-.688-.459-1.577-.002-2.265.242-.363 6.023-8.811 17.499-8.811 11.501 0 17.259 8.449 17.497 8.809.46.688.46 1.578 0 2.268-.237.358-5.979 8.809-17.497 8.809zm0-17.902c-10.429 0-15.632 7.604-15.849 7.927.217.39 5.404 7.993 15.849 7.993 10.466 0 15.633-7.602 15.848-7.925-.215-.394-5.397-7.995-15.848-7.995zm0 3.221c-2.612 0-4.739 2.127-4.739 4.738 0 2.614 2.127 4.739 4.739 4.739 2.614 0 4.739-2.125 4.739-4.739 0-2.611-2.125-4.738-4.739-4.738zm0 7.371c-1.451 0-2.633-1.181-2.633-2.633 0-1.451 1.182-2.633 2.633-2.633 1.453 0 2.633 1.182 2.633 2.633 0 1.452-1.18 2.633-2.633 2.633z" fill="#3E3B3E" sketch:type="MSShapeGroup"/></g></svg>