<svg width="56" height="56" viewBox="0 0 56 56" xmlns="http://www.w3.org/2000/svg" xmlns:sketch="http://www.bohemiancoding.com/sketch/ns"><title>writing user stories-icon</title><desc>Created with Sketch.</desc><g sketch:type="MSLayerGroup" fill="none"><circle fill="#fff" sketch:type="MSShapeGroup" cx="28" cy="28" r="27"/><path d="M28 56c-15.439 0-28-12.562-28-28 0-15.439 12.561-28 28-28 15.438 0 28 12.561 28 28 0 15.438-12.561 28-28 28zm0-54c-14.336 0-26 11.664-26 26 0 14.337 11.664 26 26 26 14.337 0 26-11.663 26-26 0-14.336-11.663-26-26-26zm8.698 24.388c-.553 0-1 .448-1 1v12.618h-18.698v-20.879h16.432c.553 0 1-.448 1-1s-.447-1-1-1h-17.432c-.553 0-1 .448-1 1v22.879c0 .553.447 1 1 1h20.698c.554 0 1-.447 1-1v-13.618c0-.553-.446-1-1-1zm6.73-10.615c-.396-.959-1.336-1.603-2.338-1.603-.644 0-1.24.258-1.729.747l-2.09 2.09-6.04 6.04-.231-.047h-10c-.553 0-1 .448-1 1s.447 1 1 1h8.277l-3.046 3.047-.231-.047h-5c-.553 0-1 .448-1 1 0 .553.447 1 1 1h3.706l-1.736 3.473c-.192.385-.117.85.188 1.154.192.191.448.293.708.293.151 0 .306-.034.447-.105l4.183-2.09c.096-.049.184-.111.26-.188l12.02-12.021.001-.001.001-.001 2.091-2.091c.733-.736.943-1.726.559-2.65zm-15.974 15.234l-1.354.677.676-1.353 11.203-11.203.677.677-11.202 11.202zm13.999-14l-1.386 1.385-.676-.677 1.384-1.384c.161-.161.276-.161.314-.161.187 0 .407.165.491.368.07.17.031.31-.127.469z" fill="#3E3B3E" sketch:type="MSShapeGroup"/></g></svg>