<svg width="56" height="56" viewBox="0 0 56 56" xmlns="http://www.w3.org/2000/svg" xmlns:sketch="http://www.bohemiancoding.com/sketch/ns"><title>retrospective-icon</title><desc>Created with Sketch.</desc><g sketch:type="MSLayerGroup" fill="none"><circle fill="#fff" sketch:type="MSShapeGroup" cx="27.5" cy="28.5" r="26.5"/><g fill="#3E3B3E" sketch:type="MSShapeGroup"><path d="M28 56c-15.439 0-28-12.561-28-28s12.561-28 28-28 28 12.561 28 28-12.561 28-28 28zm0-53.522c-14.073 0-25.522 11.449-25.522 25.522 0 14.072 11.449 25.522 25.522 25.522 14.072 0 25.522-11.45 25.522-25.522 0-14.073-11.45-25.522-25.522-25.522zM34.611 25.804c-1.435 0-2.691.942-3.069 2.335h-14.977v1.724h14.977c.378 1.326 1.635 2.335 3.069 2.335s2.691-1.009 3.068-2.335h2.755v-1.724h-2.754c-.377-1.393-1.634-2.335-3.069-2.335zm0 4.672c-.82 0-1.486-.666-1.486-1.484 0-.819.666-1.486 1.486-1.486.819 0 1.485.667 1.485 1.486.001.818-.665 1.484-1.485 1.484zM25.924 20.978c-.378-1.393-1.635-2.334-3.069-2.334s-2.691.942-3.068 2.334h-3.221v1.658h3.221c.377 1.392 1.635 2.333 3.068 2.333 1.435 0 2.691-.941 3.069-2.333h14.511v-1.658h-14.511zm-3.07 2.314c-.819 0-1.485-.667-1.485-1.486s.666-1.486 1.485-1.486c.819 0 1.486.667 1.486 1.486s-.666 1.486-1.486 1.486zM25.636 32.898c-1.434 0-2.69 1.009-3.068 2.335h-6.002v1.724h6.002c.378 1.393 1.635 2.335 3.068 2.335 1.435 0 2.691-.942 3.068-2.335h11.73v-1.724h-11.73c-.377-1.326-1.634-2.335-3.068-2.335zm0 4.701c-.819 0-1.485-.667-1.485-1.485 0-.819.666-1.486 1.485-1.486.819 0 1.485.667 1.485 1.486 0 .818-.666 1.485-1.485 1.485z"/></g></g></svg>