<svg width="57" height="57" viewBox="0 0 57 57" xmlns="http://www.w3.org/2000/svg" xmlns:sketch="http://www.bohemiancoding.com/sketch/ns"><title>backlog-icon</title><desc>Created with Sketch.</desc><g sketch:type="MSLayerGroup" fill="none"><circle fill="#fff" sketch:type="MSShapeGroup" cx="28.5" cy="28.5" r="27.5"/><path d="M28.808 56.415c-15.439 0-28-12.561-28-28s12.561-28 28-28 28 12.561 28 28-12.56 28-28 28zm0-54c-14.336 0-26 11.664-26 26 0 14.337 11.664 26 26 26 14.337 0 26-11.663 26-26 0-14.336-11.663-26-26-26zm6.714 39.225c-.613 0-1.203-.192-1.704-.556l-5.008-3.638-5.009 3.638c-.996.726-2.416.725-3.411-.002-1.017-.736-1.441-2.038-1.052-3.237l1.914-5.886-5.009-3.637c-1.016-.738-1.439-1.87-1.055-3.068.395-1.204 1.505-1.839 2.763-1.839h6.184l1.915-6.05c.389-1.199 1.498-2.09 2.757-2.09 1.265 0 2.375.935 2.759 2.136l1.909 6.003h6.188c1.259 0 2.37.635 2.765 1.831.385 1.208-.039 2.424-1.054 3.161l-5.009 3.594 1.914 5.864c.39 1.203-.035 2.495-1.059 3.231-.49.358-1.095.545-1.698.545zm-6.712-6.43c.206 0 .413.063.588.191l5.595 4.064c.312.224.744.227 1.058-.001.317-.229.447-.631.327-1.003l-2.139-6.575c-.134-.412.013-.864.363-1.119l5.597-4.063c.315-.229.446-.466.326-.841-.12-.365-.468-.448-.861-.448h-6.915c-.434 0-.817-.448-.951-.86l-2.135-6.656c-.12-.375-.463-.666-.856-.666-.39 0-.734.229-.855.602l-2.14 6.73c-.134.412-.518.849-.951.849h-6.91c-.393 0-.739.082-.862.457-.118.367.014.688.329.917l5.597 4.021c.351.255.498.687.364 1.099l-2.139 6.566c-.118.364.016.771.326.996.313.229.75.223 1.059-.001l5.598-4.067c.174-.128.381-.192.587-.192z" fill="#3E3B3E" sketch:type="MSShapeGroup"/></g></svg>