<svg width="147" height="169" viewBox="0 0 147 169" xmlns="http://www.w3.org/2000/svg" xmlns:sketch="http://www.bohemiancoding.com/sketch/ns"><title>product-icon</title><desc>Created with Sketch.</desc><g sketch:type="MSLayerGroup" fill="none"><path d="M3 43l70.5-41 71.5 41 1 83-71.5 41.5-72-42 .5-82.5z" fill="#fff" sketch:type="MSShapeGroup"/><path d="M73.909 168.813c-.216 0-.433-.057-.627-.169l-71.683-41.553c-.386-.224-.623-.635-.623-1.081v-83.085c0-.446.237-.858.623-1.082l71.683-41.553c.389-.225.868-.224 1.253 0l71.679 41.555c.386.224.623.636.623 1.082v83.085c0 .445-.237.857-.623 1.081l-71.679 41.553c-.193.111-.41.167-.626.167zm-70.433-43.523l70.433 40.828 70.428-40.828v-81.644l-70.428-40.83-70.433 40.83v81.644zm118.461-67.859l-.014-.093-.035-.23-.049-.119-.081-.181-.085-.113-.119-.143-.116-.093-.108-.085-.045-.02-.038-.026-47.279-23.716c-.361-.182-.786-.177-1.143.011l-47.28 24.907-.034.024-.042.019-.117.095-.106.086-.128.161-.071.097-.097.228-.03.074c-.028.104-.043.211-.043.322v54.857c0 .475.269.908.694 1.119l47.722 23.716.045.017.072.025c.142.054.289.089.438.089.147 0 .292-.035.433-.087l.088-.034.066-.025 46.837-24.908c.408-.217.663-.642.663-1.104v-54.856l-.001-.007.003-.007zm-70.447-10.743c-.294.61-.054 1.345.551 1.655l11.903 6.088c.183.093.377.138.568.138.455 0 .893-.249 1.114-.681.314-.615.071-1.368-.543-1.682l-11.903-6.088c-.127-.065-.262-.092-.395-.111l20.637-10.872 44.541 22.343-8.88 4.722c-.076-.067-.145-.142-.239-.19l-14.865-7.607c-.616-.314-1.368-.071-1.682.543-.315.614-.071 1.368.543 1.682l13.616 6.968-32.626 17.352-44.958-22.344 22.618-11.916zm-24.112 43.105l10.186 5.063c.179.089.368.131.555.131.459 0 .902-.254 1.12-.693.308-.618.055-1.369-.563-1.676l-11.298-5.615v-26.349l45.222 22.474v11.57l-13.844-6.363c-.629-.29-1.37-.014-1.658.613-.289.628-.014 1.37.614 1.658l14.888 6.843v37.744l-45.222-22.473v-22.927zm47.722 45.337v-24.904c.104-.021.207-.053.307-.103l11.299-5.615c.618-.307.87-1.058.563-1.676-.306-.617-1.058-.871-1.676-.563l-10.493 5.215v-24.38l44.337-23.578v40.061l-9.523 4.732c-.618.307-.87 1.058-.563 1.676.218.439.66.693 1.12.693.187 0 .377-.042.556-.131l8.41-4.18v9.173l-44.337 23.58zm-26.244-50.027c.308-.619.055-1.369-.563-1.676l-10.217-5.078c-.618-.307-1.368-.055-1.675.563-.307.618-.055 1.368.563 1.675l10.217 5.078c.179.089.368.131.555.131.46 0 .902-.254 1.12-.693zm15.278 32.299l-11.298-5.613c-.619-.308-1.368-.056-1.676.563-.307.619-.055 1.369.563 1.676l11.298 5.613c.179.089.368.131.555.131.459 0 .902-.254 1.121-.693.308-.62.055-1.37-.563-1.677zm-22.587-10.544l-3.585-1.782c-.619-.308-1.369-.057-1.676.563-.308.618-.056 1.368.563 1.676l3.585 1.782c.179.089.369.131.556.131.459 0 .902-.254 1.12-.693.307-.619.055-1.369-.563-1.677zm18.882-1.385c.459 0 .902-.254 1.121-.693.307-.618.055-1.369-.563-1.676l-11.3-5.616c-.618-.307-1.368-.056-1.676.563-.307.618-.055 1.369.563 1.676l11.299 5.615c.18.089.369.131.556.131zm38.34-5.834c.187 0 .377-.042.556-.131l11.3-5.615c.618-.307.87-1.058.563-1.676-.307-.618-1.058-.872-1.676-.563l-11.3 5.615c-.618.307-.87 1.058-.563 1.676.217.44.66.694 1.12.694zm-2.002-13.844c-.308-.618-1.057-.871-1.676-.563l-11.298 5.618c-.618.308-.87 1.058-.563 1.676.219.439.66.693 1.12.693.187 0 .377-.042.556-.131l11.298-5.617c.618-.308.87-1.058.563-1.676zm2.396 23.976l-15.172 6.974c-.627.288-.901 1.03-.613 1.658.211.458.663.728 1.137.728.175 0 .352-.036.521-.114l15.172-6.974c.627-.288.901-1.03.613-1.658-.289-.628-1.027-.903-1.658-.614zm7.32-29.053c.187 0 .376-.042.555-.131l3.585-1.78c.618-.307.871-1.057.563-1.676-.307-.618-1.057-.873-1.675-.563l-3.585 1.78c-.618.307-.871 1.057-.563 1.676.218.439.66.694 1.12.694zm-34.577-34.612l10.466 4.541c.161.07.33.104.496.104.483 0 .943-.282 1.147-.753.275-.633-.016-1.37-.649-1.644l-10.465-4.541c-.633-.273-1.369.016-1.644.649-.275.634.015 1.37.649 1.644zm10.521 29.644c.461 0 .904-.256 1.122-.698.306-.62.051-1.369-.568-1.674l-13.917-6.858c-.62-.306-1.37-.051-1.674.568-.305.62-.051 1.369.568 1.674l13.917 6.858c.178.089.366.13.552.13zm-25.755-15.324l-4.795-2.723c-.6-.341-1.363-.131-1.704.47-.341.6-.131 1.363.47 1.704l4.795 2.723c.195.111.407.163.616.163.435 0 .858-.228 1.088-.633.34-.6.13-1.363-.47-1.704zm18.084-1.947c-.277.632.011 1.37.643 1.646l11.559 5.063c.164.071.334.105.501.105.481 0 .94-.28 1.146-.749.277-.632-.011-1.37-.643-1.646l-11.56-5.063c-.638-.276-1.371.012-1.646.644z" fill="#3E3B3E" sketch:type="MSShapeGroup"/></g></svg>