<svg width="169" height="235" viewBox="0 0 169 235" xmlns="http://www.w3.org/2000/svg" xmlns:sketch="http://www.bohemiancoding.com/sketch/ns"><title>Group</title><desc>Created with Sketch.</desc><g sketch:type="MSShapeGroup" fill="none"><path id="Rectangle-path" fill="#6ABEEC" d="M6.5 153.5h33v42h-33z"/><path d="M39 206.5s-9.25-26.5-10.5-33.5 7.75-9.75 10.5-6.25 14 31.5 14 31.5l-14 8.25z" id="Shape" fill="#fff"/><circle fill="#3E3B3E" cx="77.859" cy="10.971" r="2.862"/><path d="M34.859 47.964l8.235-10.04c.695-.848.571-2.098-.275-2.791-.846-.695-2.098-.571-2.793.272l-9.377 11.432c-.647.79-.591 1.942.131 2.663l10.214 10.209c.387.391.894.582 1.401.582.509 0 1.016-.191 1.402-.582.775-.772.775-2.031 0-2.805l-8.938-8.94zM69.595 45.475l-10.212-10.214c-.777-.774-2.031-.774-2.807 0-.775.776-.775 2.031 0 2.809l8.94 8.938-8.237 10.04c-.693.848-.569 2.098.278 2.793.367.303.814.45 1.257.45.575 0 1.146-.248 1.536-.727l9.375-11.431c.648-.788.591-1.94-.13-2.658z" id="Shape" fill="#6ABEEC"/><path d="M131.361 81.445h-106.334c-1.643 0-2.979-1.336-2.979-2.978v-59.259c0-1.643 1.336-2.979 2.979-2.979h106.334c1.643 0 2.979 1.336 2.979 2.979v59.259c0 1.642-1.336 2.978-2.979 2.978zm-106.334-63.216c-.54 0-.979.439-.979.979v59.259c0 .539.439.978.979.978h106.334c.54 0 .979-.438.979-.978v-59.259c0-.54-.438-.979-.979-.979h-106.334z" id="Shape" fill="#3E3B3E"/><path d="M85.592 49.51h39.006c1.113 0 2.019-.899 2.019-2.018v-21.521c0-1.112-.905-2.018-2.019-2.018h-39.006c-1.115 0-2.018.905-2.018 2.018v21.521c0 1.118.903 2.018 2.018 2.018zM123.924 53.546h-37.659c-1.114 0-2.018.902-2.018 2.018 0 1.114.904 2.019 2.018 2.019h37.659c1.113 0 2.018-.904 2.018-2.019-.001-1.116-.905-2.018-2.018-2.018zM123.924 61.615h-37.659c-1.114 0-2.018.903-2.018 2.017 0 1.117.904 2.018 2.018 2.018h37.659c1.113 0 2.018-.9 2.018-2.018-.001-1.113-.905-2.017-2.018-2.017zM123.924 69.687h-37.659c-1.114 0-2.018.903-2.018 2.018 0 1.113.904 2.018 2.018 2.018h37.659c1.113 0 2.018-.904 2.018-2.018-.001-1.115-.905-2.018-2.018-2.018z" id="Shape" fill="#6ABEEC"/><g id="Shape" fill="#3E3B3E"><path d="M44.114 221.709c-.352 0-.671-.221-.795-.55-4.091-10.854-12.838-37.869-14.216-42.968-.918-3.413-2.061-7.658-.293-10.618.893-1.497 2.443-2.515 4.609-3.025.672-.158 1.325-.239 1.939-.239 5.238 0 7.307 5.956 8.543 9.515.16.461.286.822.408 1.154.937 2.545 4.136 9.838 5.96 13.959l.57 1.287.902-1.079c.715-.856 1.553-1.476 2.49-1.841.67-.262 1.383-.395 2.121-.395.959 0 1.992.223 3.07.662l.808.33.332-.808c.676-1.648 2.037-2.976 3.733-3.643.724-.284 1.474-.428 2.23-.428 1.184 0 2.344.345 3.448 1.025l.847.521.41-.906c.971-2.148 2.591-3.53 4.815-4.106.574-.147 1.144-.223 1.693-.223 1.079 0 2.088.281 3 .837 3.077 1.875 4.098 6.231 4.14 6.416.051.223.012.451-.11.645-.12.191-.307.323-.527.373l-.197.023c-.389 0-.735-.278-.823-.662-.009-.038-.929-3.867-3.376-5.348-.642-.388-1.35-.584-2.103-.584-.405 0-.833.058-1.273.17-3.313.855-4.224 4.141-4.282 5.224-.029.317-.262.598-.579.703-.086.029-.176.044-.266.044-.242 0-.474-.104-.635-.287-1.257-1.418-2.699-2.168-4.17-2.168-.547 0-1.093.105-1.621.313-1.832.718-3.13 2.517-3.087 4.277.006.313-.158.603-.429.758-.127.073-.272.112-.42.112-.159 0-.314-.044-.451-.128-1.544-.956-2.947-1.44-4.168-1.44-.527 0-1.029.09-1.49.267-1.951.75-2.852 3.167-3.148 4.172-.06.204-.336 1.074-.779 1.074-.412 0-.676-.588-.818-.903-1.162-2.602-6.185-14.119-7.411-17.447-.098-.268-.416-1.28-.416-1.28-1.537-4.43-3.234-8.41-7.069-8.41-.544 0-.996.047-1.419.146-1.73.406-2.888 1.135-3.539 2.228-1.4 2.346-.363 6.192.471 9.283 1.372 5.082 10.088 31.998 14.169 42.822.164.438-.059.929-.497 1.095-.093.033-.196.051-.301.051zM35.357 164.434c5.15 0 7.2 5.904 8.425 9.432.16.461.286.823.408 1.155.934 2.538 4.137 9.841 5.963 13.967l.651 1.471 1.031-1.233c.702-.84 1.522-1.447 2.439-1.805.655-.256 1.353-.386 2.075-.386.943 0 1.96.22 3.023.653l.924.377.379-.923c.664-1.617 1.999-2.92 3.664-3.574.71-.278 1.445-.419 2.184-.419 1.16 0 2.298.339 3.383 1.007l.967.596.468-1.035c.956-2.113 2.548-3.471 4.733-4.037.562-.145 1.121-.219 1.662-.219 1.055 0 2.043.275 2.936.818 3.033 1.849 4.041 6.154 4.083 6.337.043.19.01.386-.094.551-.103.163-.262.275-.448.317l-.169.021c-.332 0-.626-.238-.701-.565-.011-.046-.944-3.92-3.434-5.427-.663-.399-1.391-.602-2.167-.602-.416 0-.855.059-1.304.174-3.384.874-4.316 4.23-4.376 5.338-.023.255-.218.5-.494.592l-.227.037c-.207 0-.404-.09-.542-.245-1.281-1.445-2.756-2.21-4.264-2.21-.564 0-1.125.108-1.667.321-1.878.736-3.21 2.586-3.166 4.396.005.265-.135.514-.366.646-.108.063-.232.096-.358.096-.136 0-.27-.038-.386-.109-1.562-.967-2.988-1.459-4.233-1.459-.543 0-1.06.093-1.535.275-2.279.875-3.141 4.229-3.232 4.532-.087.299-.348 1.205-.651 1.205h-.005c-.333 0-.591-.84-.707-1.096-1.029-2.307-6.138-14.122-7.4-17.548-.097-.267-.414-1.337-.414-1.337-1.542-4.448-3.254-8.529-7.188-8.529-.462 0-.95.017-1.448.134-1.758.413-2.941 1.144-3.617 2.278-1.429 2.393-.382 6.264.459 9.383 1.372 5.081 10.088 31.996 14.171 42.824.14.374-.05.791-.424.933-.079.029-.167.042-.255.042-.3 0-.572-.188-.678-.469-4.09-10.853-12.835-37.86-14.212-42.956-.915-3.399-2.047-7.606-.307-10.521.874-1.467 2.398-2.466 4.53-2.968.666-.157 1.308-.236 1.911-.236zm0-.25c-.624 0-1.286.082-1.968.243-2.2.518-3.777 1.555-4.688 3.083-1.794 3.005-.644 7.278.279 10.713 1.379 5.102 10.129 32.124 14.22 42.98.143.378.509.631.912.631.122 0 .237-.02.342-.059.503-.19.759-.754.571-1.256-4.08-10.821-12.794-37.73-14.164-42.804-.83-3.075-1.859-6.894-.486-9.193.633-1.063 1.764-1.772 3.459-2.171.415-.098.856-.143 1.391-.143 3.752 0 5.43 3.94 6.952 8.33 0 0 .317 1.01.415 1.278 1.228 3.331 6.253 14.853 7.407 17.438.161.358.447.994.935.994.523 0 .818-.869.896-1.135.236-.799 1.129-3.369 3.082-4.119.447-.172.934-.259 1.446-.259 1.198 0 2.578.479 4.102 1.422.157.096.336.146.518.146.169 0 .337-.045.483-.129.31-.178.499-.511.491-.868-.042-1.711 1.223-3.459 3.007-4.159.514-.201 1.044-.304 1.576-.304 1.435 0 2.844.735 4.077 2.126.185.209.45.329.729.329.104 0 .206-.017.306-.05.364-.121.63-.445.664-.807.058-1.068.95-4.281 4.189-5.118.429-.11.847-.166 1.242-.166.73 0 1.416.19 2.039.565 2.395 1.449 3.31 5.231 3.319 5.27.101.439.498.759.945.759l.228-.027c.249-.056.463-.208.601-.428.14-.221.185-.483.126-.739-.042-.187-1.074-4.592-4.196-6.495-.932-.567-1.964-.854-3.065-.854-.56 0-1.14.076-1.725.227-2.262.587-3.91 1.991-4.898 4.177l-.352.776-.726-.447c-1.125-.692-2.307-1.044-3.514-1.044-.771 0-1.537.146-2.275.437-1.728.679-3.114 2.032-3.804 3.712l-.284.691-.693-.282c-1.093-.446-2.142-.672-3.117-.672-.753 0-1.481.136-2.166.403-.957.372-1.811 1.004-2.541 1.877l-.773.925-.488-1.104c-1.823-4.119-5.022-11.41-5.957-13.951-.123-.331-.248-.692-.407-1.151-1.248-3.59-3.334-9.598-8.662-9.598z"/></g><path d="M19.363 178.784c-.47 0-.936-.188-1.276-.563-.644-.704-.592-1.795.114-2.436l3.052-2.779c.705-.642 1.797-.59 2.437.115.643.703.592 1.794-.115 2.438l-3.052 2.777c-.331.301-.748.448-1.16.448zM21.778 165.677c-.345 0-.69-.1-.993-.315l-3.373-2.383c-.778-.549-.963-1.625-.414-2.404.548-.777 1.625-.961 2.406-.412l3.373 2.383c.776.549.961 1.625.412 2.404-.336.476-.87.727-1.411.727zM16.747 171.144c-.904 0-1.664-.703-1.72-1.618-.059-.949.665-1.769 1.617-1.826l5.344-.33c.947-.055 1.769.666 1.827 1.615.057.953-.665 1.771-1.616 1.828l-5.345.328-.107.003z" id="Shape" fill="#fff"/><g id="Shape" fill="#3E3B3E"><path d="M47.346 234.243l-.237-.04c-5.53-1.871-9.614-5.484-11.804-10.446-2.835-6.425-2.382-14.854 1.245-23.123.115-.265.375-.435.663-.435.099 0 .196.021.289.062.368.161.536.59.375.955-3.464 7.9-3.917 15.902-1.244 21.955 2.051 4.646 5.733 7.896 10.945 9.66.184.062.331.19.416.363.086.174.099.37.037.553-.101.298-.376.496-.685.496zM47.346 234.368c-.093 0-.184-.016-.277-.047-5.566-1.883-9.673-5.519-11.878-10.514-2.85-6.457-2.396-14.922 1.245-23.224.134-.31.439-.51.777-.51.117 0 .231.024.339.072.208.091.368.258.452.47.083.212.079.442-.013.649-3.45 7.869-3.903 15.834-1.244 21.854 2.037 4.613 5.694 7.841 10.871 9.593.214.071.388.223.488.426.101.204.116.435.043.648-.117.35-.44.583-.803.583zm-10.134-34.044c-.238 0-.453.141-.548.359-3.613 8.238-4.066 16.63-1.245 23.022 2.176 4.93 6.232 8.519 11.73 10.379.327.111.659-.068.763-.378.052-.151.041-.313-.03-.457-.071-.144-.193-.25-.344-.301-5.247-1.775-8.954-5.048-11.02-9.728-2.688-6.085-2.234-14.124 1.244-22.056.064-.146.067-.31.008-.459-.059-.149-.172-.268-.32-.332-.076-.032-.156-.049-.238-.049z"/></g><path d="M34.423 216.652h-25.703c-4.704 0-8.531-3.827-8.531-8.532v-60.605c0-4.703 3.827-8.53 8.531-8.53h29.532c4.704 0 8.531 3.827 8.531 8.53v32.159h-2v-32.159c0-3.601-2.93-6.53-6.531-6.53h-29.532c-3.602 0-6.531 2.93-6.531 6.53v60.605c0 3.602 2.93 6.532 6.531 6.532h25.703v2zM23.485 210.93c-3.656 0-6.63-2.974-6.63-6.629 0-3.656 2.974-6.631 6.63-6.631 3.656 0 6.63 2.975 6.63 6.631 0 3.655-2.974 6.629-6.63 6.629zm0-11.26c-2.553 0-4.63 2.077-4.63 4.631 0 2.553 2.077 4.629 4.63 4.629s4.63-2.076 4.63-4.629c0-2.554-2.077-4.631-4.63-4.631z" id="Shape" fill="#3E3B3E"/><g id="Shape" fill="#6ABEEC"><path d="M25.463 150.733h-9.196c-.955 0-1.725-.773-1.725-1.725 0-.955.77-1.727 1.725-1.727h9.196c.954 0 1.725.771 1.725 1.727 0 .952-.771 1.725-1.725 1.725zM30.708 150.733h-.555c-.953 0-1.725-.773-1.725-1.725 0-.955.772-1.727 1.725-1.727h.555c.953 0 1.725.771 1.725 1.727.001.952-.772 1.725-1.725 1.725z"/></g><path d="M147 178.418c-8.798 0-14.893-1.195-17.742-1.908-.536-.134-.862-.677-.728-1.212.133-.537.678-.862 1.212-.728 2.761.689 8.674 1.848 17.258 1.848 8.723 0 14.557-1.133 17.258-1.808.534-.137 1.078.191 1.212.728.135.535-.191 1.078-.728 1.212-2.79.698-8.804 1.868-17.742 1.868z" id="Shape" fill="#3E3B3E"/><path fill="#3E3B3E" d="M76.5 16.5h2v64h-2z"/><g id="Shape" fill="#3E3B3E"><path d="M148.71 145.278l-1.198.049c.03-3.261.113-12.471.113-17.327 0-4.847-2.146-10.625-12.375-10.625-8.074 0-8.75-2.902-8.75-5.875v-9.878h4.914c7.162 0 13.686-6.523 13.686-13.687v-74.795c0-7.074-6.268-13.051-13.686-13.051h-106.439c-7.418 0-13.686 5.977-13.686 13.051v74.795c0 7.163 6.523 13.687 13.686 13.687h41.134c.184 3.347.24 10.025-.409 12.486-1.503 1.636-14.396 5.987-31.818 10.049-1.446.34-2.417 1.44-2.417 2.739v6.718c0 1.587 1.501 2.979 3.213 2.979h87.033c1.712 0 3.213-1.392 3.213-2.979v-6.718c0-1.352-1.017-2.571-2.419-2.899-18.047-4.18-30.406-8.259-31.875-9.756-.719-2.635-.771-9.378-.666-12.619h34.536v9.878c0 5.52 3.215 7.875 10.75 7.875 6.981 0 10.375 2.821 10.375 8.625 0 4.9-.085 14.244-.114 17.413-16.313.727-20.011 10.654-20.011 14.112v32.349c0 6.286 6.341 18.608 21 18.608 15.456 0 22-13.313 22-18.608v-32.349c0-.135-.226-13.595-19.79-14.247zm-26.658-19.333c.48.112.872.539.872.951v6.718c0 .476-.623.979-1.213.979h-87.033c-.589 0-1.213-.503-1.213-.979v-6.718c0-.434.471-.697.873-.792 1.246-.29 30.532-7.156 33.103-10.98l.127-.268c.851-2.81.699-10.24.536-13.356h19.866c-.102 3.137-.106 10.56.801 13.509l.134.275c2.39 3.454 30.007 9.935 33.147 10.661zm-33.552-26.323v-.122h-21v.122h-42.525c-6.116 0-11.686-5.57-11.686-11.687v-74.795c0-5.887 5.46-11.051 11.686-11.051h106.439c6.225 0 11.686 5.164 11.686 11.051v74.795c0 6.116-5.569 11.687-11.686 11.687h-42.914zm78 92.252c0 4.574-6.149 16.608-20 16.608-14.322 0-19-12.352-19-16.608v-32.349c0-.114.791-11.301 18-12.108v30.083h2v-30.173l1.217-.051c17.58.588 17.783 12.133 17.783 12.249v32.349zM141.066 88.488v-75.268c0-5.123-5.614-9.096-10.443-9.096h-106.202c-5.017 0-9.099 4.08-9.099 9.096v75.269c0 5.016 4.082 9.097 9.099 9.097h106.202c4.829-.001 10.443-3.975 10.443-9.098zm-10.443 7.097h-106.202c-3.914 0-7.099-3.184-7.099-7.097v-75.268c0-3.913 3.185-7.096 7.099-7.096h106.202c3.824 0 8.443 3.165 8.443 7.096v75.269c0 3.93-4.619 7.096-8.443 7.096z"/></g><g><path d="M146.895 169.5c-2.496 0-2.496-.703-2.496-1.09l.203-10.519c.013-.419.034-1.142 2.497-1.142.426.008 1.686.112 1.987.889l.063.172.291 10.954-.065.028c-.101.278-.312.707-2.441.707h-.039v.001z" fill="#fff"/><path d="M147.5 157.5h-.376c.33 0 1.01.324 1.03.377l.281 10.505c-.023.063-1.146.118-1.502.118h-.021c-.332 0-1.514-.037-1.514-.09l.203-10.644c.002-.065 1.135-.267 1.497-.267l.402.001zm-.401-2c-.85 0-3.435.145-3.496 2.285l-.205 10.515c0 2.209 2.613 2.2 3.473 2.2h.063c2.83 0 3.203-.871 3.382-1.363l.13-.28-.011-.341-.281-10.567-.009-.338-.126-.463c-.494-1.271-2-1.647-2.854-1.647h-.066v-.001z" fill="#3E3B3E"/></g></g></svg>