<svg width="53" height="223" viewBox="0 0 53 223" xmlns="http://www.w3.org/2000/svg" xmlns:sketch="http://www.bohemiancoding.com/sketch/ns"><title>image--daily-meeting</title><desc>Created with Sketch.</desc><g sketch:type="MSLayerGroup" fill="#fff"><path d="M25.84 128.069h1.619v6.486h-1.619v-6.486zm-11.371 2.992l1.401.813 3.255-5.612-1.401-.813-3.255 5.612zm-8.025-30.141l5.616 3.249.813-1.402-5.617-3.249-.812 1.402zm8.078-8.66l3.239 5.62 1.404-.808-3.24-5.622-1.403.81zm25.919 10.531l.809 1.403 5.62-3.241-.808-1.402-5.621 3.24zm-6.307 23.492l3.241 5.623 1.402-.809-3.24-5.623-1.403.809zm6.303-5.701l5.617 3.247.812-1.402-5.617-3.247-.812 1.402zm-36.664-8.095h6.487v-1.62h-6.487v1.62zm39.265 0h6.488v-1.62h-6.488v1.62zm-36.805 9.809l.805 1.406 5.632-3.225-.805-1.407-5.632 3.226zm46.417-10.617c0 14.338-11.662 26-26.001 26-14.338 0-25.999-11.662-25.999-26s11.661-26 25.999-26c14.339 0 26.001 11.662 26.001 26zm-1.989 0c0-8.567-4.513-16.093-11.28-20.344l-12.031 20.749c-.146.254-.417.403-.7.403l-.212-.026c-.352-.096-.598-.416-.598-.782v-23.991c-12.866.43-23.201 11.022-23.201 23.991 0 13.24 10.771 24.012 24.011 24.012 13.238-.001 24.011-10.772 24.011-24.012zM23.072 165.655h25.905v2.355h-25.905v-2.355zm0 7.066h8.241v-2.355h-8.241v2.355zm-14.13 1.177h8.243v-8.243h-8.243v8.243zm14.13 19.019h25.905v-2.354h-25.905v2.354zm0 4.711h8.241v-2.356h-8.241v2.356zm-14.13 1.177h8.243v-8.242h-8.243v8.242zm14.13 17.956h25.905v-2.355h-25.905v2.355zm0 4.71h8.241v-2.355h-8.241v2.355zm-14.13 1.177h8.243v-8.243h-8.243v8.243z" id="Shape" sketch:type="MSShapeGroup"/><g sketch:type="MSShapeGroup"><path d="M35.18 37.146l-.123-.039c-.578-.183-1.08-.341-1.671-1.985 1.886-1.586 3.619-3.797 4.782-5.995 1.38-.163 2.702-2.374 3.401-4.541.444-1.374.636-2.406.587-3.155-.056-.828-.404-1.274-.782-1.513.179-.426.338-.803.445-1.043.484-1.09.568-3.065.575-3.287.002-8.923-5.775-15.128-14.046-15.128-8.272 0-14.049 6.205-14.049 15.09.003.219.062 1.986.806 3.229l.573.969c-.487.166-1.066.596-1.139 1.684-.049.749.143 1.781.586 3.154.699 2.168 2.021 4.379 3.401 4.542 1.163 2.199 2.897 4.411 4.785 5.997-.591 1.643-1.091 1.801-1.668 1.982l-.125.04c-9.558 3.104-15.264 10.863-15.264 20.756v.521h44.188v-.521c-.002-9.891-5.707-17.651-15.262-20.757zm-19.841-21.596c0-8.908 5.823-14.049 13.009-14.049 7.184 0 13.008 5.141 13.008 14.049 0 0-.071 1.965-.487 2.901-.416.936-1.614 3.862-1.614 3.862s-2.082-3.746-2.082-5.202c0-1.457-12.488 0-15.609-3.123-.375-.374-.704-.539-.995-.539-2.126 0-2.126 8.864-2.126 8.864s-2.028-3.342-2.444-4.071c-.627-1.04-.66-2.692-.66-2.692zm3.966 12.816l-.177-.351-.385.074c-.444.089-1.766-1.151-2.629-3.825-.396-1.229-.577-2.16-.536-2.766.035-.563.236-.703.449-.771l.179-.1c.634 1.053 1.298 2.147 1.346 2.225.192.317.532.502.89.502l.28-.039c.449-.126.76-.535.76-1.002.002-3.472.532-7.034 1.136-7.772l.21.183c2.12 2.119 7.3 2.377 11.463 2.584 1.434.072 3.171.158 3.892.328.297 1.755 1.83 4.582 2.164 5.184.184.33.532.534.908.534l.063-.002c.399-.023.75-.274.901-.645l.736-1.786c.085.113.146.291.164.577.04.604-.141 1.536-.537 2.765-.863 2.674-2.175 3.902-2.63 3.825l-.385-.072-.177.35c-2.238 4.423-6.294 8.022-9.042 8.022s-6.805-3.6-9.043-8.022zm2.535 9.771l.116-.038c.838-.264 1.542-.611 2.214-2.305 1.398 1.008 2.845 1.634 4.178 1.634 1.332 0 2.779-.626 4.18-1.636.672 1.695 1.377 2.043 2.216 2.308l.116.037c.806.263 1.583.56 2.331.89-.082 1.74-3.615 3.581-8.845 3.581-5.228 0-8.76-1.839-8.843-3.579.75-.333 1.528-.632 2.337-.892zm-14.54 19.246c.171-7.974 4.277-14.434 11.221-17.894.533 2.37 4.657 4.158 9.825 4.158 5.17 0 9.294-1.789 9.828-4.159 6.943 3.459 11.05 9.921 11.22 17.895h-42.094zM50.691 58.675h-44.687v-.771c0-10.007 5.771-17.855 15.438-20.994l.126-.041c.517-.162.929-.292 1.449-1.667-1.789-1.536-3.474-3.653-4.652-5.847-1.545-.305-2.833-2.694-3.477-4.693-.453-1.403-.648-2.465-.598-3.247.07-1.056.592-1.552 1.028-1.783l-.43-.729c-.789-1.317-.836-3.146-.839-3.35 0-9.035 5.88-15.343 14.299-15.343 4.072 0 7.733 1.526 10.309 4.298 2.572 2.768 3.988 6.703 3.988 11.08-.003.097-.073 2.212-.597 3.389l-.366.855c.329.269.668.747.724 1.582.052.783-.145 1.846-.598 3.249-.646 1.998-1.933 4.386-3.478 4.691-1.179 2.192-2.861 4.309-4.649 5.845.521 1.376.934 1.506 1.451 1.67l.123.039c9.666 3.141 15.436 10.989 15.437 20.995v.772h-.001zm-44.187-.5h43.688v-.271c-.001-9.778-5.642-17.449-15.089-20.52l-.121-.038c-.616-.194-1.198-.379-1.831-2.139l-.059-.164.133-.112c1.82-1.53 3.541-3.688 4.723-5.92l.062-.116.13-.015c1.273-.151 2.548-2.371 3.192-4.37.435-1.342.623-2.344.576-3.063-.042-.622-.267-1.065-.667-1.317l-.179-.113.082-.195.447-1.048c.483-1.087.553-3.172.554-3.193 0-4.304-1.332-8.018-3.854-10.732-2.516-2.707-5.953-4.138-9.942-4.138-8.125 0-13.799 6.103-13.799 14.84.001.073.033 1.87.77 3.1l.573.969.159.265-.293.1c-.592.202-.918.694-.97 1.463-.047.718.141 1.719.574 3.061.645 2 1.919 4.22 3.193 4.371l.13.015.062.116c1.181 2.233 2.903 4.392 4.725 5.922l.134.112-.059.164c-.633 1.76-1.214 1.942-1.828 2.136l-.124.04c-9.45 3.068-15.092 10.739-15.092 20.518v.272zm43.145-.542h-42.605l.005-.255c.171-7.999 4.312-14.601 11.359-18.112l.285-.143.07.312c.508 2.259 4.627 3.963 9.581 3.963s9.075-1.704 9.584-3.964l.072-.312.285.143c7.048 3.511 11.188 10.113 11.358 18.113l.006.255zm-42.092-.5h41.58c-.245-7.592-4.168-13.865-10.807-17.285-.827 2.364-4.932 4.05-9.984 4.05s-9.155-1.685-9.981-4.049c-6.639 3.421-10.563 9.694-10.808 17.284zm20.789-14.276c-5.504 0-9.005-1.981-9.092-3.817l-.008-.171.157-.069c.77-.341 1.564-.644 2.361-.901l.115-.037c.78-.246 1.424-.56 2.059-2.159l.118-.299.26.188c1.44 1.038 2.834 1.587 4.032 1.587s2.592-.549 4.033-1.589l.261-.188.118.298c.635 1.601 1.28 1.915 2.059 2.161l.117.037c.81.264 1.602.566 2.355.899l.157.069-.008.171c-.086 1.838-3.588 3.82-9.094 3.82zm-8.574-3.673c.297 1.563 3.702 3.174 8.573 3.174 4.874 0 8.278-1.611 8.575-3.176-.688-.297-1.406-.568-2.139-.808l-.115-.036c-.825-.261-1.569-.609-2.251-2.162-1.437.983-2.839 1.502-4.068 1.502-1.229 0-2.63-.518-4.067-1.5-.682 1.552-1.424 1.899-2.25 2.159l-.114.037c-.722.233-1.442.505-2.144.81zm8.576-2.546c-2.832 0-6.989-3.66-9.266-8.159l-.092-.182-.294.047c-.734 0-2.021-1.53-2.819-4.003-.407-1.261-.591-2.223-.548-2.859.035-.559.227-.865.622-.992l.094-.053.224-.189.152.251c.633 1.051 1.296 2.145 1.344 2.222.177.292.52.44.853.364l-.389-.641c-.083-.137-2.035-3.353-2.448-4.077-.649-1.08-.689-2.741-.691-2.812 0-8.424 5.452-14.304 13.259-14.304 7.806 0 13.258 5.88 13.258 14.299-.003.091-.078 2.033-.509 3.003-.41.921-1.6 3.826-1.611 3.855l-.197.481-.253-.455c-.086-.155-2.113-3.82-2.113-5.324-.135-.369-2.712-.498-4.594-.591-4.027-.201-9.039-.451-10.942-2.355-.31-.309-.585-.466-.818-.466-1.366 0-1.876 5.284-1.876 8.614v.75c.32-.107.54-.41.54-.75.002-3.115.458-7.033 1.192-7.931l.148-.181.19.136.242.209c2.052 2.051 7.179 2.306 11.299 2.511 1.528.077 3.202.161 3.937.334l.161.038.027.164c.291 1.72 1.831 4.553 2.137 5.104.139.25.403.406.689.406.35-.019.618-.211.732-.491l.737-1.787.167-.405.264.351c.123.165.193.397.213.711.043.637-.142 1.599-.548 2.857-.799 2.472-2.088 4.002-2.825 4.002l-.085-.007-.204-.039-.093.182c-2.278 4.502-6.434 8.162-9.266 8.162zm-9.082-8.904l.262.52c2.201 4.347 6.157 7.884 8.82 7.884 2.662 0 6.618-3.537 8.819-7.885l.261-.517.569.107c.318-.001 1.529-1.125 2.346-3.656.333-1.032.511-1.841.529-2.413l-.417 1.013c-.192.472-.632.786-1.124.814l-.077.002c-.468 0-.899-.254-1.127-.663-.425-.766-1.804-3.339-2.16-5.095-.77-.142-2.35-.221-3.638-.286-4.24-.211-9.45-.47-11.653-2.634-.469.992-.942 4.1-.944 7.388 0 .576-.388 1.087-.942 1.243-.549.156-1.157-.09-1.451-.574-.043-.07-.628-1.033-1.223-2.02l-.013.004c-.103.033-.246.079-.275.549-.039.574.138 1.473.524 2.673.818 2.532 2.023 3.656 2.344 3.656l.57-.11zm1.301-14.535c.375 0 .759.2 1.172.612 1.767 1.769 6.88 2.023 10.614 2.209 3.515.175 5.068.287 5.068 1.091 0 1.081 1.256 3.581 1.802 4.618.36-.876 1.107-2.684 1.416-3.379.392-.882.465-2.79.466-2.809 0-8.244-5.127-13.79-12.758-13.79-7.631 0-12.759 5.545-12.759 13.799 0 .011.04 1.594.623 2.563.29.508 1.367 2.292 1.99 3.322.057-2.499.401-8.236 2.366-8.236z"/></g></g></svg>