<?xml version="1.0" encoding="UTF-8" standalone="no"?>
<svg width="1040px" height="388px" viewBox="0 0 1040 388" version="1.1" xmlns="http://www.w3.org/2000/svg" xmlns:xlink="http://www.w3.org/1999/xlink" xmlns:sketch="http://www.bohemiancoding.com/sketch/ns">
    <!-- Generator: Sketch 3.3 (11970) - http://www.bohemiancoding.com/sketch -->
    <title>Clipped</title>
    <desc>Created with Sketch.</desc>
    <defs>
        <rect id="path-1" x="0.108" y="0.497" width="1039.322" height="387.302"></rect>
    </defs>
    <g id="Page-1" stroke="none" stroke-width="1" fill="none" fill-rule="evenodd" sketch:type="MSPage"  opacity="0.5">
        <g id="discovery-pattern" sketch:type="MSLayerGroup">
            <g id="Clipped">
                <mask id="mask-2" sketch:name="SVGID_1_" fill="white">
                    <use xlink:href="#path-1"></use>
                </mask>
                <g id="SVGID_1_"></g>
                <g id="Group" mask="url(#mask-2)">
                    <g transform="translate(-737.000000, -103.000000)">
                        <g transform="translate(18.000000, 0.000000)">
                            <g id="XMLID_1_" transform="translate(875.000000, 10.000000)" fill="#FFFFFF" sketch:type="MSShapeGroup">
                                <g id="XMLID_2_">
                                    <g id="XMLID_3_">
                                        <g id="XMLID_4_">
                                            <g id="Group">
                                                <path d="M95.084,22.858 L91.218,32.347 L77.513,65.557 L130.229,44.998 C126.712,37.267 121.619,30.062 115.116,24.087 C110.195,19.694 104.926,16.004 99.127,13.193 L95.084,22.858 L95.084,22.858 Z M38.151,8.274 C54.844,-0.513 74.524,-2.269 92.45,3.177 C102.465,6.164 111.777,11.436 119.859,18.992 C148.677,45.7 150.433,90.859 123.902,119.678 C109.844,134.965 90.691,142.696 71.362,142.696 C58.185,142.696 44.828,139.008 33.231,131.627 C31.123,130.397 29.19,128.991 27.258,127.411 C25.85,126.354 24.445,125.127 23.039,123.894 C6.696,108.959 -0.858,88.048 0.195,67.49 C0.195,66.787 0.195,66.26 0.372,65.557 C0.548,62.219 1.076,59.056 1.777,55.893 C2.655,52.203 3.71,48.688 5.116,45.174 C7.4,39.374 10.564,33.752 14.429,28.655 C15.835,26.722 17.417,24.966 18.997,23.033 C22.514,19.166 26.378,15.828 30.594,13.017 C33.055,11.261 35.516,9.679 38.151,8.274 L38.151,8.274 Z M11.092,93.848 L11.092,93.672 C11.092,90.158 13.902,87.345 17.418,87.345 C20.93,87.345 23.742,90.158 23.742,93.672 C23.742,97.186 20.929,99.997 17.418,99.997 C15.486,99.997 13.901,99.118 12.674,97.889 C14.958,102.808 17.771,107.553 21.282,111.769 C20.929,111.067 20.756,110.189 20.756,109.309 C20.756,105.797 23.567,102.985 27.083,102.985 C30.595,102.985 33.407,105.798 33.407,109.309 C33.407,112.826 30.594,115.638 27.083,115.638 C25.851,115.638 24.799,115.286 23.918,114.758 C24.975,115.988 26.379,117.218 27.608,118.448 C28.134,118.974 28.663,119.502 29.19,119.854 C30.245,118.974 31.474,118.624 33.054,118.624 C36.571,118.624 39.381,121.434 39.381,124.951 C39.381,125.653 39.207,126.179 39.03,126.883 L39.03,126.883 C49.395,132.858 61.343,135.843 73.645,135.318 C74.699,135.318 75.755,135.142 76.807,135.142 L75.755,128.287 C74.698,130.045 72.59,131.452 70.306,131.452 C66.792,131.452 63.982,128.639 63.982,125.128 C63.982,121.611 66.793,118.801 70.306,118.801 C71.889,118.801 73.294,119.327 74.523,120.383 L71.712,99.648 C69.076,98.769 67.317,96.484 67.317,93.497 C67.317,91.389 68.374,89.456 69.954,88.226 L69.252,84.008 C68.726,84.184 68.198,84.184 67.67,84.184 C64.155,84.184 61.343,81.371 61.343,77.857 C61.343,74.519 63.982,71.708 67.493,71.532 L67.493,71.532 L81.902,36.74 C81.377,36.916 80.674,36.916 80.146,36.916 C76.632,36.916 73.82,34.103 73.82,30.589 C73.82,27.075 76.633,24.264 80.146,24.264 C82.607,24.264 84.714,25.669 85.769,27.602 L88.579,20.75 C86.121,19.871 84.539,17.411 84.539,14.775 C84.539,12.49 85.769,10.381 87.703,9.328 C82.607,7.922 77.158,7.22 71.712,7.22 L69.076,7.22 C65.209,7.395 61.519,7.922 57.831,8.625 C60.291,9.504 62.047,11.788 62.047,14.599 C62.047,18.114 59.235,20.925 55.723,20.925 C52.206,20.925 49.395,18.114 49.395,14.599 C49.395,13.018 49.922,11.612 50.803,10.558 C48.343,11.436 45.882,12.49 43.422,13.72 L43.422,14.599 C43.422,18.114 40.609,20.925 37.096,20.925 C35.69,20.925 34.462,20.574 33.406,19.695 C31.298,21.277 29.366,22.858 27.431,24.791 C29.189,26.021 30.593,27.953 30.593,30.414 C30.593,33.928 27.783,36.741 24.269,36.741 C22.161,36.741 20.403,35.687 19.172,34.281 C17.943,36.038 16.712,37.971 15.658,39.904 C18.82,40.256 21.28,42.891 21.28,46.23 C21.28,49.745 18.469,52.556 14.956,52.556 C13.374,52.556 11.968,52.029 10.739,50.975 C10.212,52.732 9.683,54.313 9.331,56.07 C10.913,57.124 11.968,59.057 11.968,61.165 C11.968,63.978 10.212,66.262 7.751,67.14 C7.575,68.898 7.575,70.83 7.575,72.587 C8.629,71.709 10.035,71.182 11.615,71.182 C15.132,71.182 17.942,73.993 17.942,77.507 C17.942,81.022 15.131,83.833 11.615,83.833 C10.563,83.833 9.683,83.657 8.805,83.131 C8.983,86.995 9.861,90.509 11.092,93.848 L11.092,93.848 Z M135.675,71.532 L135.675,68.72 C135.675,67.666 135.499,66.787 135.499,65.733 L114.413,58.704 L106.507,61.691 L135.675,71.532 L135.675,71.532 Z M135.322,78.911 L96.49,65.908 L96.49,65.733 L88.407,68.896 L134.444,84.359 C134.797,82.426 135.149,80.669 135.322,78.911 L135.322,78.911 Z M124.604,54.838 L134.269,58.177 C133.741,56.068 133.215,53.96 132.513,51.85 L124.604,54.838 L124.604,54.838 Z M132.688,91.036 L78.041,72.938 L74.876,74.167 L75.404,77.683 L130.755,96.133 C131.456,94.55 132.16,92.793 132.688,91.036 L132.688,91.036 Z M127.769,102.458 L76.809,85.414 L77.689,91.389 L124.957,107.202 C125.834,105.621 126.888,104.039 127.769,102.458 L127.769,102.458 Z M118.632,114.934 C119.157,114.406 119.684,113.704 120.212,113.178 L78.742,99.295 L79.62,105.27 L116.172,117.395 C117.047,116.69 117.928,115.812 118.632,114.934 L118.632,114.934 Z M110.019,122.84 L80.851,113.177 L81.729,119.149 L104.399,126.53 C106.331,125.477 108.263,124.247 110.019,122.84 L110.019,122.84 Z M95.436,131.099 L82.961,126.883 L84.013,134.44 C88.056,133.559 91.745,132.505 95.436,131.099 L95.436,131.099 Z" id="Shape"></path>
                                                <path d="M64.686,102.985 C68.201,102.985 71.012,105.798 71.012,109.309 C71.012,112.826 68.2,115.638 64.686,115.638 C61.172,115.638 58.36,112.825 58.36,109.309 C58.359,105.973 61.171,102.985 64.686,102.985 L64.686,102.985 Z" id="Shape"></path>
                                                <path d="M55.021,87.171 C58.536,87.171 61.345,89.982 61.345,93.496 C61.345,97.01 58.535,99.822 55.021,99.822 C51.507,99.822 48.697,97.01 48.697,93.496 C48.521,90.158 51.33,87.171 55.021,87.171 L55.021,87.171 Z" id="Shape"></path>
                                                <path d="M52.032,118.798 C55.549,118.798 58.359,121.611 58.359,125.127 C58.359,128.639 55.548,131.451 52.032,131.451 C48.52,131.451 45.708,128.638 45.708,125.127 C45.532,121.61 48.521,118.798 52.032,118.798 L52.032,118.798 Z" id="Shape"></path>
                                                <path d="M46.061,102.985 C49.573,102.985 52.385,105.798 52.385,109.309 C52.385,112.826 49.572,115.638 46.061,115.638 C42.544,115.638 39.734,112.825 39.734,109.309 C39.733,105.973 42.544,102.985 46.061,102.985 L46.061,102.985 Z" id="Shape"></path>
                                                <path d="M36.22,87.171 C39.734,87.171 42.544,89.982 42.544,93.496 C42.544,97.01 39.733,99.822 36.22,99.822 C32.705,99.822 29.893,97.01 29.893,93.496 C29.893,90.158 32.705,87.171 36.22,87.171 L36.22,87.171 Z" id="Shape"></path>
                                            </g>
                                        </g>
                                    </g>
                                </g>
                            </g>
                            <g transform="translate(614.000000, 0.000000)" id="Shape" fill="#FFFFFF" sketch:type="MSShapeGroup">
                                <g transform="translate(53.000000, 58.000000)">
                                    <path d="M107.181,3.081 L4.706,3.081 C3.784,3.081 3.032,3.831 3.032,4.756 L3.032,107.233 C3.032,108.155 3.784,108.908 4.706,108.908 L107.181,108.908 C108.109,108.908 108.859,108.155 108.859,107.233 L108.859,4.756 C108.858,3.831 108.108,3.081 107.181,3.081 L107.181,3.081 Z M105.509,105.558 L6.382,105.558 L6.382,6.431 L105.509,6.431 L105.509,105.558 L105.509,105.558 Z"></path>
                                    <path d="M107.181,111.407 L4.706,111.407 C2.404,111.407 0.532,109.534 0.532,107.232 L0.532,4.755 C0.532,2.453 2.404,0.58 4.706,0.58 L107.181,0.58 C109.485,0.58 111.359,2.453 111.359,4.755 L111.359,107.232 C111.358,109.534 109.484,111.407 107.181,111.407 L107.181,111.407 Z M8.882,103.058 L103.009,103.058 L103.009,8.931 L8.882,8.931 L8.882,103.058 L8.882,103.058 Z"></path>
                                </g>
                                <g transform="translate(188.000000, 109.000000)">
                                    <path d="M17.15,15.297 L26.263,6.177 C26.917,5.523 26.917,4.464 26.263,3.807 C25.61,3.153 24.55,3.153 23.897,3.807 L14.78,12.924 L5.667,3.807 C5.013,3.153 3.95,3.153 3.297,3.807 C2.644,4.464 2.644,5.523 3.297,6.177 L12.413,15.297 L3.297,24.41 C2.644,25.064 2.644,26.126 3.297,26.78 C3.626,27.106 4.05,27.271 4.484,27.271 C4.908,27.271 5.339,27.105 5.668,26.78 L14.781,17.663 L23.898,26.78 C24.232,27.106 24.657,27.271 25.09,27.271 C25.515,27.271 25.948,27.105 26.274,26.78 C26.927,26.126 26.927,25.064 26.274,24.41 L17.15,15.297 L17.15,15.297 Z"></path>
                                    <path d="M25.09,29.772 C23.99,29.772 22.946,29.345 22.152,28.571 L14.78,21.2 L7.435,28.549 C6.649,29.329 5.576,29.773 4.483,29.773 C3.376,29.773 2.33,29.342 1.538,28.559 C-0.099,26.921 -0.099,24.273 1.528,22.645 L8.878,15.298 L1.528,7.946 C-0.094,6.322 -0.096,3.675 1.523,2.046 C2.316,1.253 3.365,0.818 4.481,0.818 C5.596,0.818 6.645,1.252 7.434,2.04 L14.78,9.39 L22.13,2.041 C22.917,1.252 23.966,0.818 25.08,0.818 C26.195,0.818 27.244,1.252 28.032,2.041 C29.658,3.674 29.656,6.322 28.031,7.947 L20.686,15.297 L28.04,22.643 C29.669,24.272 29.669,26.921 28.042,28.549 C27.266,29.326 26.189,29.772 25.09,29.772 L25.09,29.772 Z"></path>
                                </g>
                            </g>
                        </g>
                        <g transform="translate(108.000000, 184.000000)">
                            <g id="XMLID_5_" transform="translate(875.000000, 10.000000)" fill="#FFFFFF" sketch:type="MSShapeGroup">
                                <g id="XMLID_6_">
                                    <g id="XMLID_7_">
                                        <g id="XMLID_8_">
                                            <g id="Group">
                                                <path d="M95.079,23.349 L91.213,32.838 L77.508,66.048 L130.224,45.489 C126.707,37.758 121.614,30.553 115.111,24.578 C110.19,20.185 104.921,16.495 99.122,13.684 L95.079,23.349 L95.079,23.349 Z M38.147,8.765 C54.84,-0.022 74.52,-1.778 92.446,3.668 C102.461,6.655 111.773,11.927 119.855,19.483 C148.673,46.191 150.429,91.35 123.898,120.168 C109.84,135.455 90.687,143.186 71.358,143.186 C58.181,143.186 44.824,139.498 33.227,132.118 C31.119,130.888 29.186,129.481 27.254,127.903 C25.846,126.846 24.441,125.618 23.035,124.385 C6.692,109.45 -0.862,88.54 0.191,67.981 C0.191,67.278 0.191,66.751 0.368,66.048 C0.544,62.71 1.072,59.547 1.773,56.384 C2.651,52.694 3.706,49.179 5.112,45.665 C7.396,39.865 10.56,34.243 14.425,29.146 C15.831,27.213 17.413,25.457 18.993,23.524 C22.51,19.657 26.374,16.319 30.59,13.508 C33.05,11.752 35.511,10.169 38.147,8.765 L38.147,8.765 Z M11.087,94.339 L11.087,94.163 C11.087,90.649 13.897,87.836 17.413,87.836 C20.925,87.836 23.737,90.649 23.737,94.163 C23.737,97.677 20.924,100.488 17.413,100.488 C15.481,100.488 13.896,99.609 12.669,98.38 C14.953,103.299 17.766,108.044 21.277,112.26 C20.924,111.558 20.751,110.68 20.751,109.8 C20.751,106.288 23.562,103.476 27.078,103.476 C30.59,103.476 33.402,106.289 33.402,109.8 C33.402,113.317 30.589,116.13 27.078,116.13 C25.846,116.13 24.794,115.777 23.913,115.249 C24.97,116.479 26.374,117.71 27.603,118.939 C28.129,119.465 28.658,119.992 29.185,120.346 C30.24,119.466 31.469,119.115 33.049,119.115 C36.566,119.115 39.376,121.924 39.376,125.442 C39.376,126.143 39.202,126.671 39.025,127.374 L39.025,127.374 C49.39,133.349 61.338,136.335 73.64,135.81 C74.694,135.81 75.75,135.634 76.802,135.634 L75.75,128.779 C74.693,130.537 72.585,131.943 70.301,131.943 C66.787,131.943 63.977,129.13 63.977,125.619 C63.977,122.103 66.788,119.293 70.301,119.293 C71.884,119.293 73.289,119.818 74.518,120.875 L71.707,100.14 C69.071,99.261 67.312,96.976 67.312,93.989 C67.312,91.881 68.369,89.948 69.949,88.718 L69.247,84.5 C68.721,84.676 68.193,84.676 67.665,84.676 C64.15,84.676 61.338,81.863 61.338,78.349 C61.338,75.011 63.977,72.2 67.488,72.024 L67.488,72.024 L81.897,37.232 C81.372,37.408 80.669,37.408 80.141,37.408 C76.627,37.408 73.815,34.595 73.815,31.081 C73.815,27.567 76.628,24.756 80.141,24.756 C82.602,24.756 84.709,26.161 85.764,28.094 L88.574,21.242 C86.116,20.363 84.534,17.903 84.534,15.267 C84.534,12.982 85.764,10.873 87.698,9.82 C82.602,8.414 77.153,7.712 71.707,7.712 L69.071,7.712 C65.204,7.887 61.514,8.414 57.826,9.117 C60.286,9.996 62.042,12.28 62.042,15.091 C62.042,18.606 59.23,21.417 55.718,21.417 C52.201,21.417 49.39,18.606 49.39,15.091 C49.39,13.51 49.917,12.104 50.798,11.05 C48.338,11.928 45.877,12.982 43.417,14.212 L43.417,15.091 C43.417,18.606 40.604,21.417 37.091,21.417 C35.685,21.417 34.457,21.066 33.401,20.187 C31.293,21.769 29.361,23.35 27.426,25.283 C29.184,26.513 30.588,28.445 30.588,30.906 C30.588,34.42 27.778,37.233 24.264,37.233 C22.156,37.233 20.398,36.179 19.167,34.773 C17.938,36.53 16.707,38.463 15.653,40.396 C18.815,40.748 21.275,43.383 21.275,46.722 C21.275,50.237 18.464,53.048 14.951,53.048 C13.369,53.048 11.963,52.521 10.734,51.467 C10.207,53.224 9.678,54.805 9.326,56.562 C10.908,57.616 11.963,59.549 11.963,61.657 C11.963,64.47 10.207,66.754 7.746,67.632 C7.57,69.39 7.57,71.322 7.57,73.079 C8.624,72.201 10.03,71.674 11.61,71.674 C15.127,71.674 17.937,74.485 17.937,77.999 C17.937,81.514 15.126,84.325 11.61,84.325 C10.558,84.325 9.678,84.149 8.8,83.623 C8.979,87.485 9.856,90.999 11.087,94.339 L11.087,94.339 Z M135.67,72.022 L135.67,69.21 C135.67,68.156 135.494,67.277 135.494,66.223 L114.408,59.194 L106.502,62.181 L135.67,72.022 L135.67,72.022 Z M135.317,79.402 L96.485,66.399 L96.485,66.224 L88.402,69.387 L134.439,84.85 C134.792,82.917 135.145,81.16 135.317,79.402 L135.317,79.402 Z M124.599,55.329 L134.264,58.668 C133.736,56.559 133.21,54.451 132.508,52.341 L124.599,55.329 L124.599,55.329 Z M132.684,91.527 L78.037,73.429 L74.872,74.658 L75.4,78.174 L130.751,96.624 C131.451,95.041 132.155,93.284 132.684,91.527 L132.684,91.527 Z M127.764,102.949 L76.804,85.905 L77.684,91.88 L124.952,107.693 C125.829,106.112 126.883,104.53 127.764,102.949 L127.764,102.949 Z M118.627,115.424 C119.152,114.897 119.679,114.194 120.207,113.668 L78.737,99.785 L79.615,105.76 L116.167,117.885 C117.042,117.18 117.923,116.303 118.627,115.424 L118.627,115.424 Z M110.014,123.33 L80.846,113.668 L81.724,119.64 L104.394,127.021 C106.326,125.967 108.258,124.736 110.014,123.33 L110.014,123.33 Z M95.431,131.59 L82.956,127.373 L84.008,134.93 C88.051,134.049 91.74,132.996 95.431,131.59 L95.431,131.59 Z" id="Shape"></path>
                                                <circle id="Oval" cx="74.169" cy="15.09" r="6.325"></circle>
                                                <path d="M76.98,46.719 C76.98,50.234 74.169,53.045 70.656,53.045 C67.141,53.045 64.329,50.234 64.329,46.719 C64.329,43.205 67.142,40.393 70.656,40.393 C74.169,40.393 76.98,43.205 76.98,46.719 L76.98,46.719 Z" id="Shape"></path>
                                                <path d="M64.681,103.476 C68.196,103.476 71.007,106.289 71.007,109.8 C71.007,113.317 68.195,116.13 64.681,116.13 C61.167,116.13 58.355,113.317 58.355,109.8 C58.355,106.464 61.166,103.476 64.681,103.476 L64.681,103.476 Z" id="Shape"></path>
                                                <path d="M61.34,24.579 C64.855,24.579 67.667,27.39 67.667,30.905 C67.667,34.419 64.854,37.232 61.34,37.232 C57.828,37.232 55.016,34.419 55.016,30.905 C55.016,27.39 57.828,24.579 61.34,24.579 L61.34,24.579 Z" id="Shape"></path>
                                                <path d="M66.087,62.534 C66.087,66.048 63.274,68.859 59.761,68.859 C56.246,68.859 53.436,66.048 53.436,62.534 C53.436,59.02 56.247,56.208 59.761,56.208 C63.099,56.032 66.087,59.02 66.087,62.534 L66.087,62.534 Z" id="Shape"></path>
                                                <path d="M55.016,87.662 C58.531,87.662 61.34,90.473 61.34,93.987 C61.34,97.501 58.53,100.313 55.016,100.313 C51.502,100.313 48.692,97.501 48.692,93.987 C48.516,90.649 51.325,87.662 55.016,87.662 L55.016,87.662 Z" id="Shape"></path>
                                                <path d="M52.027,40.393 C55.544,40.393 58.354,43.205 58.354,46.719 C58.354,50.234 55.543,53.045 52.027,53.045 C48.515,53.045 45.703,50.234 45.703,46.719 C45.527,43.205 48.516,40.393 52.027,40.393 L52.027,40.393 Z" id="Shape"></path>
                                                <path d="M52.027,119.289 C55.544,119.289 58.354,122.102 58.354,125.618 C58.354,129.13 55.543,131.942 52.027,131.942 C48.515,131.942 45.703,129.129 45.703,125.618 C45.527,122.102 48.516,119.289 52.027,119.289 L52.027,119.289 Z" id="Shape"></path>
                                                <path d="M49.041,71.846 C52.556,71.846 55.368,74.657 55.368,78.173 C55.368,81.687 52.555,84.498 49.041,84.498 C45.527,84.498 42.715,81.687 42.715,78.173 C42.715,74.833 45.527,71.846 49.041,71.846 L49.041,71.846 Z" id="Shape"></path>
                                                <path d="M46.056,103.476 C49.568,103.476 52.38,106.289 52.38,109.8 C52.38,113.317 49.567,116.13 46.056,116.13 C42.539,116.13 39.729,113.317 39.729,109.8 C39.729,106.464 42.539,103.476 46.056,103.476 L46.056,103.476 Z" id="Shape"></path>
                                                <path d="M42.715,24.579 C46.232,24.579 49.041,27.39 49.041,30.905 C49.041,34.419 46.231,37.232 42.715,37.232 C39.203,37.232 36.391,34.419 36.391,30.905 C36.391,27.39 39.026,24.579 42.715,24.579 L42.715,24.579 Z" id="Shape"></path>
                                                <circle id="Oval" cx="40.959" cy="62.533" r="6.325"></circle>
                                                <path d="M36.215,87.662 C39.729,87.662 42.539,90.473 42.539,93.987 C42.539,97.501 39.728,100.313 36.215,100.313 C32.7,100.313 29.888,97.501 29.888,93.987 C29.888,90.649 32.7,87.662 36.215,87.662 L36.215,87.662 Z" id="Shape"></path>
                                                <path d="M33.227,40.393 C36.744,40.393 39.553,43.205 39.553,46.719 C39.553,50.234 36.743,53.045 33.227,53.045 C29.714,53.045 26.902,50.234 26.902,46.719 C26.901,43.205 29.714,40.393 33.227,40.393 L33.227,40.393 Z" id="Shape"></path>
                                                <path d="M30.24,71.846 C33.754,71.846 36.566,74.657 36.566,78.173 C36.566,81.687 33.753,84.498 30.24,84.498 C26.725,84.498 23.913,81.687 23.913,78.173 C23.913,74.833 26.726,71.846 30.24,71.846 L30.24,71.846 Z" id="Shape"></path>
                                                <circle id="Oval" cx="22.334" cy="62.533" r="6.325"></circle>
                                            </g>
                                        </g>
                                    </g>
                                </g>
                            </g>
                            <g transform="translate(614.000000, 0.000000)" id="Shape" fill="#FFFFFF" sketch:type="MSShapeGroup">
                                <g transform="translate(53.000000, 59.000000)">
                                    <path d="M107.176,2.572 L4.701,2.572 C3.779,2.572 3.027,3.322 3.027,4.247 L3.027,106.723 C3.027,107.645 3.779,108.399 4.701,108.399 L107.176,108.399 C108.104,108.399 108.854,107.645 108.854,106.723 L108.854,4.247 C108.854,3.322 108.104,2.572 107.176,2.572 L107.176,2.572 Z M105.504,105.049 L6.377,105.049 L6.377,5.922 L105.504,5.922 L105.504,105.049 L105.504,105.049 Z"></path>
                                    <path d="M107.176,110.898 L4.701,110.898 C2.399,110.898 0.527,109.025 0.527,106.722 L0.527,4.247 C0.527,1.945 2.399,0.072 4.701,0.072 L107.176,0.072 C109.48,0.072 111.354,1.945 111.354,4.247 L111.354,106.723 C111.354,109.025 109.48,110.898 107.176,110.898 L107.176,110.898 Z M8.877,102.549 L103.004,102.549 L103.004,8.422 L8.877,8.422 L8.877,102.549 L8.877,102.549 Z"></path>
                                </g>
                                <g transform="translate(0.000000, 110.000000)">
                                    <path d="M26.588,3.298 C25.934,2.644 24.875,2.644 24.219,3.298 L15.105,12.414 L5.985,3.298 C5.332,2.644 4.27,2.644 3.619,3.298 C2.966,3.955 2.966,5.014 3.619,5.668 L12.732,14.787 L3.619,23.9 C2.966,24.554 2.966,25.617 3.619,26.271 C3.944,26.597 4.375,26.761 4.806,26.761 C5.234,26.761 5.664,26.597 5.993,26.271 L15.106,17.154 L24.22,26.271 C24.551,26.597 24.982,26.761 25.409,26.761 C25.839,26.761 26.273,26.597 26.598,26.271 C27.252,25.617 27.252,24.554 26.598,23.9 L17.485,14.787 L26.598,5.668 C27.248,5.015 27.248,3.956 26.588,3.298 L26.588,3.298 Z"></path>
                                    <path d="M25.408,29.262 C24.303,29.262 23.258,28.834 22.466,28.053 L15.105,20.692 L7.76,28.04 C6.962,28.831 5.915,29.263 4.805,29.263 C3.688,29.263 2.638,28.829 1.849,28.038 C0.223,26.411 0.223,23.763 1.85,22.136 L9.197,14.789 L1.85,7.437 C0.228,5.813 0.226,3.167 1.845,1.537 C2.635,0.745 3.684,0.309 4.801,0.309 C5.916,0.309 6.965,0.743 7.753,1.532 L15.104,8.88 L22.452,1.531 C23.244,0.741 24.292,0.308 25.405,0.308 C26.519,0.308 27.567,0.742 28.356,1.53 C29.985,3.152 29.993,5.801 28.371,7.432 L21.02,14.788 L28.366,22.133 C29.155,22.922 29.589,23.971 29.589,25.086 C29.589,26.203 29.155,27.252 28.366,28.039 C27.59,28.816 26.511,29.262 25.408,29.262 L25.408,29.262 Z"></path>
                                </g>
                                <g transform="translate(188.000000, 110.000000)">
                                    <path d="M17.146,14.788 L26.259,5.669 C26.913,5.015 26.913,3.956 26.259,3.299 C25.606,2.645 24.546,2.645 23.893,3.299 L14.776,12.415 L5.663,3.299 C5.009,2.645 3.946,2.645 3.293,3.299 C2.64,3.956 2.64,5.015 3.293,5.669 L12.409,14.788 L3.292,23.9 C2.639,24.554 2.639,25.617 3.292,26.271 C3.621,26.597 4.045,26.761 4.479,26.761 C4.903,26.761 5.334,26.597 5.663,26.271 L14.776,17.154 L23.893,26.271 C24.227,26.597 24.652,26.761 25.085,26.761 C25.51,26.761 25.943,26.597 26.269,26.271 C26.922,25.617 26.922,24.554 26.269,23.9 L17.146,14.788 L17.146,14.788 Z"></path>
                                    <path d="M25.085,29.262 C23.985,29.262 22.941,28.836 22.147,28.061 L14.775,20.69 L7.43,28.04 C6.644,28.819 5.571,29.263 4.478,29.263 C3.371,29.263 2.325,28.833 1.533,28.05 C-0.104,26.411 -0.104,23.763 1.523,22.136 L8.873,14.789 L1.523,7.437 C-0.099,5.813 -0.101,3.166 1.518,1.537 C2.311,0.744 3.36,0.309 4.476,0.309 C5.591,0.309 6.64,0.743 7.429,1.531 L14.775,8.881 L22.125,1.532 C22.912,0.743 23.961,0.309 25.075,0.309 C26.19,0.309 27.239,0.743 28.027,1.532 C29.653,3.165 29.651,5.813 28.026,7.438 L20.681,14.788 L28.035,22.134 C29.664,23.763 29.664,26.411 28.037,28.04 C27.261,28.816 26.185,29.262 25.085,29.262 L25.085,29.262 Z"></path>
                                </g>
                                <g transform="translate(10.000000, 0.000000)">
                                    <path d="M192.775,75.486 C192.935,75.486 193.103,75.461 193.269,75.41 C193.394,75.371 193.502,75.292 193.607,75.225 C193.659,75.193 193.712,75.177 193.757,75.142 C194.003,74.96 194.191,74.721 194.296,74.443 C194.316,74.414 194.341,74.408 194.351,74.386 L200.714,56.912 C201.033,56.041 200.58,55.081 199.716,54.765 C198.839,54.446 197.885,54.896 197.56,55.764 L192.83,68.75 C192.266,67.2 191.652,65.656 191.008,64.125 C189.752,61.162 188.338,58.22 186.801,55.391 C185.28,52.59 183.592,49.815 181.796,47.155 C180.02,44.52 178.083,41.93 176.041,39.461 C174.016,36.999 171.844,34.612 169.598,32.367 C167.334,30.109 164.948,27.943 162.498,25.917 C160.031,23.885 157.441,21.949 154.807,20.172 C152.157,18.376 149.387,16.692 146.568,15.164 C143.733,13.626 140.788,12.213 137.835,10.956 C134.846,9.696 131.761,8.564 128.651,7.597 C125.518,6.618 122.294,5.795 119.075,5.135 C115.805,4.468 112.471,3.958 109.158,3.623 C102.411,2.934 95.47,2.934 88.72,3.623 C85.407,3.958 82.07,4.462 78.799,5.135 C75.581,5.799 72.354,6.625 69.224,7.597 C66.114,8.564 63.026,9.696 60.04,10.956 C57.083,12.213 54.143,13.626 51.307,15.164 C48.493,16.692 45.718,18.376 43.067,20.172 C40.432,21.955 37.842,23.885 35.374,25.923 C32.927,27.942 30.542,30.114 28.28,32.373 C26.034,34.619 23.865,37.005 21.833,39.471 C19.798,41.937 17.858,44.527 16.082,47.161 C14.282,49.822 12.599,52.594 11.073,55.4 C9.54,58.23 8.12,61.174 6.866,64.134 C5.594,67.149 4.462,70.239 3.508,73.321 C3.234,74.204 3.725,75.142 4.612,75.417 C5.506,75.691 6.433,75.2 6.708,74.313 C7.627,71.34 8.725,68.355 9.952,65.445 C11.168,62.574 12.539,59.736 14.022,57.002 C15.496,54.288 17.126,51.608 18.857,49.037 C20.577,46.491 22.453,43.991 24.414,41.601 C26.383,39.225 28.482,36.915 30.647,34.746 C32.83,32.561 35.142,30.465 37.505,28.507 C39.894,26.545 42.396,24.673 44.943,22.947 C47.505,21.215 50.184,19.588 52.905,18.111 C55.645,16.628 58.484,15.256 61.348,14.044 C64.229,12.825 67.217,11.738 70.223,10.803 C73.246,9.859 76.36,9.061 79.469,8.423 C82.627,7.779 85.859,7.281 89.061,6.959 C95.579,6.302 102.296,6.302 108.81,6.959 C112.022,7.281 115.247,7.779 118.405,8.423 C121.525,9.061 124.629,9.859 127.659,10.803 C130.664,11.738 133.643,12.825 136.526,14.044 C139.391,15.256 142.237,16.628 144.977,18.111 C147.701,19.588 150.379,21.221 152.942,22.953 C155.491,24.672 157.991,26.545 160.378,28.507 C162.747,30.465 165.054,32.561 167.239,34.746 C169.405,36.915 171.507,39.225 173.471,41.601 C175.433,43.987 177.305,46.491 179.031,49.037 C180.763,51.614 182.39,54.29 183.858,57.002 C185.34,59.732 186.721,62.575 187.924,65.439 C188.709,67.286 189.407,69.162 190.07,71.043 L175.873,65.873 C175.008,65.554 174.045,66.007 173.726,66.871 C173.407,67.742 173.857,68.702 174.735,69.018 L192.202,75.388 C192.397,75.451 192.59,75.486 192.775,75.486 L192.775,75.486 Z"></path>
                                    <path d="M5.112,77.992 C4.694,77.992 4.279,77.929 3.878,77.806 C2.805,77.474 1.932,76.749 1.412,75.763 C0.891,74.776 0.788,73.645 1.119,72.579 C2.092,69.439 3.25,66.269 4.562,63.162 C5.843,60.137 7.293,57.125 8.874,54.209 C10.445,51.317 12.173,48.476 14.011,45.76 C15.819,43.079 17.802,40.426 19.905,37.879 C21.979,35.362 24.203,32.914 26.512,30.605 C28.854,28.267 31.299,26.043 33.783,23.995 C36.272,21.94 38.925,19.956 41.666,18.101 C44.37,16.269 47.213,14.542 50.115,12.966 C52.992,11.406 56.002,9.956 59.063,8.655 C62.154,7.35 65.322,6.192 68.482,5.21 C71.656,4.224 74.958,3.375 78.295,2.687 C81.604,2.005 85.026,1.484 88.47,1.136 C95.351,0.434 102.53,0.433 109.412,1.136 C112.787,1.477 116.207,1.998 119.575,2.685 C122.934,3.374 126.238,4.224 129.397,5.211 C132.542,6.189 135.708,7.347 138.805,8.652 C141.893,9.966 144.903,11.416 147.76,12.965 C150.644,14.528 153.487,16.256 156.209,18.101 C158.893,19.911 161.545,21.892 164.088,23.986 C166.612,26.074 169.059,28.297 171.363,30.595 C173.694,32.925 175.917,35.372 177.971,37.871 C180.058,40.394 182.043,43.048 183.868,45.755 C185.716,48.492 187.441,51.333 188.997,54.195 C190.324,56.639 191.571,59.179 192.712,61.766 L195.211,54.906 C195.829,53.255 197.404,52.16 199.138,52.16 C199.626,52.16 200.109,52.245 200.571,52.413 C201.623,52.798 202.459,53.567 202.929,54.58 C203.398,55.591 203.445,56.725 203.061,57.77 L196.386,75.96 L196.267,76.056 C196,76.475 195.655,76.845 195.245,77.148 L194.868,77.384 C194.696,77.495 194.398,77.675 194.007,77.796 C193.159,78.056 192.299,78.046 191.429,77.762 L173.878,71.363 C172.831,70.987 171.988,70.218 171.515,69.204 C171.042,68.192 170.994,67.057 171.378,66.007 C171.984,64.365 173.561,63.267 175.302,63.267 C175.793,63.267 176.277,63.353 176.739,63.524 L185.796,66.822 C185.739,66.684 185.682,66.548 185.624,66.413 C184.485,63.703 183.153,60.94 181.661,58.191 C180.252,55.587 178.669,52.976 176.956,50.428 C175.278,47.952 173.454,45.512 171.541,43.186 C169.637,40.883 167.593,38.635 165.471,36.51 C163.353,34.393 161.104,32.347 158.785,30.431 C156.43,28.494 153.991,26.674 151.544,25.023 C149.012,23.311 146.402,21.725 143.786,20.306 C141.094,18.849 138.323,17.516 135.553,16.344 C132.761,15.163 129.856,14.102 126.917,13.188 C123.977,12.272 120.945,11.492 117.904,10.87 C114.773,10.232 111.63,9.752 108.561,9.445 C102.241,8.806 95.632,8.807 89.312,9.445 C86.237,9.754 83.094,10.234 79.969,10.871 C76.906,11.499 73.876,12.279 70.968,13.187 C68.003,14.109 65.095,15.171 62.322,16.344 C59.572,17.508 56.803,18.842 54.094,20.307 C51.443,21.747 48.833,23.331 46.343,25.015 C43.877,26.684 41.437,28.509 39.091,30.436 C36.747,32.378 34.498,34.424 32.414,36.51 C30.306,38.622 28.261,40.871 26.337,43.193 C24.392,45.564 22.569,48.003 20.927,50.433 C19.226,52.96 17.641,55.571 16.218,58.191 C14.762,60.875 13.428,63.642 12.252,66.417 C11.038,69.295 9.975,72.2 9.095,75.048 C8.55,76.81 6.949,77.992 5.112,77.992 L5.112,77.992 Z"></path>
                                </g>
                            </g>
                        </g>
                        <g transform="translate(0.000000, 387.000000)">
                            <g id="XMLID_9_" transform="translate(893.000000, 10.000000)" fill="#FFFFFF" sketch:type="MSShapeGroup">
                                <g id="XMLID_10_">
                                    <g id="XMLID_11_">
                                        <g id="XMLID_12_">
                                            <g id="Group">
                                                <path d="M95.585,23.133 L91.719,32.621 L78.014,65.832 L130.73,45.273 C127.213,37.543 122.12,30.337 115.617,24.363 C110.696,19.97 105.427,16.281 99.628,13.468 L95.585,23.133 L95.585,23.133 Z M38.652,8.549 C55.345,-0.238 75.025,-1.994 92.951,3.453 C102.966,6.439 112.278,11.711 120.36,19.267 C149.178,45.976 150.934,91.134 124.403,119.953 C110.345,135.24 91.192,142.971 71.863,142.971 C58.686,142.971 45.329,139.283 33.732,131.903 C31.624,130.673 29.691,129.266 27.759,127.686 C26.351,126.629 24.946,125.403 23.54,124.17 C7.197,109.234 -0.357,88.324 0.696,67.766 C0.696,67.063 0.696,66.536 0.873,65.832 C1.049,62.494 1.577,59.33 2.278,56.168 C3.156,52.479 4.211,48.965 5.617,45.449 C7.901,39.65 11.065,34.027 14.93,28.931 C16.336,26.997 17.918,25.242 19.498,23.308 C23.015,19.443 26.879,16.105 31.095,13.292 C33.556,11.537 36.017,9.953 38.652,8.549 L38.652,8.549 Z M11.593,94.123 L11.593,93.947 C11.593,90.433 14.403,87.621 17.919,87.621 C21.431,87.621 24.243,90.434 24.243,93.947 C24.243,97.46 21.43,100.273 17.919,100.273 C15.987,100.273 14.402,99.394 13.175,98.164 C15.459,103.084 18.272,107.828 21.783,112.045 C21.43,111.342 21.257,110.465 21.257,109.584 C21.257,106.072 24.068,103.26 27.584,103.26 C31.096,103.26 33.908,106.073 33.908,109.584 C33.908,113.102 31.095,115.914 27.584,115.914 C26.352,115.914 25.3,115.56 24.419,115.033 C25.476,116.263 26.88,117.494 28.109,118.722 C28.635,119.249 29.164,119.777 29.691,120.128 C30.746,119.249 31.975,118.898 33.555,118.898 C37.072,118.898 39.882,121.709 39.882,125.226 C39.882,125.927 39.708,126.453 39.531,127.158 L39.531,127.158 C49.896,133.133 61.844,136.119 74.146,135.592 C75.2,135.592 76.256,135.416 77.308,135.416 L76.256,128.562 C75.199,130.32 73.091,131.726 70.807,131.726 C67.293,131.726 64.483,128.913 64.483,125.402 C64.483,121.884 67.294,119.076 70.807,119.076 C72.39,119.076 73.795,119.601 75.024,120.658 L72.213,99.922 C69.577,99.043 67.818,96.758 67.818,93.772 C67.818,91.665 68.875,89.731 70.455,88.501 L69.753,84.284 C69.227,84.46 68.699,84.46 68.171,84.46 C64.656,84.46 61.844,81.647 61.844,78.134 C61.844,74.796 64.483,71.984 67.994,71.808 L67.994,71.808 L82.403,37.017 C81.878,37.193 81.175,37.193 80.647,37.193 C77.133,37.193 74.321,34.38 74.321,30.867 C74.321,27.351 77.134,24.541 80.647,24.541 C83.108,24.541 85.215,25.945 86.27,27.879 L89.08,21.027 C86.622,20.148 85.04,17.687 85.04,15.052 C85.04,12.767 86.27,10.657 88.204,9.605 C83.108,8.199 77.659,7.496 72.213,7.496 L69.577,7.496 C65.71,7.672 62.02,8.199 58.332,8.902 C60.792,9.781 62.548,12.064 62.548,14.877 C62.548,18.391 59.736,21.201 56.224,21.201 C52.707,21.201 49.896,18.39 49.896,14.877 C49.896,13.295 50.423,11.889 51.304,10.836 C48.844,11.713 46.383,12.768 43.923,13.998 L43.923,14.877 C43.923,18.391 41.11,21.201 37.597,21.201 C36.191,21.201 34.963,20.851 33.907,19.972 C31.799,21.554 29.867,23.134 27.932,25.068 C29.69,26.298 31.094,28.23 31.094,30.691 C31.094,34.205 28.284,37.017 24.77,37.017 C22.662,37.017 20.904,35.962 19.673,34.556 C18.444,36.314 17.213,38.247 16.159,40.179 C19.321,40.531 21.781,43.165 21.781,46.505 C21.781,50.019 18.97,52.831 15.457,52.831 C13.875,52.831 12.469,52.304 11.24,51.249 C10.713,53.007 10.184,54.587 9.832,56.345 C11.414,57.4 12.469,59.331 12.469,61.441 C12.469,64.254 10.713,66.537 8.252,67.416 C8.076,69.174 8.076,71.105 8.076,72.863 C9.13,71.984 10.536,71.457 12.116,71.457 C15.633,71.457 18.443,74.27 18.443,77.783 C18.443,81.296 15.632,84.109 12.116,84.109 C11.064,84.109 10.184,83.931 9.306,83.406 C9.484,87.27 10.362,90.783 11.593,94.123 L11.593,94.123 Z M136.176,71.807 L136.176,68.996 C136.176,67.941 136,67.062 136,66.008 L114.914,58.981 L107.008,61.967 L136.176,71.807 L136.176,71.807 Z M135.823,79.186 L96.991,66.184 L96.991,66.008 L88.908,69.172 L134.945,84.635 C135.298,82.701 135.65,80.945 135.823,79.186 L135.823,79.186 Z M125.105,55.113 L134.77,58.453 C134.242,56.344 133.716,54.236 133.014,52.127 L125.105,55.113 L125.105,55.113 Z M133.19,91.311 L78.543,73.213 L75.378,74.442 L75.906,77.958 L131.257,96.409 C131.957,94.826 132.661,93.068 133.19,91.311 L133.19,91.311 Z M128.27,102.732 L77.31,85.689 L78.19,91.664 L125.458,107.477 C126.335,105.896 127.389,104.314 128.27,102.732 L128.27,102.732 Z M119.133,115.209 C119.658,114.682 120.185,113.979 120.713,113.453 L79.243,99.57 L80.121,105.545 L116.673,117.67 C117.548,116.965 118.429,116.088 119.133,115.209 L119.133,115.209 Z M110.52,123.115 L81.352,113.453 L82.23,119.426 L104.9,126.807 C106.832,125.752 108.764,124.521 110.52,123.115 L110.52,123.115 Z M95.937,131.375 L83.462,127.158 L84.514,134.715 C88.557,133.834 92.246,132.781 95.937,131.375 L95.937,131.375 Z" id="Shape"></path>
                                                <circle id="Oval" cx="74.675" cy="14.874" r="6.325"></circle>
                                                <path d="M77.485,46.504 C77.485,50.018 74.674,52.83 71.161,52.83 C67.646,52.83 64.834,50.017 64.834,46.504 C64.834,42.991 67.647,40.178 71.161,40.178 C74.675,40.178 77.485,42.99 77.485,46.504 L77.485,46.504 Z" id="Shape"></path>
                                                <path d="M61.846,24.363 C65.361,24.363 68.173,27.174 68.173,30.689 C68.173,34.203 65.36,37.015 61.846,37.015 C58.334,37.015 55.522,34.202 55.522,30.689 C55.522,27.174 58.334,24.363 61.846,24.363 L61.846,24.363 Z" id="Shape"></path>
                                                <path d="M66.593,62.318 C66.593,65.832 63.78,68.642 60.267,68.642 C56.752,68.642 53.942,65.831 53.942,62.318 C53.942,58.805 56.753,55.992 60.267,55.992 C63.605,55.816 66.593,58.805 66.593,62.318 L66.593,62.318 Z" id="Shape"></path>
                                                <path d="M55.522,87.445 C59.037,87.445 61.846,90.258 61.846,93.771 C61.846,97.284 59.036,100.097 55.522,100.097 C52.008,100.097 49.198,97.284 49.198,93.771 C49.022,90.434 51.831,87.445 55.522,87.445 L55.522,87.445 Z" id="Shape"></path>
                                                <path d="M52.533,40.178 C56.05,40.178 58.86,42.991 58.86,46.504 C58.86,50.017 56.049,52.83 52.533,52.83 C49.021,52.83 46.209,50.017 46.209,46.504 C46.033,42.99 49.022,40.178 52.533,40.178 L52.533,40.178 Z" id="Shape"></path>
                                                <path d="M49.547,71.631 C53.062,71.631 55.874,74.442 55.874,77.957 C55.874,81.471 53.061,84.283 49.547,84.283 C46.033,84.283 43.221,81.47 43.221,77.957 C43.221,74.617 46.033,71.631 49.547,71.631 L49.547,71.631 Z" id="Shape"></path>
                                                <path d="M43.221,24.363 C46.738,24.363 49.547,27.174 49.547,30.689 C49.547,34.203 46.737,37.015 43.221,37.015 C39.709,37.015 36.897,34.202 36.897,30.689 C36.897,27.174 39.532,24.363 43.221,24.363 L43.221,24.363 Z" id="Shape"></path>
                                                <circle id="Oval" cx="41.465" cy="62.317" r="6.325"></circle>
                                                <path d="M36.721,87.445 C40.235,87.445 43.045,90.258 43.045,93.771 C43.045,97.284 40.234,100.097 36.721,100.097 C33.206,100.097 30.394,97.284 30.394,93.771 C30.394,90.434 33.206,87.445 36.721,87.445 L36.721,87.445 Z" id="Shape"></path>
                                                <path d="M33.732,40.178 C37.249,40.178 40.058,42.991 40.058,46.504 C40.058,50.017 37.248,52.83 33.732,52.83 C30.219,52.83 27.407,50.017 27.407,46.504 C27.407,42.991 30.22,40.178 33.732,40.178 L33.732,40.178 Z" id="Shape"></path>
                                                <path d="M30.746,71.631 C34.26,71.631 37.072,74.442 37.072,77.957 C37.072,81.471 34.259,84.283 30.746,84.283 C27.231,84.283 24.419,81.47 24.419,77.957 C24.419,74.617 27.232,71.631 30.746,71.631 L30.746,71.631 Z" id="Shape"></path>
                                                <circle id="Oval" cx="22.84" cy="62.317" r="6.325"></circle>
                                            </g>
                                        </g>
                                    </g>
                                </g>
                            </g>
                            <g transform="translate(632.000000, 0.000000)" id="Shape" fill="#FFFFFF" sketch:type="MSShapeGroup">
                                <g transform="translate(53.000000, 59.000000)">
                                    <path d="M106.697,2.682 L4.222,2.682 C3.3,2.682 2.548,3.432 2.548,4.358 L2.548,106.835 C2.548,107.757 3.3,108.509 4.222,108.509 L106.697,108.509 C107.625,108.509 108.375,107.757 108.375,106.835 L108.375,4.357 C108.375,3.432 107.625,2.682 106.697,2.682 L106.697,2.682 Z M105.025,105.16 L5.898,105.16 L5.898,6.031 L105.025,6.031 L105.025,105.16 L105.025,105.16 Z"></path>
                                    <path d="M106.697,111.008 L4.222,111.008 C1.92,111.008 0.048,109.135 0.048,106.834 L0.048,4.357 C0.048,2.054 1.92,0.181 4.222,0.181 L106.697,0.181 C109.001,0.181 110.875,2.054 110.875,4.357 L110.875,106.834 C110.875,109.135 109.001,111.008 106.697,111.008 L106.697,111.008 Z M8.398,102.66 L102.525,102.66 L102.525,8.531 L8.398,8.531 L8.398,102.66 L8.398,102.66 Z"></path>
                                </g>
                                <g transform="translate(10.000000, 0.000000)">
                                    <path d="M192.297,75.596 C192.457,75.596 192.625,75.571 192.791,75.52 C192.916,75.483 193.024,75.403 193.129,75.336 C193.181,75.303 193.234,75.287 193.279,75.252 C193.525,75.07 193.713,74.83 193.818,74.553 C193.838,74.526 193.863,74.518 193.873,74.496 L200.236,57.021 C200.555,56.152 200.102,55.191 199.238,54.875 C198.361,54.557 197.407,55.006 197.082,55.873 L192.352,68.859 C191.788,67.308 191.174,65.765 190.53,64.234 C189.274,61.271 187.86,58.33 186.323,55.5 C184.802,52.699 183.114,49.926 181.318,47.264 C179.542,44.629 177.605,42.039 175.563,39.571 C173.538,37.108 171.366,34.723 169.12,32.477 C166.856,30.219 164.47,28.053 162.02,26.028 C159.553,23.995 156.963,22.059 154.329,20.282 C151.679,18.487 148.909,16.802 146.09,15.274 C143.255,13.737 140.31,12.323 137.357,11.067 C134.368,9.807 131.283,8.674 128.173,7.708 C125.04,6.729 121.816,5.905 118.597,5.245 C115.327,4.579 111.993,4.069 108.68,3.733 C101.933,3.044 94.992,3.044 88.242,3.733 C84.929,4.069 81.592,4.573 78.321,5.245 C75.103,5.909 71.876,6.735 68.746,7.708 C65.636,8.675 62.548,9.808 59.562,11.067 C56.605,12.323 53.665,13.737 50.829,15.274 C48.015,16.801 45.24,18.487 42.589,20.282 C39.954,22.065 37.364,23.995 34.896,26.034 C32.449,28.054 30.064,30.225 27.802,32.483 C25.556,34.729 23.387,37.116 21.355,39.581 C19.32,42.048 17.38,44.638 15.604,47.272 C13.804,49.932 12.121,52.704 10.595,55.51 C9.062,58.34 7.642,61.283 6.388,64.244 C5.116,67.258 3.984,70.349 3.03,73.432 C2.756,74.315 3.247,75.252 4.134,75.528 C5.028,75.801 5.955,75.309 6.23,74.423 C7.149,71.45 8.247,68.466 9.474,65.556 C10.69,62.685 12.061,59.847 13.544,57.113 C15.018,54.398 16.648,51.718 18.379,49.148 C20.099,46.603 21.975,44.101 23.936,41.712 C25.905,39.335 28.004,37.026 30.169,34.857 C32.352,32.673 34.664,30.578 37.027,28.619 C39.416,26.656 41.918,24.785 44.465,23.058 C47.027,21.326 49.706,19.699 52.427,18.222 C55.167,16.74 58.006,15.367 60.87,14.156 C63.751,12.937 66.739,11.849 69.745,10.916 C72.768,9.971 75.882,9.174 78.991,8.535 C82.149,7.89 85.381,7.392 88.583,7.072 C95.101,6.414 101.818,6.414 108.332,7.072 C111.544,7.392 114.769,7.89 117.927,8.535 C121.047,9.174 124.151,9.971 127.181,10.916 C130.186,11.85 133.165,12.937 136.048,14.156 C138.913,15.367 141.759,16.74 144.499,18.222 C147.223,19.699 149.901,21.333 152.464,23.064 C155.013,24.785 157.513,26.656 159.9,28.619 C162.269,30.578 164.576,32.674 166.761,34.857 C168.927,37.027 171.029,39.336 172.993,41.712 C174.955,44.099 176.827,46.603 178.553,49.148 C180.285,51.726 181.912,54.402 183.38,57.113 C184.862,59.843 186.243,62.685 187.446,65.551 C188.231,67.399 188.929,69.274 189.592,71.155 L175.395,65.985 C174.53,65.667 173.567,66.12 173.248,66.983 C172.929,67.854 173.379,68.815 174.257,69.129 L191.724,75.5 C191.918,75.561 192.111,75.596 192.297,75.596 L192.297,75.596 Z"></path>
                                    <path d="M4.634,78.102 C4.216,78.102 3.801,78.039 3.4,77.916 C2.327,77.584 1.454,76.859 0.934,75.873 C0.413,74.887 0.31,73.756 0.641,72.689 C1.614,69.548 2.772,66.378 4.084,63.271 C5.365,60.246 6.815,57.234 8.396,54.318 C9.967,51.427 11.695,48.586 13.533,45.869 C15.341,43.189 17.324,40.535 19.427,37.988 C21.501,35.472 23.725,33.023 26.034,30.715 C28.376,28.377 30.821,26.152 33.305,24.106 C35.794,22.049 38.447,20.067 41.188,18.211 C43.892,16.379 46.735,14.652 49.637,13.076 C52.514,11.515 55.524,10.066 58.585,8.765 C61.676,7.46 64.844,6.302 68.004,5.32 C71.178,4.334 74.48,3.484 77.817,2.797 C81.126,2.115 84.548,1.594 87.992,1.246 C94.873,0.543 102.052,0.543 108.934,1.246 C112.309,1.586 115.729,2.107 119.097,2.795 C122.456,3.484 125.76,4.334 128.919,5.32 C132.064,6.299 135.23,7.457 138.327,8.761 C141.415,10.075 144.425,11.527 147.282,13.075 C150.166,14.638 153.009,16.366 155.731,18.21 C158.415,20.021 161.067,22.001 163.61,24.097 C166.134,26.185 168.581,28.408 170.885,30.706 C173.216,33.036 175.439,35.483 177.493,37.981 C179.58,40.504 181.565,43.159 183.39,45.866 C185.238,48.602 186.963,51.444 188.519,54.305 C189.846,56.75 191.093,59.289 192.234,61.877 L194.733,55.016 C195.351,53.366 196.926,52.272 198.66,52.272 C199.148,52.272 199.631,52.356 200.093,52.524 C201.145,52.909 201.981,53.678 202.451,54.692 C202.92,55.702 202.967,56.837 202.583,57.881 L195.908,76.072 L195.789,76.168 C195.522,76.586 195.177,76.957 194.767,77.26 L194.39,77.496 C194.218,77.607 193.92,77.787 193.529,77.906 C192.681,78.166 191.821,78.156 190.951,77.873 L173.4,71.475 C172.353,71.098 171.51,70.33 171.037,69.317 C170.564,68.303 170.516,67.169 170.9,66.12 C171.506,64.477 173.083,63.38 174.824,63.38 C175.315,63.38 175.799,63.466 176.261,63.636 L185.318,66.935 C185.261,66.796 185.204,66.662 185.146,66.527 C184.007,63.816 182.675,61.052 181.183,58.304 C179.774,55.699 178.191,53.089 176.478,50.54 C174.8,48.063 172.976,45.624 171.063,43.298 C169.159,40.995 167.115,38.747 164.993,36.622 C162.875,34.505 160.626,32.46 158.307,30.542 C155.952,28.606 153.513,26.786 151.066,25.136 C148.534,23.423 145.924,21.837 143.308,20.417 C140.616,18.962 137.845,17.628 135.075,16.456 C132.283,15.274 129.378,14.214 126.439,13.3 C123.499,12.384 120.467,11.605 117.426,10.982 C114.295,10.343 111.152,9.865 108.083,9.556 C101.763,8.917 95.154,8.919 88.834,9.556 C85.759,9.865 82.616,10.345 79.491,10.982 C76.428,11.611 73.398,12.39 70.49,13.298 C67.525,14.22 64.617,15.282 61.844,16.456 C59.094,17.62 56.325,18.952 53.616,20.419 C50.965,21.858 48.355,23.442 45.865,25.128 C43.399,26.796 40.959,28.62 38.613,30.548 C36.269,32.491 34.02,34.536 31.936,36.622 C29.828,38.733 27.783,40.983 25.859,43.306 C23.914,45.675 22.091,48.115 20.449,50.546 C18.748,53.071 17.163,55.683 15.74,58.304 C14.284,60.988 12.95,63.755 11.774,66.529 C10.56,69.408 9.497,72.312 8.617,75.16 C8.071,76.92 6.471,78.102 4.634,78.102 L4.634,78.102 Z"></path>
                                </g>
                            </g>
                        </g>
                        <g transform="translate(1059.000000, 0.000000)">
                            <g transform="translate(0.000000, 9.000000)" id="Shape" fill="#FFFFFF" sketch:type="MSShapeGroup">
                                <path d="M47.669,149.348 L79.78,181.458 L111.893,149.348 L79.78,117.238 L47.669,149.348 L47.669,149.348 Z M79.78,167.732 L61.4,149.348 L79.781,130.965 L98.164,149.348 L79.78,167.732 L79.78,167.732 Z"></path>
                                <path d="M120.33,66.433 L39.231,66.433 L39.231,112.338 L120.33,112.338 L120.33,66.433 L120.33,66.433 Z M110.624,102.631 L48.938,102.631 L48.938,76.141 L110.624,76.141 L110.624,102.631 L110.624,102.631 Z"></path>
                                <path d="M17.878,80.659 L22.491,85.27 L18.645,85.27 C13.832,85.261 9.926,81.346 9.926,76.535 L9.926,44.191 C9.926,39.375 13.848,35.454 18.662,35.454 L33.225,35.454 L33.225,25.746 L18.335,25.746 L18.335,25.763 C8.315,25.94 0.216,34.132 0.216,44.191 L0.216,76.535 C0.216,85.84 7.148,93.535 16.114,94.782 L16.114,94.978 L18.624,94.978 C18.64,94.978 18.649,94.981 18.665,94.981 L18.665,94.978 L22.489,94.978 L17.876,99.591 L22.602,104.313 L36.789,90.125 L22.602,75.939 L17.878,80.659 L17.878,80.659 Z"></path>
                                <path d="M136.077,85.288 L136.077,85.273 L123.13,85.273 L123.13,94.981 L135.75,94.981 C142.055,94.981 142.544,101.668 142.544,103.719 L142.544,136.063 C142.544,138.108 142.055,144.776 135.78,144.797 L129.98,144.797 L134.592,140.187 L129.871,135.467 L115.685,149.651 L129.871,163.84 L134.595,159.117 L129.98,154.507 L135.752,154.507 L135.752,154.51 C135.764,154.51 135.774,154.507 135.79,154.507 L136.357,154.507 L136.357,154.479 C145.745,154.166 152.253,146.693 152.253,136.064 L152.253,103.717 C152.251,92.982 145.615,85.458 136.077,85.288 L136.077,85.288 Z"></path>
                            </g>
                            <g transform="translate(614.000000, 0.000000)" id="Shape" fill="#FFFFFF" sketch:type="MSShapeGroup">
                                <g transform="translate(53.000000, 58.000000)">
                                    <path d="M107.181,3.081 L4.706,3.081 C3.784,3.081 3.032,3.831 3.032,4.756 L3.032,107.233 C3.032,108.155 3.784,108.908 4.706,108.908 L107.181,108.908 C108.109,108.908 108.859,108.155 108.859,107.233 L108.859,4.756 C108.859,3.831 108.109,3.081 107.181,3.081 L107.181,3.081 Z M105.509,105.558 L6.382,105.558 L6.382,6.431 L105.509,6.431 L105.509,105.558 L105.509,105.558 Z"></path>
                                    <path d="M107.181,111.407 L4.706,111.407 C2.404,111.407 0.532,109.534 0.532,107.232 L0.532,4.755 C0.532,2.453 2.404,0.58 4.706,0.58 L107.181,0.58 C109.485,0.58 111.359,2.453 111.359,4.755 L111.359,107.232 C111.359,109.534 109.484,111.407 107.181,111.407 L107.181,111.407 Z M8.882,103.058 L103.009,103.058 L103.009,8.931 L8.882,8.931 L8.882,103.058 L8.882,103.058 Z"></path>
                                </g>
                                <g transform="translate(0.000000, 109.000000)">
                                    <path d="M26.593,3.808 C25.939,3.154 24.88,3.154 24.224,3.808 L15.11,12.925 L5.99,3.808 C5.337,3.154 4.275,3.154 3.624,3.808 C2.971,4.465 2.971,5.524 3.624,6.178 L12.737,15.298 L3.624,24.411 C2.971,25.065 2.971,26.127 3.624,26.781 C3.949,27.107 4.38,27.272 4.811,27.272 C5.239,27.272 5.669,27.106 5.998,26.781 L15.111,17.664 L24.225,26.781 C24.556,27.107 24.987,27.272 25.414,27.272 C25.844,27.272 26.278,27.106 26.603,26.781 C27.257,26.127 27.257,25.065 26.603,24.411 L17.49,15.298 L26.603,6.178 C27.253,5.524 27.253,4.465 26.593,3.808 L26.593,3.808 Z"></path>
                                    <path d="M25.413,29.772 C24.308,29.772 23.263,29.343 22.471,28.563 L15.11,21.2 L7.765,28.548 C6.967,29.34 5.92,29.772 4.81,29.772 C3.693,29.772 2.643,29.337 1.854,28.547 C0.228,26.92 0.228,24.271 1.855,22.643 L9.202,15.296 L1.855,7.944 C0.233,6.32 0.231,3.674 1.85,2.044 C2.64,1.252 3.689,0.816 4.806,0.816 C5.921,0.816 6.97,1.25 7.758,2.039 L15.109,9.387 L22.457,2.038 C23.249,1.248 24.297,0.815 25.41,0.815 C26.524,0.815 27.572,1.249 28.361,2.037 C29.99,3.659 29.998,6.308 28.376,7.939 L21.025,15.295 L28.371,22.641 C29.16,23.429 29.594,24.477 29.594,25.594 C29.594,26.711 29.16,27.759 28.371,28.548 C27.595,29.326 26.516,29.772 25.413,29.772 L25.413,29.772 Z"></path>
                                </g>
                            </g>
                            <g transform="translate(385.000000, 22.000000)" id="Shape" fill="#FFFFFF" sketch:type="MSShapeGroup">
                                <path d="M35.798,39.474 C33.749,37.424 30.433,37.424 28.386,39.474 L2.182,65.677 C0.134,67.722 0.134,71.042 2.182,73.087 L28.386,99.292 C29.409,100.318 30.749,100.829 32.091,100.829 C33.433,100.829 34.772,100.318 35.798,99.292 C37.845,97.247 37.845,93.931 35.798,91.883 L13.296,69.383 L35.794,46.886 C37.843,44.841 37.843,41.519 35.798,39.474 L35.798,39.474 Z"></path>
                                <path d="M161.577,39.474 C159.529,37.424 156.212,37.424 154.165,39.474 C152.12,41.519 152.12,44.836 154.165,46.884 L176.664,69.384 L154.165,91.881 C152.116,93.931 152.116,97.248 154.165,99.293 C155.19,100.319 156.53,100.83 157.87,100.83 C159.211,100.83 160.552,100.319 161.577,99.293 L187.782,73.091 C189.827,71.046 189.827,67.726 187.782,65.681 L161.577,39.474 L161.577,39.474 Z"></path>
                                <path d="M127.693,5.322 L117.84,1.738 C116.395,1.213 114.885,0.947 113.361,0.947 C107.872,0.947 102.924,4.41 101.046,9.568 L97.464,19.412 C97.464,19.415 97.464,19.417 97.458,19.42 L97.458,19.425 L61.612,117.916 C61.504,118.214 61.467,118.53 61.471,118.845 C61.471,118.898 61.467,118.95 61.471,119.003 C61.474,119.039 61.467,119.075 61.471,119.111 L65.491,154.036 C65.606,155.023 66.266,155.86 67.198,156.2 C67.491,156.305 67.792,156.355 68.094,156.355 C68.752,156.355 69.401,156.106 69.895,155.639 L95.426,131.47 C95.487,131.412 95.531,131.341 95.584,131.277 C95.637,131.218 95.688,131.166 95.732,131.1 C95.878,130.904 96.003,130.691 96.086,130.461 L131.938,31.97 L131.938,31.967 L131.938,31.965 L135.523,22.118 C136.719,18.829 136.565,15.269 135.088,12.099 C133.603,8.926 130.977,6.52 127.693,5.322 L127.693,5.322 Z M105.971,11.361 C107.099,8.266 110.067,6.184 113.355,6.184 C114.273,6.184 115.177,6.347 116.044,6.663 L125.898,10.247 C127.869,10.963 129.441,12.408 130.332,14.309 C131.219,16.214 131.31,18.347 130.591,20.321 L127.903,27.709 L110.671,21.435 C110.671,21.435 110.671,21.433 110.665,21.433 C110.665,21.433 110.665,21.433 110.663,21.433 L103.28,18.746 L105.971,11.361 L105.971,11.361 Z M92.058,126.207 L87.132,124.414 L121.188,30.846 L126.113,32.639 L92.058,126.207 L92.058,126.207 Z M77.283,120.83 L111.341,27.258 L116.263,29.052 L82.206,122.621 L77.283,120.83 L77.283,120.83 Z M67.432,117.245 L101.489,23.676 L106.414,25.467 L72.357,119.039 L67.432,117.245 L67.432,117.245 Z M67.163,122.726 L73.025,124.86 L73.027,124.86 L82.874,128.442 C82.874,128.442 82.876,128.442 82.876,128.445 L82.878,128.445 L88.741,130.578 L70.096,148.23 L67.163,122.726 L67.163,122.726 Z"></path>
                            </g>
                            <g id="Page-1_5_" transform="translate(193.000000, 7.000000)" fill="#FFFFFF" sketch:type="MSShapeGroup">
                                <g id="Group_5_">
                                    <g id="IDEA_5_">
                                        <g id="Rectangle-2_5_" transform="translate(20.000000, 36.000000)">
                                            <path d="M68.001,129.752 L30.355,129.752 C23.138,129.752 17.266,123.871 17.266,116.642 C17.266,114.596 17.75,112.577 18.657,110.765 C17.751,108.951 17.266,106.935 17.266,104.893 C17.266,100.983 19.024,97.298 21.966,94.831 L21.966,90.273 C8.686,80.985 0.82,65.96 0.82,49.673 C0.82,22.362 23.039,0.142 50.348,0.142 C77.661,0.142 99.881,22.362 99.881,49.673 C99.881,66.867 90.932,82.818 76.382,91.819 L76.382,94.832 C79.324,97.303 81.084,100.988 81.084,104.893 C81.084,106.939 80.601,108.958 79.694,110.771 C80.6,112.583 81.084,114.599 81.084,116.642 C81.086,123.872 75.216,129.752 68.001,129.752 L68.001,129.752 Z M50.35,7.565 C27.132,7.565 8.244,26.455 8.244,49.673 C8.244,64.103 15.51,77.372 27.681,85.166 L29.391,86.26 L29.391,98.888 L27.535,99.958 C25.781,100.972 24.691,102.862 24.691,104.892 C24.691,106.198 25.123,107.426 25.939,108.447 L27.795,110.769 L25.936,113.087 C25.122,114.102 24.691,115.332 24.691,116.641 C24.691,119.777 27.233,122.329 30.357,122.329 L68.003,122.329 C71.125,122.329 73.666,119.778 73.666,116.641 C73.666,115.334 73.235,114.106 72.422,113.09 L70.567,110.772 L72.421,108.452 C73.235,107.435 73.666,106.202 73.666,104.891 C73.666,102.865 72.573,100.973 70.815,99.954 L68.962,98.883 L68.962,87.519 L70.862,86.456 C84.185,79.012 92.462,64.916 92.462,49.671 C92.461,26.455 73.569,7.565 50.35,7.565 L50.35,7.565 Z" id="Shape"></path>
                                        </g>
                                    </g>
                                    <g id="Path-1_5_" transform="translate(52.000000, 72.000000)">
                                        <path d="M23.001,63.107 L15.581,62.931 L16.443,26.684 C14.125,27.121 11.818,27.182 9.671,26.653 C6.14,25.783 3.422,23.452 1.812,19.909 C-0.161,15.566 1.231,10.389 1.603,9.18 C2.292,6.227 4.904,1.304 10.607,0.592 C15.211,0.008 18.163,1.646 19.826,3.114 C24.055,6.847 24.178,12.985 24.178,13.673 L24.128,15.746 C26.354,14.488 28.401,13.11 29.941,11.917 L34.496,17.777 C33.68,18.411 29.324,21.712 23.929,24.191 L23.001,63.107 L23.001,63.107 Z M12.467,7.895 C12.184,7.895 11.873,7.915 11.528,7.957 C9.478,8.213 8.828,10.884 8.822,10.912 L8.712,11.321 C8.431,12.194 7.787,15.118 8.569,16.838 C9.43,18.732 10.558,19.226 11.442,19.445 C12.88,19.802 14.683,19.597 16.626,19.044 L16.757,13.586 C16.743,12.802 16.377,9.955 14.9,8.667 C14.66,8.459 14.014,7.895 12.467,7.895 L12.467,7.895 Z" id="Shape"></path>
                                    </g>
                                    <g id="Line_11_" transform="translate(40.000000, 143.000000)">
                                        <rect id="Rectangle-path" x="0.792" y="0.055" width="59.117" height="7.422"></rect>
                                    </g>
                                    <g id="Line_10_" transform="translate(43.000000, 128.000000)">
                                        <rect id="Rectangle-path" x="0.145" y="0.959" width="52.067" height="7.422"></rect>
                                    </g>
                                </g>
                            </g>
                        </g>
                        <g transform="translate(1149.000000, 184.000000)">
                            <g transform="translate(0.000000, 10.000000)" id="Shape" fill="#FFFFFF" sketch:type="MSShapeGroup">
                                <path d="M79.774,61.512 C104.637,61.512 124.112,48.048 124.112,30.857 C124.112,13.669 104.637,0.203 79.774,0.203 C54.914,0.203 35.441,13.669 35.441,30.857 C35.441,48.048 54.913,61.512 79.774,61.512 L79.774,61.512 Z M79.774,9.913 C98.547,9.913 114.402,19.504 114.402,30.858 C114.402,42.213 98.548,51.805 79.774,51.805 C61.005,51.805 45.15,42.214 45.15,30.858 C45.15,19.504 61.005,9.913 79.774,9.913 L79.774,9.913 Z"></path>
                                <path d="M47.664,148.838 L79.776,180.947 L111.887,148.838 L79.776,116.729 L47.664,148.838 L47.664,148.838 Z M79.776,167.223 L61.393,148.838 L79.776,130.455 L98.157,148.838 L79.776,167.223 L79.776,167.223 Z"></path>
                                <path d="M120.325,65.924 L39.226,65.924 L39.226,111.829 L120.325,111.829 L120.325,65.924 L120.325,65.924 Z M110.618,102.122 L48.932,102.122 L48.932,75.632 L110.618,75.632 L110.618,102.122 L110.618,102.122 Z"></path>
                                <path d="M17.873,80.15 L22.485,84.761 L18.641,84.761 C13.828,84.752 9.922,80.837 9.922,76.026 L9.922,43.682 C9.922,38.866 13.844,34.945 18.658,34.945 L33.221,34.945 L33.221,25.237 L18.33,25.237 L18.33,25.254 C8.311,25.431 0.213,33.623 0.213,43.682 L0.213,76.026 C0.213,85.331 7.145,93.026 16.111,94.273 L16.111,94.469 L18.619,94.469 C18.635,94.469 18.644,94.472 18.66,94.472 L18.66,94.469 L22.484,94.469 L17.872,99.082 L22.598,103.804 L36.784,89.616 L22.599,75.43 L17.873,80.15 L17.873,80.15 Z"></path>
                                <path d="M136.073,84.779 L136.073,84.764 L123.126,84.764 L123.126,94.472 L135.745,94.472 C142.05,94.472 142.538,101.159 142.538,103.21 L142.538,135.553 C142.538,137.598 142.05,144.266 135.776,144.287 L129.975,144.287 L134.587,139.676 L129.867,134.957 L115.681,149.141 L129.867,163.329 L134.59,158.606 L129.975,153.997 L135.746,153.997 L135.746,153.999 C135.76,153.999 135.769,153.997 135.785,153.997 L136.353,153.997 L136.353,153.97 C145.74,153.657 152.249,146.183 152.249,135.554 L152.249,103.207 C152.245,92.473 145.61,84.949 136.073,84.779 L136.073,84.779 Z"></path>
                            </g>
                            <g transform="translate(613.000000, 0.000000)" id="Shape" fill="#FFFFFF" sketch:type="MSShapeGroup">
                                <g transform="translate(0.000000, 110.000000)">
                                    <path d="M26.588,3.298 C25.934,2.644 24.875,2.644 24.219,3.298 L15.105,12.414 L5.985,3.298 C5.332,2.644 4.27,2.644 3.619,3.298 C2.966,3.955 2.966,5.014 3.619,5.668 L12.732,14.787 L3.619,23.9 C2.966,24.554 2.966,25.617 3.619,26.271 C3.944,26.597 4.375,26.761 4.806,26.761 C5.234,26.761 5.664,26.597 5.993,26.271 L15.106,17.154 L24.22,26.271 C24.551,26.597 24.982,26.761 25.409,26.761 C25.839,26.761 26.273,26.597 26.598,26.271 C27.252,25.617 27.252,24.554 26.598,23.9 L17.485,14.787 L26.598,5.668 C27.248,5.015 27.248,3.956 26.588,3.298 L26.588,3.298 Z"></path>
                                    <path d="M25.408,29.262 C24.303,29.262 23.258,28.834 22.466,28.053 L15.105,20.692 L7.76,28.04 C6.962,28.831 5.915,29.263 4.805,29.263 C3.688,29.263 2.638,28.829 1.849,28.038 C0.223,26.411 0.223,23.763 1.85,22.136 L9.197,14.789 L1.85,7.437 C0.228,5.813 0.226,3.167 1.845,1.537 C2.635,0.745 3.684,0.309 4.801,0.309 C5.916,0.309 6.965,0.743 7.753,1.532 L15.104,8.88 L22.452,1.531 C23.244,0.741 24.292,0.308 25.405,0.308 C26.519,0.308 27.567,0.742 28.356,1.53 C29.985,3.152 29.993,5.801 28.371,7.432 L21.02,14.788 L28.366,22.133 C29.155,22.922 29.589,23.971 29.589,25.086 C29.589,26.203 29.155,27.252 28.366,28.039 C27.59,28.816 26.511,29.262 25.408,29.262 L25.408,29.262 Z"></path>
                                </g>
                                <g transform="translate(10.000000, 0.000000)">
                                    <path d="M192.776,75.486 C192.936,75.486 193.104,75.461 193.27,75.41 C193.395,75.371 193.503,75.292 193.608,75.225 C193.66,75.193 193.713,75.177 193.758,75.142 C194.004,74.96 194.192,74.721 194.297,74.443 C194.317,74.414 194.342,74.408 194.352,74.386 L200.715,56.912 C201.034,56.041 200.581,55.081 199.717,54.765 C198.84,54.446 197.886,54.896 197.561,55.764 L192.831,68.75 C192.267,67.2 191.653,65.656 191.009,64.125 C189.753,61.162 188.339,58.22 186.802,55.391 C185.281,52.59 183.593,49.815 181.797,47.155 C180.021,44.52 178.084,41.93 176.042,39.461 C174.017,36.999 171.845,34.612 169.599,32.367 C167.335,30.109 164.949,27.943 162.499,25.917 C160.032,23.885 157.442,21.949 154.808,20.172 C152.158,18.376 149.388,16.692 146.569,15.164 C143.734,13.626 140.789,12.213 137.836,10.956 C134.847,9.696 131.762,8.564 128.652,7.597 C125.519,6.618 122.295,5.795 119.076,5.135 C115.806,4.468 112.472,3.958 109.159,3.623 C102.412,2.934 95.471,2.934 88.721,3.623 C85.408,3.958 82.071,4.462 78.8,5.135 C75.582,5.799 72.355,6.625 69.225,7.597 C66.115,8.564 63.027,9.696 60.041,10.956 C57.084,12.213 54.144,13.626 51.308,15.164 C48.494,16.692 45.719,18.376 43.068,20.172 C40.433,21.955 37.843,23.885 35.375,25.923 C32.928,27.942 30.543,30.114 28.281,32.373 C26.035,34.619 23.866,37.005 21.834,39.471 C19.799,41.937 17.859,44.527 16.083,47.161 C14.283,49.822 12.6,52.594 11.074,55.4 C9.541,58.23 8.121,61.174 6.867,64.134 C5.595,67.149 4.463,70.239 3.509,73.321 C3.235,74.204 3.726,75.142 4.613,75.417 C5.507,75.691 6.434,75.2 6.709,74.313 C7.628,71.34 8.726,68.355 9.953,65.445 C11.169,62.574 12.54,59.736 14.023,57.002 C15.497,54.288 17.127,51.608 18.858,49.037 C20.578,46.491 22.454,43.991 24.415,41.601 C26.384,39.225 28.483,36.915 30.648,34.746 C32.831,32.561 35.143,30.465 37.506,28.507 C39.895,26.545 42.397,24.673 44.944,22.947 C47.506,21.215 50.185,19.588 52.906,18.111 C55.646,16.628 58.485,15.256 61.349,14.044 C64.23,12.825 67.218,11.738 70.224,10.803 C73.247,9.859 76.361,9.061 79.47,8.423 C82.628,7.779 85.86,7.281 89.062,6.959 C95.58,6.302 102.297,6.302 108.811,6.959 C112.023,7.281 115.248,7.779 118.406,8.423 C121.526,9.061 124.63,9.859 127.66,10.803 C130.665,11.738 133.644,12.825 136.527,14.044 C139.392,15.256 142.238,16.628 144.978,18.111 C147.702,19.588 150.38,21.221 152.943,22.953 C155.492,24.672 157.992,26.545 160.379,28.507 C162.748,30.465 165.055,32.561 167.24,34.746 C169.406,36.915 171.508,39.225 173.472,41.601 C175.434,43.987 177.306,46.491 179.032,49.037 C180.764,51.614 182.391,54.29 183.859,57.002 C185.341,59.732 186.722,62.575 187.925,65.439 C188.71,67.286 189.408,69.162 190.071,71.043 L175.874,65.873 C175.009,65.554 174.046,66.007 173.727,66.871 C173.408,67.742 173.858,68.702 174.736,69.018 L192.203,75.388 C192.397,75.451 192.59,75.486 192.776,75.486 L192.776,75.486 Z"></path>
                                    <path d="M5.112,77.992 C4.694,77.992 4.279,77.929 3.878,77.806 C2.805,77.474 1.932,76.749 1.412,75.763 C0.891,74.776 0.788,73.645 1.119,72.579 C2.092,69.439 3.25,66.269 4.562,63.162 C5.843,60.137 7.293,57.125 8.874,54.209 C10.445,51.317 12.173,48.476 14.011,45.76 C15.819,43.079 17.802,40.426 19.905,37.879 C21.979,35.362 24.203,32.914 26.512,30.605 C28.854,28.267 31.299,26.043 33.783,23.995 C36.272,21.94 38.925,19.956 41.666,18.101 C44.37,16.269 47.213,14.542 50.115,12.966 C52.992,11.406 56.002,9.956 59.063,8.655 C62.154,7.35 65.322,6.192 68.482,5.21 C71.656,4.224 74.958,3.375 78.295,2.687 C81.604,2.005 85.026,1.484 88.47,1.136 C95.351,0.434 102.53,0.433 109.412,1.136 C112.787,1.477 116.207,1.998 119.575,2.685 C122.934,3.374 126.238,4.224 129.397,5.211 C132.542,6.189 135.708,7.347 138.805,8.652 C141.893,9.966 144.903,11.416 147.76,12.965 C150.644,14.528 153.487,16.256 156.209,18.101 C158.893,19.911 161.545,21.892 164.088,23.986 C166.612,26.074 169.059,28.297 171.363,30.595 C173.694,32.925 175.917,35.372 177.971,37.871 C180.058,40.394 182.043,43.048 183.868,45.755 C185.716,48.492 187.441,51.333 188.997,54.195 C190.324,56.639 191.571,59.179 192.712,61.766 L195.211,54.906 C195.829,53.255 197.404,52.16 199.138,52.16 C199.626,52.16 200.109,52.245 200.571,52.413 C201.623,52.798 202.459,53.567 202.929,54.58 C203.398,55.591 203.445,56.725 203.061,57.77 L196.386,75.96 L196.267,76.056 C196,76.475 195.655,76.845 195.245,77.148 L194.868,77.384 C194.696,77.495 194.398,77.675 194.007,77.796 C193.159,78.056 192.299,78.046 191.429,77.762 L173.878,71.363 C172.831,70.987 171.988,70.218 171.515,69.204 C171.042,68.192 170.994,67.057 171.378,66.007 C171.984,64.365 173.561,63.267 175.302,63.267 C175.793,63.267 176.277,63.353 176.739,63.524 L185.796,66.822 C185.739,66.684 185.682,66.548 185.624,66.413 C184.485,63.703 183.153,60.94 181.661,58.191 C180.252,55.587 178.669,52.976 176.956,50.428 C175.278,47.952 173.454,45.512 171.541,43.186 C169.637,40.883 167.593,38.635 165.471,36.51 C163.353,34.393 161.104,32.347 158.785,30.431 C156.43,28.494 153.991,26.674 151.544,25.023 C149.012,23.311 146.402,21.725 143.786,20.306 C141.094,18.849 138.323,17.516 135.553,16.344 C132.761,15.163 129.856,14.102 126.917,13.188 C123.977,12.272 120.945,11.492 117.904,10.87 C114.773,10.232 111.63,9.752 108.561,9.445 C102.241,8.806 95.632,8.807 89.312,9.445 C86.237,9.754 83.094,10.234 79.969,10.871 C76.906,11.499 73.876,12.279 70.968,13.187 C68.003,14.109 65.095,15.171 62.322,16.344 C59.572,17.508 56.803,18.842 54.094,20.307 C51.443,21.747 48.833,23.331 46.343,25.015 C43.877,26.684 41.437,28.509 39.091,30.436 C36.747,32.378 34.498,34.424 32.414,36.51 C30.306,38.622 28.261,40.871 26.337,43.193 C24.392,45.564 22.569,48.003 20.927,50.433 C19.226,52.96 17.641,55.571 16.218,58.191 C14.762,60.875 13.428,63.642 12.252,66.417 C11.038,69.295 9.975,72.2 9.095,75.048 C8.55,76.81 6.949,77.992 5.112,77.992 L5.112,77.992 Z"></path>
                                </g>
                            </g>
                            <g transform="translate(385.000000, 23.000000)" id="Shape" fill="#FFFFFF" sketch:type="MSShapeGroup">
                                <path d="M35.792,38.964 C33.744,36.914 30.428,36.914 28.381,38.964 L2.177,65.167 C0.129,67.212 0.129,70.532 2.177,72.577 L28.381,98.782 C29.403,99.808 30.744,100.319 32.086,100.319 C33.427,100.319 34.767,99.808 35.792,98.782 C37.841,96.737 37.841,93.421 35.792,91.373 L13.291,68.873 L35.789,46.376 C37.837,44.332 37.837,41.01 35.792,38.964 L35.792,38.964 Z"></path>
                                <path d="M161.572,38.964 C159.524,36.914 156.208,36.914 154.159,38.964 C152.114,41.009 152.114,44.326 154.159,46.374 L176.659,68.874 L154.159,91.371 C152.112,93.421 152.112,96.738 154.159,98.783 C155.184,99.809 156.525,100.32 157.866,100.32 C159.206,100.32 160.547,99.809 161.572,98.783 L187.777,72.58 C189.822,70.535 189.822,67.215 187.777,65.17 L161.572,38.964 L161.572,38.964 Z"></path>
                                <path d="M127.689,4.813 L117.836,1.229 C116.391,0.704 114.882,0.438 113.357,0.438 C107.868,0.438 102.92,3.901 101.041,9.059 L97.46,18.903 C97.46,18.906 97.46,18.908 97.455,18.911 L97.455,18.916 L61.609,117.406 C61.5,117.705 61.464,118.021 61.468,118.336 C61.468,118.389 61.464,118.441 61.468,118.494 C61.47,118.529 61.464,118.564 61.468,118.601 L65.488,153.525 C65.602,154.513 66.263,155.349 67.195,155.689 C67.488,155.794 67.789,155.845 68.091,155.845 C68.75,155.845 69.397,155.595 69.893,155.128 L95.423,130.96 C95.485,130.901 95.528,130.829 95.58,130.767 C95.633,130.708 95.685,130.656 95.729,130.589 C95.875,130.394 96,130.181 96.083,129.95 L131.935,31.46 L131.935,31.457 L131.935,31.455 L135.519,21.608 C136.715,18.319 136.56,14.759 135.085,11.589 C133.597,8.417 130.972,6.01 127.689,4.813 L127.689,4.813 Z M105.966,10.852 C107.094,7.757 110.062,5.675 113.351,5.675 C114.269,5.675 115.171,5.838 116.04,6.154 L125.893,9.738 C127.863,10.454 129.435,11.899 130.326,13.8 C131.213,15.705 131.305,17.838 130.586,19.812 L127.897,27.2 L110.667,20.926 C110.667,20.926 110.667,20.924 110.66,20.924 C110.66,20.924 110.66,20.924 110.658,20.924 L103.276,18.237 L105.966,10.852 L105.966,10.852 Z M92.054,125.697 L87.127,123.904 L121.183,30.336 L126.109,32.129 L92.054,125.697 L92.054,125.697 Z M77.278,120.32 L111.336,26.748 L116.258,28.542 L82.2,122.111 L77.278,120.32 L77.278,120.32 Z M67.427,116.736 L101.484,23.167 L106.408,24.958 L72.353,118.529 L67.427,116.736 L67.427,116.736 Z M67.157,122.217 L73.02,124.35 L73.022,124.35 L82.87,127.932 C82.87,127.932 82.87,127.932 82.87,127.934 L82.873,127.934 L88.736,130.069 L70.092,147.719 L67.157,122.217 L67.157,122.217 Z"></path>
                            </g>
                            <g id="Page-1_4_" transform="translate(193.000000, 7.000000)" fill="#FFFFFF" sketch:type="MSShapeGroup">
                                <g id="Group_4_">
                                    <g id="IDEA_4_">
                                        <g id="Rectangle-2_4_" transform="translate(20.000000, 36.000000)">
                                            <path d="M67.996,130.242 L30.35,130.242 C23.133,130.242 17.262,124.361 17.262,117.133 C17.262,115.086 17.746,113.069 18.653,111.256 C17.747,109.442 17.262,107.426 17.262,105.383 C17.262,101.475 19.02,97.789 21.961,95.322 L21.961,90.763 C8.681,81.475 0.815,66.45 0.815,50.163 C0.815,22.852 23.034,0.632 50.344,0.632 C77.657,0.632 99.877,22.852 99.877,50.163 C99.877,67.357 90.928,83.308 76.378,92.309 L76.378,95.321 C79.32,97.792 81.08,101.477 81.08,105.382 C81.08,107.429 80.597,109.448 79.69,111.261 C80.596,113.074 81.08,115.089 81.08,117.132 C81.081,124.361 75.211,130.242 67.996,130.242 L67.996,130.242 Z M50.345,8.056 C27.126,8.056 8.239,26.946 8.239,50.164 C8.239,64.594 15.504,77.863 27.676,85.657 L29.385,86.752 L29.385,99.379 L27.53,100.449 C25.776,101.463 24.686,103.353 24.686,105.383 C24.686,106.69 25.118,107.918 25.934,108.94 L27.791,111.26 L25.93,113.578 C25.116,114.594 24.686,115.824 24.686,117.133 C24.686,120.27 27.228,122.821 30.352,122.821 L67.998,122.821 C71.12,122.821 73.661,120.27 73.661,117.133 C73.661,115.826 73.23,114.598 72.417,113.582 L70.562,111.264 L72.416,108.946 C73.23,107.928 73.661,106.696 73.661,105.383 C73.661,103.358 72.568,101.465 70.81,100.447 L68.957,99.375 L68.957,88.012 L70.857,86.949 C84.18,79.504 92.457,65.408 92.457,50.164 C92.456,26.945 73.565,8.056 50.345,8.056 L50.345,8.056 Z" id="Shape"></path>
                                        </g>
                                        <g id="Rectangle-4_4_" transform="translate(73.629866, 31.192545) rotate(3.000000) translate(-73.629866, -31.192545) translate(1.629866, 4.192545)">
                                            <g id="Group">
                                                <path d="M67.588,5.59 C67.588,2.995 69.675,0.891 72.292,0.891 C74.886,0.892 76.987,2.979 76.988,5.59 L76.988,19.691 C76.988,22.286 74.901,24.389 72.29,24.39 C69.697,24.389 67.589,22.303 67.588,19.691 L67.588,5.59 L67.588,5.59 Z M105.848,12.687 C107.068,10.396 109.895,9.517 112.204,10.745 C114.496,11.964 115.377,14.792 114.145,17.099 L107.526,29.549 C106.306,31.841 103.481,32.718 101.17,31.491 C98.878,30.272 98.005,27.443 99.231,25.136 L105.848,12.687 L105.848,12.687 Z M136.286,36.718 C138.41,35.23 141.328,35.732 142.83,37.873 C144.318,39.999 143.814,42.919 141.679,44.417 L130.127,52.504 C128.003,53.992 125.08,53.491 123.583,51.35 C122.095,49.224 122.593,46.305 124.736,44.805 L136.286,36.718 L136.286,36.718 Z M2.904,44.417 C0.777,42.928 0.253,40.013 1.75,37.872 C3.236,35.746 6.156,35.218 8.294,36.717 L19.845,44.806 C21.97,46.293 22.498,49.21 20.997,51.35 C19.509,53.477 16.595,54.003 14.455,52.503 L2.904,44.417 L2.904,44.417 Z M30.433,17.1 C29.215,14.809 30.071,11.972 32.376,10.744 C34.671,9.525 37.507,10.38 38.733,12.687 L45.353,25.137 C46.572,27.427 45.716,30.264 43.41,31.493 C41.116,32.71 38.279,31.857 37.053,29.548 L30.433,17.1 L30.433,17.1 Z" id="Shape"></path>
                                            </g>
                                        </g>
                                    </g>
                                    <g id="Path-1_4_" transform="translate(52.000000, 72.000000)">
                                        <path d="M22.996,63.598 L15.576,63.422 L16.438,27.175 C14.12,27.612 11.813,27.673 9.665,27.144 C6.136,26.274 3.417,23.943 1.807,20.4 C-0.166,16.057 1.226,10.88 1.598,9.671 C2.288,6.718 4.899,1.795 10.602,1.083 C15.206,0.499 18.158,2.137 19.821,3.605 C24.05,7.338 24.173,13.476 24.173,14.164 L24.123,16.237 C26.349,14.979 28.396,13.601 29.936,12.408 L34.491,18.268 C33.675,18.902 29.319,22.203 23.924,24.682 L22.996,63.598 L22.996,63.598 Z M12.462,8.386 C12.179,8.386 11.868,8.406 11.523,8.448 C9.474,8.704 8.823,11.375 8.816,11.403 L8.707,11.812 C8.426,12.685 7.783,15.609 8.564,17.329 C9.425,19.223 10.552,19.717 11.437,19.936 C12.875,20.293 14.678,20.088 16.621,19.535 L16.752,14.077 C16.738,13.293 16.372,10.446 14.895,9.158 C14.655,8.95 14.009,8.386 12.462,8.386 L12.462,8.386 Z" id="Shape"></path>
                                    </g>
                                    <g id="Line_9_" transform="translate(40.000000, 143.000000)">
                                        <rect id="Rectangle-path" x="0.788" y="0.545" width="59.116" height="7.424"></rect>
                                    </g>
                                    <g id="Line_8_" transform="translate(43.000000, 129.000000)">
                                        <rect id="Rectangle-path" x="0.14" y="0.449" width="52.067" height="7.424"></rect>
                                    </g>
                                </g>
                            </g>
                        </g>
                        <g transform="translate(1059.000000, 387.000000)">
                            <g transform="translate(0.000000, 9.000000)" id="Shape" fill="#FFFFFF" sketch:type="MSShapeGroup">
                                <path d="M80.065,61.865 C104.928,61.865 124.403,48.4 124.403,31.211 C124.403,14.022 104.928,0.557 80.065,0.557 C55.205,0.557 35.732,14.022 35.732,31.211 C35.732,48.4 55.204,61.865 80.065,61.865 L80.065,61.865 Z M80.065,10.266 C98.838,10.266 114.693,19.858 114.693,31.211 C114.693,42.566 98.839,52.156 80.065,52.156 C61.296,52.156 45.441,42.566 45.441,31.211 C45.441,19.857 61.296,10.266 80.065,10.266 L80.065,10.266 Z"></path>
                                <path d="M120.616,66.277 L39.517,66.277 L39.517,112.181 L120.616,112.181 L120.616,66.277 L120.616,66.277 Z M110.909,102.475 L49.223,102.475 L49.223,75.985 L110.909,75.985 L110.909,102.475 L110.909,102.475 Z"></path>
                                <path d="M18.164,80.502 L22.776,85.113 L18.932,85.113 C14.119,85.105 10.213,81.189 10.213,76.379 L10.213,44.035 C10.213,39.219 14.135,35.299 18.949,35.299 L33.512,35.299 L33.512,25.59 L18.621,25.59 L18.621,25.608 C8.602,25.784 0.504,33.977 0.504,44.036 L0.504,76.38 C0.504,85.685 7.436,93.38 16.402,94.626 L16.402,94.823 L18.91,94.823 C18.926,94.823 18.935,94.825 18.951,94.825 L18.951,94.823 L22.775,94.823 L18.163,99.434 L22.889,104.157 L37.075,89.969 L22.889,75.783 L18.164,80.502 L18.164,80.502 Z"></path>
                                <path d="M136.364,85.131 L136.364,85.117 L123.417,85.117 L123.417,94.824 L136.036,94.824 C142.341,94.824 142.829,101.512 142.829,103.562 L142.829,135.906 C142.829,137.951 142.341,144.619 136.067,144.64 L130.266,144.64 L134.878,140.029 L130.158,135.308 L115.972,149.492 L130.158,163.681 L134.881,158.958 L130.266,154.349 L136.037,154.349 L136.037,154.351 C136.051,154.351 136.06,154.349 136.076,154.349 L136.644,154.349 L136.644,154.32 C146.031,154.007 152.54,146.535 152.54,135.906 L152.54,103.558 C152.536,92.826 145.902,85.303 136.364,85.131 L136.364,85.131 Z"></path>
                            </g>
                            <g transform="translate(614.000000, 0.000000)" id="Shape" fill="#FFFFFF" sketch:type="MSShapeGroup">
                                <g transform="translate(53.000000, 59.000000)">
                                    <path d="M107.244,2.562 L4.77,2.562 C3.848,2.562 3.096,3.312 3.096,4.236 L3.096,106.713 C3.096,107.635 3.848,108.389 4.77,108.389 L107.245,108.389 C108.173,108.389 108.923,107.635 108.923,106.713 L108.923,4.236 C108.922,3.312 108.172,2.562 107.244,2.562 L107.244,2.562 Z M105.572,105.039 L6.445,105.039 L6.445,5.912 L105.572,5.912 L105.572,105.039 L105.572,105.039 Z"></path>
                                    <path d="M107.244,110.889 L4.77,110.889 C2.468,110.889 0.596,109.016 0.596,106.713 L0.596,4.236 C0.596,1.935 2.468,0.062 4.77,0.062 L107.245,0.062 C109.549,0.062 111.423,1.935 111.423,4.236 L111.423,106.713 C111.422,109.016 109.548,110.889 107.244,110.889 L107.244,110.889 Z M8.945,102.539 L103.072,102.539 L103.072,8.412 L8.945,8.412 L8.945,102.539 L8.945,102.539 Z"></path>
                                </g>
                                <g transform="translate(10.000000, 0.000000)">
                                    <path d="M192.844,75.477 C193.004,75.477 193.172,75.452 193.338,75.401 C193.463,75.362 193.571,75.282 193.676,75.215 C193.728,75.182 193.781,75.166 193.826,75.131 C194.072,74.949 194.26,74.711 194.365,74.434 C194.385,74.405 194.41,74.399 194.42,74.375 L200.783,56.902 C201.102,56.031 200.649,55.07 199.785,54.754 C198.908,54.436 197.954,54.885 197.629,55.754 L192.899,68.738 C192.335,67.189 191.721,65.644 191.077,64.113 C189.821,61.15 188.407,58.209 186.87,55.381 C185.349,52.58 183.661,49.805 181.865,47.145 C180.089,44.51 178.152,41.92 176.11,39.45 C174.085,36.989 171.913,34.602 169.667,32.356 C167.403,30.098 165.017,27.932 162.567,25.907 C160.1,23.876 157.51,21.938 154.876,20.161 C152.226,18.366 149.456,16.682 146.637,15.153 C143.802,13.616 140.857,12.204 137.904,10.946 C134.915,9.686 131.83,8.553 128.72,7.587 C125.587,6.608 122.363,5.786 119.144,5.126 C115.874,4.458 112.54,3.948 109.227,3.612 C102.48,2.924 95.539,2.924 88.789,3.612 C85.476,3.948 82.139,4.452 78.868,5.126 C75.65,5.788 72.423,6.614 69.293,7.587 C66.183,8.554 63.095,9.687 60.109,10.946 C57.152,12.204 54.212,13.616 51.376,15.153 C48.562,16.682 45.787,18.366 43.136,20.161 C40.501,21.944 37.911,23.876 35.443,25.913 C32.996,27.933 30.611,30.104 28.349,32.362 C26.103,34.608 23.934,36.995 21.902,39.46 C19.867,41.927 17.927,44.517 16.151,47.151 C14.351,49.811 12.668,52.583 11.142,55.389 C9.609,58.219 8.189,61.164 6.935,64.123 C5.663,67.139 4.531,70.228 3.577,73.311 C3.303,74.194 3.794,75.131 4.681,75.407 C5.575,75.68 6.502,75.19 6.777,74.303 C7.696,71.33 8.794,68.344 10.021,65.434 C11.237,62.565 12.608,59.725 14.091,56.991 C15.565,54.278 17.195,51.598 18.926,49.026 C20.646,46.481 22.522,43.981 24.483,41.59 C26.452,39.215 28.551,36.904 30.716,34.736 C32.899,32.55 35.211,30.455 37.574,28.496 C39.963,26.535 42.465,24.662 45.012,22.935 C47.574,21.205 50.253,19.578 52.974,18.099 C55.714,16.617 58.553,15.245 61.417,14.033 C64.298,12.814 67.286,11.726 70.292,10.793 C73.315,9.848 76.429,9.051 79.538,8.412 C82.696,7.769 85.928,7.271 89.13,6.949 C95.648,6.291 102.365,6.291 108.879,6.949 C112.091,7.271 115.316,7.769 118.474,8.412 C121.594,9.051 124.698,9.848 127.728,10.793 C130.733,11.727 133.712,12.814 136.595,14.033 C139.46,15.246 142.306,16.617 145.046,18.099 C147.77,19.578 150.448,21.21 153.011,22.943 C155.56,24.662 158.06,26.535 160.447,28.496 C162.816,30.455 165.123,32.551 167.308,34.736 C169.474,36.904 171.576,39.215 173.54,41.59 C175.502,43.977 177.374,46.481 179.1,49.026 C180.832,51.604 182.459,54.28 183.927,56.991 C185.409,59.721 186.79,62.565 187.993,65.429 C188.778,67.277 189.476,69.152 190.139,71.034 L175.942,65.862 C175.077,65.544 174.114,65.997 173.795,66.86 C173.476,67.731 173.926,68.692 174.804,69.008 L192.271,75.377 C192.465,75.441 192.658,75.477 192.844,75.477 L192.844,75.477 Z"></path>
                                    <path d="M5.181,77.982 C4.763,77.982 4.348,77.919 3.947,77.796 C2.874,77.464 2.001,76.737 1.481,75.751 C0.96,74.765 0.857,73.634 1.188,72.567 C2.161,69.426 3.319,66.258 4.631,63.149 C5.912,60.124 7.362,57.114 8.943,54.198 C10.514,51.305 12.242,48.464 14.08,45.749 C15.888,43.067 17.871,40.415 19.974,37.868 C22.048,35.35 24.272,32.901 26.581,30.593 C28.923,28.255 31.368,26.032 33.852,23.984 C36.341,21.929 38.994,19.945 41.735,18.089 C44.439,16.259 47.282,14.53 50.184,12.954 C53.061,11.395 56.071,9.944 59.132,8.643 C62.223,7.338 65.391,6.18 68.551,5.198 C71.725,4.212 75.027,3.362 78.364,2.675 C81.673,1.993 85.095,1.472 88.539,1.124 C95.42,0.421 102.599,0.421 109.481,1.124 C112.856,1.466 116.276,1.987 119.644,2.673 C123.003,3.362 126.307,4.212 129.466,5.2 C132.611,6.177 135.777,7.335 138.874,8.641 C141.962,9.954 144.972,11.405 147.829,12.954 C150.713,14.517 153.556,16.245 156.278,18.091 C158.962,19.9 161.614,21.882 164.157,23.976 C166.681,26.064 169.128,28.287 171.432,30.585 C173.763,32.915 175.986,35.362 178.04,37.86 C180.127,40.383 182.112,43.038 183.937,45.745 C185.785,48.483 187.51,51.323 189.066,54.186 C190.393,56.629 191.64,59.17 192.781,61.756 L195.28,54.897 C195.898,53.245 197.473,52.151 199.207,52.151 C199.695,52.151 200.178,52.235 200.64,52.403 C201.692,52.788 202.528,53.557 202.998,54.571 C203.467,55.583 203.514,56.716 203.13,57.76 L196.455,75.951 L196.336,76.047 C196.069,76.465 195.724,76.836 195.314,77.139 L194.937,77.375 C194.765,77.486 194.467,77.666 194.076,77.787 C193.228,78.047 192.368,78.037 191.498,77.752 L173.947,71.354 C172.9,70.977 172.057,70.209 171.584,69.196 C171.111,68.184 171.063,67.048 171.447,65.999 C172.053,64.356 173.63,63.259 175.371,63.259 C175.862,63.259 176.346,63.345 176.808,63.517 L185.865,66.814 C185.808,66.677 185.751,66.541 185.693,66.406 C184.554,63.695 183.222,60.933 181.73,58.183 C180.321,55.579 178.738,52.968 177.025,50.419 C175.347,47.944 173.523,45.505 171.61,43.177 C169.706,40.874 167.662,38.626 165.54,36.501 C163.422,34.384 161.173,32.339 158.854,30.423 C156.499,28.485 154.06,26.665 151.613,25.015 C149.081,23.302 146.471,21.716 143.855,20.298 C141.163,18.841 138.392,17.507 135.622,16.335 C132.83,15.155 129.925,14.093 126.986,13.179 C124.046,12.263 121.014,11.484 117.973,10.861 C114.842,10.224 111.699,9.744 108.63,9.437 C102.31,8.798 95.701,8.798 89.381,9.435 C86.306,9.746 83.163,10.224 80.038,10.863 C76.975,11.49 73.945,12.271 71.037,13.179 C68.072,14.101 65.164,15.161 62.391,16.335 C59.641,17.499 56.872,18.833 54.163,20.298 C51.512,21.737 48.902,23.323 46.412,25.007 C43.946,26.677 41.506,28.501 39.16,30.427 C36.816,32.37 34.567,34.415 32.483,36.501 C30.375,38.614 28.33,40.862 26.406,43.185 C24.461,45.556 22.638,47.994 20.996,50.425 C19.295,52.952 17.71,55.564 16.287,58.183 C14.831,60.867 13.497,63.634 12.321,66.41 C11.107,69.287 10.044,72.193 9.164,75.041 C8.618,76.801 7.018,77.982 5.181,77.982 L5.181,77.982 Z"></path>
                                </g>
                            </g>
                            <g transform="translate(384.000000, 23.000000)" id="Shape" fill="#FFFFFF" sketch:type="MSShapeGroup">
                                <path d="M36.142,39.455 C34.094,37.404 30.778,37.404 28.731,39.455 L2.527,65.658 C0.479,67.703 0.479,71.021 2.527,73.066 L28.731,99.271 C29.753,100.298 31.094,100.808 32.436,100.808 C33.777,100.808 35.117,100.298 36.142,99.271 C38.191,97.226 38.191,93.91 36.142,91.863 L13.641,69.363 L36.139,46.867 C38.187,44.822 38.187,41.5 36.142,39.455 L36.142,39.455 Z"></path>
                                <path d="M161.922,39.455 C159.874,37.404 156.558,37.404 154.509,39.455 C152.464,41.5 152.464,44.816 154.509,46.863 L177.009,69.363 L154.509,91.861 C152.462,93.91 152.462,97.226 154.509,99.271 C155.534,100.298 156.875,100.808 158.216,100.808 C159.556,100.808 160.897,100.298 161.922,99.271 L188.127,73.07 C190.172,71.025 190.172,67.705 188.127,65.66 L161.922,39.455 L161.922,39.455 Z"></path>
                                <path d="M128.038,5.303 L118.185,1.719 C116.74,1.194 115.231,0.928 113.706,0.928 C108.217,0.928 103.269,4.391 101.39,9.549 L97.809,19.393 C97.809,19.397 97.809,19.399 97.804,19.401 L97.804,19.407 L61.958,117.897 C61.849,118.196 61.813,118.512 61.817,118.827 C61.817,118.88 61.813,118.932 61.817,118.985 C61.819,119.02 61.813,119.055 61.817,119.092 L65.837,154.016 C65.951,155.004 66.612,155.84 67.544,156.18 C67.837,156.285 68.138,156.336 68.44,156.336 C69.099,156.336 69.746,156.086 70.242,155.619 L95.772,131.451 C95.834,131.392 95.877,131.32 95.929,131.258 C95.982,131.199 96.034,131.147 96.078,131.08 C96.224,130.885 96.349,130.672 96.432,130.441 L132.284,31.951 L132.284,31.947 L132.284,31.945 L135.868,22.097 C137.064,18.81 136.909,15.249 135.434,12.079 C133.946,8.906 131.321,6.5 128.038,5.303 L128.038,5.303 Z M106.316,11.342 C107.444,8.246 110.412,6.166 113.701,6.166 C114.619,6.166 115.521,6.328 116.39,6.645 L126.243,10.229 C128.213,10.944 129.785,12.389 130.676,14.292 C131.563,16.196 131.655,18.329 130.936,20.304 L128.247,27.691 L111.017,21.418 C111.017,21.418 111.017,21.414 111.01,21.414 C111.01,21.414 111.01,21.414 111.008,21.414 L103.626,18.728 L106.316,11.342 L106.316,11.342 Z M92.403,126.187 L87.476,124.394 L121.532,30.826 L126.458,32.619 L92.403,126.187 L92.403,126.187 Z M77.628,120.811 L111.686,27.239 L116.608,29.034 L82.55,122.602 L77.628,120.811 L77.628,120.811 Z M67.776,117.227 L101.833,23.657 L106.757,25.448 L72.702,119.02 L67.776,117.227 L67.776,117.227 Z M67.507,122.707 L73.37,124.84 L73.372,124.84 L83.22,128.422 C83.22,128.422 83.22,128.422 83.22,128.424 L83.223,128.424 L89.086,130.559 L70.442,148.209 L67.507,122.707 L67.507,122.707 Z"></path>
                            </g>
                            <g id="Page-1_3_" transform="translate(193.000000, 8.000000)" fill="#FFFFFF" sketch:type="MSShapeGroup">
                                <g id="Group_3_">
                                    <g id="IDEA_3_">
                                        <g id="Rectangle-2_3_" transform="translate(20.000000, 36.000000)">
                                            <path d="M67.911,129.67 L30.265,129.67 C23.048,129.67 17.177,123.789 17.177,116.561 C17.177,114.514 17.661,112.497 18.568,110.684 C17.662,108.87 17.177,106.854 17.177,104.811 C17.177,100.903 18.935,97.217 21.876,94.75 L21.876,90.191 C8.596,80.904 0.73,65.877 0.73,49.591 C0.73,22.28 22.949,0.06 50.259,0.06 C77.572,0.06 99.792,22.281 99.792,49.591 C99.792,66.784 90.843,82.736 76.293,91.737 L76.293,94.749 C79.235,97.22 80.995,100.905 80.995,104.81 C80.995,106.857 80.512,108.876 79.605,110.689 C80.511,112.502 80.995,114.517 80.995,116.56 C80.996,123.789 75.126,129.67 67.911,129.67 L67.911,129.67 Z M50.26,7.482 C27.041,7.482 8.154,26.373 8.154,49.591 C8.154,64.021 15.419,77.29 27.591,85.083 L29.3,86.179 L29.3,98.806 L27.445,99.876 C25.691,100.89 24.601,102.78 24.601,104.81 C24.601,106.117 25.033,107.345 25.849,108.367 L27.706,110.687 L25.845,113.005 C25.031,114.021 24.601,115.251 24.601,116.56 C24.601,119.697 27.143,122.248 30.267,122.248 L67.913,122.248 C71.035,122.248 73.576,119.697 73.576,116.56 C73.576,115.253 73.145,114.025 72.332,113.009 L70.477,110.691 L72.331,108.373 C73.145,107.355 73.576,106.123 73.576,104.81 C73.576,102.785 72.483,100.892 70.725,99.874 L68.872,98.802 L68.872,87.439 L70.772,86.376 C84.095,78.931 92.372,64.835 92.372,49.591 C92.371,26.373 73.48,7.482 50.26,7.482 L50.26,7.482 Z" id="Shape"></path>
                                        </g>
                                        <g id="Rectangle-4_3_" transform="translate(73.852254, 30.772948) rotate(3.000000) translate(-73.852254, -30.772948) translate(1.852254, 3.772948)">
                                            <g id="Group">
                                                <path d="M67.273,5.453 C67.273,2.86 69.36,0.755 71.977,0.755 C74.571,0.756 76.672,2.842 76.673,5.453 L76.673,19.554 C76.673,22.149 74.586,24.252 71.975,24.254 C69.382,24.253 67.274,22.165 67.273,19.554 L67.273,5.453 L67.273,5.453 Z M105.533,12.55 C106.753,10.26 109.58,9.381 111.889,10.609 C114.181,11.827 115.062,14.656 113.83,16.963 L107.211,29.412 C105.991,31.704 103.166,32.581 100.855,31.355 C98.563,30.135 97.69,27.306 98.916,24.999 L105.533,12.55 L105.533,12.55 Z M135.971,36.582 C138.095,35.094 141.013,35.594 142.515,37.735 C144.003,39.861 143.499,42.782 141.364,44.281 L129.812,52.367 C127.688,53.855 124.765,53.355 123.268,51.214 C121.78,49.088 122.278,46.169 124.421,44.668 L135.971,36.582 L135.971,36.582 Z M2.589,44.28 C0.462,42.792 -0.062,39.876 1.435,37.736 C2.921,35.61 5.841,35.082 7.979,36.581 L19.53,44.669 C21.655,46.156 22.183,49.073 20.682,51.213 C19.194,53.341 16.28,53.867 14.14,52.366 L2.589,44.28 L2.589,44.28 Z M30.118,16.964 C28.9,14.673 29.756,11.835 32.061,10.607 C34.356,9.388 37.192,10.242 38.418,12.55 L45.038,25 C46.257,27.291 45.401,30.127 43.095,31.357 C40.801,32.574 37.965,31.722 36.738,29.412 L30.118,16.964 L30.118,16.964 Z" id="Shape"></path>
                                            </g>
                                        </g>
                                    </g>
                                    <g id="Path-1_3_" transform="translate(52.000000, 72.000000)">
                                        <path d="M22.911,63.025 L15.491,62.849 L16.353,26.601 C14.035,27.039 11.728,27.099 9.58,26.57 C6.051,25.701 3.332,23.369 1.722,19.828 C-0.251,15.484 1.141,10.308 1.513,9.099 C2.203,6.146 4.814,1.222 10.517,0.509 C15.121,-0.075 18.073,1.564 19.736,3.032 C23.965,6.764 24.088,12.903 24.088,13.591 L24.038,15.663 C26.264,14.405 28.311,13.028 29.851,11.835 L34.406,17.696 C33.59,18.329 29.234,21.63 23.839,24.108 L22.911,63.025 L22.911,63.025 Z M12.377,7.812 C12.094,7.812 11.783,7.832 11.438,7.875 C9.389,8.131 8.738,10.803 8.731,10.83 L8.622,11.238 C8.341,12.111 7.698,15.035 8.479,16.756 C9.34,18.651 10.467,19.145 11.352,19.363 C12.79,19.72 14.593,19.515 16.536,18.961 L16.667,13.504 C16.653,12.719 16.287,9.871 14.81,8.584 C14.57,8.377 13.924,7.812 12.377,7.812 L12.377,7.812 Z" id="Shape"></path>
                                    </g>
                                </g>
                            </g>
                        </g>
                    </g>
                </g>
            </g>
        </g>
    </g>
</svg>