<svg width="78" height="70" viewBox="0 0 78 70" xmlns="http://www.w3.org/2000/svg" xmlns:sketch="http://www.bohemiancoding.com/sketch/ns"><title>competitor analysis</title><desc>Created with Sketch.</desc><g sketch:type="MSShapeGroup" fill="#3E3B3E"><path d="M68.355 44.731c-.155 0-.313-.042-.456-.131-.407-.253-.532-.788-.279-1.194.524-.848.804-1.822.804-2.824 0-2.013-1.114-3.836-2.903-4.76-.427-.22-.594-.744-.373-1.17.22-.425.742-.592 1.169-.373 2.371 1.222 3.844 3.638 3.844 6.304 0 1.325-.37 2.618-1.065 3.739-.165.264-.449.409-.741.409zM14.443 37.289c-1.583 0-2.872-1.289-2.872-2.873v-8.912c0-1.583 1.289-2.872 2.872-2.872s2.872 1.289 2.872 2.872v8.912c0 1.584-1.288 2.873-2.872 2.873zm0-13.157c-.756 0-1.372.616-1.372 1.372v8.912c0 .757.616 1.373 1.372 1.373.756 0 1.372-.616 1.372-1.373v-8.912c0-.756-.615-1.372-1.372-1.372zM21.149 37.289c-1.585 0-2.874-1.289-2.874-2.873v-12.73c0-1.584 1.289-2.873 2.874-2.873 1.583 0 2.872 1.289 2.872 2.873v12.73c0 1.584-1.288 2.873-2.872 2.873zm0-16.976c-.758 0-1.374.616-1.374 1.373v12.73c0 .757.616 1.373 1.374 1.373.756 0 1.372-.616 1.372-1.373v-12.73c0-.757-.615-1.373-1.372-1.373zM47.967 37.289c-1.583 0-2.871-1.289-2.871-2.873v-4.243c0-1.583 1.288-2.872 2.871-2.872s2.871 1.289 2.871 2.872v4.243c0 1.584-1.288 2.873-2.871 2.873zm0-8.488c-.756 0-1.371.616-1.371 1.372v4.243c0 .757.615 1.373 1.371 1.373s1.371-.616 1.371-1.373v-4.243c0-.756-.615-1.372-1.371-1.372zM27.854 37.289c-1.583 0-2.872-1.289-2.872-2.873v-21.219c0-1.583 1.289-2.872 2.872-2.872s2.871 1.288 2.871 2.872v21.219c0 1.584-1.288 2.873-2.871 2.873zm0-25.463c-.756 0-1.372.615-1.372 1.372v21.219c0 .757.616 1.373 1.372 1.373.756 0 1.371-.616 1.371-1.373v-21.22c0-.756-.616-1.371-1.371-1.371zM34.559 37.289c-1.583 0-2.872-1.289-2.872-2.873v-12.73c0-1.584 1.289-2.873 2.872-2.873s2.871 1.289 2.871 2.873v12.73c0 1.584-1.288 2.873-2.871 2.873zm0-16.976c-.756 0-1.372.616-1.372 1.373v12.73c0 .757.616 1.373 1.372 1.373.756 0 1.371-.616 1.371-1.373v-12.73c0-.757-.616-1.373-1.371-1.373zM41.263 37.289c-1.583 0-2.871-1.289-2.871-2.873v-16.975c0-1.583 1.288-2.872 2.871-2.872s2.871 1.288 2.871 2.872v16.975c0 1.584-1.288 2.873-2.871 2.873zm0-21.219c-.756 0-1.371.615-1.371 1.372v16.975c0 .757.615 1.373 1.371 1.373s1.371-.616 1.371-1.373v-16.976c0-.756-.615-1.371-1.371-1.371z" id="Shape"/><g><path d="M71.262 52.626c3.946-2.706 6.27-7.25 6.27-12.041 0-4.893-2.531-9.371-6.531-12.09v-25.389c-.001-1.92-1.367-3.106-3.287-3.106h-64.53c-1.916 0-3.184 1.186-3.184 3.106v42.192c0 1.922 1.268 3.702 3.184 3.702h24.891l-5.414 5.302c-1.419 1.422-1.257 2.628-1.034 3.167.223.537.896 1.531 2.904 1.531h21.844c2.008 0 2.681-1.051 2.903-1.59.222-.539.382-1.619-1.042-3.035l-5.411-5.375h8.217c2.649 4 6.938 6.126 11.636 6.25l3.226 10.949c.553 1.896 2.318 3.194 4.295 3.194.43 0 .852-.074 1.256-.193 2.367-.702 3.729-3.201 3.037-5.562l-3.23-11.012zm-24.438 3.092c.512.509.606.929.614.966-.046.058-.344.316-1.063.316h-21.844c-.721 0-1.02-.312-1.052-.333-.007-.075.086-.368.596-.878l8.829-8.789h-29.72c-.813 0-1.184-.883-1.184-1.701v-42.193c0-.817.371-1.106 1.184-1.106h64.53c.817 0 1.286.289 1.286 1.106v24.295c-1-.485-2-.816-3-1.005v-21.808l-61 .091v39.228l44.075.021c.3 1.086.557 2.073.919 3.073h-11.998l8.828 8.717zm1.685-15.131c0 .41.185.822.219 1.231l-41.728.084v-35.226l57-.084v19.471c0-.031-.66-.047-1.047-.047-8.027 0-14.444 6.536-14.444 14.571zm22.378 26.682c-.22.064-.451.098-.688.098-1.093 0-2.069-.732-2.375-1.782l-3.666-12.506-.809.063-.213.006c-4.334.034-8.362-2.18-10.694-5.879-.173-.331-1.339-2.608-1.767-4.639-.109-.672-.166-1.358-.166-2.042 0-6.932 5.635-12.571 12.561-12.571.662 0 1.331.054 1.99.16.253.053 3.388.729 4.926 1.975l.101.036c3.471 2.348 5.544 6.188 5.544 10.399 0 4.421-2.265 8.441-6.059 10.753l-.655.398 3.655 12.458c.383 1.304-.374 2.684-1.685 3.073zM73.29 40.587c0-2.356-.823-4.658-2.318-6.478-1.407-1.718-3.363-2.949-5.497-3.462-.772-.193-1.581-.292-2.405-.292-5.635 0-10.22 4.589-10.22 10.229 0 .828.101 1.658.3 2.477.549 2.174 1.812 4.13 3.547 5.5 1.795 1.446 4.059 2.243 6.373 2.243.465 0 .918-.029 1.351-.087 1.057-.145 2.066-.442 3.001-.885 1.048-.496 1.999-1.162 2.828-1.981 1.96-1.939 3.04-4.519 3.04-7.264zm-6.726 7.438c-.749.355-1.562.595-2.412.71-.343.046-.707.069-1.083.069-1.859 0-3.678-.64-5.126-1.807-1.399-1.104-2.413-2.677-2.853-4.419-.16-.655-.241-1.326-.241-1.994 0-4.538 3.688-8.229 8.22-8.229.66 0 1.306.078 1.929.234 1.746.42 3.277 1.384 4.428 2.788 1.22 1.486 1.864 3.287 1.864 5.209 0 2.207-.869 4.282-2.447 5.843-.667.66-1.434 1.197-2.279 1.596z"/></g></g></svg>