<?xml version="1.0" encoding="UTF-8" standalone="no"?>
<svg width="328px" height="484px" viewBox="0 0 328 484" version="1.1" xmlns="http://www.w3.org/2000/svg" xmlns:xlink="http://www.w3.org/1999/xlink" xmlns:sketch="http://www.bohemiancoding.com/sketch/ns">
    <!-- Generator: Sketch 3.3.2 (12043) - http://www.bohemiancoding.com/sketch -->
    <title>image-sprint-info</title>
    <desc>Created with Sketch.</desc>
    <defs></defs>
    <g id="Page-1" stroke="none" stroke-width="1" fill="none" fill-rule="evenodd" sketch:type="MSPage">
        <g id="image-sprint-info" sketch:type="MSLayerGroup" transform="translate(5.000000, 2.000000)">
            <g id="Group" sketch:type="MSShapeGroup">
                <path d="M176.5,273.5 C242.774,273.5 296.5,219.774 296.5,153.5 C296.5,87.226 242.774,33.5 176.5,33.5 C110.226,33.5 56.5,87.226 56.5,153.5 C56.5,219.774 110.226,273.5 176.5,273.5 L176.5,273.5 Z" id="Oval" fill="#88CAEF"></path>
                <circle id="Oval" opacity="0.2" fill="#FFFFFF" cx="75.5" cy="322.5" r="50"></circle>
                <path d="M168.724,0.715 C101.861,0.715 44.976,44.184 24.794,104.335 L0.757,104.335 L44.366,161.656 L87.975,104.335 L66.795,104.335 C84.896,66.184 123.763,39.721 168.723,39.721 C230.91,39.721 281.502,90.315 281.502,152.5 C281.502,214.688 230.909,265.28 168.723,265.28 C109.786,265.28 61.295,219.827 56.385,162.139 L44.366,177.938 L17.285,142.344 C17.063,145.7 16.938,149.087 16.938,152.499 C16.938,236.194 85.028,304.285 168.723,304.285 C252.417,304.285 320.509,236.194 320.509,152.499 C320.51,68.806 252.418,0.715 168.724,0.715 L168.724,0.715 Z" id="Shape" stroke="#81C4ED" stroke-width="5" fill="#FFFFFF"></path>
                <g id="Shape" transform="translate(4.000000, 261.000000)">
                    <path d="M72.464,120.9 C40.057,120.9 13.692,94.536 13.692,62.129 C13.692,60.865 13.737,59.543 13.826,58.199 L14.133,53.579 L5.15,41.772 L17.336,41.772 C25.857,18.719 47.786,3.357 72.464,3.357 C104.87,3.357 131.235,29.722 131.235,62.128 C131.235,94.534 104.87,120.9 72.464,120.9 L72.464,120.9 Z M33.307,65.491 C35.022,85.649 52.222,101.439 72.464,101.439 C94.139,101.439 111.774,83.805 111.774,62.129 C111.774,40.453 94.14,22.818 72.464,22.818 C58.729,22.818 45.943,30.14 38.863,41.772 L47.571,41.772 L32.927,61.02 L33.307,65.491 L33.307,65.491 Z" fill="#FFFFFF"></path>
                    <path d="M72.464,5.858 C103.491,5.858 128.735,31.101 128.735,62.129 C128.735,93.157 103.491,118.4 72.464,118.4 C41.435,118.4 16.192,93.158 16.192,62.129 C16.192,60.862 16.238,59.608 16.321,58.364 L26.361,71.558 L30.817,65.702 C32.637,87.089 50.615,103.938 72.465,103.938 C95.519,103.938 114.275,85.182 114.275,62.128 C114.275,39.074 95.52,20.317 72.465,20.317 C55.797,20.317 41.387,30.127 34.677,44.271 L42.528,44.271 L26.361,65.521 L10.194,44.271 L19.105,44.271 C26.586,21.974 47.676,5.858 72.464,5.858 L72.464,5.858 Z M72.464,0.858 C47.322,0.858 24.919,16.151 15.621,39.273 L0.108,39.273 L6.215,47.3 L11.577,54.348 L11.333,58.034 C11.24,59.433 11.193,60.811 11.193,62.13 C11.193,95.915 38.679,123.401 72.465,123.401 C106.25,123.401 133.736,95.916 133.736,62.13 C133.736,28.344 106.249,0.858 72.464,0.858 L72.464,0.858 Z M43.653,39.273 C50.562,30.608 61.171,25.319 72.464,25.319 C92.761,25.319 109.274,41.832 109.274,62.13 C109.274,82.427 92.761,98.94 72.464,98.94 C53.51,98.94 37.404,84.155 35.798,65.28 L35.499,61.77 L46.507,47.301 L52.614,39.274 L43.653,39.274 L43.653,39.273 L43.653,39.273 Z" fill="#81C4ED"></path>
                </g>
            </g>
            <g id="Group" transform="translate(138.000000, 420.000000)" sketch:type="MSShapeGroup">
                <circle id="Oval" fill="#FFFFFF" cx="31" cy="31" r="31"></circle>
                <path d="M30.737,55.119 C17.478,55.119 6.69,44.332 6.69,31.073 C6.69,17.814 17.478,7.027 30.737,7.027 C35.104,7.027 39.382,8.211 43.11,10.45 C43.774,10.851 43.989,11.717 43.59,12.38 C43.202,13.021 42.299,13.245 41.66,12.86 C38.373,10.883 34.596,9.839 30.737,9.839 C19.029,9.839 9.503,19.365 9.503,31.073 C9.503,42.782 19.029,52.307 30.737,52.307 C42.445,52.307 51.97,42.782 51.97,31.073 C51.97,26.754 50.625,22.484 48.166,18.945 L30.81,40.372 C30.57,40.671 30.211,40.859 29.827,40.889 L29.713,40.894 C29.372,40.894 29.042,40.768 28.783,40.539 L19.41,32.146 C18.833,31.629 18.784,30.739 19.301,30.161 C19.802,29.603 20.732,29.553 21.287,30.052 L29.555,37.456 L47.109,15.783 C47.372,15.456 47.766,15.265 48.191,15.261 C48.625,15.261 49.02,15.449 49.288,15.775 C52.832,20.065 54.784,25.499 54.784,31.074 C54.783,44.332 43.996,55.119 30.737,55.119 L30.737,55.119 Z" id="Shape" fill="#81C4ED"></path>
            </g>
            <path d="M137.564,124.192 C140.46,124.192 141.932,122.496 141.932,119.84 L141.932,113.328 L140.588,113.328 L140.588,119.824 C140.588,121.776 139.532,123.008 137.564,123.008 C135.596,123.008 134.556,121.776 134.556,119.824 L134.556,113.328 L133.212,113.328 L133.212,119.856 C133.212,122.48 134.684,124.192 137.564,124.192 L137.564,124.192 Z M153.42,124 L149.26,118.512 L153.18,113.328 L151.548,113.328 L148.396,117.584 L145.228,113.328 L143.612,113.328 L147.532,118.528 L143.372,124 L144.988,124 L148.396,119.456 L151.804,124 L153.42,124 L153.42,124 Z M162.652,124 C165.98,124 168.124,121.712 168.124,118.672 C168.124,115.648 165.98,113.328 162.652,113.328 L159.004,113.328 L159.004,124 L162.652,124 L162.652,124 Z M162.652,122.816 L160.332,122.816 L160.332,114.512 L162.652,114.512 C165.292,114.512 166.748,116.368 166.748,118.672 C166.748,120.96 165.244,122.816 162.652,122.816 L162.652,122.816 Z M173.66,124.192 C174.908,124.192 175.948,123.76 176.732,122.992 L176.156,122.208 C175.532,122.848 174.652,123.2 173.756,123.2 C172.092,123.2 171.084,121.984 170.988,120.528 L177.228,120.528 L177.228,120.224 C177.228,117.904 175.852,116.08 173.516,116.08 C171.308,116.08 169.708,117.888 169.708,120.128 C169.708,122.544 171.356,124.192 173.66,124.192 L173.66,124.192 Z M176.044,119.632 L170.972,119.632 C171.036,118.464 171.852,117.072 173.5,117.072 C175.26,117.072 176.028,118.496 176.044,119.632 L176.044,119.632 Z M181.628,124.192 C183.612,124.192 184.652,123.152 184.652,121.856 C184.652,118.848 179.868,119.952 179.868,118.272 C179.868,117.584 180.524,117.056 181.58,117.056 C182.588,117.056 183.42,117.472 183.884,118.032 L184.444,117.2 C183.836,116.576 182.908,116.08 181.58,116.08 C179.74,116.08 178.716,117.088 178.716,118.304 C178.716,121.168 183.5,120.016 183.5,121.888 C183.5,122.656 182.844,123.216 181.66,123.216 C180.604,123.216 179.628,122.704 179.116,122.112 L178.508,122.976 C179.292,123.792 180.348,124.192 181.628,124.192 L181.628,124.192 Z M187.212,115.168 C187.66,115.168 188.012,114.816 188.012,114.368 C188.012,113.92 187.66,113.552 187.212,113.552 C186.764,113.552 186.396,113.92 186.396,114.368 C186.396,114.816 186.764,115.168 187.212,115.168 L187.212,115.168 Z M187.804,124 L187.804,116.272 L186.604,116.272 L186.604,124 L187.804,124 L187.804,124 Z M193.308,127.136 C195.196,127.136 197.004,126.336 197.004,123.888 L197.004,116.272 L195.804,116.272 L195.804,117.44 C195.18,116.592 194.236,116.08 193.196,116.08 C191.164,116.08 189.756,117.616 189.756,120.096 C189.756,122.592 191.18,124.096 193.196,124.096 C194.284,124.096 195.228,123.504 195.804,122.72 L195.804,123.888 C195.804,125.52 194.588,126.144 193.308,126.144 C192.204,126.144 191.436,125.856 190.796,125.104 L190.188,125.968 C191.116,126.88 192.012,127.136 193.308,127.136 L193.308,127.136 Z M193.5,123.024 C191.932,123.024 191.004,121.792 191.004,120.096 C191.004,118.384 191.932,117.152 193.5,117.152 C194.444,117.152 195.372,117.728 195.804,118.384 L195.804,121.776 C195.372,122.448 194.444,123.024 193.5,123.024 L193.5,123.024 Z M205.82,124 L205.82,118.576 C205.82,116.896 204.972,116.08 203.372,116.08 C202.204,116.08 201.148,116.736 200.604,117.392 L200.604,116.272 L199.404,116.272 L199.404,124 L200.604,124 L200.604,118.352 C201.068,117.728 201.948,117.152 202.892,117.152 C203.932,117.152 204.636,117.568 204.636,118.944 L204.636,124 L205.82,124 L205.82,124 Z M127.668,146 L131.956,135.328 L130.436,135.328 L126.836,144.544 L123.236,135.328 L121.716,135.328 L126.02,146 L127.668,146 L127.668,146 Z M133.908,137.168 C134.356,137.168 134.708,136.816 134.708,136.368 C134.708,135.92 134.356,135.552 133.908,135.552 C133.46,135.552 133.092,135.92 133.092,136.368 C133.092,136.816 133.46,137.168 133.908,137.168 L133.908,137.168 Z M134.5,146 L134.5,138.272 L133.3,138.272 L133.3,146 L134.5,146 L134.5,146 Z M139.364,146.192 C141.348,146.192 142.388,145.152 142.388,143.856 C142.388,140.848 137.604,141.952 137.604,140.272 C137.604,139.584 138.26,139.056 139.316,139.056 C140.324,139.056 141.156,139.472 141.62,140.032 L142.18,139.2 C141.572,138.576 140.644,138.08 139.316,138.08 C137.476,138.08 136.452,139.088 136.452,140.304 C136.452,143.168 141.236,142.016 141.236,143.888 C141.236,144.656 140.58,145.216 139.396,145.216 C138.34,145.216 137.364,144.704 136.852,144.112 L136.244,144.976 C137.028,145.792 138.084,146.192 139.364,146.192 L139.364,146.192 Z M150.756,146 L150.756,138.272 L149.556,138.272 L149.556,143.952 C149.108,144.576 148.212,145.12 147.284,145.12 C146.228,145.12 145.54,144.72 145.54,143.36 L145.54,138.272 L144.34,138.272 L144.34,143.728 C144.34,145.392 145.188,146.192 146.804,146.192 C147.956,146.192 148.964,145.584 149.556,144.912 L149.556,146 L150.756,146 L150.756,146 Z M159.188,146 L159.188,140.688 C159.188,138.816 157.844,138.08 156.196,138.08 C154.932,138.08 153.94,138.496 153.108,139.36 L153.668,140.192 C154.356,139.44 155.108,139.12 156.036,139.12 C157.156,139.12 157.988,139.712 157.988,140.736 L157.988,142.128 C157.364,141.424 156.484,141.088 155.428,141.088 C154.116,141.088 152.74,141.888 152.74,143.632 C152.74,145.312 154.132,146.192 155.428,146.192 C156.468,146.192 157.364,145.824 157.988,145.12 L157.988,146 L159.188,146 L159.188,146 Z M155.876,145.328 C154.74,145.328 153.956,144.624 153.956,143.632 C153.956,142.656 154.74,141.952 155.876,141.952 C156.708,141.952 157.524,142.272 157.988,142.896 L157.988,144.368 C157.524,145.008 156.708,145.328 155.876,145.328 L155.876,145.328 Z M162.804,146 L162.804,135.328 L161.604,135.328 L161.604,146 L162.804,146 L162.804,146 Z M173.044,146 C176.372,146 178.516,143.712 178.516,140.672 C178.516,137.648 176.372,135.328 173.044,135.328 L169.396,135.328 L169.396,146 L173.044,146 L173.044,146 Z M173.044,144.816 L170.724,144.816 L170.724,136.512 L173.044,136.512 C175.684,136.512 177.14,138.368 177.14,140.672 C177.14,142.96 175.636,144.816 173.044,144.816 L173.044,144.816 Z M184.052,146.192 C185.3,146.192 186.34,145.76 187.124,144.992 L186.548,144.208 C185.924,144.848 185.044,145.2 184.148,145.2 C182.484,145.2 181.476,143.984 181.38,142.528 L187.62,142.528 L187.62,142.224 C187.62,139.904 186.244,138.08 183.908,138.08 C181.7,138.08 180.1,139.888 180.1,142.128 C180.1,144.544 181.748,146.192 184.052,146.192 L184.052,146.192 Z M186.436,141.632 L181.364,141.632 C181.428,140.464 182.244,139.072 183.892,139.072 C185.652,139.072 186.42,140.496 186.436,141.632 L186.436,141.632 Z M192.02,146.192 C194.004,146.192 195.044,145.152 195.044,143.856 C195.044,140.848 190.26,141.952 190.26,140.272 C190.26,139.584 190.916,139.056 191.972,139.056 C192.98,139.056 193.812,139.472 194.276,140.032 L194.836,139.2 C194.228,138.576 193.3,138.08 191.972,138.08 C190.132,138.08 189.108,139.088 189.108,140.304 C189.108,143.168 193.892,142.016 193.892,143.888 C193.892,144.656 193.236,145.216 192.052,145.216 C190.996,145.216 190.02,144.704 189.508,144.112 L188.9,144.976 C189.684,145.792 190.74,146.192 192.02,146.192 L192.02,146.192 Z M197.604,137.168 C198.052,137.168 198.404,136.816 198.404,136.368 C198.404,135.92 198.052,135.552 197.604,135.552 C197.156,135.552 196.788,135.92 196.788,136.368 C196.788,136.816 197.156,137.168 197.604,137.168 L197.604,137.168 Z M198.196,146 L198.196,138.272 L196.996,138.272 L196.996,146 L198.196,146 L198.196,146 Z M203.7,149.136 C205.588,149.136 207.396,148.336 207.396,145.888 L207.396,138.272 L206.196,138.272 L206.196,139.44 C205.572,138.592 204.628,138.08 203.588,138.08 C201.556,138.08 200.148,139.616 200.148,142.096 C200.148,144.592 201.572,146.096 203.588,146.096 C204.676,146.096 205.62,145.504 206.196,144.72 L206.196,145.888 C206.196,147.52 204.98,148.144 203.7,148.144 C202.596,148.144 201.828,147.856 201.188,147.104 L200.58,147.968 C201.508,148.88 202.404,149.136 203.7,149.136 L203.7,149.136 Z M203.892,145.024 C202.324,145.024 201.396,143.792 201.396,142.096 C201.396,140.384 202.324,139.152 203.892,139.152 C204.836,139.152 205.764,139.728 206.196,140.384 L206.196,143.776 C205.764,144.448 204.836,145.024 203.892,145.024 L203.892,145.024 Z M216.212,146 L216.212,140.576 C216.212,138.896 215.364,138.08 213.764,138.08 C212.596,138.08 211.54,138.736 210.996,139.392 L210.996,138.272 L209.796,138.272 L209.796,146 L210.996,146 L210.996,140.352 C211.46,139.728 212.34,139.152 213.284,139.152 C214.324,139.152 215.028,139.568 215.028,140.944 L215.028,146 L216.212,146 L216.212,146 Z M98.492,168.192 C100.38,168.192 101.66,167.296 102.556,166.064 L101.436,165.456 C100.828,166.352 99.708,167.008 98.492,167.008 C96.156,167.008 94.38,165.2 94.38,162.672 C94.38,160.112 96.156,158.336 98.492,158.336 C99.708,158.336 100.828,158.976 101.436,159.888 L102.54,159.264 C101.692,158.048 100.38,157.152 98.492,157.152 C95.42,157.152 93.004,159.392 93.004,162.672 C93.004,165.952 95.42,168.192 98.492,168.192 L98.492,168.192 Z M107.58,168.192 C109.932,168.192 111.404,166.368 111.404,164.128 C111.404,161.888 109.932,160.08 107.58,160.08 C105.228,160.08 103.756,161.888 103.756,164.128 C103.756,166.368 105.228,168.192 107.58,168.192 L107.58,168.192 Z M107.58,167.12 C105.932,167.12 105.02,165.712 105.02,164.128 C105.02,162.56 105.932,161.152 107.58,161.152 C109.228,161.152 110.14,162.56 110.14,164.128 C110.14,165.712 109.228,167.12 107.58,167.12 L107.58,167.12 Z M119.772,168 L119.772,162.576 C119.772,160.896 118.924,160.08 117.324,160.08 C116.156,160.08 115.1,160.736 114.556,161.392 L114.556,160.272 L113.356,160.272 L113.356,168 L114.556,168 L114.556,162.352 C115.02,161.728 115.9,161.152 116.844,161.152 C117.884,161.152 118.588,161.568 118.588,162.944 L118.588,168 L119.772,168 L119.772,168 Z M124.156,168.192 C124.844,168.192 125.276,167.984 125.58,167.696 L125.228,166.784 C125.068,166.96 124.764,167.12 124.412,167.12 C123.9,167.12 123.644,166.704 123.644,166.128 L123.644,161.328 L125.212,161.328 L125.212,160.272 L123.644,160.272 L123.644,158.16 L122.428,158.16 L122.428,160.272 L121.148,160.272 L121.148,161.328 L122.428,161.328 L122.428,166.384 C122.428,167.536 123.004,168.192 124.156,168.192 L124.156,168.192 Z M130.396,168.192 C131.644,168.192 132.684,167.76 133.468,166.992 L132.892,166.208 C132.268,166.848 131.388,167.2 130.492,167.2 C128.828,167.2 127.82,165.984 127.724,164.528 L133.964,164.528 L133.964,164.224 C133.964,161.904 132.588,160.08 130.252,160.08 C128.044,160.08 126.444,161.888 126.444,164.128 C126.444,166.544 128.092,168.192 130.396,168.192 L130.396,168.192 Z M132.78,163.632 L127.708,163.632 C127.772,162.464 128.588,161.072 130.236,161.072 C131.996,161.072 132.764,162.496 132.78,163.632 L132.78,163.632 Z M142.316,168 L142.316,162.576 C142.316,160.896 141.468,160.08 139.868,160.08 C138.7,160.08 137.644,160.736 137.1,161.392 L137.1,160.272 L135.9,160.272 L135.9,168 L137.1,168 L137.1,162.352 C137.564,161.728 138.444,161.152 139.388,161.152 C140.428,161.152 141.132,161.568 141.132,162.944 L141.132,168 L142.316,168 L142.316,168 Z M146.7,168.192 C147.388,168.192 147.82,167.984 148.124,167.696 L147.772,166.784 C147.612,166.96 147.308,167.12 146.956,167.12 C146.444,167.12 146.188,166.704 146.188,166.128 L146.188,161.328 L147.756,161.328 L147.756,160.272 L146.188,160.272 L146.188,158.16 L144.972,158.16 L144.972,160.272 L143.692,160.272 L143.692,161.328 L144.972,161.328 L144.972,166.384 C144.972,167.536 145.548,168.192 146.7,168.192 L146.7,168.192 Z M157.276,168 C160.604,168 162.748,165.712 162.748,162.672 C162.748,159.648 160.604,157.328 157.276,157.328 L153.628,157.328 L153.628,168 L157.276,168 L157.276,168 Z M157.276,166.816 L154.956,166.816 L154.956,158.512 L157.276,158.512 C159.916,158.512 161.372,160.368 161.372,162.672 C161.372,164.96 159.868,166.816 157.276,166.816 L157.276,166.816 Z M168.284,168.192 C169.532,168.192 170.572,167.76 171.356,166.992 L170.78,166.208 C170.156,166.848 169.276,167.2 168.38,167.2 C166.716,167.2 165.708,165.984 165.612,164.528 L171.852,164.528 L171.852,164.224 C171.852,161.904 170.476,160.08 168.14,160.08 C165.932,160.08 164.332,161.888 164.332,164.128 C164.332,166.544 165.98,168.192 168.284,168.192 L168.284,168.192 Z M170.668,163.632 L165.596,163.632 C165.66,162.464 166.476,161.072 168.124,161.072 C169.884,161.072 170.652,162.496 170.668,163.632 L170.668,163.632 Z M177.164,168 L180.38,160.272 L179.084,160.272 L176.508,166.608 L173.948,160.272 L172.636,160.272 L175.852,168 L177.164,168 L177.164,168 Z M185.132,168.192 C186.38,168.192 187.42,167.76 188.204,166.992 L187.628,166.208 C187.004,166.848 186.124,167.2 185.228,167.2 C183.564,167.2 182.556,165.984 182.46,164.528 L188.7,164.528 L188.7,164.224 C188.7,161.904 187.324,160.08 184.988,160.08 C182.78,160.08 181.18,161.888 181.18,164.128 C181.18,166.544 182.828,168.192 185.132,168.192 L185.132,168.192 Z M187.516,163.632 L182.444,163.632 C182.508,162.464 183.324,161.072 184.972,161.072 C186.732,161.072 187.5,162.496 187.516,163.632 L187.516,163.632 Z M191.836,168 L191.836,157.328 L190.636,157.328 L190.636,168 L191.836,168 L191.836,168 Z M197.612,168.192 C199.964,168.192 201.436,166.368 201.436,164.128 C201.436,161.888 199.964,160.08 197.612,160.08 C195.26,160.08 193.788,161.888 193.788,164.128 C193.788,166.368 195.26,168.192 197.612,168.192 L197.612,168.192 Z M197.612,167.12 C195.964,167.12 195.052,165.712 195.052,164.128 C195.052,162.56 195.964,161.152 197.612,161.152 C199.26,161.152 200.172,162.56 200.172,164.128 C200.172,165.712 199.26,167.12 197.612,167.12 L197.612,167.12 Z M207.196,168.192 C209.228,168.192 210.636,166.624 210.636,164.128 C210.636,161.616 209.228,160.08 207.196,160.08 C206.108,160.08 205.148,160.64 204.588,161.424 L204.588,160.272 L203.388,160.272 L203.388,170.944 L204.588,170.944 L204.588,166.832 C205.228,167.68 206.14,168.192 207.196,168.192 L207.196,168.192 Z M206.892,167.12 C205.948,167.12 205.004,166.544 204.588,165.872 L204.588,162.384 C205.004,161.712 205.948,161.152 206.892,161.152 C208.444,161.152 209.372,162.416 209.372,164.128 C209.372,165.84 208.444,167.12 206.892,167.12 L206.892,167.12 Z M223.068,168 L223.068,162.416 C223.068,160.864 222.316,160.08 220.908,160.08 C219.788,160.08 218.748,160.816 218.316,161.52 C218.092,160.72 217.42,160.08 216.252,160.08 C215.1,160.08 214.076,160.896 213.74,161.392 L213.74,160.272 L212.54,160.272 L212.54,168 L213.74,168 L213.74,162.352 C214.156,161.728 214.988,161.152 215.772,161.152 C216.796,161.152 217.196,161.776 217.196,162.752 L217.196,168 L218.396,168 L218.396,162.336 C218.796,161.712 219.644,161.152 220.444,161.152 C221.452,161.152 221.868,161.776 221.868,162.752 L221.868,168 L223.068,168 L223.068,168 Z M228.972,168.192 C230.22,168.192 231.26,167.76 232.044,166.992 L231.468,166.208 C230.844,166.848 229.964,167.2 229.068,167.2 C227.404,167.2 226.396,165.984 226.3,164.528 L232.54,164.528 L232.54,164.224 C232.54,161.904 231.164,160.08 228.828,160.08 C226.62,160.08 225.02,161.888 225.02,164.128 C225.02,166.544 226.668,168.192 228.972,168.192 L228.972,168.192 Z M231.356,163.632 L226.284,163.632 C226.348,162.464 227.164,161.072 228.812,161.072 C230.572,161.072 231.34,162.496 231.356,163.632 L231.356,163.632 Z M240.892,168 L240.892,162.576 C240.892,160.896 240.044,160.08 238.444,160.08 C237.276,160.08 236.22,160.736 235.676,161.392 L235.676,160.272 L234.476,160.272 L234.476,168 L235.676,168 L235.676,162.352 C236.14,161.728 237.02,161.152 237.964,161.152 C239.004,161.152 239.708,161.568 239.708,162.944 L239.708,168 L240.892,168 L240.892,168 Z M245.276,168.192 C245.964,168.192 246.396,167.984 246.7,167.696 L246.348,166.784 C246.188,166.96 245.884,167.12 245.532,167.12 C245.02,167.12 244.764,166.704 244.764,166.128 L244.764,161.328 L246.332,161.328 L246.332,160.272 L244.764,160.272 L244.764,158.16 L243.548,158.16 L243.548,160.272 L242.268,160.272 L242.268,161.328 L243.548,161.328 L243.548,166.384 C243.548,167.536 244.124,168.192 245.276,168.192 L245.276,168.192 Z M111.316,190 L111.316,185.136 L116.868,185.136 L116.868,183.952 L111.316,183.952 L111.316,180.512 L116.98,180.512 L116.98,179.328 L109.988,179.328 L109.988,190 L111.316,190 L111.316,190 Z M119.956,190 L119.956,184.528 C120.308,183.904 121.316,183.296 122.068,183.296 C122.244,183.296 122.388,183.312 122.532,183.328 L122.532,182.096 C121.476,182.096 120.58,182.704 119.956,183.504 L119.956,182.272 L118.756,182.272 L118.756,190 L119.956,190 L119.956,190 Z M127.412,190.192 C129.764,190.192 131.236,188.368 131.236,186.128 C131.236,183.888 129.764,182.08 127.412,182.08 C125.06,182.08 123.588,183.888 123.588,186.128 C123.588,188.368 125.06,190.192 127.412,190.192 L127.412,190.192 Z M127.412,189.12 C125.764,189.12 124.852,187.712 124.852,186.128 C124.852,184.56 125.764,183.152 127.412,183.152 C129.06,183.152 129.972,184.56 129.972,186.128 C129.972,187.712 129.06,189.12 127.412,189.12 L127.412,189.12 Z M139.604,190 L139.604,184.576 C139.604,182.896 138.756,182.08 137.156,182.08 C135.988,182.08 134.932,182.736 134.388,183.392 L134.388,182.272 L133.188,182.272 L133.188,190 L134.388,190 L134.388,184.352 C134.852,183.728 135.732,183.152 136.676,183.152 C137.716,183.152 138.42,183.568 138.42,184.944 L138.42,190 L139.604,190 L139.604,190 Z M143.988,190.192 C144.676,190.192 145.108,189.984 145.412,189.696 L145.06,188.784 C144.9,188.96 144.596,189.12 144.244,189.12 C143.732,189.12 143.476,188.704 143.476,188.128 L143.476,183.328 L145.044,183.328 L145.044,182.272 L143.476,182.272 L143.476,180.16 L142.26,180.16 L142.26,182.272 L140.98,182.272 L140.98,183.328 L142.26,183.328 L142.26,188.384 C142.26,189.536 142.836,190.192 143.988,190.192 L143.988,190.192 Z M159.476,190 C158.692,189.28 158.036,188.64 157.396,187.984 C158.036,187.088 158.5,186.08 158.852,185.232 L157.828,184.768 C157.636,185.36 157.252,186.336 156.676,187.216 C156.26,186.768 155.844,186.304 155.412,185.792 C155.06,185.392 154.596,184.848 154.164,184.272 C155.524,183.568 156.884,182.864 156.884,181.264 C156.884,179.92 155.86,179.168 154.484,179.168 C152.964,179.168 151.796,180.224 151.796,181.632 C151.796,182.384 152.132,183.216 152.612,184.032 C151.38,184.704 150.26,185.552 150.26,187.216 C150.26,189.184 151.748,190.192 153.572,190.192 C154.868,190.192 155.86,189.664 156.644,188.88 C157.076,189.312 157.492,189.728 157.812,190 L159.476,190 L159.476,190 Z M153.7,189.2 C152.564,189.2 151.54,188.464 151.54,187.136 C151.54,186.032 152.228,185.376 153.124,184.832 C153.54,185.44 154.004,186.016 154.452,186.528 C154.756,186.896 155.316,187.504 155.924,188.144 C155.316,188.768 154.58,189.2 153.7,189.2 L153.7,189.2 Z M153.028,181.664 C153.028,180.736 153.7,180.096 154.516,180.096 C155.236,180.096 155.78,180.528 155.78,181.312 C155.78,182.384 154.804,182.944 153.668,183.504 C153.3,182.88 153.028,182.224 153.028,181.664 L153.028,181.664 Z M170.196,190 C172.148,190 173.284,188.832 173.284,187.12 C173.284,185.84 172.34,184.672 171.204,184.496 C172.18,184.288 173.076,183.392 173.076,182.048 C173.076,180.448 171.94,179.328 170.084,179.328 L165.332,179.328 L165.332,190 L170.196,190 L170.196,190 Z M169.86,183.952 L166.66,183.952 L166.66,180.512 L169.86,180.512 C171.06,180.512 171.7,181.28 171.7,182.24 C171.7,183.216 171.06,183.952 169.86,183.952 L169.86,183.952 Z M169.94,188.816 L166.66,188.816 L166.66,185.136 L169.94,185.136 C171.236,185.136 171.908,186 171.908,186.976 C171.908,188.112 171.172,188.816 169.94,188.816 L169.94,188.816 Z M181.38,190 L181.38,184.688 C181.38,182.816 180.036,182.08 178.388,182.08 C177.124,182.08 176.132,182.496 175.3,183.36 L175.86,184.192 C176.548,183.44 177.3,183.12 178.228,183.12 C179.348,183.12 180.18,183.712 180.18,184.736 L180.18,186.128 C179.556,185.424 178.676,185.088 177.62,185.088 C176.308,185.088 174.932,185.888 174.932,187.632 C174.932,189.312 176.324,190.192 177.62,190.192 C178.66,190.192 179.556,189.824 180.18,189.12 L180.18,190 L181.38,190 L181.38,190 Z M178.068,189.328 C176.932,189.328 176.148,188.624 176.148,187.632 C176.148,186.656 176.932,185.952 178.068,185.952 C178.9,185.952 179.716,186.272 180.18,186.896 L180.18,188.368 C179.716,189.008 178.9,189.328 178.068,189.328 L178.068,189.328 Z M187.204,190.192 C188.612,190.192 189.444,189.616 190.036,188.848 L189.236,188.112 C188.724,188.8 188.068,189.12 187.268,189.12 C185.636,189.12 184.596,187.84 184.596,186.128 C184.596,184.416 185.636,183.152 187.268,183.152 C188.068,183.152 188.724,183.44 189.236,184.144 L190.036,183.424 C189.444,182.656 188.612,182.08 187.204,182.08 C184.9,182.08 183.348,183.84 183.348,186.128 C183.348,188.416 184.9,190.192 187.204,190.192 L187.204,190.192 Z M198.532,190 L195.092,185.776 L198.516,182.272 L196.996,182.272 L192.932,186.384 L192.932,179.328 L191.732,179.328 L191.732,190 L192.932,190 L192.932,187.792 L194.228,186.528 L196.996,190 L198.532,190 L198.532,190 Z M202.644,186.656 L202.644,185.6 L198.804,185.6 L198.804,186.656 L202.644,186.656 L202.644,186.656 Z M211.364,190 L211.364,188.816 L205.7,188.816 L205.7,185.136 L211.252,185.136 L211.252,183.952 L205.7,183.952 L205.7,180.512 L211.364,180.512 L211.364,179.328 L204.372,179.328 L204.372,190 L211.364,190 L211.364,190 Z M219.844,190 L219.844,184.576 C219.844,182.896 218.996,182.08 217.396,182.08 C216.228,182.08 215.172,182.736 214.628,183.392 L214.628,182.272 L213.428,182.272 L213.428,190 L214.628,190 L214.628,184.352 C215.092,183.728 215.972,183.152 216.916,183.152 C217.956,183.152 218.66,183.568 218.66,184.944 L218.66,190 L219.844,190 L219.844,190 Z M229.06,190 L229.06,179.328 L227.86,179.328 L227.86,183.44 C227.236,182.592 226.292,182.08 225.252,182.08 C223.236,182.08 221.812,183.664 221.812,186.144 C221.812,188.656 223.236,190.192 225.252,190.192 C226.34,190.192 227.284,189.632 227.86,188.848 L227.86,190 L229.06,190 L229.06,190 Z M225.556,189.12 C223.988,189.12 223.06,187.856 223.06,186.144 C223.06,184.432 223.988,183.152 225.556,183.152 C226.5,183.152 227.444,183.728 227.86,184.4 L227.86,187.888 C227.444,188.56 226.5,189.12 225.556,189.12 L225.556,189.12 Z M127.18,212 C130.508,212 132.652,209.712 132.652,206.672 C132.652,203.648 130.508,201.328 127.18,201.328 L123.532,201.328 L123.532,212 L127.18,212 L127.18,212 Z M127.18,210.816 L124.86,210.816 L124.86,202.512 L127.18,202.512 C129.82,202.512 131.276,204.368 131.276,206.672 C131.276,208.96 129.772,210.816 127.18,210.816 L127.18,210.816 Z M138.188,212.192 C139.436,212.192 140.476,211.76 141.26,210.992 L140.684,210.208 C140.06,210.848 139.18,211.2 138.284,211.2 C136.62,211.2 135.612,209.984 135.516,208.528 L141.756,208.528 L141.756,208.224 C141.756,205.904 140.38,204.08 138.044,204.08 C135.836,204.08 134.236,205.888 134.236,208.128 C134.236,210.544 135.884,212.192 138.188,212.192 L138.188,212.192 Z M140.572,207.632 L135.5,207.632 C135.564,206.464 136.38,205.072 138.028,205.072 C139.788,205.072 140.556,206.496 140.572,207.632 L140.572,207.632 Z M147.068,212 L150.284,204.272 L148.988,204.272 L146.412,210.608 L143.852,204.272 L142.54,204.272 L145.756,212 L147.068,212 L147.068,212 Z M155.036,212.192 C156.284,212.192 157.324,211.76 158.108,210.992 L157.532,210.208 C156.908,210.848 156.028,211.2 155.132,211.2 C153.468,211.2 152.46,209.984 152.364,208.528 L158.604,208.528 L158.604,208.224 C158.604,205.904 157.228,204.08 154.892,204.08 C152.684,204.08 151.084,205.888 151.084,208.128 C151.084,210.544 152.732,212.192 155.036,212.192 L155.036,212.192 Z M157.42,207.632 L152.348,207.632 C152.412,206.464 153.228,205.072 154.876,205.072 C156.636,205.072 157.404,206.496 157.42,207.632 L157.42,207.632 Z M161.74,212 L161.74,201.328 L160.54,201.328 L160.54,212 L161.74,212 L161.74,212 Z M167.516,212.192 C169.868,212.192 171.34,210.368 171.34,208.128 C171.34,205.888 169.868,204.08 167.516,204.08 C165.164,204.08 163.692,205.888 163.692,208.128 C163.692,210.368 165.164,212.192 167.516,212.192 L167.516,212.192 Z M167.516,211.12 C165.868,211.12 164.956,209.712 164.956,208.128 C164.956,206.56 165.868,205.152 167.516,205.152 C169.164,205.152 170.076,206.56 170.076,208.128 C170.076,209.712 169.164,211.12 167.516,211.12 L167.516,211.12 Z M177.1,212.192 C179.132,212.192 180.54,210.624 180.54,208.128 C180.54,205.616 179.132,204.08 177.1,204.08 C176.012,204.08 175.052,204.64 174.492,205.424 L174.492,204.272 L173.292,204.272 L173.292,214.944 L174.492,214.944 L174.492,210.832 C175.132,211.68 176.044,212.192 177.1,212.192 L177.1,212.192 Z M176.796,211.12 C175.852,211.12 174.908,210.544 174.492,209.872 L174.492,206.384 C174.908,205.712 175.852,205.152 176.796,205.152 C178.348,205.152 179.276,206.416 179.276,208.128 C179.276,209.84 178.348,211.12 176.796,211.12 L176.796,211.12 Z M192.972,212 L192.972,206.416 C192.972,204.864 192.22,204.08 190.812,204.08 C189.692,204.08 188.652,204.816 188.22,205.52 C187.996,204.72 187.324,204.08 186.156,204.08 C185.004,204.08 183.98,204.896 183.644,205.392 L183.644,204.272 L182.444,204.272 L182.444,212 L183.644,212 L183.644,206.352 C184.06,205.728 184.892,205.152 185.676,205.152 C186.7,205.152 187.1,205.776 187.1,206.752 L187.1,212 L188.3,212 L188.3,206.336 C188.7,205.712 189.548,205.152 190.348,205.152 C191.356,205.152 191.772,205.776 191.772,206.752 L191.772,212 L192.972,212 L192.972,212 Z M198.876,212.192 C200.124,212.192 201.164,211.76 201.948,210.992 L201.372,210.208 C200.748,210.848 199.868,211.2 198.972,211.2 C197.308,211.2 196.3,209.984 196.204,208.528 L202.444,208.528 L202.444,208.224 C202.444,205.904 201.068,204.08 198.732,204.08 C196.524,204.08 194.924,205.888 194.924,208.128 C194.924,210.544 196.572,212.192 198.876,212.192 L198.876,212.192 Z M201.26,207.632 L196.188,207.632 C196.252,206.464 197.068,205.072 198.716,205.072 C200.476,205.072 201.244,206.496 201.26,207.632 L201.26,207.632 Z M210.796,212 L210.796,206.576 C210.796,204.896 209.948,204.08 208.348,204.08 C207.18,204.08 206.124,204.736 205.58,205.392 L205.58,204.272 L204.38,204.272 L204.38,212 L205.58,212 L205.58,206.352 C206.044,205.728 206.924,205.152 207.868,205.152 C208.908,205.152 209.612,205.568 209.612,206.944 L209.612,212 L210.796,212 L210.796,212 Z M215.18,212.192 C215.868,212.192 216.3,211.984 216.604,211.696 L216.252,210.784 C216.092,210.96 215.788,211.12 215.436,211.12 C214.924,211.12 214.668,210.704 214.668,210.128 L214.668,205.328 L216.236,205.328 L216.236,204.272 L214.668,204.272 L214.668,202.16 L213.452,202.16 L213.452,204.272 L212.172,204.272 L212.172,205.328 L213.452,205.328 L213.452,210.384 C213.452,211.536 214.028,212.192 215.18,212.192 L215.18,212.192 Z M149.684,234 L149.684,224.512 L153.076,224.512 L153.076,223.328 L144.98,223.328 L144.98,224.512 L148.356,224.512 L148.356,234 L149.684,234 L149.684,234 Z M156.452,234.192 C157.7,234.192 158.74,233.76 159.524,232.992 L158.948,232.208 C158.324,232.848 157.444,233.2 156.548,233.2 C154.884,233.2 153.876,231.984 153.78,230.528 L160.02,230.528 L160.02,230.224 C160.02,227.904 158.644,226.08 156.308,226.08 C154.1,226.08 152.5,227.888 152.5,230.128 C152.5,232.544 154.148,234.192 156.452,234.192 L156.452,234.192 Z M158.836,229.632 L153.764,229.632 C153.828,228.464 154.644,227.072 156.292,227.072 C158.052,227.072 158.82,228.496 158.836,229.632 L158.836,229.632 Z M164.42,234.192 C166.404,234.192 167.444,233.152 167.444,231.856 C167.444,228.848 162.66,229.952 162.66,228.272 C162.66,227.584 163.316,227.056 164.372,227.056 C165.38,227.056 166.212,227.472 166.676,228.032 L167.236,227.2 C166.628,226.576 165.7,226.08 164.372,226.08 C162.532,226.08 161.508,227.088 161.508,228.304 C161.508,231.168 166.292,230.016 166.292,231.888 C166.292,232.656 165.636,233.216 164.452,233.216 C163.396,233.216 162.42,232.704 161.908,232.112 L161.3,232.976 C162.084,233.792 163.14,234.192 164.42,234.192 L164.42,234.192 Z M171.364,234.192 C172.052,234.192 172.484,233.984 172.788,233.696 L172.436,232.784 C172.276,232.96 171.972,233.12 171.62,233.12 C171.108,233.12 170.852,232.704 170.852,232.128 L170.852,227.328 L172.42,227.328 L172.42,226.272 L170.852,226.272 L170.852,224.16 L169.636,224.16 L169.636,226.272 L168.356,226.272 L168.356,227.328 L169.636,227.328 L169.636,232.384 C169.636,233.536 170.212,234.192 171.364,234.192 L171.364,234.192 Z M174.708,225.168 C175.156,225.168 175.508,224.816 175.508,224.368 C175.508,223.92 175.156,223.552 174.708,223.552 C174.26,223.552 173.892,223.92 173.892,224.368 C173.892,224.816 174.26,225.168 174.708,225.168 L174.708,225.168 Z M175.3,234 L175.3,226.272 L174.1,226.272 L174.1,234 L175.3,234 L175.3,234 Z M184.116,234 L184.116,228.576 C184.116,226.896 183.268,226.08 181.668,226.08 C180.5,226.08 179.444,226.736 178.9,227.392 L178.9,226.272 L177.7,226.272 L177.7,234 L178.9,234 L178.9,228.352 C179.364,227.728 180.244,227.152 181.188,227.152 C182.228,227.152 182.932,227.568 182.932,228.944 L182.932,234 L184.116,234 L184.116,234 Z M189.636,237.136 C191.524,237.136 193.332,236.336 193.332,233.888 L193.332,226.272 L192.132,226.272 L192.132,227.44 C191.508,226.592 190.564,226.08 189.524,226.08 C187.492,226.08 186.084,227.616 186.084,230.096 C186.084,232.592 187.508,234.096 189.524,234.096 C190.612,234.096 191.556,233.504 192.132,232.72 L192.132,233.888 C192.132,235.52 190.916,236.144 189.636,236.144 C188.532,236.144 187.764,235.856 187.124,235.104 L186.516,235.968 C187.444,236.88 188.34,237.136 189.636,237.136 L189.636,237.136 Z M189.828,233.024 C188.26,233.024 187.332,231.792 187.332,230.096 C187.332,228.384 188.26,227.152 189.828,227.152 C190.772,227.152 191.7,227.728 192.132,228.384 L192.132,231.776 C191.7,232.448 190.772,233.024 189.828,233.024 L189.828,233.024 Z" id="Shape" fill="#FFFFFF" sketch:type="MSShapeGroup"></path>
            <path d="M27.284,409 C30.196,409 32.072,406.998 32.072,404.338 C32.072,401.692 30.196,399.662 27.284,399.662 L24.092,399.662 L24.092,409 L27.284,409 L27.284,409 Z M27.284,407.964 L25.254,407.964 L25.254,400.698 L27.284,400.698 C29.594,400.698 30.868,402.322 30.868,404.338 C30.868,406.34 29.552,407.964 27.284,407.964 L27.284,407.964 Z M41.368,409 L37.616,399.662 L36.174,399.662 L32.408,409 L33.738,409 L34.564,406.914 L39.212,406.914 L40.038,409 L41.368,409 L41.368,409 Z M38.876,405.892 L34.914,405.892 L36.888,400.852 L38.876,405.892 L38.876,405.892 Z M43.748,409 L43.748,399.662 L42.586,399.662 L42.586,409 L43.748,409 L43.748,409 Z M51.28,409 L51.28,407.964 L46.94,407.964 L46.94,399.662 L45.778,399.662 L45.778,409 L51.28,409 L51.28,409 Z M54.99,409 L54.99,405.052 L58.658,399.662 L57.3,399.662 L54.402,404.002 L51.504,399.662 L50.146,399.662 L53.828,405.052 L53.828,409 L54.99,409 L54.99,409 Z M66.526,409.168 C69.046,409.168 69.97,407.768 69.97,406.424 C69.97,402.938 64.44,404.142 64.44,402.042 C64.44,401.16 65.252,400.558 66.358,400.558 C67.38,400.558 68.36,400.894 69.06,401.678 L69.76,400.824 C68.976,399.998 67.87,399.508 66.456,399.508 C64.608,399.508 63.236,400.572 63.236,402.112 C63.236,405.444 68.766,404.1 68.766,406.508 C68.766,407.236 68.234,408.132 66.568,408.132 C65.252,408.132 64.244,407.488 63.642,406.788 L62.942,407.684 C63.712,408.552 64.916,409.168 66.526,409.168 L66.526,409.168 Z M75.094,409 L75.094,400.698 L78.062,400.698 L78.062,399.662 L70.978,399.662 L70.978,400.698 L73.932,400.698 L73.932,409 L75.094,409 L75.094,409 Z M86.658,409 L82.906,399.662 L81.464,399.662 L77.698,409 L79.028,409 L79.854,406.914 L84.502,406.914 L85.328,409 L86.658,409 L86.658,409 Z M84.166,405.892 L80.204,405.892 L82.178,400.852 L84.166,405.892 L84.166,405.892 Z M95.604,409 L95.604,399.662 L94.442,399.662 L94.442,406.956 L89.066,399.662 L87.876,399.662 L87.876,409 L89.038,409 L89.038,401.552 L94.484,409 L95.604,409 L95.604,409 Z M100.98,409 C103.892,409 105.768,406.998 105.768,404.338 C105.768,401.692 103.892,399.662 100.98,399.662 L97.788,399.662 L97.788,409 L100.98,409 L100.98,409 Z M100.98,407.964 L98.95,407.964 L98.95,400.698 L100.98,400.698 C103.29,400.698 104.564,402.322 104.564,404.338 C104.564,406.34 103.248,407.964 100.98,407.964 L100.98,407.964 Z M111.396,409.168 C113.93,409.168 115.218,407.684 115.218,405.36 L115.218,399.662 L114.042,399.662 L114.042,405.346 C114.042,407.054 113.118,408.132 111.396,408.132 C109.674,408.132 108.764,407.054 108.764,405.346 L108.764,399.662 L107.588,399.662 L107.588,405.374 C107.588,407.67 108.876,409.168 111.396,409.168 L111.396,409.168 Z M118.564,409 L118.564,405.29 L121.154,405.29 C123.016,405.29 124.08,404.002 124.08,402.476 C124.08,400.95 123.03,399.662 121.154,399.662 L117.402,399.662 L117.402,409 L118.564,409 L118.564,409 Z M121.014,404.254 L118.564,404.254 L118.564,400.698 L121.014,400.698 C122.12,400.698 122.876,401.426 122.876,402.476 C122.876,403.526 122.12,404.254 121.014,404.254 L121.014,404.254 Z" id="Shape" fill="#FFFFFF" sketch:type="MSShapeGroup"></path>
            <path d="M67.312,333 L67.312,331.076 L58.81,331.076 C63.646,327.254 67.234,324.03 67.234,320.494 C67.234,317.036 64.296,315.398 61.41,315.398 C58.966,315.398 56.704,316.36 55.378,318.128 L56.704,319.506 C57.718,318.206 59.33,317.322 61.41,317.322 C63.204,317.322 65.05,318.258 65.05,320.494 C65.05,323.484 61.644,326.37 55.404,331.258 L55.404,333 L67.312,333 L67.312,333 Z M80.52,333 L80.52,328.606 L82.964,328.606 L82.964,326.708 L80.52,326.708 L80.52,315.658 L77.556,315.658 L70.12,326.812 L70.12,328.606 L78.362,328.606 L78.362,333 L80.52,333 L80.52,333 Z M78.362,326.708 L72.278,326.708 L78.362,317.66 L78.362,326.708 L78.362,326.708 Z M96.198,333 L96.198,324.134 C96.198,321.404 94.82,320.13 92.194,320.13 C90.296,320.13 88.58,321.196 87.722,322.262 L87.722,315.658 L85.772,315.658 L85.772,333 L87.722,333 L87.722,323.822 C88.45,322.808 89.906,321.872 91.414,321.872 C93.13,321.872 94.248,322.496 94.248,324.732 L94.248,333 L96.198,333 L96.198,333 Z" id="Shape" fill="#FFFFFF" sketch:type="MSShapeGroup"></path>
            <path d="M123.312,91 L123.312,89.076 L114.81,89.076 C119.646,85.254 123.234,82.03 123.234,78.494 C123.234,75.036 120.296,73.398 117.41,73.398 C114.966,73.398 112.704,74.36 111.378,76.128 L112.704,77.506 C113.718,76.206 115.33,75.322 117.41,75.322 C119.204,75.322 121.05,76.258 121.05,78.494 C121.05,81.484 117.644,84.37 111.404,89.258 L111.404,91 L123.312,91 L123.312,91 Z M132.308,85.566 L132.308,83.85 L126.068,83.85 L126.068,85.566 L132.308,85.566 L132.308,85.566 Z M144.32,91 L144.32,86.606 L146.764,86.606 L146.764,84.708 L144.32,84.708 L144.32,73.658 L141.356,73.658 L133.92,84.812 L133.92,86.606 L142.162,86.606 L142.162,91 L144.32,91 L144.32,91 Z M142.162,84.708 L136.078,84.708 L142.162,75.66 L142.162,84.708 L142.162,84.708 Z M169.124,91 L173.128,78.442 L171.074,78.442 L168.006,88.452 L164.73,78.442 L163.04,78.442 L159.738,88.452 L156.67,78.442 L154.642,78.442 L158.646,91 L160.596,91 L163.872,80.912 L167.148,91 L169.124,91 L169.124,91 Z M181.058,91.312 C183.086,91.312 184.776,90.61 186.05,89.362 L185.114,88.088 C184.1,89.128 182.67,89.7 181.214,89.7 C178.51,89.7 176.872,87.724 176.716,85.358 L186.856,85.358 L186.856,84.864 C186.856,81.094 184.62,78.13 180.824,78.13 C177.236,78.13 174.636,81.068 174.636,84.708 C174.636,88.634 177.314,91.312 181.058,91.312 L181.058,91.312 Z M184.932,83.902 L176.69,83.902 C176.794,82.004 178.12,79.742 180.798,79.742 C183.658,79.742 184.906,82.056 184.932,83.902 L184.932,83.902 Z M195.696,91.312 C197.724,91.312 199.414,90.61 200.688,89.362 L199.752,88.088 C198.738,89.128 197.308,89.7 195.852,89.7 C193.148,89.7 191.51,87.724 191.354,85.358 L201.494,85.358 L201.494,84.864 C201.494,81.094 199.258,78.13 195.462,78.13 C191.874,78.13 189.274,81.068 189.274,84.708 C189.274,88.634 191.952,91.312 195.696,91.312 L195.696,91.312 Z M199.57,83.902 L191.328,83.902 C191.432,82.004 192.758,79.742 195.436,79.742 C198.296,79.742 199.544,82.056 199.57,83.902 L199.57,83.902 Z M215.69,91 L210.1,84.136 L215.664,78.442 L213.194,78.442 L206.59,85.124 L206.59,73.658 L204.64,73.658 L204.64,91 L206.59,91 L206.59,87.412 L208.696,85.358 L213.194,91 L215.69,91 L215.69,91 Z M222.008,91.312 C225.232,91.312 226.922,89.622 226.922,87.516 C226.922,82.628 219.148,84.422 219.148,81.692 C219.148,80.574 220.214,79.716 221.93,79.716 C223.568,79.716 224.92,80.392 225.674,81.302 L226.584,79.95 C225.596,78.936 224.088,78.13 221.93,78.13 C218.94,78.13 217.276,79.768 217.276,81.744 C217.276,86.398 225.05,84.526 225.05,87.568 C225.05,88.816 223.984,89.726 222.06,89.726 C220.344,89.726 218.758,88.894 217.926,87.932 L216.938,89.336 C218.212,90.662 219.928,91.312 222.008,91.312 L222.008,91.312 Z" id="Shape" fill="#FFFFFF" sketch:type="MSShapeGroup"></path>
        </g>
    </g>
</svg>