<svg width="88" height="83" viewBox="0 0 88 83" xmlns="http://www.w3.org/2000/svg" xmlns:sketch="http://www.bohemiancoding.com/sketch/ns"><title>Group</title><desc>Created with Sketch.</desc><g sketch:type="MSShapeGroup" fill="none"><path d="M32.506 75.082c-1.531 0-2.891-.765-3.637-2.044l-28.32-48.588c-1.167-2.008-.413-4.633 1.681-5.854l30.838-17.973c.698-.408 1.488-.623 2.285-.623 1.531 0 2.891.765 3.637 2.045l28.318 48.587c1.17 2.005.416 4.631-1.679 5.854l-30.839 17.973c-.697.407-1.487.623-2.284.623zm2.847-72.581c-.354 0-.708.097-1.025.282l-30.838 17.974c-.904.527-1.253 1.619-.779 2.435l28.319 48.586c.457.785 1.621 1.036 2.499.521l30.839-17.972c.904-.528 1.254-1.62.779-2.435l-28.318-48.587c-.293-.504-.845-.804-1.476-.804z" id="Shape" fill="#3E3B3E"/><g id="Shape" fill="#3E3B3E"><path d="M69.747 63.692c.07 1.634-1.283 3.018-3.021 3.094l-35.66 1.514c-1.737.074-3.203-1.189-3.272-2.822l-2.389-56.188c-.069-1.634 1.284-3.018 3.021-3.091l35.66-1.517c1.737-.074 3.203 1.19 3.272 2.823l2.389 56.187zM30.921 69.554c-2.357 0-4.28-1.768-4.376-4.022l-2.389-56.189c-.048-1.139.374-2.225 1.188-3.058.794-.812 1.87-1.287 3.029-1.335l35.858-1.521c2.358 0 4.28 1.767 4.376 4.023l2.389 56.187c.101 2.317-1.791 4.29-4.215 4.396l-35.86 1.519zm33.31-63.624l-35.752 1.519c-.521.022-1 .229-1.347.585-.327.334-.497.762-.478 1.203l2.389 56.188c.039.912.864 1.628 1.877 1.628l.092-.002 35.661-1.514c1.045-.046 1.864-.85 1.824-1.791l-2.388-56.187c-.039-.913-.864-1.629-1.878-1.629z"/></g><g id="Shape"><path d="M69.594 79.087c-.492 1.56-2.236 2.395-3.895 1.871l-34.025-10.782c-1.658-.525-2.602-2.213-2.108-3.771l16.987-53.611c.494-1.559 2.238-2.396 3.896-1.871l34.025 10.781c1.656.524 2.602 2.214 2.107 3.772l-16.987 53.611z" fill="#fff"/><path d="M66.705 82.364c-.467 0-.933-.071-1.382-.214l-34.027-10.782c-2.312-.733-3.624-3.129-2.923-5.342l16.987-53.611c.551-1.735 2.191-2.9 4.083-2.9.468 0 .933.072 1.384.215l34.025 10.781c1.105.351 2.02 1.089 2.574 2.081.568 1.017.691 2.176.348 3.262l-16.988 53.611c-.548 1.733-2.187 2.899-4.081 2.899zm-17.262-70.348c-.797 0-1.479.464-1.698 1.155l-16.988 53.611c-.284.897.296 1.885 1.294 2.201l34.025 10.782c.976.311 2.049-.182 2.324-1.055l16.99-53.612c.134-.421.082-.878-.146-1.286-.242-.434-.649-.759-1.146-.916l-34.027-10.782c-.206-.065-.417-.098-.628-.098z" fill="#3E3B3E"/></g><path id="Shape" fill="#000" d="M33.733 70.849l.126-.08-1.177.084c.318.185.727.205 1.051-.004zM33.733 70.849c-.322.209-.732.189-1.051.004l1.177-.084-.126.08z"/><path d="M12.221 31.973l.143-1.61c1.03.27 2.244.039 3.188-.612 1.169-.808 1.47-1.82.91-2.631-.605-.876-1.563-.784-2.838.097-.372.257-.867.619-.99.725l-.974-1.408c.156-.088.674-.445 1.019-.684 1.049-.726 1.585-1.626 1.025-2.436-.56-.811-1.664-.676-2.646.004-.917.633-1.432 1.479-1.619 2.569l-1.467-.419c.131-1.287.803-2.615 2.277-3.634 1.913-1.321 3.812-1.299 4.83.175.826 1.196.294 2.584-.508 3.354.914-.494 2.6-.64 3.545.729 1.046 1.514.501 3.48-1.557 4.903-1.567 1.082-3.176 1.252-4.338.878z" id="Shape" fill="#3E3B3E"/><path d="M30.688 22.195l1.14-1.258c.671.871 1.635 1.366 2.829 1.42 1.371.062 2.247-.739 2.295-1.804.051-1.145-.753-1.94-2.076-2-.903-.041-1.673.2-2.396.813l-1.322-.447.27-6 7.048.317-.075 1.661-5.161-.231-.139 3.097c.554-.477 1.444-.857 2.477-.811 1.822.082 3.394 1.413 3.295 3.622-.1 2.226-1.874 3.568-4.276 3.461-1.839-.082-3.084-.785-3.909-1.84z" id="Shape" fill="#fff"/><path d="M48.447 26.302c.414-1.291 1.775-1.89 3.154-1.906-1.036-.738-1.773-1.822-1.359-3.113.609-1.906 2.814-2.065 4.627-1.484 1.814.58 3.516 1.989 2.906 3.896-.414 1.291-1.644 1.745-2.914 1.744 1.112.814 1.873 2.092 1.459 3.383-.59 1.846-2.75 2.239-4.842 1.57-2.105-.674-3.621-2.245-3.031-4.09zm6.117 1.704c.34-1.062-.988-1.995-1.59-2.289-.675-.114-2.282-.12-2.622.94-.29.907.47 1.761 1.638 2.135 1.139.364 2.284.121 2.574-.786zm1.293-4.621c.28-.876-.393-1.634-1.5-1.988-1.105-.354-2.095-.128-2.375.748-.306.954.9 1.746 1.479 2.051.666.093 2.091.143 2.396-.811zM57.218 66.306c-1.655 0-3.38-.283-5.126-.842-2.988-.956-5.502-2.564-7.08-4.529-1.835-2.285-2.357-4.892-1.509-7.539.873-2.729 3.223-4.672 6.394-5.423-1.973-2.237-2.625-4.857-1.791-7.464 1.107-3.461 4.182-5.445 8.435-5.445 1.604 0 3.339.284 5.02.822 2.741.877 5.095 2.331 6.627 4.096 1.93 2.222 2.498 4.809 1.644 7.479-.834 2.607-2.888 4.362-5.795 5.039 2.146 2.453 2.933 5.399 2.06 8.127-1.158 3.608-4.393 5.679-8.879 5.679zm-.678-28.742c-2.22 0-5.072.644-6.052 3.706-.956 2.986 1.117 5.232 3.024 6.592.44.314.63.876.468 1.393-.162.516-.637.87-1.178.876-2.732.033-5.984 1.108-6.918 4.026-.588 1.836-.226 3.589 1.077 5.211 1.273 1.586 3.366 2.905 5.892 3.713 1.479.474 2.988.724 4.364.724 1.955 0 5.397-.512 6.494-3.94.935-2.918-1.09-5.682-3.296-7.296-.437-.319-.618-.883-.45-1.397.168-.514.647-.862 1.188-.862 2.347 0 5.339-.626 6.293-3.61.583-1.82.196-3.528-1.148-5.077-1.236-1.423-3.19-2.614-5.501-3.353-1.437-.462-2.909-.706-4.257-.706zm-.215 24.272c-.95 0-1.933-.16-2.918-.476-1.725-.553-3.182-1.489-4.104-2.637-1.074-1.338-1.398-2.907-.915-4.419.694-2.168 2.976-3.412 6.26-3.412.648 0 1.314.053 1.875.147.118.021.232.058.341.11 2.118 1.036 5.831 3.912 4.722 7.379-.662 2.071-2.629 3.308-5.261 3.308zm-1.677-8.441c-1.005 0-3.395.163-3.877 1.673-.227.706-.063 1.409.483 2.091.617.77 1.652 1.416 2.915 1.819.729.233 1.474.356 2.155.356.715 0 2.426-.152 2.878-1.567.541-1.688-1.877-3.554-3.276-4.288-.28-.04-.724-.084-1.278-.084zm4.631-3.657c-.777 0-1.455-.072-1.888-.134-.142-.021-.279-.064-.406-.131-3.522-1.847-5.171-4.371-4.409-6.752.643-2.005 2.458-3.202 4.856-3.202.891 0 1.837.158 2.813.471 1.673.536 3.008 1.389 3.859 2.466.985 1.246 1.27 2.742.799 4.213-.632 1.979-2.631 3.069-5.624 3.069zm-1.321-2.582c.345.042.808.081 1.321.081 1.052 0 2.872-.173 3.242-1.331.219-.681.095-1.302-.378-1.899-.534-.676-1.479-1.257-2.659-1.634-.73-.233-1.421-.353-2.052-.353-1.331 0-2.163.492-2.474 1.464-.506 1.581 2.191 3.222 3 3.672z" fill="#3E3B3E"/></g></svg>