<svg width="86" height="73" viewBox="0 0 86 73" xmlns="http://www.w3.org/2000/svg" xmlns:sketch="http://www.bohemiancoding.com/sketch/ns"><title>responsive</title><desc>Created with Sketch.</desc><g sketch:type="MSShapeGroup" fill="none"><path d="M5.5 6.5v12h33c1.657 0 3 1.344 3 3v28h39v-43h-75z" id="Shape" fill="#6ABEEC"/><path id="Rectangle-path" fill="#96CEED" d="M4.5 38.5h15v25h-15z"/><path id="Rectangle-path" fill="#6ABEEC" d="M5.5 22.5h31v41h-31z"/><path d="M58.381 72.5h-20.673v-2h20.673c.054 0 .126-.072.126-.126v-1.038c0-.055-.072-.127-.126-.127h-2.857l-.297-.315c-1.774-1.893-2.552-5.652-2.857-7.726l-.17-1.146h28.521c.686 0 1.326-.244 1.853-.705.616-.548.958-1.328.958-2.192v-51.524c.076-1.308-.72-2.034-1.4-2.423-.361-.178-.907-.301-1.41-.301h-75.771c-.522 0-1.015.128-1.351.352-.93.506-1.458 1.396-1.458 2.372v14.997h-2v-14.997c0-1.711.931-3.276 2.43-4.084.586-.395 1.46-.639 2.38-.639h75.771c.809 0 1.666.196 2.353.538 1.684.96 2.561 2.499 2.456 4.246l.002 51.465c0 1.422-.596 2.768-1.634 3.691-.903.791-2 1.206-3.177 1.206h-26.182c.437 2.293 1.109 4.152 1.882 5.187h1.958c1.152 0 2.126.974 2.126 2.127v1.038c0 1.15-.974 2.124-2.126 2.124zM39.424 20.021c-.494 0-1.215-.562-1.261-.609l.72-.695.553-.831.418.233-.316.623.343.014-.343-.014.343.014-.343-.014-.115.228.001 1.051zM37.165 72.674h-16.951v-2h16.951c.685 0 1.325-.244 1.854-.706.615-.547.957-1.327.957-2.191v-45.809c0-1.293-.933-2.019-1.488-2.337-.361-.179-.905-.301-1.408-.301h-32.128c-.523 0-1.016.128-1.35.352-.931.507-1.459 1.397-1.459 2.372v16.084h-2v-16.084c0-1.711.931-3.276 2.43-4.084.584-.395 1.458-.639 2.38-.639h32.128c.811 0 1.667.196 2.352.538 1.635.933 2.545 2.418 2.545 4.1v45.809c0 1.422-.596 2.768-1.634 3.691-.907.79-2.003 1.205-3.179 1.205zM21.452 36.366l-.444-.243.356-.701.08.012-.08-.012.08-.157v-1.041c.429 0 1.147.479 1.279.631l-.756.654-.51-.074.51.074-.515.857z" id="Shape" fill="#3E3B3E"/><g id="Shape"><path d="M21.577 35.302c-.52-.259-1.212-.433-1.904-.433h-14.635c-.693 0-1.386.174-1.905.52-1.212.521-1.991 1.733-1.991 3.118v29.183c0 2.165 1.731 3.897 3.896 3.897h14.635c.952 0 1.818-.347 2.512-.953.779-.693 1.298-1.732 1.298-2.944v-29.27c-.001-1.298-.779-2.511-1.906-3.118z" fill="#fff"/><path d="M19.673 72.587h-14.635c-2.7 0-4.896-2.197-4.896-4.897v-29.183c0-1.744.984-3.304 2.515-4.001.655-.411 1.497-.637 2.382-.637h14.634c.808 0 1.665.196 2.35.538 1.505.811 2.459 2.38 2.459 4.013v29.27c0 1.423-.595 2.768-1.633 3.691-.904.791-2 1.206-3.176 1.206zm-14.635-36.718c-.522 0-1.015.128-1.351.352l-.16.086c-.842.361-1.386 1.225-1.386 2.199v29.183c0 1.625 1.272 2.897 2.896 2.897h14.636c.685 0 1.325-.244 1.854-.706.614-.547.956-1.327.956-2.191v-29.269c0-.894-.555-1.793-1.38-2.238-.383-.19-.928-.313-1.43-.313h-14.635z" fill="#3E3B3E"/></g><g><path d="M12.312 69.075c-.952 0-1.732-.779-1.732-1.731 0-.954.78-1.732 1.732-1.732.953 0 1.732.778 1.732 1.732 0 .952-.779 1.731-1.732 1.731z" fill="#fff"/><path d="M12.312 70.075c-1.507 0-2.732-1.226-2.732-2.731 0-1.507 1.226-2.732 2.732-2.732 1.506 0 2.732 1.226 2.732 2.732 0 1.506-1.226 2.731-2.732 2.731zm0-3.464c-.404 0-.732.328-.732.732 0 .396.335.731.732.731.404 0 .732-.328.732-.731 0-.404-.329-.732-.732-.732z" fill="#3E3B3E"/></g><path fill="#6ABEEC" d="M5.038 38.681h14.548v24.246h-14.548z"/></g></svg>