<svg width="156" height="165" viewBox="0 0 156 165" xmlns="http://www.w3.org/2000/svg" xmlns:sketch="http://www.bohemiancoding.com/sketch/ns"><title>Group</title><desc>Created with Sketch.</desc><g sketch:type="MSShapeGroup" fill="none"><path d="M120.625 48.521h-109.656c-6.049 0-10.969-4.92-10.969-10.968v-26.584c0-6.049 4.92-10.969 10.969-10.969h109.656c6.048 0 10.969 4.92 10.969 10.969v26.584c0 6.048-4.921 10.968-10.969 10.968zm-109.656-46.521c-4.946 0-8.969 4.023-8.969 8.969v26.584c0 4.945 4.023 8.969 8.969 8.969h109.656c4.945 0 8.969-4.023 8.969-8.969v-26.584c0-4.945-4.023-8.969-8.969-8.969h-109.656z" id="Shape" fill="#3E3B3E"/><path d="M70.781 20.615h43.197c1.837 0 3.324-1.342 3.324-3s-1.487-3-3.324-3h-43.197c-1.835 0-3.322 1.343-3.322 3s1.487 3 3.322 3zM70.781 31.615h43.197c1.837 0 3.324-1.342 3.324-3s-1.487-3-3.324-3h-43.197c-1.835 0-3.322 1.343-3.322 3s1.487 3 3.322 3z" id="Shape" fill="#6ABEEC"/><path d="M22.6 23.938c-3.3 0-5.984-2.685-5.984-5.984s2.685-5.984 5.984-5.984 5.984 2.685 5.984 5.984-2.685 5.984-5.984 5.984zm0-9.969c-2.197 0-3.984 1.788-3.984 3.984 0 2.196 1.788 3.984 3.984 3.984 2.196 0 3.984-1.788 3.984-3.984 0-2.196-1.788-3.984-3.984-3.984zM31.906 35.228h-18.613v-2.662c0-5.131 4.175-9.306 9.307-9.306 5.132 0 9.307 4.175 9.307 9.306v2.662h-.001zm-16.613-2h14.613v-.662c0-4.029-3.278-7.306-7.307-7.306s-7.307 3.277-7.307 7.306v.662h.001zM144.329 107.243h-109.656c-6.048 0-10.969-4.921-10.969-10.969v-26.584c0-6.048 4.92-10.969 10.969-10.969h109.656c6.048 0 10.969 4.92 10.969 10.969v26.584c0 6.048-4.921 10.969-10.969 10.969zm-109.656-46.522c-4.945 0-8.969 4.023-8.969 8.969v26.584c0 4.945 4.023 8.969 8.969 8.969h109.656c4.945 0 8.969-4.023 8.969-8.969v-26.584c0-4.945-4.023-8.969-8.969-8.969h-109.656z" id="Shape" fill="#3E3B3E"/><path d="M94.485 79.336h43.197c1.837 0 3.324-1.342 3.324-3s-1.487-3-3.324-3h-43.197c-1.835 0-3.322 1.343-3.322 3 0 1.658 1.487 3 3.322 3zM94.485 90.335h43.197c1.837 0 3.324-1.342 3.324-2.999s-1.487-3.001-3.324-3.001h-43.197c-1.835 0-3.322 1.344-3.322 3.001 0 1.657 1.487 2.999 3.322 2.999z" id="Shape" fill="#6ABEEC"/><path d="M46.304 82.659c-3.3 0-5.984-2.685-5.984-5.984s2.685-5.984 5.984-5.984 5.984 2.685 5.984 5.984-2.684 5.984-5.984 5.984zm0-9.969c-2.197 0-3.984 1.788-3.984 3.984 0 2.196 1.788 3.984 3.984 3.984 2.196 0 3.984-1.788 3.984-3.984 0-2.196-1.788-3.984-3.984-3.984zM55.61 93.949h-18.613v-2.661c0-5.131 4.175-9.306 9.307-9.306 5.132 0 9.307 4.175 9.307 9.306v2.661h-.001zm-16.613-2h14.613v-.661c0-4.028-3.278-7.306-7.307-7.306s-7.307 3.277-7.307 7.306v.661h.001z" id="Shape" fill="#3E3B3E"/><g id="Shape"><path d="M39.876 31.464c.059 0 6.03.195 8.838 2.999.152.153.336.276.541.36l.278.056c.114.026.228.072.354.072.136 0 .256-.046.383-.078l.24-.05c.166-.067.313-.172.445-.288l.097-.063c.125-.117 3.021-2.864 8.845-3.008.9-.024 1.621-.759 1.621-1.662v-16.613c0-.448-.183-.876-.5-1.188-.32-.311-.721-.464-1.199-.474-4.95.12-8.249 1.865-9.895 3.002-3.881-2.817-9.691-2.996-9.965-3.002-.432.02-.879.163-1.2.474-.317.312-.499.74-.499 1.188v16.615c-.003.898.717 1.635 1.616 1.66zm10.021-17v21-21z" fill="#6ABEEC"/><path d="M49.888 35.951c-.227 0-.405-.05-.523-.083-.161-.029-.302-.049-.464-.11-.354-.145-.647-.34-.896-.59-2.488-2.485-8.093-2.702-8.149-2.704h-.008c-1.433-.041-2.593-1.235-2.587-2.664v-16.61c0-.711.291-1.404.798-1.902.474-.458 1.131-.726 1.855-.759.313.005 5.905.166 10.021 2.799 1.822-1.136 5.149-2.686 9.86-2.799.788.015 1.419.269 1.92.756.512.504.803 1.197.803 1.906v16.613c0 1.453-1.14 2.622-2.594 2.662-5.253.13-7.901 2.47-8.186 2.736l-.2.15c-.227.186-.437.312-.655.4-.153.066-.308.087-.391.098-.167.046-.362.101-.604.101zm1.009-20.867v18.224c1.193-.902 4.179-2.725 8.975-2.844.361-.01.646-.301.646-.663v-16.612c0-.176-.073-.35-.202-.476-.089-.086-.225-.18-.518-.186-4.302.105-7.307 1.543-8.901 2.557zm-10.993 15.381c.44.012 5.833.224 8.993 2.818v-18.245c-3.648-2.36-8.906-2.509-8.961-2.511-.162.01-.367.082-.481.192-.122.12-.194.293-.194.47v16.615c-.002.356.287.651.643.661z" fill="#fff"/></g><path d="M120.625 164.521h-109.656c-6.049 0-10.969-4.921-10.969-10.969v-26.584c0-6.048 4.92-10.968 10.969-10.968h109.656c6.048 0 10.969 4.921 10.969 10.969v26.584c0 6.047-4.921 10.968-10.969 10.968zm-109.656-46.521c-4.946 0-8.969 4.023-8.969 8.968v26.584c0 4.945 4.023 8.969 8.969 8.969h109.656c4.945 0 8.969-4.023 8.969-8.969v-26.584c0-4.945-4.023-8.969-8.969-8.969h-109.656v.001z" id="Shape" fill="#3E3B3E"/><path d="M70.781 136.615h43.197c1.837 0 3.324-1.342 3.324-3 0-1.657-1.487-3-3.324-3h-43.197c-1.835 0-3.322 1.343-3.322 3 0 1.658 1.487 3 3.322 3zM70.781 147.615h43.197c1.837 0 3.324-1.342 3.324-3 0-1.657-1.487-3-3.324-3h-43.197c-1.835 0-3.322 1.343-3.322 3 0 1.658 1.487 3 3.322 3z" id="Shape" fill="#6ABEEC"/><path d="M22.6 139.937c-3.3 0-5.984-2.685-5.984-5.984s2.685-5.984 5.984-5.984 5.984 2.685 5.984 5.984-2.685 5.984-5.984 5.984zm0-9.969c-2.197 0-3.984 1.787-3.984 3.984s1.788 3.984 3.984 3.984c2.196 0 3.984-1.787 3.984-3.984s-1.788-3.984-3.984-3.984zM31.906 151.228h-18.613v-2.662c0-5.131 4.175-9.306 9.307-9.306 5.132 0 9.307 4.175 9.307 9.306v2.662h-.001zm-16.613-2h14.613v-.662c0-4.028-3.278-7.306-7.307-7.306s-7.307 3.277-7.307 7.306v.662h.001z" id="Shape" fill="#3E3B3E"/><g id="Shape"><path d="M63.172 90.744c.059 0 6.03.194 8.838 2.998.152.153.336.276.541.36l.278.056c.114.026.228.072.354.072.136 0 .256-.046.383-.078l.24-.05c.166-.067.313-.172.445-.288l.097-.063c.125-.117 3.021-2.863 8.845-3.008.9-.025 1.621-.76 1.621-1.662v-16.613c0-.448-.183-.876-.5-1.188-.32-.311-.721-.464-1.199-.474-4.95.12-8.249 1.865-9.895 3.002-3.881-2.817-9.691-2.996-9.965-3.002-.432.02-.879.163-1.2.474-.317.312-.499.74-.499 1.188v16.615c-.003.898.716 1.635 1.616 1.661zm9.725-17.28v21-21z" fill="#6ABEEC"/><path d="M73.184 95.23c-.228 0-.408-.05-.526-.084-.154-.026-.297-.047-.461-.108-.354-.145-.647-.341-.896-.591-2.488-2.485-8.093-2.702-8.149-2.703h-.008c-1.433-.041-2.593-1.236-2.587-2.664v-16.612c0-.711.291-1.404.798-1.902.474-.458 1.131-.726 1.855-.759.313.005 5.905.166 10.021 2.799 1.822-1.136 5.149-2.686 9.86-2.799.788.015 1.419.269 1.92.756.513.504.804 1.197.804 1.906v16.613c0 1.451-1.139 2.621-2.593 2.662-5.264.13-7.903 2.469-8.187 2.734l-.197.15c-.219.18-.432.31-.655.4-.153.067-.31.088-.394.099-.168.048-.363.103-.605.103zm.713-20.673v18.263c.917-.761 3.997-2.945 9.271-3.076.36-.01.646-.301.646-.662v-16.614c0-.176-.073-.35-.201-.476-.09-.086-.225-.18-.519-.186-4.585.112-7.697 1.738-9.197 2.751zm-10.697 15.188c.426.012 5.508.211 8.697 2.586v-18.199c-3.63-2.183-8.611-2.325-8.665-2.326-.162.01-.367.082-.481.192-.122.12-.194.293-.194.47v16.615c-.002.357.287.651.643.662z" fill="#fff"/></g><g><path d="M39.172 148.744c.059 0 6.03.194 8.838 2.998.152.153.336.276.541.36l.278.056c.114.026.228.072.354.072.136 0 .256-.046.383-.078l.24-.05c.166-.067.313-.172.445-.288l.097-.063c.125-.117 3.021-2.863 8.845-3.008.9-.025 1.621-.76 1.621-1.662v-16.613c0-.448-.183-.876-.5-1.188-.32-.312-.721-.464-1.199-.474-4.95.119-8.249 1.865-9.895 3.002-3.881-2.816-9.691-2.996-9.965-3.002-.432.02-.879.162-1.2.474-.317.312-.499.74-.499 1.188v16.615c-.003.898.716 1.635 1.616 1.661zm9.725-17.28v21-21z" fill="#6ABEEC"/><path d="M49.184 153.23c-.228 0-.408-.05-.526-.084-.154-.026-.297-.047-.461-.108-.354-.145-.647-.341-.896-.591-2.488-2.485-8.093-2.702-8.149-2.703h-.008c-1.433-.041-2.593-1.236-2.587-2.664v-16.611c0-.711.291-1.404.798-1.902.473-.458 1.13-.726 1.855-.759.31.005 5.892.155 10.021 2.799 1.823-1.137 5.15-2.687 9.86-2.8.789.016 1.42.27 1.92.757.512.504.803 1.196.803 1.905v16.613c0 1.451-1.139 2.621-2.593 2.662-5.264.13-7.903 2.469-8.187 2.734l-.197.15c-.219.18-.432.31-.655.4-.153.067-.31.088-.394.099-.167.048-.362.103-.604.103zm.713-20.673v18.263c.917-.761 3.997-2.945 9.271-3.076.361-.01.646-.301.646-.662v-16.613c0-.177-.073-.35-.202-.476-.089-.087-.224-.181-.518-.187-4.584.111-7.696 1.737-9.197 2.751zm-10.697 15.188c.426.012 5.508.211 8.697 2.586v-18.199c-3.641-2.191-8.61-2.324-8.663-2.325-.167.01-.367.08-.482.191-.123.12-.195.293-.195.471v16.615c-.002.356.287.65.643.661z" fill="#fff"/></g></g></svg>