<svg width="332" height="94" viewBox="0 0 332 94" xmlns="http://www.w3.org/2000/svg" xmlns:sketch="http://www.bohemiancoding.com/sketch/ns"><title>Group</title><desc>Created with Sketch.</desc><g sketch:type="MSShapeGroup" fill="none"><path d="M28.517 57.177c-.595 0-1.163-.186-1.645-.538l-4.521-3.283-4.522 3.285c-.958.7-2.33.701-3.288-.003-.977-.705-1.387-1.959-1.012-3.115l1.729-5.315-4.523-3.284c-.979-.711-1.387-1.964-1.018-3.119.384-1.161 1.453-1.935 2.664-1.935h5.583l1.73-5.312c.375-1.155 1.442-1.931 2.655-1.931 1.219 0 2.286.777 2.657 1.935l1.724 5.307h5.589c1.212 0 2.282.774 2.663 1.926.37 1.166-.039 2.417-1.015 3.127l-4.523 3.285 1.728 5.313c.375 1.159-.034 2.413-1.02 3.123-.464.343-1.048.534-1.635.534zm-6.165-6.412l5.755 4.18c.242.177.578.176.813.003.251-.181.352-.492.258-.78l-2.198-6.761 5.757-4.181c.243-.177.345-.492.252-.784-.093-.28-.362-.476-.668-.476h-7.112l-2.195-6.76c-.093-.29-.358-.482-.662-.482-.302 0-.567.194-.661.482l-2.203 6.76h-7.104c-.305 0-.573.196-.669.486-.091.282.011.596.255.773l5.758 4.18-2.201 6.763c-.091.281.013.599.252.772.249.183.582.177.819.004l5.754-4.179zM75.676 93.415h-67.98c-3.753 0-6.924-3.141-6.924-6.857v-79.307c0-3.726 3.171-6.873 6.924-6.873h67.98c3.668 0 6.767 3.147 6.767 6.873v79.307c-.001 3.716-3.099 6.857-6.767 6.857zm-67.981-90.94c-2.571 0-4.826 2.232-4.826 4.776v79.307c0 2.536 2.255 4.76 4.826 4.76h67.98c2.531 0 4.669-2.18 4.669-4.76v-79.307c0-2.589-2.138-4.776-4.669-4.776h-67.98z" id="Shape" fill="#3E3B3E"/><path id="Rectangle-path" fill="#6ABEEC" d="M7.751 7.358h67.71v21.746h-67.71z"/><path id="Rectangle-path" fill="#000" d="M40.864 45.849h25.702v2.097h-25.702zM40.864 52.272h15.323v2.098h-15.323zM40.864 39.918h25.702v2.097h-25.702z"/><path fill="#6ABEEC" d="M7.751 63.701h67.71v22.733h-67.71z"/><path d="M157.109 49.9l-12.138-13.354-2.459 2.234 8.516 9.371-6.444.003-3.321.002-30.034.008.002 3.32 30.032-.005 3.324-.001 5.893-.003-9.938 8.578 2.216 2.476 11.954-10.326.011.014 1.587-1.445.893-.797-.094-.075z" id="Shape" fill="#3E3B3E"/><g><path d="M189.5 87.5c-.553 0-1-.447-1-1v-65.085c0-.241.087-.474.245-.655l9-10.372c.272-.315.713-.427 1.104-.282.392.146.65.52.65.937v64.457c0 .553-.447 1-1 1-.553 0-1-.447-1-1v-61.779l-7 8.067v64.712c.001.553-.446 1-.999 1zM265.789 88.5h-76.725c-.389 0-.742-.225-.906-.577-.164-.352-.109-.767.14-1.064l9.211-11c.189-.228.471-.358.767-.358h76.799c.389 0 .743.226.907.579.164.353.108.769-.144 1.066l-9.285 11c-.19.224-.469.354-.764.354zm-74.583-2h74.118l7.598-9h-74.18l-7.536 9zM283.097 71.428l-71.777-.001-.314-.394c-11.227-14.033-13.02-50.223-13.302-60.98l-.028-1.076h72.773l.023 1.024c.226 9.733 1.733 42.814 11.702 59.849l.923 1.578zm-70.762-2.099l67.151.001c-9.121-17.247-10.784-47.612-11.084-58.256h-68.572c.362 11.625 2.298 44.888 12.505 58.255z" fill="#3E3B3E"/><path d="M299.748 81.984h-63.552c-11.03-13.788-12.791-49.671-13.072-60.352h70.674c.235 10.225 1.776 43.148 11.845 60.353l-5.895-.001z" fill="#6ABEEC"/><path d="M324.835 92.654h-63.554c-11.028-13.788-12.79-49.67-13.071-60.352h70.675c.235 10.226 1.775 43.148 11.844 60.353l-5.894-.001z" fill="#fff"/><path d="M330.748 93.704h-.02l-69.447-.001c-.318 0-.62-.146-.818-.394-11.222-14.029-13.018-50.221-13.301-60.978-.008-.283.1-.557.297-.759.197-.202.468-.317.751-.317h70.675c.569 0 1.035.455 1.048 1.024.224 9.703 1.722 42.612 11.611 59.694.158.184.253.422.253.683 0 .578-.47 1.048-1.049 1.048zm-68.955-2.099l67.152.001c-9.123-17.249-10.783-47.612-11.083-58.255h-68.573c.364 11.627 2.302 44.89 12.504 58.254z" fill="#3E3B3E"/><g fill="#3E3B3E"><path d="M265.864 69.035v-9.819h-3.517v-1.793h9.071v1.793h-3.518v9.819h-2.036zM281.289 69.035l-.853-2.246h-5.328l-.853 2.246h-2.315l4.562-11.612h2.542l4.562 11.612h-2.317zm-3.517-9.575l-2.089 5.536h4.178l-2.089-5.536zM284.109 67.398l1.149-1.584c.783.853 2.055 1.619 3.674 1.619 1.671 0 2.315-.818 2.315-1.602 0-2.438-6.756-.923-6.756-5.188 0-1.933 1.672-3.412 4.231-3.412 1.793 0 3.272.592 4.335 1.636l-1.149 1.515c-.923-.922-2.159-1.34-3.377-1.34-1.185 0-1.95.592-1.95 1.444 0 2.177 6.755.836 6.755 5.154 0 1.932-1.375 3.604-4.492 3.604-2.14 0-3.69-.765-4.735-1.846zM302.146 69.035l-3.882-4.91-1.027 1.202v3.708h-2.037v-11.612h2.037v5.519l4.544-5.519h2.524l-4.719 5.467 5.084 6.146h-2.524v-.001zM305.262 67.398l1.149-1.584c.783.853 2.055 1.619 3.674 1.619 1.671 0 2.315-.818 2.315-1.602 0-2.438-6.756-.923-6.756-5.188 0-1.933 1.672-3.412 4.231-3.412 1.793 0 3.272.592 4.335 1.636l-1.149 1.515c-.923-.922-2.159-1.34-3.377-1.34-1.185 0-1.95.592-1.95 1.444 0 2.177 6.755.836 6.755 5.154 0 1.932-1.375 3.604-4.492 3.604-2.141 0-3.69-.765-4.735-1.846z"/></g></g></g></svg>