<svg width="100" height="127" viewBox="0 0 100 127" xmlns="http://www.w3.org/2000/svg" xmlns:sketch="http://www.bohemiancoding.com/sketch/ns"><title>Group</title><desc>Created with Sketch.</desc><g sketch:type="MSShapeGroup" fill="none"><path d="M94.532 126.615h-89.08c-3.006 0-5.452-2.445-5.452-5.449v-107.997c0-3.006 2.446-5.451 5.452-5.451h89.081c3.005 0 5.45 2.444 5.45 5.449v107.999c-.001 3.003-2.446 5.449-5.451 5.449zm-89.08-116.897c-1.904 0-3.452 1.548-3.452 3.451v107.997c0 1.902 1.548 3.449 3.452 3.449h89.081c1.902 0 3.45-1.547 3.45-3.449v-107.999c0-1.902-1.548-3.449-3.45-3.449h-89.081zM92.797 117.224h-85.727v-103.145h10.51v2h-8.51v99.145h81.727v-99.143h-7.795v-2h9.795v103.143z" id="Shape" fill="#3E3B3E"/><path id="Rectangle-path" fill="#6ABEEC" d="M48.04 37.473h33.851v1.909h-33.851zM48.04 43.776h33.851v1.91h-33.851z"/><path id="Rectangle-path" fill="#3E3B3E" d="M48.04 94.697h33.851v1.908h-33.851zM48.04 101.003h33.851v1.908h-33.851z"/><path d="M38.192 108.039h-20.502v-20.502h20.502v20.502zm-18.502-2h16.502v-16.502h-16.502v16.502z" id="Shape" fill="#3E3B3E"/><path fill="#6ABEEC" d="M48.04 66.087h33.851v1.91h-33.851zM48.04 72.39h33.851v1.908h-33.851z"/><path d="M20.639 15.081l-1.27 2.783h61.842l-1.266-2.783h-59.306z" id="Shape" fill="#000"/><path d="M81.793 19.144c-.255-.59-4.543-9.949-4.543-9.949s-1.242-2.781-2.783-2.781h-11.805c-1.769 0-3.206-1.436-3.206-3.206v-.426c0-1.539-1.242-2.782-2.78-2.782h-12.384c-1.54 0-2.783 1.243-2.783 2.782v.425c0 1.771-1.437 3.206-3.206 3.206h-12.192c-1.54 0-2.783 2.781-2.783 2.781s-4.289 9.359-4.544 9.949c-.255.592.004 1.102.527 1.102h61.951c.525 0 .787-.51.531-1.101z" id="Shape" fill="#3E3B3E"/><path d="M50.484 2.618c1.154 0 2.09.935 2.09 2.089 0 1.155-.936 2.09-2.09 2.09-1.152 0-2.089-.935-2.089-2.09.003-1.154.938-2.089 2.089-2.089z" id="Shape" fill="#fff"/><path d="M37.413 36.445h-5.782l-1.784-5.495c-.211-.657-.82-1.099-1.51-1.099-.688 0-1.297.441-1.51 1.099l-1.79 5.495h-5.777c-.688 0-1.299.443-1.515 1.098-.21.655.023 1.372.577 1.775l4.679 3.397-1.787 5.497c-.211.651.021 1.371.577 1.773.555.406 1.312.406 1.868 0l4.679-3.397 4.677 3.397c.28.204.607.306.935.306.323 0 .653-.102.933-.306.559-.402.788-1.122.578-1.773l-1.788-5.497 4.679-3.397c.554-.403.786-1.121.578-1.775-.216-.654-.828-1.098-1.517-1.098zM37.413 65.248h-5.782l-1.784-5.495c-.211-.656-.82-1.099-1.51-1.099-.688 0-1.297.442-1.51 1.099l-1.79 5.495h-5.777c-.688 0-1.299.443-1.515 1.1-.21.654.023 1.369.577 1.775l4.679 3.396-1.787 5.498c-.211.65.021 1.369.577 1.773.555.404 1.312.404 1.868 0l4.679-3.398 4.677 3.398c.28.203.607.303.935.303.323 0 .653-.1.933-.303.559-.404.788-1.123.578-1.773l-1.788-5.498 4.679-3.396c.554-.406.786-1.123.578-1.775-.216-.657-.828-1.1-1.517-1.1z" fill="#6ABEEC"/></g></svg>