<svg width="210" height="173" viewBox="0 0 210 173" xmlns="http://www.w3.org/2000/svg" xmlns:sketch="http://www.bohemiancoding.com/sketch/ns"><title>Group</title><desc>Created with Sketch.</desc><g sketch:type="MSShapeGroup" fill="none"><g id="Shape" fill="#3E3B3E"><path d="M36.487 62.21c6.506 0 11.832 5.296 11.874 11.805.035 6.544-5.26 11.899-11.804 11.938h-.069c-6.51 0-11.836-5.297-11.872-11.811-.019-3.161 1.201-6.146 3.435-8.404s5.207-3.511 8.37-3.528h.066zm0-2h-.077c-7.644.042-13.84 6.301-13.794 13.944.042 7.626 6.255 13.798 13.872 13.798h.081c7.646-.045 13.833-6.299 13.792-13.948-.049-7.62-6.262-13.794-13.874-13.794zM60.471 116.7c-.485 0-.912-.354-.987-.849l-2.396-15.672-.011-.122c-.128-4.423-3.83-8.021-8.251-8.021h-24.663c-4.421 0-8.119 3.598-8.244 8.021l-.009.112-2.233 15.672c-.079.547-.591.925-1.131.85-.547-.078-.927-.585-.849-1.131l2.226-15.617c.185-5.468 4.767-9.906 10.241-9.906h24.663c5.471 0 10.055 4.436 10.248 9.9l2.387 15.612c.083.546-.291 1.057-.837 1.14l-.154.011z"/></g><g id="Shape" fill="#3E3B3E"><path d="M139.936 62.21c6.506 0 11.831 5.296 11.873 11.806.037 6.543-5.259 11.898-11.804 11.937h-.069c-6.509 0-11.835-5.298-11.871-11.811-.02-3.161 1.2-6.146 3.434-8.404s5.207-3.511 8.371-3.528h.066zm0-2h-.077c-7.646.042-13.841 6.301-13.794 13.944.043 7.626 6.255 13.798 13.871 13.798h.081c7.647-.045 13.835-6.299 13.792-13.948-.049-7.62-6.259-13.794-13.873-13.794zM163.92 116.7c-.485 0-.912-.354-.987-.849l-2.396-15.672-.012-.122c-.13-4.423-3.831-8.021-8.25-8.021h-24.664c-4.423 0-8.12 3.598-8.242 8.02l-.01.114-2.234 15.672c-.078.546-.573.926-1.132.849-.546-.078-.927-.585-.849-1.132l2.227-15.616c.183-5.468 4.765-9.906 10.24-9.906h24.664c5.469 0 10.053 4.436 10.247 9.9l2.387 15.612c.084.546-.291 1.057-.837 1.14l-.152.011z"/></g><g id="Shape" fill="#3E3B3E"><path d="M89.003 36.064c5.144 0 9.355 4.187 9.387 9.331.028 5.171-4.158 9.404-9.33 9.436h-.055c-5.145 0-9.354-4.188-9.384-9.334-.03-5.17 4.156-9.401 9.33-9.432h.052v-.001zm0-2h-.062c-6.273.037-11.356 5.17-11.32 11.443.037 6.259 5.134 11.323 11.384 11.323h.066c6.274-.038 11.352-5.17 11.318-11.446-.038-6.255-5.137-11.32-11.386-11.32zM108.687 80.599c-.485 0-.912-.354-.987-.849l-1.967-12.86-.011-.122c-.103-3.534-3.06-6.409-6.591-6.409h-20.239c-3.533 0-6.486 2.874-6.583 6.407l-.01.114-1.834 12.86c-.078.547-.589.923-1.131.849-.547-.078-.927-.584-.849-1.131l1.826-12.805c.158-4.578 3.995-8.293 8.581-8.293h20.238c4.582 0 8.421 3.711 8.588 8.287l1.958 12.801c.084.546-.291 1.056-.837 1.14l-.152.011z"/></g><g id="Shape"><path d="M125.281 133.281h-73.63l12.169-53.682h48.955l12.506 53.682z" fill="#F0F0F0"/><path d="M126.541 134.281h-76.142l12.623-55.683h50.548l12.971 55.683zm-73.638-2h71.119l-12.04-51.683h-47.363l-11.716 51.683z" fill="#3E3B3E"/></g><path d="M41.24 159.292c-.109 0-.217-.038-.325-.076-1.546-.787-5.895-2.908-7.406-2.908h-.178c-3.274 1.76-6.978 2.695-10.716 2.695-12.477 0-22.615-10.139-22.615-22.578s10.138-22.58 22.615-22.58c12.476 0 22.614 10.141 22.614 22.58 0 5.32-1.869 10.461-5.286 14.525-.214.754.829 4.386 1.979 7.369.109.286.038.611-.178.793-.182.104-.328.18-.504.18zM56.843 45.447c-.109 0-.217-.038-.325-.075-1.546-.787-5.895-2.909-7.406-2.909h-.178c-3.274 1.76-6.978 2.696-10.716 2.696-12.477 0-22.614-10.14-22.614-22.578 0-12.44 10.137-22.581 22.614-22.581s22.615 10.141 22.615 22.581c0 5.319-1.87 10.46-5.286 14.525-.214.753.829 4.386 1.979 7.37.109.286.038.611-.178.792-.183.104-.328.179-.505.179zM167.406 74.981c-.216-.182-.287-.507-.178-.793 1.149-2.982 2.193-6.615 1.979-7.368-3.417-4.066-5.286-9.206-5.286-14.526 0-12.44 10.138-22.581 22.614-22.581s22.615 10.141 22.615 22.581-10.139 22.578-22.615 22.578c-3.738 0-7.442-.936-10.717-2.694h-.178c-1.51 0-5.859 2.12-7.405 2.907-.108.039-.216.076-.325.076-.176-.001-.322-.077-.504-.18z" id="Shape" fill="#6ABEEC"/><g id="Shape" fill="#fff"><path d="M34.263 142.104h-23.62c-.396 0-.72-.324-.72-.72 0-.396.323-.718.72-.718h23.62c.398 0 .721.321.721.718 0 .396-.323.72-.721.72zM34.263 142.604h-23.62c-.672 0-1.22-.547-1.22-1.22 0-.672.547-1.218 1.22-1.218h23.62c.673 0 1.221.546 1.221 1.218 0 .674-.547 1.22-1.221 1.22zm-23.619-1.437c-.121 0-.22.098-.22.218 0 .119.101.22.22.22h23.62c.122 0 .221-.099.221-.22 0-.12-.099-.218-.221-.218h-23.62z"/></g><g id="Shape" fill="#fff"><path d="M34.263 129.413h-23.62c-.396 0-.72-.326-.72-.718 0-.395.323-.72.72-.72h23.62c.398 0 .721.325.721.72 0 .392-.323.718-.721.718zM34.263 129.913h-23.62c-.672 0-1.22-.546-1.22-1.218 0-.673.547-1.22 1.22-1.22h23.62c.673 0 1.221.547 1.221 1.22 0 .672-.547 1.218-1.221 1.218zm-23.619-1.437c-.119 0-.22.101-.22.22 0 .118.101.218.22.218h23.62c.12 0 .221-.1.221-.218 0-.119-.101-.22-.221-.22h-23.62z"/></g><g id="Shape" fill="#fff"><path d="M34.263 133.655h-23.62c-.396 0-.72-.322-.72-.717 0-.398.323-.72.72-.72h23.62c.398 0 .721.321.721.72 0 .395-.323.717-.721.717zM34.263 134.155h-23.62c-.672 0-1.22-.546-1.22-1.217 0-.673.547-1.22 1.22-1.22h23.62c.673 0 1.221.547 1.221 1.22 0 .671-.547 1.217-1.221 1.217zm-23.619-1.436c-.121 0-.22.099-.22.22 0 .119.099.217.22.217h23.62c.122 0 .221-.098.221-.217 0-.121-.099-.22-.221-.22h-23.62z"/></g><g id="Shape" fill="#fff"><path d="M34.263 137.862h-23.62c-.396 0-.72-.322-.72-.721 0-.393.323-.717.72-.717h23.62c.398 0 .721.324.721.717 0 .399-.323.721-.721.721zM34.263 138.362h-23.62c-.672 0-1.22-.548-1.22-1.221 0-.671.547-1.217 1.22-1.217h23.62c.673 0 1.221.546 1.221 1.217 0 .673-.547 1.221-1.221 1.221zm-23.619-1.437c-.119 0-.22.1-.22.217 0 .122.099.221.22.221h23.62c.122 0 .221-.099.221-.221 0-.117-.101-.217-.221-.217h-23.62z"/></g><g id="Shape" fill="#fff"><path d="M19.237 146.347h-8.593c-.396 0-.72-.324-.72-.718 0-.394.323-.722.72-.722h8.593c.394 0 .717.328.717.722 0 .394-.324.718-.717.718zM19.237 146.847h-8.593c-.672 0-1.22-.546-1.22-1.218 0-.674.547-1.222 1.22-1.222h8.593c.671 0 1.217.548 1.217 1.222 0 .672-.546 1.218-1.217 1.218zm-8.593-1.44c-.119 0-.22.102-.22.222 0 .118.101.218.22.218h8.593c.118 0 .217-.1.217-.218s-.102-.222-.217-.222h-8.593z"/></g><g id="Shape"><path d="M86.388 138.836c-8.236 0-14.974-6.705-15.02-14.946-.023-4.003 1.521-7.781 4.349-10.639 2.827-2.857 6.589-4.442 10.593-4.465 8.319 0 15.061 6.703 15.113 14.942.045 8.281-6.658 15.059-14.942 15.107h-.093v.001z" fill="#F0F0F0"/><path d="M86.395 109.786c7.687 0 13.98 6.257 14.029 13.946.042 7.731-6.215 14.059-13.948 14.104h-.087c-7.688 0-13.977-6.259-14.02-13.952-.021-3.735 1.42-7.262 4.06-9.93 2.64-2.667 6.151-4.147 9.888-4.168h.078zm0-2h-.09c-8.83.049-15.987 7.279-15.937 16.109.049 8.81 7.224 15.94 16.02 15.94h.099c8.833-.052 15.984-7.277 15.937-16.114-.057-8.802-7.235-15.935-16.029-15.935z" fill="#3E3B3E"/><path d="M114.104 171.894l-2.769-18.106c-.166-5.753-4.894-10.388-10.687-10.388h-28.49c-5.789 0-10.519 4.635-10.678 10.388l-2.581 18.106" fill="#F0F0F0"/><path d="M113.116 172.045l-2.78-18.229c-.149-5.192-4.495-9.417-9.687-9.417h-28.491c-5.193 0-9.535 4.224-9.679 9.415l-.009.114-2.582 18.106-1.98-.283 2.573-18.051c.205-6.237 5.43-11.302 11.676-11.302h28.492c6.242 0 11.47 5.062 11.685 11.296l2.759 18.047-1.977.304z" fill="#3E3B3E"/></g><g fill="#fff"><path d="M25.156 22.521h3.835v7.192h-3.835zM33.306 19.166h3.835v10.547h-3.835zM40.975 22.521h3.835v7.192h-3.835zM48.166 19.166h3.835v10.547h-3.835z"/><path d="M35.652 15.12l7.752 4.965 10.717-7.753-1.124-1.553-9.657 6.988-7.588-4.861-13.436 6.908.888 1.699 12.448-6.393z" id="Shape"/></g><g fill="#fff"><path d="M189.566 58.735h-6.574c-.373 0-.711-.221-.859-.564l-3.657-8.395c-.208-.476.011-1.029.487-1.235.475-.207 1.027.009 1.234.485l3.412 7.832h5.342l3.41-7.832c.208-.474.761-.692 1.237-.485.475.206.692.759.485 1.235l-3.656 8.395c-.149.343-.486.564-.861.564zM193.247 50.286c-.118 0-.237-.022-.353-.07-.48-.193-.713-.742-.519-1.222.316-.784.479-1.613.479-2.466 0-3.625-2.951-6.573-6.574-6.573-3.626 0-6.574 2.948-6.574 6.573 0 .853.162 1.682.479 2.466.194.48-.038 1.029-.52 1.222-.48.196-1.028-.036-1.221-.518-.41-1.008-.617-2.075-.617-3.17 0-4.66 3.793-8.452 8.453-8.452 4.66 0 8.45 3.792 8.45 8.452 0 1.095-.206 2.162-.614 3.17-.147.365-.499.588-.869.588zM186.281 58.735c-.52 0-.94-.42-.94-.94v-6.546c0-.518.421-.938.94-.938.518 0 .938.42.938.938v6.546c0 .519-.42.94-.938.94zM190.037 61.552h-7.045c-.518 0-.938-.42-.938-.94s.42-.938.938-.938h7.045c.519 0 .938.418.938.938s-.419.94-.938.94zM189.803 64.37h-7.044c-.52 0-.939-.42-.939-.94s.42-.939.939-.939h7.044c.52 0 .938.42.938.939 0 .519-.419.94-.938.94zM184.401 66.247c-.519 0-.938-.42-.938-.939v-1.878c0-.52.42-.939.938-.939.521 0 .939.42.939.939v1.878c.001.519-.418.939-.939.939zM186.281 68.126c-1.555 0-2.818-1.265-2.818-2.819 0-.518.42-.938.938-.938.521 0 .939.42.939.938s.423.939.94.939c.516 0 .938-.421.938-.939v-1.613c0-.52.422-.939.939-.939.52 0 .939.42.939.939v1.613c.002 1.555-1.262 2.819-2.815 2.819zM186.281 52.19c-1.555 0-2.818-1.266-2.818-2.817 0-.52.42-.941.938-.941.521 0 .939.421.939.941 0 .515.423.938.94.938.516 0 .938-.423.938-.938 0-.52.422-.941.939-.941.52 0 .939.421.939.941.002 1.551-1.262 2.817-2.815 2.817z"/></g></g></svg>