<svg width="90" height="57" viewBox="0 0 90 57" xmlns="http://www.w3.org/2000/svg" xmlns:sketch="http://www.bohemiancoding.com/sketch/ns"><title>sitemap</title><desc>Created with Sketch.</desc><path d="M64.158 2l.064.064v19.609l-.064.064h-36.980000000000004l-.064-.064v-19.609l.064-.064h36.98zm23.651 32.762l.064.063v19.61l-.064.064h-36.98l-.064-.064v-19.61l.064-.063h36.98zm-48.765 0l.064.063v19.61l-.064.064h-36.981l-.063-.063v-19.61l.063-.063h36.981v-.001zm25.114-34.762h-36.98c-1.141 0-2.064.925-2.064 2.064v19.609c0 1.139.924 2.064 2.064 2.064h17.795v3.308h-29.622v5.717h-13.288c-1.138 0-2.063.924-2.063 2.064v19.61c0 1.14.925 2.064 2.063 2.064h36.98c1.142 0 2.064-.925 2.064-2.064v-19.61c0-1.14-.923-2.063-2.064-2.063h-22.3v-4.324h57.848v4.324h-23.763c-1.138 0-2.064.924-2.064 2.063v19.61c0 1.14.927 2.064 2.064 2.064h36.98c1.142 0 2.064-.925 2.064-2.064v-19.61c0-1.14-.923-2.063-2.064-2.063h-11.823v-5.717h-29.619999999999997v-3.308h17.793c1.142 0 2.064-.925 2.064-2.064v-19.61c.001-1.139-.922-2.064-2.064-2.064z" sketch:type="MSShapeGroup" fill="#3E3B3E"/></svg>