<svg width="115" height="66" viewBox="0 0 115 66" xmlns="http://www.w3.org/2000/svg" xmlns:sketch="http://www.bohemiancoding.com/sketch/ns"><title>wireframes</title><desc>Created with Sketch.</desc><g sketch:type="MSShapeGroup" fill="none"><path d="M113.405 57.45c0 1.656-1.343 3-3 3h-78c-1.657 0-3-1.344-3-3v-53c0-1.656 1.343-3 3-3h78c1.657 0 3 1.344 3 3v53z" id="Shape" fill="#F0F0F0"/><g fill="#3E3B3E" transform="translate(28)"><g id="Shape"><path d="M76.325 35.382l-23.512-.014c-.274 0-.497-.224-.497-.498l.012-16.951c0-.132.052-.26.144-.352.094-.094.222-.146.352-.146l23.512.015c.135 0 .261.054.355.145.092.095.146.222.146.354l-.013 16.949c-.001.275-.223.498-.499.498zm-23.012-1.01l22.515.014.012-15.954-22.517-.014-.01 15.954zM76.325 35.507l-23.512-.014c-.343 0-.622-.279-.622-.623l.012-16.951c0-.165.065-.325.181-.44.116-.116.276-.183.439-.183l23.512.015c.164 0 .321.063.442.18.119.123.184.28.184.444l-.013 16.949c0 .344-.279.623-.623.623zm-23.502-17.961c-.098 0-.193.04-.263.11-.068.067-.107.163-.107.263l-.012 16.951c0 .206.167.373.372.373l23.512.014c.206 0 .373-.167.373-.373l.013-16.949c0-.098-.04-.195-.11-.268-.07-.067-.166-.106-.266-.106l-23.512-.015zm23.129 16.965l-22.765-.014.01-16.204 22.767.014-.012 16.204zm-22.514-.264l22.265.014.012-15.704-22.267-.014-.01 15.704zM73.843 35.1c-.155 0-.309-.071-.403-.206l-6.06-8.332-3.682 3.996c-.108.115-.26.174-.414.158-.154-.015-.292-.1-.377-.23l-5.569-8.871-4.228 3.008c-.226.16-.537.107-.696-.117-.158-.225-.104-.535.118-.695l4.658-3.313c.114-.081.251-.111.387-.083.136.025.252.108.326.224l5.503 8.766 3.654-3.964c.102-.109.246-.166.394-.158.149.008.286.082.373.203l6.417 8.824c.159.225.113.535-.11.696-.09.062-.193.094-.291.094zM71.185 24.897c-.606 0-1.18-.237-1.609-.668-.429-.43-.666-1.002-.663-1.609 0-1.254 1.021-2.272 2.272-2.272.608 0 1.18.237 1.608.667.432.43.668 1 .668 1.609 0 1.254-1.023 2.273-2.276 2.273z"/></g><path d="M85.712 60.796h-84.716c-.55 0-.996-.445-.996-.996v-50.83c0-.551.446-.996.996-.996h84.716c.553 0 .999.445.999.996v50.83c0 .551-.446.996-.999.996zm-83.941-1.568h83.168v-49.686h-83.168v49.686zM85.712 9.966c-.549 0-.995-.445-.995-.996v-4.984c0-1.174-.85-1.993-2.063-1.993h-78.347c-1.273 0-2.313.895-2.313 1.993v4.984c0 .551-.445.996-.997.996-.551 0-.997-.445-.997-.996v-4.984c0-2.198 1.933-3.986 4.307-3.986h78.345c2.314 0 4.06 1.714 4.06 3.986v4.984c-.001.551-.447.996-1 .996zM79.733 40.866h-71.76c-1.1 0-1.995-.896-1.995-1.996v-24.917c0-1.101.895-1.996 1.995-1.996h71.76c1.102 0 1.997.896 1.997 1.996v24.917c0 1.101-.895 1.996-1.997 1.996zm-.003-26.913l-71.757.004.005 24.913 71.757-.004-.005-24.913z" id="Shape"/><g id="Shape"><path d="M46.844 19.934h-30.898c-.275 0-.498-.224-.498-.499 0-.274.223-.498.498-.498h30.897c.274 0 .499.224.499.498.001.275-.224.499-.498.499zM46.844 20.434h-30.898c-.55 0-.998-.448-.998-.999 0-.551.448-.998.998-.998h30.897c.551 0 .999.447.999.998 0 .551-.447.999-.998.999zm0-1v.5-.5z"/></g><g id="Shape"><path d="M30.896 23.92h-14.95c-.275 0-.498-.224-.498-.499 0-.273.223-.497.498-.497h14.95c.276 0 .499.224.499.497.001.275-.222.499-.499.499zM30.896 24.42h-14.95c-.55 0-.998-.448-.998-.999 0-.55.448-.997.998-.997h14.95c.551 0 .999.447.999.997.001.551-.448.999-.999.999zm0-1v.5-.5z"/></g><g id="Shape"><path d="M38.869 27.907h-22.923c-.275 0-.498-.225-.498-.5 0-.273.223-.498.498-.498h22.923c.277 0 .5.225.5.498 0 .276-.223.5-.5.5zM38.869 28.407h-22.923c-.55 0-.998-.448-.998-1 0-.551.448-.998.998-.998h22.923c.552 0 1 .447 1 .998 0 .552-.448 1-1 1zm0-1v.5-.5z"/></g><path d="M54.816 46.387h-22.922c-.551 0-.997-.242-.997-.54 0-.299.446-.54.997-.54h22.923c.552 0 .998.241.998.54-.001.298-.447.54-.999.54zM50.828 51.37h-13.95c-.553 0-.998-.242-.998-.541 0-.299.445-.539.998-.539h13.95c.554 0 1 .24 1 .539 0 .299-.446.541-1 .541z" id="Shape"/><circle id="Oval" cx="6.505" cy="5.008" r="1.271"/><circle id="Oval" cx="10.59" cy="5.008" r="1.271"/><circle id="Oval" cx="14.677" cy="5.008" r="1.271"/><circle id="Oval" cx="40.614" cy="33.637" r=".997"/><circle id="Oval" cx="43.605" cy="33.637" r=".997"/><circle id="Oval" cx="46.595" cy="33.637" r=".997"/></g><path d="M85.405 62.45c0 1.656-1.343 3-3 3h-78c-1.657 0-3-1.344-3-3v-53c0-1.656 1.343-3 3-3h78c1.657 0 3 1.344 3 3v53z" id="Shape" fill="#F0F0F0"/><g fill="#3E3B3E" transform="translate(0 5)"><g id="Shape"><path d="M76.325 35.382l-23.512-.014c-.274 0-.497-.224-.497-.498l.012-16.951c0-.132.052-.26.144-.352.094-.094.222-.146.352-.146l23.512.015c.135 0 .261.054.355.145.092.095.146.222.146.354l-.013 16.949c-.001.275-.223.498-.499.498zm-23.012-1.01l22.515.014.012-15.954-22.517-.014-.01 15.954zM76.325 35.507l-23.512-.014c-.343 0-.622-.279-.622-.623l.012-16.951c0-.165.065-.325.18-.44.116-.116.277-.183.44-.183l23.512.015c.164 0 .321.063.442.18.119.123.184.28.184.444l-.013 16.949c0 .344-.279.623-.623.623zm-23.502-17.961c-.098 0-.193.04-.263.11-.068.067-.107.163-.107.263l-.012 16.951c0 .206.167.373.372.373l23.512.014c.206 0 .373-.167.373-.373l.013-16.949c0-.098-.04-.195-.11-.268-.07-.067-.166-.106-.266-.106l-23.512-.015zm23.129 16.965l-22.765-.014.01-16.204 22.767.014-.012 16.204zm-22.514-.264l22.265.014.012-15.704-22.267-.014-.01 15.704zM73.843 35.1c-.155 0-.309-.071-.403-.206l-6.06-8.332-3.682 3.996c-.108.115-.26.174-.414.158-.154-.015-.292-.1-.377-.23l-5.569-8.871-4.228 3.008c-.226.16-.537.107-.696-.117-.158-.225-.104-.535.118-.695l4.658-3.313c.114-.081.251-.111.387-.083.136.025.252.108.326.224l5.503 8.766 3.654-3.964c.102-.109.246-.166.394-.158.149.008.286.082.373.203l6.417 8.824c.159.225.113.535-.11.696-.09.062-.193.094-.291.094zM71.185 24.897c-.606 0-1.18-.237-1.609-.668-.429-.43-.666-1.002-.663-1.609 0-1.254 1.021-2.272 2.272-2.272.608 0 1.18.237 1.608.667.432.43.668 1 .668 1.609 0 1.254-1.023 2.273-2.276 2.273z"/></g><path d="M85.712 60.796h-84.716c-.55 0-.996-.445-.996-.996v-50.83c0-.551.446-.996.996-.996h84.716c.553 0 .999.445.999.996v50.83c0 .551-.446.996-.999.996zm-83.941-1.568h83.168v-49.686h-83.168v49.686zM85.712 9.966c-.549 0-.995-.445-.995-.996v-4.984c0-1.174-.85-1.993-2.063-1.993h-78.347c-1.273 0-2.313.895-2.313 1.993v4.983c0 .551-.445.996-.997.996-.551.001-.997-.444-.997-.995v-4.984c0-2.198 1.933-3.986 4.307-3.986h78.345c2.314 0 4.06 1.714 4.06 3.986v4.983c-.001.552-.447.997-1 .997zM79.733 40.866h-71.759c-1.1 0-1.995-.896-1.995-1.996v-24.917c0-1.101.895-1.996 1.995-1.996h71.76c1.102 0 1.997.896 1.997 1.996v24.917c-.001 1.101-.896 1.996-1.998 1.996zm-.003-26.913l-71.756.004.005 24.913 71.757-.004-.006-24.913z" id="Shape"/><g id="Shape"><path d="M46.844 19.934h-30.898c-.275 0-.498-.224-.498-.499 0-.274.223-.498.498-.498h30.897c.274 0 .499.224.499.498.001.275-.224.499-.498.499zM46.844 20.184h-30.898c-.413 0-.748-.336-.748-.749 0-.412.335-.748.748-.748h30.897c.413 0 .749.336.749.748.001.413-.335.749-.748.749zm-30.898-.997c-.137 0-.248.111-.248.248 0 .138.111.249.248.249h30.897c.137 0 .249-.111.249-.249 0-.137-.112-.248-.249-.248h-30.897z"/></g><g id="Shape"><path d="M30.896 23.92h-14.95c-.275 0-.498-.224-.498-.499 0-.273.223-.497.498-.497h14.95c.276 0 .499.224.499.497.001.275-.222.499-.499.499zM30.896 24.17h-14.95c-.413 0-.748-.336-.748-.749 0-.412.335-.747.748-.747h14.95c.413 0 .749.335.749.747.001.413-.335.749-.749.749zm-14.95-.996c-.137 0-.248.11-.248.247 0 .138.111.249.248.249h14.95c.137 0 .249-.111.249-.249 0-.137-.112-.247-.249-.247h-14.95z"/></g><g id="Shape"><path d="M38.869 27.907h-22.923c-.275 0-.498-.225-.498-.5 0-.273.223-.498.498-.498h22.923c.277 0 .5.225.5.498 0 .276-.223.5-.5.5zM38.869 28.157h-22.923c-.413 0-.748-.337-.748-.75 0-.412.335-.748.748-.748h22.923c.414 0 .75.336.75.748 0 .413-.336.75-.75.75zm-22.923-.998c-.137 0-.248.111-.248.248 0 .138.111.25.248.25h22.923c.138 0 .25-.112.25-.25 0-.137-.112-.248-.25-.248h-22.923z"/></g><g id="Shape"><path d="M54.816 46.387h-22.922c-.551 0-.997-.242-.997-.54 0-.299.446-.54.997-.54h22.923c.552 0 .998.241.998.54-.001.298-.447.54-.999.54zM54.816 46.512h-22.922c-.629 0-1.122-.292-1.122-.665 0-.373.493-.665 1.122-.665h22.923c.63 0 1.123.292 1.123.665 0 .373-.494.665-1.124.665zm-22.922-1.08c-.514 0-.872.219-.872.415 0 .196.358.415.872.415h22.923c.515 0 .873-.219.873-.415 0-.196-.358-.415-.873-.415h-22.923z"/></g><g><path d="M50.828 51.37h-13.95c-.553 0-.998-.242-.998-.541 0-.299.445-.539.998-.539h13.95c.554 0 1 .24 1 .539 0 .299-.446.541-1 .541zM50.828 51.495h-13.95c-.63 0-1.123-.293-1.123-.666 0-.372.493-.664 1.123-.664h13.95c.631 0 1.125.292 1.125.664 0 .373-.494.666-1.125.666zm-13.95-1.08c-.515 0-.873.218-.873.414 0 .196.358.416.873.416h13.95c.516 0 .875-.22.875-.416 0-.196-.359-.414-.875-.414h-13.95z"/></g><circle id="Oval" cx="6.505" cy="5.008" r="1.271"/><circle id="Oval" cx="10.59" cy="5.008" r="1.271"/><circle id="Oval" cx="14.677" cy="5.008" r="1.271"/><circle id="Oval" cx="40.614" cy="33.637" r=".997"/><circle id="Oval" cx="43.605" cy="33.637" r=".997"/><circle cx="46.595" cy="33.637" r=".997"/></g></g></svg>