<?xml version="1.0" encoding="UTF-8" standalone="no"?>
<svg width="332px" height="371px" viewBox="0 0 332 371" version="1.1" xmlns="http://www.w3.org/2000/svg" xmlns:xlink="http://www.w3.org/1999/xlink" xmlns:sketch="http://www.bohemiancoding.com/sketch/ns">
    <!-- Generator: Sketch 3.3.2 (12043) - http://www.bohemiancoding.com/sketch -->
    <title>bgi--pattern-circles</title>
    <desc>Created with Sketch.</desc>
    <defs>
        <path id="path-1" d="M0,0 L332,0 L332,371 L0,371 L0,0 Z"></path>
    </defs>
    <g id="Page-1" stroke="none" stroke-width="1" fill="none" fill-rule="evenodd" sketch:type="MSPage"  opacity="0.1">
        <g id="bgi--pattern-circles" sketch:type="MSLayerGroup">
            <g>
                <g id="b" sketch:type="MSShapeGroup">
                    <path d="M0,0 L332,0 L332,371 L0,371 L0,0 Z" id="a"></path>
                </g>
                <g id="Clipped">
                    <mask id="mask-2" sketch:name="a" fill="white">
                        <use xlink:href="#path-1"></use>
                    </mask>
                    <g id="a"></g>
                    <g id="Group" mask="url(#mask-2)">
                        <g transform="translate(-72.000000, -54.000000)">
                            <g>
                                <g id="Shape" fill="#FFFFFF" sketch:type="MSShapeGroup">
                                    <path d="M76.224,0.881 C46.101,0.881 20.473,20.235 11.381,47.018 L0.553,47.018 L20.2,72.54 L39.847,47.018 L30.306,47.018 C38.461,30.032 55.972,18.248 76.226,18.248 C104.242,18.248 127.036,40.775 127.036,68.463 C127.036,96.153 104.242,118.679 76.226,118.679 C49.674,118.679 27.829,98.441 25.616,72.755 L20.202,79.79 L8.002,63.942 C7.901,65.436 7.846,66.944 7.846,68.463 C7.846,105.729 38.521,136.046 76.228,136.046 C113.935,136.046 144.611,105.729 144.611,68.463 C144.608,31.198 113.932,0.881 76.226,0.881 L76.224,0.881 Z M191.302,76.677 C169.198,76.677 150.393,90.879 143.721,110.532 L135.775,110.532 L150.191,129.26 L164.607,110.532 L157.606,110.532 C163.59,98.068 176.438,89.421 191.301,89.421 C211.86,89.421 228.585,105.952 228.585,126.269 C228.585,146.587 211.86,163.117 191.301,163.117 C171.818,163.117 155.787,148.266 154.163,129.419 L150.189,134.581 L141.236,122.951 C141.163,124.048 141.122,125.154 141.122,126.269 C141.122,153.614 163.632,175.862 191.3,175.862 C218.97,175.862 241.48,153.615 241.48,126.269 C241.48,98.924 218.97,76.677 191.3,76.677 L191.302,76.677 Z M204.562,0.881 C189.632,0.881 176.929,10.473 172.424,23.748 L167.058,23.748 L176.794,36.398 L186.532,23.748 L181.802,23.748 C185.844,15.33 194.522,9.489 204.562,9.489 C218.447,9.489 229.745,20.654 229.745,34.377 C229.745,48.101 218.448,59.265 204.562,59.265 C191.402,59.265 180.574,49.234 179.478,36.504 L176.794,39.991 L170.747,32.136 C170.698,32.876 170.67,33.624 170.67,34.377 C170.67,52.847 185.873,67.873 204.562,67.873 C223.251,67.873 238.454,52.847 238.454,34.377 C238.454,15.907 223.251,0.881 204.562,0.881 L204.562,0.881 Z M285.796,73.187 C270.866,73.187 258.163,82.779 253.658,96.054 L248.292,96.054 L258.028,108.704 L267.766,96.054 L263.036,96.054 C267.078,87.636 275.756,81.795 285.796,81.795 C299.681,81.795 310.979,92.96 310.979,106.683 C310.979,120.407 299.682,131.571 285.796,131.571 C272.636,131.571 261.808,121.54 260.712,108.81 L258.028,112.297 L251.981,104.442 C251.932,105.182 251.904,105.93 251.904,106.683 C251.904,125.153 267.107,140.179 285.796,140.179 C304.485,140.179 319.688,125.153 319.688,106.683 C319.688,88.213 304.485,73.187 285.796,73.187 L285.796,73.187 Z"></path>
                                </g>
                                <g id="Shape" transform="translate(332.000000, 0.000000)" fill="#FFFFFF" sketch:type="MSShapeGroup">
                                    <path d="M76.225,0.881 C46.102,0.881 20.474,20.235 11.382,47.018 L0.554,47.018 L20.201,72.54 L39.848,47.018 L30.307,47.018 C38.462,30.032 55.973,18.248 76.227,18.248 C104.243,18.248 127.036,40.775 127.036,68.463 C127.036,96.153 104.243,118.679 76.227,118.679 C49.675,118.679 27.83,98.441 25.617,72.755 L20.203,79.79 L8.003,63.942 C7.902,65.436 7.847,66.944 7.847,68.463 C7.847,105.729 38.522,136.046 76.229,136.046 C113.936,136.046 144.611,105.729 144.611,68.463 C144.608,31.198 113.933,0.881 76.227,0.881 L76.225,0.881 Z M76.225,370.942 C46.102,370.942 20.474,390.296 11.382,417.078 L0.554,417.078 L20.201,442.601 L39.848,417.078 L30.307,417.078 C38.462,400.093 55.973,388.309 76.227,388.309 C104.243,388.309 127.036,410.836 127.036,438.524 C127.036,466.214 104.243,488.739 76.227,488.739 C49.675,488.739 27.83,468.502 25.617,442.815 L20.203,449.851 L8.003,434.003 C7.902,435.497 7.847,437.005 7.847,438.524 C7.847,475.789 38.522,506.106 76.229,506.106 C113.936,506.106 144.611,475.789 144.611,438.524 C144.611,401.258 113.933,370.942 76.227,370.942 L76.225,370.942 Z"></path>
                                </g>
                            </g>
                            <g transform="translate(22.000000, 131.000000)">
                                <g id="Shape" fill="#FFFFFF" sketch:type="MSShapeGroup">
                                    <path d="M104.68,38.428 C74.557,38.428 48.929,57.782 39.837,84.565 L29.009,84.565 L48.656,110.088 L68.303,84.565 L58.762,84.565 C66.917,67.579 84.428,55.795 104.682,55.795 C132.698,55.795 155.492,78.322 155.492,106.01 C155.492,133.701 132.698,156.226 104.682,156.226 C78.13,156.226 56.285,135.989 54.072,110.302 L48.658,117.338 L36.458,101.489 C36.357,102.983 36.302,104.491 36.302,106.01 C36.302,143.276 66.977,173.593 104.684,173.593 C142.391,173.593 173.064,143.275 173.064,106.01 C173.064,68.745 142.388,38.428 104.682,38.428 L104.68,38.428 Z M219.758,124.199 C197.654,124.199 178.849,138.401 172.177,158.053 L164.23,158.053 L178.646,176.782 L193.062,158.053 L186.061,158.053 C192.045,145.589 204.893,136.942 219.756,136.942 C240.315,136.942 257.04,153.474 257.04,173.79 C257.04,194.108 240.315,210.638 219.756,210.638 C200.273,210.638 184.242,195.787 182.618,176.94 L178.644,182.102 L169.691,170.473 C169.618,171.57 169.577,172.676 169.577,173.79 C169.577,201.136 192.087,223.384 219.755,223.384 C247.425,223.384 269.935,201.137 269.935,173.79 C269.935,146.447 247.426,124.199 219.756,124.199 L219.758,124.199 Z M325.496,0.53 C306.291,0.53 289.952,12.869 284.154,29.945 L277.251,29.945 L289.776,46.216 L302.302,29.946 L296.219,29.946 C301.417,19.116 312.582,11.603 325.496,11.603 C343.356,11.603 357.889,25.965 357.889,43.618 C357.889,61.272 343.358,75.633 325.496,75.633 C308.568,75.633 294.639,62.731 293.228,46.356 L289.776,50.841 L281.997,40.736 C281.933,41.688 281.898,42.65 281.898,43.619 C281.898,67.377 301.456,86.706 325.495,86.706 C349.534,86.706 369.092,67.377 369.092,43.619 C369.092,19.861 349.535,0.53 325.496,0.53 L325.496,0.53 Z M233.018,42.417 C218.088,42.417 205.385,52.009 200.88,65.284 L195.514,65.284 L205.25,77.934 L214.988,65.284 L210.258,65.284 C214.3,56.866 222.978,51.025 233.018,51.025 C246.903,51.025 258.201,62.19 258.201,75.913 C258.201,89.637 246.904,100.801 233.018,100.801 C219.858,100.801 209.03,90.77 207.934,78.04 L205.25,81.527 L199.203,73.672 C199.154,74.412 199.126,75.16 199.126,75.913 C199.126,94.383 214.329,109.41 233.018,109.41 C251.707,109.41 266.91,94.383 266.91,75.913 C266.91,57.443 251.707,42.417 233.018,42.417 L233.018,42.417 Z M182.495,240.533 C167.565,240.533 154.862,250.126 150.357,263.4 L144.991,263.4 L154.727,276.049 L164.465,263.399 L159.735,263.399 C163.777,254.981 172.455,249.14 182.495,249.14 C196.38,249.14 207.678,260.305 207.678,274.028 C207.678,287.753 196.381,298.916 182.495,298.916 C169.335,298.916 158.507,288.886 157.411,276.155 L154.727,279.642 L148.68,271.788 C148.631,272.528 148.603,273.276 148.603,274.028 C148.603,292.498 163.806,307.524 182.495,307.524 C201.184,307.524 216.387,292.498 216.387,274.028 C216.387,255.558 201.183,240.533 182.495,240.533 L182.495,240.533 Z M132.477,182.519 C117.547,182.519 104.844,192.112 100.339,205.386 L94.973,205.386 L104.709,218.036 L114.447,205.386 L109.717,205.386 C113.759,196.968 122.437,191.127 132.477,191.127 C146.362,191.127 157.66,202.292 157.66,216.015 C157.66,229.74 146.363,240.903 132.477,240.903 C119.317,240.903 108.489,230.873 107.393,218.142 L104.709,221.629 L98.662,213.775 C98.613,214.515 98.585,215.263 98.585,216.015 C98.585,234.485 113.788,249.511 132.477,249.511 C151.166,249.511 166.369,234.485 166.369,216.015 C166.369,197.545 151.166,182.519 132.477,182.519 L132.477,182.519 Z M310.888,104.085 C295.958,104.085 283.255,113.678 278.75,126.952 L273.384,126.952 L283.12,139.602 L292.858,126.952 L288.128,126.952 C292.17,118.534 300.848,112.693 310.888,112.693 C324.773,112.693 336.071,123.858 336.071,137.581 C336.071,151.306 324.774,162.469 310.888,162.469 C297.728,162.469 286.9,152.439 285.804,139.708 L283.12,143.195 L277.073,135.341 C277.024,136.081 276.996,136.829 276.996,137.581 C276.996,156.051 292.199,171.077 310.888,171.077 C329.577,171.077 344.78,156.051 344.78,137.581 C344.78,119.111 329.577,104.085 310.888,104.085 L310.888,104.085 Z M368.072,164.59 C353.142,164.59 340.439,174.181 335.934,187.457 L330.568,187.457 L340.304,200.107 L350.042,187.457 L345.312,187.457 C349.354,179.039 358.032,173.198 368.072,173.198 C381.957,173.198 393.255,184.363 393.255,198.086 C393.255,211.809 381.958,222.974 368.072,222.974 C354.912,222.974 344.084,212.942 342.988,200.213 L340.304,203.7 L334.257,195.844 C334.208,196.584 334.18,197.332 334.18,198.086 C334.18,216.556 349.383,231.582 368.072,231.582 C386.761,231.582 401.964,216.556 401.964,198.086 C401.964,179.616 386.761,164.59 368.072,164.59 L368.072,164.59 Z M37.754,164.59 C22.824,164.59 10.121,174.181 5.616,187.457 L0.25,187.457 L9.986,200.107 L19.724,187.457 L14.994,187.457 C19.036,179.039 27.714,173.198 37.754,173.198 C51.639,173.198 62.937,184.363 62.937,198.086 C62.937,211.809 51.64,222.974 37.754,222.974 C24.594,222.974 13.766,212.942 12.67,200.213 L9.986,203.7 L3.939,195.844 C3.89,196.584 3.862,197.332 3.862,198.086 C3.862,216.556 19.065,231.582 37.754,231.582 C56.443,231.582 71.646,216.556 71.646,198.086 C71.646,179.616 56.442,164.59 37.754,164.59 L37.754,164.59 Z"></path>
                                </g>
                                <path d="M436.68,38.428 C406.557,38.428 380.929,57.782 371.837,84.565 L361.009,84.565 L380.656,110.088 L400.303,84.565 L390.762,84.565 C398.917,67.579 416.428,55.795 436.682,55.795 C464.697,55.795 487.491,78.322 487.491,106.01 C487.491,133.701 464.697,156.226 436.682,156.226 C410.13,156.226 388.285,135.989 386.072,110.302 L380.658,117.338 L368.458,101.489 C368.357,102.983 368.302,104.491 368.302,106.01 C368.302,143.276 398.977,173.593 436.684,173.593 C474.391,173.593 505.066,143.276 505.066,106.01 C505.063,68.745 474.388,38.428 436.682,38.428 L436.68,38.428 Z" id="Shape" fill="#FFFFFF" sketch:type="MSShapeGroup"></path>
                            </g>
                            <g transform="translate(0.000000, 351.000000)">
                                <path d="M76.225,19.94 C46.102,19.94 20.474,39.294 11.382,66.078 L0.554,66.078 L20.201,91.599 L39.848,66.078 L30.307,66.078 C38.462,49.091 55.973,37.307 76.227,37.307 C104.243,37.307 127.037,59.834 127.037,87.522 C127.037,115.212 104.243,137.739 76.227,137.739 C49.675,137.739 27.83,117.5 25.617,91.815 L20.203,98.849 L8.003,83.001 C7.902,84.495 7.847,86.003 7.847,87.522 C7.847,124.789 38.522,155.106 76.229,155.106 C113.936,155.106 144.612,124.789 144.612,87.522 C144.609,50.256 113.933,19.94 76.227,19.94 L76.225,19.94 Z M305.474,0.938 C290.544,0.938 277.841,10.529 273.336,23.805 L267.97,23.805 L277.706,36.455 L287.444,23.805 L282.714,23.805 C286.756,15.387 295.434,9.546 305.474,9.546 C319.359,9.546 330.657,20.711 330.657,34.434 C330.657,48.157 319.36,59.322 305.474,59.322 C292.314,59.322 281.486,49.29 280.39,36.561 L277.706,40.048 L271.659,32.192 C271.61,32.932 271.582,33.68 271.582,34.434 C271.582,52.904 286.785,67.93 305.474,67.93 C324.163,67.93 339.366,52.904 339.366,34.434 C339.366,15.964 324.163,0.938 305.474,0.938 L305.474,0.938 Z" id="Shape" fill="#FFFFFF" sketch:type="MSShapeGroup"></path>
                            </g>
                        </g>
                    </g>
                </g>
            </g>
        </g>
    </g>
</svg>