<svg width="267" height="189" viewBox="0 0 267 189" xmlns="http://www.w3.org/2000/svg" xmlns:sketch="http://www.bohemiancoding.com/sketch/ns"><title>retrospective</title><desc>Created with Sketch.</desc><g sketch:type="MSShapeGroup" fill="none"><path d="M163.125 88.74c.919-1.38.545-3.241-.834-4.16l-12.484-8.315c-1.379-.919-3.241-.545-4.16.834l-2.771 4.161c-.919 1.38-.545 3.241.834 4.16l12.484 8.315c1.379.919 3.241.545 4.16-.834l2.771-4.161z" id="Shape" fill="#fff"/><g id="Shape" fill="#3E3B3E"><path d="M81.5 75.5c-.552 0-1-.448-1-1v-23c0-.552.448-1 1-1s1 .448 1 1v23c0 .552-.448 1-1 1zM110.5 72.5h-35c-.552 0-1-.448-1-1s.448-1 1-1h35c.552 0 1 .448 1 1s-.448 1-1 1zM100.03 66.113c-3.312 0-4.584-2.482-5.718-4.693-1.099-2.142-2.047-3.992-4.612-4.3-5.418-.644-7.232 8.101-7.25 8.189-.109.541-.635.889-1.178.783-.541-.109-.892-.637-.783-1.178.088-.435 2.226-10.643 9.449-9.779 3.621.435 5.025 3.172 6.153 5.373 1.27 2.475 2.107 3.862 4.589 3.564 2.659-.319 3.442-2.754 4.332-6.433.656-2.709 1.334-5.511 3.835-5.824.544-.073 1.048.32 1.116.868.068.548-.32 1.048-.868 1.116-1.13.141-1.62 2.166-2.139 4.31-.803 3.315-1.801 7.44-6.038 7.948-.312.038-.607.056-.888.056z"/></g><g id="Shape" fill="#3E3B3E"><path d="M100.088 86.832c-.31 0-.616-.144-.812-.414l-5.155-7.133c-.323-.448-.223-1.073.225-1.396.448-.324 1.072-.223 1.396.225l5.155 7.133c.323.448.223 1.073-.225 1.396-.176.128-.381.189-.584.189zM92.572 86.218c-.336 0-.664-.169-.853-.476-.29-.47-.143-1.086.328-1.375l8.649-5.321c.468-.29 1.085-.143 1.375.328.29.47.143 1.086-.328 1.375l-8.649 5.321c-.162.1-.343.148-.522.148zM113.501 95.638c-.307 0-.609-.141-.806-.406l-7.786-10.547c-.328-.444-.233-1.07.211-1.398.444-.328 1.07-.233 1.398.211l7.786 10.547c.328.444.233 1.07-.211 1.398-.178.131-.386.195-.592.195zM104.516 94.375c-.294 0-.586-.13-.784-.378-.343-.433-.271-1.062.162-1.405l8.686-6.889c.434-.341 1.062-.27 1.405.162.343.433.271 1.062-.162 1.405l-8.686 6.889c-.184.145-.403.216-.621.216z"/></g><path d="M132.501 125.94h-43.864c-2.279 0-4.133-1.854-4.133-4.134 0-2.28 1.854-4.133 4.133-4.133h17.799v-10.531h-33.464c-5.734 0-10.399-4.665-10.399-10.399v-50.131c0-5.734 4.665-10.399 10.399-10.399h75.195c5.734 0 10.399 4.665 10.399 10.399v34.465h-2v-34.465c0-4.631-3.768-8.399-8.399-8.399h-75.195c-4.631 0-8.399 3.768-8.399 8.399v50.131c0 4.632 3.768 8.399 8.399 8.399h35.464v14.532h-19.799c-1.176 0-2.133.957-2.133 2.133 0 1.177.957 2.134 2.133 2.134h43.864c1.177 0 2.134-.957 2.134-2.134 0-1.176-.957-2.133-2.134-2.133h-19.799v-14.532h35.465c3.832 0 8.399-1.688 8.399-9.728h2c0 7.453-3.79 11.728-10.399 11.728h-33.465v10.532h17.799c2.279 0 4.134 1.854 4.134 4.133s-1.855 4.133-4.134 4.133zM136.325 133.207c6.63 0 12.058 5.397 12.1 12.03.037 6.669-5.36 12.126-12.031 12.165h-.074c-6.632 0-12.057-5.398-12.094-12.035-.019-3.222 1.224-6.264 3.501-8.564s5.306-3.578 8.53-3.596h.068zm0-2h-.079c-7.769.043-14.065 6.403-14.02 14.172.043 7.75 6.355 14.023 14.094 14.023h.085c7.771-.046 14.063-6.401 14.02-14.176-.049-7.745-6.364-14.019-14.1-14.019zM160.698 188.604c-.485 0-.912-.354-.987-.849l-2.436-15.929-.012-.123c-.127-4.502-3.896-8.165-8.399-8.165h-25.064c-4.503 0-8.269 3.662-8.394 8.164l-.01.114-2.27 15.929c-.078.546-.589.924-1.131.849-.547-.078-.927-.585-.849-1.131l2.263-15.874c.186-5.548 4.835-10.051 10.392-10.051h25.064c5.555 0 10.206 4.5 10.397 10.045l2.426 15.869c.084.546-.291 1.057-.837 1.14l-.153.012zM87.762 133.207c6.63 0 12.058 5.397 12.1 12.03.037 6.669-5.36 12.126-12.031 12.165h-.073c-6.632 0-12.058-5.398-12.094-12.035-.019-3.222 1.224-6.264 3.501-8.564s5.306-3.578 8.53-3.596h.067zm0-2h-.079c-7.769.043-14.065 6.403-14.02 14.172.043 7.75 6.354 14.023 14.094 14.023h.084c7.771-.046 14.063-6.401 14.02-14.176-.049-7.745-6.364-14.019-14.099-14.019zM112.134 188.604c-.485 0-.912-.354-.987-.849l-2.436-15.929-.011-.123c-.128-4.502-3.896-8.165-8.4-8.165h-25.065c-4.503 0-8.269 3.662-8.394 8.164l-.009.113-2.27 15.929c-.079.547-.592.925-1.131.85-.547-.078-.927-.585-.849-1.131l2.262-15.874c.186-5.548 4.835-10.051 10.392-10.051h25.065c5.555 0 10.206 4.5 10.397 10.045l2.426 15.869c.083.546-.291 1.057-.837 1.14l-.153.012zM39.197 133.207c6.63 0 12.058 5.397 12.1 12.03.037 6.669-5.36 12.126-12.031 12.165h-.073c-6.632 0-12.058-5.398-12.094-12.035-.019-3.222 1.224-6.264 3.501-8.564s5.306-3.578 8.53-3.596h.067zm0-2h-.079c-7.769.043-14.065 6.403-14.02 14.172.043 7.75 6.355 14.023 14.094 14.023h.084c7.771-.046 14.063-6.401 14.02-14.176-.048-7.745-6.362-14.019-14.099-14.019zM63.571 188.604c-.485 0-.912-.354-.987-.849l-2.436-15.929-.011-.123c-.128-4.502-3.897-8.165-8.401-8.165h-25.064c-4.503 0-8.269 3.662-8.394 8.164l-.01.114-2.27 15.929c-.078.546-.589.924-1.131.849-.547-.078-.927-.585-.849-1.131l2.263-15.874c.186-5.548 4.835-10.051 10.392-10.051h25.064c5.554 0 10.206 4.5 10.398 10.045l2.426 15.869c.083.546-.291 1.057-.837 1.14l-.153.012zM195.944 159.972c-2.222 0-3.859-.976-4.843-1.794l-.64-.532-.64.532c-.983.818-2.621 1.794-4.844 1.794-4.199 0-7.616-3.417-7.616-7.616v-31.96c-1.312-.855-4.267-3.502-4.267-9.988v-17.177l-5.302 4.212c-2.197 1.563-5.115 1.85-7.513.8-.385-.173-.753-.375-1.104-.604l-13.696-8.793c-2.638-1.086-4.343-3.627-4.343-6.473 0-3.862 3.142-7.004 7.004-7.004 1.547 0 3.033.525 4.3 1.519l.102.07 10.739 7.035 11.289-9.886.218-.145c.423-.208.81-.365 1.181-.479l.124-.047c1.104-.503 2.251-.759 3.406-.759h18.799c3.179 0 5.237.41 7.012 2.572 1.482 1.806 1.693 2.608 1.937 3.869.059.298.118.61.201.952l5.299 21.931c.4 1.646.336 4.29-1.162 6.322-.499.677-1.12 1.229-1.849 1.648l-.024.016c-.322.196-.65.346-.981.454-.707.262-1.488.421-2.333.474-.121.007-.232-.006-.344-.038l-.226-.066v1.598c0 2.92-1.786 6.694-2.267 7.655v32.292c0 4.199-3.417 7.616-7.617 7.616zm-4.484-4.098l.921.767c.729.607 1.94 1.331 3.563 1.331 3.097 0 5.616-2.52 5.616-5.616v-32.532c0-.161.039-.321.114-.464.021-.041 2.152-4.146 2.152-6.952v-2.643c-.908-.438-1.714-.955-2.338-1.355l-.552-.349c-1.733-1.064-12.345-9.873-13.041-10.569-.682-.682-1.972-2.473-1.972-4.37 0-3.216 2.616-5.833 5.833-5.833 1.361 0 2.888.538 3.629 1.279.375.375 5.573 4.873 8.975 7.805.419.36.466.992.105 1.41-.362.418-.994.464-1.41.105-.872-.752-8.536-7.359-9.084-7.906-.29-.29-1.272-.693-2.215-.693-2.113 0-3.833 1.72-3.833 3.833 0 1.083.811 2.381 1.386 2.956.458.458 11.059 9.287 12.674 10.278l.584.37c1.447.928 3.788 2.425 5.618 1.783.172-.07.336-.148.493-.236l.039-.022c.498-.284.917-.656 1.256-1.114 1.019-1.383 1.15-3.339.828-4.664l-5.3-21.934c-.09-.374-.157-.714-.22-1.041-.19-.984-.286-1.478-1.52-2.98-1.284-1.565-2.786-1.841-5.466-1.841h-18.796c-.867 0-1.735.195-2.581.581l-.122.055-.114.043-.123.038c-.238.074-.491.174-.772.307l-11.757 10.298c-.338.297-.832.331-1.207.084l-11.578-7.593c-.948-.743-2.008-1.121-3.103-1.121-2.759 0-5.004 2.245-5.004 5.004 0 2.032 1.219 3.848 3.105 4.624l.169.07.159.083 13.692 8.811c.267.174.551.33.828.455 1.739.759 3.938.54 5.5-.571l6.881-5.469c.302-.237.712-.284 1.057-.117.346.167.565.517.565.9v19.249c0 6.757 3.519 8.424 3.668 8.491.358.162.599.523.599.916v32.54c0 3.097 2.52 5.616 5.616 5.616 1.624 0 2.835-.724 3.564-1.331l.921-.767-.002-.062v-35.522c0-.553.447-1 1-1 .553 0 1 .447 1 1v35.585zm-2.484-85.944c-.692 0-1.39-.059-2.088-.179-3.17-.536-5.937-2.271-7.789-4.887-1.861-2.626-2.591-5.81-2.052-8.965.979-5.811 5.956-10.028 11.836-10.028.65 0 1.33.058 2.019.173 6.536 1.105 10.955 7.322 9.854 13.859-.54 3.195-2.282 5.98-4.907 7.84-2.028 1.437-4.411 2.187-6.873 2.187zm-.093-22.06c-4.9 0-9.048 3.516-9.863 8.36l-.001.002c-.449 2.629.158 5.284 1.712 7.475 1.543 2.179 3.849 3.625 6.493 4.072 2.652.453 5.308-.137 7.469-1.668 2.188-1.551 3.641-3.875 4.091-6.542.918-5.45-2.766-10.634-8.213-11.555-.579-.095-1.147-.144-1.688-.144zM144.5 56.5h-22c-.552 0-1-.448-1-1s.448-1 1-1h22c.553 0 1 .448 1 1s-.447 1-1 1zM144.5 64.5h-22c-.552 0-1-.448-1-1s.448-1 1-1h22c.553 0 1 .448 1 1s-.447 1-1 1zM144.5 72.5h-22c-.552 0-1-.448-1-1s.448-1 1-1h22c.553 0 1 .448 1 1s-.447 1-1 1z" id="Shape" fill="#3E3B3E"/><g id="Shape"><path d="M42.66 115.284c-.111 0-.223-.037-.333-.075-1.593-.813-6.072-2.998-7.628-2.998h-.184c-3.368 1.814-7.182 2.777-11.033 2.777-12.848 0-23.286-10.441-23.286-23.25 0-12.811 10.438-23.251 23.286-23.251s23.287 10.44 23.287 23.251c0 5.479-1.925 10.772-5.442 14.956-.222.776.853 4.517 2.036 7.59.111.296.038.629-.185.815-.185.11-.333.185-.518.185z" fill="#6ABEEC"/><path d="M35.479 97.587h-24.323c-.408 0-.74-.333-.74-.74s.332-.74.74-.74h24.323c.407 0 .74.333.74.74s-.333.74-.74.74zM35.479 84.519h-24.323c-.408 0-.74-.335-.74-.74 0-.407.332-.74.74-.74h24.323c.407 0 .74.333.74.74 0 .405-.333.74-.74.74zM35.479 88.887h-24.323c-.408 0-.74-.333-.74-.74 0-.408.332-.74.74-.74h24.323c.407 0 .74.332.74.74 0 .407-.333.74-.74.74zM35.479 93.219h-24.323c-.408 0-.74-.332-.74-.741 0-.406.332-.739.74-.739h24.323c.407 0 .74.333.74.739 0 .409-.333.741-.74.741zM20.003 101.955h-8.848c-.408 0-.74-.333-.74-.74 0-.405.332-.741.74-.741h8.848c.407 0 .74.336.74.741 0 .407-.333.74-.74.74z" fill="#fff"/></g><g><path d="M214.808 55.894c-.267-.223-.354-.62-.221-.974 1.412-3.667 2.694-8.13 2.43-9.057-4.197-4.991-6.494-11.309-6.494-17.846 0-15.286 12.457-27.744 27.787-27.744 15.33 0 27.786 12.458 27.786 27.744 0 15.283-12.456 27.743-27.786 27.743-4.596 0-9.146-1.149-13.165-3.314h-.219c-1.856 0-7.202 2.608-9.103 3.577-.132.046-.265.09-.397.09-.22 0-.398-.09-.618-.219z" fill="#6ABEEC"/><path d="M223.112 34.113c0-.486.397-.884.883-.884h29.023c.487 0 .884.397.884.884 0 .485-.396.883-.884.883h-29.023c-.485 0-.883-.397-.883-.883zM223.112 18.52c0-.486.397-.884.883-.884h29.023c.487 0 .884.397.884.884 0 .483-.396.883-.884.883h-29.023c-.485-.001-.883-.4-.883-.883zM223.112 23.731c0-.487.397-.883.883-.883h29.023c.487 0 .884.396.884.883 0 .486-.396.884-.884.884h-29.023c-.485 0-.883-.397-.883-.884zM223.112 28.899c0-.484.397-.882.883-.882h29.023c.487 0 .884.397.884.882 0 .488-.396.885-.884.885h-29.023c-.485 0-.883-.396-.883-.885zM241.578 39.325c0-.483.397-.884.884-.884h10.557c.487 0 .884.4.884.884 0 .486-.396.884-.884.884h-10.557c-.486 0-.884-.397-.884-.884z" fill="#fff"/></g></g></svg>