<?xml version="1.0" encoding="UTF-8" standalone="no"?>
<svg width="744px" height="401px" viewBox="0 0 744 401" version="1.1" xmlns="http://www.w3.org/2000/svg" xmlns:xlink="http://www.w3.org/1999/xlink" xmlns:sketch="http://www.bohemiancoding.com/sketch/ns">
    <!-- Generator: Sketch 3.3 (11970) - http://www.bohemiancoding.com/sketch -->
    <title>Clipped</title>
    <desc>Created with Sketch.</desc>
    <defs>
        <rect id="path-1" x="1.42124593e-14" y="0.547" width="744" height="400.453"></rect>
    </defs>
    <g id="Page-1" stroke="none" stroke-width="1" fill="none" fill-rule="evenodd" sketch:type="MSPage" opacity="0.1">
        <g id="ED-pattern" sketch:type="MSLayerGroup">
            <g id="Clipped">
                <mask id="mask-2" sketch:name="SVGID_1_" fill="white">
                    <use xlink:href="#path-1"></use>
                </mask>
                <g id="SVGID_1_"></g>
                <g id="Group" mask="url(#mask-2)">
                    <g transform="translate(-143.000000, -59.000000)">
                        <g transform="translate(413.000000, 123.000000)">
                            <path d="M4.147,66.12 C-0.139,70.407 -0.139,77.357 4.147,81.645 L28.731,106.228 L45.293,89.667 L58.231,102.605 L41.669,119.167 L66.251,143.749 C70.539,148.036 77.491,148.036 81.778,143.749 L106.362,119.167 L28.731,41.534 L4.147,66.12 L4.147,66.12 Z" id="path3008_57_" fill="#FFFFFF" sketch:type="MSShapeGroup"></path>
                            <path d="M41.67,28.598 L119.3,106.23 L143.884,81.646 C148.169,77.358 148.169,70.408 143.884,66.121 L81.779,4.017 C77.492,-0.272 70.54,-0.272 66.253,4.017 L41.67,28.598 L41.67,28.598 Z" id="path7_57_" fill="#FFFFFF" sketch:type="MSShapeGroup"></path>
                        </g>
                        <g transform="translate(332.000000, 364.000000)">
                            <path d="M1.37,22.391 C-0.093,23.855 -0.093,26.229 1.37,27.693 L9.766,36.089 L15.422,30.434 L19.84,34.853 L14.184,40.508 L22.579,48.904 C24.043,50.368 26.418,50.368 27.882,48.904 L36.278,40.508 L9.765,13.995 L1.37,22.391 L1.37,22.391 Z" id="path3008_263_" fill="#FFFFFF" sketch:type="MSShapeGroup"></path>
                            <path d="M14.185,9.576 L40.697,36.088 L49.093,27.692 C50.557,26.228 50.557,23.854 49.093,22.39 L27.883,1.179 C26.419,-0.285 24.044,-0.285 22.581,1.179 L14.185,9.576 L14.185,9.576 Z" id="path7_263_" fill="#FFFFFF" sketch:type="MSShapeGroup"></path>
                        </g>
                        <g transform="translate(372.000000, 393.000000)">
                            <path d="M1.142,22.699 C-0.321,24.163 -0.321,26.538 1.142,28.002 L9.538,36.397 L15.194,30.742 L19.613,35.16 L13.957,40.817 L22.352,49.212 C23.816,50.677 26.191,50.677 27.655,49.212 L36.051,40.817 L9.538,14.303 L1.142,22.699 L1.142,22.699 Z" id="path3008_185_" fill="#FFFFFF" sketch:type="MSShapeGroup"></path>
                            <path d="M13.957,9.885 L40.469,36.399 L48.865,28.003 C50.329,26.539 50.329,24.164 48.865,22.7 L27.655,1.49 C26.191,0.026 23.817,0.026 22.353,1.49 L13.957,9.885 L13.957,9.885 Z" id="path7_185_" fill="#FFFFFF" sketch:type="MSShapeGroup"></path>
                        </g>
                        <g transform="translate(527.000000, 349.000000)">
                            <path d="M1.783,22.471 C0.32,23.934 0.32,26.309 1.783,27.772 L10.179,36.168 L15.835,30.512 L20.253,34.93 L14.597,40.586 L22.993,48.982 C24.456,50.446 26.831,50.446 28.296,48.982 L36.692,40.586 L10.178,14.074 L1.783,22.471 L1.783,22.471 Z" id="path3008_286_" fill="#FFFFFF" sketch:type="MSShapeGroup"></path>
                            <path d="M14.597,9.656 L41.109,36.168 L49.505,27.772 C50.97,26.309 50.97,23.934 49.505,22.471 L28.296,1.26 C26.831,-0.204 24.456,-0.204 22.993,1.26 L14.597,9.656 L14.597,9.656 Z" id="path7_286_" fill="#FFFFFF" sketch:type="MSShapeGroup"></path>
                        </g>
                        <g transform="translate(575.000000, 392.000000)">
                            <path d="M1.458,19.528 C0.202,20.784 0.202,22.822 1.458,24.08 L8.663,31.285 L13.518,26.43 L17.311,30.224 L12.456,35.079 L19.663,42.285 C20.919,43.541 22.958,43.541 24.214,42.285 L31.421,35.079 L8.663,12.322 L1.458,19.528 L1.458,19.528 Z" id="path3008_187_" fill="#FFFFFF" sketch:type="MSShapeGroup"></path>
                            <path d="M12.457,8.529 L35.213,31.287 L42.42,24.08 C43.678,22.822 43.678,20.784 42.42,19.528 L24.215,1.323 C22.959,0.066 20.92,0.066 19.664,1.323 L12.457,8.529 L12.457,8.529 Z" id="path7_187_" fill="#FFFFFF" sketch:type="MSShapeGroup"></path>
                        </g>
                        <g transform="translate(440.000000, 268.000000)">
                            <path d="M2.037,22.336 C0.573,23.799 0.573,26.174 2.037,27.638 L10.434,36.034 L16.088,30.378 L20.507,34.798 L14.851,40.454 L23.247,48.849 C24.712,50.314 27.086,50.314 28.55,48.849 L36.946,40.454 L10.434,13.94 L2.037,22.336 L2.037,22.336 Z" id="path3008_264_" fill="#FFFFFF" sketch:type="MSShapeGroup"></path>
                            <path d="M14.852,9.521 L41.364,36.034 L49.76,27.638 C51.225,26.173 51.225,23.798 49.76,22.335 L28.55,1.124 C27.086,-0.339 24.712,-0.339 23.248,1.124 L14.852,9.521 L14.852,9.521 Z" id="path7_264_" fill="#FFFFFF" sketch:type="MSShapeGroup"></path>
                        </g>
                        <g transform="translate(183.000000, 236.000000)">
                            <path d="M2.443,32.504 C0.339,34.608 0.339,38.018 2.443,40.123 L14.508,52.186 L22.635,44.059 L28.985,50.409 L20.857,58.537 L32.921,70.602 C35.026,72.705 38.437,72.705 40.542,70.602 L52.606,58.537 L14.507,20.438 L2.443,32.504 L2.443,32.504 Z" id="path3008_207_" fill="#FFFFFF" sketch:type="MSShapeGroup"></path>
                            <path d="M20.859,14.089 L58.957,52.188 L71.022,40.124 C73.126,38.019 73.126,34.608 71.022,32.505 L40.543,2.025 C38.439,-0.079 35.028,-0.079 32.924,2.025 L20.859,14.089 L20.859,14.089 Z" id="path7_207_" fill="#FFFFFF" sketch:type="MSShapeGroup"></path>
                        </g>
                        <g transform="translate(269.000000, 400.000000)">
                            <path d="M1.793,28.923 C-0.05,30.767 -0.05,33.756 1.793,35.6 L12.366,46.172 L19.489,39.05 L25.053,44.615 L17.93,51.738 L28.502,62.31 C30.347,64.152 33.335,64.152 35.18,62.31 L45.752,51.738 L12.365,18.35 L1.793,28.923 L1.793,28.923 Z" id="path3008_184_" fill="#FFFFFF" sketch:type="MSShapeGroup"></path>
                            <path d="M17.93,12.787 L51.317,46.173 L61.89,35.6 C63.734,33.756 63.734,30.767 61.89,28.923 L35.181,2.213 C33.337,0.369 30.347,0.369 28.504,2.213 L17.93,12.787 L17.93,12.787 Z" id="path7_184_" fill="#FFFFFF" sketch:type="MSShapeGroup"></path>
                        </g>
                        <g transform="translate(461.000000, 367.000000)">
                            <path d="M1.992,32.998 C-0.112,35.102 -0.112,38.514 1.992,40.617 L14.056,52.681 L22.184,44.554 L28.534,50.904 L20.407,59.033 L32.472,71.097 C34.576,73.201 37.988,73.201 40.091,71.097 L52.155,59.033 L14.056,20.933 L1.992,32.998 L1.992,32.998 Z" id="path3008_140_" fill="#FFFFFF" sketch:type="MSShapeGroup"></path>
                            <path d="M20.407,14.584 L58.505,52.684 L70.571,40.618 C72.675,38.514 72.675,35.103 70.571,32.999 L40.091,2.52 C37.987,0.416 34.575,0.416 32.472,2.52 L20.407,14.584 L20.407,14.584 Z" id="path7_140_" fill="#FFFFFF" sketch:type="MSShapeGroup"></path>
                        </g>
                        <g transform="translate(528.000000, 414.000000)">
                            <path d="M1.849,27.098 C0.072,28.875 0.072,31.76 1.849,33.537 L12.048,43.734 L18.917,36.865 L24.286,42.231 L17.415,49.102 L27.612,59.299 C29.391,61.077 32.274,61.077 34.053,59.299 L44.25,49.102 L12.047,16.899 L1.849,27.098 L1.849,27.098 Z" id="path3008_183_" fill="#FFFFFF" sketch:type="MSShapeGroup"></path>
                            <path d="M17.416,11.533 L49.619,43.736 L59.816,33.537 C61.595,31.76 61.595,28.875 59.816,27.098 L34.054,1.336 C32.275,-0.443 29.392,-0.443 27.615,1.336 L17.416,11.533 L17.416,11.533 Z" id="path7_183_" fill="#FFFFFF" sketch:type="MSShapeGroup"></path>
                        </g>
                        <g transform="translate(413.000000, 412.000000)">
                            <path d="M1.823,32.178 C-0.281,34.282 -0.281,37.693 1.823,39.797 L13.888,51.861 L22.015,43.732 L28.365,50.084 L20.238,58.212 L32.302,70.275 C34.406,72.379 37.818,72.379 39.922,70.275 L51.986,58.212 L13.887,20.111 L1.823,32.178 L1.823,32.178 Z" id="path3008_182_" fill="#FFFFFF" sketch:type="MSShapeGroup"></path>
                            <path d="M20.238,13.763 L58.336,51.862 L70.401,39.798 C72.505,37.693 72.505,34.282 70.401,32.179 L39.922,1.699 C37.818,-0.405 34.406,-0.405 32.302,1.699 L20.238,13.763 L20.238,13.763 Z" id="path7_182_" fill="#FFFFFF" sketch:type="MSShapeGroup"></path>
                        </g>
                        <g transform="translate(282.000000, 147.000000)">
                            <path d="M2.862,48.323 C-0.258,51.443 -0.258,56.502 2.862,59.623 L20.756,77.516 L32.81,65.462 L42.227,74.879 L30.173,86.934 L48.064,104.825 C51.185,107.946 56.245,107.946 59.365,104.825 L77.259,86.934 L20.758,30.43 L2.862,48.323 L2.862,48.323 Z" id="path3008_137_" fill="#FFFFFF" sketch:type="MSShapeGroup"></path>
                            <path d="M30.172,21.014 L86.672,77.516 L104.565,59.623 C107.686,56.502 107.686,51.443 104.565,48.322 L59.364,3.121 C56.244,-2.27373675e-13 51.184,-2.27373675e-13 48.063,3.121 L30.172,21.014 L30.172,21.014 Z" id="path7_137_" fill="#FFFFFF" sketch:type="MSShapeGroup"></path>
                        </g>
                        <g transform="translate(345.000000, 209.000000)">
                            <path d="M2.567,47.666 C-0.553,50.786 -0.553,55.846 2.567,58.966 L20.461,76.858 L32.515,64.805 L41.932,74.223 L29.879,86.277 L47.77,104.169 C50.891,107.288 55.951,107.288 59.071,104.169 L76.964,86.277 L20.462,29.773 L2.567,47.666 L2.567,47.666 Z" id="path3008_138_" fill="#FFFFFF" sketch:type="MSShapeGroup"></path>
                            <path d="M29.878,20.357 L86.378,76.859 L104.271,58.965 C107.391,55.845 107.391,50.785 104.271,47.665 L59.07,2.463 C55.95,-0.658 50.89,-0.658 47.77,2.463 L29.878,20.357 L29.878,20.357 Z" id="path7_138_" fill="#FFFFFF" sketch:type="MSShapeGroup"></path>
                        </g>
                        <g transform="translate(178.000000, 344.000000)">
                            <path d="M3.26,47.621 C0.14,50.742 0.14,55.801 3.26,58.92 L21.154,76.813 L33.208,64.76 L42.626,74.176 L30.571,86.231 L48.462,104.124 C51.584,107.243 56.643,107.243 59.764,104.124 L77.658,86.231 L21.156,29.728 L3.26,47.621 L3.26,47.621 Z" id="path3008_146_" fill="#FFFFFF" sketch:type="MSShapeGroup"></path>
                            <path d="M30.57,20.313 L87.07,76.815 L104.963,58.92 C108.084,55.801 108.084,50.742 104.963,47.621 L59.762,2.419 C56.642,-0.701 51.583,-0.701 48.462,2.419 L30.57,20.313 L30.57,20.313 Z" id="path7_146_" fill="#FFFFFF" sketch:type="MSShapeGroup"></path>
                        </g>
                        <g transform="translate(520.000000, 209.000000)">
                            <path d="M2.544,47.81 C-0.577,50.93 -0.577,55.99 2.544,59.11 L20.437,77.003 L32.49,64.949 L41.908,74.366 L29.853,86.421 L47.746,104.313 C50.867,107.433 55.926,107.433 59.047,104.313 L76.94,86.421 L20.438,29.919 L2.544,47.81 L2.544,47.81 Z" id="path3008_304_" fill="#FFFFFF" sketch:type="MSShapeGroup"></path>
                            <path d="M29.853,20.501 L86.355,77.003 L104.248,59.109 C107.369,55.99 107.369,50.929 104.248,47.809 L59.047,2.607 C55.926,-0.512 50.867,-0.512 47.746,2.607 L29.853,20.501 L29.853,20.501 Z" id="path7_304_" fill="#FFFFFF" sketch:type="MSShapeGroup"></path>
                        </g>
                        <g transform="translate(692.000000, 129.000000)">
                            <path d="M1.837,33.01 C-0.268,35.114 -0.268,38.526 1.837,40.629 L13.901,52.694 L22.028,44.566 L28.378,50.916 L20.251,59.045 L32.315,71.109 C34.419,73.213 37.831,73.213 39.934,71.109 L52,59.045 L13.9,20.945 L1.837,33.01 L1.837,33.01 Z" id="path3008_276_" fill="#FFFFFF" sketch:type="MSShapeGroup"></path>
                            <path d="M20.251,14.596 L58.349,52.696 L70.413,40.631 C72.518,38.527 72.518,35.116 70.413,33.012 L39.934,2.533 C37.83,0.428 34.418,0.428 32.315,2.533 L20.251,14.596 L20.251,14.596 Z" id="path7_276_" fill="#FFFFFF" sketch:type="MSShapeGroup"></path>
                        </g>
                        <g transform="translate(686.000000, 253.000000)">
                            <path d="M1.814,32.525 C-0.29,34.629 -0.29,38.041 1.814,40.144 L13.878,52.209 L22.007,44.081 L28.357,50.431 L20.228,58.56 L32.292,70.624 C34.397,72.728 37.81,72.728 39.913,70.624 L51.977,58.56 L13.877,20.46 L1.814,32.525 L1.814,32.525 Z" id="path3008_285_" fill="#FFFFFF" sketch:type="MSShapeGroup"></path>
                            <path d="M20.23,14.111 L58.326,52.211 L70.392,40.146 C72.496,38.042 72.496,34.63 70.392,32.527 L39.913,2.048 C37.809,-0.056 34.397,-0.056 32.292,2.048 L20.23,14.111 L20.23,14.111 Z" id="path7_285_" fill="#FFFFFF" sketch:type="MSShapeGroup"></path>
                        </g>
                        <g transform="translate(570.000000, 276.000000)">
                            <path d="M3.937,67.098 C-0.463,71.498 -0.463,78.633 3.937,83.034 L29.167,108.264 L46.163,91.267 L59.442,104.545 L42.446,121.544 L67.675,146.773 C72.077,151.173 79.212,151.173 83.611,146.773 L108.843,121.544 L29.167,41.867 L3.937,67.098 L3.937,67.098 Z" id="path3008_278_" fill="#FFFFFF" sketch:type="MSShapeGroup"></path>
                            <path d="M42.447,28.588 L122.121,108.266 L147.351,83.034 C151.751,78.634 151.751,71.499 147.351,67.1 L83.613,3.358 C79.213,-1.042 72.078,-1.042 67.677,3.358 L42.447,28.588 L42.447,28.588 Z" id="path7_278_" fill="#FFFFFF" sketch:type="MSShapeGroup"></path>
                        </g>
                        <g transform="translate(787.000000, 250.000000)">
                            <path d="M3.679,67.198 C-0.719,71.597 -0.719,78.732 3.679,83.133 L28.911,108.363 L45.909,91.365 L59.188,104.645 L42.19,121.643 L67.419,146.872 C71.821,151.272 78.956,151.272 83.357,146.872 L108.587,121.643 L28.911,41.966 L3.679,67.198 L3.679,67.198 Z" id="path3008_277_" fill="#FFFFFF" sketch:type="MSShapeGroup"></path>
                            <path d="M42.193,28.688 L121.865,108.366 L147.097,83.134 C151.497,78.734 151.497,71.599 147.097,67.199 L83.357,3.459 C78.957,-0.942 71.822,-0.942 67.421,3.459 L42.193,28.688 L42.193,28.688 Z" id="path7_277_" fill="#FFFFFF" sketch:type="MSShapeGroup"></path>
                        </g>
                        <g transform="translate(42.000000, 249.000000)">
                            <path d="M4.244,67.979 C-0.172,72.393 -0.172,79.551 4.244,83.966 L29.56,109.28 L46.614,92.226 L59.937,105.55 L42.883,122.605 L68.196,147.918 C72.612,152.332 79.77,152.332 84.185,147.918 L109.5,122.605 L29.558,42.663 L4.244,67.979 L4.244,67.979 Z" id="path3008_14_" fill="#FFFFFF" sketch:type="MSShapeGroup"></path>
                            <path d="M42.883,29.34 L122.822,109.281 L148.137,83.966 C152.552,79.551 152.552,72.393 148.137,67.979 L84.186,4.026 C79.77,-0.39 72.612,-0.39 68.198,4.026 L42.883,29.34 L42.883,29.34 Z" id="path7_14_" fill="#FFFFFF" sketch:type="MSShapeGroup"></path>
                        </g>
                        <g transform="translate(233.000000, 249.000000)">
                            <path d="M4.208,65.532 C-0.079,69.819 -0.079,76.769 4.208,81.057 L28.792,105.64 L45.354,89.079 L58.292,102.017 L41.73,118.58 L66.312,143.162 C70.6,147.449 77.552,147.449 81.839,143.162 L106.423,118.58 L28.791,40.947 L4.208,65.532 L4.208,65.532 Z" id="path3008_13_" fill="#FFFFFF" sketch:type="MSShapeGroup"></path>
                            <path d="M41.731,28.01 L119.36,105.643 L143.944,81.059 C148.231,76.77 148.231,69.82 143.944,65.533 L81.84,3.427 C77.552,-0.859 70.601,-0.859 66.314,3.427 L41.731,28.01 L41.731,28.01 Z" id="path7_13_" fill="#FFFFFF" sketch:type="MSShapeGroup"></path>
                        </g>
                        <g transform="translate(241.000000, 206.000000)">
                            <path d="M2.014,22.994 C0.55,24.457 0.55,26.832 2.014,28.295 L10.41,36.691 L16.066,31.035 L20.484,35.453 L14.829,41.11 L23.223,49.506 C24.688,50.969 27.062,50.969 28.527,49.506 L36.923,41.11 L10.411,14.596 L2.014,22.994 L2.014,22.994 Z" id="path3008_12_" fill="#FFFFFF" sketch:type="MSShapeGroup"></path>
                            <path d="M14.828,10.179 L41.339,36.692 L49.735,28.296 C51.199,26.833 51.199,24.458 49.735,22.995 L28.525,1.783 C27.061,0.32 24.687,0.32 23.222,1.783 L14.828,10.179 L14.828,10.179 Z" id="path7_12_" fill="#FFFFFF" sketch:type="MSShapeGroup"></path>
                        </g>
                        <g transform="translate(365.000000, 117.000000)">
                            <path d="M1.746,32.908 C-0.358,35.01 -0.358,38.422 1.746,40.526 L13.811,52.59 L21.938,44.462 L28.287,50.813 L20.16,58.941 L32.224,71.005 C34.328,73.109 37.741,73.109 39.845,71.005 L51.91,58.941 L13.811,20.841 L1.746,32.908 L1.746,32.908 Z" id="path3008_11_" fill="#FFFFFF" sketch:type="MSShapeGroup"></path>
                            <path d="M20.161,14.492 L58.26,52.592 L70.324,40.527 C72.429,38.423 72.429,35.011 70.324,32.909 L39.845,2.429 C37.741,0.325 34.33,0.325 32.225,2.429 L20.161,14.492 L20.161,14.492 Z" id="path7_11_" fill="#FFFFFF" sketch:type="MSShapeGroup"></path>
                        </g>
                        <g transform="translate(483.000000, 289.000000)">
                            <path d="M2.099,32.277 C-0.005,34.381 -0.005,37.793 2.099,39.896 L14.164,51.96 L22.291,43.833 L28.643,50.183 L20.514,58.311 L32.578,70.375 C34.683,72.479 38.094,72.479 40.199,70.375 L52.263,58.311 L14.163,20.211 L2.099,32.277 L2.099,32.277 Z" id="path3008_9_" fill="#FFFFFF" sketch:type="MSShapeGroup"></path>
                            <path d="M20.513,13.862 L58.613,51.962 L70.677,39.897 C72.781,37.793 72.781,34.381 70.677,32.278 L40.198,1.799 C38.093,-0.305 34.682,-0.305 32.577,1.799 L20.513,13.862 L20.513,13.862 Z" id="path7_9_" fill="#FFFFFF" sketch:type="MSShapeGroup"></path>
                        </g>
                        <g transform="translate(95.000000, 147.000000)">
                            <path d="M3.278,48.323 C0.158,51.443 0.158,56.502 3.278,59.624 L21.171,77.516 L33.225,65.463 L42.642,74.879 L30.588,86.934 L48.479,104.827 C51.601,107.946 56.66,107.946 59.781,104.827 L77.674,86.934 L21.172,30.431 L3.278,48.323 L3.278,48.323 Z" id="path3008_8_" fill="#FFFFFF" sketch:type="MSShapeGroup"></path>
                            <path d="M30.588,21.014 L87.088,77.516 L104.981,59.623 C108.102,56.502 108.102,51.443 104.981,48.323 L59.781,3.121 C56.66,-2.27373675e-13 51.601,-2.27373675e-13 48.48,3.121 L30.588,21.014 L30.588,21.014 Z" id="path7_8_" fill="#FFFFFF" sketch:type="MSShapeGroup"></path>
                        </g>
                        <g transform="translate(377.000000, 304.000000)">
                            <path d="M3.284,48.088 C0.164,51.208 0.164,56.268 3.284,59.389 L21.177,77.281 L33.231,65.227 L42.648,74.645 L30.595,86.698 L48.486,104.591 C51.608,107.711 56.667,107.711 59.787,104.591 L77.68,86.698 L21.178,30.196 L3.284,48.088 L3.284,48.088 Z" id="path3008_7_" fill="#FFFFFF" sketch:type="MSShapeGroup"></path>
                            <path d="M30.595,20.778 L87.094,77.281 L104.988,59.388 C108.109,56.267 108.109,51.206 104.988,48.087 L59.787,2.885 C56.667,-0.235 51.608,-0.235 48.486,2.885 L30.595,20.778 L30.595,20.778 Z" id="path7_7_" fill="#FFFFFF" sketch:type="MSShapeGroup"></path>
                        </g>
                        <g transform="translate(615.000000, 169.000000)">
                            <path d="M3.328,48.399 C0.207,51.519 0.207,56.578 3.328,59.699 L21.221,77.592 L33.276,65.538 L42.692,74.955 L30.637,87.01 L48.53,104.902 C51.651,108.021 56.71,108.021 59.831,104.902 L77.724,87.01 L21.222,30.506 L3.328,48.399 L3.328,48.399 Z" id="path3008_6_" fill="#FFFFFF" sketch:type="MSShapeGroup"></path>
                            <path d="M30.636,21.09 L87.136,77.592 L105.031,59.699 C108.15,56.578 108.15,51.519 105.031,48.399 L59.83,3.197 C56.709,0.078 51.65,0.078 48.529,3.197 L30.636,21.09 L30.636,21.09 Z" id="path7_6_" fill="#FFFFFF" sketch:type="MSShapeGroup"></path>
                        </g>
                        <g transform="translate(736.000000, 190.000000)">
                            <path d="M3.289,47.725 C0.17,50.845 0.17,55.905 3.289,59.025 L21.182,76.919 L33.237,64.864 L42.653,74.282 L30.6,86.337 L48.491,104.228 C51.612,107.348 56.673,107.348 59.792,104.228 L77.685,86.337 L21.183,29.833 L3.289,47.725 L3.289,47.725 Z" id="path3008_5_" fill="#FFFFFF" sketch:type="MSShapeGroup"></path>
                            <path d="M30.599,20.416 L87.099,76.918 L104.992,59.024 C108.113,55.904 108.113,50.844 104.992,47.724 L59.791,2.523 C56.672,-0.598 51.611,-0.598 48.492,2.523 L30.599,20.416 L30.599,20.416 Z" id="path7_5_" fill="#FFFFFF" sketch:type="MSShapeGroup"></path>
                        </g>
                        <g transform="translate(710.000000, 328.000000)">
                            <path d="M2.603,47.638 C-0.518,50.758 -0.518,55.817 2.603,58.938 L20.496,76.831 L32.549,64.777 L41.967,74.194 L29.912,86.249 L47.805,104.141 C50.926,107.261 55.985,107.261 59.106,104.141 L76.999,86.249 L20.497,29.745 L2.603,47.638 L2.603,47.638 Z" id="path3008_4_" fill="#FFFFFF" sketch:type="MSShapeGroup"></path>
                            <path d="M29.912,20.328 L86.414,76.83 L104.307,58.937 C107.426,55.816 107.426,50.756 104.307,47.636 L59.106,2.435 C55.985,-0.686 50.926,-0.686 47.805,2.435 L29.912,20.328 L29.912,20.328 Z" id="path7_4_" fill="#FFFFFF" sketch:type="MSShapeGroup"></path>
                        </g>
                        <g transform="translate(638.000000, 400.000000)">
                            <path d="M3.457,53.799 C-0.064,57.319 -0.064,63.027 3.457,66.547 L23.645,86.735 L37.245,73.135 L47.87,83.76 L34.27,97.361 L54.456,117.548 C57.977,121.068 63.685,121.068 67.206,117.548 L87.394,97.361 L23.646,33.611 L3.457,53.799 L3.457,53.799 Z" id="path3008_188_" fill="#FFFFFF" sketch:type="MSShapeGroup"></path>
                            <path d="M34.269,22.987 L98.015,86.736 L118.203,66.547 C121.723,63.026 121.723,57.318 118.203,53.799 L67.205,2.8 C63.684,-0.721 57.976,-0.721 54.455,2.8 L34.269,22.987 L34.269,22.987 Z" id="path7_188_" fill="#FFFFFF" sketch:type="MSShapeGroup"></path>
                        </g>
                        <g transform="translate(691.000000, 129.000000)">
                            <g fill="#FFFFFF" sketch:type="MSShapeGroup">
                                <path d="M2.544,33.025 C0.44,35.129 0.44,38.54 2.544,40.644 L14.608,52.708 L22.737,44.58 L29.087,50.93 L20.958,59.058 L33.024,71.122 C35.128,73.226 38.54,73.226 40.643,71.122 L52.707,59.058 L14.607,20.958 L2.544,33.025 L2.544,33.025 Z" id="path3008_173_"></path>
                                <path d="M20.958,14.609 L59.058,52.709 L71.122,40.645 C73.226,38.541 73.226,35.129 71.122,33.026 L40.643,2.546 C38.539,0.442 35.127,0.442 33.024,2.546 L20.958,14.609 L20.958,14.609 Z" id="path7_173_"></path>
                            </g>
                            <g transform="translate(45.000000, 61.000000)" fill="#FFFFFF" sketch:type="MSShapeGroup">
                                <path d="M2.996,47.739 C-0.123,50.859 -0.123,55.919 2.996,59.039 L20.891,76.932 L32.944,64.878 L42.362,74.295 L30.307,86.35 L48.198,104.242 C51.321,107.362 56.38,107.362 59.501,104.242 L77.394,86.35 L20.892,29.847 L2.996,47.739 L2.996,47.739 Z" id="path3008_172_"></path>
                                <path d="M30.306,20.43 L86.808,76.933 L104.701,59.039 C107.82,55.919 107.82,50.859 104.701,47.739 L59.5,2.537 C56.379,-0.583 51.318,-0.583 48.199,2.537 L30.306,20.43 L30.306,20.43 Z" id="path7_172_"></path>
                            </g>
                            <g transform="translate(148.000000, 18.000000)" fill="#FFFFFF" sketch:type="MSShapeGroup">
                                <path d="M2.869,48.256 C-0.25,51.377 -0.25,56.436 2.869,59.557 L20.764,77.45 L32.817,65.396 L42.235,74.813 L30.18,86.868 L48.071,104.76 C51.192,107.88 56.253,107.88 59.374,104.76 L77.267,86.868 L20.765,30.365 L2.869,48.256 L2.869,48.256 Z" id="path3008_171_"></path>
                                <path d="M30.179,20.948 L86.679,77.45 L104.572,59.556 C107.693,56.435 107.693,51.376 104.572,48.255 L59.371,3.054 C56.252,-0.067 51.191,-0.067 48.072,3.054 L30.179,20.948 L30.179,20.948 Z" id="path7_171_"></path>
                            </g>
                        </g>
                        <g transform="translate(169.000000, 439.000000)">
                            <path d="M1.765,22.322 C0.301,23.785 0.301,26.16 1.765,27.624 L10.161,36.02 L15.816,30.364 L20.235,34.784 L14.579,40.439 L22.974,48.835 C24.439,50.3 26.813,50.3 28.277,48.835 L36.673,40.439 L10.161,13.926 L1.765,22.322 L1.765,22.322 Z" id="path3008_179_" fill="#FFFFFF" sketch:type="MSShapeGroup"></path>
                            <path d="M14.58,9.508 L41.091,36.02 L49.487,27.624 C50.951,26.16 50.951,23.785 49.487,22.322 L28.277,1.111 C26.813,-0.354 24.439,-0.354 22.975,1.111 L14.58,9.508 L14.58,9.508 Z" id="path7_179_" fill="#FFFFFF" sketch:type="MSShapeGroup"></path>
                        </g>
                        <g transform="translate(138.000000, 401.000000)">
                            <path d="M2.093,22.807 C0.629,24.27 0.629,26.645 2.093,28.11 L10.489,36.505 L16.145,30.849 L20.563,35.269 L14.907,40.925 L23.302,49.32 C24.766,50.785 27.141,50.785 28.605,49.32 L37.001,40.925 L10.488,14.411 L2.093,22.807 L2.093,22.807 Z" id="path3008_89_" fill="#FFFFFF" sketch:type="MSShapeGroup"></path>
                            <path d="M14.908,9.992 L41.42,36.506 L49.816,28.11 C51.28,26.645 51.28,24.27 49.816,22.807 L28.606,1.596 C27.142,0.133 24.767,0.133 23.304,1.596 L14.908,9.992 L14.908,9.992 Z" id="path7_89_" fill="#FFFFFF" sketch:type="MSShapeGroup"></path>
                        </g>
                        <g transform="translate(307.000000, 426.000000)">
                            <path d="M2.398,48 C-0.722,51.121 -0.722,56.18 2.398,59.301 L20.292,77.192 L32.346,65.14 L41.763,74.557 L29.709,86.612 L47.6,104.503 C50.721,107.623 55.781,107.623 58.901,104.503 L76.794,86.612 L20.292,30.108 L2.398,48 L2.398,48 Z" id="path3008_178_" fill="#FFFFFF" sketch:type="MSShapeGroup"></path>
                            <path d="M29.709,20.691 L86.209,77.193 L104.102,59.299 C107.222,56.179 107.222,51.119 104.102,47.999 L58.9,2.797 C55.78,-0.323 50.72,-0.323 47.6,2.797 L29.709,20.691 L29.709,20.691 Z" id="path7_178_" fill="#FFFFFF" sketch:type="MSShapeGroup"></path>
                        </g>
                        <g transform="translate(471.000000, 450.000000)">
                            <path d="M20.509,13.902 L58.609,52.002 L70.673,39.937 C72.777,37.833 72.777,34.42 70.673,32.318 L40.194,1.839 C38.089,-0.266 34.678,-0.266 32.573,1.839 L20.509,13.902 L20.509,13.902 Z" id="path7_86_" fill="#FFFFFF" sketch:type="MSShapeGroup"></path>
                        </g>
                        <g transform="translate(739.000000, 444.000000)">
                            <path d="M42.48,28.85 L122.154,108.526 L147.386,83.294 C151.786,78.894 151.786,71.761 147.386,67.359 L83.646,3.618 C79.246,-0.78 72.111,-0.78 67.71,3.618 L42.48,28.85 L42.48,28.85 Z" id="path7_190_" fill="#FFFFFF" sketch:type="MSShapeGroup"></path>
                        </g>
                        <g transform="translate(827.000000, 404.000000)">
                            <path d="M1.451,22.747 C-0.014,24.211 -0.014,26.584 1.451,28.049 L9.847,36.445 L15.503,30.789 L19.921,35.207 L14.265,40.863 L22.66,49.259 C24.125,50.722 26.5,50.722 27.963,49.259 L36.359,40.863 L9.847,14.351 L1.451,22.747 L1.451,22.747 Z" id="path3008_191_" fill="#FFFFFF" sketch:type="MSShapeGroup"></path>
                            <path d="M14.265,9.934 L40.777,36.446 L49.173,28.05 C50.638,26.585 50.638,24.212 49.173,22.748 L27.962,1.538 C26.499,0.073 24.124,0.073 22.661,1.538 L14.265,9.934 L14.265,9.934 Z" id="path7_191_" fill="#FFFFFF" sketch:type="MSShapeGroup"></path>
                        </g>
                        <g transform="translate(176.000000, 0.000000)">
                            <g transform="translate(0.000000, 59.000000)" fill="#FFFFFF" sketch:type="MSShapeGroup">
                                <path d="M3.326,66.279 C-0.962,70.566 -0.962,77.517 3.326,81.805 L27.91,106.388 L44.472,89.826 L57.411,102.765 L40.849,119.328 L65.431,143.909 C69.72,148.196 76.671,148.196 80.958,143.909 L105.542,119.328 L27.911,41.694 L3.326,66.279 L3.326,66.279 Z" id="path3008_224_"></path>
                                <path d="M40.848,28.758 L118.477,106.391 L143.061,81.807 C147.348,77.518 147.348,70.567 143.061,66.281 L80.957,4.175 C76.669,-0.11 69.718,-0.11 65.431,4.175 L40.848,28.758 L40.848,28.758 Z" id="path7_224_"></path>
                            </g>
                            <g transform="translate(237.000000, 124.000000)" fill="#FFFFFF" sketch:type="MSShapeGroup">
                                <path d="M4.147,65.32 C-0.139,69.607 -0.139,76.558 4.147,80.845 L28.731,105.428 L45.293,88.866 L58.231,101.805 L41.669,118.367 L66.251,142.949 C70.539,147.235 77.491,147.235 81.778,142.949 L106.362,118.367 L28.731,40.734 L4.147,65.32 L4.147,65.32 Z" id="path3008_223_"></path>
                                <path d="M41.67,27.799 L119.3,105.43 L143.884,80.846 C148.169,76.559 148.169,69.608 143.884,65.321 L81.779,3.216 C77.492,-1.071 70.54,-1.071 66.253,3.216 L41.67,27.799 L41.67,27.799 Z" id="path7_223_"></path>
                            </g>
                            <g transform="translate(243.000000, 89.000000)" fill="#FFFFFF" sketch:type="MSShapeGroup">
                                <path d="M1.932,23.107 C0.469,24.572 0.469,26.945 1.932,28.41 L10.328,36.805 L15.984,31.151 L20.403,35.569 L14.747,41.225 L23.142,49.62 C24.606,51.085 26.98,51.085 28.444,49.62 L36.84,41.225 L10.328,14.712 L1.932,23.107 L1.932,23.107 Z" id="path3008_221_"></path>
                                <path d="M14.748,10.294 L41.26,36.807 L49.656,28.411 C51.12,26.947 51.12,24.573 49.656,23.109 L28.446,1.899 C26.982,0.434 24.608,0.434 23.144,1.899 L14.748,10.294 L14.748,10.294 Z" id="path7_221_"></path>
                            </g>
                            <g transform="translate(352.000000, 14.000000)" id="path3008_220_" fill="#FFFFFF" sketch:type="MSShapeGroup">
                                <path d="M1.849,27.298 C0.072,29.076 0.072,31.959 1.849,33.737 L12.048,43.935 L18.917,37.066 L24.286,42.431 L17.415,49.302 L27.612,59.499 C29.391,61.277 32.274,61.277 34.053,59.499 L44.25,49.302 L12.047,17.099 L1.849,27.298 L1.849,27.298 Z"></path>
                            </g>
                            <g transform="translate(131.000000, 26.000000)" fill="#FFFFFF" sketch:type="MSShapeGroup">
                                <path d="M2.398,48.201 C-0.722,51.321 -0.722,56.38 2.398,59.5 L20.292,77.393 L32.346,65.34 L41.763,74.757 L29.709,86.811 L47.6,104.704 C50.721,107.823 55.781,107.823 58.901,104.704 L76.794,86.811 L20.292,30.309 L2.398,48.201 L2.398,48.201 Z" id="path3008_219_"></path>
                                <path d="M29.709,20.892 L86.209,77.394 L104.102,59.5 C107.222,56.38 107.222,51.32 104.102,48.201 L58.9,2.998 C55.78,-0.121 50.72,-0.121 47.6,2.998 L29.709,20.892 L29.709,20.892 Z" id="path7_219_"></path>
                            </g>
                            <g transform="translate(568.000000, 44.000000)" fill="#FFFFFF" sketch:type="MSShapeGroup">
                                <path d="M3.404,67.281 C-0.994,71.681 -0.994,78.815 3.404,83.217 L28.636,108.447 L45.634,91.449 L58.913,104.728 L41.915,121.727 L67.144,146.956 C71.544,151.354 78.681,151.354 83.08,146.956 L108.312,121.727 L28.636,42.049 L3.404,67.281 L3.404,67.281 Z" id="path3008_218_"></path>
                                <path d="M41.916,28.772 L121.59,108.448 L146.822,83.217 C151.22,78.817 151.22,71.682 146.822,67.281 L83.082,3.541 C78.682,-0.858 71.547,-0.858 67.146,3.541 L41.916,28.772 L41.916,28.772 Z" id="path7_218_"></path>
                            </g>
                            <g transform="translate(690.000000, 48.000000)" fill="#FFFFFF" sketch:type="MSShapeGroup">
                                <path d="M1.609,22.754 C0.144,24.218 0.144,26.592 1.609,28.057 L10.004,36.453 L15.662,30.797 L20.08,35.216 L14.424,40.872 L22.819,49.268 C24.284,50.732 26.659,50.732 28.122,49.268 L36.518,40.872 L10.004,14.358 L1.609,22.754 L1.609,22.754 Z" id="path3008_217_"></path>
                                <path d="M14.423,9.939 L40.935,36.453 L49.331,28.057 C50.796,26.592 50.796,24.218 49.331,22.754 L28.12,1.544 C26.657,0.08 24.282,0.08 22.817,1.544 L14.423,9.939 L14.423,9.939 Z" id="path7_217_"></path>
                            </g>
                            <g transform="translate(516.000000, 130.000000)" fill="#FFFFFF" sketch:type="MSShapeGroup">
                                <path d="M1.837,32.211 C-0.268,34.315 -0.268,37.726 1.837,39.83 L13.901,51.894 L22.028,43.766 L28.378,50.117 L20.251,58.245 L32.315,70.309 C34.419,72.412 37.831,72.412 39.934,70.309 L52,58.245 L13.9,20.144 L1.837,32.211 L1.837,32.211 Z" id="path3008_216_"></path>
                                <path d="M20.251,13.797 L58.349,51.895 L70.413,39.831 C72.518,37.727 72.518,34.315 70.413,32.212 L39.934,1.732 C37.83,-0.372 34.418,-0.372 32.315,1.732 L20.251,13.797 L20.251,13.797 Z" id="path7_216_"></path>
                            </g>
                            <g transform="translate(189.000000, 118.000000)" fill="#FFFFFF" sketch:type="MSShapeGroup">
                                <path d="M1.746,32.107 C-0.358,34.211 -0.358,37.623 1.746,39.726 L13.811,51.79 L21.938,43.662 L28.287,50.013 L20.16,58.141 L32.224,70.205 C34.328,72.309 37.741,72.309 39.845,70.205 L51.91,58.141 L13.811,20.041 L1.746,32.107 L1.746,32.107 Z" id="path3008_215_"></path>
                                <path d="M20.161,13.693 L58.26,51.791 L70.324,39.727 C72.429,37.623 72.429,34.211 70.324,32.108 L39.845,1.628 C37.741,-0.476 34.33,-0.476 32.225,1.628 L20.161,13.693 L20.161,13.693 Z" id="path7_215_"></path>
                            </g>
                            <g transform="translate(295.000000, 50.000000)" fill="#FFFFFF" sketch:type="MSShapeGroup">
                                <path d="M2.095,32.518 C-0.009,34.622 -0.009,38.033 2.095,40.137 L14.16,52.201 L22.286,44.072 L28.636,50.424 L20.509,58.553 L32.573,70.616 C34.677,72.719 38.089,72.719 40.194,70.616 L52.258,58.553 L14.159,20.451 L2.095,32.518 L2.095,32.518 Z" id="path3008_214_"></path>
                                <path d="M20.509,14.104 L58.609,52.202 L70.673,40.138 C72.777,38.034 72.777,34.622 70.673,32.519 L40.194,2.039 C38.089,-0.065 34.678,-0.065 32.573,2.039 L20.509,14.104 L20.509,14.104 Z" id="path7_214_"></path>
                            </g>
                            <g transform="translate(237.000000, 12.000000)" fill="#FFFFFF" sketch:type="MSShapeGroup">
                                <path d="M1.823,32.378 C-0.281,34.482 -0.281,37.893 1.823,39.996 L13.888,52.06 L22.015,43.933 L28.365,50.283 L20.238,58.412 L32.302,70.476 C34.406,72.58 37.818,72.58 39.922,70.476 L51.986,58.412 L13.887,20.312 L1.823,32.378 L1.823,32.378 Z" id="path3008_213_"></path>
                                <path d="M20.238,13.963 L58.336,52.062 L70.401,39.997 C72.505,37.893 72.505,34.482 70.401,32.379 L39.922,1.9 C37.818,-0.205 34.406,-0.205 32.302,1.9 L20.238,13.963 L20.238,13.963 Z" id="path7_213_"></path>
                            </g>
                            <g transform="translate(347.000000, 59.000000)" fill="#FFFFFF" sketch:type="MSShapeGroup">
                                <path d="M3.693,67.676 C-0.707,72.074 -0.707,79.209 3.693,83.61 L28.923,108.84 L45.921,91.844 L59.2,105.122 L42.202,122.121 L67.432,147.35 C71.832,151.749 78.967,151.749 83.368,147.35 L108.598,122.121 L28.922,42.443 L3.693,67.676 L3.693,67.676 Z" id="path3008_208_"></path>
                                <path d="M42.203,29.166 L121.877,108.842 L147.107,83.61 C151.507,79.21 151.507,72.076 147.107,67.676 L83.369,3.936 C78.969,-0.464 71.834,-0.464 67.433,3.936 L42.203,29.166 L42.203,29.166 Z" id="path7_208_"></path>
                            </g>
                            <g transform="translate(93.000000, 1.000000)" id="path3008_195_" fill="#FFFFFF" sketch:type="MSShapeGroup">
                                <path d="M1.793,28.123 C-0.05,29.967 -0.05,32.956 1.793,34.8 L12.366,45.373 L19.489,38.25 L25.053,43.814 L17.93,50.937 L28.502,61.51 C30.347,63.353 33.335,63.353 35.18,61.51 L45.752,50.937 L12.365,17.55 L1.793,28.123 L1.793,28.123 Z"></path>
                            </g>
                            <g transform="translate(462.000000, 0.000000)" fill="#FFFFFF" sketch:type="MSShapeGroup">
                                <path d="M3.457,53.998 C-0.064,57.519 -0.064,63.227 3.457,66.748 L23.645,86.935 L37.245,73.335 L47.87,83.961 L34.27,97.561 L54.456,117.748 C57.977,121.267 63.685,121.267 67.206,117.748 L87.394,97.561 L23.646,33.811 L3.457,53.998 L3.457,53.998 Z" id="path3008_193_"></path>
                                <path d="M34.269,23.188 L98.015,86.936 L118.203,66.748 C121.723,63.227 121.723,57.519 118.203,53.998 L67.205,3 C63.684,-0.521 57.976,-0.521 54.455,3 L34.269,23.188 L34.269,23.188 Z" id="path7_193_"></path>
                            </g>
                        </g>
                        <g transform="translate(96.000000, 148.000000)">
                            <path d="M2.356,47.748 C-0.764,50.869 -0.764,55.928 2.356,59.049 L20.249,76.941 L32.303,64.888 L41.719,74.305 L29.666,86.36 L47.557,104.252 C50.679,107.372 55.738,107.372 58.859,104.252 L76.752,86.36 L20.25,29.856 L2.356,47.748 L2.356,47.748 Z" id="path3008_28_" fill="#FFFFFF" sketch:type="MSShapeGroup"></path>
                            <path d="M29.666,20.439 L86.166,76.941 L104.059,59.048 C107.18,55.927 107.18,50.868 104.059,47.747 L58.858,2.546 C55.737,-0.575 50.678,-0.575 47.557,2.546 L29.666,20.439 L29.666,20.439 Z" id="path7_28_" fill="#FFFFFF" sketch:type="MSShapeGroup"></path>
                        </g>
                        <g transform="translate(122.000000, 1.000000)">
                            <g transform="translate(54.000000, 37.000000)" fill="#FFFFFF" sketch:type="MSShapeGroup">
                                <path d="M1.799,22.73 C0.335,24.193 0.335,26.568 1.799,28.031 L10.195,36.427 L15.851,30.771 L20.27,35.19 L14.614,40.845 L23.009,49.241 C24.473,50.705 26.848,50.705 28.312,49.241 L36.708,40.845 L10.195,14.333 L1.799,22.73 L1.799,22.73 Z" id="path3008_25_"></path>
                                <path d="M14.614,9.916 L41.126,36.429 L49.522,28.033 C50.986,26.569 50.986,24.194 49.522,22.731 L28.312,1.52 C26.848,0.056 24.474,0.056 23.01,1.52 L14.614,9.916 L14.614,9.916 Z" id="path7_25_"></path>
                            </g>
                            <g transform="translate(0.000000, 48.000000)" fill="#FFFFFF" sketch:type="MSShapeGroup">
                                <path d="M2.041,22.777 C0.577,24.24 0.577,26.615 2.041,28.079 L10.437,36.475 L16.092,30.818 L20.511,35.239 L14.855,40.893 L23.25,49.289 C24.715,50.753 27.089,50.753 28.553,49.289 L36.949,40.893 L10.437,14.381 L2.041,22.777 L2.041,22.777 Z" id="path3008_24_"></path>
                                <path d="M14.856,9.963 L41.367,36.475 L49.763,28.079 C51.227,26.615 51.227,24.24 49.763,22.777 L28.553,1.566 C27.089,0.102 24.715,0.102 23.251,1.566 L14.856,9.963 L14.856,9.963 Z" id="path7_24_"></path>
                            </g>
                            <g transform="translate(147.000000, 0.000000)" id="path3008_3_" fill="#FFFFFF" sketch:type="MSShapeGroup">
                                <path d="M1.871,28.549 C0.028,30.393 0.028,33.381 1.871,35.225 L12.445,45.797 L19.567,38.676 L25.131,44.24 L18.008,51.363 L28.58,61.935 C30.424,63.778 33.413,63.778 35.258,61.935 L45.831,51.363 L12.444,17.976 L1.871,28.549 L1.871,28.549 Z"></path>
                            </g>
                        </g>
                        <g transform="translate(0.000000, 44.000000)">
                            <path d="M42.078,29.197 L121.751,108.873 L146.983,83.643 C151.383,79.242 151.383,72.108 146.983,67.707 L83.243,3.967 C78.843,-0.433 71.708,-0.433 67.307,3.967 L42.078,29.197 L42.078,29.197 Z" id="path7_1_" fill="#FFFFFF" sketch:type="MSShapeGroup"></path>
                        </g>
                        <g transform="translate(882.000000, 401.000000)">
                            <path d="M2.009,22.807 C0.544,24.27 0.544,26.645 2.009,28.11 L10.405,36.505 L16.061,30.849 L20.479,35.269 L14.823,40.925 L23.218,49.32 C24.683,50.785 27.058,50.785 28.521,49.32 L36.917,40.925 L10.403,14.411 L2.009,22.807 L2.009,22.807 Z" id="path3008_118_" fill="#FFFFFF" sketch:type="MSShapeGroup"></path>
                        </g>
                    </g>
                </g>
            </g>
        </g>
    </g>
</svg>