<?xml version="1.0" encoding="UTF-8" standalone="no"?>
<svg width="99px" height="124px" viewBox="0 0 99 124" version="1.1" xmlns="http://www.w3.org/2000/svg" xmlns:xlink="http://www.w3.org/1999/xlink" xmlns:sketch="http://www.bohemiancoding.com/sketch/ns">
    <!-- Generator: Sketch 3.2.2 (9983) - http://www.bohemiancoding.com/sketch -->
    <title>icon-plan</title>
    <desc>Created with Sketch.</desc>
    <defs></defs>
    <g id="Page-1" stroke="none" stroke-width="1" fill="none" fill-rule="evenodd" sketch:type="MSPage">
        <g id="icon-plan" sketch:type="MSLayerGroup" transform="translate(-1.000000, 0.000000)">
            <path d="M98,8 L77,8 L76,6 L100,6 L100,123 L100,124 L1,124 L1,123 L1,6 L2,6 L25,6 L24,8 L3,8 L3,122 L98,122 L98,8 Z" id="Rectangle-5" fill="#FFFFFF" sketch:type="MSShapeGroup"></path>
            <path d="M91,16 L81,16 L80,14 L93,14 L93,116 L8,116 L8,14 L21,14 L20,16 L10,16 L10,114 L91,114 L91,16 Z" id="Rectangle-6" fill="#FFFFFF" sketch:type="MSShapeGroup"></path>
            <path d="M29.5,4 L22,17 L79,17 L72,4.00000002 L61,4.00000002 C61,1.79535618 59.2048598,2.20221565e-08 57,2.20221565e-08 L43,2.20221565e-08 C40.8003523,2.20221565e-08 39,1.790861 39,4 L29.5,4 Z M41,6 C41.0148945,6 31,6 31,6 L26,15 L75,15 L70.5,6 L59,6 C58.9812503,4.34525074 59.5,2 56,2 L44,2 C40,2 41.0148946,6.11217281 41,6 Z" id="Rectangle-7" fill="#FFFFFF" sketch:type="MSShapeGroup"></path>
            <rect id="Rectangle-12" stroke="#FFFFFF" stroke-width="2" sketch:type="MSShapeGroup" x="17" y="84" width="20" height="20"></rect>
            <polygon id="Star-3" fill="#FFFFFF" sketch:type="MSShapeGroup" points="27 71.5 20.5343622 74.8991869 21.7691892 67.6995935 16.5383783 62.6008131 23.7671811 61.5504065 27 55 30.2328189 61.5504065 37.4616217 62.6008131 32.2308108 67.6995935 33.4656378 74.8991869 "></polygon>
            <polygon id="Star-4" fill="#FFFFFF" sketch:type="MSShapeGroup" points="27 44.5 20.5343622 47.8991869 21.7691892 40.6995935 16.5383783 35.6008131 23.7671811 34.5504065 27 28 30.2328189 34.5504065 37.4616217 35.6008131 32.2308108 40.6995935 33.4656378 47.8991869 "></polygon>
            <path d="M47,42 L85,42 L85,44 L47,44 L47,42 L47,42 Z" id="Path" fill="#FFFFFF" sketch:type="MSShapeGroup"></path>
            <path d="M47,62 L85,62 L85,64 L47,64 L47,62 L47,62 Z" id="Path" fill="#FFFFFF" sketch:type="MSShapeGroup"></path>
            <path d="M47,69 L85,69 L85,71 L47,71 L47,69 L47,69 Z" id="Path" fill="#FFFFFF" sketch:type="MSShapeGroup"></path>
            <path d="M47,90 L85,90 L85,92 L47,92 L47,90 L47,90 Z" id="Path" fill="#FFFFFF" sketch:type="MSShapeGroup"></path>
            <path d="M47,97 L85,97 L85,99 L47,99 L47,97 L47,97 Z" id="Path" fill="#FFFFFF" sketch:type="MSShapeGroup"></path>
            <path d="M47,35 L85,35 L85,37 L47,37 L47,35 L47,35 Z" id="Path" fill="#FFFFFF" sketch:type="MSShapeGroup"></path>
        </g>
    </g>
</svg>