<?xml version="1.0" encoding="UTF-8" standalone="no"?>
<svg width="131px" height="131px" viewBox="0 0 131 131" version="1.1" xmlns="http://www.w3.org/2000/svg" xmlns:xlink="http://www.w3.org/1999/xlink" xmlns:sketch="http://www.bohemiancoding.com/sketch/ns">
    <!-- Generator: Sketch 3.2.2 (9983) - http://www.bohemiancoding.com/sketch -->
    <title>icon-collaborate</title>
    <desc>Created with Sketch.</desc>
    <defs></defs>
    <g id="Page-1" stroke="none" stroke-width="1" fill="none" fill-rule="evenodd" sketch:type="MSPage">
        <g id="icon-collaborate" sketch:type="MSLayerGroup">
            <path d="M65.5,131 C101.674651,131 131,101.674651 131,65.5 C131,29.3253489 101.674651,0 65.5,0 C29.3253489,0 0,29.3253489 0,65.5 C0,101.674651 29.3253489,131 65.5,131 Z M65.5,129 C100.570082,129 129,100.570082 129,65.5 C129,30.4299184 100.570082,2 65.5,2 C30.4299184,2 2,30.4299184 2,65.5 C2,100.570082 30.4299184,129 65.5,129 Z" id="Oval-1" fill="#FFFFFF" sketch:type="MSShapeGroup"></path>
            <path d="M65.5,95 C74.6126984,95 82,87.6126984 82,78.5 C82,69.3873016 74.6126984,62 65.5,62 C56.3873016,62 49,69.3873016 49,78.5 C49,87.6126984 56.3873016,95 65.5,95 Z M65.5,92.9777354 C73.4958325,92.9777354 79.9777354,86.4958325 79.9777354,78.5 C79.9777354,70.5041675 73.4958325,64.0222646 65.5,64.0222646 C57.5041675,64.0222646 51.0222646,70.5041675 51.0222646,78.5 C51.0222646,86.4958325 57.5041675,92.9777354 65.5,92.9777354 Z" id="Oval-3" fill="#FFFFFF" sketch:type="MSShapeGroup"></path>
            <path d="M49.5,52 C51.271945,52 52.9696546,51.6821602 54.5392268,51.1003825 L60.2148418,53.880331 L59.3628175,48.1290477 C62.2151826,45.481078 64,41.6989722 64,37.5 C64,29.4918711 57.5081289,23 49.5,23 C41.4918711,23 35,29.4918711 35,37.5 C35,45.5081289 41.4918711,52 49.5,52 Z M49.1604393,50.110622 C49.2732632,50.1136043 49.3864564,50.1151048 49.5,50.1151048 C51.2777841,50.1151048 52.9696525,49.7472559 54.503644,49.0835191 L58.0609086,50.9471092 L57.6244987,47.1498007 C60.3683604,44.8363919 62.1114292,41.3735915 62.1114292,37.5036756 C62.1114292,30.5385756 56.4651,24.8922464 49.5,24.8922464 C42.5349,24.8922464 36.8885708,30.5385756 36.8885708,37.5036756 C36.8885708,44.355232 42.3523099,49.9306637 49.1604393,50.110622 Z" id="Oval-6" fill="#FFFFFF" sketch:type="MSShapeGroup" transform="translate(49.500000, 38.440166) rotate(-345.000000) translate(-49.500000, -38.440166) "></path>
            <path d="M86.5,44.0139347 C87.7510619,44.0139347 88.9497107,43.7895275 90.0578896,43.3787699 L94.065094,45.3415214 L93.4635318,41.2808922 C95.4774122,39.4113229 96.7375625,36.7410095 96.7375625,33.7763722 C96.7375625,28.1223225 92.1540496,23.5388097 86.5,23.5388097 C80.8459504,23.5388097 76.2624375,28.1223225 76.2624375,33.7763722 C76.2624375,39.4304218 80.8459504,44.0139347 86.5,44.0139347 Z M86.2687343,42.3756065 C86.3455756,42.3776377 86.4226685,42.3786596 86.5,42.3786596 C87.7108011,42.3786596 88.8630873,42.1281276 89.9078479,41.6760742 L92.3306055,42.9453155 L92.0333785,40.3590704 C93.9021491,38.7834697 95.0893066,36.4250491 95.0893066,33.7893531 C95.0893066,29.04561 91.243743,25.2000465 86.5,25.2000465 C81.756257,25.2000465 77.9106934,29.04561 77.9106934,33.7893531 C77.9106934,38.4557646 81.6318997,42.2530418 86.2687343,42.3756065 Z" id="Oval-7" fill="#FFFFFF" sketch:type="MSShapeGroup" transform="translate(86.500000, 34.440166) scale(-1, 1) rotate(-345.000000) translate(-86.500000, -34.440166) "></path>
            <path d="M105.5,81 C112.403559,81 118,75.4035594 118,68.5 C118,61.5964406 112.403559,56 105.5,56 C98.5964406,56 93,61.5964406 93,68.5 C93,75.4035594 98.5964406,81 105.5,81 Z M105.5,79.1834977 C111.400333,79.1834977 116.183498,74.4003328 116.183498,68.5 C116.183498,62.5996672 111.400333,57.8165023 105.5,57.8165023 C99.5996672,57.8165023 94.8165023,62.5996672 94.8165023,68.5 C94.8165023,74.4003328 99.5996672,79.1834977 105.5,79.1834977 Z" id="Oval-4" fill="#FFFFFF" sketch:type="MSShapeGroup"></path>
            <path d="M25.5,81 C32.4035594,81 38,75.4035594 38,68.5 C38,61.5964406 32.4035594,56 25.5,56 C18.5964406,56 13,61.5964406 13,68.5 C13,75.4035594 18.5964406,81 25.5,81 Z M25.5,79.1834977 C31.4003328,79.1834977 36.1834977,74.4003328 36.1834977,68.5 C36.1834977,62.5996672 31.4003328,57.8165023 25.5,57.8165023 C19.5996672,57.8165023 14.8165023,62.5996672 14.8165023,68.5 C14.8165023,74.4003328 19.5996672,79.1834977 25.5,79.1834977 Z" id="Oval-5" fill="#FFFFFF" sketch:type="MSShapeGroup"></path>
            <circle id="Oval-13" fill="#FFFFFF" sketch:type="MSShapeGroup" cx="44" cy="38" r="2"></circle>
            <circle id="Oval-14" fill="#FFFFFF" sketch:type="MSShapeGroup" cx="56" cy="38" r="2"></circle>
            <circle id="Oval-16" fill="#FFFFFF" sketch:type="MSShapeGroup" cx="81.5" cy="33.5" r="1.5"></circle>
            <circle id="Oval-17" fill="#FFFFFF" sketch:type="MSShapeGroup" cx="86.5" cy="33.5" r="1.5"></circle>
            <circle id="Oval-18" fill="#FFFFFF" sketch:type="MSShapeGroup" cx="91.5" cy="33.5" r="1.5"></circle>
            <circle id="Oval-15" fill="#FFFFFF" sketch:type="MSShapeGroup" cx="50" cy="38" r="2"></circle>
            <path d="M38.5488281,123.941406 C38.5488281,123.941406 40.9944502,107.694911 42.5034213,103.93052 C44.0123923,100.166128 46.4613976,99.8901109 49.87455,99.7229952 C52.3172422,99.6033954 73.5980962,99.5597208 78.8699582,99.5597208 C84.1418203,99.5597208 85.6338559,100.882822 86.8983614,103.796934 C88.162867,106.711046 91.7890625,123.941406 91.7890625,123.941406" id="Path-9" stroke="#FFFFFF" stroke-width="2" sketch:type="MSShapeGroup"></path>
            <path d="M81.4980469,100.026367 C81.4980469,100.026367 82.4456221,94.5040687 83.9545931,90.7396772 C85.4635642,86.9752858 87.9125695,86.6992683 91.3257219,86.5321526 C93.7684141,86.4125528 117.344084,86.3688782 120.32113,86.3688782 C123.298176,86.3688782 123.43207,87.7011974 124.696575,90.615309" id="Path-10" stroke="#FFFFFF" stroke-width="2" sketch:type="MSShapeGroup"></path>
            <path d="M6.49804688,100.026367 C6.49804688,100.026367 7.44562207,94.5040687 8.95459314,90.7396772 C10.4635642,86.9752858 12.9125695,86.6992683 16.3257219,86.5321526 C18.7684141,86.4125528 42.3440844,86.3688782 45.3211301,86.3688782 C48.2981758,86.3688782 48.4320696,87.7011974 49.6965752,90.615309" id="Path-11" stroke="#FFFFFF" stroke-width="2" sketch:type="MSShapeGroup" transform="translate(28.097311, 93.197623) scale(-1, 1) translate(-28.097311, -93.197623) "></path>
        </g>
    </g>
</svg>