<?xml version="1.0" encoding="UTF-8" standalone="no"?>
<svg width="16px" height="30px" viewBox="0 0 16 30" version="1.1" xmlns="http://www.w3.org/2000/svg" xmlns:xlink="http://www.w3.org/1999/xlink" xmlns:sketch="http://www.bohemiancoding.com/sketch/ns">
    <!-- Generator: Sketch 3.3.2 (12043) - http://www.bohemiancoding.com/sketch -->
    <title>icon--mobile</title>
    <desc>Created with Sketch.</desc>
    <defs></defs>
    <g id="Page-1" stroke="none" stroke-width="1" fill="none" fill-rule="evenodd" sketch:type="MSPage">
        <path d="M14,0 L2,0 C0.991872992,0 0,1.03321033 0,2 L0,28 C0,28.9667897 0.991872992,30 2,30 L14,30 C15.008127,30 16,28.9667897 16,28 L16,2 C15.999568,1.03321033 15.008127,0 14,0 L14,0 Z M2,6 L14,6 L14,23 L2,23 L2,6 Z M8,27 C8.55228475,27 9,26.5522847 9,26 C9,25.4477153 8.55228475,25 8,25 C7.44771525,25 7,25.4477153 7,26 C7,26.5522847 7.44771525,27 8,27 Z M2.92307692,2 L13.0769231,2 C13.6285558,2 14,2.48751266 14,3 L14,5 L2,5 L2,3 C2,2.48751266 2.37144418,2 2.92307692,2 L2.92307692,2 Z M13.0769231,28 L2.92307692,28 C2.37144418,28 2,27.3499831 2,26.6666667 L2,24 L14,24 L14,26.6666667 C14,27.3506581 13.6285558,28 13.0769231,28 Z M6,3.5 C6,3.22385763 6.21505737,3 6.49047852,3 L9.50952148,3 C9.78040529,3 10,3.23193359 10,3.5 C10,3.77614237 9.78494263,4 9.50952148,4 L6.49047852,4 C6.21959471,4 6,3.76806641 6,3.5 Z" id="icon--mobile" fill="#85A1B3" sketch:type="MSShapeGroup"></path>
    </g>
</svg>