<?xml version="1.0" encoding="UTF-8" standalone="no"?>
<svg width="36px" height="30px" viewBox="0 0 36 30" version="1.1" xmlns="http://www.w3.org/2000/svg" xmlns:xlink="http://www.w3.org/1999/xlink" xmlns:sketch="http://www.bohemiancoding.com/sketch/ns">
    <!-- Generator: Sketch 3.3.2 (12043) - http://www.bohemiancoding.com/sketch -->
    <title>icon--desktop</title>
    <desc>Created with Sketch.</desc>
    <defs></defs>
    <g id="Page-1" stroke="none" stroke-width="1" fill="none" fill-rule="evenodd" sketch:type="MSPage">
        <path d="M34.0540541,18 L34.0540541,2.99180311 C34.0540541,2.45530558 33.6080668,2 33.0579136,2 L2.94208636,2 C2.39983626,2 1.94594595,2.44404538 1.94594595,2.99180311 L1.94594595,21.0081969 C1.94594595,21.5446944 2.3919332,22 2.94208636,22 L33.0579136,22 C33.6001637,22 34.0540541,21.5559546 34.0540541,21.0081969 L34.0540541,19 L2,19 L2,18 L34.0540541,18 Z M24.2043933,24 L25.4020326,28.0018986 C25.7322809,29.1054196 25.1054862,30 24.0059397,30 L11.9940603,30 C10.8927712,30 10.2653626,29.1132936 10.5979674,28.0018986 L11.7956067,24 L1.99970728,24 C0.895299444,24 0,23.1029738 0,21.9950534 L0,2.00494659 C0,0.897645164 0.889892578,7.10542736e-15 1.99970728,7.10542736e-15 L34.0002927,7.10542736e-15 C35.1047006,7.10542736e-15 36,0.897026226 36,2.00494659 L36,21.9950534 C36,23.1023548 35.1101074,24 34.0002927,24 L24.2043933,24 L24.2043933,24 Z M22.096555,24 L23.0717907,27.0001925 C23.2618163,27.5523709 23.0066938,28 22.5129883,28 L13.4870117,28 C12.9870405,28 12.7368256,27.5562834 12.9282093,27.0001925 L13.903445,24 L22.096555,24 L22.096555,24 Z" id="icon--desktop" fill="#85A1B3" sketch:type="MSShapeGroup"></path>
    </g>
</svg>