<?xml version="1.0" encoding="UTF-8" standalone="no"?>
<svg width="690px" height="308px" viewBox="0 0 690 308" version="1.1" xmlns="http://www.w3.org/2000/svg" xmlns:xlink="http://www.w3.org/1999/xlink" xmlns:sketch="http://www.bohemiancoding.com/sketch/ns">
    <!-- Generator: Sketch 3.3.2 (12043) - http://www.bohemiancoding.com/sketch -->
    <title>404</title>
    <desc>Created with Sketch.</desc>
    <defs>
        <path id="path-1" d="M203.817,250.514 C184.563,276.86 155.542,290.029 116.769,290.029 C77.99,290.029 48.975,276.86 29.721,250.514 C10.465,224.176 0.838,189.007 0.838,145.013 C0.838,101.026 10.465,65.856 29.721,39.512 C48.975,13.175 77.99,0 116.77,0 C155.542,0 184.564,13.175 203.818,39.512 C223.074,65.856 232.701,101.026 232.701,145.013 C232.7,189.007 223.073,224.176 203.817,250.514 L203.817,250.514 L203.817,250.514 Z"></path>
    </defs>
    <g id="Page-1" stroke="none" stroke-width="1" fill="none" fill-rule="evenodd" sketch:type="MSPage">
        <g id="404" sketch:type="MSLayerGroup">
            <g id="Layer_1" sketch:type="MSShapeGroup">
                <path d="M432.817,256.514 C413.563,282.86 384.542,296.029 345.769,296.029 C306.99,296.029 277.975,282.86 258.721,256.514 C239.465,230.176 229.838,195.007 229.838,151.013 C229.838,107.026 239.465,71.856 258.721,45.512 C277.975,19.175 306.99,6 345.77,6 C384.542,6 413.564,19.175 432.818,45.512 C452.074,71.856 461.701,107.026 461.701,151.013 C461.7,195.007 452.073,230.176 432.817,256.514 L432.817,256.514 L432.817,256.514 Z" id="Shape"></path>
                <g id="Group" transform="translate(21.000000, 286.000000)" fill="#6ABDEB">
                    <path d="M157.894,4.282 L157.894,6.819 L97.724,6.819 L97.724,0.076 C94.402,0.03 91.025,0.006 87.6,0.006 C39.296,0.006 0.136,4.735 0.136,10.569 C0.136,16.403 39.296,21.133 87.6,21.133 C135.906,21.133 175.065,16.403 175.065,10.569 C175.064,8.212 168.681,6.039 157.894,4.282 L157.894,4.282 Z" id="Shape"></path>
                    <path d="M630.437,3.222 L630.437,6.819 L570.267,6.819 L570.267,0.011 C569.379,0.007 568.49,0.005 567.595,0.005 C519.291,0.005 480.131,4.734 480.131,10.568 C480.131,16.402 519.291,21.132 567.595,21.132 C615.901,21.132 655.059,16.402 655.059,10.568 C655.059,7.712 645.676,5.123 630.437,3.222 L630.437,3.222 Z" id="Shape"></path>
                    <path d="M371.8,1.771 C358.158,7.271 342.485,10.029 324.77,10.029 C306.855,10.029 291.029,7.212 277.281,1.591 C252.447,3.454 235.908,6.778 235.908,10.569 C235.908,16.403 275.068,21.133 323.371,21.133 C371.677,21.133 410.837,16.403 410.837,10.569 C410.837,6.897 395.33,3.665 371.8,1.771 L371.8,1.771 Z" id="Shape"></path>
                </g>
                <path d="M108.599,286.005 C156.905,286.005 196.064,290.734 196.064,296.568 C196.064,302.402 156.904,307.132 108.599,307.132 C60.295,307.132 21.135,302.402 21.135,296.568 C21.135,290.734 60.295,286.005 108.599,286.005 L108.599,286.005 L108.599,286.005 Z" id="Shape"></path>
                <path d="M588.595,286.005 C636.901,286.005 676.059,290.734 676.059,296.568 C676.059,302.402 636.901,307.132 588.595,307.132 C540.291,307.132 501.131,302.402 501.131,296.568 C501.131,290.734 540.291,286.005 588.595,286.005 L588.595,286.005 L588.595,286.005 Z" id="Shape"></path>
                <path d="M345.77,6 C384.542,6 413.564,19.175 432.818,45.512 C452.074,71.856 461.701,107.026 461.701,151.013 C461.701,195.007 452.074,230.176 432.818,256.514 C413.564,282.86 384.543,296.029 345.77,296.029 C306.991,296.029 277.976,282.86 258.722,256.514 C239.466,230.176 229.839,195.007 229.839,151.013 C229.839,107.026 239.466,71.856 258.722,45.512 C277.975,19.175 306.99,6 345.77,6 L345.77,6 Z M646.623,12.417 L646.628,12.417 L646.623,12.417 Z M646.623,12.417 L551.553,171.673 L591.267,171.673 L591.267,122.734 L651.437,122.734 L651.437,171.673 L683.128,171.673 L683.128,225.827 L651.437,225.827 L651.437,292.818 L591.267,292.818 L591.267,225.827 L478.543,225.827 L478.543,178.09 L578.43,12.417 L646.623,12.417 L646.623,12.417 Z M174.08,12.417 L174.085,12.417 L174.08,12.417 Z M174.08,12.417 L79.009,171.673 L118.723,171.673 L118.723,122.734 L178.893,122.734 L178.893,171.673 L210.584,171.673 L210.584,225.827 L178.893,225.827 L178.893,292.818 L118.723,292.818 L118.723,225.827 L6,225.827 L6,178.09 L105.884,12.417 L174.08,12.417 L174.08,12.417 Z M345.77,0 C305.155,0 274.238,14.121 253.878,41.971 C233.945,69.241 223.839,105.928 223.839,151.013 C223.839,196.105 233.946,232.791 253.878,260.055 C274.232,287.907 305.149,302.029 345.77,302.029 C386.39,302.029 417.307,287.907 437.662,260.054 C457.595,232.791 467.701,196.105 467.701,151.013 C467.701,105.928 457.595,69.241 437.662,41.971 C417.302,14.121 386.385,0 345.77,0 L345.77,0 L345.77,0 Z M646.628,6.417 L646.623,6.417 L578.43,6.417 C576.326,6.417 574.377,7.518 573.291,9.319 L473.404,174.993 C472.841,175.928 472.543,176.999 472.543,178.091 L472.543,225.828 C472.543,229.141 475.23,231.828 478.543,231.828 L585.267,231.828 L585.267,292.819 C585.267,296.132 587.954,298.819 591.267,298.819 L651.437,298.819 C654.75,298.819 657.437,296.132 657.437,292.819 L657.437,231.828 L683.128,231.828 C686.441,231.828 689.128,229.141 689.128,225.828 L689.128,171.674 C689.128,168.361 686.441,165.674 683.128,165.674 L657.437,165.674 L657.437,122.735 C657.437,119.422 654.75,116.735 651.437,116.735 L591.338,116.735 L651.691,15.635 C652.283,14.705 652.627,13.601 652.627,12.418 C652.626,9.104 649.941,6.417 646.628,6.417 L646.628,6.417 L646.628,6.417 Z M562.122,165.673 L585.267,126.903 L585.267,165.673 L562.122,165.673 L562.122,165.673 Z M174.085,6.417 L174.08,6.417 L105.884,6.417 C103.781,6.417 101.831,7.518 100.746,9.319 L0.861,174.993 C0.298,175.927 0,176.999 0,178.09 L0,225.827 C0,229.14 2.686,231.827 6,231.827 L112.723,231.827 L112.723,292.818 C112.723,296.131 115.41,298.818 118.723,298.818 L178.893,298.818 C182.206,298.818 184.893,296.131 184.893,292.818 L184.893,231.827 L210.584,231.827 C213.897,231.827 216.584,229.14 216.584,225.827 L216.584,171.673 C216.584,168.36 213.897,165.673 210.584,165.673 L184.893,165.673 L184.893,122.734 C184.893,119.421 182.206,116.734 178.893,116.734 L118.793,116.734 L179.147,15.634 C179.739,14.704 180.082,13.6 180.082,12.417 C180.083,9.104 177.399,6.417 174.085,6.417 L174.085,6.417 L174.085,6.417 Z M89.578,165.673 L112.723,126.902 L112.723,165.673 L89.578,165.673 L89.578,165.673 Z" id="Shape" fill="#3D3A3D"></path>
            </g>
            <g id="Layer_3" transform="translate(229.000000, 6.000000)">
                <g id="Clipped">
                    <mask id="mask-2" sketch:name="SVGID_1_" fill="white">
                        <use xlink:href="#path-1"></use>
                    </mask>
                    <g id="SVGID_1_"></g>
                    <g id="Group" mask="url(#mask-2)">
                        <g transform="translate(-42.000000, -4.000000)">
                            <g id="Group" stroke-width="1" fill="none" sketch:type="MSLayerGroup" transform="translate(102.000000, 176.000000)">
                                <path d="M70.123,51.693 C70,51.693 69.876,51.681 69.752,51.657 C17.642,40.847 2.158,7.112 1.757,5.678 C1.487,4.71 0.8,2.471 1.766,2.197 C2.738,1.927 2.403,0.623 2.677,1.59 C2.771,1.92 20.675,37.755 70.491,48.087 C71.476,48.292 72.11,49.257 71.906,50.242 C71.727,51.102 70.968,51.693 70.123,51.693 L70.123,51.693 Z" id="Shape" fill="#3E3B3E" sketch:type="MSShapeGroup"></path>
                                <path d="M70.123,52.604 C69.941,52.604 69.759,52.586 69.576,52.55 C15.825,41.401 0.975,6.267 0.879,5.923 L0.836,5.77 C0.447,4.393 -0.275,1.83 1.517,1.321 C1.579,1.284 1.616,1.153 1.629,1.104 C1.824,0.403 2.339,0.327 2.552,0.327 C3.227,0.327 3.425,0.895 3.535,1.278 C4.147,2.53 21.939,37.087 70.675,47.195 C72.152,47.502 73.103,48.952 72.797,50.426 C72.534,51.689 71.41,52.604 70.123,52.604 L70.123,52.604 Z M2.182,3.019 C2.124,3.353 2.261,4.111 2.59,5.275 L2.634,5.433 C2.736,5.763 17.179,39.821 69.936,50.765 C70.37,50.849 70.914,50.539 71.014,50.055 C71.116,49.565 70.797,49.08 70.305,48.978 C24.796,39.54 5.761,9.121 2.367,2.938 C2.308,2.968 2.246,2.995 2.182,3.019 L2.182,3.019 Z" id="Shape" fill="#3E3B3E" sketch:type="MSShapeGroup"></path>
                            </g>
                            <path d="M27.759,248.1 L5.273,248.1 L5.247,246.154 C5.239,245.67 5.231,245.185 5.231,244.697 C5.231,216.427 14.93,188.478 28.817,176.728 L31.743,174.252 L31.043,178.02 C30.646,180.161 30.105,182.34 29.534,184.647 C28.334,189.489 27.094,194.495 27.094,199.562 C27.094,201.256 27.081,203.274 27.066,205.566 C27.002,215.506 26.905,230.529 27.69,246.668 L27.759,248.1 L27.759,248.1 Z M7.968,245.368 L24.892,245.368 C24.177,229.702 24.27,215.224 24.333,205.549 C24.348,203.264 24.361,201.252 24.361,199.563 C24.361,194.162 25.642,188.992 26.882,183.991 C27.055,183.296 27.224,182.612 27.387,181.939 C17.515,192.887 7.965,215.71 7.965,244.698 C7.964,244.921 7.965,245.144 7.968,245.368 L7.968,245.368 Z" id="Shape" fill="#3E3B3E" sketch:type="MSShapeGroup"></path>
                            <g id="Group" stroke-width="1" fill="none" sketch:type="MSLayerGroup" transform="translate(24.000000, 158.000000)">
                                <path d="M97.753,78.347 C95.038,69.334 92.534,61.293 91.003,54.814 C86.132,34.208 82.5,9.264 82.5,9.264 C82.5,9.264 68.912,17.617 50.313,16.553 C26.635,15.199 15.792,2.639 15.792,2.639 C15.792,2.639 1.727,18.484 1.727,41.562 C1.727,48.993 1.665,62.654 2.371,78.347 L97.753,78.347 L97.753,78.347 Z" id="Shape" fill="#6ABEEC" sketch:type="MSShapeGroup"></path>
                                <path d="M99.592,79.713 L1.064,79.713 L1.005,78.408 C0.348,63.788 0.356,50.913 0.359,43.22 L0.36,41.562 C0.36,18.233 14.181,2.395 14.769,1.732 L15.805,0.565 L16.825,1.747 C16.929,1.866 27.635,13.888 50.39,15.189 C51.45,15.25 52.529,15.281 53.596,15.281 C69.913,15.28 81.667,8.172 81.784,8.1 L83.553,7.013 L83.852,9.067 C83.888,9.316 87.532,34.19 92.332,54.5 C93.635,60.012 95.617,66.563 97.911,74.146 L99.592,79.713 L99.592,79.713 Z M3.678,76.981 L95.912,76.981 L95.295,74.938 C92.987,67.31 90.994,60.722 89.672,55.128 C85.626,38.013 82.401,17.695 81.44,11.408 C77.448,13.466 67.1,18.012 53.596,18.012 C52.477,18.012 51.346,17.98 50.234,17.916 C30.264,16.773 19.269,7.926 15.885,4.691 C12.8,8.684 3.093,22.745 3.093,41.56 L3.092,43.22 C3.088,50.662 3.082,62.961 3.678,76.981 L3.678,76.981 Z" id="Shape" fill="#3E3B3E" sketch:type="MSShapeGroup"></path>
                            </g>
                            <g id="Group" stroke-width="1" fill="none" sketch:type="MSLayerGroup" transform="translate(129.000000, 144.000000)">
                                <path d="M4.514,124.734 C4.126,124.734 3.755,124.447 3.495,124.156 C3.226,123.855 3.104,123.39 3.161,122.99 C3.195,122.751 6.556,98.726 3.161,75.083 C-0.281,51.111 1.154,12.86 1.169,12.478 C1.186,12.042 1.409,11.633 1.77,11.39 C2.13,11.147 2.587,11.086 2.996,11.233 C4.646,11.826 18.499,16.88 23.224,21.179 C33.788,16.527 49.612,15.773 53.259,15.658 L62.554,0.986 C62.816,0.574 63.264,0.333 63.766,0.352 C64.254,0.373 64.694,0.652 64.92,1.085 C65.088,1.407 81.747,33.634 84.402,63.012 C87.08,92.611 67.902,120.794 67.085,121.98 C66.838,122.336 66.437,122.678 66.003,122.692 L4.556,124.735 C4.542,124.734 4.528,124.734 4.514,124.734 L4.514,124.734 Z M3.838,14.455 C3.6,22.444 2.896,53.977 5.866,74.664 C8.807,95.153 6.761,115.877 6.07,121.707 L65.211,119.859 C67.908,115.713 84.065,89.616 81.68,63.257 C79.465,38.747 67.273,12.122 63.566,4.495 L55.177,17.736 C54.931,18.125 54.505,18.363 54.045,18.371 C53.853,18.374 34.656,18.748 23.51,24.052 C22.952,24.317 22.285,24.175 21.883,23.703 C19.387,20.772 9.251,16.511 3.838,14.455 L3.838,14.455 Z" id="Shape" fill="#3E3B3E" sketch:type="MSShapeGroup"></path>
                                <path d="M33.683,59.63 L33.683,59.63 C33.445,59.63 33.205,59.623 32.965,59.609 C26.043,59.202 20.756,53.021 21.178,45.83 C21.598,38.672 27.514,33.127 34.499,33.527 C37.864,33.725 40.943,35.275 43.171,37.891 C45.384,40.49 46.489,43.833 46.285,47.304 C45.88,54.216 40.344,59.63 33.683,59.63 L33.683,59.63 Z M33.778,36.24 C28.564,36.24 24.227,40.523 23.906,45.991 C23.572,51.678 27.707,56.563 33.125,56.882 C38.561,57.195 43.226,52.809 43.557,47.146 C43.72,44.381 42.844,41.724 41.09,39.665 C39.351,37.622 36.953,36.412 34.339,36.258 C34.151,36.246 33.964,36.24 33.778,36.24 L33.778,36.24 Z" id="Shape" fill="#3E3B3E" sketch:type="MSShapeGroup"></path>
                                <ellipse id="Oval" fill="#3E3B3E" sketch:type="MSShapeGroup" transform="translate(35.197323, 46.650041) rotate(3.347956) translate(-35.197323, -46.650041) " cx="35.1973233" cy="46.6500409" rx="2.73301838" ry="2.85101917"></ellipse>
                                <path d="M59.723,52.269 C59.722,52.269 59.722,52.269 59.723,52.269 C59.507,52.269 59.29,52.263 59.074,52.25 C52.825,51.882 48.052,46.305 48.433,39.818 C48.812,33.358 54.201,28.356 60.457,28.717 C66.704,29.086 71.477,34.662 71.098,41.149 C70.729,47.385 65.732,52.269 59.723,52.269 L59.723,52.269 Z M59.805,31.432 C55.24,31.432 51.443,35.186 51.161,39.979 C50.868,44.961 54.489,49.243 59.233,49.522 C63.982,49.802 68.077,45.953 68.369,40.99 C68.661,36.009 65.039,31.727 60.297,31.447 C60.132,31.437 59.968,31.432 59.805,31.432 L59.805,31.432 Z" id="Shape" fill="#3E3B3E" sketch:type="MSShapeGroup"></path>
                                <ellipse id="Oval" fill="#3E3B3E" sketch:type="MSShapeGroup" transform="translate(61.057629, 40.577784) rotate(3.347956) translate(-61.057629, -40.577784) " cx="61.0576288" cy="40.5777839" rx="2.43501638" ry="2.54001708"></ellipse>
                                <path d="M52.682,57.61 C52.469,57.61 52.254,57.56 52.055,57.458 C51.622,57.233 49.428,56.026 48.746,54.26 C48.497,53.615 48.596,52.918 49.022,52.296 C49.867,51.064 52.067,50.205 53.512,50.205 C55.001,50.205 55.698,51.058 55.853,51.856 C56.226,53.762 54.342,56.342 53.756,57.088 C53.49,57.427 53.09,57.61 52.682,57.61 L52.682,57.61 Z M51.509,53.629 C51.708,53.881 52.001,54.146 52.314,54.385 C52.627,53.879 52.885,53.381 53.035,52.991 C52.474,53.107 51.854,53.386 51.509,53.629 L51.509,53.629 Z" id="Shape" fill="#3E3B3E" sketch:type="MSShapeGroup"></path>
                                <path d="M49.82,64.871 C49.743,64.871 49.666,64.865 49.587,64.851 C48.844,64.723 48.344,64.017 48.472,63.273 C48.882,60.882 49.951,56.874 52.447,57.041 C54.743,57.175 56.54,60.257 56.877,60.873 C57.238,61.535 56.995,62.365 56.333,62.727 C55.672,63.086 54.84,62.845 54.479,62.183 C53.899,61.129 52.982,60.071 52.467,59.823 C52.038,60.365 51.441,62.136 51.166,63.736 C51.051,64.401 50.474,64.871 49.82,64.871 L49.82,64.871 Z" id="Shape" fill="#3E3B3E" sketch:type="MSShapeGroup"></path>
                            </g>
                            <path d="M95.517,148.566 C95.154,148.566 94.787,148.451 94.475,148.214 C93.72,147.638 93.574,146.559 94.15,145.803 C96.606,142.582 103.928,141.093 106.019,141.929 C106.901,142.282 107.331,143.283 106.977,144.165 C106.624,145.048 105.623,145.478 104.741,145.123 C103.607,144.851 98.293,146.042 96.886,147.889 C96.548,148.333 96.035,148.566 95.517,148.566 L95.517,148.566 Z" id="Shape" fill="#3E3B3E" sketch:type="MSShapeGroup"></path>
                            <path d="M75.668,230.763 C71.563,230.763 67.676,229.731 64.034,227.664 C46.044,217.468 40.85,185.442 40.637,184.084 C40.404,182.593 41.424,181.196 42.915,180.963 C44.42,180.729 45.803,181.749 46.037,183.238 C46.088,183.547 51.04,214.024 66.737,222.913 C72.101,225.951 78.02,226.091 84.827,223.337 C118.163,209.854 127.482,223.807 127.861,224.409 C128.669,225.681 128.291,227.371 127.016,228.178 C125.745,228.987 124.053,228.611 123.245,227.334 C123.202,227.272 115.527,216.814 86.876,228.405 C82.992,229.975 79.247,230.763 75.668,230.763 L75.668,230.763 Z" id="Shape" fill="#3E3B3E" sketch:type="MSShapeGroup"></path>
                            <circle id="Oval" fill="#3E3B3E" sketch:type="MSShapeGroup" cx="87.384" cy="128.65" r="3.31"></circle>
                            <circle id="Oval" fill="#3E3B3E" sketch:type="MSShapeGroup" cx="111.053" cy="125.496" r="3.31"></circle>
                            <path d="M77.455,176.315 C47.956,176.315 23.956,154.936 23.956,128.659 C23.956,102.382 47.956,81.005 77.455,81.005 C106.953,81.005 130.951,102.382 130.951,128.659 C130.951,154.936 106.953,176.315 77.455,176.315 L77.455,176.315 Z M77.455,83.92 C49.563,83.92 26.872,103.99 26.872,128.659 C26.872,153.328 49.564,173.399 77.455,173.399 C105.346,173.399 128.036,153.329 128.036,128.659 C128.036,103.989 105.346,83.92 77.455,83.92 L77.455,83.92 Z" id="Shape" fill="#3E3B3E" sketch:type="MSShapeGroup"></path>
                            <path d="M81.216,118.879 C80.533,118.879 79.908,118.424 79.722,117.733 C79.499,116.907 79.988,116.057 80.814,115.835 L92.171,112.773 C92.266,112.735 92.345,112.7 92.412,112.667 C92.049,112.085 92.119,111.314 92.615,110.791 C93.204,110.171 94.198,110.155 94.818,110.745 C95.347,111.247 95.889,112.213 95.674,113.283 C95.461,114.343 94.63,115.155 93.204,115.696 C93.156,115.714 93.107,115.73 93.058,115.743 L81.621,118.826 C81.485,118.862 81.349,118.879 81.216,118.879 L81.216,118.879 Z" id="Shape" fill="#3E3B3E" sketch:type="MSShapeGroup"></path>
                            <path d="M104.19,119.691 C103.494,119.691 102.862,119.219 102.688,118.513 C102.483,117.682 102.99,116.844 103.82,116.638 L114.207,114.074 C115.039,113.869 115.876,114.376 116.082,115.206 C116.287,116.037 115.78,116.875 114.95,117.081 L104.563,119.645 C104.438,119.676 104.313,119.691 104.19,119.691 L104.19,119.691 Z" id="Shape" fill="#3E3B3E" sketch:type="MSShapeGroup"></path>
                            <g id="Group" stroke-width="1" fill="none" sketch:type="MSLayerGroup" transform="translate(7.000000, 258.000000)">
                                <path d="M1.418,1.578 L1.418,7.044 C1.418,9.056 3.049,10.688 5.062,10.688 L269.699,10.688 C271.711,10.688 273.344,9.056 273.344,7.044 L273.344,1.578 L1.418,1.578 L1.418,1.578 Z" id="Shape" fill="#6ABEEC" sketch:type="MSShapeGroup"></path>
                                <path d="M269.699,11.598 L5.062,11.598 C2.551,11.598 0.507,9.555 0.507,7.043 L0.507,0.666 L274.255,0.666 L274.255,7.043 C274.255,9.555 272.211,11.598 269.699,11.598 L269.699,11.598 Z M2.33,2.489 L2.33,7.044 C2.33,8.551 3.556,9.776 5.062,9.776 L269.699,9.776 C271.206,9.776 272.432,8.55 272.432,7.044 L272.432,2.489 L2.33,2.489 L2.33,2.489 Z" id="Shape" fill="#3E3B3E" sketch:type="MSShapeGroup"></path>
                            </g>
                            <g id="Group" stroke-width="1" fill="none" sketch:type="MSLayerGroup" transform="translate(0.000000, 234.000000)">
                                <path d="M289.908,21.933 C289.908,23.945 288.276,25.578 286.264,25.578 L6.112,25.578 C4.1,25.578 2.468,23.945 2.468,21.933 L2.468,5.991 C2.468,3.979 4.099,2.347 6.112,2.347 L286.265,2.347 C288.277,2.347 289.909,3.979 289.909,5.991 L289.909,21.933 L289.908,21.933 Z" id="Shape" fill="#F0F0F0" sketch:type="MSShapeGroup"></path>
                                <path d="M286.265,27.4 L6.112,27.4 C3.098,27.4 0.647,24.948 0.647,21.933 L0.647,5.991 C0.647,2.977 3.099,0.525 6.112,0.525 L286.265,0.525 C289.279,0.525 291.731,2.977 291.731,5.991 L291.731,21.933 C291.73,24.948 289.278,27.4 286.265,27.4 L286.265,27.4 Z M6.112,4.169 C5.108,4.169 4.29,4.985 4.29,5.99 L4.29,21.932 C4.29,22.937 5.107,23.754 6.112,23.754 L286.265,23.754 C287.27,23.754 288.086,22.937 288.086,21.932 L288.086,5.99 C288.086,4.985 287.27,4.169 286.265,4.169 L6.112,4.169 L6.112,4.169 Z" id="Shape" fill="#3E3B3E" sketch:type="MSShapeGroup"></path>
                            </g>
                            <rect id="Rectangle-path" fill="#3E3B3E" sketch:type="MSShapeGroup" x="12.973" y="268.687" width="2.733" height="19.586"></rect>
                            <rect id="Rectangle-path" fill="#3E3B3E" sketch:type="MSShapeGroup" x="25.728" y="268.687" width="2.733" height="19.586"></rect>
                            <rect id="Rectangle-path" fill="#3E3B3E" sketch:type="MSShapeGroup" x="79.02" y="268.687" width="2.733" height="19.586"></rect>
                            <rect id="Rectangle-path" fill="#3E3B3E" sketch:type="MSShapeGroup" x="92.228" y="268.687" width="2.733" height="19.586"></rect>
                            <rect id="Rectangle-path" fill="#3E3B3E" sketch:type="MSShapeGroup" x="253.015" y="268.687" width="2.732" height="19.586"></rect>
                            <rect id="Rectangle-path" fill="#3E3B3E" sketch:type="MSShapeGroup" x="269.868" y="268.687" width="2.732" height="19.586"></rect>
                            <g id="Group" stroke-width="1" fill="none" sketch:type="MSLayerGroup" transform="translate(96.000000, 224.000000)">
                                <path d="M107.822,12.347 L107.822,5.515 C107.822,3.502 106.19,1.872 104.176,1.872 L6.248,1.872 C4.235,1.872 2.604,3.502 2.604,5.515 L2.604,12.347 L107.822,12.347 L107.822,12.347 Z" id="Shape" fill="#F0F0F0" sketch:type="MSShapeGroup"></path>
                                <path d="M109.645,14.169 L0.783,14.169 L0.783,5.515 C0.783,2.502 3.235,0.05 6.248,0.05 L104.176,0.05 C107.191,0.05 109.644,2.502 109.644,5.515 L109.644,14.169 L109.645,14.169 Z M4.427,10.525 L106,10.525 L106,5.515 C106,4.511 105.183,3.695 104.177,3.695 L6.249,3.695 C5.245,3.695 4.427,4.511 4.427,5.515 L4.427,10.525 L4.427,10.525 Z" id="Shape" fill="#3E3B3E" sketch:type="MSShapeGroup"></path>
                            </g>
                            <path d="M288.634,237.713 L205.099,237.713 L207.663,235.343 C216.998,226.718 231.286,221.772 246.865,221.772 C262.443,221.772 276.732,226.718 286.068,235.343 L288.634,237.713 L288.634,237.713 Z M212.356,234.981 L281.375,234.981 C272.637,228.373 260.04,224.504 246.865,224.504 C233.69,224.504 221.094,228.373 212.356,234.981 L212.356,234.981 Z" id="Shape" fill="#3E3B3E" sketch:type="MSShapeGroup"></path>
                            <g id="Group" stroke-width="1" fill="none" sketch:type="MSLayerGroup" transform="translate(190.000000, 96.000000)">
                                <path d="M114.028,118.485 C114.028,120.497 112.397,122.129 110.384,122.129 L5.623,122.129 C3.61,122.129 1.978,120.497 1.978,118.485 L1.978,5.979 C1.978,3.966 3.61,2.335 5.623,2.335 L110.385,2.335 C112.398,2.335 114.029,3.966 114.029,5.979 L114.029,118.485 L114.028,118.485 Z" id="Shape" fill="#F0F0F0" sketch:type="MSShapeGroup"></path>
                                <path d="M110.385,123.951 L5.623,123.951 C2.608,123.951 0.156,121.499 0.156,118.485 L0.156,5.979 C0.156,2.965 2.608,0.513 5.623,0.513 L110.385,0.513 C113.399,0.513 115.851,2.965 115.851,5.979 L115.851,118.484 C115.851,121.499 113.398,123.951 110.385,123.951 L110.385,123.951 Z M5.623,4.157 C4.618,4.157 3.801,4.974 3.801,5.979 L3.801,118.484 C3.801,119.489 4.618,120.305 5.623,120.305 L110.385,120.305 C111.39,120.305 112.206,119.489 112.206,118.484 L112.206,5.979 C112.206,4.974 111.39,4.157 110.385,4.157 L5.623,4.157 L5.623,4.157 Z" id="Shape" fill="#3E3B3E" sketch:type="MSShapeGroup"></path>
                            </g>
                            <rect id="Rectangle-path" fill="#6ABEEC" sketch:type="MSShapeGroup" x="204.884" y="100.461" width="97.778" height="116.604"></rect>
                            <rect id="Rectangle-path" fill="#3E3B3E" sketch:type="MSShapeGroup" x="202.456" y="98.335" width="2.732" height="119.793"></rect>
                            <rect id="Rectangle-path" fill="#3E3B3E" sketch:type="MSShapeGroup" x="220.676" y="218.128" width="2.732" height="9.691"></rect>
                            <rect id="Rectangle-path" fill="#3E3B3E" sketch:type="MSShapeGroup" x="226.597" y="218.128" width="2.732" height="7.744"></rect>
                            <rect id="Rectangle-path" fill="#3E3B3E" sketch:type="MSShapeGroup" x="269.868" y="218.128" width="2.732" height="9.564"></rect>
                            <path d="M208.118,294.515 C203.558,294.515 199.089,293.513 195.23,291.703 C184.555,286.693 179.909,276.598 183.393,265.983 C188.62,250.055 183.431,231.67 183.378,231.487 L186.003,230.728 C186.23,231.511 191.483,250.09 185.988,266.834 C182.316,278.023 188.954,285.738 196.39,289.228 C206.693,294.064 221.814,292.564 229.536,280.257 C243.611,257.824 237.201,236.969 237.135,236.761 L239.739,235.931 C240.026,236.829 246.594,258.213 231.851,281.71 C226.2,290.719 216.993,294.515 208.118,294.515 L208.118,294.515 Z" id="Shape" fill="#3E3B3E" sketch:type="MSShapeGroup"></path>
                            <g id="Group" stroke-width="1" fill="none" sketch:type="MSLayerGroup" transform="translate(165.000000, 0.000000)">
                                <path d="M32.596,65.364 C23.965,65.364 15.851,62.003 9.75,55.9 C3.647,49.799 0.286,41.686 0.286,33.056 C0.286,24.425 3.647,16.312 9.75,10.21 C15.852,4.107 23.965,0.747 32.596,0.747 C41.226,0.747 49.338,4.108 55.439,10.211 C61.543,16.312 64.904,24.425 64.904,33.056 C64.904,41.686 61.543,49.8 55.439,55.902 C49.338,62.003 41.226,65.364 32.596,65.364 L32.596,65.364 Z M32.596,4.026 C24.841,4.026 17.551,7.046 12.069,12.529 C6.586,18.011 3.566,25.301 3.566,33.056 C3.566,40.81 6.586,48.099 12.069,53.581 C17.551,59.064 24.841,62.084 32.596,62.084 C40.35,62.084 47.639,59.064 53.12,53.583 C58.603,48.1 61.624,40.81 61.624,33.056 C61.624,25.301 58.603,18.011 53.12,12.53 C47.639,7.046 40.35,4.026 32.596,4.026 L32.596,4.026 Z" id="Shape" fill="#3E3B3E" sketch:type="MSShapeGroup"></path>
                                <path d="M32.596,35.207 C32.043,35.207 31.493,34.999 31.074,34.577 L22.168,25.67 C21.328,24.832 21.328,23.469 22.168,22.629 C23.009,21.788 24.372,21.788 25.212,22.629 L32.597,30.013 L45.475,17.133 C46.318,16.292 47.681,16.292 48.52,17.133 C49.362,17.972 49.362,19.334 48.52,20.175 L34.118,34.576 C33.696,34.998 33.146,35.207 32.596,35.207 L32.596,35.207 Z" id="Shape" fill="#3E3B3E" sketch:type="MSShapeGroup"></path>
                                <path d="M32.596,56.689 C31.803,56.689 31.158,56.046 31.158,55.254 L31.158,53.281 C31.158,52.49 31.803,51.847 32.596,51.847 C33.387,51.847 34.031,52.49 34.031,53.281 L34.031,55.254 C34.03,56.046 33.388,56.689 32.596,56.689 L32.596,56.689 Z" id="Shape" fill="#3E3B3E" sketch:type="MSShapeGroup"></path>
                                <path d="M54.794,34.491 L52.82,34.491 C52.029,34.491 51.385,33.846 51.385,33.055 C51.385,32.263 52.029,31.62 52.82,31.62 L54.794,31.62 C55.586,31.62 56.229,32.263 56.229,33.055 C56.229,33.847 55.586,34.491 54.794,34.491 L54.794,34.491 Z" id="Shape" fill="#3E3B3E" sketch:type="MSShapeGroup"></path>
                                <path d="M32.596,14.265 C31.803,14.265 31.158,13.62 31.158,12.828 L31.158,10.855 C31.158,10.063 31.803,9.421 32.596,9.421 C33.387,9.421 34.031,10.063 34.031,10.855 L34.031,12.828 C34.03,13.62 33.388,14.265 32.596,14.265 L32.596,14.265 Z" id="Shape" fill="#3E3B3E" sketch:type="MSShapeGroup"></path>
                                <path d="M12.37,34.491 L10.396,34.491 C9.602,34.491 8.96,33.846 8.96,33.055 C8.96,32.263 9.604,31.62 10.396,31.62 L12.37,31.62 C13.162,31.62 13.804,32.263 13.804,33.055 C13.804,33.847 13.16,34.491 12.37,34.491 L12.37,34.491 Z" id="Shape" fill="#3E3B3E" sketch:type="MSShapeGroup"></path>
                            </g>
                            <g id="Group" stroke-width="1" fill="none" sketch:type="MSLayerGroup" transform="translate(15.000000, 69.000000)">
                                <path d="M40.636,28.172 C40.636,28.172 95.344,40.393 113.969,33.41 C108.148,28.751 106.403,27.008 106.403,27.008 L111.06,18.276 C111.06,18.276 90.108,-0.929 58.098,2.563 C41.003,4.429 20.27,17.115 20.27,17.115 C20.27,17.115 2.227,29.337 2.227,41.558 C2.227,53.781 10.956,64.257 10.956,64.257 C10.956,64.257 31.907,59.019 40.636,28.172 L40.636,28.172 Z" id="Shape" fill="#3E3B3E" sketch:type="MSShapeGroup"></path>
                                <path d="M10.955,65.566 C10.572,65.566 10.201,65.398 9.949,65.095 C9.58,64.652 0.916,54.11 0.916,41.557 C0.916,28.787 18.774,16.544 19.535,16.03 C20.443,15.473 40.766,3.136 57.955,1.26 C60.583,0.973 63.244,0.828 65.863,0.828 C93.641,0.828 111.21,16.637 111.945,17.31 C112.385,17.714 112.497,18.364 112.216,18.892 L108.033,26.736 C108.995,27.606 111.043,29.391 114.788,32.388 C115.156,32.682 115.337,33.152 115.263,33.617 C115.189,34.082 114.871,34.471 114.43,34.637 C110.468,36.122 104.672,36.876 97.204,36.876 C76.377,36.876 47.729,31.026 41.553,29.711 C32.532,59.887 12.147,65.309 11.273,65.527 C11.167,65.553 11.061,65.566 10.955,65.566 L10.955,65.566 Z M65.863,3.447 C63.338,3.447 60.773,3.587 58.239,3.864 C41.638,5.676 21.157,18.106 20.952,18.231 C20.828,18.316 3.535,30.176 3.535,41.557 C3.535,51.442 9.577,60.263 11.428,62.733 C15.261,61.386 31.932,54.12 39.375,27.816 C39.564,27.147 40.24,26.741 40.921,26.895 C41.251,26.968 74.148,34.256 97.203,34.256 C103.006,34.256 107.713,33.798 111.24,32.89 C106.938,29.383 105.542,27.999 105.477,27.934 C105.069,27.527 104.976,26.9 105.247,26.392 L109.407,18.591 C105.764,15.612 89.432,3.447 65.863,3.447 L65.863,3.447 Z" id="Shape" fill="#3E3B3E" sketch:type="MSShapeGroup"></path>
                            </g>
                        </g>
                    </g>
                </g>
            </g>
        </g>
    </g>
</svg>